<svg class="main-svg" xmlns="http://www.w3.org/2000/svg" xmlns:xlink="http://www.w3.org/1999/xlink" width="980" height="500" viewBox="0 0 980 500"><rect x="0" y="0" width="980" height="500" style="fill: rgb(255, 255, 255); fill-opacity: 1;"/><defs id="defs-d19b5d"><g class="clips"><clipPath id="clipd19b5dxyplot" class="plotclip"><rect width="685" height="320"/></clipPath><clipPath class="axesclip" id="clipd19b5dx"><rect x="80" y="0" width="685" height="500"/></clipPath><clipPath class="axesclip" id="clipd19b5dy"><rect x="0" y="100" width="980" height="320"/></clipPath><clipPath class="axesclip" id="clipd19b5dxy"><rect x="80" y="100" width="685" height="320"/></clipPath></g><g class="gradients"/></defs><g class="bglayer"><rect class="bg" x="80" y="100" width="685" height="320" style="fill: rgb(237, 237, 237); fill-opacity: 1; stroke-width: 0;"/></g><g class="layer-below"><g class="imagelayer"/><g class="shapelayer"/></g><g class="cartesianlayer"><g class="subplot xy"><g class="layer-subplot"><g class="shapelayer"/><g class="imagelayer"/></g><g class="gridlayer"><g class="x"><path class="xgrid crisp" transform="translate(165.63,0)" d="M0,100v320" style="stroke: rgb(255, 255, 255); stroke-opacity: 1; stroke-width: 1px;"/><path class="xgrid crisp" transform="translate(251.25,0)" d="M0,100v320" style="stroke: rgb(255, 255, 255); stroke-opacity: 1; stroke-width: 1px;"/><path class="xgrid crisp" transform="translate(336.88,0)" d="M0,100v320" style="stroke: rgb(255, 255, 255); stroke-opacity: 1; stroke-width: 1px;"/><path class="xgrid crisp" transform="translate(422.51,0)" d="M0,100v320" style="stroke: rgb(255, 255, 255); stroke-opacity: 1; stroke-width: 1px;"/><path class="xgrid crisp" transform="translate(508.13,0)" d="M0,100v320" style="stroke: rgb(255, 255, 255); stroke-opacity: 1; stroke-width: 1px;"/><path class="xgrid crisp" transform="translate(593.76,0)" d="M0,100v320" style="stroke: rgb(255, 255, 255); stroke-opacity: 1; stroke-width: 1px;"/><path class="xgrid crisp" transform="translate(679.38,0)" d="M0,100v320" style="stroke: rgb(255, 255, 255); stroke-opacity: 1; stroke-width: 1px;"/></g><g class="y"><path class="ygrid crisp" transform="translate(0,375.2)" d="M80,0h685" style="stroke: rgb(255, 255, 255); stroke-opacity: 1; stroke-width: 1px;"/><path class="ygrid crisp" transform="translate(0,317.59000000000003)" d="M80,0h685" style="stroke: rgb(255, 255, 255); stroke-opacity: 1; stroke-width: 1px;"/><path class="ygrid crisp" transform="translate(0,202.39)" d="M80,0h685" style="stroke: rgb(255, 255, 255); stroke-opacity: 1; stroke-width: 1px;"/><path class="ygrid crisp" transform="translate(0,144.78)" d="M80,0h685" style="stroke: rgb(255, 255, 255); stroke-opacity: 1; stroke-width: 1px;"/></g></g><g class="zerolinelayer"><path class="xzl zl crisp" transform="translate(80,0)" d="M0,100v320" style="stroke: rgb(255, 255, 255); stroke-opacity: 1; stroke-width: 1px;"/><path class="yzl zl crisp" transform="translate(0,259.99)" d="M80,0h685" style="stroke: rgb(255, 255, 255); stroke-opacity: 1; stroke-width: 1px;"/></g><path class="xlines-below"/><path class="ylines-below"/><g class="overlines-below"/><g class="xaxislayer-below"/><g class="yaxislayer-below"/><g class="overaxes-below"/><g class="plot" transform="translate(80, 100)" clip-path="url('#clipd19b5dxyplot')"><g class="scatterlayer mlayer"><g class="trace scatter tracecb6fcf3a-3a70-4a1c-abad-6bf2b056fb26" style="stroke-miterlimit: 2; opacity: 1;"><g class="fills"/><g class="errorbars"/><g class="lines"><path class="js-line" d="M0,154.25L0.06,164.78L0.11,148.74L0.46,159.43L0.47,154.43L0.58,147.81L0.82,170.58L1.15,159.45L1.16,160.69L1.55,147.37L1.59,165.96L1.89,158.46L1.91,158.68L2.35,166.52L2.6,151.01L2.67,161.86L2.68,161.79L3.06,148.41L3.31,166.7L3.43,158.87L3.44,160.66L3.56,148.66L3.66,170.1L4.18,159.45L4.2,155.42L4.31,150.06L4.45,163.2L4.85,163.14L4.86,164.99L5.16,167.49L5.44,149.68L5.61,154.54L5.62,157.68L5.76,151.13L5.83,169.89L6.38,160.83L6.39,158.97L6.68,147.01L7.07,165.13L7.13,160.36L7.14,158.14L7.54,169.02L7.68,148.8L7.86,164.62L7.87,166.32L8.06,168.19L8.42,149.97L8.61,161.63L8.62,162.42L8.77,164.57L8.86,149.58L9.19,164.14L9.2,166.72L9.22,167.56L9.38,146.61L9.65,156.64L9.67,150.52L9.68,146.08L9.73,166.04L10.39,159.46L10.4,161.57L10.51,166.43L10.7,147.74L11.09,156.98L11.1,155.86L11.18,167.14L11.35,150.39L11.83,157.27L11.84,155.53L11.87,148.88L12.17,165.37L12.55,161.55L12.57,161.32L12.63,149.73L12.72,160.81L12.73,162.45L12.84,152.08L13.08,166.2L13.1,153.05L13.11,147.73L13.19,167.92L13.75,149.57L13.76,149.45L13.86,169.31L14.24,148.79L14.49,162.03L14.5,158.87L14.98,148.72L15.22,165.93L15.23,167.66L15.27,173.04L15.66,151.56L15.94,159.63L15.95,158.99L16.14,150.14L16.6,170.53L16.71,153.95L16.72,155.47L16.8,165.39L17.18,151.84L17.41,160.55L17.42,161.14L17.51,149.94L17.66,167.84L18.1,159.32L18.11,156.94L18.56,151.1L18.7,166.35L18.84,159.97L18.85,159L19,164.52L19.09,149.7L19.53,155.82L19.54,155.38L19.73,149.73L19.88,167.53L20.26,155.5L20.27,154.86L20.67,168.67L20.78,151L21,157.27L21.01,157.87L21.26,150.01L21.63,164.62L21.78,163.5L21.79,162.06L22.22,151.54L22.34,165.31L22.35,165.73L22.46,167.57L23.05,152.76L23.11,161.22L23.12,161.47L23.43,154.5L23.57,166.43L23.68,158.33L23.69,157.15L23.9,165.31L24.07,154.6L24.37,154.76L24.38,153.71L24.49,151.6L24.67,165.51L24.84,162.89L24.85,165.44L25.11,167.04L25.43,150.35L25.61,159.55L25.62,161.06L26.04,168.01L26.17,150.08L26.32,160.18L26.33,162.12L26.73,148.34L27.09,173.32L27.12,169.09L27.13,167.2L27.46,147.29L27.56,162.96L27.57,164.49L27.76,157.45L27.84,173.36L27.85,175.95L28.43,146.4L28.53,170.58L28.55,175.9L28.56,177.76L28.71,147.34L29.16,149.88L29.17,147.85L29.19,147.37L29.29,166.25L29.5,160.45L29.51,166.12L29.57,174.22L30.17,141.02L30.25,162.54L30.26,158.62L30.38,210.93L30.41,101.67L30.91,122.31L30.92,109.43L31.54,191.67L31.67,163.97L31.68,141.42L31.69,129.17L32.31,182.01L32.42,148.97L32.43,153.92L33.04,196.08L33.08,123.69L33.14,152.36L33.15,136.9L33.42,127L33.51,190.02L33.89,158.47L33.9,150.35L34.12,144.72L34.18,177.27L34.66,145.31L34.67,146.92L34.84,143.99L34.91,171.35L35.44,160.3L35.45,162.8L35.5,156.89L35.55,167.02L35.56,168.07L35.85,171.23L36.28,144.16L36.31,158.7L36.32,167.21L36.49,173.82L36.99,129.67L37,122.54L37.8,180.49L37.81,179.12L37.83,170.06L38.26,175.8L38.36,133.07L38.6,145.38L38.61,146.38L38.63,145.81L38.7,168.55L38.9,151.11L38.91,147.9L39.03,139.96L39.67,174.7L39.68,171.04L39.69,160.95L39.87,143.72L39.96,169.29L40.44,149.19L40.45,150.35L40.89,143.01L41.02,170.73L41.21,157.92L41.22,161.98L41.6,138.78L41.92,181.46L41.96,157.98L41.97,150.48L41.98,150.26L42.04,161.05L42.05,165.72L42.28,136.08L42.72,175.5L42.78,163.03L42.79,159.23L43.11,172.76L43.21,140.99L43.52,171.52L43.53,175.05L43.71,141.04L43.78,176.69L43.79,178.63L43.89,134.01L44.19,169.18L44.2,178.14L44.22,181.52L44.56,138.37L44.79,153.9L44.8,150.29L44.91,177.27L45.23,137.02L45.48,153.58L45.49,158.24L45.54,174.83L45.87,143.88L46.25,162.92L46.26,158.44L46.63,170.04L46.75,144.47L46.98,160.04L46.99,163.22L47.02,170.08L47.11,147.03L47.73,160.33L47.74,157.67L47.77,147.86L48.21,171.39L48.49,155.95L48.5,157.42L48.67,144.98L49.26,169.32L49.28,164.94L49.29,158.2L49.45,143.64L49.67,170.7L50.03,158.88L50.04,160.19L50.27,151.35L50.73,169.35L50.76,159.66L50.77,150.06L51.14,182.43L51.47,140.16L51.5,159.94L51.51,164.58L51.59,174.49L51.62,149.29L51.63,140.08L51.64,134.94L52.21,179.02L52.36,140.55L52.37,145.82L52.44,174.15L53.13,162.1L53.14,157.43L53.26,171.62L53.58,147.7L53.87,162.53L53.88,162.85L54.02,145.91L54.53,175.69L54.65,152.85L54.66,157.8L54.88,141.85L55.22,168.75L55.42,162.24L55.43,161.69L55.63,166.25L55.73,144.81L56.02,153.23L56.03,150.05L56.1,177.87L56.46,144.33L56.73,154.81L56.74,155.8L57.29,148.01L57.38,169.05L57.47,155.41L57.48,154.15L57.72,147.33L58.03,170.95L58.2,160.24L58.22,158.41L58.77,166.92L58.86,146.57L59,148.59L59.01,150.97L59.61,173.64L59.7,143.61L59.79,165.9L59.8,160.78L59.9,170.91L60.22,139.17L60.53,163.83L60.54,165.66L60.55,165.85L60.64,155.01L60.66,153.16L60.76,173.66L60.92,148.68L61.36,160.47L61.37,158.46L61.43,144.25L61.53,171.38L61.65,153.52L61.66,151.45L61.77,166.99L62.29,149.53L62.42,162.29L62.43,160.12L62.62,170.24L62.69,149.74L63.17,161.25L63.18,162.1L63.24,149.92L63.37,162.76L63.38,163.31L63.52,170.47L63.6,148.82L64.16,158.48L64.17,161.87L64.24,168.75L64.34,152.33L64.92,165.48L64.93,163.86L65.17,146.48L65.51,169.7L65.69,156L65.7,160.54L65.98,153.85L66.12,163.84L66.42,156.58L66.44,158.06L66.78,166.05L66.82,150.27L67.18,157.58L67.2,155.98L67.57,169.18L67.7,149.63L67.94,157.2L67.96,160.13L68.21,168.02L68.76,148.19L68.78,155.05L68.79,158.75L68.88,167.16L68.95,151.2L69.18,155.78L69.19,152L69.28,169.47L69.61,144.2L69.89,157.81L69.9,159.77L69.99,169.09L70.07,149.41L70.64,157.71L70.65,158.96L70.97,147.46L71.27,167.8L71.36,157.2L71.37,156.57L71.52,168.45L71.62,144.89L72.16,164.51L72.17,162.26L72.57,169.57L72.68,148.44L72.91,161.28L72.92,163.11L72.95,164.71L73.3,148.04L73.51,152.72L73.52,150.86L73.54,146.56L73.62,164.93L74.23,159.75L74.24,160.65L74.28,169.24L74.66,149.96L74.96,166.3L74.97,161.94L75.13,165.65L75.59,151.77L75.7,163.73L75.72,164.96L75.84,147.43L76.21,168.64L76.49,158.08L76.5,160.49L76.74,152.16L77.28,165.73L77.29,164.73L77.3,163.21L77.36,149.88L77.52,166.36L78.07,152.36L78.08,153.22L78.35,169.42L78.72,147.98L78.84,159.14L78.85,160.65L78.93,150.68L79.02,160.83L79.03,162.51L79.27,170.69L79.35,146.08L79.72,158.96L79.73,156.96L80.09,173.9L80.42,146.5L80.47,158.16L80.48,157.65L80.78,168.36L80.93,153.17L81.07,156.5L81.08,155L81.27,148.69L81.43,166.51L81.79,158.03L81.81,160.93L82.4,149.77L82.46,169.22L82.54,161.15L82.55,157.58L82.67,165.56L82.92,148.46L83.28,158.47L83.29,161.99L83.56,147.84L83.65,167.66L84.02,160.63L84.03,158.62L84.58,169.36L84.84,147.66L84.86,150.44L84.94,149.74L85.57,167.94L85.62,155.22L85.63,156.09L86.07,171L86.16,148.19L86.39,158.42L86.4,155.5L86.86,146.38L86.97,170.22L87.12,162.2L87.14,164L87.5,142.53L87.6,170.8L87.87,166.06L87.88,161.55L88.3,167.88L88.38,144.67L88.63,157.51L88.64,160.19L89.01,144.21L89.29,171.31L89.34,157.5L89.35,155.51L89.4,143.71L89.54,171.17L90.06,153.74L90.07,158.46L90.43,170.53L90.59,142.75L90.82,159.03L90.83,159.94L91.26,143.9L91.51,170.57L91.56,159.7L91.57,158.23L91.75,166.17L91.92,142.34L92.18,162.73L92.19,163.31L92.57,145.32L92.73,168.66L92.97,156.68L92.98,160.08L93.41,171.8L93.54,147.6L93.68,151.66L93.69,149.25L94.04,178.05L94.18,145.51L94.47,157.77L94.48,157.94L94.56,145.65L94.98,169.24L95.22,152.04L95.23,157.03L95.28,173.26L95.57,145.02L95.99,166.8L96,162.48L96.61,176.64L96.77,145L96.78,148.23L97.1,146.46L97.31,168.31L97.56,164.25L97.57,167.79L97.6,172.31L97.76,146.19L98.29,162.38L98.3,160.4L98.41,141.08L98.63,171.9L99.01,164.26L99.02,166.01L99.03,167.59L99.11,140.75L99.69,160.48L99.7,154.15L99.72,146.9L99.96,166.76L100.44,154.54L100.45,154.96L100.58,168.95L100.76,151.15L100.77,146.61L100.94,163.93L101.05,145.25L101.18,162.41L101.19,165.54L101.27,168.09L101.77,146.83L101.94,159.76L101.95,161.5L102.31,166.92L102.37,146.81L102.64,151.95L102.66,150L102.72,141.45L102.95,171.34L103.09,151.4L103.1,148.27L103.36,147.28L103.64,168.88L103.66,153.43L103.67,144.24L103.68,141.09L104.28,170.85L104.38,155.84L104.39,157.26L104.79,146.76L104.94,172.6L104.95,175.88L105.45,134.91L105.5,166.17L105.51,167.1L105.61,175.34L105.66,145.01L105.74,148.73L105.75,144.96L105.94,172.25L106.49,156.43L106.5,155.59L106.75,137.46L106.93,178.94L107.13,171.03L107.14,172.4L107.2,143.22L107.25,171.13L107.26,180.1L107.27,181.52L107.41,135.99L107.84,156.56L107.85,155.41L108.09,143.93L108.23,176.11L108.32,158.29L108.33,149.4L108.84,235.96L108.88,102.07L109.03,179.83L109.05,186.54L109.1,103.45L109.14,198.07L109.6,183.04L109.61,187.79L109.67,110.45L109.71,209.76L110.35,146.07L110.36,144.24L110.85,134.91L110.99,180.67L111.05,142.65L111.06,126.94L111.27,184.85L111.41,139.65L111.42,135.65L111.77,112.36L111.84,214.89L112.18,163.26L112.19,146.4L112.5,181.23L112.77,133.27L112.94,156.89L112.95,160.29L113.02,135.9L113.13,171.46L113.14,181.14L113.43,139.85L113.79,181.88L113.94,150.84L113.95,153.13L114.35,141.63L114.49,173.3L114.57,159.85L114.58,167.08L114.79,175.77L114.91,141.15L115.23,160.25L115.24,158.73L115.53,174.31L115.96,144.38L115.99,154.44L116,159.53L116.08,146.33L116.36,179.04L116.76,163.63L116.77,160.44L116.86,176.79L117.53,141.82L117.54,145.23L117.55,150.05L117.79,168.95L118.28,142.14L118.31,156.45L118.32,157.98L118.36,174.83L118.4,144.04L118.92,146.5L118.93,141.44L119.18,173.46L119.23,131.59L119.36,166.69L119.37,175.26L119.38,178.46L119.43,139.85L120.07,160.51L120.08,154.31L120.65,142.73L120.69,175.18L120.79,174L120.8,172.99L121.36,140.48L121.41,178.32L121.57,155L121.58,155.25L121.62,151.79L121.65,160.21L121.7,158.13L121.71,166.09L121.81,143.76L122.15,176.12L122.43,155.05L122.45,149.96L122.95,145.96L123,170.36L123.18,155.36L123.19,156.8L123.51,148.14L123.75,177.68L123.92,156.72L123.93,155.51L124.06,142.45L124.4,180.52L124.67,154.94L124.68,159.12L125.29,142.65L125.37,173.96L125.42,157.21L125.43,156.79L125.57,149.68L125.67,169.11L125.68,172.12L125.91,147.93L126.28,174.28L126.31,160.57L126.32,154.78L126.4,169.01L126.79,147.98L126.82,159.68L126.83,162.82L127.22,147.59L127.26,173.44L127.42,154.91L127.43,151.16L127.49,143.75L128.02,172.14L128.03,175.41L128.59,148.34L128.81,157.22L128.82,161.39L128.94,188.19L129.01,140.28L129.55,158.13L129.56,156.63L129.97,174.53L130,142.38L130.01,134.19L130.64,176.75L130.71,141.7L130.72,138.62L130.73,136.9L131.08,171.74L131.4,148.52L131.42,153.48L131.66,170.84L131.83,143.59L132.17,158.2L132.19,159.1L132.73,145.62L132.81,170.84L132.85,152.64L132.86,149.35L133.04,145.12L133.35,172.55L133.41,147.44L133.42,144.4L133.79,174.96L134.05,155.33L134.06,149.14L134.11,141.35L134.48,174.89L134.51,156.24L134.52,145.06L134.53,139.95L134.64,181.31L135.26,145.43L135.27,152.35L135.32,177.77L135.41,135.25L136.03,161.77L136.04,153.87L136.48,177.87L136.53,139.29L136.78,154.54L136.79,156.11L137.08,163.29L137.19,150.89L137.26,161.48L137.27,166.19L137.61,171.05L137.71,145.82L137.99,161.18L138,156.17L138.55,142.92L138.64,180.18L138.73,155.78L138.74,160.99L139.01,136.98L139.1,172.98L139.46,153.53L139.47,151.61L139.51,162.12L139.52,166.47L139.61,174.87L139.68,142.26L140.22,158.97L140.23,157.07L140.65,166.36L140.75,144.01L140.83,158.43L140.84,161.77L141.14,143.58L141.53,173.15L141.56,164.6L141.57,158.3L142.13,147.99L142.19,168.99L142.32,152.33L142.33,155.07L142.55,171.04L142.78,146.52L143,160.65L143.01,163.13L143.05,165.47L143.11,154.07L143.12,152.5L143.51,151.9L143.76,172.69L143.86,155.74L143.87,152.39L144.19,178.06L144.46,145.38L144.69,164.85L144.7,162.24L144.99,144.94L145.08,174.9L145.46,151.21L145.47,158.28L145.75,145.2L145.94,176L146.2,150.32L146.21,148.3L146.37,171.58L146.66,144.99L146.78,167.69L146.8,171.06L146.81,171.5L146.99,147.52L147.1,153.95L147.11,149.06L147.2,161.13L147.21,167.16L147.23,174.93L147.89,142.32L147.96,172.49L147.97,167.93L148.32,142.59L148.39,176.41L148.74,150.64L148.75,149.2L148.78,144.36L149.1,175.01L149.4,157.26L149.41,159.23L149.46,136.6L149.52,179.38L150.12,152.35L150.14,154.44L150.57,141.81L150.63,176.75L150.88,157.66L150.9,161.47L151,136.39L151.51,175.65L151.56,156.39L151.57,150.76L151.6,143.55L151.97,173.75L152.3,153.06L152.31,157.09L152.5,149.26L152.79,169.42L153.05,154.28L153.06,156.5L153.15,146.93L153.65,174.4L153.81,161.83L153.82,157.61L154.27,139.43L154.36,172.56L154.58,153.34L154.59,154.23L154.66,173.04L154.95,144.86L155.14,153.14L155.15,150.92L155.19,149.34L155.24,158.35L155.26,149.97L155.27,146.36L155.5,174.28L155.58,141.66L156,157.05L156.01,150.99L156.38,175.1L156.74,145.67L156.75,148.22L156.76,153.31L156.93,141.78L157.03,172.7L157.52,163.06L157.53,160.05L158.01,170.71L158.24,135.51L158.28,154.57L158.29,162.92L158.79,174.18L158.91,148.65L159.04,168.89L159.05,166.15L159.58,139.7L159.65,173.15L159.66,173.94L160.22,143.21L160.47,158.97L160.49,160.71L160.64,175.05L160.87,143.12L160.88,138.42L160.89,135.76L161.45,181.57L161.46,185.46L161.52,164.63L161.53,158.44L161.83,137.22L162.15,186.04L162.28,156.5L162.29,160.95L162.37,175.61L162.71,136.38L162.89,144.89L162.9,145.24L163.48,176.61L163.58,132.57L163.59,129.53L164.12,176.77L164.39,167.34L164.4,164.19L164.48,140.44L164.8,173.25L165.16,156.87L165.17,156.3L165.21,156.06L165.29,167.38L165.32,156.61L165.33,147.34L165.36,132.96L165.91,175.47L166.06,158.64L166.07,163.44L166.69,138.68L166.78,178.86L166.82,167.86L166.83,160.43L167.15,143.06L167.45,171.37L167.59,155L167.6,156.6L167.72,176.01L168.03,143.7L168.36,161.47L168.37,162.67L168.49,144.11L168.61,175.27L168.92,151.92L168.93,148L169.47,176.7L169.57,141.08L169.63,156.16L169.64,157.97L169.82,135.81L170.38,179.13L170.41,169.15L170.42,164.88L170.5,139.39L171.02,178.44L171.18,156.97L171.19,157.9L171.7,169.95L171.83,143.91L171.94,164.56L171.95,159.32L172.4,178.46L172.52,142.74L172.71,153.48L172.72,152.4L172.94,149.57L173.01,171.73L173.46,159.99L173.47,155.99L173.71,175.71L174.24,142.81L174.25,142.93L174.26,142.91L174.58,169.83L174.88,157.79L174.89,151.86L174.93,141.97L175.26,172.55L175.63,150.94L175.64,153.79L175.69,185.5L175.82,135.19L176.39,169.35L176.4,168.63L177,175.53L177.11,142.36L177.16,157.67L177.17,163.45L177.78,145.78L177.88,171.86L177.91,165.29L177.92,163.25L178.47,146.08L178.58,167.23L178.65,158.01L178.66,159.9L179.1,167.68L179.32,147.75L179.33,140.67L179.36,137.17L179.44,170.93L180.04,153.04L180.05,152.46L180.32,145.28L180.58,173.09L180.68,146.46L180.69,144.56L181.2,141.15L181.25,177.93L181.49,166.69L181.5,163.03L182.01,130.58L182.12,179.44L182.23,155.56L182.24,162.06L182.77,174.01L182.88,136.96L182.89,135.55L183.24,190.34L183.66,160.59L183.67,151.19L183.78,141.05L184.09,182.08L184.41,151.48L184.42,152.94L184.48,143.06L185.07,172.45L185.13,154.44L185.15,145.18L185.46,91.41L185.5,231.07L185.86,151.33L185.87,170.08L186.28,209.67L186.32,92.96L186.61,165.29L186.62,144.65L186.64,124.25L186.78,183.93L187.35,162.54L187.36,172.21L187.82,124.78L188.05,200.81L188.12,148.41L188.13,166.87L188.45,101.82L188.7,191.83L188.85,129.87L188.86,130.97L189.14,125.22L189.2,188.64L189.6,140.38L189.61,139.87L189.79,138.63L190.05,172.91L190.39,164.82L190.4,160.1L191.04,188.09L191.11,135.37L191.14,162.52L191.15,169.86L191.57,142.95L191.71,181.59L191.82,148L191.84,151.87L191.88,174.04L192.12,143L192.58,162.5L192.6,158.57L192.7,171.35L192.8,148.4L192.92,154.97L192.93,151.09L193.02,171.91L193.32,148.17L193.42,168.19L193.43,169.96L193.47,138.16L193.59,172.92L194.09,151.91L194.1,156.26L194.3,176.84L194.63,141.77L194.82,145.56L194.83,144.91L195.43,174.95L195.61,160.96L195.62,154.09L196,138.86L196.28,172.01L196.34,160.87L196.35,164.48L196.84,138.34L196.96,179.15L196.99,154.77L197,143.98L197.25,174.83L197.32,139.13L197.66,161.71L197.67,162.21L197.74,149.48L197.79,167.89L197.8,170.15L198.18,126.91L198.29,177.39L198.49,162.22L198.5,165.56L198.56,174.89L198.62,143.85L198.63,141.26L198.7,175.38L198.82,131.64L199.33,155.96L199.34,155.99L199.49,134.1L199.56,183.82L200.1,163.56L200.11,160.25L200.15,137.84L200.23,175.38L200.85,153.56L200.86,162.52L201.32,136.17L201.4,182.17L201.61,170.05L201.62,162.44L202.06,172.98L202.14,139.92L202.37,158.56L202.38,163.18L202.46,134.82L202.71,178.2L203.08,147.75L203.09,144.68L203.15,153.58L203.16,157.5L203.39,176.92L203.49,140.74L203.9,163.64L203.91,156.83L204.14,133.3L204.53,180.92L204.64,160.55L204.65,164.02L205.13,142.47L205.19,173.94L205.24,157.19L205.25,146.79L205.51,185.33L205.58,138.86L205.97,158.51L205.98,164.18L206.35,175.39L206.43,138.96L206.45,136.1L206.46,134.26L206.53,180.03L206.99,173.15L207,175.93L207.02,177.93L207.08,151.16L207.09,136.98L207.11,125.39L207.67,179.62L207.82,154.05L207.83,159.64L208.43,132.1L208.51,188.98L208.58,164.84L208.59,156.71L209.17,194.42L209.27,137.43L209.33,159.07L209.35,161.21L209.37,173.23L209.74,139.41L210.08,149.09L210.09,146.42L210.35,174.01L210.41,148.48L210.42,146.84L210.76,139.82L210.81,179.77L211.08,153.3L211.09,146.87L211.39,140.85L211.68,172.73L211.7,167.83L211.71,168.34L212.15,181.09L212.25,131.19L212.4,159.64L212.41,154.49L212.75,172L213.1,121.68L213.16,149.32L213.17,153.85L213.21,180.65L213.59,144.08L213.92,167.17L213.93,161.3L213.99,141.58L214.34,173.58L214.5,169.87L214.52,173.31L214.55,177.9L214.62,143.49L215.23,168.52L215.24,160.32L215.55,171.66L215.97,137.56L215.99,154.17L216,163.56L216.12,147.51L216.57,177.76L216.72,152.66L216.73,155.59L216.82,144.36L217.04,169.44L217.5,165.84L217.51,162.24L217.8,142.01L217.9,173.92L218.27,156.68L218.28,159.58L218.42,148.67L218.91,172.13L219.04,163.16L219.05,159.75L219.22,147.24L219.57,169.2L219.79,163.79L219.8,166.08L220.08,135.86L220.46,175.36L220.52,155.81L220.53,155.21L220.78,145.88L221.16,173L221.2,152.08L221.22,146.38L221.26,143.52L221.33,176.13L221.93,152.15L221.94,154.12L222.09,138.77L222.34,173.51L222.7,165.71L222.71,162.56L223.29,146.42L223.33,169.07L223.48,155.42L223.5,156.02L223.76,148.74L224.29,171.56L224.31,166.79L224.32,163.97L224.7,169.27L225.08,144.15L225.09,147.47L225.1,154.77L225.18,170.47L225.73,146.13L225.87,166.57L225.88,160.07L226.5,171.2L226.6,136.75L226.63,152.07L226.64,158.08L227.18,174.47L227.28,144.1L227.38,157.67L227.39,157.81L227.5,148.47L227.68,174.58L227.98,161.42L227.99,164.89L228.14,149.26L228.52,169.99L228.56,157.28L228.57,154.81L228.6,143.09L229.13,171.5L229.31,154.77L229.32,157.01L229.4,168.28L229.93,136.78L230.09,164.2L230.1,160.02L230.5,171.35L230.78,142.39L230.84,157.07L230.85,157.85L230.99,154.73L231.08,168.54L231.44,155.44L231.45,155.1L231.96,173.2L232.07,146.72L232.23,161.46L232.24,160.6L232.39,173.92L232.49,148.17L232.94,152.28L232.95,151.84L233.03,171.63L233.14,155.82L233.15,148.36L233.18,139.62L233.29,181.57L233.87,159.33L233.88,163.06L234.06,137.96L234.17,178.63L234.51,153.03L234.52,150.13L234.65,173.39L234.95,140.99L235.23,156.57L235.24,158.2L235.26,157.92L235.32,166.12L235.33,165.56L235.34,167.68L235.69,174.79L235.86,135.15L236.04,153.97L236.05,145.88L236.65,177.79L236.72,140.92L236.77,155.33L236.78,161.39L237.17,133.02L237.31,188.62L237.53,162.4L237.54,160.73L237.78,173.02L237.84,134.89L237.85,129.72L237.98,179.06L238.27,149.23L238.28,145.32L238.65,184.1L238.73,125.87L238.97,154.1L238.98,156.39L239.1,179.74L239.18,133.37L239.76,171.09L239.78,168.31L239.85,139.41L239.94,176.76L240.56,151.62L240.57,156.69L240.62,171.41L241.22,141.58L241.34,165.77L241.35,163.29L241.8,170.91L241.88,133.68L242.1,158.03L242.11,158.96L242.55,143.23L242.67,172.81L242.73,155.57L242.74,149.79L243.31,170.21L243.41,146.83L243.47,153.16L243.48,157.72L243.85,168.61L244.11,152.03L244.22,155.32L244.23,155.32L244.45,152.26L244.48,164.13L244.5,169.16L244.71,170.18L244.79,142.61L245.15,163.34L245.16,165.36L245.39,171.55L245.52,144.55L245.74,156.19L245.75,153.21L245.87,180.43L245.96,136.74L246.46,155.85L246.48,158.98L246.72,177.22L247.12,148.26L247.22,161.53L247.24,160.08L247.67,172.63L247.8,144.82L247.96,159.69L247.97,162.18L248.54,174.77L248.61,144.33L248.72,165.64L248.73,163.82L248.99,170.02L249.13,145.73L249.5,158.5L249.52,158.19L249.59,146.26L249.65,172.3L249.66,174.22L249.77,148.95L249.78,147.65L249.87,171.7L249.96,142.82L250.3,160.9L250.31,163.54L250.53,178.37L250.89,142.56L251.04,160.91L251.05,158.51L251.22,173L251.33,144.5L251.79,150.45L251.81,153.66L252.02,142.59L252.29,175L252.58,165.25L252.59,164.82L253.19,144.39L253.26,172.61L253.39,153.97L253.4,156.78L253.85,147.01L253.95,176.41L253.99,151.82L254,144.76L254.02,138.05L254.62,177.33L254.74,146.1L254.75,149.98L255.37,144.48L255.48,181.26L255.52,165.1L255.53,162.48L255.63,141.19L255.98,173.08L256.31,150.14L256.32,151.28L256.38,164.79L256.71,147.18L257.09,158.92L257.1,157.57L257.51,169.51L257.68,149.26L257.79,163.09L257.8,167.42L257.98,129.14L258.05,192.25L258.35,147.54L258.36,123.24L258.37,123.49L258.38,151.26L258.78,134.59L259.09,183.29L259.13,164.56L259.14,156.28L259.3,177.49L259.64,134.46L259.89,151.3L259.9,152.56L260.27,143.36L260.65,174.99L260.66,173.03L260.67,162.14L261.03,179.66L261.14,134.05L261.42,160.86L261.43,161.05L261.73,180.02L262.07,137.85L262.11,160.32L262.12,163.52L262.33,144.79L262.71,169.71L262.72,175.82L262.9,145.57L263.48,163.8L263.49,163.65L263.66,137.74L263.81,180.99L264.14,160.53L264.15,153.66L264.54,304L264.59,16L264.74,200.57L264.75,255.24L264.76,256.76L264.78,147.84L264.79,80.92L264.8,28.1L265.42,258.62L265.52,161.07L265.53,193.16L265.54,193.89L265.55,154.57L265.56,102.6L265.57,68.92L265.61,257.19L266.29,166.35L266.3,162.41L266.82,203.28L266.87,96.32L267,174.88L267.02,179.91L267.25,71.98L267.29,229.7L267.74,173.95L267.75,192.43L267.95,212.41L267.99,104.67L268.49,165.82L268.5,171.3L268.97,189.04L269.02,125.75L269.27,140.3L269.28,155.18L269.76,130.83L269.81,180.95L270.03,161.62L270.04,151.15L270.57,195.2L270.61,136.2L270.74,180.11L270.75,181.61L271.18,134.41L271.48,184.65L271.49,180.75L271.83,190.01L272.01,132.31L272.25,171.65L272.26,175.55L272.57,195.09L272.61,117.31L273.01,154.61L273.02,164.68L273.51,141.45L273.72,181.1L273.75,157.95L273.76,147.33L273.77,141.44L273.93,177.08L274.48,160.58L274.49,159.93L274.76,138.9L275.01,177.23L275.11,150.66L275.12,134.73L275.13,126.86L275.74,179.99L275.82,165.29L275.83,172.98L276.07,132.74L276.19,179.84L276.38,178.53L276.39,196.32L276.87,137.72L276.93,165.99L276.94,170.58L276.99,131.87L277.49,190.49L277.53,152.64L277.54,144.85L278.19,186.44L278.23,149.66L278.24,149.98L278.3,177.29L278.35,134.11L278.95,156.77L278.96,162.91L279.1,183.98L279.41,140.13L279.63,143L279.64,138.16L279.66,135.85L279.79,179.09L280.2,156.79L280.21,160.21L280.37,135.62L280.73,185.5L280.95,173.27L280.96,165.73L281.22,178.15L281.35,140.93L281.71,162.11L281.72,164.92L281.86,122.32L281.99,180.71L282.42,144.16L282.43,139.13L282.75,185.89L283.18,155L283.19,152.72L283.51,183.88L283.89,139.19L283.92,156.79L283.93,170.12L284.25,177.36L284.61,129.64L284.66,169.01L284.68,165L285.23,182.42L285.35,133.25L285.45,156.12L285.46,164.53L285.49,182.09L286.11,133.89L286.21,178.28L286.22,172.67L286.47,180.85L286.57,139.33L286.99,160.73L287,169.36L287.23,180.16L287.37,144.33L287.64,154.7L287.65,149.91L287.98,178.21L288.18,137.19L288.21,165.95L288.22,181.79L288.23,184.22L288.27,143.76L288.84,163L288.85,152.22L289.27,184.8L289.62,135.4L289.63,146.35L290.05,179.52L290.14,136L290.38,148.27L290.39,152.35L290.52,173.85L290.89,137.25L291.14,154.13L291.15,151.39L291.17,158.73L291.18,166.75L291.26,177.37L291.35,143.16L291.37,139.01L291.47,173.55L292.01,145.72L292.02,138.07L292.19,182.14L292.79,165.98L292.8,161.71L293.47,172.47L293.53,141.76L293.55,154.32L293.56,159.44L293.75,143.29L294.16,177.6L294.28,154.3L294.29,150.74L294.36,183.98L294.63,137.88L295.03,153.1L295.04,155.57L295.19,186.36L295.46,139.52L295.77,150.82L295.79,154.58L296.01,173.37L296.45,142.08L296.52,147.95L296.53,150.35L296.99,142.68L297.31,175.69L297.34,171.67L297.35,170.99L297.74,139.42L298.1,152.88L298.11,165.84L298.18,177L298.23,140.68L298.81,153.11L298.83,148.49L298.87,169.18L298.93,151.11L298.94,147.63L299.06,143.03L299.62,173.89L299.73,154.1L299.75,154.97L300,175.87L300.15,143.19L300.55,164.28L300.56,156.77L300.99,148.73L301.11,175.6L301.29,170.55L301.3,169.61L301.45,130.85L301.63,180.96L302.05,166.11L302.06,166.47L302.39,182.02L302.53,148.56L302.77,165.84L302.79,165.98L303.26,173.11L303.37,142.3L303.53,158.85L303.55,163.83L303.81,151.32L304.02,172.68L304.12,155.66L304.13,151.85L304.29,167.73L304.38,144.57L304.78,165.21L304.79,168.52L304.82,173.13L305.3,144.93L305.47,153.94L305.48,147.57L305.56,173.7L305.74,137.28L305.89,170.03L305.9,176.52L306.56,141.04L306.65,155.17L306.66,166.77L306.81,174.67L306.93,144.05L307.38,164.73L307.39,157.56L307.41,144.34L307.56,171.01L308.14,155.12L308.15,153.87L308.27,172.22L308.45,146.28L308.88,151.88L308.89,151.76L309.22,171.06L309.43,147.36L309.55,157.1L309.56,162.72L309.75,147.93L309.91,172.18L310.31,163.2L310.32,161.66L310.57,143.37L310.67,174.38L311.08,158.01L311.09,167.61L311.18,174.79L311.31,143.4L311.79,157.56L311.8,155.22L311.86,171.57L312.08,149.97L312.55,153.54L312.56,154.48L312.68,175.27L313.24,145.55L313.29,151.44L313.3,149.86L313.51,149.25L313.63,171.35L313.72,149.78L313.73,139.23L313.75,131.95L314.36,174.84L314.41,163.46L314.42,161.78L314.71,145.88L314.84,174.8L315.14,162.13L315.15,169.01L315.19,143.7L315.36,178.26L315.78,153.73L315.79,158.75L315.82,171.6L315.92,142.04L316.54,161.38L316.55,157.64L316.84,178.07L316.98,140.05L317.04,161.98L317.05,172.09L317.21,141.94L317.27,176.71L317.73,152.21L317.74,152.62L318.07,168.03L318.11,147.25L318.12,144.23L318.74,169.23L318.92,154.76L318.93,152.52L319.2,149.73L319.56,172.24L319.57,177L320.19,142.73L320.33,166.47L320.34,167.49L320.6,171.88L320.97,141.79L321.1,162.42L321.11,165.76L321.24,142.35L321.33,179.02L321.85,163.3L321.86,164.59L321.96,143.38L322.13,176.04L322.44,152.13L322.45,147.3L322.46,145L322.55,170.14L323.1,169.38L323.11,171.3L323.38,149.34L323.87,164.6L323.88,167.81L323.89,168.12L323.98,149.69L323.99,147.05L324.08,172.12L324.46,144.82L324.76,159.33L324.77,159.93L325.07,178.33L325.27,147.75L325.53,155.15L325.54,157.97L325.67,150.41L325.79,172.06L326.31,165.34L326.32,164.48L326.36,149.91L327.05,157.93L327.06,159.31L327.66,170.84L327.73,149.27L327.75,148.8L328.17,173.84L328.42,142.92L328.49,157.29L328.51,156.54L328.63,172.42L328.74,148.74L329.01,152.85L329.02,150.99L329.23,149.74L329.31,164.97L329.32,166.89L329.37,176.76L329.99,147.97L330.05,166.31L330.06,162.82L330.13,166.78L330.73,144.39L330.81,157.13L330.82,162.04L331.38,168.53L331.44,150.93L331.51,157.28L331.52,155.02L331.98,145.39L332.17,176.23L332.18,180.11L332.83,140.89L332.87,173.56L332.88,176.99L333.51,146.05L333.68,159.33L333.69,161.11L333.99,165.8L334.4,151.33L334.44,156.65L334.45,157.08L334.79,141.48L334.83,174.58L335.15,154.39L335.16,153.62L335.52,149.09L335.71,172.85L335.87,149.8L335.88,148.42L336.05,143.37L336.46,170.89L336.6,151.87L336.61,146.38L336.62,144.98L336.73,167.84L337.28,152.4L337.29,156.23L337.57,135.53L337.75,178.33L337.77,156.88L337.79,130.97L338.31,30.87L338.35,266.72L338.53,97.26L338.55,135.27L338.59,233.73L339.09,82.67L339.28,113.51L339.29,103.63L339.35,202.02L340.04,165.99L340.05,156.3L340.1,126.35L340.54,191.07L340.71,163.9L340.72,164.7L341.05,96.48L341.26,215.13L341.3,120.42L341.31,111.75L341.4,194.24L342.07,161.08L342.08,164L342.14,185.26L342.4,135.81L342.82,170.56L342.83,171.74L343.25,180.08L343.58,132.81L343.6,144.06L343.61,153.51L343.64,194.12L343.68,127.64L344.35,151.34L344.36,155.25L344.8,179.04L345.08,142.56L345.11,153.09L345.12,156.14L345.3,142.05L345.47,175.99L345.49,154.37L345.5,137.38L345.51,134.44L345.71,177.55L346.14,166.02L346.16,167.9L346.33,128.66L346.75,178.5L346.93,149.35L346.94,149.73L347.08,177.63L347.12,140.88L347.66,166.36L347.68,151.29L347.7,139.73L348.2,170.95L348.42,160.22L348.43,164.94L348.56,144.78L348.76,173.71L348.99,156.61L349,154.88L349.22,179.29L349.27,127.95L349.44,173.03L349.45,176.23L349.46,178.17L349.88,141.5L350.06,149.61L350.07,145.94L350.4,141L350.55,178.23L350.68,152.88L350.69,144.31L350.7,141.8L351.22,179.9L351.32,164.57L351.34,169.45L351.47,142.91L351.9,175.98L351.93,147.96L351.95,146.91L352.26,138.98L352.33,181.26L352.61,147.17L352.62,146.8L352.71,178.22L353.12,138.95L353.38,159.46L353.39,156.76L353.9,171.19L353.95,142.25L354.12,159.5L354.13,167.76L354.18,138.71L354.45,179.17L354.7,148.86L354.71,144.36L354.72,139.52L355.12,182.88L355.42,158.56L355.43,160.55L355.49,177.79L355.75,132.3L356.07,155.72L356.08,143.76L356.09,140.4L356.48,171.73L356.78,156.67L356.79,161.62L356.92,145.98L357.03,175.38L357.54,162.31L357.55,160.92L357.59,170.33L358.21,137.63L358.29,163.21L358.3,160.74L358.62,179.21L358.82,138.65L359.06,147.93L359.07,149.13L359.19,182.05L359.45,130.39L359.81,149.91L359.82,145L359.95,140.12L360.36,178.88L360.58,158.7L360.59,155.94L360.64,143.45L360.88,174.95L361.21,161.12L361.23,165.62L361.31,143.12L361.61,178.91L361.94,166.74L361.95,170.9L362.2,145L362.31,172.56L362.66,160.8L362.67,165.13L362.88,135.14L363.21,177.18L363.4,159.09L363.41,156.91L363.76,173.71L363.82,136.13L363.95,163.63L363.97,170.11L364.23,174.37L364.38,148.05L364.52,156.12L364.53,154.02L365.13,175.76L365.21,141.52L365.24,154.69L365.25,166.42L365.75,144.76L365.91,180.59L365.99,164.96L366,164.88L366.12,145.32L366.18,167.57L366.2,167.34L366.21,169.21L366.54,135.69L366.89,172.69L366.94,169.9L366.95,166.72L367.11,144.52L367.2,175.77L367.72,157.07L367.73,158.47L368.05,142.83L368.4,177.13L368.48,158.55L368.49,158.53L368.74,143.26L368.79,169.78L369.21,157.63L369.22,163.59L369.4,136.93L369.73,176.07L369.96,163.19L369.97,163.69L370.08,174.8L370.66,142.84L370.72,158.47L370.73,161.19L371.04,173.57L371.38,144.56L371.45,156L371.46,151.79L371.76,172.91L372.03,140.85L372.19,160.55L372.2,158.68L372.29,176.99L372.55,141.83L372.95,150.58L372.96,157.46L373.27,143.67L373.35,169.66L373.69,153.33L373.71,151.88L374.08,146.66L374.51,177.95L374.52,173.44L374.53,163.15L375.2,170.5L375.25,143.11L375.27,160.19L375.28,167.51L375.78,173.91L375.88,142.41L375.97,155.72L375.99,152.7L376.1,175.16L376.54,143.77L376.72,153.5L376.73,157.14L376.82,149.81L377.16,169.56L377.47,160.97L377.48,156.97L377.54,168.26L378.22,147.61L378.24,150.53L378.25,154.18L378.54,170.34L378.89,143.7L379,156.08L379.01,148.81L379.45,143.78L379.62,180.54L379.64,181.41L379.71,144.96L380.42,152.99L380.43,148.25L380.53,174.6L381.06,139.9L381.19,161.01L381.2,161.72L381.48,149.74L381.77,167.72L381.93,158.17L381.94,155.85L382.11,165.95L382.17,148.89L382.5,158.01L382.51,165.11L382.54,176.62L382.71,146.06L383.24,155.86L383.25,156.67L383.66,148.39L383.78,165.77L383.99,156.48L384,156.58L384.26,167.27L384.42,149.45L384.76,166.18L384.77,159.95L384.87,146.76L385.23,169.28L385.53,152.14L385.54,149.18L385.79,149.1L386.14,173.22L386.23,157.65L386.24,155.16L386.66,172.86L386.9,144.98L386.95,159.87L386.96,162.64L387,172.02L387.47,144.08L387.65,150.67L387.66,148.42L388.01,171.4L388.43,154.75L388.44,154.18L388.57,165.93L388.63,148.8L388.64,145.25L389.42,169.66L389.43,165.6L390.07,173.45L390.2,148.41L390.21,150.56L390.7,146.44L390.86,171.68L390.99,169.66L391,165.99L391.17,149.56L391.46,168.28L391.76,156.71L391.77,159.81L391.94,148.12L392.4,172.13L392.49,159.95L392.5,154.58L392.73,137.22L393.07,169.88L393.25,152.78L393.26,155.95L393.29,171.87L393.9,142.96L394.01,160.41L394.02,161.35L394.3,175.09L394.63,142.65L394.76,159.38L394.77,154.84L395.01,171.57L395.47,145.26L395.49,150.46L395.5,157.33L396.08,179.08L396.19,141.32L396.23,143.28L396.24,145.23L396.35,173.53L396.97,151.13L396.99,146.15L397,144.49L397.3,166.18L397.65,159.22L397.66,159.9L397.89,172.57L398.25,144.55L398.4,165.35L398.41,161.02L398.89,171.63L399,140.77L399.13,167.32L399.14,167.54L399.17,168.68L399.23,145.29L399.37,161.39L399.38,164.88L399.74,170.76L399.87,144.02L400.05,147.94L400.06,146.36L400.08,145.68L400.23,169.83L400.51,162.27L400.52,163.31L400.88,141.92L401.15,169.31L401.22,157.05L401.23,154.42L401.38,163.25L401.47,151.61L401.56,161.15L401.57,164.13L401.59,168.38L401.73,149.97L402.28,153.19L402.29,152.75L402.48,146.87L402.79,170.36L402.91,157.38L402.93,154.49L403.04,167.58L403.54,147.76L403.62,167.35L403.63,168.76L403.88,177.25L404.26,149.45L404.37,158.47L404.38,162.2L404.41,177.13L404.57,146.18L405.11,154.3L405.12,155.04L405.19,172.97L405.31,148.82L405.78,158.99L405.79,156.33L406.08,169.19L406.36,147.07L406.5,161.76L406.51,161.94L406.56,140.6L406.93,169.86L407.22,160.09L407.23,161.01L407.39,144.12L407.45,166.68L407.85,159.06L407.86,155.76L408.1,169.06L408.2,151.39L408.61,153.76L408.62,156.08L408.68,147.42L409.08,168.59L409.4,161.37L409.41,160.57L409.79,147.8L409.9,168.55L410.17,155.46L410.18,158.79L410.43,167.67L410.77,146.23L410.91,154.98L410.92,152.2L411.19,170.97L411.49,144.96L411.52,164.9L411.53,169.17L411.62,139.84L412.19,183.2L412.25,160.34L412.26,158.57L412.47,172.1L412.58,144.92L412.69,167.06L412.7,171.66L412.84,135.92L412.9,171.22L412.91,178.31L413.38,144.26L413.55,182.34L413.56,168.93L413.58,144.16L413.97,112.41L414,199.66L414.3,168.8L414.31,171.07L414.45,117.84L414.59,204.31L414.81,171.17L414.82,194.66L415.33,230.76L415.36,124.45L415.37,81.67L415.53,242.77L415.59,58.7L415.91,150.73L415.92,188.22L416.17,100.8L416.21,217.93L416.66,182.18L416.67,166.44L416.99,118.27L417.34,179.5L417.41,174.2L417.42,170.74L418.04,121.65L418.09,200.06L418.16,170.44L418.17,180.61L418.58,111.19L418.65,198.81L418.93,165.15L418.94,167.44L419.1,129.94L419.22,190.15L419.69,163.17L419.7,164.25L419.83,141.84L420.09,188.62L420.41,158.2L420.43,160.04L420.79,182.59L421.15,141.54L421.17,152.46L421.19,158.25L421.4,131.78L421.45,180.34L421.93,170.22L421.95,163.48L422.17,136.33L422.32,181.84L422.69,163.24L422.71,163.59L422.77,184.3L423.24,131.06L423.29,174.01L423.3,173.58L423.96,175.93L424.01,138.8L424.03,152.48L424.04,164.88L424.26,137.97L424.73,176.51L424.76,153.05L424.77,142.34L424.97,185.7L425.42,136L425.47,162.51L425.48,163.94L425.8,142.79L425.99,183.12L426.22,158.61L426.23,162.65L426.34,139.99L426.39,169.87L426.63,161.56L426.64,168.24L427.15,131.38L427.19,178.36L427.29,174.14L427.3,176.93L427.31,177.66L427.37,140.82L427.66,152.18L427.67,148.81L427.74,174.79L427.92,139.37L428.01,165.01L428.02,170.57L428.17,135.37L428.28,186.98L428.67,147.69L428.68,136.89L428.69,129.07L429.08,183.24L429.39,168.1L429.41,164.83L429.46,134.36L429.85,179.16L430.15,171.78L430.17,172.08L430.22,134.27L430.6,177.11L430.93,151L430.94,151.25L431.26,130.08L431.34,178.42L431.46,140.52L431.47,137.74L431.79,133.46L432.18,181.88L432.23,158.52L432.24,151.05L432.7,187.71L432.81,131.42L432.95,160.99L432.96,165.65L433.19,194.23L433.28,138.28L433.71,166.38L433.72,167.83L433.75,173.18L434.07,139.72L434.1,144.21L434.11,138.16L434.13,134.96L434.51,183.12L434.7,157.62L434.71,165.85L434.75,183.27L434.86,139.59L435.45,162.88L435.46,161.66L435.66,144.12L435.78,179.44L436.07,166.37L436.08,171.39L436.11,179.06L436.71,129.53L436.8,165.88L436.81,160.56L437.33,179.15L437.5,136.4L437.54,165.52L437.55,169.96L437.86,178.34L438.27,135.08L438.3,151.61L438.31,157.03L438.75,136.67L438.86,176.19L439.04,163.71L439.05,152.32L439.1,169.14L439.81,137.99L439.82,138.42L439.88,172.72L440.58,154.81L440.59,146.83L440.61,133.46L440.98,176.23L441.33,150.67L441.34,147.96L441.39,135.88L441.47,179.57L442.05,156.63L442.06,163.46L442.16,139.01L442.25,173.54L442.8,165.62L442.81,161.87L442.95,132.81L443.3,171.69L443.54,163.8L443.56,164.09L443.61,139.45L443.81,173.51L444.24,160.55L444.25,166.76L444.59,180.69L444.73,146.94L444.94,152.41L444.95,144.39L444.96,139.22L445.36,177.45L445.67,159.45L445.69,161.18L446.08,139.98L446.17,175.94L446.46,149.76L446.47,151.63L446.68,178.29L446.74,136.44L447.22,158.12L447.23,156.85L447.57,181.42L447.64,135.33L447.93,161.02L447.94,165.53L448.23,177.81L448.33,138.62L448.64,159.72L448.65,167.62L448.67,174.21L449.01,145.71L449.38,159.47L449.39,158.5L449.88,137.57L449.97,172.51L450.13,161.95L450.14,157.03L450.27,187.24L450.34,132.88L450.87,161.98L450.88,170.63L451.45,136.56L451.55,180.26L451.59,165.13L451.6,160.19L451.91,134.51L452.03,176.22L452.31,172.96L452.32,171.25L452.33,171.45L452.35,164.1L452.36,155.29L452.62,174.96L453.04,125.65L453.09,170.6L453.1,178.68L453.39,191.52L453.5,132.31L453.77,148.76L453.78,141.45L454.22,181.3L454.3,136.85L454.43,164.3L454.44,168.07L454.52,169.72L454.55,161.51L454.56,154.59L454.7,178L454.83,138L455.3,157.29L455.31,160.66L455.81,178.71L455.89,136.59L456.07,165.52L456.08,159.68L456.16,134.79L456.55,181.11L456.56,185L456.66,130.34L457.28,164.1L457.29,164.24L457.39,171.02L457.49,137.98L458,157.04L458.02,160.06L458.24,136.7L458.31,179.67L458.79,170.88L458.8,168.9L459.31,139.51L459.39,171.67L459.6,151.31L459.61,155.58L459.92,170.83L460.31,149.17L460.37,166.16L460.38,159.52L460.94,140.68L461,182.72L461.12,159.51L461.13,163.42L461.57,137.8L461.65,175.73L461.84,156.74L461.85,154.82L461.86,154.67L461.87,159.13L461.88,166.23L461.9,175.91L462,141.62L462.6,158.72L462.61,151.59L462.7,169.8L463.13,143.41L463.33,156.7L463.35,158.23L463.42,144.55L463.7,169.8L464.09,155.61L464.11,160.76L464.37,137.99L464.78,188.2L464.85,154.97L464.87,152.62L465.07,179.02L465.17,139.81L465.51,163.72L465.52,165.13L465.79,142.34L466.18,169.38L466.22,159.98L466.24,153.62L466.44,139.94L466.83,188.27L466.97,163.31L466.98,162.35L467.21,136.3L467.63,177.7L467.64,177.84L467.99,134.23L468.17,180.63L468.4,167.78L468.41,165.22L468.61,148.86L468.69,169.92L468.7,173.13L468.75,141.46L469.21,177.56L469.41,154.07L469.42,159.21L469.48,181.44L469.82,135.9L470.06,148.99L470.07,142.93L470.13,176.9L470.35,137.01L470.73,170.17L470.74,176.22L470.75,180.12L470.84,137.09L471.43,154.57L471.44,153.24L471.63,134.25L472.05,185.35L472.12,152.15L472.13,147.09L472.42,129.14L472.81,182.58L472.82,185.46L473.19,124.83L473.32,186.01L473.57,169.44L473.58,174.13L473.61,182.21L473.96,128.9L474.24,148.03L474.25,142.48L474.79,135.7L474.88,183.73L474.94,165.29L474.95,162.48L475.27,135.13L475.64,180.36L475.65,178.72L475.67,175.6L476.04,137.2L476.38,160.48L476.39,169.05L476.42,185.16L476.54,136.15L477.12,153.28L477.13,153.55L477.2,182.1L477.78,148.12L477.79,144.87L477.82,142.5L478,175.46L478.36,158.46L478.37,162.7L478.51,183.6L478.59,139.42L479.09,159.48L479.1,158.02L479.21,147.4L479.27,182.19L479.34,153.17L479.35,147.4L479.39,140.33L479.8,172.7L480.04,166.8L480.05,169.83L480.06,171.18L480.15,141.03L480.65,150.07L480.66,145.18L480.85,178.98L480.93,138.66L481.32,163.91L481.33,169L481.44,134.33L481.88,176.86L482.05,159.81L482.07,161.56L482.61,171.55L482.77,143.45L482.8,159.19L482.81,163.82L483.26,135.83L483.39,175.76L483.48,156.72L483.49,154.99L483.65,172.63L484.05,144.03L484.14,163.54L484.15,169.16L484.42,173.64L484.82,141.97L484.83,140.28L484.85,138.35L485.24,173.15L485.26,171.72L485.64,142.77L485.74,178.85L485.98,168.27L485.99,168.94L486.23,178.19L486.65,146.62L486.76,157.29L486.78,165.82L487.25,123.1L487.29,203.88L487.5,139.44L487.51,141.31L487.95,123.82L488.1,209.95L488.25,150.31L488.26,141.73L488.28,117.56L488.33,197.81L489,146.77L489.01,150.44L489.09,179.85L489.26,142.15L489.55,155.5L489.56,145.47L490.03,117.45L490.15,193.97L490.32,129.22L490.33,138.37L490.77,129.25L490.92,191.84L491.08,155.19L491.09,157.44L491.23,234.27L491.27,86.53L491.78,136.62L491.79,129.78L492.06,97.13L492.22,203.11L492.54,142.74L492.55,127.15L492.57,119.89L493.02,180.58L493.16,168.23L493.18,170.88L493.27,189.18L493.94,100.93L493.95,120.15L493.96,151.59L494.17,109.84L494.24,199.38L494.71,164.37L494.72,165.54L495.1,191.33L495.22,119.59L495.47,151.02L495.48,160.55L495.69,140.61L495.8,176.19L496.22,157.2L496.23,153.84L496.59,182.36L496.79,133.96L496.87,182.05L496.88,182.14L497.29,135.69L497.42,185.87L497.64,166.37L497.65,162.51L497.74,126.13L498.18,177.56L498.29,165.45L498.3,171.06L498.43,176.4L498.48,144.88L498.7,151.75L498.71,147.1L498.79,144.02L498.94,184L498.98,153.26L498.99,143.67L499.26,176.41L499.58,138.36L499.7,161.25L499.72,166.95L499.88,180.52L500.28,142.81L500.4,158.68L500.41,155.63L500.76,177.63L500.88,141.25L501.14,159.42L501.15,159.79L501.73,171.09L501.82,141.78L501.9,162.27L501.91,156.08L502.44,173.83L502.56,142.7L502.64,163.49L502.65,160.9L502.83,130.53L503.26,172.57L503.39,159.39L503.4,166.37L503.58,132.64L503.7,178.02L503.99,150.1L504,142.52L504.01,141.04L504.18,177.61L504.65,155.53L504.66,160.67L504.99,181.73L505.15,136.94L505.33,139.67L505.35,140.71L505.51,179.47L505.62,139.95L506.06,162.49L506.07,153.65L506.53,180.6L506.63,138.5L506.79,167.04L506.8,170.29L507,173.33L507.18,137.58L507.35,142.04L507.36,138.14L507.37,136.7L507.55,181.88L507.97,156.43L507.98,162.23L508.06,175.83L508.18,130.34L508.68,148.3L508.7,143.25L508.95,137.98L509.29,182.51L509.37,155.08L509.38,145.17L509.4,138.8L509.83,178.76L510.1,157.53L510.11,162.05L510.44,139.14L510.85,181.56L510.88,170.46L510.89,163.36L511.35,178.36L511.47,136.27L511.65,151.64L511.66,150.74L511.7,135.43L512.09,177.8L512.27,159.49L512.28,167.07L512.5,133.94L512.57,176.31L512.97,143.22L512.98,137.01L513.34,185.28L513.68,147.45L513.69,144.46L513.76,151.05L513.79,143.37L513.81,148.57L513.82,155.5L513.97,140.03L514.13,182.04L514.57,159.78L514.58,160.44L514.9,182.8L515.25,136.28L515.32,156.99L515.33,164.76L515.4,183.01L515.52,138.43L515.96,165.77L515.97,157.06L516.05,141.51L516.65,175.9L516.71,160.89L516.72,164L516.82,143.93L516.87,169.15L516.88,174.83L516.95,176.93L517.08,142.31L517.63,172.17L517.64,173.11L517.95,175.98L518.3,133.16L518.35,159.59L518.36,164.29L518.67,173.73L518.84,145.68L519.05,154.02L519.06,149.6L519.09,139.12L519.39,171.4L519.82,143.48L519.83,145.03L519.93,177.03L520.3,150.28L520.31,145.09L520.32,144.28L520.45,174.35L520.73,170.45L520.74,173.53L521.12,144.4L521.23,177.45L521.24,179.59L521.33,139.87L521.94,155.61L521.95,161.51L521.98,174.14L522.36,138.14L522.7,164.04L522.71,166.96L522.78,179.71L523.12,139.69L523.47,164.99L523.48,165.34L523.88,142.52L524,173.8L524.14,158L524.15,155.97L524.69,140.22L524.83,177.48L524.84,179.45L525.45,139.18L525.56,161.38L525.57,164.73L525.85,171.01L525.99,142.83L526.22,153.72L526.23,148.98L526.26,143.61L526.31,169.27L526.96,151.54L526.97,152.72L527.47,171.28L527.52,147.26L527.74,159.39L527.75,161.5L527.83,153.83L527.93,161.94L527.94,166.52L528.1,175.37L528.21,148.39L528.65,164.47L528.66,161.19L529.12,143.81L529.34,175.22L529.42,155.28L529.43,157.96L529.79,151.07L529.96,167.26L530.17,158.07L530.18,154.37L530.43,169.95L530.83,144.22L530.89,167.57L530.9,169.57L531.47,149.98L531.57,165.06L531.58,168.22L531.59,168.42L531.63,157.02L531.74,161.33L531.75,156.23L532.16,165.5L532.41,146.72L532.45,164.55L532.46,171.29L532.48,176.26L532.55,139.89L533.17,161.47L533.18,160.09L533.43,167.38L533.54,147.46L533.71,163.35L533.72,164.21L534.2,178.29L534.43,141.54L534.5,157.61L534.51,159.41L535.06,169.62L535.16,150.16L535.25,159.51L535.26,156.13L535.77,172.03L535.86,140.48L536.02,150.87L536.03,154.11L536.19,142.58L536.26,176.54L536.79,162.02L536.8,163.61L537.16,149.5L537.23,166.79L537.47,162.67L537.48,166.1L537.5,171.38L537.6,146.2L538.2,163.51L538.22,162.95L538.47,169.16L538.91,146.72L539.02,154.5L539.03,156.32L539.17,145.86L539.27,177.31L539.77,157.39L539.78,153.5L540.05,167.05L540.44,146.37L540.47,159.39L540.48,163.27L540.58,148.76L540.83,189.1L541.17,154.5L541.18,152.88L541.2,150.57L541.64,167.06L541.89,155.33L541.9,160.86L542.39,178.94L542.5,138.57L542.62,149.45L542.64,153.44L543.04,170.06L543.16,148.69L543.38,152.6L543.4,151.99L543.41,151.6L543.71,168.98L543.72,169.91L543.89,146.61L544.41,160.25L544.42,162.67L544.6,177.8L544.65,156.03L544.66,153.72L545.18,140.5L545.32,169.34L545.33,170.51L545.78,148.61L545.81,165.29L545.83,173.28L546.25,138.58L546.36,184.32L546.54,156.2L546.55,153.69L546.62,179.06L546.94,146.91L547.2,153.17L547.21,151.61L547.39,175.9L547.79,142.35L547.84,156.31L547.85,158.8L548.27,142.85L548.39,180.43L548.55,145.72L548.57,146.64L548.91,179.29L549.27,141.19L549.28,139.02L549.44,177.77L550.04,164.74L550.05,159.15L550.19,174.51L550.61,138.47L550.81,149.21L550.82,146.78L550.87,139.45L550.98,175.89L551.49,167.86L551.5,168.45L551.75,174.42L551.88,146.62L552.26,163.3L552.27,165.18L552.35,146.93L552.78,171.73L552.86,156.67L552.87,154.34L553.21,142.66L553.32,172.54L553.58,160.5L553.6,158.57L553.83,173.08L554.23,146.45L554.32,162.72L554.33,163.93L554.42,149.78L554.84,161.77L554.85,165.54L554.86,167.11L555.27,150.7L555.54,158.41L555.55,157.21L555.73,163.44L555.79,150.79L555.85,160.54L555.86,162.61L555.94,150.9L556.19,166.73L556.43,163.84L556.44,166.23L556.67,154.25L556.72,165.11L556.73,166.18L556.77,151.34L557.46,162.54L557.47,164.68L557.67,146.61L557.76,166.58L558.11,153.09L558.12,154.02L558.24,168.21L558.67,150.72L558.87,156.61L558.88,153.02L558.9,150.06L559.08,167.4L559.6,161.09L559.61,161.08L559.72,148.8L559.79,165.12L560.25,154.77L560.26,156.56L560.5,151.65L560.68,169.04L560.92,160.95L560.93,160.14L561.02,146.94L561.63,167.7L561.64,167.79L561.68,169.51L561.71,157.72L561.72,153.91L562.15,169.13L562.35,140.8L562.44,156.11L562.45,158.97L563.08,172.39L563.16,151.31L563.18,150.3L563.57,176.32L563.69,139.83L563.9,161.08L563.91,152.25L564.28,144.08L564.37,178.92L564.61,176.67L564.62,179.65L564.98,140.95L565.41,150.81L565.42,163.59L565.44,192.42L565.71,106.96L566.16,153.32L566.17,156.53L566.49,191.37L566.75,134.65L566.9,144.88L566.91,142.68L567.22,194.28L567.26,138.84L567.27,110.62L567.33,239.07L567.37,79.94L567.96,149.47L567.97,156.9L568.12,224.01L568.16,63.73L568.72,160.75L568.73,156.59L568.81,191.57L569.17,105.85L569.34,170.49L569.35,179.78L570.04,116.89L570.07,203.86L570.08,209.55L570.12,111.14L570.84,135.71L570.85,153.06L571.03,195.92L571.08,122.24L571.61,169.98L571.62,170.96L572.18,180L572.22,130.93L572.37,166.5L572.38,172.31L572.71,189.36L573.13,133.32L573.15,149.17L573.16,160.56L573.41,135.32L573.73,182.24L573.88,145.53L573.89,148.01L573.97,135.59L574.26,178.44L574.64,159.04L574.65,151.38L575.05,182.63L575.4,131L575.41,134.8L575.42,149.52L575.67,141.46L576.06,173.55L576.16,149.63L576.17,145.12L576.21,130.94L576.27,177.26L576.63,160.73L576.64,165.46L576.68,140.59L576.86,172.02L577.35,153.73L577.36,161.46L577.91,142.12L578,180.73L578.1,158.94L578.11,154.89L578.42,147.1L578.63,174.79L578.66,153.21L578.67,149.73L579.21,178.45L579.25,129.68L579.43,163.56L579.44,158.69L579.83,177.1L579.95,138.52L580.19,153.49L580.2,158.66L580.43,149.99L580.5,175.13L580.92,152.06L580.93,150.81L581.27,177.29L581.45,139.74L581.62,163.36L581.63,165.98L581.87,172.43L582.19,143.79L582.34,164.09L582.36,159.74L582.47,137.31L582.66,172.04L582.98,158.23L582.99,155.03L583.23,142.91L583.68,177.62L583.71,166.23L583.73,167.1L584,179.23L584.4,142.31L584.46,165.06L584.47,159.82L584.77,171.65L584.92,145.64L585.1,160.83L585.11,165.48L585.2,147.5L585.57,171.94L585.62,154.52L585.63,153.45L586.1,174.36L586.28,140.34L586.41,169.32L586.42,163.12L586.78,139.55L586.95,179.3L587.19,148.78L587.2,154.84L587.29,143.47L587.76,178.49L587.95,163.24L587.96,159.62L588.27,183.89L588.71,139.4L588.73,149.87L588.75,158.65L589.12,178.49L589.22,144.58L589.47,156.52L589.48,146.16L589.49,139.87L589.64,168.42L590.2,159L590.21,164.66L590.58,168.81L590.73,145.51L590.89,149.38L590.9,144.36L590.97,140.39L591.36,169.59L591.7,161.93L591.71,156.81L592.02,140.47L592.37,173.03L592.44,166.55L592.45,164.94L592.73,171.25L592.87,142.97L593.2,163.18L593.21,168.13L593.44,149.11L593.57,172.21L593.91,158.36L593.93,158.98L594.01,149.97L594.1,166.13L594.11,168.23L594.51,147.9L594.65,170.13L594.86,162.53L594.87,164.43L594.9,172.82L595.54,148.7L595.58,150.26L595.6,151.48L595.83,145.82L596.29,171.03L596.36,158.95L596.37,156.69L596.91,143.8L596.95,167.95L597.12,147.72L597.13,155.74L597.66,176.57L597.77,146.09L597.86,162.21L597.88,154.74L598.51,175.64L598.64,149.11L598.65,151.35L598.85,145.62L599.27,173.38L599.41,157.99L599.42,161.82L599.46,137.84L599.56,174.96L599.99,160.75L600.01,165.55L600.12,170.45L600.32,141.68L600.77,156.43L600.78,160.29L601.02,171.75L601.14,142.26L601.51,163.2L601.53,159.77L601.66,146.77L601.74,173.19L602.24,160.98L602.25,166.11L602.26,167.32L602.68,150.48L602.92,160.57L602.93,155.32L603.03,145.41L603.65,168.57L603.67,163.91L603.93,170.45L604.32,144.38L604.41,163.67L604.43,166.13L604.75,171.92L604.9,138.93L605.22,153.38L605.23,161.29L605.29,178.56L605.7,140.09L605.88,157.27L605.89,155.25L605.97,144.88L606.01,156.61L606.02,160.67L606.34,174.27L606.49,141.56L606.73,161.1L606.74,152.15L606.89,167.58L607.29,139.92L607.49,148.6L607.5,149.5L608.05,171.74L608.26,151.99L608.27,147.57L609.09,170.26L609.11,168.3L609.12,162.9L609.43,166.93L609.49,147.25L609.87,160.08L609.88,162.99L610.04,152.01L610.28,167.31L610.53,157.03L610.54,154.05L610.58,147.71L610.97,173.37L611.24,159.97L611.25,164.32L611.39,150.78L611.71,166.85L611.88,156.44L611.89,151.13L611.91,144.57L612.28,170.87L612.62,154.8L612.64,158.59L613.28,140.23L613.38,171.46L613.39,167.37L613.41,160.8L613.5,169.99L614.12,148.91L614.15,161.67L614.17,163.17L614.33,146.38L614.7,167.38L614.93,154.22L614.94,157.54L614.99,143.36L615.35,169.21L615.72,165.27L615.73,161.21L616.36,149.84L616.46,169.5L616.47,168.72L616.88,148.48L617.06,169.55L617.24,158.41L617.25,160.59L617.55,172.87L617.9,139.28L617.91,138.24L618.09,170.58L618.68,155.85L618.69,154.02L618.75,143.47L618.8,160.06L618.83,159.26L618.84,164.77L619.02,142.87L619.42,170.92L619.55,148.29L619.56,145.95L619.71,172.64L620.08,145.54L620.31,149.16L620.32,149.84L620.46,171.41L620.89,149.49L621.09,160.12L621.1,159.12L621.19,149.32L621.54,169.05L621.82,162.19L621.83,163.86L621.98,144.92L622.38,171.44L622.54,157.61L622.55,154.14L622.76,144.04L622.89,169.4L623.1,164.16L623.11,165.9L623.15,167.46L623.54,145.78L623.55,143.25L623.92,170.38L624.32,155.48L624.33,151.07L624.5,169.58L624.89,145.73L625.05,158.14L625.06,157.31L625.51,150.53L625.65,166.43L625.71,154.15L625.73,152.29L626.12,169.65L626.31,145.9L626.39,155.72L626.4,162.91L626.68,174.59L627.1,141.1L627.14,155.76L627.15,159.35L627.22,172.98L627.36,150.55L627.88,164.75L627.89,159.08L627.92,147.68L628.26,167.81L628.64,152.76L628.65,154.37L628.81,167.01L628.95,151.08L629.4,155.8L629.41,155L629.49,150.11L629.61,165.22L630.02,162.59L630.03,163.96L630.09,167.61L630.34,148.15L630.64,151.38L630.65,149.7L630.68,146.66L631.02,171.76L631.3,163.89L631.31,166.62L631.55,148.64L631.77,166.85L632.08,158.18L632.09,161.84L632.12,166.36L632.55,148.28L632.83,159.6L632.84,159.12L632.87,151.15L633.52,164.35L633.6,155.57L633.61,155.24L633.67,164.71L634.23,151.68L634.36,159.48L634.37,158.2L634.66,166.77L634.77,149.79L635.09,158.02L635.1,155.48L635.33,164.32L635.63,147.91L635.84,157.66L635.85,158.83L635.94,150.15L636.2,169.64L636.6,160.7L636.61,160.47L637.16,150.82L637.2,168.79L637.21,171.98L637.22,173.42L637.45,146.45L637.85,156.34L637.86,153.79L637.96,162.13L637.97,167.83L638.38,139.84L638.63,178.42L638.68,159.61L638.69,156.37L638.94,167.35L639.39,146.29L639.41,151.57L639.43,157.41L639.5,175.05L640.07,147.38L640.17,161.68L640.19,159.01L640.8,171.77L640.92,137.73L640.95,147.37L640.96,161.66L641.24,131.98L641.65,196.69L641.68,136.22L641.69,113.71L641.81,34.95L641.86,255.4L642.33,158.86L642.34,170.67L642.59,88.25L642.64,247.88L643.12,145.43L643.13,143.7L643.52,191.02L643.59,121.16L643.84,128.51L643.85,126.6L644.55,106.46L644.62,226.62L644.63,193.38L644.64,146.2L645.08,237.87L645.12,104.47L645.38,159.61L645.39,165.58L645.82,188.46L645.95,130.99L646,173.66L646.01,182.71L646.17,133.12L646.73,149.28L646.74,157.56L647.28,125.67L647.37,194.44L647.48,163.88L647.5,160.04L647.61,196.87L647.76,128L648.24,157.3L648.26,152.58L648.31,165.46L648.37,147.36L648.38,139.53L648.41,130.31L648.71,185.86L649.1,145.66L649.11,155.12L649.25,130.37L649.29,191.73L649.88,182.28L649.89,170.69L649.93,128.41L650.5,176.81L650.64,164.88L650.65,169.86L651.1,134.72L651.3,176.04L651.42,155.36L651.43,157.79L651.74,140.59L651.8,175.43L651.81,175.65L652.41,179.87L652.49,135.05L652.56,174.48L652.57,176.23L652.82,182.02L653,140.91L653.32,161.64L653.33,168.29L653.62,191.87L653.67,130.85L654.06,159.77L654.07,156.93L654.15,186.55L654.29,132.26L654.8,154.99L654.81,165.23L654.93,185.66L655.04,132.35L655.54,152.28L655.56,146.9L655.93,182.04L656.27,130.71L656.3,151.9L656.32,159.52L656.47,177.53L656.83,129.52L657.03,154.69L657.04,145.59L657.29,140.22L657.65,175.55L657.71,171.13L657.72,179.53L658.08,131.94L658.38,170.06L658.39,173.21L658.57,133.98L658.69,180.08L659.01,154.01L659.02,143.2L659.03,140.22L659.42,179.74L659.7,160.85L659.71,163.04L659.86,136.13L660.2,187.48L660.35,141.09L660.36,142.29L660.86,138.66L660.96,178.29L661.12,153.26L661.13,151.58L661.25,173.91L661.37,156.45L661.38,151.67L661.65,139.18L661.78,177.57L662.13,150.52L662.14,151.52L662.41,142.54L662.5,177.61L662.85,145.84L662.87,139.07L662.99,180.66L663.59,165.46L663.6,155.8L663.72,172.48L663.94,138.92L664.34,159.01L664.35,158.16L664.43,136.46L664.55,186.11L664.78,164.19L664.79,174.91L664.8,179.81L665.17,137.63L665.49,150.82L665.5,154.56L665.53,171.35L665.98,131.36L666.23,147.41L666.24,142.85L666.25,138.13L666.33,174.56L666.94,164.4L666.95,166.87L667.47,135.66L667.63,174.13L667.71,156.9L667.72,162.99L667.75,157.2L667.76,149.17L667.94,176.87L668.47,142.9L668.48,147.29L668.5,156.36L668.71,146.45L668.88,173.39L669.24,157.44L669.26,154.54L669.46,140.2L669.5,173.35L669.82,167.16L669.83,168.42L670,175.37L670.25,145.37L670.61,157.73L670.63,161.25L670.69,176.87L670.74,145.63L671.33,157.23L671.34,157.48L671.7,171.64L671.83,147.02L671.93,153.1L671.94,148.42L672.34,138.35L672.38,172.75L672.58,152.32L672.59,147.78L672.66,173.01L672.98,141.47L673.27,150.81L673.28,149.78L673.37,145.26L673.42,162.17L673.43,166.69L673.47,173.16L674.04,141.27L674.15,155.22L674.16,155.79L674.46,177.71L674.61,133.43L674.86,158.84L674.87,160.45L674.94,170.98L675.05,148.39L675.3,156.87L675.31,153.41L675.6,144.7L675.66,171.02L676.02,157.76L676.03,151.47L676.04,144.7L676.09,173.96L676.77,156.27L676.78,157.74L676.89,146.89L677.41,175.52L677.53,159.28L677.54,151.49L677.84,169.22L678.13,144.35L678.26,156.78L678.27,159.59L678.5,171.61L678.56,141.46L679.04,171.22L679.05,168L679.41,142.78L679.61,173.69L679.82,157.08L679.83,160.05L679.99,170.65L680.32,139.54L680.57,160.57L680.58,162.79L680.73,143L680.95,173.71L681.32,165.04L681.33,157.63L681.66,177.03L681.72,136.21L682.09,150.15L682.1,157.12L682.63,172.66L682.71,146.56L682.85,160.27L682.86,160.09L683.05,146.73L683.29,172.37L683.6,160.87L683.61,161.01L683.87,145.99L684.12,171.7L684.37,154.13L684.38,155.56L684.66,142.73L684.82,171.44L684.97,155.8L684.98,151.31L685,148.81" style="vector-effect: non-scaling-stroke; fill: none; stroke: rgb(31, 119, 180); stroke-opacity: 1; stroke-width: 2px; opacity: 1;"/></g><g class="points"/><g class="text"/></g></g></g><g class="overplot"/><path class="xlines-above crisp" d="" style="fill: none; stroke-width: 1px; stroke: rgb(0, 0, 0); stroke-opacity: 0;"/><path class="ylines-above crisp" d="" style="fill: none; stroke-width: 1px; stroke: rgb(0, 0, 0); stroke-opacity: 0;"/><g class="overlines-above"/><g class="xaxislayer-above"><path class="xtick ticks crisp" d="M0,421v5" transform="translate(80,0)" style="stroke: rgb(51, 51, 51); stroke-opacity: 1; stroke-width: 1px;"/><path class="xtick ticks crisp" d="M0,421v5" transform="translate(165.63,0)" style="stroke: rgb(51, 51, 51); stroke-opacity: 1; stroke-width: 1px;"/><path class="xtick ticks crisp" d="M0,421v5" transform="translate(251.25,0)" style="stroke: rgb(51, 51, 51); stroke-opacity: 1; stroke-width: 1px;"/><path class="xtick ticks crisp" d="M0,421v5" transform="translate(336.88,0)" style="stroke: rgb(51, 51, 51); stroke-opacity: 1; stroke-width: 1px;"/><path class="xtick ticks crisp" d="M0,421v5" transform="translate(422.51,0)" style="stroke: rgb(51, 51, 51); stroke-opacity: 1; stroke-width: 1px;"/><path class="xtick ticks crisp" d="M0,421v5" transform="translate(508.13,0)" style="stroke: rgb(51, 51, 51); stroke-opacity: 1; stroke-width: 1px;"/><path class="xtick ticks crisp" d="M0,421v5" transform="translate(593.76,0)" style="stroke: rgb(51, 51, 51); stroke-opacity: 1; stroke-width: 1px;"/><path class="xtick ticks crisp" d="M0,421v5" transform="translate(679.38,0)" style="stroke: rgb(51, 51, 51); stroke-opacity: 1; stroke-width: 1px;"/><path class="xtick ticks crisp" d="M0,421v5" transform="translate(765.01,0)" style="stroke: rgb(51, 51, 51); stroke-opacity: 1; stroke-width: 1px;"/><g class="xtick"><text text-anchor="middle" x="0" y="444" transform="translate(80,0)" style="font-family: 'Open Sans', verdana, arial, sans-serif; font-size: 15px; fill: rgb(51, 51, 51); fill-opacity: 1; white-space: pre;">0</text></g><g class="xtick"><text text-anchor="middle" x="0" y="444" transform="translate(165.63,0)" style="font-family: 'Open Sans', verdana, arial, sans-serif; font-size: 15px; fill: rgb(51, 51, 51); fill-opacity: 1; white-space: pre;">500</text></g><g class="xtick"><text text-anchor="middle" x="0" y="444" transform="translate(251.25,0)" style="font-family: 'Open Sans', verdana, arial, sans-serif; font-size: 15px; fill: rgb(51, 51, 51); fill-opacity: 1; white-space: pre;">1000</text></g><g class="xtick"><text text-anchor="middle" x="0" y="444" transform="translate(336.88,0)" style="font-family: 'Open Sans', verdana, arial, sans-serif; font-size: 15px; fill: rgb(51, 51, 51); fill-opacity: 1; white-space: pre;">1500</text></g><g class="xtick"><text text-anchor="middle" x="0" y="444" transform="translate(422.51,0)" style="font-family: 'Open Sans', verdana, arial, sans-serif; font-size: 15px; fill: rgb(51, 51, 51); fill-opacity: 1; white-space: pre;">2000</text></g><g class="xtick"><text text-anchor="middle" x="0" y="444" transform="translate(508.13,0)" style="font-family: 'Open Sans', verdana, arial, sans-serif; font-size: 15px; fill: rgb(51, 51, 51); fill-opacity: 1; white-space: pre;">2500</text></g><g class="xtick"><text text-anchor="middle" x="0" y="444" transform="translate(593.76,0)" style="font-family: 'Open Sans', verdana, arial, sans-serif; font-size: 15px; fill: rgb(51, 51, 51); fill-opacity: 1; white-space: pre;">3000</text></g><g class="xtick"><text text-anchor="middle" x="0" y="444" transform="translate(679.38,0)" style="font-family: 'Open Sans', verdana, arial, sans-serif; font-size: 15px; fill: rgb(51, 51, 51); fill-opacity: 1; white-space: pre;">3500</text></g><g class="xtick"><text text-anchor="middle" x="0" y="444" transform="translate(765.01,0)" style="font-family: 'Open Sans', verdana, arial, sans-serif; font-size: 15px; fill: rgb(51, 51, 51); fill-opacity: 1; white-space: pre;">4000</text></g></g><g class="yaxislayer-above"><path class="ytick ticks crisp" d="M79,0h-5" transform="translate(0,375.2)" style="stroke: rgb(51, 51, 51); stroke-opacity: 1; stroke-width: 1px;"/><path class="ytick ticks crisp" d="M79,0h-5" transform="translate(0,317.59000000000003)" style="stroke: rgb(51, 51, 51); stroke-opacity: 1; stroke-width: 1px;"/><path class="ytick ticks crisp" d="M79,0h-5" transform="translate(0,259.99)" style="stroke: rgb(51, 51, 51); stroke-opacity: 1; stroke-width: 1px;"/><path class="ytick ticks crisp" d="M79,0h-5" transform="translate(0,202.39)" style="stroke: rgb(51, 51, 51); stroke-opacity: 1; stroke-width: 1px;"/><path class="ytick ticks crisp" d="M79,0h-5" transform="translate(0,144.78)" style="stroke: rgb(51, 51, 51); stroke-opacity: 1; stroke-width: 1px;"/><g class="ytick"><text text-anchor="end" x="71" y="5.25" transform="translate(0,375.2)" style="font-family: 'Open Sans', verdana, arial, sans-serif; font-size: 15px; fill: rgb(51, 51, 51); fill-opacity: 1; white-space: pre;">0.4</text></g><g class="ytick"><text text-anchor="end" x="71" y="5.25" transform="translate(0,317.59000000000003)" style="font-family: 'Open Sans', verdana, arial, sans-serif; font-size: 15px; fill: rgb(51, 51, 51); fill-opacity: 1; white-space: pre;">0.2</text></g><g class="ytick"><text text-anchor="end" x="71" y="5.25" transform="translate(0,259.99)" style="font-family: 'Open Sans', verdana, arial, sans-serif; font-size: 15px; fill: rgb(51, 51, 51); fill-opacity: 1; white-space: pre;">0</text></g><g class="ytick"><text text-anchor="end" x="71" y="5.25" transform="translate(0,202.39)" style="font-family: 'Open Sans', verdana, arial, sans-serif; font-size: 15px; fill: rgb(51, 51, 51); fill-opacity: 1; white-space: pre;">0.2</text></g><g class="ytick"><text text-anchor="end" x="71" y="5.25" transform="translate(0,144.78)" style="font-family: 'Open Sans', verdana, arial, sans-serif; font-size: 15px; fill: rgb(51, 51, 51); fill-opacity: 1; white-space: pre;">0.4</text></g></g><g class="overaxes-above"/></g></g><g class="polarlayer"/><g class="ternarylayer"/><g class="geolayer"/><g class="pielayer"/><g class="sunburstlayer"/><g class="glimages"/><defs id="topdefs-d19b5d"><g class="clips"/><clipPath id="legendd19b5d"><rect width="189" height="33" x="0" y="0"/></clipPath></defs><g class="layer-above"><g class="imagelayer"/><g class="shapelayer"/></g><g class="infolayer"><g class="legend" pointer-events="all" transform="translate(778.7, 100)"><rect class="bg" shape-rendering="crispEdges" width="189" height="33" x="0" y="0" style="stroke: rgb(68, 68, 68); stroke-opacity: 1; fill: rgb(255, 255, 255); fill-opacity: 1; stroke-width: 0px;"/><g class="scrollbox" transform="translate(0, 0)" clip-path="url('#legendd19b5d')"><g class="groups" transform="translate(0, 0)"><g class="traces" transform="translate(0, 16.25)" style="opacity: 1;"><text class="legendtext user-select-none" text-anchor="start" x="40" y="5.85" style="font-family: 'Open Sans', verdana, arial, sans-serif; font-size: 15px; fill: rgb(51, 51, 51); fill-opacity: 1; white-space: pre;">class=air_conditioner</text><g class="layers" style="opacity: 1;"><g class="legendfill"/><g class="legendlines"><path class="js-line" d="M5,0h30" style="fill: none; stroke: rgb(31, 119, 180); stroke-opacity: 1; stroke-width: 2px;"/></g><g class="legendsymbols"><g class="legendpoints"/></g></g><rect class="legendtoggle" pointer-events="all" x="0" y="-11.25" width="229" height="22.5" style="cursor: pointer; fill: rgb(0, 0, 0); fill-opacity: 0;"/></g></g></g><rect class="scrollbar" rx="20" ry="3" width="0" height="0" x="0" y="0" style="fill: rgb(128, 139, 164); fill-opacity: 1;"/></g><g class="g-gtitle"><text class="gtitle" x="490" y="50" text-anchor="middle" dy="0em" style="font-family: 'Open Sans', verdana, arial, sans-serif; font-size: 21px; fill: rgb(51, 51, 51); opacity: 1; font-weight: normal; white-space: pre;">time vs amplitude</text></g><g class="g-xtitle"><text class="xtitle" x="422.5" y="484" text-anchor="middle" style="font-family: 'Open Sans', verdana, arial, sans-serif; font-size: 18px; fill: rgb(51, 51, 51); opacity: 1; font-weight: normal; white-space: pre;">time(ms)</text></g><g class="g-ytitle"><text class="ytitle" transform="rotate(-90,34,260)" x="34" y="260" text-anchor="middle" style="font-family: 'Open Sans', verdana, arial, sans-serif; font-size: 18px; fill: rgb(51, 51, 51); opacity: 1; font-weight: normal; white-space: pre;">amplitude</text></g></g></svg>