<svg class="main-svg" xmlns="http://www.w3.org/2000/svg" xmlns:xlink="http://www.w3.org/1999/xlink" width="980" height="500" viewBox="0 0 980 500"><rect x="0" y="0" width="980" height="500" style="fill: rgb(255, 255, 255); fill-opacity: 1;"/><defs id="defs-a7f1d9"><g class="clips"><clipPath id="clipa7f1d9xyplot" class="plotclip"><rect width="667" height="320"/></clipPath><clipPath class="axesclip" id="clipa7f1d9x"><rect x="80" y="0" width="667" height="500"/></clipPath><clipPath class="axesclip" id="clipa7f1d9y"><rect x="0" y="100" width="980" height="320"/></clipPath><clipPath class="axesclip" id="clipa7f1d9xy"><rect x="80" y="100" width="667" height="320"/></clipPath></g><g class="gradients"/></defs><g class="bglayer"><rect class="bg" x="80" y="100" width="667" height="320" style="fill: rgb(237, 237, 237); fill-opacity: 1; stroke-width: 0;"/></g><g class="layer-below"><g class="imagelayer"/><g class="shapelayer"/></g><g class="cartesianlayer"><g class="subplot xy"><g class="layer-subplot"><g class="shapelayer"/><g class="imagelayer"/></g><g class="gridlayer"><g class="x"><path class="xgrid crisp" transform="translate(163.38,0)" d="M0,100v320" style="stroke: rgb(255, 255, 255); stroke-opacity: 1; stroke-width: 1px;"/><path class="xgrid crisp" transform="translate(246.75,0)" d="M0,100v320" style="stroke: rgb(255, 255, 255); stroke-opacity: 1; stroke-width: 1px;"/><path class="xgrid crisp" transform="translate(330.13,0)" d="M0,100v320" style="stroke: rgb(255, 255, 255); stroke-opacity: 1; stroke-width: 1px;"/><path class="xgrid crisp" transform="translate(413.51,0)" d="M0,100v320" style="stroke: rgb(255, 255, 255); stroke-opacity: 1; stroke-width: 1px;"/><path class="xgrid crisp" transform="translate(496.88,0)" d="M0,100v320" style="stroke: rgb(255, 255, 255); stroke-opacity: 1; stroke-width: 1px;"/><path class="xgrid crisp" transform="translate(580.26,0)" d="M0,100v320" style="stroke: rgb(255, 255, 255); stroke-opacity: 1; stroke-width: 1px;"/><path class="xgrid crisp" transform="translate(663.63,0)" d="M0,100v320" style="stroke: rgb(255, 255, 255); stroke-opacity: 1; stroke-width: 1px;"/></g><g class="y"><path class="ygrid crisp" transform="translate(0,375.2)" d="M80,0h667" style="stroke: rgb(255, 255, 255); stroke-opacity: 1; stroke-width: 1px;"/><path class="ygrid crisp" transform="translate(0,317.59000000000003)" d="M80,0h667" style="stroke: rgb(255, 255, 255); stroke-opacity: 1; stroke-width: 1px;"/><path class="ygrid crisp" transform="translate(0,202.39)" d="M80,0h667" style="stroke: rgb(255, 255, 255); stroke-opacity: 1; stroke-width: 1px;"/><path class="ygrid crisp" transform="translate(0,144.78)" d="M80,0h667" style="stroke: rgb(255, 255, 255); stroke-opacity: 1; stroke-width: 1px;"/></g></g><g class="zerolinelayer"><path class="xzl zl crisp" transform="translate(80,0)" d="M0,100v320" style="stroke: rgb(255, 255, 255); stroke-opacity: 1; stroke-width: 1px;"/><path class="yzl zl crisp" transform="translate(0,259.99)" d="M80,0h667" style="stroke: rgb(255, 255, 255); stroke-opacity: 1; stroke-width: 1px;"/></g><path class="xlines-below"/><path class="ylines-below"/><g class="overlines-below"/><g class="xaxislayer-below"/><g class="yaxislayer-below"/><g class="overaxes-below"/><g class="plot" transform="translate(80, 100)" clip-path="url('#clipa7f1d9xyplot')"><g class="scatterlayer mlayer"><g class="trace scatter traceab92b4a3-16d8-4a27-a365-39f0dbcc3b1f" style="stroke-miterlimit: 2; opacity: 1;"><g class="fills"/><g class="errorbars"/><g class="lines"><path class="js-line" d="M0,154.25L0.06,164.78L0.1,148.74L0.45,159.43L0.46,154.43L0.56,147.81L0.8,170.58L1.18,156.55L1.19,158.94L1.51,147.37L1.55,165.96L1.91,159.61L1.92,156.32L2.29,166.52L2.53,151.01L2.65,161.92L2.66,160.79L2.98,148.41L3.22,166.7L3.4,162.55L3.41,163.85L3.47,148.66L3.56,170.1L4.12,159.7L4.13,162.18L4.2,150.06L4.34,163.2L4.69,158.68L4.7,159.82L5.02,167.49L5.29,149.68L5.39,151.87L5.4,150.51L5.68,169.89L6.15,157.9L6.16,154.91L6.19,164.74L6.5,147.01L6.8,157.93L6.81,154.6L7.34,169.02L7.48,148.8L7.55,155.53L7.56,154.68L7.85,168.19L8.2,149.97L8.32,160.53L8.33,157.18L8.63,149.58L8.97,167.56L9.04,163.65L9.05,162.62L9.42,146.08L9.47,166.04L9.79,160.87L9.8,161.89L10.23,166.43L10.42,147.74L10.57,157.7L10.58,158.29L10.63,153.82L10.67,166.18L10.88,164.67L10.89,167.14L11.05,150.39L11.15,162.67L11.16,164.62L11.17,164.84L11.44,154.54L11.45,153.8L11.56,148.88L11.85,165.37L12.24,161.32L12.25,161.15L12.3,149.73L12.68,163.62L12.69,164.49L12.77,147.73L12.84,167.92L13.44,157.14L13.45,157.83L13.5,169.31L13.86,148.79L14.12,158.87L14.13,155.84L14.22,165.44L14.59,148.72L14.81,163.73L14.82,165.93L14.87,173.04L15.25,151.56L15.52,159.63L15.53,158.99L15.72,150.14L16.16,170.53L16.3,153.32L16.31,152.98L16.36,165.39L17.04,151.5L17.05,149.94L17.2,167.84L17.75,158.58L17.76,156.16L18.07,151.1L18.21,166.35L18.42,158.86L18.43,156.7L18.5,164.52L18.59,149.7L19.18,159.72L19.19,155.86L19.21,149.73L19.35,167.53L19.93,155.5L19.94,157.77L20.12,168.67L20.23,151L20.5,158.02L20.51,157.02L20.7,150.01L21.06,164.62L21.31,161.86L21.32,160.19L21.64,151.54L21.87,167.57L22.09,153.7L22.11,153.93L22.17,163.71L22.45,152.76L22.9,160.62L22.91,159.47L22.95,166.43L23.44,154.6L23.63,159.21L23.64,158.97L23.85,151.6L24.02,165.51L24.41,156.07L24.42,158.23L24.45,167.04L24.76,150.35L25.18,162.9L25.19,164.13L25.36,168.01L25.82,149.92L25.9,160.9L25.91,159.84L26.02,148.34L26.38,173.32L26.67,154.7L26.68,155.64L26.74,147.29L27.1,169.76L27.11,173.36L27.68,146.4L27.81,177.76L27.83,171.45L27.84,167.15L27.95,147.34L28.05,172.39L28.5,162.3L28.51,166.09L28.53,166.25L28.54,163.45L28.55,160.17L28.8,174.22L28.89,146.63L29.25,167.3L29.27,169.47L29.38,141.02L29.49,174.88L29.53,141.54L29.54,126.01L29.58,210.93L29.61,101.67L30.28,161.64L30.29,147.02L30.58,123.68L30.71,191.67L31.04,139.1L31.05,139.67L31.07,135.16L31.46,182.01L31.63,167.75L31.64,176.73L32.17,196.08L32.21,123.69L32.37,179.19L32.38,164.61L32.54,127L32.63,190.02L33.12,164.93L33.13,165.84L33.23,144.72L33.28,177.27L33.85,149.38L33.86,151.66L33.92,143.99L34,171.35L34.63,166.66L34.64,163.39L34.9,171.23L35.33,144.16L35.36,167.21L35.37,172.69L35.53,173.82L36.03,122.54L36.12,154.66L36.13,162.06L36.71,135.36L36.81,180.49L36.88,163.41L36.89,161.01L37.26,175.8L37.35,133.07L37.64,155.24L37.65,159.95L38.01,139.96L38.08,173.53L38.29,158.29L38.3,155.59L38.55,140.67L38.62,174.7L38.9,167.35L38.91,169.29L39.59,143.86L39.65,163.42L39.66,165.16L39.81,143.01L40.16,176.56L40.36,160L40.37,159.87L40.51,138.78L40.82,181.46L40.99,160L41,153.91L41.17,136.08L41.59,175.5L41.71,151.53L41.72,162.01L42.07,140.99L42.4,175.13L42.46,159.22L42.47,154.64L42.74,134.01L43.05,181.52L43.21,155.2L43.22,158.5L43.39,138.37L43.48,179.14L43.96,161.1L43.97,154.25L44.04,137.02L44.35,174.83L44.7,153.61L44.71,158.89L44.76,174.21L44.83,145.18L45.44,155.83L45.45,152.6L45.52,144.47L45.78,170.08L46.18,154.66L46.19,157.29L46.51,147.86L46.94,171.39L46.96,168.07L46.97,164.4L47.39,144.98L47.49,165.74L47.73,158.83L47.74,159.1L48.15,143.64L48.37,170.7L48.47,156.9L48.48,155.34L48.65,146.53L48.89,167.77L49.17,158.92L49.18,155.69L49.8,182.43L49.87,141.22L49.92,154.92L49.93,156.47L50.03,170.94L50.1,149.7L50.11,142.63L50.23,174.49L50.29,134.94L50.79,158.96L50.8,157.62L50.84,179.02L50.97,139.46L51.48,161.77L51.5,154.37L51.86,171.62L52.17,147.7L52.21,165.54L52.22,165.69L52.26,168.99L52.6,145.91L52.9,162.09L52.91,166.46L53.1,175.69L53.43,141.85L53.59,158.03L53.6,152.56L53.77,168.75L54.27,144.81L54.33,157.69L54.34,157.34L54.62,177.87L54.98,144.33L55.03,167.59L55.04,166.26L55.71,167.11L55.79,148.01L55.81,153.17L55.82,157.94L56.21,147.33L56.51,170.95L56.56,158.48L56.57,157.02L56.61,149.73L56.99,165.75L57.15,158.61L57.16,159.36L57.23,166.92L57.25,159.72L57.26,155.04L57.31,146.57L57.74,167.4L58.01,153.15L58.02,159.54L58.04,173.64L58.63,139.17L58.76,154.71L58.77,154L59.17,173.66L59.32,148.68L59.56,160.46L59.57,159.53L59.81,144.25L59.92,171.38L60.33,155.03L60.34,157.91L60.66,149.53L60.98,170.24L61.06,152.96L61.07,152.53L61.08,152.21L61.33,167.8L61.38,164.7L61.39,167.94L61.85,170.47L61.93,148.82L62.06,161.9L62.07,158.95L62.23,148.96L62.55,168.75L62.81,159.23L62.82,163.68L62.83,165.63L63.46,146.48L63.49,150.16L63.5,148.53L63.51,148.25L63.54,166.57L63.55,169.62L63.68,146.61L63.79,169.7L64.36,156.52L64.37,158.66L65.02,166.05L65.06,150.27L65.1,153.37L65.11,151.61L65.37,164.2L65.5,150.74L65.52,160.33L65.53,166.7L65.79,169.18L65.92,149.63L66.24,159.69L66.25,157.84L66.42,168.02L66.95,148.19L66.97,155.05L66.98,158.75L67.07,167.16L67.14,151.2L67.36,155.78L67.37,152L67.46,169.47L67.78,144.2L68.07,159.77L68.08,164.39L68.15,169.09L68.23,149.41L68.81,159.72L68.82,158.34L69.11,147.46L69.4,167.8L69.57,153.17L69.58,158.06L69.64,168.45L69.73,144.89L70.29,159.04L70.3,155.19L70.66,169.57L70.77,148.44L70.99,161.28L71.01,163.11L71.04,164.71L71.37,148.04L71.58,152.72L71.59,150.86L71.61,146.56L71.68,164.93L72.3,161.7L72.31,164.58L72.33,169.24L72.69,149.96L73.04,161.6L73.05,159.25L73.15,165.65L73.84,148.15L73.85,147.43L74.2,168.64L74.52,158.31L74.53,157.14L74.73,152.16L74.83,165.5L75.16,156.73L75.17,159.64L75.33,149.88L75.49,166.36L75.92,161.54L75.93,160.47L76.29,169.42L76.65,147.98L76.67,156.43L76.69,162.02L77.19,170.69L77.27,146.08L77.45,166.24L77.46,164.88L77.67,147.72L77.99,173.9L78.21,161.15L78.22,165.64L78.31,146.5L78.66,168.36L78.88,158.17L78.89,156.96L79.05,165.08L79.13,148.69L79.23,161.73L79.24,163.95L79.29,166.51L79.59,153.47L79.86,160.16L79.87,158.08L80.24,149.77L80.29,169.22L80.61,157.73L80.62,154.85L80.74,148.46L81.28,167.23L81.33,156.7L81.34,151.77L81.36,147.84L81.45,167.66L82.07,156.43L82.08,157.09L82.35,169.36L82.62,147.66L82.82,156.62L82.83,155.73L83.24,152.3L83.32,167.94L83.44,158.88L83.45,156.82L83.8,171L83.9,148.19L84.18,160.21L84.19,159.89L84.57,146.38L84.69,170.22L84.91,163.68L84.92,165.46L85.2,142.53L85.29,170.8L85.52,159.76L85.53,164.7L85.55,169.23L86.05,144.67L86.26,159.8L86.27,159.78L86.94,171.31L87.06,143.71L87.07,146.1L87.08,152.36L87.19,171.17L87.26,147.08L87.84,164.36L87.85,165.82L88.06,170.53L88.21,142.75L88.62,153.09L88.63,153.65L88.86,143.9L89.11,170.57L89.39,162.07L89.4,163.99L89.5,142.34L89.94,167.25L90.11,155.76L90.12,151.63L90.14,145.32L90.63,171.03L90.86,152.17L90.87,154.27L91.08,147.6L91.57,178.05L91.64,163.5L91.65,161.66L91.7,145.51L91.84,169.27L92.4,151.43L92.41,152.37L92.78,173.26L93.06,145.02L93.2,169.71L93.21,167.97L93.61,147.55L93.84,169.91L94.01,151.3L94.02,153.71L94.07,176.64L94.23,145L94.78,165.53L94.79,161.89L95.04,172.31L95.19,146.19L95.56,155.5L95.57,156.57L95.77,167.97L95.81,143.14L95.82,141.08L96.04,171.9L96.51,140.75L96.65,163.12L96.66,159.32L97.05,167.32L97.1,146.9L97.4,158.86L97.41,160.42L97.46,150.96L97.57,162.67L97.58,164.64L97.94,168.95L98.13,146.14L98.25,162.34L98.26,163.21L98.39,145.25L98.61,168.09L98.82,155.07L98.83,153.99L98.97,166.92L99.09,146.83L99.45,162.14L99.46,161.96L99.62,166.92L99.68,146.81L100,149.24L100.01,144.35L100.02,141.45L100.25,171.34L100.72,154.29L100.73,153.35L100.96,141.09L101.02,169.3L101.49,159.58L101.5,158.18L101.59,143.58L102.19,175.88L102.22,160.6L102.23,151.31L102.68,134.91L102.83,175.34L102.98,146.74L102.99,151.57L103.16,172.25L103.54,145.94L103.73,150.87L103.74,149.54L103.88,177.75L103.95,137.46L104.1,170.94L104.11,177.49L104.45,181.52L104.57,139.49L104.59,135.99L105.39,176.11L105.45,172.43L105.46,167.88L105.98,235.96L106.02,102.07L106.24,125.51L106.25,161.95L106.78,110.45L106.83,209.76L106.97,120.2L106.98,116.14L107.02,208.19L107.73,167.19L107.74,154.58L108.14,126.94L108.35,184.85L108.49,135.65L108.5,145.54L108.84,112.36L108.9,214.89L109.25,146.4L109.26,156.58L109.55,181.23L109.81,133.27L110,159.15L110.02,154.9L110.05,135.9L110.18,181.16L110.75,148.47L110.77,160.86L110.8,181.88L111.35,141.63L111.51,160.84L111.52,150.76L111.78,175.77L111.89,141.15L112.26,156.54L112.27,158.04L112.32,150.06L112.39,161.49L112.4,167.73L112.5,174.31L112.64,147.57L112.79,153.6L112.8,149.51L112.91,144.38L113.3,179.04L113.49,165.14L113.5,167.75L113.79,176.79L114.11,142.13L114.24,160.11L114.25,162.73L114.37,174.43L114.44,141.82L114.99,153.02L115,158.95L115.17,142.14L115.25,174.83L115.76,164.49L115.77,163.62L116.1,131.59L116.25,178.46L116.44,168.5L116.45,174.78L116.79,142.77L116.87,176L117.22,153.56L117.23,159.04L117.48,142.73L117.52,175.18L117.82,155.75L117.83,162.7L118.18,140.48L118.22,178.32L118.56,152.44L118.57,155.23L118.61,143.76L118.94,176.12L119.36,165.93L119.37,166.24L119.72,145.96L119.77,170.36L120.13,160.62L120.15,163.69L120.5,177.68L120.8,142.45L120.87,162L120.89,162.15L121.08,146.34L121.14,180.52L121.47,159.65L121.48,154.1L122,142.65L122.07,173.96L122.19,158.23L122.2,160.41L122.39,173.09L122.6,147.93L122.84,154.85L122.85,151.94L122.96,174.28L123.46,147.98L123.53,158.51L123.54,153.43L123.92,173.44L124.14,143.75L124.21,165.01L124.22,166.18L124.28,150.67L124.68,175.46L124.9,159.31L124.91,153.65L125.21,148.34L125.53,171.55L125.54,180.89L125.55,188.19L125.62,140.28L126.24,148.32L126.25,148.15L126.6,134.19L126.94,175.37L126.99,155.14L127,151.64L127.21,176.75L127.29,136.9L127.73,154.28L127.74,157.07L128.2,170.84L128.37,143.59L128.52,166.87L128.53,163.03L128.89,170.35L129.24,145.62L129.29,152.44L129.3,156.66L129.85,172.55L129.91,144.4L130.06,164.16L130.07,163.12L130.28,174.96L130.59,141.35L130.85,141.62L130.86,145.17L130.99,139.95L131.1,181.31L131.62,157.05L131.63,154.88L131.77,177.77L131.85,135.25L132.36,158.37L132.37,163.96L132.89,177.87L132.94,139.29L133.1,153.78L133.11,149.47L133.13,147.19L133.68,169.35L133.83,155.59L133.84,158.48L134,171.05L134.09,145.82L134.61,170.97L134.62,172.47L135,180.18L135.36,136.98L135.41,160.85L135.42,167.58L135.95,174.87L136.01,142.26L136.15,157.38L136.16,154.78L136.21,151.34L136.29,161.26L136.3,162.9L136.33,171.37L136.66,145.05L137,153.97L137.01,151.61L137.37,169.27L137.44,143.58L137.74,155.79L137.75,161.27L137.81,173.15L137.85,158.3L137.86,153.89L138.39,147.99L138.46,168.99L138.54,153.56L138.55,151.46L138.8,171.04L139.03,146.52L139.25,163.13L139.26,163.27L139.29,165.47L139.35,154.07L139.36,152.5L139.74,151.9L139.98,172.69L140.13,160.22L140.15,156.05L140.41,178.06L140.67,145.38L140.87,165.67L140.89,164.85L141.18,144.94L141.27,174.9L141.64,151.21L141.65,158.28L141.92,145.2L142.1,176L142.38,146.97L142.39,150.12L142.52,171.58L142.8,144.99L143.15,160.5L143.16,164.61L143.37,174.93L143.53,146.59L143.86,158.46L143.87,152.42L144,142.32L144.49,176.41L144.58,157.4L144.6,157.55L144.87,144.36L145.18,175.01L145.38,167.74L145.39,164.51L145.53,136.6L145.6,179.38L146.13,167.59L146.14,164.85L146.62,141.81L146.67,176.75L146.89,162.08L146.9,160.94L147.03,136.39L147.52,175.65L147.65,153.29L147.66,158.79L147.97,173.75L148.02,147.77L148.42,166.37L148.43,164.15L149.07,172.1L149.13,146.93L149.18,157.47L149.19,165.06L149.61,174.4L149.84,147L149.93,163.4L149.94,160.24L150.21,139.43L150.6,173.04L150.7,155.81L150.71,157.98L150.88,144.86L151.41,174.28L151.45,160.68L151.46,156.12L151.49,141.66L151.57,171.31L152.2,154.35L152.21,159.17L152.27,175.1L152.81,141.78L152.95,160.83L152.96,157.79L153.18,170.62L153.45,144.6L153.71,157.6L153.73,161.65L154.08,135.51L154.18,172.79L154.49,168.16L154.5,164.42L154.62,174.18L155.2,146.88L155.25,157.61L155.26,162.36L155.38,139.7L155.47,173.94L155.98,153.08L155.99,147.61L156.41,175.05L156.66,135.76L156.73,144.12L156.74,148.69L157.22,185.46L157.36,144.18L157.49,154.08L157.5,152.21L157.58,137.22L157.64,155.06L157.66,152.43L157.68,156.56L157.89,186.04L158.29,142.41L158.4,145.67L158.41,139.79L158.44,136.38L158.77,174.03L158.99,165.37L159,164.78L159.19,176.61L159.29,129.53L159.68,159.7L159.69,155.01L159.81,176.77L160.16,140.44L160.42,161.35L160.43,167.43L160.47,173.25L161.01,132.96L161.15,166.76L161.16,160.7L161.55,175.47L161.86,140.41L161.92,150.88L161.93,155.14L162.31,138.68L162.4,178.86L162.71,161.9L162.72,160.22L162.76,143.06L163.31,176.01L163.47,154.7L163.48,154.88L163.62,143.7L164.18,175.27L164.22,162.18L164.23,153.61L164.53,141.24L164.82,175.67L164.96,157.07L164.97,161.79L165.36,135.81L165.67,177.16L165.7,166.48L165.71,164.86L165.9,179.13L166.02,139.39L166.48,146.34L166.49,154.3L166.52,178.44L166.84,146.63L167.24,160.84L167.25,154.87L167.87,178.46L167.98,142.74L168,153.94L168.01,157.09L168.13,149.08L168.46,171.73L168.74,160.86L168.75,156.46L168.96,146.49L169.15,175.71L169.48,158.74L169.49,159.6L169.66,142.81L169.99,169.83L170.2,161.18L170.21,158.76L170.34,141.97L170.65,172.55L170.92,156.75L170.93,153.25L171.08,185.5L171.2,135.19L171.66,155.15L171.67,157.53L172.23,146.19L172.35,175.53L172.41,154.04L172.42,150.36L172.45,142.36L172.6,169.68L173.04,166.46L173.05,166.28L173.11,145.78L173.2,171.86L173.82,150.88L173.83,151.77L174.39,167.68L174.49,148.27L174.59,158.81L174.6,154.91L174.64,137.17L174.73,170.93L175.34,156.19L175.35,159.02L175.83,173.09L175.94,144.56L176.08,154.92L176.09,152.12L176.43,141.15L176.49,177.93L176.65,166.37L176.66,171.35L176.67,171.94L176.78,142.81L177.05,156.96L177.06,149.04L177.23,130.58L177.33,179.44L177.76,161.31L177.77,161.37L178.08,135.55L178.43,190.34L178.47,152.58L178.48,146.29L178.68,138.97L179.09,174.4L179.2,151.07L179.21,156.37L179.25,182.08L179.63,143.06L179.95,162.07L179.96,155.14L180.49,116.88L180.52,190.89L180.53,210.77L180.58,91.41L180.62,231.07L181.17,164.07L181.18,184.24L181.39,209.67L181.43,92.96L181.9,164.08L181.91,154.45L182.11,178.73L182.41,128.51L182.63,166.52L182.64,164.13L183.1,200.81L183.25,120.91L183.39,149.51L183.4,161.88L183.5,101.82L183.74,191.83L184.14,154.3L184.15,142L184.17,125.22L184.23,188.64L184.87,165.43L184.88,168.36L185.05,172.91L185.1,149.07L185.54,162.41L185.55,168.32L185.63,145.13L185.73,171.54L185.77,148.42L185.78,144.29L186.02,188.09L186.09,135.37L186.38,158.94L186.39,165.45L186.53,142.95L186.67,181.59L187.12,157.17L187.13,155.58L187.21,143.46L187.64,171.35L187.86,151.09L187.87,150.43L187.95,171.91L188.24,148.17L188.37,158.94L188.38,146.99L188.39,138.16L188.5,172.92L189.1,161.13L189.11,165.6L189.19,176.84L189.51,141.77L189.84,163.75L189.85,159.28L190.3,174.95L190.37,148.14L190.59,163.43L190.6,164.7L190.85,138.86L191.12,172.01L191.37,149.81L191.38,155.5L191.67,138.34L191.79,179.15L192.11,147.2L192.12,140.03L192.13,139.13L192.4,174.68L192.58,164.13L192.59,167.89L192.97,126.91L193.08,177.39L193.25,150.48L193.26,148.57L193.47,175.38L193.6,131.64L194.02,158.47L194.03,155.18L194.25,134.1L194.32,183.82L194.75,157.9L194.76,162.64L194.89,137.84L194.97,175.38L195.5,162.52L195.51,158.24L196.03,136.17L196.11,182.17L196.24,163.52L196.25,163.69L196.54,150.4L196.75,172.98L196.8,152.16L196.81,145.79L197.14,134.82L197.38,178.2L197.51,163.67L197.52,165.46L198.05,176.92L198.14,140.74L198.25,167.8L198.26,169.95L198.35,149.67L198.68,174.76L198.75,156.74L198.76,144.27L198.78,133.3L199.15,180.92L199.48,162.14L199.49,166.82L199.87,139.44L200.11,185.33L200.14,152.75L200.16,142.69L200.18,138.86L200.24,174.68L200.86,151.48L200.87,154.95L201.03,134.26L201.1,180.03L201.62,162.25L201.64,151.16L201.67,125.39L202.21,179.62L202.38,163.42L202.39,166.65L202.95,132.1L203.03,188.98L203.1,156.71L203.12,150.83L203.39,143.6L203.66,174.43L203.67,188.66L203.68,194.42L203.77,137.43L204.36,160.2L204.37,151.57L204.82,174.01L204.94,146.03L205.08,155.38L205.1,155.98L205.22,139.82L205.27,179.77L205.81,153.23L205.82,146.37L205.84,140.85L206.33,178.33L206.53,151.3L206.54,163.56L206.58,181.09L206.67,131.19L207.27,155.4L207.28,149.02L207.5,121.68L207.61,180.65L208,153.91L208.01,159.66L208.37,141.58L208.71,173.58L208.75,159.14L208.76,157.15L208.91,177.9L208.98,143.49L209.5,153.89L209.51,159.04L209.56,175.35L210.11,146.39L210.25,160.28L210.26,156.49L210.3,137.56L210.88,177.76L211,152.02L211.02,152.51L211.07,162.74L211.09,154.56L211.1,148.07L211.12,144.36L211.34,169.44L211.83,153.45L211.84,155.91L211.91,167.39L211.97,151.56L212.06,152.84L212.07,146.31L212.08,142.01L212.17,173.92L212.79,159.02L212.8,157.05L213.16,172.13L213.46,147.24L213.53,159.14L213.54,159.94L213.71,148.99L214.21,171L214.22,173.97L214.24,174.96L214.28,144.59L214.29,137.85L214.3,135.86L214.66,175.36L214.98,145.88L214.99,148.86L215.44,143.52L215.52,176.13L215.76,159.27L215.77,157.55L216.26,138.77L216.5,173.51L216.52,165.54L216.53,158.76L216.7,149.95L216.83,171.7L217.28,154.1L217.29,157.62L217.42,146.42L217.77,169.73L218.03,155.89L218.04,152.39L218.39,171.56L218.48,144.66L218.83,161.27L218.84,160.32L219.17,144.15L219.26,170.47L219.46,164.56L219.47,166.89L219.8,146.13L219.89,169.65L219.98,151.98L219.99,149.35L220.09,169.37L220.44,141.68L220.54,168.22L220.55,171.2L220.64,136.75L221.21,174.47L221.33,152.81L221.34,162.44L221.52,148.47L221.7,174.58L222.08,163.83L222.09,161.37L222.51,169.99L222.59,143.09L222.86,151.62L222.88,151.44L222.89,149.97L223.1,171.5L223.56,161.3L223.57,162.79L223.7,154.53L223.78,165.06L223.84,156.61L223.85,150.96L223.89,136.78L224.44,171.35L224.57,159.42L224.58,162.39L224.72,142.39L225.01,168.54L225.32,163.51L225.33,160.61L225.87,173.2L225.97,146.72L226.05,160.99L226.06,164.13L226.28,173.92L226.38,148.17L226.76,158.62L226.77,156.59L227.05,139.62L227.16,181.57L227.5,158.58L227.51,163.68L227.91,137.96L228.01,178.63L228.24,161.71L228.25,157.63L228.48,173.39L228.77,140.99L229.01,151.56L229.02,153.31L229.49,174.79L229.66,135.15L229.82,164.18L229.83,160.94L230.43,177.79L230.5,140.92L230.57,165.81L230.58,168.74L230.94,133.02L231.08,188.62L231.15,148.31L231.16,143.16L231.24,180.95L231.6,129.72L231.85,154.32L231.86,161.8L232.38,184.1L232.45,125.87L232.59,156.52L232.6,152.65L232.82,179.74L232.89,133.37L233.17,167.96L233.18,170.05L233.55,139.41L233.63,176.76L233.72,150.42L233.74,145.69L233.76,141.68L234.3,171.41L234.43,160.16L234.44,161.97L234.6,169.67L234.88,141.58L235.17,155.49L235.18,152.5L235.44,170.91L235.53,133.68L235.88,162.27L235.89,163.22L236.18,143.23L236.29,172.81L236.62,160.05L236.63,160.79L236.91,170.21L237.02,146.83L237.35,160.28L237.36,157.33L237.7,152.03L238.07,169.16L238.08,168.59L238.28,170.18L238.36,142.61L238.89,153.67L238.9,158.85L239.4,180.43L239.5,136.74L239.64,158.36L239.65,150.86L239.68,143.41L240.24,177.22L240.38,154.7L240.39,155.55L240.43,155.47L240.52,162.47L240.59,156.39L240.6,153.03L241.17,172.63L241.29,144.82L241.32,155.12L241.33,161.46L241.94,144.4L242.01,174.77L242.05,153.45L242.06,148.14L242.07,144.33L242.45,170.02L242.76,162.66L242.77,163.76L243.02,147.56L243.03,146.26L243.4,142.82L243.76,175.31L243.79,167.66L243.8,162.23L243.95,178.37L244.29,142.56L244.55,156.56L244.56,157.91L244.62,173L244.73,144.5L245.3,160.08L245.31,159.72L245.4,142.59L245.66,175L246.05,154.94L246.06,159.48L246.53,144.39L246.61,172.61L246.81,165.96L246.83,164.15L247.27,176.41L247.35,138.05L247.61,153.49L247.62,155.63L247.93,177.33L248.03,143.4L248.38,161.63L248.39,157.94L248.76,181.26L248.91,141.19L249.16,149.18L249.17,151.96L249.25,173.08L249.31,146.11L249.92,159.98L249.93,157.76L249.96,147.18L250.5,164.88L250.66,160.45L250.67,162.31L251.2,129.14L251.25,184.67L251.26,192.25L251.57,123.24L252.02,164.1L252.03,159.97L252.29,183.29L252.43,141.76L252.74,158.52L252.76,176.82L252.77,177.19L252.78,154.33L252.79,150.05L252.82,134.46L253.35,173.39L253.55,166.78L253.56,160.95L254.17,179.66L254.28,134.05L254.34,149.15L254.35,162.26L254.85,180.02L254.9,143.26L255.08,152.41L255.09,152.25L255.18,137.85L255.82,175.82L255.84,163.09L255.85,154.77L256,145.57L256.16,168.88L256.57,163.65L256.58,164.54L256.74,137.74L256.88,180.99L257.28,156.49L257.29,172.34L257.59,304L257.63,16L258.01,137.28L258.02,128.42L258.16,202.93L258.31,102.59L258.33,161.48L258.34,208.39L258.39,48.32L258.45,258.62L259.07,142.53L259.08,147.4L259.49,197.67L259.52,116.15L259.74,143.64L259.75,123.27L260.23,71.98L260.27,229.7L260.36,197.83L260.37,202.48L260.55,92.61L260.91,212.41L261.05,167.94L261.06,174.16L261.13,141.15L261.3,181.45L261.32,158.46L261.33,134.45L261.91,189.04L261.95,125.75L262.1,171.71L262.11,155.26L262.67,130.83L262.72,180.95L262.86,140.96L262.88,140.78L263.46,195.2L263.5,136.2L263.65,172.66L263.66,154.02L264.05,134.41L264.34,184.65L264.4,159.77L264.41,161.29L264.69,190.01L264.87,132.31L265.12,169.07L265.13,152.09L265.41,195.09L265.45,117.31L265.86,169.52L265.87,165.99L266.52,181.1L266.57,141.44L266.62,157.51L266.63,160.11L266.73,177.08L266.83,145.17L267.31,150.98L267.33,140.99L267.9,126.86L267.95,177.32L268.11,165.31L268.12,160.98L268.49,179.99L268.82,132.74L268.85,168.5L268.86,168.31L268.89,134.97L269.13,196.32L269.62,150.29L269.63,157.09L269.71,131.87L270.2,190.49L270.35,150.39L270.36,146.59L270.55,182.79L270.58,152.7L270.59,146.95L270.88,186.44L271.04,134.11L271.33,144.76L271.34,147.02L271.77,183.98L272.07,140.13L272.08,141.19L272.09,146.66L272.31,135.85L272.88,183.34L272.9,171.74L272.91,164.13L273.01,135.62L273.35,185.5L273.66,153.94L273.67,158.74L273.83,178.15L273.95,140.93L274.38,158.54L274.39,146.94L274.45,122.32L274.58,180.71L275.08,168.26L275.09,177.22L275.32,185.89L275.41,142.9L275.81,163.27L275.82,154.38L276.06,183.88L276.43,139.19L276.55,168.45L276.56,170.79L276.78,177.36L277.13,129.64L277.15,152.68L277.16,165.41L277.6,135.2L277.74,182.42L277.84,135.59L277.85,133.25L277.99,182.09L278.58,134.02L278.59,133.89L278.95,180.85L279.36,152.66L279.37,154.6L279.69,180.16L279.82,144.33L280.14,168.38L280.15,163.05L280.6,137.19L280.66,184.22L280.91,144.51L280.92,155.17L281.28,140.98L281.67,184.8L281.68,180.12L281.69,164.97L282.01,135.4L282.43,179.52L282.44,171.64L282.52,136L282.89,173.85L283.21,142.53L283.22,145.54L283.25,137.25L283.6,177.37L283.7,143.16L283.71,139.01L283.81,173.55L284.34,138.07L284.41,153.65L284.42,147.07L284.51,182.14L284.55,141.73L285.07,170.47L285.08,171.58L285.76,172.47L285.81,141.76L285.85,159.44L285.86,162.06L286.03,143.29L286.43,177.6L286.55,150.74L286.56,147.3L286.63,183.98L286.89,137.88L287.28,155.57L287.29,165.63L287.43,186.36L287.7,139.52L288.03,160.22L288.04,160.41L288.23,173.37L288.66,142.08L288.77,157.26L288.78,156.34L289.09,175.68L289.19,142.68L289.38,147.06L289.39,144.79L289.49,175.69L289.92,139.42L290.15,152.42L290.16,148.25L290.35,177L290.39,140.68L290.76,167.27L290.77,169.2L291.2,143.03L291.3,172.58L291.55,154.02L291.56,157.35L292.12,175.87L292.27,143.19L292.32,164.07L292.33,161.19L292.41,175.04L293.08,148.73L293.09,150.78L293.1,153.2L293.53,130.85L293.7,180.96L293.84,153.2L293.85,148.02L294.07,146.2L294.44,182.02L294.56,156.66L294.57,151.64L294.58,148.56L295.21,170.86L295.26,166.7L295.27,167.95L295.29,173.11L295.4,142.3L296.03,172.68L296.04,171.06L296.38,144.57L296.79,170.88L296.8,173.11L297.28,144.93L297.51,164.01L297.52,171.07L297.71,137.28L297.86,176.52L298.2,155.88L298.21,153.61L298.51,141.04L298.75,174.67L298.89,156.65L298.9,161.52L299.33,144.34L299.48,171.01L299.52,169.38L299.53,170.67L299.69,144.93L300.14,162.16L300.15,169.53L300.17,172.22L300.34,146.28L300.76,151.88L300.77,151.76L301.09,171.06L301.3,147.36L301.42,157.1L301.43,162.72L301.61,147.93L301.77,172.18L302.17,161.66L302.18,158.59L302.41,143.37L302.51,174.38L302.91,158.01L302.92,167.61L303,174.79L303.12,143.4L303.61,153.21L303.63,154.13L303.67,171.57L303.88,149.97L304.38,161.51L304.39,160.49L304.46,175.27L305.01,145.55L305.12,165.01L305.13,166.62L305.5,131.95L305.64,174.66L305.82,155.09L305.83,150.83L305.99,145.48L306.1,174.84L306.48,158.13L306.49,162.76L306.91,143.7L307.07,178.26L307.24,162.29L307.25,165.46L307.52,171.6L307.62,142.04L308,164.96L308.01,167.95L308.51,178.07L308.65,140.05L308.72,172.09L308.73,175.03L308.88,141.94L308.93,176.71L309.49,157.47L309.5,159.26L309.71,168.03L309.76,144.23L310.23,160.5L310.24,161.69L310.37,169.23L310.82,149.73L310.87,166.96L310.88,166.26L311.17,177L311.57,145.04L311.64,158.95L311.65,160.47L311.78,142.73L312.17,171.88L312.44,167.36L312.45,163.44L312.54,141.79L312.89,179.02L313.23,150.65L313.24,148.64L313.49,143.38L313.65,174.48L313.66,176.04L313.98,145L314.45,151.1L314.46,150.52L314.62,171.3L314.88,149.34L315.2,150.8L315.21,151.02L315.48,147.05L315.57,172.12L315.87,150.22L315.88,149.89L315.93,144.82L316.09,169.96L316.33,160.48L316.34,162.34L316.53,178.33L316.73,147.75L317.07,161.33L317.08,158.31L317.23,172.06L317.79,149.91L317.83,157.99L317.84,159.39L317.88,152.36L318.17,164.41L318.47,159.31L318.48,160.86L318.92,150.01L319.05,170.84L319.1,156.8L319.11,153.3L319.55,173.84L319.79,142.92L319.83,159.65L319.84,161.76L320,172.42L320.1,148.74L320.61,154.32L320.62,156.74L320.72,176.76L321.32,147.97L321.38,162.82L321.39,158.51L321.46,166.78L322.04,144.39L322.11,157.13L322.12,162.04L322.68,168.53L322.73,150.93L322.8,157.28L322.81,155.02L323.26,145.39L323.45,180.11L323.54,158.7L323.55,159.12L323.94,170.06L324.08,140.89L324.11,164.06L324.13,173.56L324.14,176.99L324.75,146.05L324.82,155.96L324.83,155.95L324.88,153.83L325.21,165.8L325.49,157.91L325.5,161.38L325.99,141.48L326.03,174.58L326.24,163.76L326.25,155.92L326.7,149.09L326.89,172.85L326.98,162.44L326.99,164.82L327.22,143.37L327.62,170.89L327.66,154.11L327.67,153.72L327.77,144.98L327.88,167.84L328.41,152.06L328.42,152.4L328.93,111.34L329.1,203.64L329.12,141.23L329.13,125.18L329.38,244.97L329.41,52.82L329.42,30.87L329.46,266.72L330.16,144.65L330.17,104.42L330.18,82.67L330.22,233.09L330.9,146.06L330.91,146.86L331.16,126.35L331.59,191.07L331.62,148.71L331.63,138.74L331.8,174.47L331.84,125.93L331.91,164.79L331.92,177.38L332.09,96.48L332.3,215.13L332.63,162.08L332.64,152.55L332.73,121.98L332.78,190.18L333.41,136.27L333.42,148.6L333.53,172.49L333.58,138.09L334.17,164.05L334.18,159.41L334.61,194.12L334.65,127.64L334.81,167.06L334.82,169.01L334.9,136.55L335.25,193.41L335.56,156.18L335.57,159.06L335.74,179.04L336.23,142.05L336.29,158.46L336.3,151.18L336.43,134.44L336.62,177.55L337.02,156.29L337.03,156.74L337.23,128.66L337.64,178.5L337.77,162.63L337.78,157.72L337.96,177.63L338,140.88L338.5,160.97L338.51,172.39L338.52,176.2L338.56,139.73L339.21,154.62L339.22,156.91L339.4,144.78L339.59,173.71L339.93,148.04L339.94,145.72L340.04,179.29L340.09,127.95L340.67,156.03L340.68,143.3L340.77,176.42L341.2,141L341.32,158.24L341.33,171.82L341.49,141.8L341.99,179.9L342.06,163.21L342.07,163.67L342.24,142.91L342.66,175.98L342.83,160.83L342.84,162.5L343,138.98L343.07,181.26L343.58,157.71L343.59,161.55L343.84,138.95L343.96,172.73L344.31,145.66L344.32,144.07L344.88,138.71L345.05,174.29L345.07,165.35L345.08,153.27L345.23,139.33L345.78,182.11L345.79,182.88L346.4,132.3L346.46,175.33L346.47,176.95L346.73,140.4L347.23,165.36L347.24,167.26L347.54,145.98L347.65,175.38L347.99,158.91L348,158.93L348.05,147.48L348.19,170.33L348.68,157.68L348.69,152.47L348.79,137.63L349.2,179.21L349.33,165.85L349.34,166.36L349.75,182.05L350,130.39L350.09,162.34L350.1,165.83L350.49,140.12L350.72,171.89L350.78,162.67L350.8,159.31L350.89,178.88L351.16,143.45L351.54,162.07L351.55,162.35L351.82,143.12L352.11,178.91L352.22,153.31L352.23,149.45L352.68,145L352.79,172.56L352.99,158.84L353,152.97L353.29,173.76L353.35,135.14L353.64,160.66L353.65,173.19L353.66,177.18L354.26,136.13L354.36,159.56L354.37,153.35L354.66,174.37L354.81,148.05L355.08,161.14L355.09,154L355.54,175.76L355.61,141.52L355.83,156.05L355.84,157.15L356.14,144.76L356.3,180.59L356.54,162.11L356.55,166.21L356.91,135.69L357.08,172.39L357.18,153.8L357.19,148.71L357.2,148.47L357.23,162.14L357.24,169.89L357.47,144.52L357.55,175.77L357.96,165.09L357.97,161.53L358.38,142.83L358.42,173.15L358.7,155.9L358.71,167.56L358.72,177.13L359.05,143.26L359.45,165.7L359.46,166.05L359.7,136.93L360.02,176.07L360.21,163.4L360.22,161.37L360.28,156.14L360.35,174.8L360.37,157.99L360.38,147.08L360.48,173.14L360.92,142.84L361.09,152.85L361.1,155.13L361.29,173.57L361.62,144.56L361.86,167.17L361.87,162.46L362.25,140.85L362.51,176.99L362.63,154.15L362.65,156.27L362.72,168.3L362.76,141.83L363.39,156.51L363.4,153.94L363.46,143.67L363.54,169.66L364.15,153.37L364.16,154.18L364.67,177.95L364.71,146.06L364.92,158.96L364.93,155.42L364.97,156.44L365,144.2L365.03,153.77L365.04,156.41L365.34,170.5L365.39,143.11L365.59,166.04L365.61,169.71L366,142.41L366.22,175.16L366.26,149.01L366.27,146.55L366.65,143.77L366.73,173.5L367.07,165.65L367.09,164.64L367.25,169.56L367.47,150.7L367.84,160.68L367.85,162.19L368.28,147.61L368.41,167.51L368.43,156.35L368.44,150.29L368.6,170.34L368.93,143.7L369.14,162.95L369.15,162.75L369.48,143.78L369.66,181.41L369.89,163.77L369.9,161.58L370.53,174.6L370.58,145.09L370.65,160.6L370.66,163.7L370.69,170.86L371.05,139.9L371.4,160.57L371.41,157.76L371.73,167.72L372.13,148.89L372.16,157.05L372.17,161.15L372.23,149.3L372.31,162.58L372.32,165.75L372.48,176.62L372.65,146.06L373.04,162.94L373.05,164.25L373.13,167.03L373.58,148.39L373.85,155.91L373.86,156.81L373.9,156.48L373.94,161.99L373.99,161.64L374.01,163.46L374.16,167.27L374.32,149.45L374.66,159.95L374.67,152.62L374.76,146.76L375.11,169.28L375.42,149.58L375.43,152.34L375.65,149.1L376,173.22L376.19,154.85L376.2,156.61L376.5,172.86L376.74,144.98L376.98,163.69L376.99,163.44L377.02,168.97L377.29,144.08L377.69,158.54L377.71,156.14L377.78,152.61L377.81,171.4L378.4,156.08L378.41,148.8L378.42,145.25L378.66,168.69L379.13,156.48L379.14,157.91L379.69,150.75L379.82,173.45L379.86,158.05L379.87,157.28L379.95,148.41L380.09,169.5L380.41,156.18L380.43,149.78L380.44,146.44L380.59,171.68L381.14,155.61L381.15,160.42L381.18,168.28L381.64,148.12L381.88,160.06L381.89,156.17L382.09,172.13L382.41,137.22L382.62,158.12L382.63,157.79L382.68,146.32L382.96,171.87L383.27,160.32L383.28,162.71L383.55,142.96L383.94,175.09L383.99,154.55L384,150.73L384.26,142.65L384.63,171.57L384.68,166.57L384.69,169.58L385.07,145.26L385.14,173.36L385.4,159.13L385.41,160.44L385.67,179.08L385.78,141.32L386.19,170.03L386.2,168.24L386.56,144.49L387.01,152.84L387.02,154.47L387.44,172.57L387.56,146.06L387.67,160.5L387.68,162.34L387.78,144.55L387.91,169.27L388.31,162.53L388.33,163.89L388.41,171.63L388.51,140.77L389.08,159.09L389.09,158.94L389.23,170.76L389.37,144.02L389.83,159.34L389.84,158.74L389.87,158.52L390.02,167.31L390.04,159.15L390.06,154.03L390.35,141.92L390.61,169.31L390.8,151.81L390.81,156.3L391.03,168.38L391.17,149.97L391.56,157.43L391.57,154.75L391.9,146.87L392.2,170.36L392.26,164.35L392.28,164.77L392.45,167.58L392.93,147.76L392.96,160.65L392.97,164.92L393.16,150.23L393.27,177.25L393.62,151.95L393.63,149.98L393.79,177.13L393.94,146.18L394.2,158.82L394.21,160.52L394.55,172.97L394.66,148.82L394.91,157.44L394.92,155.64L395.41,169.19L395.68,147.07L395.69,148.7L395.7,153.59L395.88,140.6L396.24,169.86L396.46,161.91L396.48,160.81L396.68,144.12L396.75,166.68L397.09,161.62L397.1,164.08L397.37,169.06L397.48,151.39L397.81,161.22L397.82,163.43L397.94,147.42L398.33,168.59L398.54,161.02L398.55,163.96L399.02,147.8L399.13,168.55L399.28,161.71L399.29,160.7L399.32,165.06L399.38,153.42L399.51,155.08L399.52,152.16L399.64,167.67L399.98,146.23L400.22,157.45L400.23,163.09L400.74,174.4L400.8,139.84L400.95,158.6L400.96,149.01L400.97,144.22L401.36,183.2L401.7,151.57L401.71,150.71L401.99,135.92L402.07,180.25L402.44,156.01L402.45,156.02L402.69,182.34L402.73,131.31L402.77,166.74L402.78,191.84L403.09,112.41L403.12,199.66L403.56,117.84L403.57,132.98L403.7,204.31L403.75,118.96L404.33,170.41L404.34,149.91L404.61,242.77L404.67,58.7L405.07,168.75L405.08,167.97L405.23,100.8L405.27,217.93L405.83,163.31L405.84,163.4L406.03,118.27L406.38,179.5L406.56,160.24L406.57,145.25L406.65,195.72L407.05,121.65L407.08,174.12L407.1,195.1L407.11,200.06L407.59,111.19L407.76,162.7L407.77,144.58L408.09,129.94L408.2,190.15L408.49,160.99L408.5,162.3L408.79,141.84L409.05,188.62L409.25,157.51L409.26,160.44L409.73,182.59L409.78,143.65L409.99,161.78L410,165.51L410.33,131.78L410.38,180.34L410.58,142.2L410.59,135.43L410.75,131.94L411.22,181.84L411.33,138.11L411.34,142.21L411.66,184.3L411.7,136.41L412.09,165.9L412.1,149.18L412.12,131.06L412.82,175.93L412.84,158.96L412.85,151.69L413.11,137.97L413.29,175.05L413.56,172.43L413.57,176.51L413.62,137.36L413.8,184.28L413.81,185.7L414.24,136L414.55,163.98L414.56,166.01L414.8,183.12L415.14,139.99L415.17,162.67L415.18,169.87L415.38,141.19L415.51,172.58L415.72,159.35L415.74,169.96L415.92,131.38L415.96,178.36L416.49,172.01L416.5,174.79L416.92,135.37L417.03,186.98L417.24,173.39L417.25,173.46L417.42,129.07L417.81,183.24L417.99,172.12L418,174.65L418.03,178.52L418.15,140.05L418.16,136.56L418.17,134.36L418.56,179.16L418.76,162.68L418.77,169.18L418.91,134.27L419.29,177.11L419.45,139.6L419.46,142L419.92,130.08L420.01,178.42L420.22,157.09L420.23,154.61L420.45,133.46L420.82,181.88L420.91,150.35L420.93,152.05L421.33,187.71L421.44,131.42L421.62,153.97L421.63,144.32L421.81,194.23L421.89,138.28L422.31,166.38L422.32,167.83L422.35,173.18L422.67,139.72L422.7,144.21L422.71,138.16L422.72,134.96L423.09,183.12L423.31,179.35L423.32,183.27L423.44,139.59L424.08,159.23L424.09,164.54L424.33,179.44L424.71,134.73L424.85,169.04L424.86,165.45L425.08,178.92L425.23,129.53L425.53,156.34L425.54,157.76L425.83,179.15L425.99,139.4L426,136.4L426.36,178.34L426.71,156.01L426.72,149.2L426.75,135.08L427.32,176.19L427.45,156.56L427.46,159.53L427.52,141.78L427.56,169.14L428.17,157.03L428.18,160.51L428.25,137.99L428.32,172.72L428.94,167.59L428.95,162.37L429.03,133.46L429.39,176.23L429.7,162.25L429.71,159.92L429.79,135.88L429.87,179.57L430.44,163.46L430.45,166.05L430.54,139.01L430.63,173.54L431.11,160.98L431.12,164.9L431.31,132.81L431.65,171.69L431.87,167.17L431.88,165.27L431.95,139.45L432.15,173.51L432.56,151.28L432.57,160.55L432.91,180.69L433.26,139.22L433.33,168.26L433.34,167.76L433.66,177.45L433.73,143.23L434.09,164.81L434.1,167.2L434.36,139.98L434.44,175.94L434.7,161.4L434.71,154.53L434.94,178.29L435.01,136.44L435.45,156.71L435.46,158.12L435.81,181.42L435.88,135.33L436.16,161.02L436.17,165.53L436.45,177.81L436.55,138.62L436.85,159.72L436.86,167.62L436.88,174.21L437.21,145.71L437.59,160.46L437.6,160.44L437.67,171.05L437.8,149.31L438.03,159.2L438.04,147.35L438.43,187.24L438.51,132.88L438.8,138.2L438.81,140.76L438.98,139.43L439.24,176.78L439.57,148.39L439.58,140.38L439.68,180.26L440.04,134.51L440.28,157.85L440.29,162.09L440.35,140.33L440.73,174.96L440.98,152.99L440.99,147.87L441.13,125.65L441.48,191.52L441.72,150.1L441.73,149.29L442.28,181.3L442.36,136.85L442.51,168.23L442.52,167.82L442.57,169.72L442.6,161.51L442.61,154.59L442.75,178L442.87,138L443.34,160.66L443.35,162.74L443.83,178.71L443.91,136.59L443.99,158.74L444,162.04L444.56,185L444.66,130.34L444.71,163.93L444.72,166.92L444.76,171.33L444.81,148.73L445.41,160.87L445.42,156.73L445.47,137.98L446.04,169.71L446.05,174.8L446.2,136.7L446.27,179.67L446.63,154.13L446.64,149.08L447.24,139.51L447.31,171.67L447.35,167.68L447.36,169.09L447.37,169.54L447.43,144.65L447.69,150.26L447.7,149.29L448.34,145.69L448.47,177.41L448.49,164.86L448.5,159.93L448.83,140.68L448.89,182.72L449.26,154.7L449.27,153.49L449.44,137.8L449.76,175.91L449.97,160.65L449.98,164.32L450.36,142.36L450.42,171.48L450.73,168.86L450.74,166.3L450.96,143.41L451.2,169.78L451.49,165.53L451.5,169.11L451.87,146.87L451.95,178.17L452,152.44L452.01,151.29L452.17,137.99L452.57,188.2L452.73,160.43L452.74,151.99L452.85,179.02L452.94,139.81L453.47,158.35L453.48,160.23L453.93,169.38L454.18,139.94L454.23,163.66L454.24,165.23L454.51,145.55L454.57,188.27L454.84,171.01L454.85,175.32L454.93,136.3L455.35,177.84L455.5,153.91L455.51,149.09L455.69,134.23L455.87,180.63L456.24,156.72L456.25,156.98L456.38,173.13L456.43,141.46L456.83,164.35L456.84,170.29L457.14,181.44L457.48,135.9L457.51,144.95L457.52,145.87L457.63,177.46L457.99,137.01L458.09,168.4L458.1,169.29L458.28,146.74L458.35,164.36L458.36,170.17L458.38,180.12L458.47,137.09L459.1,170.98L459.11,168.64L459.64,185.35L459.76,133.02L459.88,158.35L459.89,161.38L460.01,129.14L460.4,185.53L460.65,169.97L460.66,171.26L460.76,124.83L460.88,186.01L461.41,172.49L461.43,167.82L461.51,128.9L461.89,173.18L462.18,161.04L462.19,165.21L462.4,183.73L462.78,135.13L462.94,165.9L462.95,163.19L463.14,180.36L463.53,137.2L463.63,173.11L463.65,173.27L463.91,185.16L464.02,136.15L464.36,161.31L464.37,169.37L464.49,142.46L464.66,182.1L465.05,151.42L465.06,149.81L465.1,149.15L465.15,164.11L465.16,169.42L465.26,142.5L465.44,175.46L465.85,156.01L465.87,156.14L465.94,183.6L466.01,139.42L466.56,156.62L466.57,154.81L466.68,182.19L466.79,140.33L467.29,157.06L467.3,163.37L467.45,171.18L467.53,141.03L468.02,150.07L468.03,145.18L468.21,178.98L468.29,138.66L468.68,169L468.69,172.56L468.79,134.33L469.22,176.86L469.29,152.32L469.3,152.24L469.5,168.45L469.54,147.75L469.55,144.28L469.93,171.55L470.09,143.45L470.3,146.71L470.32,145.87L470.4,166.02L470.53,151.68L470.54,144.33L470.57,135.83L470.69,175.76L471.24,157.11L471.25,158.57L471.56,143.27L471.69,173.64L472.02,167.41L472.03,164.21L472.11,138.35L472.49,173.15L472.76,161.06L472.77,160.06L472.88,142.77L472.97,178.85L473.2,164.59L473.21,168.27L473.39,147.67L473.45,178.19L473.82,159.53L473.83,156.13L474.44,123.1L474.48,203.88L474.49,203.67L475.13,123.82L475.18,206.79L475.26,164.16L475.27,191.68L475.28,209.95L475.45,117.56L476.01,179.82L476.02,179.44L476.7,138.66L476.75,182.72L476.76,181.29L477.15,117.45L477.27,193.97L477.5,183.29L477.51,185.84L477.52,186.35L477.59,155.62L477.6,149.88L478.23,195.16L478.28,126.48L478.29,141.01L478.3,179.3L478.32,234.27L478.36,86.53L479.04,160.47L479.05,162.29L479.13,97.13L479.29,203.11L479.79,176.45L479.8,162.53L480.25,130.78L480.31,189.18L480.56,145.08L480.57,147.01L480.96,100.93L481.25,199.38L481.32,162.2L481.33,153.68L481.48,127.81L481.55,190.04L481.94,139.28L481.95,129.11L482.09,191.33L482.21,119.59L482.6,158.3L482.61,164.22L482.67,140.61L482.77,176.19L483.36,170.5L483.37,163.56L483.54,182.36L483.74,133.96L484.15,138.3L484.16,141L484.35,185.87L484.66,126.13L484.92,148.91L484.93,152.69L485.09,177.56L485.14,138.92L485.67,155L485.68,147.73L485.83,184L486.45,138.36L486.46,142.06L486.74,180.52L487.23,166.16L487.24,163.05L487.61,177.63L487.72,141.25L487.98,159.79L487.99,163.09L488.15,142.57L488.54,171.09L488.62,147.8L488.63,141.95L488.64,141.78L488.65,149.42L488.66,159.1L489.24,173.83L489.36,142.7L489.42,166.65L489.43,163.49L489.62,130.53L490.03,172.57L490.16,159.39L490.17,166.37L490.35,132.64L490.46,178.02L490.75,142.52L490.76,141.04L491.45,179.88L491.53,163.57L491.54,160.72L491.72,181.73L491.88,136.94L492.31,146.43L492.32,148.26L492.34,139.95L492.71,175.48L493.06,148.16L493.07,151.12L493.22,180.6L493.32,138.5L493.81,147.24L493.82,141.47L494.04,136.7L494.21,181.88L494.39,171.1L494.4,174.32L494.42,180.34L494.83,130.34L495.06,155.97L495.07,154.12L495.44,177.05L495.58,137.98L495.84,143.46L495.85,144.19L495.91,182.51L496.02,138.8L496.17,173.64L496.18,176.73L496.43,178.76L496.56,145.06L496.96,159.7L496.97,160.61L497.03,139.14L497.14,170.06L497.38,160.96L497.39,171.61L497.42,181.56L498.03,136.27L498.14,177.39L498.15,173.9L498.26,135.43L498.63,177.8L498.93,150.41L498.94,154.12L499.03,133.94L499.6,176.77L499.68,157.39L499.7,150.39L499.85,185.28L500.29,143.37L500.38,168.87L500.39,169.63L500.47,140.03L500.62,182.04L500.96,156.71L500.97,149.83L501.37,182.8L501.71,136.28L501.73,138.6L501.74,138.32L501.75,137.65L501.84,177.61L501.85,183.01L501.98,138.43L502.6,165.4L502.61,170.98L502.71,152.15L502.72,149.35L502.74,143.17L503.36,176.93L503.46,151.48L503.47,149.4L503.49,142.31L504.04,173.11L504.19,153.06L504.2,159.06L504.34,175.98L504.68,133.16L504.93,157.61L504.94,152L505.04,173.73L505.45,139.12L505.69,145.89L505.7,149.71L506.16,143.48L506.27,177.03L506.45,151.49L506.46,153.47L506.65,144.28L506.77,174.35L507.27,171.25L507.28,167.11L507.54,179.59L507.63,139.87L508.01,171.5L508.02,176.71L508.03,179.18L508.62,142.89L508.63,139.4L508.64,138.14L509.04,179.71L509.22,157.01L509.23,158.91L509.38,139.69L509.55,173L509.99,167.75L510,165.35L510.12,142.52L510.23,173.8L510.67,157.12L510.68,163.33L510.9,140.22L511.04,179.45L511.38,150.49L511.39,148.14L511.49,176.8L511.64,139.18L512.1,160.39L512.11,161.05L512.17,142.83L512.48,169.27L512.79,159.45L512.8,158.63L512.91,149.21L512.97,168.8L513.53,160.69L513.54,161.02L513.61,171.28L513.66,147.26L514.2,168.27L514.21,174.82L514.22,175.37L514.33,148.39L514.58,156.32L514.59,153.61L514.8,148.4L514.85,166.41L515.15,160.4L515.16,166.38L515.21,143.81L515.43,175.22L515.82,153.27L515.83,151.76L516.04,167.26L516.27,147.75L516.3,162.18L516.31,162.3L516.5,169.95L516.88,144.22L517.1,152.06L517.11,155.45L517.15,168.51L517.51,149.98L517.87,159.84L517.88,159.88L518.04,164.96L518.09,154.72L518.16,164.44L518.17,165.5L518.42,146.72L518.44,157.19L518.45,164.55L518.49,176.26L518.56,139.89L519.18,159.05L519.19,157.83L519.41,167.38L519.52,147.46L519.85,162.27L519.86,165.34L520.16,178.29L520.38,141.54L520.55,155.31L520.56,152.9L521,169.62L521.1,150.16L521.24,160.17L521.25,164.69L521.7,172.03L521.78,140.48L521.91,150.78L521.93,150.26L522.1,142.58L522.16,176.54L522.4,148.8L522.42,145.91L522.48,164.65L523.03,151.55L523.04,149.5L523.37,171.38L523.44,152.82L523.45,151.23L523.48,146.2L523.57,170.14L524.11,162.83L524.12,164.16L524.32,169.16L524.75,146.72L524.89,161.24L524.9,163.34L525,145.86L525.1,177.31L525.66,166.66L525.67,163.79L525.85,167.05L526.24,146.37L526.43,156.29L526.44,159.02L526.62,189.1L526.7,149.43L527.18,156.16L527.19,157.72L527.37,152.01L527.41,167.06L527.55,155.76L527.56,152.74L528.14,178.94L528.22,140.8L528.23,139.1L528.24,138.57L528.3,174.17L528.54,157.9L528.55,162.07L528.77,170.06L528.89,148.69L529.28,164.27L529.29,158.43L529.43,169.91L529.6,146.61L530.04,156.88L530.05,154.23L530.29,177.8L530.39,145.8L530.79,154.35L530.8,156.58L530.86,140.5L531,170.51L531.27,164.82L531.28,164.53L531.5,181.51L531.9,138.58L531.98,180.3L531.99,183.89L532,184.32L532.06,156.91L532.07,151.27L532.09,146.4L532.25,179.06L532.81,154.72L532.82,153.17L533,175.9L533.4,142.35L533.46,163.44L533.47,171.34L533.86,142.85L533.98,180.43L534.2,159.19L534.21,162.59L534.48,179.29L534.84,141.19L534.85,139.02L535,177.77L535.6,159.15L535.61,151.41L535.73,174.51L536.14,138.47L536.37,141.47L536.38,139.8L536.39,139.45L536.46,161.67L536.47,166.16L536.51,175.89L536.64,144.49L537.17,148.31L537.18,147.1L537.26,174.42L537.38,146.62L537.88,153.11L537.89,151.94L537.92,147.62L538.26,171.73L538.57,162.51L538.58,165.58L538.67,142.66L538.78,172.54L539.23,163.36L539.24,167.89L539.28,173.08L539.66,146.45L539.94,152.51L539.96,154.48L540.28,167.11L540.67,150.7L540.7,152.65L540.71,154.21L540.8,164.69L541.19,150.79L541.42,157.42L541.44,157.35L541.57,166.73L541.63,153.95L542.08,162.73L542.09,165.11L542.1,166.18L542.14,151.34L542.83,165.74L542.84,164.41L543.02,146.61L543.57,168.21L543.58,167.27L544.22,150.06L544.35,162.15L544.36,165.36L544.38,167.4L544.72,151.33L544.99,152.85L545,149.11L545.01,148.8L545.08,165.12L545.37,159.73L545.39,161.1L545.68,168.65L545.77,151.65L545.91,161.88L545.92,164.22L545.95,169.04L546.28,146.94L546.65,159.99L546.66,159.63L546.92,169.51L546.98,151.28L547.2,162.32L547.21,163.32L547.29,149.33L547.38,169.13L547.53,159.26L547.54,151.94L547.57,140.8L548.26,169.95L548.27,171.76L548.28,172.39L548.48,146.17L548.66,150.85L548.67,149.54L548.76,176.32L548.88,139.83L549.4,152.75L549.41,151.26L549.45,144.08L549.54,178.92L549.77,176.67L549.78,179.65L550.14,140.95L550.55,150.81L550.56,163.59L550.59,192.42L550.85,106.96L551.3,164.89L551.32,173.28L551.33,173.77L551.39,151.56L551.4,138.76L551.61,191.37L551.86,134.65L551.89,169.04L551.9,174.7L552.42,239.07L552.46,79.94L552.61,192.61L552.62,216.22L552.67,100.02L553.06,169.5L553.07,179.48L553.19,224.01L553.23,63.73L553.77,160.75L553.79,156.59L553.86,191.57L554.21,105.85L554.38,170.49L554.39,179.78L555.1,209.55L555.14,111.14L555.16,141.48L555.17,159.12L555.34,198.13L555.38,114.3L555.92,171.13L555.93,155.24L556.03,195.92L556.08,122.24L556.68,141.47L556.69,138.63L557.14,180L557.18,130.93L557.46,172.64L557.47,166.54L557.66,189.36L558.07,133.32L558.2,173.14L558.21,177.98L558.34,135.32L558.65,182.24L558.91,160.76L558.92,174.98L559.07,143.18L559.17,178.44L559.55,151.38L559.56,141.78L559.93,182.63L560.28,131L560.29,134.8L560.3,149.52L560.54,141.46L560.92,173.55L561.04,144.21L561.05,141.77L561.07,130.94L561.12,177.26L561.76,162.82L561.77,167.49L561.9,170.08L562.24,142.22L562.53,156.89L562.54,162.76L562.73,142.12L562.81,180.73L563.28,161.2L563.29,162.16L563.61,176.04L563.91,142.47L563.98,175.5L563.99,178.45L564.03,129.68L564.73,148.17L564.74,156.42L564.93,148.62L565.25,175.13L565.51,171.2L565.52,173.23L566,177.29L566.17,139.74L566.27,168.34L566.28,168.45L566.58,172.43L566.9,143.79L567.05,159.74L567.06,160.27L567.17,137.31L567.72,175.58L567.81,162.56L567.82,162.39L567.91,142.91L568.34,177.62L568.49,151.72L568.5,147.9L568.56,143.63L568.65,174.62L568.66,179.23L569.04,142.31L569.41,171.65L569.42,167.49L569.55,145.64L570.16,166.69L570.17,169.95L570.7,174.36L570.79,146.99L570.84,154.41L570.85,152.11L571.36,139.55L571.52,179.3L571.59,147.51L571.6,152.69L571.86,143.47L572.32,178.49L572.34,152.53L572.35,143.63L572.82,183.89L573.05,151.14L573.06,146.57L573.24,139.4L573.64,178.49L573.8,150.2L573.81,153L574,139.87L574.15,168.42L574.56,158.83L574.57,155L575.06,168.81L575.2,145.51L575.3,162.81L575.31,160.05L575.44,140.39L575.82,169.59L575.97,160.27L575.98,156.06L576.46,140.47L576.57,168.05L576.61,164.19L576.62,166.43L576.81,173.03L577.22,143.62L577.28,151.96L577.29,142.97L577.97,172.21L578.02,157.14L578.03,155.65L578.2,169.61L578.62,148.06L578.7,165.18L578.71,167.24L578.89,147.9L579.03,170.13L579.05,157.48L579.06,150.3L579.07,149.53L579.27,172.82L579.68,154.63L579.69,159.67L580.17,145.82L580.29,169.54L580.44,163.86L580.46,159.98L580.62,171.03L581.23,143.8L581.24,144.7L581.96,176.57L581.98,152.99L581.99,147.09L582.06,146.09L582.51,172.56L582.73,151.93L582.74,150.04L582.78,175.64L583.11,145.62L583.48,157.77L583.49,152.64L583.71,137.84L583.8,174.96L584.24,165.55L584.25,161.77L584.35,170.45L584.54,141.68L584.99,160.29L585,161.98L585.23,171.75L585.34,142.26L585.67,154.85L585.68,160.89L585.85,146.77L585.93,173.19L586.44,167.32L586.45,164.78L587.04,167.13L587.19,145.41L587.21,155.04L587.22,160.62L587.64,147.25L587.79,168.57L587.94,151.6L587.95,151.55L588.44,144.38L588.66,170.91L588.72,163.29L588.73,158.6L589,138.93L589.39,178.56L589.46,168.09L589.47,164.32L589.63,174.46L589.78,140.09L590.22,161.58L590.23,163.11L590.41,174.27L590.55,141.56L590.79,152.15L590.8,146.58L590.94,167.58L591.34,139.92L591.5,156.97L591.51,151.33L591.52,148.6L592.08,171.74L592.22,158.36L592.23,163.4L592.28,147.57L592.61,169.24L592.96,157.41L592.97,155.03L593.09,170.26L593.47,147.25L593.71,156.03L593.72,157.93L593.88,164.51L594.01,152.01L594.05,162.31L594.06,164.65L594.24,167.31L594.54,147.71L594.87,153.19L594.88,155.81L594.91,173.37L595.33,150.78L595.64,166.85L595.65,164.57L595.83,144.57L596.19,170.87L596.41,158.66L596.42,162.36L596.57,169.99L596.68,147.95L597.01,156.06L597.02,152.91L597.16,140.23L597.27,171.46L597.71,157.83L597.72,161.73L598.18,146.38L598.41,166.63L598.43,159.65L598.44,156.85L598.83,143.36L599.18,169.21L599.2,162.2L599.22,157.74L599.37,147.36L599.86,167L599.94,157.16L599.96,160.75L600.16,149.84L600.26,169.5L600.65,151.9L600.66,149.78L600.67,148.48L600.84,169.55L601.29,164.07L601.3,167.56L601.32,172.87L601.67,138.24L602.04,166.08L602.05,167.11L602.08,169.88L602.28,152.73L602.43,155.85L602.44,154.02L602.49,143.47L602.54,160.06L602.57,159.26L602.58,164.77L602.76,142.87L603.14,170.92L603.31,156.45L603.32,154.71L603.43,172.64L603.79,145.54L604.04,157.5L604.05,159.5L604.16,171.41L604.57,149.49L604.69,169.57L604.7,170.59L604.86,149.32L605.19,162.28L605.2,167.59L605.64,144.92L605.77,169.83L605.84,153.33L605.85,149.07L606.02,171.44L606.4,144.04L606.51,167.35L606.52,169.4L606.95,147.84L606.99,160.96L607,163.41L607.17,143.25L607.32,167.47L607.39,166.28L607.4,166.43L607.47,146.41L607.52,170.38L608.05,159.2L608.06,162.18L608.09,169.58L608.47,145.73L608.79,158.52L608.8,157.91L609.07,150.53L609.21,166.43L609.26,155.56L609.27,154.15L609.67,169.65L609.86,145.9L609.94,162.91L609.95,170.2L610.21,174.59L610.62,141.1L610.67,159.35L610.68,160.37L610.74,172.98L610.88,150.55L611.24,161.24L611.25,163.66L611.42,147.68L611.75,167.81L611.91,153.58L611.92,149.27L611.93,147.94L612.28,167.01L612.56,161.79L612.57,164.62L612.67,166.74L612.95,150.11L613.24,155.47L613.25,153.39L613.53,167.61L613.77,148.15L613.91,156.11L613.92,158.27L614.11,146.66L614.38,170.12L614.43,169.86L614.44,171.76L614.95,148.64L615.22,159.7L615.23,161.96L615.5,166.36L615.89,153.12L615.91,153.17L615.92,149.93L615.93,148.28L616.03,165.74L616.6,158.14L616.61,161.14L616.8,152.82L617.02,164.71L617.31,155.7L617.32,153.12L617.57,151.68L617.9,166.36L617.97,164.55L617.99,166.77L618.09,149.79L618.6,157.87L618.61,160.84L618.63,164.32L618.92,147.91L619.34,156.18L619.35,158.01L619.39,153.34L619.49,169.64L620.08,156.75L620.09,154.42L620.48,173.42L620.69,146.45L620.86,148.14L620.87,149.93L621.4,171.86L621.52,140.31L621.58,152.56L621.59,143.79L621.6,139.84L621.85,178.42L622.31,154.42L622.32,160.1L622.59,146.29L622.7,175.05L623.07,161.83L623.08,157.94L623.7,146.88L623.77,171.23L623.83,155.46L623.84,159.01L624.35,188.62L624.39,131.98L624.55,155.3L624.56,147.23L624.91,247.68L624.95,34.95L624.98,223.2L624.99,255.4L625.16,85.42L625.74,211.27L625.75,247.88L625.8,96.33L626.45,179.26L626.46,186.73L626.68,121.16L626.97,191.48L627.18,165.09L627.19,185.29L627.2,186.08L627.23,129.35L627.24,129.19L627.68,226.62L627.72,106.07L628,157.92L628.01,162.51L628.13,237.87L628.17,104.47L628.71,163.45L628.72,151.22L628.84,188.46L628.98,130.99L629.46,148.09L629.47,154.34L629.51,139.99L629.78,184.7L630.04,152.89L630.05,151.94L630.27,125.67L630.6,196.87L630.76,154.75L630.77,173.01L631.09,189.04L631.37,130.31L631.49,159.47L631.5,156.58L631.66,185.86L632.19,130.37L632.2,147.11L632.21,171.68L632.23,191.73L632.85,128.41L632.95,157.26L632.96,156.84L633.12,143.73L633.41,176.81L633.43,159.94L633.44,146.78L633.84,174.2L633.99,134.72L634.04,167.1L634.05,175.42L634.18,176.04L634.23,139.54L634.86,143L634.87,148.09L635.26,179.87L635.35,135.05L635.62,152.73L635.63,156.29L635.66,182.02L636.35,139.11L636.38,159.4L636.39,164.61L636.44,191.87L636.49,130.85L637.13,160.32L637.14,167.23L637.34,137.49L637.72,185.66L637.8,146.68L637.81,138.22L637.83,132.35L638.19,178.53L638.55,143.3L638.56,152.57L638.69,182.04L639.03,130.71L639.32,163.93L639.33,165.3L639.42,177.42L639.57,129.52L639.89,172.43L639.9,174.59L640.02,140.22L640.43,179.53L640.65,172.87L640.66,175.95L640.79,131.94L641.38,180.08L641.4,170.98L641.41,167.33L641.5,135.9L642.09,179.74L642.12,160.89L642.13,152.88L642.52,136.13L642.62,186.23L642.82,158.21L642.83,170.52L642.85,187.48L643.5,138.66L643.58,176.2L643.59,178.29L644.26,139.18L644.35,168.04L644.36,172.97L644.39,177.57L644.53,145.41L644.97,152.39L644.98,148.61L645.45,139.07L645.57,180.66L645.73,144.17L645.74,149.5L645.85,177.12L646.19,142.9L646.47,153.99L646.48,143.9L646.97,136.46L647.08,186.11L647.19,161.13L647.2,159.55L647.33,179.81L647.69,137.63L647.93,158.72L647.94,160.26L648.04,171.35L648.48,131.36L648.69,162.77L648.7,156.7L648.74,138.13L648.82,174.56L649.43,166.87L649.44,163.28L649.93,135.66L650.09,174.13L650.23,149.27L650.24,156.37L650.39,176.87L650.91,142.9L650.97,152.03L650.98,149.55L651.14,146.45L651.3,173.39L651.74,159.23L651.75,155.69L651.82,170.03L651.87,140.2L651.9,167.32L651.91,173.35L652.4,175.37L652.64,145.37L652.67,154.08L652.68,159.45L653.07,176.87L653.12,145.63L653.41,149.49L653.42,152.5L653.58,149.24L654.05,171.64L654.15,150.5L654.16,148.72L654.34,167.09L654.67,138.35L654.69,156.9L654.7,166.54L654.98,173.01L655.3,141.47L655.43,158.25L655.44,155.48L655.67,145.26L655.78,173.16L656.16,166.06L656.17,157.36L656.73,177.71L656.88,133.43L656.91,147.05L656.92,157.68L657.06,148.3L657.2,170.98L657.65,150.81L657.66,147.24L657.73,167.16L657.85,144.7L657.88,161.93L657.89,169.39L658.28,144.7L658.33,173.96L658.54,155.02L658.55,153.13L658.66,146.65L659.15,167.27L659.29,156.88L659.3,157.02L659.61,175.52L659.77,147.33L660.01,163.76L660.02,167.45L660.31,144.35L660.67,171.61L660.69,160.16L660.71,153.87L660.73,141.46L661.19,171.22L661.45,160.88L661.46,155.56L661.56,142.78L661.75,173.69L662.21,147.89L662.22,154.58L662.39,169.03L662.45,139.54L663.02,163.88L663.03,164.2L663.27,145.97L663.75,177.03L663.77,172.01L663.78,163.52L663.81,136.21L664.5,169.98L664.53,149.7L664.54,150.67L664.7,172.66L664.77,146.56L665.31,166.02L665.32,171.71L665.33,172.37L665.68,150.92L665.8,157.08L665.81,153.54L665.9,145.99L666.15,171.7L666.46,161.58L666.47,163.37L666.62,167.65L666.67,142.73L666.78,162.02L666.79,163.67L666.82,171.44L667,148.81" style="vector-effect: non-scaling-stroke; fill: none; stroke: rgb(31, 119, 180); stroke-opacity: 1; stroke-width: 2px; opacity: 1;"/></g><g class="points"/><g class="text"/></g></g></g><g class="overplot"/><path class="xlines-above crisp" d="" style="fill: none; stroke-width: 1px; stroke: rgb(0, 0, 0); stroke-opacity: 0;"/><path class="ylines-above crisp" d="" style="fill: none; stroke-width: 1px; stroke: rgb(0, 0, 0); stroke-opacity: 0;"/><g class="overlines-above"/><g class="xaxislayer-above"><path class="xtick ticks crisp" d="M0,421v5" transform="translate(80,0)" style="stroke: rgb(51, 51, 51); stroke-opacity: 1; stroke-width: 1px;"/><path class="xtick ticks crisp" d="M0,421v5" transform="translate(163.38,0)" style="stroke: rgb(51, 51, 51); stroke-opacity: 1; stroke-width: 1px;"/><path class="xtick ticks crisp" d="M0,421v5" transform="translate(246.75,0)" style="stroke: rgb(51, 51, 51); stroke-opacity: 1; stroke-width: 1px;"/><path class="xtick ticks crisp" d="M0,421v5" transform="translate(330.13,0)" style="stroke: rgb(51, 51, 51); stroke-opacity: 1; stroke-width: 1px;"/><path class="xtick ticks crisp" d="M0,421v5" transform="translate(413.51,0)" style="stroke: rgb(51, 51, 51); stroke-opacity: 1; stroke-width: 1px;"/><path class="xtick ticks crisp" d="M0,421v5" transform="translate(496.88,0)" style="stroke: rgb(51, 51, 51); stroke-opacity: 1; stroke-width: 1px;"/><path class="xtick ticks crisp" d="M0,421v5" transform="translate(580.26,0)" style="stroke: rgb(51, 51, 51); stroke-opacity: 1; stroke-width: 1px;"/><path class="xtick ticks crisp" d="M0,421v5" transform="translate(663.63,0)" style="stroke: rgb(51, 51, 51); stroke-opacity: 1; stroke-width: 1px;"/><path class="xtick ticks crisp" d="M0,421v5" transform="translate(747.01,0)" style="stroke: rgb(51, 51, 51); stroke-opacity: 1; stroke-width: 1px;"/><g class="xtick"><text text-anchor="middle" x="0" y="446.4" transform="translate(80,0)" style="font-family: 'Open Sans', verdana, arial, sans-serif; font-size: 17px; fill: rgb(51, 51, 51); fill-opacity: 1; white-space: pre;">0</text></g><g class="xtick"><text text-anchor="middle" x="0" y="446.4" transform="translate(163.38,0)" style="font-family: 'Open Sans', verdana, arial, sans-serif; font-size: 17px; fill: rgb(51, 51, 51); fill-opacity: 1; white-space: pre;">500</text></g><g class="xtick"><text text-anchor="middle" x="0" y="446.4" transform="translate(246.75,0)" style="font-family: 'Open Sans', verdana, arial, sans-serif; font-size: 17px; fill: rgb(51, 51, 51); fill-opacity: 1; white-space: pre;">1000</text></g><g class="xtick"><text text-anchor="middle" x="0" y="446.4" transform="translate(330.13,0)" style="font-family: 'Open Sans', verdana, arial, sans-serif; font-size: 17px; fill: rgb(51, 51, 51); fill-opacity: 1; white-space: pre;">1500</text></g><g class="xtick"><text text-anchor="middle" x="0" y="446.4" transform="translate(413.51,0)" style="font-family: 'Open Sans', verdana, arial, sans-serif; font-size: 17px; fill: rgb(51, 51, 51); fill-opacity: 1; white-space: pre;">2000</text></g><g class="xtick"><text text-anchor="middle" x="0" y="446.4" transform="translate(496.88,0)" style="font-family: 'Open Sans', verdana, arial, sans-serif; font-size: 17px; fill: rgb(51, 51, 51); fill-opacity: 1; white-space: pre;">2500</text></g><g class="xtick"><text text-anchor="middle" x="0" y="446.4" transform="translate(580.26,0)" style="font-family: 'Open Sans', verdana, arial, sans-serif; font-size: 17px; fill: rgb(51, 51, 51); fill-opacity: 1; white-space: pre;">3000</text></g><g class="xtick"><text text-anchor="middle" x="0" y="446.4" transform="translate(663.63,0)" style="font-family: 'Open Sans', verdana, arial, sans-serif; font-size: 17px; fill: rgb(51, 51, 51); fill-opacity: 1; white-space: pre;">3500</text></g><g class="xtick"><text text-anchor="middle" x="0" y="446.4" transform="translate(747.01,0)" style="font-family: 'Open Sans', verdana, arial, sans-serif; font-size: 17px; fill: rgb(51, 51, 51); fill-opacity: 1; white-space: pre;">4000</text></g></g><g class="yaxislayer-above"><path class="ytick ticks crisp" d="M79,0h-5" transform="translate(0,375.2)" style="stroke: rgb(51, 51, 51); stroke-opacity: 1; stroke-width: 1px;"/><path class="ytick ticks crisp" d="M79,0h-5" transform="translate(0,317.59000000000003)" style="stroke: rgb(51, 51, 51); stroke-opacity: 1; stroke-width: 1px;"/><path class="ytick ticks crisp" d="M79,0h-5" transform="translate(0,259.99)" style="stroke: rgb(51, 51, 51); stroke-opacity: 1; stroke-width: 1px;"/><path class="ytick ticks crisp" d="M79,0h-5" transform="translate(0,202.39)" style="stroke: rgb(51, 51, 51); stroke-opacity: 1; stroke-width: 1px;"/><path class="ytick ticks crisp" d="M79,0h-5" transform="translate(0,144.78)" style="stroke: rgb(51, 51, 51); stroke-opacity: 1; stroke-width: 1px;"/><g class="ytick"><text text-anchor="end" x="70.6" y="5.949999999999999" transform="translate(0,375.2)" style="font-family: 'Open Sans', verdana, arial, sans-serif; font-size: 17px; fill: rgb(51, 51, 51); fill-opacity: 1; white-space: pre;">0.4</text></g><g class="ytick"><text text-anchor="end" x="70.6" y="5.949999999999999" transform="translate(0,317.59000000000003)" style="font-family: 'Open Sans', verdana, arial, sans-serif; font-size: 17px; fill: rgb(51, 51, 51); fill-opacity: 1; white-space: pre;">0.2</text></g><g class="ytick"><text text-anchor="end" x="70.6" y="5.949999999999999" transform="translate(0,259.99)" style="font-family: 'Open Sans', verdana, arial, sans-serif; font-size: 17px; fill: rgb(51, 51, 51); fill-opacity: 1; white-space: pre;">0</text></g><g class="ytick"><text text-anchor="end" x="70.6" y="5.949999999999999" transform="translate(0,202.39)" style="font-family: 'Open Sans', verdana, arial, sans-serif; font-size: 17px; fill: rgb(51, 51, 51); fill-opacity: 1; white-space: pre;">0.2</text></g><g class="ytick"><text text-anchor="end" x="70.6" y="5.949999999999999" transform="translate(0,144.78)" style="font-family: 'Open Sans', verdana, arial, sans-serif; font-size: 17px; fill: rgb(51, 51, 51); fill-opacity: 1; white-space: pre;">0.4</text></g></g><g class="overaxes-above"/></g></g><g class="polarlayer"/><g class="ternarylayer"/><g class="geolayer"/><g class="pielayer"/><g class="sunburstlayer"/><g class="glimages"/><defs id="topdefs-a7f1d9"><g class="clips"/><clipPath id="legenda7f1d9"><rect width="208" height="36" x="0" y="0"/></clipPath></defs><g class="layer-above"><g class="imagelayer"/><g class="shapelayer"/></g><g class="infolayer"><g class="legend" pointer-events="all" transform="translate(760.34, 100)"><rect class="bg" shape-rendering="crispEdges" style="stroke: rgb(68, 68, 68); stroke-opacity: 1; fill: rgb(255, 255, 255); fill-opacity: 1; stroke-width: 0px;" width="208" height="36" x="0" y="0"/><g class="scrollbox" transform="translate(0, 0)" clip-path="url('#legenda7f1d9')"><g class="groups" transform="translate(0, 0)"><g class="traces" transform="translate(0, 17.55)" style="opacity: 1;"><text class="legendtext user-select-none" text-anchor="start" x="40" y="6.63" style="font-family: 'Open Sans', verdana, arial, sans-serif; font-size: 17px; fill: rgb(51, 51, 51); fill-opacity: 1; white-space: pre;">class=air_conditioner</text><g class="layers" style="opacity: 1;"><g class="legendfill"/><g class="legendlines"><path class="js-line" d="M5,0h30" style="fill: none; stroke: rgb(31, 119, 180); stroke-opacity: 1; stroke-width: 2px;"/></g><g class="legendsymbols"><g class="legendpoints"/></g></g><rect class="legendtoggle" pointer-events="all" x="0" y="-12.55" width="248" height="25.1" style="cursor: pointer; fill: rgb(0, 0, 0); fill-opacity: 0;"/></g></g></g><rect class="scrollbar" rx="20" ry="3" width="0" height="0" style="fill: rgb(128, 139, 164); fill-opacity: 1;" x="0" y="0"/></g><g class="g-gtitle"><text class="gtitle" x="490" y="50" text-anchor="middle" dy="0em" style="font-family: 'Open Sans', verdana, arial, sans-serif; font-size: 24px; fill: rgb(51, 51, 51); opacity: 1; font-weight: normal; white-space: pre;">audio wave (time vs amplitude)</text></g><g class="g-xtitle"><text class="xtitle" x="413.5" y="490" text-anchor="middle" style="font-family: 'Open Sans', verdana, arial, sans-serif; font-size: 20px; fill: rgb(51, 51, 51); opacity: 1; font-weight: normal; white-space: pre;">time(ms)</text></g><g class="g-ytitle"><text class="ytitle" transform="rotate(-90,30,260)" x="30" y="260" text-anchor="middle" style="font-family: 'Open Sans', verdana, arial, sans-serif; font-size: 20px; fill: rgb(51, 51, 51); opacity: 1; font-weight: normal; white-space: pre;">amplitude</text></g></g></svg>