<svg class="main-svg" xmlns="http://www.w3.org/2000/svg" xmlns:xlink="http://www.w3.org/1999/xlink" width="980" height="500" viewBox="0 0 980 500"><rect x="0" y="0" width="980" height="500" style="fill: rgb(255, 255, 255); fill-opacity: 1;"/><defs id="defs-fa3e95"><g class="clips"><clipPath id="clipfa3e95xyplot" class="plotclip"><rect width="656" height="320"/></clipPath><clipPath class="axesclip" id="clipfa3e95x"><rect x="80" y="0" width="656" height="500"/></clipPath><clipPath class="axesclip" id="clipfa3e95y"><rect x="0" y="100" width="980" height="320"/></clipPath><clipPath class="axesclip" id="clipfa3e95xy"><rect x="80" y="100" width="656" height="320"/></clipPath></g><g class="gradients"/></defs><g class="bglayer"><rect class="bg" x="80" y="100" width="656" height="320" style="fill: rgb(237, 237, 237); fill-opacity: 1; stroke-width: 0;"/></g><g class="layer-below"><g class="imagelayer"/><g class="shapelayer"/></g><g class="cartesianlayer"><g class="subplot xy"><g class="layer-subplot"><g class="shapelayer"/><g class="imagelayer"/></g><g class="gridlayer"><g class="x"><path class="xgrid crisp" transform="translate(162,0)" d="M0,100v320" style="stroke: rgb(255, 255, 255); stroke-opacity: 1; stroke-width: 1px;"/><path class="xgrid crisp" transform="translate(244,0)" d="M0,100v320" style="stroke: rgb(255, 255, 255); stroke-opacity: 1; stroke-width: 1px;"/><path class="xgrid crisp" transform="translate(326,0)" d="M0,100v320" style="stroke: rgb(255, 255, 255); stroke-opacity: 1; stroke-width: 1px;"/><path class="xgrid crisp" transform="translate(408.01,0)" d="M0,100v320" style="stroke: rgb(255, 255, 255); stroke-opacity: 1; stroke-width: 1px;"/><path class="xgrid crisp" transform="translate(490.01,0)" d="M0,100v320" style="stroke: rgb(255, 255, 255); stroke-opacity: 1; stroke-width: 1px;"/><path class="xgrid crisp" transform="translate(572.01,0)" d="M0,100v320" style="stroke: rgb(255, 255, 255); stroke-opacity: 1; stroke-width: 1px;"/><path class="xgrid crisp" transform="translate(654.01,0)" d="M0,100v320" style="stroke: rgb(255, 255, 255); stroke-opacity: 1; stroke-width: 1px;"/></g><g class="y"><path class="ygrid crisp" transform="translate(0,375.2)" d="M80,0h656" style="stroke: rgb(255, 255, 255); stroke-opacity: 1; stroke-width: 1px;"/><path class="ygrid crisp" transform="translate(0,317.59000000000003)" d="M80,0h656" style="stroke: rgb(255, 255, 255); stroke-opacity: 1; stroke-width: 1px;"/><path class="ygrid crisp" transform="translate(0,202.38)" d="M80,0h656" style="stroke: rgb(255, 255, 255); stroke-opacity: 1; stroke-width: 1px;"/><path class="ygrid crisp" transform="translate(0,144.77)" d="M80,0h656" style="stroke: rgb(255, 255, 255); stroke-opacity: 1; stroke-width: 1px;"/></g></g><g class="zerolinelayer"><path class="xzl zl crisp" transform="translate(80,0)" d="M0,100v320" style="stroke: rgb(255, 255, 255); stroke-opacity: 1; stroke-width: 1px;"/><path class="yzl zl crisp" transform="translate(0,259.98)" d="M80,0h656" style="stroke: rgb(255, 255, 255); stroke-opacity: 1; stroke-width: 1px;"/></g><path class="xlines-below"/><path class="ylines-below"/><g class="overlines-below"/><g class="xaxislayer-below"/><g class="yaxislayer-below"/><g class="overaxes-below"/><g class="plot" transform="translate(80, 100)" clip-path="url('#clipfa3e95xyplot')"><g class="scatterlayer mlayer"><g class="trace scatter trace5d35664a-2131-4e98-855d-c23705ffbada" style="stroke-miterlimit: 2; opacity: 1;"><g class="fills"/><g class="errorbars"/><g class="lines"><path class="js-line" d="M0,180.7L0.03,186.62L0.29,162.8L0.73,174.45L0.74,174.14L0.94,166.82L1.16,180.19L1.46,176.61L1.47,180.08L1.69,166.49L2.05,182.49L2.1,170.48L2.11,168.37L2.18,164.19L2.56,182.44L2.9,176.4L2.91,173.68L2.94,169.79L3.37,180L3.61,176.78L3.62,178.51L3.66,181.74L3.75,167.23L4.34,175.41L4.35,177.77L4.39,169.62L4.67,181.16L4.68,181.81L5.06,167.69L5.42,177.94L5.43,180.79L5.46,185.37L5.55,166.31L6.14,173.86L6.15,168.22L6.16,165.84L6.79,181.14L6.88,170.26L6.89,171.36L6.98,185.79L7.19,165.57L7.57,172.29L7.59,172.28L7.78,166.52L8.1,180.59L8.37,179.76L8.38,176.8L8.75,181.02L8.83,166.54L9.13,174.12L9.14,174.98L9.33,163.75L9.44,182.41L9.89,176.53L9.9,176.09L10.16,168.39L10.25,183.53L10.69,172.61L10.7,172.38L11,179.94L11.22,160.33L11.43,173.98L11.44,174.19L11.51,179.87L11.88,164.91L12.2,170.06L12.21,170.93L12.46,180.71L12.87,168.93L13,177.69L13.01,174.49L13.55,179.3L13.63,161.9L13.77,171.6L13.78,172.7L14.25,185.07L14.47,166.05L14.51,172.51L14.52,175.9L14.53,179.78L15.11,163.66L15.25,169.91L15.26,170.43L15.61,164.92L15.7,184.77L16.04,176.46L16.05,171.79L16.43,182.58L16.74,165.89L16.81,168.26L16.82,168.99L16.89,175.25L17.25,158.99L17.32,170.58L17.33,173.2L17.54,163.61L17.99,185.56L18.06,175.9L18.07,172.52L18.14,188.09L18.61,163.2L18.79,175.7L18.8,177.9L18.87,156.63L18.98,179.54L19.35,163.5L19.36,163.14L19.45,189.22L19.8,175.48L19.81,168.89L20.43,185.03L20.47,160.51L20.52,173.45L20.53,179.19L21.03,183.23L21.14,154.51L21.32,168.28L21.33,170.06L21.63,167.32L21.69,184.84L22.11,179.5L22.12,172.36L22.34,184.85L22.71,163.22L22.87,170.81L22.88,174.65L23.23,184.3L23.37,162.01L23.64,181.21L23.65,180.27L23.75,191.41L24.01,156.6L24.27,175.7L24.28,178.56L24.39,192.77L24.44,154.85L24.64,160.3L24.65,155.3L25.03,189.35L25.3,154.52L25.4,168.03L25.41,168.5L25.62,161.81L25.67,184.78L26.11,164.67L26.12,164.56L26.67,163.25L26.72,184.03L26.88,170.22L26.89,169.61L27.08,166.59L27.34,190.56L27.39,170.89L27.4,168.12L27.56,182.28L27.94,164.16L28.16,176.23L28.17,173.42L28.34,180.67L28.4,161.98L28.88,173.9L28.9,178.92L29.35,167.55L29.6,184.41L29.64,178.74L29.65,170.93L29.9,181.78L30.29,162.74L30.37,173.57L30.38,175.9L30.8,165.67L30.85,182.74L31.07,173.14L31.08,172.28L31.29,165.28L31.33,180.72L31.47,176.63L31.48,183.07L31.86,164.55L32.21,171.26L32.22,172.32L32.51,165.3L32.88,181.43L32.94,176.4L32.95,178.32L33.09,181.92L33.62,166.85L33.67,180.09L33.68,181.17L33.71,181.47L33.79,162.23L34.32,173.93L34.33,175.44L34.86,179.31L34.9,168.54L35.05,177.22L35.06,177.64L35.38,165.79L35.51,180.88L35.7,170.42L35.71,169.14L36.04,164.4L36.14,180.66L36.35,170.21L36.36,169.86L36.4,183.95L36.68,167.1L37.09,174.28L37.1,172.25L37.24,179.53L37.61,169.31L37.86,174.91L37.87,174.27L37.99,175.53L38.09,166L38.13,174.28L38.14,177.6L38.22,166.98L38.8,182.58L38.84,171.63L38.85,170.75L38.89,180.71L38.94,168.02L39.33,172.64L39.34,169.39L39.55,177.19L39.89,164.56L40,172.66L40.01,174.66L40.1,175.95L40.13,166.78L40.23,175.35L40.24,178.56L40.3,168.88L40.88,182.66L40.98,178.3L40.99,177.52L41.14,181.2L41.6,167.51L41.69,175.87L41.7,172.75L41.97,180.36L42.07,167.1L42.43,177.02L42.44,179.54L43.03,164.7L43.22,171.85L43.24,172.91L43.74,183.13L43.96,171.61L43.99,173.83L44,174.49L44.22,177.82L44.59,166.1L44.72,170.06L44.73,170.59L44.81,167.68L45.18,184.73L45.52,175.73L45.53,174.31L45.87,168.22L46,179.8L46.29,170.76L46.3,172.6L46.59,166.87L46.65,179.56L47.05,173.96L47.06,171.45L47.35,165.71L47.62,179.84L47.77,179.06L47.78,181.45L47.88,168L47.94,182.91L48.36,174.61L48.37,172.29L48.9,180.99L49.02,165.85L49.06,176.93L49.07,178.22L49.16,166.61L49.65,180.06L49.73,172.88L49.74,171.54L50.18,183.25L50.35,168.02L50.52,175.07L50.53,172.47L50.94,179.1L51,163.66L51.22,174.05L51.23,178.82L51.39,166.46L51.89,181.98L51.93,175.13L51.94,173.78L52.1,186.2L52.47,166.98L52.6,175.09L52.61,173.01L52.8,168.21L53.31,177.65L53.33,176.13L53.34,175.5L53.79,184.13L53.85,167.17L54,179.88L54.01,182.79L54.07,164.35L54.62,172.99L54.63,174.35L54.73,166.04L54.78,181.6L55.37,174.79L55.38,172.97L55.66,180.85L55.91,165.36L56.08,170.8L56.09,169.13L56.41,163.4L56.69,178.69L56.78,171.7L56.79,176.55L57.08,168.11L57.45,182.99L57.52,169.12L57.53,169.81L57.99,178.47L58.1,167.35L58.28,172.84L58.29,171.01L58.44,166.62L58.53,179.2L59.01,174.59L59.02,175.13L59.07,180.41L59.53,170.85L59.67,172.69L59.68,172.13L59.79,167.42L60.24,181.14L60.39,174.64L60.4,175.94L60.63,166.66L60.9,176.07L61.02,173.44L61.03,176.03L61.3,167.89L61.53,179.5L61.75,172.22L61.76,171.75L62,177.77L62.05,167.8L62.52,175.23L62.53,173.1L62.82,181.02L63.2,168.11L63.29,169.69L63.3,171.49L63.86,166.59L63.97,177.5L64.07,175.44L64.08,175.61L64.22,168.1L64.28,184.34L64.82,178.08L64.83,175.34L64.99,166.85L65.22,180.42L65.55,178.4L65.56,180.45L65.58,183.69L65.86,163.89L66.29,177.09L66.3,178.06L66.61,168.81L66.67,178.37L67,176L67.01,179.69L67.09,166.18L67.69,181.38L67.72,176.73L67.73,173.24L68.21,188.23L68.5,163.33L68.51,165.64L68.55,192.12L68.95,159.77L69.26,170.62L69.27,168.66L69.46,158.12L69.53,189.24L69.85,182.69L69.87,186.51L69.94,162.68L70.35,191.19L70.54,170.01L70.55,168.13L70.7,186.92L70.75,164.93L71.05,171.78L71.06,168.45L71.69,188.31L71.76,158.37L71.79,169.28L71.8,173.15L72.01,194.78L72.07,159.43L72.54,170.17L72.55,171.51L73.16,189.83L73.22,157.76L73.23,156.23L73.62,185.57L73.99,178.64L74,175.88L74.32,56.37L74.46,200.37L74.47,217.04L74.52,146.74L74.53,112.78L74.55,84.3L74.9,234.01L75.23,183.31L75.24,188.07L75.35,194.5L75.73,137.4L75.74,126.85L75.76,114.69L75.83,203.47L76.43,167.5L76.44,177.28L76.7,129.65L77.26,210.02L77.27,204.56L77.39,214L77.82,162.7L77.83,158.3L77.91,172.33L78.2,137.6L78.5,163.65L78.51,167.22L78.99,156.4L79.02,205.3L79.24,169.08L79.25,167.1L79.43,202.36L79.76,153.12L79.92,163.38L79.93,152.5L79.98,169.72L80.03,143.34L80.17,166.01L80.18,169.79L80.27,157.04L80.73,201.63L80.88,185.31L80.89,183.9L81.1,194.19L81.66,138.83L81.69,147.96L81.7,150.17L81.72,147.86L81.75,157.13L81.78,151.75L81.79,145.23L81.81,132.41L82.39,197.1L82.47,183.66L82.48,186.27L82.55,195.65L83.18,153.27L83.19,145.33L83.22,122.58L83.95,205.17L84.07,188.63L84.08,185.46L84.11,188.01L84.63,155.53L84.88,161.37L84.89,160.5L85.09,153.83L85.7,188.08L85.73,175.31L85.74,175.08L85.8,187.24L86.02,158.89L86.38,174.74L86.39,173.62L86.41,169.48L86.82,185.41L87.09,178.81L87.1,178.86L87.71,144.39L88,159.73L88.01,161.78L88.79,191.58L88.87,182.99L88.88,180.32L89.42,188.46L89.58,160.86L89.69,167.4L89.7,168.76L89.79,157.98L89.85,183.44L90.37,170.69L90.38,168.63L90.43,161.57L90.87,193.4L91,185.47L91.01,187.46L91.07,196.08L91.27,177.77L91.28,174.67L91.38,182.12L92.03,152.93L92.08,164.07L92.09,163.7L92.11,156.96L92.74,187.9L92.79,175.9L92.8,179.6L92.92,192.05L93.3,168.92L93.31,165.41L93.49,193.86L93.91,160.42L94.05,163.82L94.06,165.85L94.29,177.03L94.57,151.39L94.8,166.16L94.81,163.09L94.84,158.99L95.41,189.41L95.46,185.56L95.47,188.46L95.48,191.28L96.03,166.23L96.17,177.52L96.18,177.04L96.2,178.13L96.67,158.42L96.68,157.39L96.75,181.86L97.18,159.94L97.19,158.66L97.47,155.93L97.89,184.59L97.95,172.6L97.96,172.25L98,170.24L98.5,191.88L98.66,180.79L98.67,183.91L98.68,188.38L98.94,158.81L99.38,167L99.39,168.8L99.96,164.42L100.05,188.58L100.15,175.12L100.16,179.2L100.4,183.73L100.77,163.93L100.88,173.83L100.89,174.9L101.16,185.95L101.33,164.91L101.66,168.85L101.67,172.76L101.94,159.88L102.36,182.68L102.4,170.98L102.41,169.56L102.66,196.28L103.07,161.7L103.12,169.52L103.13,168.02L103.17,159.64L103.65,185.21L103.86,171.25L103.88,170.71L104.31,196.14L104.58,157.5L104.62,167.95L104.63,173.78L104.86,161.29L105.06,185.77L105.36,173.01L105.37,175.13L105.47,157.32L105.59,179L106.03,163.72L106.04,162.09L106.65,191.94L106.92,181.98L106.93,177.23L107.04,183.33L107.57,162.06L107.58,162.57L107.59,162.98L107.69,156.32L108.06,177.94L108.36,169.48L108.37,170.18L108.68,181.81L108.85,163.57L109.12,173.76L109.13,171.72L109.28,162.96L109.43,189.28L109.85,177.81L109.86,179L110.04,182.35L110.54,161L110.62,171.66L110.63,170.63L111.07,156.87L111.29,183.42L111.38,169.43L111.39,168.62L111.56,200.14L112.1,166.13L112.11,170.03L112.12,178.3L112.17,187.38L112.69,154.4L112.85,174.4L112.86,165.63L112.93,158.15L113.42,188.32L113.56,181.5L113.57,185.03L113.93,189.16L114.21,166.81L114.29,177.44L114.3,174.23L114.95,152.97L115.03,184.73L115.04,190.62L115.29,159.23L115.38,204.97L115.53,193.89L115.54,203.81L115.58,207.96L115.65,163L115.98,172.01L115.99,162.64L116.14,181.94L116.61,141.55L116.72,171.31L116.73,168.46L116.96,146.52L117.44,188.62L117.45,189.45L117.78,196.6L118.03,167.69L118.09,180.33L118.1,186.64L118.11,189.02L118.46,157.36L118.76,168.59L118.77,165.92L118.8,159.99L119.1,188.41L119.46,166.68L119.47,163.75L119.57,184.94L120.04,160.02L120.22,164.23L120.23,161.69L120.86,196.58L120.97,158.32L120.98,160.8L121.28,198.29L121.74,168.67L121.75,172.32L122.01,186.43L122.11,146.62L122.5,177.24L122.51,177.66L122.82,194.45L123.25,152.47L123.28,167.08L123.29,168.69L123.31,168.37L123.32,174.74L123.33,180.65L123.35,189.45L123.83,141.32L124.06,173.3L124.07,169.22L124.08,168.27L124.55,193.22L124.56,195.66L125.06,160.41L125.36,172.91L125.37,179.42L125.94,160.59L125.99,184.98L126.09,171.09L126.1,168.91L126.19,183.27L126.28,157.49L126.84,173.08L126.85,166.78L127.22,162.43L127.32,197.75L127.46,186.33L127.47,188.99L127.68,202.69L127.96,157.85L128.15,163.87L128.16,159.37L128.26,199.58L128.55,144.7L128.82,172.4L128.83,177.6L128.93,151.86L129.04,185.17L129.13,153.57L129.14,149.54L129.79,190.64L129.9,162.76L129.91,165.15L130.16,197.32L130.27,150.6L130.65,169.6L130.66,161.8L130.67,159.91L131,192.48L131.31,170.8L131.33,177.42L131.94,156.29L132.06,184.06L132.08,178.49L132.09,177.8L132.13,167.39L132.7,196.63L132.82,177.62L132.83,187.37L132.84,191.95L133.46,159.69L133.56,182.37L133.57,175.99L133.83,157.65L134.15,191.94L134.3,180.21L134.31,181.79L134.82,162.91L134.99,177.85L135,181.19L135.18,165.94L135.29,189.41L135.73,180.89L135.74,174.28L135.87,192.1L135.97,155.95L136.48,172.78L136.49,177.32L136.61,162.55L136.92,187.6L137.2,177.75L137.21,174.98L137.51,185.67L137.77,161.98L137.85,178.74L137.86,182.93L137.95,157.75L138.62,175.53L138.63,175.19L138.84,180.24L139.32,161.18L139.33,158.28L140.03,187.77L140.1,168.11L140.11,166.27L140.21,193.7L140.7,160.48L140.85,168.68L140.86,162.46L141.28,149.48L141.36,188.77L141.6,168.94L141.61,162.78L141.62,160.57L142.22,190.99L142.23,194.87L142.7,143.45L142.99,182.61L143,183.48L143.04,172.26L143.05,165.99L143.25,151.58L143.73,200.42L143.74,201.25L144.44,159.2L144.51,168.72L144.52,171.12L144.89,180.81L145,159.05L145.24,176.23L145.26,176.25L145.87,157.79L145.97,187.85L145.99,181.3L146,184.44L146.17,190.47L146.25,154.32L146.79,163.87L146.8,166.26L146.93,158.98L147.22,196.49L147.58,181.86L147.59,180.81L147.65,158.88L147.79,184.62L147.8,188.86L148.18,155.67L148.52,175L148.54,175.3L149.15,191.43L149.25,166.17L149.26,167.01L149.86,161.05L149.92,187.07L150,171.57L150.01,164.83L150.05,152.12L150.14,190.31L150.65,170.96L150.66,172.1L150.75,184.34L150.9,158.13L151.39,166.78L151.41,163.88L151.97,192.81L152.04,155.68L152.18,178.98L152.19,174.2L152.44,156L152.56,182.72L152.93,171.71L152.94,174.25L153.31,194.72L153.59,158.01L153.72,188.56L153.73,186.96L153.8,158.58L153.87,196.14L154.49,176.28L154.5,175.61L155.12,189.75L155.19,152.21L155.29,166.75L155.3,173.77L155.35,188.57L155.59,156.17L156.02,163.8L156.03,165.54L156.19,154.84L156.31,192.88L156.76,161.55L156.77,161.06L156.84,189.12L157.32,157.54L157.54,176.34L157.56,168.15L157.86,158.17L158.21,191.99L158.28,172.83L158.29,178.3L158.54,193.39L158.87,157.57L158.92,178.3L158.93,183.86L159.11,190.56L159.44,157.18L159.7,165.51L159.71,167.38L159.75,153.51L159.78,174.65L159.79,181.88L160.13,195.3L160.27,153.39L160.52,180.22L160.53,173.89L160.72,198.83L161.13,149.79L161.27,185.4L161.28,186.95L161.31,190.73L161.35,163.82L161.41,164.26L161.42,156.96L161.43,153.07L161.5,200.18L162.06,186.61L162.07,195.9L162.09,201.21L162.25,158.49L162.76,170.99L162.77,160.97L162.95,195.81L163.37,152.46L163.48,167.67L163.49,177.8L163.84,154.42L163.9,195.04L164.2,158.19L164.21,149.1L164.28,191.91L164.76,146.17L164.96,168.29L164.97,163.46L165,157.58L165.2,187.36L165.21,195.65L165.3,151.87L165.78,202.42L165.89,175.02L165.9,167.12L165.98,197.38L166.2,155.11L166.64,170.01L166.65,179.72L166.77,149.25L166.85,195.22L167.37,166.44L167.39,162.28L167.57,198.42L168.08,148.58L168.17,190.12L168.18,179.4L168.43,149.37L168.75,205.91L168.93,177.21L168.94,173.48L169.32,196.52L169.58,159.37L169.66,175.73L169.67,173.26L169.93,180.05L170.39,158.56L170.41,168.55L170.42,174.13L170.78,164.89L170.85,190L170.96,168.06L170.97,164.13L170.98,163.1L171.41,195.07L171.42,197.63L172.1,158.36L172.19,172.41L172.2,177.69L172.46,158.92L172.81,187.67L172.91,173.07L172.92,167.69L173.03,165.97L173.38,185.29L173.54,176.9L173.55,182.59L173.57,188.54L174.24,162.18L174.25,157.43L174.26,157.16L174.3,172.52L174.38,171.36L174.39,177.61L174.46,159.96L174.89,185.18L175.13,179.18L175.14,174.86L175.48,188.75L175.89,164.65L175.9,166.37L175.91,171.12L176.48,153.52L176.54,188.1L176.64,170.61L176.65,165.44L177.07,150.98L177.14,184.8L177.36,178.2L177.37,181.4L177.75,192.95L177.81,165.06L178.11,180.76L178.12,183.87L178.13,188.4L178.74,167.34L178.84,173.77L178.86,174.13L179.43,185L179.5,160.28L179.58,169.57L179.59,168.07L179.75,184.56L179.85,160.61L179.86,154.73L180.31,191.53L180.61,171.74L180.62,170.15L181.19,168.78L181.26,185.54L181.37,175.18L181.38,170.13L181.52,180.49L181.95,156.67L182.1,175.92L182.11,178.22L182.22,165.12L182.41,185.44L182.85,177.38L182.86,176.15L182.92,183.66L183.63,161.45L183.65,164.85L183.66,166.73L183.9,160.26L184.11,184.87L184.42,171.5L184.43,168.62L184.46,163.95L184.5,183.1L184.96,179.16L184.97,182L185.23,161.45L185.47,184.9L185.6,166.81L185.61,159.93L185.62,157.02L186.06,185.33L186.32,171.34L186.33,170.65L186.39,165.58L186.45,176.22L186.54,166.93L186.55,164.03L186.56,162.22L186.65,179.37L187.22,178.51L187.23,181.28L187.24,183.48L187.45,163.12L187.95,176.3L187.96,176.46L188.04,160.04L188.15,179.99L188.61,166.5L188.62,164.01L188.63,162.75L189.09,179.64L189.28,171.96L189.29,174.74L189.82,164.6L189.93,184.32L190.05,171.84L190.06,171.85L190.2,167.62L190.27,184.12L190.78,172.41L190.79,168.39L191.42,184.81L191.49,162.82L191.53,168.39L191.54,169.3L191.73,162.17L192.22,186.75L192.26,171.97L192.27,166.21L192.57,197.72L192.65,155.9L192.95,192.36L192.96,190.8L193.39,161.71L193.73,171.79L193.74,173.62L193.95,164.09L194.29,183.17L194.4,175.12L194.41,167.81L194.58,157.08L194.87,186.32L195.16,165.45L195.17,169.43L195.5,156.86L195.81,190.46L195.9,161.03L195.91,163.4L195.97,195.11L196.25,157.12L196.67,173.56L196.68,176.56L196.72,189.59L196.83,157.98L197.33,171.11L197.34,166.45L197.64,191.15L197.75,147.66L198,184.58L198.01,188.93L198.15,156.21L198.21,194.99L198.72,175.26L198.73,171.89L198.84,185.68L199.46,158.83L199.49,168.64L199.5,171.8L199.59,187.4L200.03,163.85L200.24,170.01L200.25,170.93L200.39,183.2L200.49,163.87L201.01,174.13L201.02,168.44L201.04,161.66L201.7,184.18L201.77,166.96L201.78,166.33L201.82,161.01L201.94,180.2L202.51,169.63L202.52,173.27L202.56,185.99L202.88,166.04L203.28,182.26L203.29,181.11L203.89,187.83L204,161.36L204.09,167.55L204.1,170.64L204.25,162.93L204.48,185.63L204.84,170.02L204.85,169.82L205.26,167.93L205.3,184.87L205.31,77.12L205.42,16L205.74,304L205.99,249.09L206,256.01L206.09,261.8L206.28,159.12L206.29,144.55L206.7,60.86L207.01,210.08L207.07,182.61L207.08,180.15L207.27,219.27L207.85,161.94L207.86,164.22L208.09,145.12L208.8,197.91L208.82,184.18L208.83,169.37L209.13,120.82L209.55,204.43L209.59,194.45L209.6,186.06L209.71,219.32L210.28,137.4L210.31,162.07L210.32,150L210.52,103.77L210.65,182.8L210.69,166.68L210.7,203.01L210.84,267.96L211.39,149.99L211.41,156.36L211.42,162.02L211.74,99.62L212.01,190.61L212.05,180L212.06,183.77L212.09,192.12L212.1,212.23L212.21,161.71L212.34,230.49L212.6,184.92L212.61,145.9L212.69,198.39L212.78,134.57L213.37,188.64L213.38,170L213.6,198.96L213.71,140.37L214.13,145.25L214.14,159.35L214.18,138.55L214.51,204.37L214.93,181.37L214.94,174.23L215.2,141.36L215.35,175.41L215.69,171.06L215.7,178.69L215.72,163.54L215.99,204.17L216.37,193.21L216.38,202.18L216.81,149.17L217.19,163.47L217.2,157.32L217.63,202.32L218,192.1L218.01,186.13L218.16,202.56L218.74,122.63L218.78,151.85L218.79,151.11L218.8,150.77L218.89,172.73L218.9,179.82L219.15,203.6L219.21,161.93L219.63,188.79L219.64,199.45L219.65,203.79L220.17,152.01L220.32,169.41L220.33,169.04L220.62,188.36L220.96,147.74L221.09,158.36L221.1,164.88L221.15,148.32L221.56,205.94L221.83,176.89L221.84,177.66L221.87,194.3L221.98,124.82L222.46,186.62L222.47,195.75L222.75,202.66L222.97,143.43L223.32,164.87L223.33,168.99L223.53,139.83L224.01,203.38L224.11,185.9L224.12,179.34L224.72,195.18L224.89,161.75L224.9,168.71L224.92,138.79L225.59,207.49L225.6,206.69L225.73,212.72L226.36,135.6L226.4,155.81L226.41,160.05L226.77,212.77L227.11,153.68L227.13,163.45L227.14,147.51L227.18,134.62L227.67,216.34L227.86,160.92L227.87,163.42L228.07,129.91L228.54,195.96L228.55,194.82L228.69,213.49L229.16,140.21L229.34,172.37L229.35,176.63L229.71,209.29L229.76,156.46L230.06,191.17L230.08,195.77L230.12,221.06L230.32,165.86L230.33,155.6L230.59,140.63L230.78,181.38L231.05,170.07L231.06,162.32L231.47,231.97L231.77,171.35L231.78,159.57L232.03,121.08L232.36,187.94L232.48,173.58L232.49,176.52L232.84,167.71L232.97,187.37L232.98,192.38L233.02,199.87L233.82,144.05L233.83,148.9L233.85,145.93L234.28,200.13L234.29,204.76L234.3,205.33L234.5,176.35L234.51,165.76L234.68,179.5L235.14,143.14L235.24,174.06L235.25,177.08L235.57,202.93L235.91,147.57L236.01,164.2L236.02,167.63L236.25,159.27L236.39,199.31L236.77,172.3L236.78,166.16L237,156.29L237.43,192.03L237.44,191.95L237.46,193.81L237.47,198.07L237.93,152.8L238.18,183.73L238.19,181.26L238.71,197.85L238.99,141.42L239.06,146.55L239.07,162.48L239.27,155.79L239.7,192.05L239.84,177.04L239.85,178.55L240.2,159.6L240.55,187.51L240.61,185.94L240.62,182.18L240.82,187.88L241.15,161.94L241.31,173.6L241.32,164.45L241.38,145.25L241.52,188.59L242.04,161L242.05,165.82L242.24,142.34L242.76,190.76L242.78,190.83L242.92,207.58L243.29,164.03L243.35,168.15L243.36,164.99L243.6,154.38L244.08,197.48L244.28,189.39L244.29,184.72L244.6,186.52L244.66,148.31L245.11,157.33L245.12,164.47L245.29,153.14L245.69,201.83L245.92,185.73L245.93,182.95L246.07,195.34L246.7,137.68L246.8,153.65L246.81,165.19L246.88,153.23L247.18,194.91L247.59,183.03L247.6,182.14L247.89,189.24L247.99,155.25L248.4,161.58L248.41,165.63L248.52,187.83L249.12,157.11L249.13,156.03L249.38,189.25L249.71,148.35L249.77,170.24L249.78,175.05L250.18,205.23L250.41,155.2L250.57,187.77L250.58,185.1L250.93,186.76L251.01,145.64L251.34,163.77L251.35,166.96L251.46,191.13L252.09,163.82L252.1,161.1L252.58,194.88L252.65,153.24L252.9,181.96L252.91,182.76L252.94,188.05L253.38,154.07L253.51,172.03L253.52,162.31L253.55,148.87L254.23,182.62L254.24,194.33L254.36,170.47L254.37,166.47L254.47,184.05L255.03,160.2L255.06,164.79L255.08,162.6L255.63,153.5L255.7,185.03L255.84,180.36L255.85,181.5L256.06,149.13L256.16,190.85L256.42,175.42L256.43,182.25L256.59,154.97L256.72,195.02L257.17,173.42L257.18,179.29L257.28,192.38L257.35,171.31L257.54,174.62L257.55,170.31L257.66,187.67L257.87,149.24L258.16,168.33L258.17,178.47L258.31,153.17L258.67,195.7L258.81,181.47L258.82,177.54L258.92,198.54L259.43,161.69L259.51,176.17L259.52,168.75L259.82,141.62L260.05,183.7L260.25,177.23L260.26,186.22L260.37,159.06L260.61,208.22L260.94,162.52L260.95,160.32L261.24,155.23L261.56,188.35L261.66,167.09L261.67,167.89L261.69,160.04L261.84,185.35L262.38,177.83L262.39,182.03L262.52,159.37L262.97,196.05L263.15,189.52L263.16,189.49L263.6,154.7L263.95,168.51L263.96,173.72L264.16,165.94L264.46,191.24L264.72,180.11L264.73,181.02L264.81,186.23L264.89,160.47L265.5,175.25L265.51,177.66L265.66,160.72L265.92,188.45L266.23,167.51L266.24,165.33L266.38,191.01L266.8,157.89L267,159.56L267.01,162.53L267.09,158.65L267.5,183.61L267.8,179.09L267.81,175.67L267.89,187.68L268.1,159.51L268.54,179.79L268.55,183.15L268.7,158.33L269.16,194.33L269.31,177.05L269.32,177.34L269.59,161.82L269.75,187.32L269.96,162.37L269.97,158.54L270.4,188.39L270.79,178.7L270.8,177.24L270.95,185.73L271.55,165.38L271.57,170.69L271.58,173.08L271.82,160.63L272.21,182.25L272.24,179.24L272.25,182.62L272.47,161.99L272.5,179.22L272.51,182.98L272.57,166.5L273.08,190.4L273.12,179L273.13,174.15L273.28,187.89L273.8,161.55L273.9,168.9L273.92,171.03L274.1,156.23L274.52,182.33L274.64,167.79L274.65,164.23L274.95,193.65L275.37,173.94L275.38,168.83L275.43,159.26L275.76,183.46L276.11,171.93L276.12,173.75L276.49,186.46L276.5,146.21L276.51,117.24L277.04,199.57L277.28,190.22L277.29,185.59L277.4,193.72L277.89,155.18L278.1,173.88L278.11,178.51L278.25,153.77L278.69,185.76L278.84,170.47L278.85,172.51L279.09,185.99L279.57,156.73L279.63,164.69L279.64,167.65L279.89,189.64L280.34,165L280.39,170.37L280.4,168L280.45,178.49L280.58,174.09L280.59,162.89L280.69,155.28L281.01,186.67L281.35,172.81L281.36,176.91L281.39,186.23L281.83,151.43L282.09,172.46L282.1,167.69L282.17,154.7L282.41,183.1L282.72,181.25L282.73,184.43L283.09,190.79L283.41,170.4L283.42,169.19L283.52,178.78L284,158.3L284.18,172.2L284.19,166.7L284.24,191.47L284.76,164.09L284.91,165.13L284.92,160.22L285.05,157.71L285.69,187.58L285.7,186.44L285.91,192.09L286.37,157.32L286.46,178.84L286.47,181.31L286.83,150.12L287.06,188.45L287.24,169.42L287.25,167.06L287.35,197.16L287.73,161.96L287.92,173.73L287.93,182.86L287.97,195.34L288.61,154.49L288.69,190.82L288.7,191.16L288.79,144.72L289.15,195.45L289.42,181.49L289.43,192.02L289.44,194.23L289.96,156.43L290.09,177.06L290.1,172.88L290.22,152.62L290.48,191.66L290.84,171.04L290.85,173.35L290.99,159.65L291.07,190.38L291.61,179.75L291.62,179.39L291.91,189.47L292.39,164.17L292.4,164.56L292.47,146.81L292.97,189.87L293.19,183.79L293.2,176.71L293.27,197.92L293.5,151.46L293.97,155.48L293.98,153.69L294.52,186.08L294.66,162.54L294.67,162.85L294.69,162.31L294.91,187.48L294.92,192.38L294.93,192.9L295.04,166.54L295.23,173.04L295.24,165.66L295.25,162.32L295.75,182.17L295.96,167.42L295.97,175.26L296.57,157.82L296.7,192.25L296.74,184.02L296.75,183.53L296.76,185.25L297.15,154.28L297.42,170.65L297.43,164.23L297.45,157.43L298.11,198.65L298.12,197.87L298.13,195.8L298.62,154.12L299,157.48L299.01,160.57L299.08,156.96L299.6,193.75L299.83,174.46L299.84,172.43L300.29,181.99L300.41,160.21L300.58,177.55L300.59,170.57L300.75,163.08L300.89,190.39L301.28,190.05L301.29,191.02L301.3,194.61L301.81,163.32L302,177.57L302.01,179.57L302.03,180.54L302.28,161.89L302.42,170.72L302.43,166.8L302.7,166.06L303.17,189.11L303.24,180.76L303.25,175.98L303.61,156L303.82,183.5L303.97,168.02L303.98,174.47L304.07,160.22L304.29,188.3L304.73,179.23L304.74,176.22L305.3,160.86L305.51,185.9L305.52,182.3L305.54,182.73L305.59,168.04L305.6,166.98L305.96,182.24L306.01,161.98L306.31,174.91L306.32,175.8L306.4,166.71L306.63,192.21L307.08,183.38L307.09,179.75L307.74,153.84L307.81,172L307.82,175.42L308.03,159.35L308.42,184.84L308.53,177.25L308.54,180.82L308.57,185.22L309.14,159.33L309.22,168.49L309.23,163.75L309.53,155.33L309.98,187.96L310.08,184.79L310.09,182.22L310.37,185.34L310.89,160.52L310.91,163.29L310.92,167.59L311.25,156.54L311.43,186.62L311.65,166.71L311.66,163.88L311.67,158.97L311.78,196.4L312.39,166.46L312.4,168.9L312.6,179.96L312.78,159.58L313.12,163.36L313.13,163.83L313.65,187.55L313.84,166.23L313.85,165.16L313.89,162.56L313.92,174.19L313.93,178.03L313.94,182.32L314.46,159.18L314.66,174.28L314.67,170.59L315,180.75L315.17,161.97L315.26,175.27L315.27,176.53L315.53,166.16L315.75,187.58L316.02,176.18L316.03,178.04L316.16,186.9L316.63,160.66L316.74,169.83L316.75,169.31L316.92,161.5L317.16,178.65L317.34,176.02L317.36,177.89L317.5,184.84L317.64,170.4L317.78,180.14L317.79,181.45L317.87,182.26L318.47,165.41L318.61,171.23L318.62,172.68L318.9,164.91L319.29,184.88L319.33,176.53L319.34,172.54L319.61,186.17L319.98,165.74L320.03,176.92L320.04,181.41L320.42,162.13L320.64,174.52L320.65,177.35L320.79,186.05L321.29,165.54L321.38,178.27L321.39,180.89L321.43,181.31L321.76,166.7L322.14,179.8L322.15,181.15L322.59,187.14L322.83,166.79L322.88,180.18L322.89,182.39L323.24,167.15L323.34,186.4L323.54,169.27L323.55,167.73L323.64,188.42L323.72,158.67L324.16,159.76L324.17,157.78L324.2,154.98L324.38,181.18L324.7,175.05L324.71,176.12L325.22,189.63L325.32,159.7L325.46,181.39L325.47,175.96L325.77,159.82L326.13,187.48L326.14,189.81L326.24,161.98L326.94,168.19L326.95,165.39L327.12,155.58L327.3,181.58L327.67,175.03L327.68,173.43L327.86,161.09L327.98,184.74L328.46,164.25L328.47,166.33L328.87,161.47L329.03,182.19L329.2,169.33L329.21,176.41L329.47,181.82L329.93,168.89L329.95,174.64L329.96,172.51L330.19,179.48L330.26,166.17L330.66,172.17L330.67,174.49L330.9,166.79L331.41,184.3L331.45,179.86L331.46,176.4L331.62,164.62L331.89,185.33L332.22,173.33L332.23,176.22L332.63,185.68L332.73,165.93L332.97,176.33L332.98,174.26L333.37,181.94L333.73,161.81L333.77,166.05L333.78,166.37L333.87,188.17L334.06,162.87L334.51,167.62L334.52,170.2L334.63,191.85L335.01,163.64L335.24,163.75L335.25,163.27L335.45,162.97L335.55,183.78L336.02,175.01L336.03,171.28L336.09,183.93L336.61,160.85L336.78,176.02L336.79,174.33L336.97,163.34L337.41,182.44L337.55,169.5L337.56,173.24L337.64,185.32L337.99,163.09L338.33,181.82L338.34,179.07L338.73,159.85L338.84,190.89L339.07,179.58L339.08,182.35L339.1,186.42L339.63,156.08L339.73,166.57L339.74,162.01L339.85,185.05L340.5,172.82L340.51,170L340.71,184.45L341.24,160.52L341.26,169.55L341.27,172.78L341.36,184.94L341.73,163.39L341.9,170.03L341.91,169.2L342.16,164.5L342.51,182.41L342.67,177.78L342.68,173.32L342.84,185.02L343.4,163.94L343.43,167.24L343.44,171.04L344.05,181.78L344.09,166.83L344.2,177.28L344.21,171.56L344.28,165.01L344.51,180.39L344.88,176.2L344.89,176.98L344.99,166.24L345.54,185.13L345.55,185.77L345.57,187.88L346,166.4L346.14,174.04L346.15,169.95L346.23,177.94L346.68,164.77L346.89,171.37L346.9,175.69L347.02,165L347.12,187.13L347.54,177.62L347.55,178.97L347.61,188.91L347.73,168.8L347.74,165.76L348.2,161.31L348.32,180.1L348.42,165.76L348.43,163.9L348.66,183.64L349.04,171.73L349.05,171.28L349.32,182.49L349.51,166.75L349.68,168.46L349.69,165.22L349.76,163.84L349.83,182.31L350.27,169.62L350.28,175.03L350.33,182.13L350.45,163.64L351.03,177.16L351.04,175.23L351.21,163.42L351.26,179.55L351.83,168.96L351.84,172.35L352.51,164L352.61,180.6L352.62,180.04L352.63,173.38L352.69,181.95L353.13,166.1L353.38,170.54L353.39,172.31L353.79,163.11L354.05,185.66L354.11,175.97L354.12,168.98L354.13,167.34L354.41,180.25L354.81,175.71L354.82,178.27L355,167.32L355.27,186.7L355.55,176.01L355.56,175.94L355.68,167.49L356.18,182.82L356.31,177L356.32,172.17L356.46,191.89L356.56,163.43L357.06,172.51L357.07,173.98L357.66,185.1L357.76,158.46L357.8,176.98L357.81,180.96L357.83,187.63L358.06,162.77L358.54,170.53L358.55,168.49L359.03,181.39L359.13,161.31L359.29,166.2L359.3,166.31L359.38,190.33L359.94,165.27L359.98,168.77L359.99,167.46L360.51,165.91L360.6,188.3L360.76,172.88L360.77,172.92L361.4,160.69L361.47,180.95L361.53,179.14L361.54,176.04L361.74,160.52L361.82,186.1L362.24,172.97L362.25,170.09L362.46,158.44L362.77,186.08L362.95,172.1L362.96,165.34L363.05,191.12L363.64,156.31L363.69,171.25L363.7,172.36L363.72,188.61L364.13,154.57L364.44,167.94L364.45,157.88L364.84,192.94L364.98,153.96L365.15,172.71L365.16,177.13L365.18,189.89L365.45,159.63L365.9,169.65L365.91,167.69L365.94,188.09L366.03,157.5L366.16,181.29L366.17,184.86L366.27,186.35L366.47,161.72L366.69,166.44L366.7,155.31L366.71,155.07L366.73,170.41L366.76,162.95L366.77,177.17L367.04,150.6L367.52,197.74L367.53,186.71L367.54,175.82L367.86,200.04L367.97,156.39L368.19,185.44L368.2,195.28L368.49,160.02L369.03,161.63L369.04,160.88L369.09,196.37L369.35,154.51L369.81,187.89L369.82,188.06L370.06,156.49L370.63,166.87L370.64,173.23L371.18,157.44L371.21,187.65L371.33,160.12L371.34,160.62L371.44,190.18L371.52,155.55L372.13,185.1L372.14,183.45L372.34,188.09L372.73,156.96L372.91,162.5L372.92,165.27L372.97,181.04L373.23,161.67L373.65,175.57L373.66,171.7L374.13,187.87L374.42,156.09L374.43,160.9L374.44,171.43L374.75,155.92L374.82,193.14L375.2,178.22L375.21,176.53L375.42,160.18L375.5,187.85L375.93,179.82L375.95,181.17L376.49,165.89L376.68,183.93L376.69,183.18L377.28,156.05L377.36,193.01L377.45,169.81L377.46,171.91L377.62,160.35L377.71,188.33L378.09,180.41L378.1,184.79L378.52,167.73L378.61,185.8L378.83,180.49L378.84,182.2L379.03,187.33L379.3,161.49L379.62,169.02L379.64,166.02L379.82,165.64L380.1,185.07L380.4,177.61L380.41,176.1L380.54,161.11L380.81,185.59L381.09,174.05L381.1,174.49L381.17,167.71L381.28,182.63L381.78,168.86L381.79,167.43L382.33,162.05L382.4,186.29L382.49,167.01L382.51,166.84L382.62,180.37L382.69,163.1L383.24,171.57L383.25,171.1L383.33,164.78L383.51,181.8L383.98,174.33L383.99,180.76L384,183.53L384.27,165.85L384.7,170.51L384.71,169.23L384.88,165.58L385.11,182.96L385.47,178.89L385.48,176.42L385.73,165.1L385.85,184.82L386.2,181.23L386.21,182.93L386.34,168.36L386.44,183.04L386.63,179.4L386.64,182.37L386.94,186.53L387.1,162.24L387.4,169.5L387.42,174.17L387.7,181.96L387.81,164.46L388.03,179.76L388.04,183.3L388.05,185.95L388.45,161.34L388.72,167.21L388.73,166.33L389.28,159.68L389.38,184.47L389.5,177.89L389.51,173.49L389.67,187.59L390.08,161.98L390.23,180.26L390.24,180.62L390.52,190.99L390.97,159.41L391,174.29L391.01,172.96L391.11,186.31L391.54,159.48L391.66,182.17L391.67,183.35L391.84,159.96L392.27,191.14L392.45,174.02L392.46,177.03L392.6,186.63L392.99,159.2L393.19,175.14L393.2,178.08L393.39,189.86L393.83,162.48L393.88,165.68L393.89,174.26L393.96,190.45L394.41,153.23L394.63,171.36L394.64,173.34L394.96,159.28L395.03,185.93L395.23,165.9L395.24,160.48L395.25,156.8L395.65,188.47L395.95,173.65L395.96,178.88L396.42,158.38L396.5,185.98L396.68,172.13L396.69,169.4L397.02,162.89L397.42,189.9L397.48,174.7L397.49,167.62L397.96,183.33L398.19,161.76L398.22,169.78L398.23,170.2L398.32,188.04L398.41,163.57L398.96,169.65L398.97,169.37L399.23,184.64L399.65,165.38L399.75,178.63L399.76,175.03L400.22,163.31L400.35,186.12L400.53,181.84L400.54,176.66L400.71,184.94L401.12,161.83L401.3,170.51L401.31,171.93L401.39,180.83L401.51,165.04L402.07,175.52L402.08,172.69L402.12,184.89L402.17,173.67L402.18,172.96L402.71,182.02L402.81,165.38L402.94,175.9L402.95,174.53L403.22,184.49L403.68,167.43L403.72,170.55L403.73,170.02L403.88,185.02L404.51,164.05L404.52,165.79L404.85,158.53L404.96,187.92L405.29,177.75L405.3,179.38L405.74,158.66L405.82,185.3L406.04,181.41L406.05,177.52L406.38,190.98L406.62,158.99L406.73,185.62L406.74,189.71L406.83,159.65L407.52,168.16L407.53,172.76L407.61,179.97L407.7,161.85L408.24,170.95L408.25,169.9L408.3,163.63L408.63,181.17L408.77,176.9L408.78,179.87L409.1,164.56L409.29,184L409.36,173.09L409.37,170.31L409.41,161.28L409.47,174.55L409.48,178.21L409.84,187.21L409.93,161.75L410.21,179.28L410.22,171.53L410.39,188.73L410.87,157.34L410.89,169.66L410.9,179.16L410.91,185.92L411.39,158.8L411.64,173.78L411.65,171.86L412.02,159.98L412.09,182.12L412.38,173.97L412.39,177.2L413.03,185.29L413.07,163.04L413.08,161.28L413.42,159.17L413.66,181.87L413.77,163.38L413.78,160.31L414.44,193.42L414.55,172.78L414.56,172.11L414.62,182.06L414.7,166.12L414.75,173.8L414.76,184.83L414.77,188.26L414.85,165.3L415.44,168.8L415.45,163.87L415.59,186.22L415.99,156.4L416.21,179.64L416.22,174.45L416.39,191.07L416.86,156.56L416.95,172.25L416.96,160.45L417.53,193.91L417.6,157.73L417.72,183.32L417.74,179.14L417.86,193.05L417.93,151.31L418.49,176.97L418.5,182.89L418.9,153.04L418.98,193.74L419.25,174.75L419.26,178.04L419.48,192.37L419.7,158.18L419.86,175L419.87,162.53L420.08,100.74L420.56,189.15L420.59,171.91L420.61,169.97L420.69,165.4L420.89,198.43L421.37,176.28L421.38,174.78L421.84,148.16L421.96,177.87L422.1,173.71L422.11,181.2L422.18,154.57L422.43,188.03L422.77,174.93L422.78,176.23L422.9,161.44L423.21,189.61L423.44,172.05L423.45,168.22L423.73,190.48L424.14,154.01L424.18,168.2L424.19,172.8L424.27,197.18L424.33,152.52L424.89,174.11L424.9,182.05L425.15,159.85L425.5,190.82L425.65,173.75L425.66,176.09L425.83,186.44L426.2,156.97L426.35,167.25L426.36,166.66L426.45,160.72L427.01,185.63L427.08,172L427.09,173.79L427.71,192.31L427.77,157.53L427.84,175.92L427.85,172.92L428.29,160.46L428.36,188.95L428.59,178L428.6,175.68L428.73,157.76L428.86,190.79L429.35,169.5L429.36,169.13L429.51,155.29L429.57,198.17L430.13,187.33L430.14,180L430.55,189.94L430.66,162.44L430.87,177.44L430.88,183.12L430.92,159.89L431.44,188.51L431.55,169L431.56,164.64L432.18,190.9L432.24,163.24L432.3,171.81L432.31,170.68L432.5,162.21L432.61,190.42L433.07,167.57L433.08,175.64L433.26,190.76L433.64,154.12L433.82,169.84L433.83,167L433.88,159.44L433.92,184.61L434.54,173.76L434.55,179.25L434.57,187.63L435.18,157.96L435.27,167.66L435.28,166.54L435.36,156.69L435.96,185.81L436.04,178.05L436.05,175.3L436.47,158.97L436.52,187.83L436.81,169.99L436.82,172.46L437.12,160.67L437.33,196.85L437.55,170.58L437.56,166.88L437.83,185.07L437.93,156.52L438.29,164.79L438.3,169.11L438.55,162.28L438.95,186.85L439.05,171.2L439.06,159.29L439.07,157.42L439.66,183.67L439.73,172.37L439.74,181.18L439.89,158.68L440.1,191.91L440.48,176.22L440.49,173.84L440.91,189.35L441.13,159.27L441.22,181.52L441.23,186.3L441.24,189.95L441.82,160.84L441.95,177.32L441.96,176.03L442.05,187.43L442.08,168.03L442.09,162.58L442.1,160.68L442.36,186.95L442.72,182.82L442.74,181.92L443.1,182.42L443.52,163.71L443.53,166.33L443.54,170.09L444,180.5L444.04,165.23L444.27,177.33L444.28,175.03L444.73,188.27L444.99,165.53L445.02,171.11L445.03,175.41L445.07,189.39L445.65,166.32L445.77,169.82L445.78,168.65L445.86,182.26L445.96,170.29L445.97,163.58L445.98,161.41L446.04,188.73L446.65,175.08L446.66,181.64L447.02,187.36L447.27,160.03L447.38,176.24L447.39,172.06L447.76,160.26L447.81,184.31L448.13,170.27L448.14,176.5L448.58,160.17L448.79,186.67L448.88,173.33L448.89,172.75L448.93,157.08L449.31,186.8L449.59,174.13L449.6,178.45L450.23,161.64L450.29,188.92L450.32,172.48L450.33,169.09L450.45,179.87L450.5,168.42L450.55,168.64L450.56,163.81L450.62,186.55L450.88,161.79L451.24,174.15L451.25,178.51L451.37,165.7L451.43,186.32L451.94,172.44L451.95,169.42L452.01,164.53L452.49,180.89L452.71,170.47L452.72,170.2L453.21,183.97L453.3,163.74L453.44,169.18L453.45,168.29L453.56,182.85L453.96,163.98L454,176.91L454.01,178.33L454.3,163.08L454.52,182.3L454.7,179.32L454.71,182.99L454.73,186.18L454.94,166.95L455.44,177.86L455.45,178.98L455.58,155.67L455.66,185.42L455.83,178.21L455.85,178.24L455.92,161.1L456.01,184.15L456.46,175L456.47,181.62L456.48,184.48L457.1,168.17L457.17,169.9L457.18,169.56L457.5,186.53L457.76,166.46L457.9,173.59L457.91,169.79L458.03,182.98L458.4,166.89L458.67,173.63L458.68,171.13L459.06,162.4L459.18,183.53L459.33,180.82L459.34,183.18L459.35,185.21L459.43,165.16L460.02,170.42L460.03,169.43L460.18,167.35L460.67,185.08L460.75,170.97L460.77,165.15L460.78,162.71L460.87,188.77L461.46,177.94L461.47,180.05L461.91,161.88L462,188.7L462.21,180.89L462.22,177.04L462.25,163.83L462.36,181.68L462.97,171.7L462.98,173.72L463.04,166.44L463.44,183.22L463.69,173.8L463.7,172.05L463.74,165.73L463.99,182.91L464.42,177.33L464.43,178.74L464.84,158.5L464.95,188.54L465.09,177.3L465.1,183.34L465.11,185.84L465.21,159.78L465.79,169.83L465.8,170.8L466.27,185.74L466.34,157.32L466.5,161.2L466.51,156.5L466.8,185.24L467.28,171.6L467.29,167.55L467.55,189.48L467.65,156.65L468.03,165.78L468.04,170.11L468.67,184.33L468.77,162.06L468.78,159.79L468.79,158.96L469.04,189.49L469.37,172.97L469.38,176.08L469.41,184.6L469.52,161.24L470.14,180.33L470.15,180.1L470.24,165.96L470.37,181.28L470.51,176.66L470.52,181.54L470.73,182.17L470.85,166.38L471.23,175.54L471.24,178.69L471.38,162.61L471.86,184.83L471.94,163.68L471.95,162.14L472.11,157.11L472.4,188.85L472.66,165.24L472.67,163.33L472.7,159.8L472.96,192.43L473.29,180.14L473.3,183.05L473.41,161.97L473.5,185.36L473.95,169.48L473.96,166.69L474.14,163.76L474.21,185.01L474.6,174.06L474.61,169.61L475.11,182.58L475.33,162.01L475.36,166.37L475.37,168.72L475.62,191.52L476.04,155.06L476.08,170.88L476.09,173.59L476.15,188.67L476.21,157.23L476.8,172.42L476.81,171.57L477.4,189.54L477.47,159.09L477.51,165.91L477.52,166.39L477.75,188.31L477.83,161.35L478.18,166.53L478.19,165.61L478.86,184.49L478.91,164.82L478.92,165.38L478.93,166.23L479.03,184.41L479.49,171.84L479.5,168.51L479.83,182.58L479.89,164.77L480.08,168.86L480.09,176.2L480.72,181.78L480.78,159.96L480.84,177.96L480.85,175.58L480.91,184.28L481.31,163.71L481.59,176.21L481.6,176.14L481.81,180.68L482.01,158.45L482.34,175.61L482.35,173.64L482.86,154.8L482.97,187.61L483.06,179.56L483.07,179.33L483.43,164.63L483.55,183.37L483.71,171.37L483.72,169.96L483.77,163.29L483.85,181.65L484.46,167.81L484.47,171.39L484.65,163.12L485.22,181.73L485.23,180.27L485.24,175.85L485.64,155.1L485.96,188.16L486.01,162.12L486.02,162.31L486.21,161.3L486.33,186.11L486.76,174.22L486.77,171.08L486.89,161.82L487.55,185.57L487.56,184.89L487.57,182.29L487.85,161.81L488.05,188.02L488.33,178.74L488.34,180.94L488.37,183.13L488.53,167.72L488.81,174.75L488.82,171.75L489,168.51L489.43,185.52L489.54,177.41L489.55,177.41L489.67,170.15L489.96,184.22L490.07,172.47L490.08,171.27L490.13,176.77L490.2,165.85L490.21,163.47L490.22,161.6L490.69,181.43L490.87,176.8L490.88,179.38L491.21,186.7L491.29,166.88L491.6,171.92L491.61,171.16L491.97,165.45L492.26,183L492.38,174.59L492.39,170.54L492.88,179.32L492.93,161.49L493.1,176.81L493.11,177.55L493.25,182.83L493.7,167.39L493.86,178.26L493.87,175.71L493.9,162.05L494.29,178.96L494.63,168.45L494.64,170.37L494.68,185.36L494.8,162.04L495.38,175.28L495.39,173.44L495.77,181.27L495.82,165.06L496.07,178.05L496.08,179.38L496.54,161.36L496.63,188.62L496.74,170.41L496.75,169.72L497.06,162.72L497.37,180.69L497.54,175.74L497.55,172.79L497.61,160.75L498.19,177.97L498.32,164.58L498.33,167.41L498.39,164.12L498.94,189.22L499.17,181.42L499.18,179.69L499.26,184.29L499.41,165.84L499.95,171.85L499.96,173.84L500.12,164.4L500.18,181.54L500.31,181.32L500.32,184.22L500.34,188.34L500.63,171.53L501.04,175.41L501.05,174.8L501.18,181.85L501.39,166.83L501.77,173.57L501.78,173.54L501.95,178.09L502.02,168.31L502.1,177.65L502.11,178.45L502.47,189.73L502.71,167.83L502.75,178.69L502.76,180.2L502.78,184.13L503.27,166.08L503.47,170.86L503.48,169.61L503.51,167.25L503.72,187.35L504.18,176.08L504.2,180.53L504.24,188.65L504.5,160.4L504.77,171.76L504.78,170.3L504.84,160.92L504.95,184.84L505.13,169.63L505.14,166.88L505.63,186.47L505.75,161.99L505.84,172.29L505.85,174.88L505.9,179.15L506.14,159.2L506.67,168.04L506.68,171.16L506.99,166.89L507.09,184.58L507.44,176.51L507.45,176.42L507.92,180.89L508.15,160.65L508.22,171.29L508.23,172.5L508.56,183.6L508.67,164.16L508.97,171.22L508.98,170.62L509.31,163.28L509.5,182.6L509.71,174.58L509.72,175.5L509.77,185.63L509.88,165.41L510.17,170.81L510.18,167.28L510.47,160.42L510.6,184.97L510.96,175.3L510.97,174.16L511.11,180.9L511.18,168.41L511.29,180.29L511.3,183.67L511.31,186.93L511.74,161.47L511.99,169.47L512,165.93L512.03,162.21L512.42,186.42L512.69,178.61L512.7,177.99L512.98,180.39L513.22,167.46L513.46,175.74L513.47,174.24L513.6,162.88L514.07,184.45L514.19,168.81L514.2,169.01L514.54,165.48L514.94,189.25L514.96,179.42L514.97,175.93L515.3,189.88L515.55,160.02L515.73,165.77L515.74,168.67L515.83,188.84L516.05,160.41L516.45,173.94L516.46,174.95L516.53,185.73L516.94,164.64L517.21,177.14L517.22,178.34L517.52,166.6L517.93,185.72L517.95,178.27L517.96,181.4L517.97,183.27L518.58,157.96L518.67,177.34L518.68,175.37L518.83,184.53L518.89,167.05L518.9,160.36L519.21,184.68L519.27,157.65L519.67,177.56L519.68,174.49L519.99,186.54L520.13,158.6L520.43,166.67L520.44,173.15L520.6,158.69L520.66,185.98L520.97,178.83L520.98,186.6L521,189.36L521.46,158.28L521.56,171.33L521.57,162.75L521.58,154.07L522.19,188.02L522.3,177.77L522.31,182.9L522.53,196.35L522.6,154.21L522.98,176.23L522.99,180.58L523.05,190.22L523.58,162.13L523.78,166.05L523.79,166.55L524.03,190.69L524.11,164.49L524.54,171.52L524.55,163.98L525.1,156.51L525.18,186.13L525.28,167.01L525.29,167.57L525.75,183.12L526.04,162.49L526.05,164.06L526.06,170.94L526.13,184.32L526.2,162.24L526.8,168.32L526.81,167.9L527.04,158.22L527.32,186.92L527.56,169.56L527.57,168.27L527.78,160.31L528.02,186.74L528.32,162.4L528.33,166.2L528.76,159.93L529.01,191.24L529.08,173.17L529.09,168.92L529.29,158.65L529.61,183.75L529.83,171.47L529.84,170.55L530.38,183.16L530.45,163.37L530.59,173.62L530.6,171.37L530.7,186.87L531.02,162.64L531.32,177.48L531.33,177.72L531.88,190.87L531.95,157.73L532.07,180.52L532.08,178.34L532.22,193.2L532.52,153.47L532.85,167.09L532.86,167.79L533.09,163.4L533.44,190.27L533.63,176.47L533.64,170L533.98,199.46L534.26,158.21L534.38,172.29L534.39,172.57L534.52,195.03L534.87,165.51L535.02,175.33L535.03,172.63L535.39,160.69L535.51,194.85L535.65,187.23L535.66,187.46L536.35,155.84L536.45,169.83L536.46,174.15L536.66,189.4L536.92,161.57L537.23,183.18L537.24,178.04L537.31,182.01L537.55,164.8L538.05,165.13L538.06,166.31L538.56,163.36L538.82,189.01L538.84,186.6L538.85,182.57L539.3,191.32L539.57,157.03L539.61,176.05L539.62,177.09L539.77,159.33L539.86,186.25L539.87,188.64L539.88,190.07L539.98,164.41L540.51,174.25L540.52,174.13L540.76,167.96L540.81,179.82L540.82,183.48L540.84,187.99L541.23,164.35L541.53,174.43L541.54,168.49L541.57,156.11L542.03,186.91L542.28,172.4L542.29,175.55L542.5,187.11L542.63,163.15L542.67,181.19L542.68,188.85L542.76,162.95L542.88,188.91L543,183.9L543.01,186.04L543.04,196.88L543.16,159.83L543.65,173.5L543.66,169.51L544.06,180.08L544.39,157.43L544.41,164.44L544.42,168.22L544.91,159.1L545.13,191.31L545.19,180.21L545.2,178.22L545.43,158.23L545.63,183.98L545.96,170.42L545.97,171.67L546.13,186.64L546.42,165.38L546.46,165.82L546.47,159.59L546.6,110.56L546.66,198.26L547.05,172.88L547.06,174.86L547.26,197.75L547.56,161.87L547.75,183.3L547.76,183.5L547.79,190.76L548.16,143.94L548.58,165.7L548.59,171.36L548.63,151.11L548.88,185.03L549.29,183.25L549.3,190.5L550.04,157.58L550.07,173.75L550.09,177.79L550.28,154.3L550.67,184.28L550.82,178.8L550.83,180.32L551.14,197.75L551.38,159.28L551.6,164.17L551.61,169.67L552.08,153.62L552.33,186.07L552.36,172.53L552.37,169.16L552.49,192.96L552.6,171.89L552.61,167L552.65,164.69L552.7,182.36L552.71,191.21L553.16,154.22L553.22,187.3L553.23,196.54L553.42,155.08L554.01,174.01L554.02,171.43L554.04,156.61L554.5,190.72L554.76,174.22L554.77,174.29L554.79,162.87L554.93,193.56L555.48,181.19L555.49,182.42L555.5,187.87L555.98,166L556.22,172.96L556.24,165.79L556.25,163.68L556.72,191.97L556.96,167.22L556.97,170.32L557.15,187.26L557.44,162.76L557.7,167.68L557.71,166.05L557.98,161.63L558.41,187.61L558.48,176.62L558.49,173.79L558.65,188.32L559.26,156.51L559.27,162.93L559.33,185.19L559.76,157.27L560.03,169.08L560.04,170.51L560.19,162.03L560.27,181.63L560.78,173.33L560.79,169.57L560.95,161.77L561.4,182.26L561.5,171.32L561.51,168.23L561.52,162.3L561.59,188.38L562.23,184.29L562.24,185.75L562.32,157.68L562.74,187.25L563,175.08L563.01,175.78L563.45,189.03L563.69,165.19L563.75,178.55L563.76,180.79L564.24,180.94L564.35,159.6L564.53,172.75L564.54,174.51L564.58,182.11L564.68,162.18L565.02,174.19L565.03,177.58L565.18,161.53L565.57,181.75L565.75,177.45L565.76,171.23L566.38,160.44L566.44,183.99L566.48,179.37L566.49,177.56L566.53,161.93L566.72,185.58L567.22,183.38L567.23,184.92L567.24,185.69L567.65,163.71L567.86,176.85L567.87,173.51L568.02,162.99L568.34,183.47L568.6,174.47L568.61,176.28L568.65,180.42L568.73,164.22L568.74,162.51L568.82,185.84L569.51,173.18L569.52,171.23L569.59,165.03L569.94,191.4L570.19,176.06L570.2,179.98L570.47,188.99L570.83,161.93L570.92,177.08L570.93,175.26L571.08,188.56L571.26,166.22L571.59,177.24L571.6,181.16L572.13,182.42L572.31,161.39L572.4,173.49L572.41,174.33L572.46,165.23L572.66,186.73L573.11,174.83L573.12,179.68L573.47,163.74L573.66,185.35L573.83,172.62L573.84,170.38L574.37,184.41L574.49,160.2L574.5,158.8L574.88,185.55L575.29,175.85L575.3,177.08L575.74,165.22L575.85,192.45L575.97,171.25L575.98,167.48L576.49,183.72L576.73,163.85L576.74,164.05L576.75,165.25L576.77,163.36L576.85,185.21L576.86,185.48L577.23,165.37L577.63,177.91L577.64,175.97L577.74,164.24L577.86,182.81L578.37,180.56L578.38,180.23L578.71,163.67L579.1,174.27L579.11,176.95L579.27,160.39L579.63,185.34L579.79,169.01L579.8,167.64L579.85,163.48L579.98,180.4L580.49,173.74L580.5,176.96L580.77,181.82L580.92,163.48L581.23,177.39L581.24,179.62L581.41,180.37L581.5,165.36L581.64,177.31L581.65,177.38L582.26,181.2L582.43,170.24L582.44,170.44L582.46,171.59L582.48,179.83L582.77,168.28L583.21,174.72L583.22,174L583.56,167.79L583.86,184.25L583.95,170.29L583.96,169.41L583.99,165.69L584.12,181.78L584.68,173.28L584.69,173.66L584.76,181.61L584.99,168.57L585.43,177.84L585.44,177.29L585.5,178.16L585.7,169.89L585.71,169.01L585.91,181.24L586.05,167.98L586.48,175.06L586.49,172.35L586.61,179.19L587.19,165.16L587.2,163.83L587.98,180.24L587.99,179L588,178.7L588.64,184.04L588.7,168.44L588.78,168.48L588.79,171.58L589.17,181.98L589.3,167.22L589.49,174.9L589.5,170.43L589.51,167.12L589.63,183.65L590.23,176.02L590.25,174.5L590.36,165.16L590.59,181.17L590.96,171.63L590.97,168.58L591.38,176.99L591.52,165.8L591.73,172.62L591.74,170.04L592.14,166.98L592.18,176.56L592.47,173.02L592.48,172.96L592.78,164.89L592.85,182.78L593.13,178.01L593.14,180.01L593.15,180.36L593.55,168.33L593.59,169.99L593.6,169.29L594.12,166.07L594.36,181.19L594.37,179.79L594.38,176.97L594.92,181.24L595.17,167.76L595.21,169.3L595.22,169.3L595.44,181.56L595.57,168.34L595.99,174.38L596,173.6L596.49,167.62L596.61,180.29L596.69,174.84L596.7,168.71L596.84,109.27L597.24,236.49L597.47,218.28L597.48,205.79L597.71,209.9L598.18,104.73L598.4,122.5L598.41,127.84L598.88,210.96L599.29,191.04L599.3,188.97L599.43,201.8L599.6,164.3L599.83,192.99L599.84,199.54L599.85,203.96L600.47,152.88L600.49,151.28L600.58,136.15L601.34,196.92L601.42,188.91L601.43,186.08L602.08,160.93L602.2,176.92L602.21,176.92L602.55,184.43L603.03,165.39L603.08,167.07L603.09,169.83L603.51,181.94L603.66,166.41L603.88,177.65L603.89,174.16L604.4,182.98L604.48,157.82L604.62,170.44L604.63,176.03L604.64,162.77L604.91,188.56L605.37,182.88L605.38,182.08L605.41,185.63L605.75,161.83L606.11,176.64L606.12,174.52L606.3,159.31L606.65,178.67L606.66,181.56L606.68,182.68L606.88,163.06L607.14,177.22L607.15,180.19L607.41,183.59L607.46,164.63L607.85,177.69L607.87,176.07L608.33,180.18L608.47,162.59L608.63,170.87L608.64,170.59L608.74,170.43L608.89,186.93L609.34,171.4L609.35,166.47L609.51,176.78L609.7,162.78L610,175.6L610.01,177.96L610.25,184.08L610.42,164.44L610.75,174.96L610.76,178.36L611.01,157.17L611.17,185.94L611.49,178.87L611.5,173.94L611.9,188.28L612.25,161.56L612.26,166.02L612.27,167.49L612.44,183.8L612.75,160.89L613.06,173.49L613.07,173.43L613.34,183.3L613.41,153.49L613.72,175.37L613.73,175.88L613.9,161.42L614.02,196.26L614.43,175.03L614.44,179.62L614.65,190.73L615.02,157.68L615.16,173.29L615.17,169.46L615.24,146.6L615.37,186.17L615.9,167.08L615.91,172.85L616.09,156.22L616.57,191.63L616.66,183.84L616.67,182.11L616.77,195.46L617.48,147.72L617.49,150.78L617.5,153.06L618.31,193.41L618.33,179.69L618.34,172.85L618.89,194.88L619,151.91L619.06,177.41L619.07,180.76L619.51,196.39L619.61,144.12L619.76,154.59L619.77,151.37L619.81,141.55L619.85,166.37L619.86,165.59L619.87,171.9L620,157.59L620.54,190.63L620.62,178.09L620.63,177.79L620.78,190.85L620.89,163.27L621.04,166.94L621.05,161.05L621.18,188.53L621.25,148.48L621.72,183.68L621.73,184.95L621.9,192.57L622.36,148.37L622.47,184.37L622.48,180.81L623.1,138.93L623.18,206.34L623.19,208.65L623.2,211.95L623.29,142.16L623.8,165.19L623.81,155.11L623.83,145.62L624.3,203.59L624.56,149.03L624.57,152.02L624.67,203.41L624.93,140.82L625.28,162.11L625.29,162.88L625.49,154.38L625.77,198.86L625.9,183.14L625.91,192.04L625.95,201.9L626.21,159.44L626.56,161.93L626.57,158.76L626.58,154.48L626.66,190.31L627.3,161.84L627.31,164.01L627.58,189.06L627.91,158.97L628.03,178.66L628.04,162.79L628.1,156.01L628.23,187.58L628.33,161.61L628.35,161.92L628.74,154.96L628.86,199.75L628.91,164.23L628.92,157.87L628.93,149.97L629.42,203.28L629.63,183.9L629.64,189.37L629.8,202.91L630.31,154.22L630.36,165.6L630.37,172.68L630.53,147.68L630.59,189.46L631.11,166.93L631.12,165.74L631.5,158.73L631.8,201.71L631.85,176.02L631.86,163.31L631.87,158.66L632.36,186.31L632.6,166.15L632.61,168.27L633.2,143.06L633.31,190.27L633.35,178.75L633.36,162.69L633.8,147.15L634.07,194.75L634.09,191.83L634.83,157.84L634.87,165.74L634.88,170.67L634.94,192.35L635.05,152.09L635.62,161.85L635.63,157.9L635.71,190.34L635.98,169.68L635.99,165.4L636.27,186.24L636.71,162.32L636.73,164.68L636.74,165.72L636.75,165.45L636.84,182.87L636.85,185.6L637.13,158.51L637.25,187.56L637.64,168.03L637.65,171.02L638.02,187.82L638.09,159.09L638.39,167.83L638.4,161.22L638.41,157.1L638.55,190.71L639.1,180.65L639.11,181.51L639.47,187.34L639.58,153.18L639.84,185.53L639.85,184.67L640.43,158.2L640.54,189.79L640.61,166.66L640.62,171.29L640.66,161.44L640.72,176.87L640.73,182.05L641.1,193.71L641.38,158.79L641.48,188.13L641.49,183.12L641.65,188.95L641.75,154.41L642.26,167.6L642.28,168.87L642.3,168.33L642.34,184.3L642.35,189.99L642.36,193.9L642.47,161.77L643.07,179.74L643.08,180.96L643.27,185.76L643.37,163.45L643.44,184.97L643.45,190.21L643.48,194.31L643.95,149.93L644.08,172.12L644.09,162.93L644.12,155.72L644.61,183.31L644.77,183.21L644.78,183.99L645.3,190.35L645.58,159.42L645.61,163.06L645.62,169.17L645.68,184.7L646.13,161.4L646.39,180.96L646.4,180.07L646.7,165.04L646.81,191.35L647.02,176.72L647.03,172.85L647.09,168.56L647.15,180.48L647.53,175.91L647.54,179.32L647.88,181.37L648.16,164.69L648.27,176.73L648.28,173.86L648.37,165.55L648.48,183.47L648.82,181.65L648.84,182.93L648.85,184.27L649.01,165.73L649.48,173.84L649.49,169.1L649.69,165.07L649.76,181.43L650.17,175.52L650.18,179.01L650.19,179.18L650.22,173.07L650.23,166.97L650.26,160.66L650.36,178.58L650.97,167.3L650.98,167.01L651.47,165.81L651.52,179.67L651.74,173.83L651.75,173.3L652.02,165.6L652.15,188.26L652.51,177.86L652.53,178.68L652.59,161.82L652.73,181.14L653.28,176.43L653.29,176L653.31,181.79L653.73,163.68L654.02,175.11L654.03,174.85L654.13,168.4L654.75,179.52L654.79,170.72L654.8,169.3L654.85,163.2L654.97,178.39L655.57,173.64L655.58,171.23L655.86,168.02L655.95,188.74L656,181.25" style="vector-effect: non-scaling-stroke; fill: none; stroke: rgb(44, 160, 44); stroke-opacity: 1; stroke-width: 2px; opacity: 1;"/></g><g class="points"/><g class="text"/></g></g></g><g class="overplot"/><path class="xlines-above crisp" d="" style="fill: none; stroke-width: 1px; stroke: rgb(0, 0, 0); stroke-opacity: 0;"/><path class="ylines-above crisp" d="" style="fill: none; stroke-width: 1px; stroke: rgb(0, 0, 0); stroke-opacity: 0;"/><g class="overlines-above"/><g class="xaxislayer-above"><path class="xtick ticks crisp" d="M0,421v5" transform="translate(80,0)" style="stroke: rgb(51, 51, 51); stroke-opacity: 1; stroke-width: 1px;"/><path class="xtick ticks crisp" d="M0,421v5" transform="translate(162,0)" style="stroke: rgb(51, 51, 51); stroke-opacity: 1; stroke-width: 1px;"/><path class="xtick ticks crisp" d="M0,421v5" transform="translate(244,0)" style="stroke: rgb(51, 51, 51); stroke-opacity: 1; stroke-width: 1px;"/><path class="xtick ticks crisp" d="M0,421v5" transform="translate(326,0)" style="stroke: rgb(51, 51, 51); stroke-opacity: 1; stroke-width: 1px;"/><path class="xtick ticks crisp" d="M0,421v5" transform="translate(408.01,0)" style="stroke: rgb(51, 51, 51); stroke-opacity: 1; stroke-width: 1px;"/><path class="xtick ticks crisp" d="M0,421v5" transform="translate(490.01,0)" style="stroke: rgb(51, 51, 51); stroke-opacity: 1; stroke-width: 1px;"/><path class="xtick ticks crisp" d="M0,421v5" transform="translate(572.01,0)" style="stroke: rgb(51, 51, 51); stroke-opacity: 1; stroke-width: 1px;"/><path class="xtick ticks crisp" d="M0,421v5" transform="translate(654.01,0)" style="stroke: rgb(51, 51, 51); stroke-opacity: 1; stroke-width: 1px;"/><path class="xtick ticks crisp" d="M0,421v5" transform="translate(736.01,0)" style="stroke: rgb(51, 51, 51); stroke-opacity: 1; stroke-width: 1px;"/><g class="xtick"><text text-anchor="middle" x="0" y="446.4" transform="translate(80,0)" style="font-family: 'Open Sans', verdana, arial, sans-serif; font-size: 17px; fill: rgb(51, 51, 51); fill-opacity: 1; white-space: pre;">0</text></g><g class="xtick"><text text-anchor="middle" x="0" y="446.4" transform="translate(162,0)" style="font-family: 'Open Sans', verdana, arial, sans-serif; font-size: 17px; fill: rgb(51, 51, 51); fill-opacity: 1; white-space: pre;">500</text></g><g class="xtick"><text text-anchor="middle" x="0" y="446.4" transform="translate(244,0)" style="font-family: 'Open Sans', verdana, arial, sans-serif; font-size: 17px; fill: rgb(51, 51, 51); fill-opacity: 1; white-space: pre;">1000</text></g><g class="xtick"><text text-anchor="middle" x="0" y="446.4" transform="translate(326,0)" style="font-family: 'Open Sans', verdana, arial, sans-serif; font-size: 17px; fill: rgb(51, 51, 51); fill-opacity: 1; white-space: pre;">1500</text></g><g class="xtick"><text text-anchor="middle" x="0" y="446.4" transform="translate(408.01,0)" style="font-family: 'Open Sans', verdana, arial, sans-serif; font-size: 17px; fill: rgb(51, 51, 51); fill-opacity: 1; white-space: pre;">2000</text></g><g class="xtick"><text text-anchor="middle" x="0" y="446.4" transform="translate(490.01,0)" style="font-family: 'Open Sans', verdana, arial, sans-serif; font-size: 17px; fill: rgb(51, 51, 51); fill-opacity: 1; white-space: pre;">2500</text></g><g class="xtick"><text text-anchor="middle" x="0" y="446.4" transform="translate(572.01,0)" style="font-family: 'Open Sans', verdana, arial, sans-serif; font-size: 17px; fill: rgb(51, 51, 51); fill-opacity: 1; white-space: pre;">3000</text></g><g class="xtick"><text text-anchor="middle" x="0" y="446.4" transform="translate(654.01,0)" style="font-family: 'Open Sans', verdana, arial, sans-serif; font-size: 17px; fill: rgb(51, 51, 51); fill-opacity: 1; white-space: pre;">3500</text></g><g class="xtick"><text text-anchor="middle" x="0" y="446.4" transform="translate(736.01,0)" style="font-family: 'Open Sans', verdana, arial, sans-serif; font-size: 17px; fill: rgb(51, 51, 51); fill-opacity: 1; white-space: pre;">4000</text></g></g><g class="yaxislayer-above"><path class="ytick ticks crisp" d="M79,0h-5" transform="translate(0,375.2)" style="stroke: rgb(51, 51, 51); stroke-opacity: 1; stroke-width: 1px;"/><path class="ytick ticks crisp" d="M79,0h-5" transform="translate(0,317.59000000000003)" style="stroke: rgb(51, 51, 51); stroke-opacity: 1; stroke-width: 1px;"/><path class="ytick ticks crisp" d="M79,0h-5" transform="translate(0,259.98)" style="stroke: rgb(51, 51, 51); stroke-opacity: 1; stroke-width: 1px;"/><path class="ytick ticks crisp" d="M79,0h-5" transform="translate(0,202.38)" style="stroke: rgb(51, 51, 51); stroke-opacity: 1; stroke-width: 1px;"/><path class="ytick ticks crisp" d="M79,0h-5" transform="translate(0,144.77)" style="stroke: rgb(51, 51, 51); stroke-opacity: 1; stroke-width: 1px;"/><g class="ytick"><text text-anchor="end" x="70.6" y="5.949999999999999" transform="translate(0,375.2)" style="font-family: 'Open Sans', verdana, arial, sans-serif; font-size: 17px; fill: rgb(51, 51, 51); fill-opacity: 1; white-space: pre;">0.4</text></g><g class="ytick"><text text-anchor="end" x="70.6" y="5.949999999999999" transform="translate(0,317.59000000000003)" style="font-family: 'Open Sans', verdana, arial, sans-serif; font-size: 17px; fill: rgb(51, 51, 51); fill-opacity: 1; white-space: pre;">0.2</text></g><g class="ytick"><text text-anchor="end" x="70.6" y="5.949999999999999" transform="translate(0,259.98)" style="font-family: 'Open Sans', verdana, arial, sans-serif; font-size: 17px; fill: rgb(51, 51, 51); fill-opacity: 1; white-space: pre;">0</text></g><g class="ytick"><text text-anchor="end" x="70.6" y="5.949999999999999" transform="translate(0,202.38)" style="font-family: 'Open Sans', verdana, arial, sans-serif; font-size: 17px; fill: rgb(51, 51, 51); fill-opacity: 1; white-space: pre;">0.2</text></g><g class="ytick"><text text-anchor="end" x="70.6" y="5.949999999999999" transform="translate(0,144.77)" style="font-family: 'Open Sans', verdana, arial, sans-serif; font-size: 17px; fill: rgb(51, 51, 51); fill-opacity: 1; white-space: pre;">0.4</text></g></g><g class="overaxes-above"/></g></g><g class="polarlayer"/><g class="ternarylayer"/><g class="geolayer"/><g class="pielayer"/><g class="sunburstlayer"/><g class="glimages"/><defs id="topdefs-fa3e95"><g class="clips"/><clipPath id="legendfa3e95"><rect width="219" height="36" x="0" y="0"/></clipPath></defs><g class="layer-above"><g class="imagelayer"/><g class="shapelayer"/></g><g class="infolayer"><g class="legend" pointer-events="all" transform="translate(749.12, 100)"><rect class="bg" shape-rendering="crispEdges" style="stroke: rgb(68, 68, 68); stroke-opacity: 1; fill: rgb(255, 255, 255); fill-opacity: 1; stroke-width: 0px;" width="219" height="36" x="0" y="0"/><g class="scrollbox" transform="translate(0, 0)" clip-path="url('#legendfa3e95')"><g class="groups" transform="translate(0, 0)"><g class="traces" transform="translate(0, 17.55)" style="opacity: 1;"><text class="legendtext user-select-none" text-anchor="start" x="40" y="6.63" style="font-family: 'Open Sans', verdana, arial, sans-serif; font-size: 17px; fill: rgb(51, 51, 51); fill-opacity: 1; white-space: pre;">class=children_playing</text><g class="layers" style="opacity: 1;"><g class="legendfill"/><g class="legendlines"><path class="js-line" d="M5,0h30" style="fill: none; stroke: rgb(44, 160, 44); stroke-opacity: 1; stroke-width: 2px;"/></g><g class="legendsymbols"><g class="legendpoints"/></g></g><rect class="legendtoggle" pointer-events="all" x="0" y="-12.55" width="259" height="25.1" style="cursor: pointer; fill: rgb(0, 0, 0); fill-opacity: 0;"/></g></g></g><rect class="scrollbar" rx="20" ry="3" width="0" height="0" style="fill: rgb(128, 139, 164); fill-opacity: 1;" x="0" y="0"/></g><g class="g-gtitle"><text class="gtitle" x="490" y="50" text-anchor="middle" dy="0em" style="font-family: 'Open Sans', verdana, arial, sans-serif; font-size: 24px; fill: rgb(51, 51, 51); opacity: 1; font-weight: normal; white-space: pre;">audio wave (time vs amplitude)</text></g><g class="g-xtitle"><text class="xtitle" x="408" y="490" text-anchor="middle" style="font-family: 'Open Sans', verdana, arial, sans-serif; font-size: 20px; fill: rgb(51, 51, 51); opacity: 1; font-weight: normal; white-space: pre;">time(ms)</text></g><g class="g-ytitle"><text class="ytitle" transform="rotate(-90,30,260)" x="30" y="260" text-anchor="middle" style="font-family: 'Open Sans', verdana, arial, sans-serif; font-size: 20px; fill: rgb(51, 51, 51); opacity: 1; font-weight: normal; white-space: pre;">amplitude</text></g></g></svg>