<svg class="main-svg" xmlns="http://www.w3.org/2000/svg" xmlns:xlink="http://www.w3.org/1999/xlink" width="980" height="500" viewBox="0 0 980 500"><rect x="0" y="0" width="980" height="500" style="fill: rgb(255, 255, 255); fill-opacity: 1;"/><defs id="defs-75f3ad"><g class="clips"><clipPath id="clip75f3adxyplot" class="plotclip"><rect width="676" height="320"/></clipPath><clipPath class="axesclip" id="clip75f3adx"><rect x="80" y="0" width="676" height="500"/></clipPath><clipPath class="axesclip" id="clip75f3ady"><rect x="0" y="100" width="980" height="320"/></clipPath><clipPath class="axesclip" id="clip75f3adxy"><rect x="80" y="100" width="676" height="320"/></clipPath></g><g class="gradients"/></defs><g class="bglayer"><rect class="bg" x="80" y="100" width="676" height="320" style="fill: rgb(237, 237, 237); fill-opacity: 1; stroke-width: 0;"/></g><g class="layer-below"><g class="imagelayer"/><g class="shapelayer"/></g><g class="cartesianlayer"><g class="subplot xy"><g class="layer-subplot"><g class="shapelayer"/><g class="imagelayer"/></g><g class="gridlayer"><g class="x"><path class="xgrid crisp" transform="translate(164.5,0)" d="M0,100v320" style="stroke: rgb(255, 255, 255); stroke-opacity: 1; stroke-width: 1px;"/><path class="xgrid crisp" transform="translate(249,0)" d="M0,100v320" style="stroke: rgb(255, 255, 255); stroke-opacity: 1; stroke-width: 1px;"/><path class="xgrid crisp" transform="translate(333.5,0)" d="M0,100v320" style="stroke: rgb(255, 255, 255); stroke-opacity: 1; stroke-width: 1px;"/><path class="xgrid crisp" transform="translate(418.01,0)" d="M0,100v320" style="stroke: rgb(255, 255, 255); stroke-opacity: 1; stroke-width: 1px;"/><path class="xgrid crisp" transform="translate(502.51,0)" d="M0,100v320" style="stroke: rgb(255, 255, 255); stroke-opacity: 1; stroke-width: 1px;"/><path class="xgrid crisp" transform="translate(587.01,0)" d="M0,100v320" style="stroke: rgb(255, 255, 255); stroke-opacity: 1; stroke-width: 1px;"/><path class="xgrid crisp" transform="translate(671.51,0)" d="M0,100v320" style="stroke: rgb(255, 255, 255); stroke-opacity: 1; stroke-width: 1px;"/></g><g class="y"><path class="ygrid crisp" transform="translate(0,375.2)" d="M80,0h676" style="stroke: rgb(255, 255, 255); stroke-opacity: 1; stroke-width: 1px;"/><path class="ygrid crisp" transform="translate(0,317.59000000000003)" d="M80,0h676" style="stroke: rgb(255, 255, 255); stroke-opacity: 1; stroke-width: 1px;"/><path class="ygrid crisp" transform="translate(0,202.38)" d="M80,0h676" style="stroke: rgb(255, 255, 255); stroke-opacity: 1; stroke-width: 1px;"/><path class="ygrid crisp" transform="translate(0,144.77)" d="M80,0h676" style="stroke: rgb(255, 255, 255); stroke-opacity: 1; stroke-width: 1px;"/></g></g><g class="zerolinelayer"><path class="xzl zl crisp" transform="translate(80,0)" d="M0,100v320" style="stroke: rgb(255, 255, 255); stroke-opacity: 1; stroke-width: 1px;"/><path class="yzl zl crisp" transform="translate(0,259.98)" d="M80,0h676" style="stroke: rgb(255, 255, 255); stroke-opacity: 1; stroke-width: 1px;"/></g><path class="xlines-below"/><path class="ylines-below"/><g class="overlines-below"/><g class="xaxislayer-below"/><g class="yaxislayer-below"/><g class="overaxes-below"/><g class="plot" transform="translate(80, 100)" clip-path="url('#clip75f3adxyplot')"><g class="scatterlayer mlayer"><g class="trace scatter trace52f5618e-7072-434d-b3b2-e4d2e374e6f3" style="stroke-miterlimit: 2; opacity: 1;"><g class="fills"/><g class="errorbars"/><g class="lines"><path class="js-line" d="M0,180.7L0.03,186.62L0.3,162.8L0.73,176.21L0.74,174.89L0.97,166.82L1.19,180.19L1.48,172.84L1.49,173.35L1.74,166.49L2.11,182.49L2.22,170.62L2.23,168.85L2.25,164.19L2.64,182.44L2.95,176.57L2.96,178.18L2.97,180.96L3.03,169.79L3.69,174.82L3.7,174.22L3.77,181.74L3.87,167.23L4.35,175.08L4.36,172.98L4.52,169.62L4.83,181.81L5.06,175.39L5.07,176.76L5.63,185.37L5.71,166.31L5.82,177.43L5.83,177.05L6.35,165.84L6.46,180.94L6.59,173.32L6.6,175.02L6.78,166.62L7.19,185.79L7.34,175.3L7.35,174.57L7.4,165.57L7.53,180.09L8.07,172.3L8.08,175.32L8.34,180.59L8.51,169.78L8.82,173.39L8.83,173.1L9.02,181.02L9.09,166.54L9.41,174.12L9.42,174.98L9.61,163.75L9.73,182.41L10.17,177.09L10.18,176.79L10.47,168.39L10.56,183.53L10.99,172.27L11,172.69L11.33,179.94L11.57,160.33L11.76,170.58L11.77,172.21L11.86,179.87L12.24,164.91L12.53,175.19L12.54,174.48L12.84,180.71L13.27,168.93L13.28,171.83L13.29,174.7L13.39,177.69L13.87,164.18L13.95,176.98L13.96,179.3L14.05,161.9L14.68,185.07L14.71,179.19L14.72,177.47L14.83,184.77L15.23,165.32L15.48,175.51L15.5,176.94L15.57,163.66L16.15,179.97L16.16,182.97L16.18,184.77L16.28,167.56L16.9,181.6L16.91,181.08L16.93,182.58L17.78,158.99L17.81,162.78L17.82,166.65L18.07,163.61L18.54,185.56L18.58,180.29L18.59,174.19L18.7,188.09L19.15,165.43L19.17,165.43L19.18,163.2L19.23,180.74L19.45,156.63L19.92,169.79L19.93,165.78L19.95,163.14L20.05,189.22L20.65,169.56L20.66,171.51L21.05,185.03L21.09,160.51L21.4,175.79L21.41,168.75L21.67,183.23L21.78,154.51L22.14,170.83L22.15,176.63L22.29,167.32L22.35,184.84L22.88,168.64L22.89,166.52L23.02,184.85L23.41,163.22L23.58,174.65L23.59,178.05L23.93,184.3L24.08,162.01L24.34,181.06L24.35,181.94L24.47,191.41L24.74,156.6L24.94,181.27L24.95,182.1L25.13,192.77L25.18,154.85L25.74,159.35L25.75,166.53L25.79,189.35L26.07,154.52L26.5,167.88L26.51,172.81L26.55,182.77L27.24,163.62L27.25,163.77L27.48,163.25L27.86,187.45L27.9,169.25L27.91,166.59L28.17,190.56L28.68,180.85L28.69,177.65L29.21,180.67L29.27,161.98L29.44,174.57L29.45,176.94L29.6,165.99L29.79,181.39L30.19,177.32L30.2,175.74L30.24,167.55L30.49,181.45L30.5,184.41L31.21,162.74L31.29,172.17L31.3,173.57L31.74,165.67L31.79,182.74L32.04,172.2L32.05,171.61L32.25,165.28L32.44,183.07L32.69,175.96L32.7,176.32L32.77,177.99L32.83,164.55L33.43,172.51L33.44,175.03L33.5,165.3L34.1,181.92L34.15,174.02L34.16,172.35L34.74,181.47L34.83,162.23L34.92,167.79L34.93,171.15L35.15,166.9L35.19,179.55L35.7,176.76L35.71,172.57L35.92,179.31L36.46,165.79L36.48,168.8L36.49,172.24L36.59,180.88L37.14,164.4L37.27,178.37L37.28,177.93L37.51,183.95L37.79,167.1L38.02,177.45L38.03,177.7L38.07,179.83L38.56,169.48L38.7,175.44L38.71,173.81L39.25,166L39.31,178.93L39.44,176.78L39.45,177.61L39.6,168L39.98,182.58L40.17,176.06L40.18,177.28L40.4,179.15L40.46,168.73L40.73,174.35L40.74,176.91L40.75,177.19L41.1,167.51L41.11,164.56L41.48,180.07L41.83,175.71L41.84,173.17L42.12,182.66L42.34,169.93L42.47,169.93L42.48,168.01L42.5,167.79L42.62,179.05L42.72,177.58L42.73,178.93L43.25,180.36L43.35,167.1L43.51,173.59L43.52,174.17L43.59,179.58L43.99,164.75L44.2,169.2L44.22,168.88L44.34,164.7L44.93,179.23L45,173.69L45.01,173.64L45.07,183.13L45.63,166.25L45.77,177.4L45.78,177.57L45.95,166.1L46.23,178.94L46.24,179.5L46.5,170.04L46.56,184.73L47.01,172.17L47.02,171.83L47.27,168.22L47.41,179.8L47.64,173.84L47.65,172.12L48.01,166.87L48.07,179.56L48.4,171.34L48.41,173.2L48.79,165.71L49.07,179.84L49.14,171.49L49.15,169.74L49.34,168L49.4,182.91L49.87,171.8L49.88,172.05L49.99,167.07L50.38,179.29L50.39,180.99L50.51,165.85L51.14,175.36L51.15,177.81L51.71,183.25L51.79,168.5L51.86,174.29L51.87,170.95L52.04,179.24L52.56,163.66L52.61,173.81L52.62,173.1L52.75,164.92L53.13,180.91L53.34,176.79L53.35,179.51L53.69,186.2L53.74,168.88L53.94,174.21L53.95,172.39L54.07,166.98L54.19,180.11L54.7,170.94L54.71,170.78L55.38,167.51L55.43,184.13L55.46,176.64L55.48,171.04L55.65,182.79L55.72,164.35L56.21,173.46L56.23,176.29L56.39,166.04L56.45,181.6L56.99,173.68L57,176.54L57.36,180.85L57.62,165.36L57.72,172.95L57.74,172.81L58.13,163.4L58.42,178.69L58.5,166.69L58.51,171.7L58.82,168.11L59.2,182.99L59.26,173.44L59.27,170.61L59.75,178.47L59.87,167.35L59.99,172.06L60,176.41L60.22,166.62L60.31,179.2L60.72,172.54L60.74,172.54L60.87,180.41L61.35,170.85L61.42,173.63L61.43,173.11L61.61,167.42L61.75,178.68L62,169.9L62.01,167.84L62.08,181.14L62.28,170.86L62.29,169.23L62.48,166.66L62.91,179.06L63.05,174.44L63.06,172.35L63.16,167.89L63.41,179.5L63.78,174.54L63.79,176.5L63.89,177.77L63.95,167.8L64.43,173.1L64.44,172.01L64.74,181.02L64.83,169.44L65.04,175.07L65.06,177.11L65.07,177.72L65.13,168.11L65.74,175.66L65.75,173.38L65.81,166.59L66.24,184.34L66.51,170.06L66.52,170.49L66.79,179.18L66.97,166.85L67,174.29L67.01,176.1L67.08,166.87L67.58,183.69L67.74,174L67.75,172.63L67.87,163.89L67.97,180L68.52,176.51L68.53,176.06L69.06,180.99L69.12,167.35L69.13,166.18L69.76,181.38L69.83,168.52L69.84,168.54L70.29,188.23L70.36,167.62L70.55,175.28L70.56,171.85L70.64,192.12L71.06,159.77L71.29,177.33L71.3,177.3L71.41,166.63L71.51,183.25L71.55,167.52L71.56,161.81L71.57,158.12L72.14,190.01L72.26,179.46L72.27,181.06L72.49,191.19L72.55,162.78L72.8,179.92L72.81,181.64L72.85,186.92L72.9,164.93L73.44,174.54L73.45,171.13L73.88,188.31L73.95,158.37L74.16,173.62L74.17,180.48L74.2,194.78L74.27,159.43L74.9,174.39L74.91,173.64L75.39,189.83L75.46,156.23L75.66,172.37L75.67,176.1L75.79,162.67L75.86,185.57L76.4,171.1L76.41,167.34L76.59,56.37L76.64,182.51L76.71,149.45L76.72,184.11L76.82,84.3L77.18,234.01L77.47,200.38L77.48,191.98L78.07,114.69L78.14,203.47L78.28,152.98L78.29,152.38L78.45,132.96L78.81,193.81L78.89,177.14L78.9,185.31L79.04,129.65L79.61,210.02L79.68,206.51L79.7,206.46L79.75,214L80.2,158.3L80.21,157.3L80.58,137.6L80.96,172.57L80.98,167.25L80.99,166.26L81.4,156.4L81.42,188.76L81.43,205.3L82.19,153.12L82.23,171.15L82.24,176.55L82.47,143.34L82.92,195.98L82.97,177.28L82.98,170.61L83.19,201.63L83.64,165.44L83.72,180.94L83.73,178.6L84.3,132.41L84.51,165.66L84.52,172.42L84.83,168.94L84.9,197.1L85.29,186.95L85.3,185.46L85.33,186.11L85.76,122.58L86.15,163.61L86.16,163.56L86.51,205.17L86.83,175.79L86.84,173.84L86.95,179.59L87.21,155.53L87.59,170.83L87.6,176.4L87.68,153.83L87.75,172.26L87.77,175.43L87.88,168.22L88.31,188.08L88.49,173.71L88.5,171.68L88.64,158.89L88.72,179.88L89.05,171.89L89.06,177.35L89.21,171.92L89.47,185.41L89.79,177.38L89.8,174.85L90.15,176.59L90.38,144.39L90.54,175.51L90.55,175.67L90.61,154.66L91.01,189.79L91.28,178.89L91.29,182.36L91.38,169.38L91.49,191.58L91.95,174.26L91.96,171.11L92.15,188.46L92.53,157.98L92.68,176L92.69,178.81L93.18,161.57L93.34,189.46L93.42,179.86L93.43,184.89L93.5,171.61L93.85,196.08L94.17,182.12L94.18,179.15L94.19,180.43L94.6,154.46L94.78,160.53L94.79,159.9L94.83,152.93L95.42,185.62L95.47,179.18L95.48,180L95.75,192.05L96.16,162.97L96.24,172.63L96.25,176.2L96.27,175.04L96.34,193.86L96.46,178.73L96.47,173.91L96.55,185.39L97.03,160.23L97.16,175.53L97.17,177.03L97.45,151.39L97.81,177.46L97.94,163.13L97.95,165.5L98.39,191.28L98.75,178.02L98.76,171.12L98.89,185.86L99.31,160.21L99.51,172.29L99.52,172.47L99.63,157.39L99.69,176.44L99.7,181.86L100.44,155.93L100.51,167.65L100.52,167.68L100.68,166.44L101.23,184.64L101.25,179.35L101.26,174.14L101.51,191.88L101.96,158.81L102.02,167.47L102.04,169.52L102.3,163.84L102.74,185.66L102.81,176.08L102.82,173.84L103.01,164.42L103.1,188.58L103.55,175.48L103.56,173.74L103.84,163.93L104.24,185.95L104.27,185.06L104.29,182.15L104.36,184.86L104.42,164.91L104.68,172.23L104.69,171.02L104.8,175.73L105.01,164.88L105.02,164.05L105.05,159.88L105.59,191.4L105.61,191.51L105.79,196.28L106.31,159.64L106.4,177.65L106.41,180.97L106.49,163.46L106.81,185.21L107,172.66L107.01,170.48L107.21,192.49L107.38,161.92L107.39,159.03L107.49,196.14L107.77,157.5L108.16,180.82L108.17,178.03L108.27,185.77L108.69,157.32L108.96,162.8L108.98,163.07L109.28,162.05L109.82,185.58L109.83,186.46L109.9,191.94L109.97,181.53L110.03,181.92L110.04,181.06L110.15,186.91L110.97,156.32L111,164.53L111.01,167.27L111.63,161.45L111.77,179.01L111.78,176.39L112,181.81L112.16,163.57L112.52,178.13L112.53,180.12L112.61,162.96L112.67,176.64L112.68,179.02L112.77,189.28L113.45,164.28L113.5,167.46L113.51,168.45L113.61,181.04L114.18,159.37L114.26,171.19L114.27,170.82L114.46,156.87L114.96,200.14L115.04,180.97L115.05,179.88L115.18,196.02L115.79,159.02L115.83,164.67L115.84,167.46L116.13,154.4L116.44,179.13L116.55,167.06L116.56,163.6L116.57,161.83L117.04,188.86L117.22,176.05L117.24,179.65L117.4,189.16L117.85,155.86L117.96,163.94L117.97,160.23L118.45,152.97L118.73,197.42L118.78,170.66L118.79,165.52L118.81,159.23L119.1,207.96L119.48,193.54L119.5,191.87L120.16,141.55L120.26,171L120.27,171.08L120.28,171.31L120.31,157.39L120.32,153.14L120.53,146.52L120.86,188.2L120.97,179.36L120.98,182.06L121.08,190.49L121.11,179.41L121.14,187.89L121.15,191.87L121.38,196.6L121.81,158.69L121.97,168.58L121.98,170.82L122.07,157.36L122.57,183.5L122.7,172.08L122.71,181.42L122.73,188.41L123.33,161.28L123.42,171.4L123.44,167.42L123.7,160.02L124.21,190.03L124.22,180.59L124.23,173.61L124.54,196.58L124.66,158.32L124.95,182.99L124.96,188.9L124.98,198.29L125.6,160.53L125.69,174.28L125.7,178.14L125.73,186.43L125.83,146.62L126.36,171.38L126.37,165.63L126.41,162.73L126.56,194.45L126.98,172.49L126.99,158.47L127.11,189.45L127.61,141.32L127.69,172L127.7,170.99L127.73,174.73L127.79,157.54L127.8,151.19L127.81,150.79L127.87,177.46L127.88,179.17L128.36,195.66L128.45,165.76L128.63,176.6L128.64,173.49L128.72,184.74L128.88,160.41L129.4,167.17L129.41,173.22L129.84,184.98L130.13,157.49L130.15,167.22L130.16,163.67L130.34,158.66L130.43,182.11L130.79,172.15L130.8,174.08L131.47,161.96L131.57,202.69L131.62,194.78L131.63,190.81L131.77,201.18L132.27,152.73L132.36,187.39L132.37,189.89L132.47,144.7L133.09,159.85L133.1,170.34L133.45,162.78L133.56,187.9L133.63,166.17L133.64,162.23L134.12,197.32L134.24,150.6L134.4,175.7L134.41,170.74L134.43,157.26L134.99,192.48L135.14,182.39L135.15,181.91L135.21,185.47L135.78,157.58L135.87,182.33L135.88,181.69L135.96,156.29L136.5,187.97L136.55,186.92L136.56,186.37L136.74,196.63L137.23,164.94L137.34,172.3L137.35,177.01L137.91,157.65L137.99,188.51L138.14,163.36L138.15,170.16L138.24,191.94L138.32,162.18L138.89,172.43L138.9,171.17L138.93,162.91L139.42,189.41L139.56,182.23L139.58,181.81L140.01,192.1L140.11,155.95L140.45,167.56L140.46,172.66L140.56,160.26L141.1,187.6L141.27,184.84L141.28,179.58L141.31,187.57L141.97,161.98L142.05,175.44L142.06,178.74L142.07,182.93L142.15,157.75L142.8,176.75L142.81,175.19L143.07,180.24L143.39,161.24L143.53,172.47L143.54,171.65L143.58,158.28L144.06,187.41L144.26,183.55L144.28,182.95L144.49,193.7L144.61,164.51L144.97,167.11L144.98,164.14L145.59,149.48L145.66,188.54L145.67,188.77L145.76,154.01L146.41,180.05L146.42,181.03L146.57,194.87L147.05,143.45L147.13,188.08L147.14,189.29L147.19,170.05L147.2,162.03L147.53,192.63L147.61,151.58L147.9,188.54L147.91,191.77L148.12,201.25L148.38,160.02L148.57,163.73L148.59,166.26L148.7,189.28L148.84,159.2L149.26,173.84L149.27,174.95L149.42,159.05L149.81,184.18L149.87,171.44L149.88,168.23L150.32,157.79L150.42,187.85L150.59,170.5L150.6,175.89L150.62,190.47L150.71,154.32L151.34,179.5L151.35,173.26L151.41,158.98L151.71,196.49L152.11,176.56L152.12,171.54L152.3,188.86L152.69,155.67L152.85,184.09L152.86,179.05L153.16,167.02L153.27,187.51L153.54,181.63L153.55,183.74L153.7,191.43L154.01,165.12L154.33,168.96L154.34,170.61L154.63,152.12L154.72,190.31L155.11,182.43L155.12,176.78L155.35,184.34L155.5,158.13L155.86,170.35L155.87,177.37L156.12,159.54L156.18,183.69L156.19,186.65L156.6,192.81L156.68,155.68L156.97,175.99L156.98,175.72L157.09,156L157.21,182.72L157.71,178.87L157.72,184.49L157.99,194.72L158.27,158.01L158.51,165.04L158.52,162.89L158.56,196.14L159.05,159.49L159.26,182.93L159.27,178.3L159.84,189.75L159.92,152.21L160.02,166.75L160.03,173.77L160.09,188.57L160.33,156.17L160.71,177.37L160.72,165.11L160.95,154.84L161.08,192.88L161.41,172.4L161.42,175.82L161.55,161.06L161.61,184.78L161.62,189.12L162.12,157.54L162.18,173.08L162.19,178.47L162.68,158.17L162.75,189.44L162.88,162.44L162.89,161.61L162.91,158.81L163.03,191.99L163.34,179.56L163.35,185.87L163.37,193.39L163.71,157.57L164.08,178.14L164.09,175.02L164.62,153.51L164.8,194.08L164.82,179.66L164.83,171.38L164.88,153.45L164.99,177.35L165,188.52L165.44,150.47L165.62,198.83L165.71,167.62L165.72,162.72L166.05,149.79L166.22,190.73L166.38,170.4L166.39,180.77L166.88,154.23L167.03,201.21L167.13,179.69L167.14,179.28L167.31,188.12L167.84,155.14L167.88,179.77L167.89,183L167.91,195.81L168.35,152.46L168.6,155.98L168.61,155.7L168.83,154.42L168.9,195.04L169.15,172.95L169.16,165.72L169.29,191.91L169.78,146.17L169.88,173.93L169.89,177.48L170.26,198.71L170.34,151.87L170.62,163.31L170.63,162.24L170.69,180.68L170.7,185.18L170.83,202.42L170.98,159.11L171.2,171.63L171.21,165.15L171.34,191.64L171.85,149.25L171.91,175.22L171.92,186.65L171.94,195.22L172.62,152.75L172.63,155.19L172.64,157.05L172.68,198.42L173.21,148.58L173.39,177.16L173.4,170.19L173.57,149.37L173.89,205.91L174.14,178.74L174.15,175.79L174.48,196.52L174.75,159.37L174.89,173.5L174.9,171.55L175.11,180.05L175.34,162.53L175.55,172.86L175.56,168.18L175.58,158.56L176.06,190L176.29,174.19L176.3,179.26L176.65,197.63L176.77,162.94L177.04,178.93L177.05,173.98L177.25,191.24L177.35,158.36L177.79,175.04L177.8,174.44L178.02,161.68L178.08,187.67L178.54,176.24L178.55,171.9L178.6,167.33L178.66,182.01L178.67,185.29L178.86,188.54L179.2,164.61L179.46,174.47L179.47,174.81L179.58,157.16L180.08,182.16L180.15,166.25L180.16,163.5L180.17,162.56L180.61,185.9L180.7,181.55L180.71,185.55L180.83,188.75L181.26,164.65L181.38,170.62L181.39,170.22L181.69,181.74L181.76,164.54L181.77,162.43L181.92,188.1L182.46,151.15L182.47,150.98L183.17,192.95L183.23,165.06L183.24,166.45L183.49,166.33L183.56,188.4L184.01,179.33L184.02,176.87L184.19,167.34L184.62,183.08L184.77,172.32L184.78,174.76L184.9,185L185.34,154.73L185.53,177.37L185.54,172.88L185.74,159.48L185.81,191.53L186.28,174.3L186.29,174.89L186.79,185.54L186.96,165.57L187.02,173.93L187.03,177.18L187.5,156.67L187.69,184.5L187.73,173.66L187.74,169.5L187.77,165.12L187.97,185.44L188.45,173.75L188.46,176.16L188.5,183.66L188.83,163.34L189.18,172.08L189.19,168.36L189.5,160.26L189.73,184.87L189.94,168.36L189.95,168.62L190.09,163.95L190.62,183.52L190.68,168.23L190.69,168.03L190.88,161.45L191.12,184.9L191.26,166.81L191.27,159.93L191.28,157.02L191.73,185.33L191.98,171.02L191.99,171.64L192.25,162.22L192.34,179.37L192.42,176.81L192.43,177.55L192.47,162.27L192.95,183.48L193.18,164.96L193.19,167.65L193.51,182.62L193.77,160.04L193.94,174.19L193.95,169.04L194.38,162.75L194.54,178.2L194.69,171.9L194.7,173.03L194.86,179.64L195,163.05L195.19,174.27L195.2,179.34L195.61,164.6L195.72,184.32L195.83,173.16L195.84,171.84L196,167.62L196.07,184.12L196.51,171.55L196.52,169.08L196.61,166.11L197.26,184.81L197.3,174.61L197.31,170.39L197.46,185.58L197.57,162.17L198.04,178.63L198.05,178.51L198.44,197.72L198.53,155.9L198.7,171.04L198.72,170.76L198.83,192.36L199.29,161.71L199.42,179.1L199.43,181.71L199.87,164.09L200.17,175.34L200.18,176.75L200.22,183.17L200.24,174.02L200.25,170.79L200.51,157.08L200.81,186.32L200.97,175.97L200.98,177.58L201.46,156.86L201.54,190.12L201.6,168.6L201.61,163.69L201.85,156.86L201.95,195.11L202.32,172.87L202.33,180.81L202.72,189.59L202.83,157.98L203.07,182.67L203.08,178.21L203.67,191.15L203.77,147.66L203.82,175.24L203.83,183.87L204.19,156.21L204.25,194.99L204.55,174.84L204.56,176.1L204.65,187.91L204.97,160.2L205.31,174.76L205.32,175.01L205.54,158.83L205.68,187.4L206.06,171.37L206.07,175.53L206.13,163.85L206.27,186.07L206.71,174.23L206.72,169.25L207.17,161.66L207.25,182.69L207.43,175.53L207.44,176.92L207.85,184.18L207.97,161.01L208.24,169.23L208.25,172.87L208.61,164.81L208.74,185.99L209,175.67L209.01,173.7L209.07,166.04L209.54,184.53L209.74,175.57L209.75,177.22L210.1,187.83L210.22,161.36L210.44,169.87L210.45,168.85L210.48,162.93L210.71,185.63L211.15,173.2L211.16,174.69L211.52,167.93L211.56,184.87L211.57,77.12L211.69,16L212.01,304L212.25,249.23L212.26,253.19L212.37,261.8L213.01,60.86L213.24,150.43L213.25,164.09L213.59,219.27L214.01,177.6L214.02,173.21L214.43,145.12L214.75,184.22L214.76,183.34L214.77,167.46L215.16,197.91L215.45,146.25L215.46,185.42L215.51,120.82L216.1,219.32L216.2,192.22L216.21,198.59L216.25,215.32L216.94,103.77L216.98,144.06L216.99,154.14L217.08,141.47L217.26,267.96L217.69,187.6L217.7,163.62L217.77,185.59L218.19,99.62L218.44,166.13L218.45,166.98L218.57,214.36L218.68,161.71L218.8,188.65L218.81,218.56L218.82,230.49L219.27,134.57L219.5,156.38L219.51,151.35L220.12,198.96L220.22,140.37L220.24,152.97L220.25,168.22L220.71,138.55L220.78,193.86L220.99,162L221,169.05L221.04,204.37L221.5,153.72L221.69,168.35L221.7,157.1L221.76,141.36L222.28,178.69L222.38,171.92L222.39,185.14L222.58,204.17L222.87,168.52L223.03,184.83L223.04,175.29L223.25,182.68L223.42,149.17L223.8,157.46L223.81,163.47L223.82,157.32L224.27,202.32L224.52,183.34L224.53,187.23L224.82,202.56L225.2,140.26L225.25,166.65L225.26,154.99L225.41,122.63L225.83,203.6L225.95,170.78L225.96,184.62L226.35,203.79L226.51,158.78L226.65,179.62L226.66,183.11L226.8,193.06L226.89,152.01L227.42,174.5L227.44,174.7L227.7,147.74L228.11,190.9L228.12,194.27L228.31,205.94L228.75,124.82L228.88,160.33L228.89,178.23L229.01,193.02L229.06,172.48L229.07,168.82L229.54,202.66L229.77,143.43L229.8,151.04L229.81,156.54L229.83,150.27L230.18,172.85L230.19,186.33L230.34,139.83L230.84,203.38L230.96,171.49L230.97,177.74L231.5,162.28L231.58,195.18L231.69,175.53L231.7,166.64L231.78,138.79L232.05,186.49L232.09,164.36L232.1,148.86L232.61,212.72L232.84,161.57L232.85,151.71L233.27,135.6L233.69,212.77L233.76,183.36L233.77,176.3L233.9,189.06L234.11,134.62L234.32,174.37L234.33,181.69L234.61,216.34L235.02,129.91L235.2,147.34L235.21,159.63L235.66,213.49L235.96,164.22L235.97,161.09L236.15,140.21L236.54,188.08L236.56,183.01L236.57,191.56L236.76,156.46L237.13,221.06L237.27,185.52L237.28,179.63L237.62,140.63L237.82,181.38L238.04,165.97L238.05,165.96L238.1,162.32L238.53,231.97L238.81,177.34L238.82,177.61L239.11,121.08L239.45,187.94L239.56,174.08L239.57,173.58L239.94,167.71L240.12,199.87L240.32,174.56L240.33,169.11L240.62,186.06L240.94,144.05L241.06,171.21L241.07,174.75L241.44,205.33L241.73,150.38L241.79,170.04L241.8,163.47L241.83,179.5L242.02,160.49L242.25,168.41L242.27,158.52L242.31,143.14L242.75,202.93L243,167.99L243.02,166.58L243.1,147.57L243.6,199.31L243.78,174.94L243.79,171.26L244.23,156.29L244.53,191.25L244.58,187.1L244.59,178.48L244.71,198.07L245.18,152.8L245.33,181.72L245.34,183.92L245.55,167.4L245.98,197.85L246.07,189.87L246.08,188.67L246.28,141.42L246.87,168.99L246.88,171.03L247.01,192.05L247.53,159.6L247.62,167.81L247.63,166.33L247.72,161.68L248.16,187.88L248.4,180.79L248.41,182.61L248.63,182.67L248.73,147.03L248.74,145.25L248.89,188.59L249.44,159.39L249.45,154.9L249.63,142.34L250.23,201.56L250.27,193.21L250.28,191.15L250.32,207.58L250.7,164.03L250.73,165.24L250.74,165.71L251.02,154.38L251.52,197.48L251.54,182.8L251.55,180.07L251.72,191.35L251.95,164.32L252.1,166.74L252.11,155.82L252.12,148.31L252.18,179.77L252.84,167.58L252.85,171.41L253,162.94L253.18,201.83L253.62,181.51L253.63,175.6L253.79,184.5L254.22,137.68L254.43,157.88L254.44,166.62L254.72,194.91L254.8,159.21L255.18,169.36L255.19,166.18L255.45,189.24L255.55,155.25L255.93,167.39L255.94,164.42L256.09,187.83L256.19,159.11L256.61,173.35L256.62,177.67L256.76,153.21L256.79,169.44L256.8,177.34L257.33,148.35L257.57,194.57L257.58,192.16L257.8,205.23L258.05,155.2L258.34,181.27L258.35,178.97L258.58,186.76L258.66,145.64L259.04,178.73L259.05,183.99L259.12,191.13L259.45,164.97L259.74,173.01L259.75,170.44L260.29,194.88L260.35,153.24L260.5,171.36L260.51,162.65L260.65,188.05L261.11,154.07L261.23,173.01L261.24,172.03L261.28,148.87L261.95,179.27L261.98,173.5L261.99,182.62L262,194.33L262.71,163.87L262.73,164.78L263.42,153.5L263.5,185.03L263.51,180.64L263.52,172.94L263.87,149.13L263.97,190.85L264.13,163.49L264.14,158.4L264.42,154.97L264.54,195.02L264.75,172.11L264.76,177.95L264.83,194.38L264.91,163.86L265.41,169.03L265.42,160.77L265.74,149.24L266.08,191.19L266.18,154.31L266.19,153.17L266.81,198.54L267.01,189.89L267.02,189.36L267.03,190.09L267.34,161.69L267.44,168.75L267.45,160.47L267.74,141.62L267.97,183.7L268.18,167.33L268.19,177.23L268.56,208.22L268.91,157.96L268.93,164.21L269.2,155.23L269.54,188.35L269.66,160.04L269.68,161.61L269.89,160.58L270.41,189.23L270.45,174.55L270.46,169.51L270.52,159.37L270.99,196.05L271.18,189.52L271.19,189.49L271.64,154.7L272,168.51L272.01,173.72L272.21,165.94L272.53,191.24L272.76,178.42L272.77,176.34L272.89,186.23L272.97,160.47L273.4,172.36L273.41,169.02L273.63,183.35L273.76,160.72L273.9,173.14L273.91,174.4L274.5,191.01L274.57,162.66L274.65,173.35L274.66,175.23L274.94,157.89L275.37,178.4L275.39,173.31L275.4,170.28L275.65,183.61L275.83,168.35L275.84,163.02L276.06,187.68L276.28,159.51L276.55,169.03L276.56,169.53L276.89,158.33L277.15,188.62L277.25,177.23L277.26,180.31L277.37,194.33L277.81,161.82L278,178.5L278.01,179.34L278.2,158.54L278.54,180.18L278.61,179.53L278.62,183.66L278.64,188.39L279.28,168L279.33,171.74L279.34,171.64L279.4,181.19L279.83,165.38L280.06,167.33L280.07,166.37L280.11,160.63L280.55,182.62L280.76,163.76L280.77,162.04L281.41,190.4L281.52,176.57L281.53,175.01L281.61,187.89L281.94,163.06L282.11,169.24L282.12,166.18L282.46,156.23L282.77,179.27L282.84,171.62L282.85,176.57L283.03,164.23L283.33,193.65L283.59,176.19L283.6,174.79L283.83,159.26L284.17,183.46L284.35,179.08L284.36,175.93L284.66,160.53L284.78,186.18L284.91,171.17L284.92,186.46L284.94,117.24L285.49,199.57L285.66,194.37L285.67,187.4L285.72,193.95L286.32,164.57L286.33,159.12L286.59,178.51L286.73,153.77L286.97,165.77L286.98,169.11L287.06,158.6L287.6,185.99L287.75,173.8L287.76,173.5L287.98,179.99L288.1,156.73L288.2,172.57L288.21,179.42L288.42,189.64L288.59,165.12L288.87,171.18L288.88,167.16L289.25,155.28L289.55,182.44L289.56,184.76L289.58,186.67L289.63,167.78L290.16,173.52L290.17,166.43L290.24,185.65L290.42,151.43L290.92,164.67L290.93,166.86L291.18,163.7L291.38,188.2L291.64,175.61L291.65,175.76L291.72,190.79L292.36,162.87L292.37,163.53L292.66,158.3L292.9,191.47L293.05,174.16L293.06,179.62L293.23,188.25L293.74,157.71L293.86,159.05L293.87,161.19L294.62,192.09L294.72,182.61L294.73,183.38L294.9,187.17L295.1,157.32L295.26,161.77L295.27,158.56L295.51,184.37L295.54,168.58L295.55,162.53L295.58,150.12L296.11,197.16L296.28,177.38L296.29,175.26L296.4,197.13L296.81,159.65L297.01,175.42L297.02,185.6L297.06,193.6L297.59,144.72L297.76,182.62L297.77,190.36L297.96,195.45L298.03,162.15L298.33,167.36L298.34,166.95L298.54,192.06L298.98,154.6L299.05,163.06L299.06,153.97L299.07,152.62L299.34,191.66L299.61,180.87L299.62,189.79L299.63,191.32L299.86,159.65L300.26,178.21L300.28,171.97L300.71,167.28L300.77,186.84L300.8,185.34L300.81,189.47L301.38,146.81L301.6,173.36L301.61,171.64L301.74,164.21L302.2,197.11L302.21,197.92L302.45,151.46L302.98,174.08L302.99,178.52L303.07,156.1L303.5,186.08L303.63,167.37L303.64,162.54L303.68,162.31L303.69,168.75L303.7,178.28L303.92,192.9L304.25,162.32L304.42,170.59L304.43,166.09L304.53,162.42L305.07,186.43L305.24,184.18L305.25,182.62L305.61,157.82L305.75,192.25L306,179.93L306.01,180.84L306.21,154.28L306.58,181.78L306.74,179.06L306.75,177.94L307.19,198.65L307.43,157.4L307.47,172.99L307.48,175.86L307.55,182.36L307.7,163.97L307.71,158.08L307.72,154.12L308.33,181.57L308.42,173.5L308.43,178.48L308.74,193.75L308.84,161.98L309.21,169.58L309.22,175.25L309.44,181.99L309.57,160.21L309.98,165.78L309.99,166.68L310.28,165.63L310.49,194.61L310.75,181.35L310.76,178.74L310.95,181.73L311.01,163.32L311.21,177.57L311.22,179.57L311.24,180.54L311.49,161.89L311.64,170.72L311.65,166.8L311.93,166.06L312.41,189.11L312.43,179.52L312.44,175.73L312.48,183.92L312.87,156L313.15,166.41L313.16,164.01L313.34,160.22L313.56,188.3L313.84,171.35L313.85,176.57L314.38,183.35L314.43,161.62L314.58,170.5L314.59,165.99L314.61,160.86L314.82,185.9L315.34,161.98L315.35,162.44L315.98,192.21L316.19,175.22L316.2,172.03L316.44,184.95L316.69,166.88L316.8,172.69L316.81,167.26L317.12,153.84L317.51,176.65L317.53,174.31L317.55,171.26L317.56,169.78L317.98,185.22L318.25,177.33L318.26,179.66L318.32,181.54L318.97,155.33L319.07,171.7L319.08,173.64L319.29,167.8L319.43,187.96L319.84,185.34L319.85,182.66L320.37,160.52L320.62,173.65L320.63,174.53L320.74,156.54L321.28,196.4L321.3,195.72L321.92,166.46L322.11,174.97L322.12,175.84L322.32,159.58L322.86,184.18L322.88,181.8L322.89,183.65L323.22,187.55L323.42,165.16L323.44,166.26L323.45,164.52L323.51,182.32L324.05,159.18L324.14,171.68L324.15,176.61L324.6,180.75L324.78,161.97L324.81,166.52L324.82,164.18L325.37,187.58L325.6,174.72L325.62,172.6L325.79,186.9L325.92,167.24L326.15,180.01L326.16,181.42L326.28,160.66L326.9,172.1L326.91,172.14L327.18,184.84L327.33,170.4L327.67,177.62L327.69,173.7L328.18,165.41L328.36,179.5L328.44,171.06L328.45,173.27L328.63,164.91L329.03,184.88L329.23,177.83L329.24,175.9L329.35,186.17L329.89,164.83L329.99,172.41L330,176.52L330.19,162.13L330.57,186.05L330.73,177.75L330.74,179.91L330.88,183.76L331.09,165.54L331.54,167.65L331.55,167.83L331.57,166.7L331.97,181.15L332.09,172.42L332.1,170.51L332.43,187.14L332.67,166.79L332.71,177.96L332.72,180.18L333.09,167.15L333.5,188.32L333.51,188.42L333.59,158.67L333.94,180.67L333.95,183.9L333.97,186.26L334.09,154.98L334.5,167.09L334.51,165.46L335.13,189.63L335.24,159.7L335.27,160.5L335.28,161.91L335.7,159.82L335.79,186.07L336.04,181.81L336.05,177.67L336.08,189.81L336.19,161.98L336.79,184.21L336.8,181.36L336.82,182.22L337.1,155.58L337.33,173.31L337.34,166.95L337.38,157.29L337.92,180.39L337.93,181.05L337.98,184.74L338.74,164.12L338.8,168.99L338.81,168.94L338.89,161.47L339.06,182.19L339.14,166.5L339.15,163.14L339.19,162.43L339.52,181.82L339.96,175.31L339.97,173.61L340.26,179.48L340.33,166.17L340.71,172.4L340.72,174.69L340.98,166.79L341.3,182.49L341.46,174.59L341.47,174.82L341.73,164.62L342.01,185.33L342.21,176.84L342.22,176.6L342.77,185.68L342.87,165.93L343,167.27L343.01,173.23L343.53,181.94L343.61,164.72L343.76,175.88L343.77,176.67L343.91,161.81L344.05,188.17L344.53,180.48L344.54,177.51L344.7,164.98L344.83,191.85L345.17,171.2L345.18,168.69L345.33,187.68L345.67,162.97L345.89,174.67L345.9,175.55L345.97,167.4L346.34,183.93L346.61,174.96L346.62,181.18L346.87,160.85L347.4,175.38L347.41,176.85L347.7,182.44L347.83,167.85L347.88,180.27L347.89,185.04L347.93,185.32L348.29,163.09L348.43,180.22L348.44,184.02L349.05,159.85L349.17,190.89L349.18,189.15L349.19,185.15L349.43,186.42L349.98,156.08L350,157.42L350.02,158.42L350.22,185.05L350.85,174.08L350.86,169.22L351.09,184.45L351.23,163.37L351.59,168.24L351.6,165.91L351.64,160.52L351.77,184.94L351.87,167.3L351.88,165.37L352.03,180.97L352.15,163.39L352.46,174.63L352.47,174.24L352.59,164.5L352.95,182.41L353.23,171.65L353.24,176.25L353.29,185.02L353.87,163.94L353.97,178.42L353.98,173.26L354.12,168.28L354.54,181.78L354.57,173.26L354.58,166.83L354.68,180.8L354.78,165.01L355.29,168.71L355.3,168.21L355.51,166.24L356.11,187.88L356.13,180.72L356.14,176.61L356.43,185.59L356.74,165.75L356.91,170.29L356.92,172.4L357.25,164.77L357.53,181.32L357.65,173.65L357.66,174.89L358.21,188.91L358.34,165.76L358.39,174.26L358.4,175.19L358.81,161.31L358.94,180.1L359.05,165.76L359.06,163.9L359.29,183.64L359.65,172.55L359.66,170.96L359.9,168.61L359.97,182.49L360.16,170.43L360.17,166.75L360.42,163.84L360.49,182.31L360.88,169.61L360.89,168.45L361.01,182.13L361.14,163.64L361.64,167.36L361.66,168.21L361.92,163.42L361.97,179.55L362.43,178.47L362.44,177.49L362.83,165.33L363.15,178.31L363.19,175.58L363.2,177.55L363.26,164L363.44,181.95L363.92,171.16L363.93,175.25L363.95,179.17L364.58,163.11L364.65,168.67L364.67,171.18L364.78,164.44L364.85,185.66L365.43,176.26L365.44,176.5L365.83,167.32L366.1,186.7L366.15,174L366.17,169.43L366.25,181.66L366.52,167.49L366.89,170.82L366.9,170.44L367.33,191.89L367.43,163.43L367.59,169.89L367.6,167.31L367.68,181.64L367.91,166.43L368.12,171.25L368.13,163.74L368.67,158.46L368.74,187.63L368.86,168.28L368.87,171.73L368.98,162.77L369.09,180.07L369.6,168.91L369.61,167.6L370.08,161.31L370.34,190.33L370.37,177.46L370.38,172.31L370.5,165.89L370.64,180.72L370.82,177.74L370.83,180.18L370.92,165.27L371.2,180.74L371.57,173.39L371.58,181.03L371.59,188.3L371.97,163.01L372.31,176.37L372.32,173.06L372.77,160.52L372.85,186.1L373.08,180.85L373.09,180.02L373.43,186L373.51,158.44L373.81,178.1L373.82,184.86L374.05,160.49L374.12,191.12L374.43,171.24L374.44,168.12L374.81,188.61L375.08,155.58L375.19,172.42L375.2,173.24L375.23,154.57L375.49,185.77L375.56,167.94L375.57,157.88L375.97,192.94L376.1,153.96L376.27,169.97L376.28,172.71L376.32,189.89L376.59,159.63L377.02,168.33L377.03,167.72L377.1,188.09L377.19,157.5L377.52,174.51L377.53,165.45L377.89,155.07L378.03,188.56L378.21,174.1L378.22,161.13L378.23,150.6L378.72,197.74L378.95,181.72L378.96,179.56L379.07,200.04L379.19,156.39L379.73,160.02L379.74,163.74L380.29,160.88L380.34,196.37L380.51,184.77L380.52,183.3L380.62,154.51L381.07,189.45L381.14,170.99L381.15,169.51L381.34,156.49L381.45,186.5L381.81,183.13L381.82,187.6L382.5,157.44L382.53,187.65L382.55,186.98L382.56,186.68L382.76,190.18L382.84,155.55L383.31,184.54L383.32,188.67L384.09,156.96L384.1,159.2L384.11,164.75L384.15,186.8L384.26,160.3L384.87,173.16L384.88,168.42L385.06,167.06L385.37,179.28L385.41,170.97L385.42,165.64L385.83,156.09L385.9,189.93L386.04,176.86L386.05,180.43L386.17,155.92L386.24,193.14L386.69,166.22L386.7,161.13L386.87,160.18L386.95,187.85L387.47,173.13L387.48,173.7L387.97,165.89L388.17,183.93L388.21,175.05L388.22,176.6L388.68,188.86L388.78,156.05L388.85,186.77L388.86,193.01L389.13,160.35L389.56,184.25L389.57,186.14L390.06,167.73L390.35,175.01L390.36,176.89L390.59,187.33L390.86,161.49L391.11,186.14L391.12,180.45L391.4,165.64L391.68,185.07L391.91,166.79L391.92,168.85L392.14,161.11L392.42,185.59L392.67,175.31L392.68,171.25L392.69,166.94L392.9,182.63L393.43,167.43L393.44,168.7L393.99,162.05L394.06,186.29L394.22,180.03L394.23,177.38L394.28,180.37L394.36,163.1L395.02,166.47L395.03,168.81L395.05,168.49L395.1,178.29L395.18,173.56L395.19,178.68L395.31,164.87L395.71,183.53L395.92,179L395.93,174.88L395.98,165.85L396.48,182.25L396.61,170.19L396.62,165.58L396.85,182.96L397.29,173.92L397.3,169.91L397.49,165.1L397.61,184.82L398.03,171.16L398.04,175.47L398.47,167.82L398.74,186.53L398.8,178.3L398.81,174.02L398.9,162.24L399.52,181.96L399.59,166.4L399.6,169.86L399.64,164.46L399.88,185.95L400.28,165.94L400.29,161.34L401.02,182.02L401.05,168.69L401.06,170.76L401.15,159.68L401.55,187.59L401.8,169.42L401.81,173.12L401.97,161.98L402.43,190.99L402.56,173.7L402.57,173.92L402.73,188.66L402.89,159.41L403.28,174.19L403.29,179.89L403.47,159.48L403.88,185.9L404.03,177.03L404.04,178.93L404.23,191.14L404.71,162.29L404.75,172.52L404.76,176.57L404.86,186.45L404.97,159.2L405.27,167.51L405.28,167.3L405.38,189.86L405.84,162.48L405.93,174.03L405.94,177.7L405.98,190.45L406.43,153.23L406.68,174.07L406.69,173.45L407.07,185.93L407.3,156.8L407.41,182.14L407.42,185.26L407.63,160.47L407.71,188.47L408.23,173.86L408.24,180.11L408.25,180.51L408.5,161.63L408.51,158.38L408.59,185.98L409.26,173.14L409.27,168.18L409.31,165.05L409.54,189.9L409.87,178.31L409.88,181.84L410.33,161.76L410.47,188.04L410.66,173.15L410.67,175.23L410.9,167.83L411.05,181.27L411.2,176.5L411.22,180.94L411.41,184.64L411.84,165.38L411.95,175.03L411.97,180.06L412.42,163.31L412.56,186.12L412.7,177.13L412.72,179.52L412.93,184.94L413.35,161.83L413.46,177.27L413.48,181.73L413.49,183.56L413.75,165.04L414.19,176.41L414.2,171.86L414.38,184.89L414.5,165.61L414.93,171.88L414.94,177.03L415.09,165.38L415.51,184.49L415.66,171.19L415.67,169.14L415.99,167.43L416.19,185.02L416.26,170.79L416.27,168.75L416.31,176.83L416.39,174.89L416.4,179.38L416.85,164.05L416.92,183.99L417.11,174.33L417.12,172.18L417.19,158.53L417.31,187.92L417.8,174.51L417.81,178.1L418.11,158.66L418.2,185.3L418.57,180.53L418.58,177.56L418.77,190.98L419.02,158.99L419.31,175.18L419.32,179.34L419.34,186.41L419.75,159.73L420.06,176.98L420.07,174.62L420.13,161.85L420.59,179.48L420.73,167.58L420.74,165.3L420.75,163.63L421.09,181.17L421.4,175.39L421.41,179.2L421.77,184L421.89,161.28L422.11,172.8L422.12,172.21L422.79,161.11L422.9,188.73L422.91,186.4L422.92,181.97L423.39,157.34L423.44,185.92L423.7,169.46L423.71,170.16L423.81,182.27L423.93,158.8L424.33,174.77L424.34,176.59L424.44,180.59L424.45,172.96L424.46,168.62L424.58,159.98L425.17,184.37L425.21,169.26L425.22,165.74L425.62,185.29L425.68,161.28L425.98,180.08L425.99,178.08L426.02,159.17L426.7,184.95L426.74,176.97L426.75,177.28L427.08,193.42L427.15,161.63L427.51,166.76L427.52,169.97L427.76,166.67L427.81,186.99L428.09,170.23L428.1,168.8L428.26,186.22L428.68,156.4L428.8,180.48L428.81,179.02L429.09,191.07L429.57,156.56L429.58,168.89L430.01,160.11L430.26,193.91L430.32,163.96L430.33,157.73L430.6,193.05L430.67,151.31L431.12,181.75L431.13,175.77L431.67,153.04L431.75,193.74L431.88,170.14L431.89,178.01L432.27,192.37L432.5,158.18L432.54,177.24L432.55,186.39L432.89,100.74L432.93,187.89L433.31,172.11L433.32,178.13L433.51,165.4L433.72,198.43L434.05,182.51L434.06,183.29L434.7,148.16L434.86,158.98L434.88,162.14L435.06,154.57L435.31,188.03L435.61,159.44L435.63,161.47L435.79,161.44L436.11,189.61L436.38,163.65L436.39,162.78L436.48,187.07L436.61,158.93L436.63,172.3L436.64,186.93L437.21,197.18L437.26,152.52L437.33,169.15L437.34,168.51L437.56,193.09L437.63,158.09L438.09,170.88L438.1,166.77L438.11,159.85L438.48,190.82L438.83,179.76L438.84,173.99L439.15,185.19L439.2,156.97L439.58,176.01L439.59,184.22L439.72,161.1L440.03,185.63L440.29,173.04L440.3,180.73L440.75,192.31L440.81,157.53L441,168.41L441.01,166.76L441.35,160.46L441.42,188.95L441.77,179.12L441.78,168.37L441.8,157.76L441.93,190.79L442.52,177.16L442.53,176.44L442.61,155.29L442.65,185.11L442.66,195.6L442.67,198.17L442.98,156.9L443.32,173.49L443.33,174.05L443.67,189.94L444.05,159.89L444.08,167.97L444.09,170.73L444.66,160L444.78,188.61L444.86,180.69L444.87,179.55L445.35,190.9L445.42,163.24L445.56,186.34L445.58,185.55L445.68,162.21L445.8,190.42L446.11,180.08L446.12,182.54L446.47,190.76L446.68,161.44L446.82,182.98L446.83,171.95L446.86,154.12L447.15,184.61L447.57,179.3L447.58,184.11L447.81,187.63L448.21,161.1L448.35,172.3L448.36,170.81L448.5,183.01L448.63,156.69L449.07,179.76L449.08,180.35L449.25,185.81L449.78,158.97L449.81,176.03L449.82,185.46L449.89,159.24L450.34,189.89L450.53,176.26L450.54,170.6L450.67,196.85L451.28,156.52L451.31,166.41L451.32,170.93L451.63,157.19L451.85,180.68L452.07,171.94L452.08,175.12L452.34,186.85L452.45,157.42L452.83,173.32L452.84,175.53L453.3,158.68L453.52,191.91L453.59,177.11L453.6,174.99L453.99,186.21L454.13,159.86L454.33,180.72L454.34,187.68L454.57,159.27L454.69,189.95L454.94,163.4L454.96,164L455.53,187.43L455.58,160.68L455.71,177.31L455.72,174.96L455.84,186.95L456.12,162.69L456.47,173.76L456.48,172.45L456.61,182.42L457.05,163.71L457.24,168.51L457.25,170.43L457.57,165.23L457.97,182.95L458,175.45L458.01,172.29L458.56,165.53L458.64,189.39L458.76,170.26L458.77,171.33L459.16,183.33L459.23,166.32L459.53,178.33L459.54,178.3L459.58,161.41L459.63,188.73L460.26,169.39L460.27,175.08L460.65,187.36L460.9,160.03L461.02,176.24L461.03,172.06L461.41,160.26L461.46,184.31L461.78,168.71L461.79,170.27L462.25,160.17L462.48,186.67L462.53,168.82L462.54,169.43L462.61,157.08L463,186.8L463.32,180.95L463.33,179.98L463.95,161.64L464.02,188.92L464.1,174.14L464.11,173.7L464.36,186.55L464.63,161.79L464.82,177.34L464.83,181.88L464.97,163.35L465.19,186.32L465.55,175.07L465.56,174.47L465.79,164.53L466.04,180.13L466.27,175.78L466.28,179.15L466.89,164.56L467.03,183.97L467.05,182.85L467.06,179.76L467.12,163.74L467.19,183.41L467.82,169.3L467.83,172.77L468.15,163.08L468.59,186.18L468.6,184.19L468.61,179.6L468.81,166.95L468.87,184.27L469.36,175.59L469.37,177.67L469.47,155.67L469.54,183.15L469.55,185.42L469.82,161.1L470.34,170.14L470.36,170.99L470.4,184.48L470.76,169.46L470.94,175L470.95,172.67L471.03,168.17L471.43,182.08L471.44,186.53L471.72,166.46L472.15,176.53L472.16,179.19L472.8,181.12L472.88,164.51L472.92,172.19L472.93,177.36L473.06,162.4L473.36,185.21L473.65,173.62L473.66,168.59L473.83,165.79L474.11,182.97L474.35,176.59L474.36,177.26L474.82,162.71L474.92,188.77L475.13,183.13L475.14,181.19L475.72,184.02L475.82,164.55L475.88,177.24L475.89,182.17L476,161.88L476.08,188.7L476.62,174.41L476.63,173.92L477.16,166.44L477.21,178.92L477.35,172.18L477.36,171.71L477.57,183.22L477.88,165.73L478,172.45L478.01,171.18L478.14,182.91L478.52,167.68L478.58,177.33L478.59,178.74L479.02,158.5L479.12,188.54L479.28,183.34L479.29,185.84L479.4,159.78L479.87,175.91L479.88,179.67L480.49,185.74L480.56,157.32L480.62,177.45L480.63,178.93L480.73,156.5L481.03,185.24L481.36,172.14L481.37,169.54L481.81,189.48L481.91,156.65L482.12,165.13L482.13,168.37L482.19,185.79L482.46,163.53L482.84,167.93L482.85,166.2L483.08,158.96L483.34,189.49L483.56,174.73L483.57,168.92L483.72,184.6L483.83,161.24L484.3,172.56L484.31,178.19L484.39,165.6L484.87,181.54L485.02,168.58L485.03,167.03L485.63,184.44L485.76,162.61L485.77,163.31L486.24,184.83L486.5,157.96L486.51,157.11L486.8,188.85L487.27,166.26L487.28,165.08L487.38,192.43L487.85,161.97L488.02,165.85L488.03,163.8L488.13,184.94L488.22,163.11L488.29,182.4L488.3,184.14L488.6,163.76L488.67,185.01L489.02,177.93L489.03,179.71L489.32,166.27L489.41,181.12L489.58,180.55L489.59,182.58L490.12,191.52L490.38,159.72L490.39,161.04L490.55,155.06L490.67,188.67L491.17,174.62L491.19,176.23L491.29,163.48L491.96,189.54L491.97,187.71L492.03,159.09L492.32,188.31L492.75,168.28L492.76,166.53L492.77,165.61L492.9,183.12L493.4,174.35L493.41,176.39L493.46,184.49L493.51,164.82L494.12,168.51L494.13,168.04L494.46,182.58L494.52,164.77L494.66,172.54L494.67,168.72L494.86,161.56L495,180.87L495.37,179.82L495.38,181.78L495.44,159.96L495.57,184.28L496.01,174.19L496.02,179.22L496.13,181.04L496.71,158.45L496.77,175.85L496.78,179.1L496.92,161.66L497.03,179.4L497.1,172.13L497.11,177.51L497.59,154.8L497.69,187.61L497.85,173.92L497.86,171.99L498.29,183.37L498.52,163.29L498.58,177.62L498.59,181.14L498.6,181.65L499.04,166.52L499.05,165.09L499.42,163.12L499.64,181.42L499.83,175.91L499.84,173.86L500.4,182.91L500.45,155.1L500.53,177.4L500.54,179.85L500.78,188.16L501.03,161.3L501.29,181.56L501.3,181.92L501.74,161.82L501.81,184.92L502.18,173.69L502.19,176.69L502.72,161.81L502.93,188.02L502.96,180.92L502.97,176.19L503.08,184.15L503.43,167.72L503.73,169.05L503.74,169.96L503.91,168.51L504.36,185.52L504.53,183.52L504.54,183.06L504.9,184.22L505.17,161.6L505.28,171.21L505.29,172.86L505.34,163.01L505.87,185.73L506.06,177.59L506.07,175.84L506.18,186.7L506.27,166.88L506.81,178.6L506.82,179.2L506.97,165.45L507.27,183L507.61,170.06L507.62,172.42L507.96,161.49L508.29,182.83L508.36,173.64L508.37,173.57L508.75,167.39L508.91,179.91L508.94,172.03L508.95,165.41L508.96,162.05L509.36,178.96L509.7,163.58L509.71,168.45L509.76,185.36L509.88,162.04L510.45,175.59L510.46,173.73L510.88,181.27L510.94,165.06L511.24,177.72L511.25,175.03L511.68,161.36L511.77,188.62L512.04,163.4L512.05,163.32L512.53,180.69L512.78,161.56L512.79,160.75L513.38,177.97L513.48,166.16L513.49,164.32L513.5,162.59L513.97,184.95L514.1,184.53L514.11,187.04L514.15,189.22L514.63,165.84L514.88,177.35L514.89,179.03L515.36,164.4L515.39,172.85L515.41,175.91L515.6,188.34L515.89,171.53L516.16,176.89L516.17,178.64L516.24,182.92L516.67,166.83L516.96,175.11L516.97,177.61L517.33,168.31L517.59,179.93L517.66,169.94L517.67,169.96L517.79,189.73L518.04,167.83L518.37,175.42L518.38,174.73L518.62,166.08L519.07,186.18L519.08,187.35L519.61,188.65L519.88,160.4L519.95,170.48L519.96,173.29L520.13,176.43L520.23,160.92L520.24,161.16L520.25,161.08L521.05,186.47L521.06,183.67L521.07,182.77L521.09,184.19L521.17,161.99L521.53,166.97L521.54,164.49L521.57,159.2L522.18,180.21L522.2,179.38L522.21,180.1L522.45,166.89L522.52,179.27L522.54,182.48L522.55,184.58L523,163.69L523.23,171.82L523.24,170.26L523.4,180.89L523.64,160.65L523.97,173.26L523.98,174.48L524.07,183.6L524.18,164.16L524.49,171.22L524.5,170.62L524.84,163.28L525.04,182.6L525.24,171.96L525.25,174.58L525.31,185.63L525.43,165.41L525.95,176.31L525.96,172.6L526.03,160.42L526.17,184.97L526.67,179.55L526.68,178.87L526.9,186.93L527.06,166.03L527.27,176.14L527.28,173.62L527.34,161.47L527.49,186.01L528.01,175.91L528.02,179.5L528.04,186.42L528.22,165.16L528.76,176.38L528.77,175.34L529.15,177.49L529.25,167.1L529.26,162.88L529.74,184.45L529.99,175.69L530,173.93L530.64,189.25L530.71,160.43L530.76,166.13L530.77,172.69L531.01,189.88L531.27,160.02L531.52,179.94L531.53,176.99L531.56,188.84L531.79,160.41L532.28,181.27L532.29,175.12L532.7,164.64L532.91,183.31L533.04,172.57L533.06,175.12L533.3,166.6L533.72,185.72L533.79,174.87L533.81,173.14L533.96,182.14L534.39,157.96L534.51,171.6L534.52,168.08L534.65,184.53L534.71,167.05L534.72,160.36L535.04,184.68L535.1,157.65L535.5,179.16L535.51,180.46L535.84,186.54L535.99,158.6L536.3,166.67L536.31,173.15L536.47,158.69L536.53,185.98L536.86,178.83L536.87,186.6L536.88,189.36L537.48,154.07L537.58,175.58L537.59,177.07L537.82,156.8L538.11,188.02L538.31,184.72L538.32,186.56L538.46,196.35L538.54,154.21L539.09,169.93L539.1,173.15L539.17,164.59L539.18,169.14L539.19,177.11L539.54,162.13L539.65,187.83L539.91,172.65L539.92,169.35L540.01,190.69L540.55,160.84L540.68,177.44L540.69,172.29L541.1,156.51L541.19,186.13L541.45,165.47L541.46,166.68L542.08,162.49L542.17,184.32L542.22,171.51L542.23,165.87L542.24,162.24L542.38,180L542.95,175.62L542.96,178.39L543.11,158.22L543.4,186.92L543.65,168.27L543.66,165.57L543.87,160.31L544.11,186.74L544.33,172.69L544.34,174.86L544.42,162.35L544.45,173.99L544.46,179.06L544.89,159.93L545.14,191.24L545.2,179.94L545.21,173.17L545.42,158.65L545.75,183.75L545.94,176.55L545.95,178.13L546.03,166.35L546.14,180.55L546.15,182.6L546.62,163.37L546.88,186.87L546.89,185.03L547.21,162.64L547.64,169.51L547.65,174.12L548.1,190.87L548.17,157.73L548.35,164.7L548.36,158.93L548.45,193.2L548.75,153.47L549.01,175.35L549.02,179.9L549.34,163.4L549.7,190.27L549.72,179.12L549.73,174.93L549.89,179.28L549.97,158.39L550.19,177.33L550.2,179.3L550.26,199.46L550.55,158.21L550.86,181.61L550.87,175.92L551.43,190.52L551.56,161.75L551.61,177.59L551.62,179.97L551.71,160.69L551.84,194.85L552.36,178.15L552.37,178.08L552.7,155.84L552.98,184.91L552.99,187.21L553.02,189.4L553.29,161.57L553.62,178.04L553.63,176.25L553.69,182.01L553.94,164.8L554.34,170.47L554.35,169.41L554.46,165.13L554.68,180.83L554.69,182.94L554.98,163.36L555.25,189.01L555.52,169.64L555.53,170.93L555.74,191.32L556.02,157.03L556.06,176.05L556.07,177.09L556.23,159.33L556.31,186.25L556.33,188.64L556.34,190.07L556.44,164.41L556.98,175.38L556.99,174.25L557.19,178.59L557.24,167.96L557.29,177.56L557.3,179.82L557.33,187.99L557.73,164.35L558.03,180.42L558.04,174.43L558.08,156.11L558.55,186.91L558.79,173.28L558.8,173.43L559.23,188.85L559.3,162.95L559.42,187.27L559.43,188.91L559.6,196.88L559.72,159.83L560.2,178.24L560.21,176.29L560.65,180.08L560.98,157.43L560.99,160.13L561,164.44L561.52,159.1L561.75,191.31L561.79,186.99L561.8,182.63L562.06,158.23L562.26,183.98L562.6,169.11L562.61,170.42L563.15,156.44L563.22,190.33L563.25,160.54L563.26,110.56L563.33,198.26L564.03,179.86L564.04,181.72L564.26,161.87L564.49,190.76L564.68,173.89L564.69,161.03L564.87,143.94L565.18,176.61L565.43,155.91L565.44,161.98L565.97,161.53L566.04,190.5L566.22,172.97L566.23,169.58L566.39,183.42L566.81,157.58L566.9,174.76L566.91,180.32L567.06,154.3L567.46,184.28L567.6,168.58L567.61,175.29L567.94,197.75L568.19,159.28L568.33,169.45L568.35,169.44L568.92,153.62L569.02,185.44L569.08,177.63L569.1,172.55L569.34,192.96L569.76,163.68L569.89,183.94L569.9,184.2L570.02,154.22L570.1,196.54L570.67,175.74L570.68,182.71L570.93,156.61L571.13,186.55L571.35,178.8L571.36,186.14L571.47,157.23L571.85,193.56L572.12,175.95L572.13,175.25L572.32,164.96L572.43,187.87L572.87,176.22L572.88,177.55L573.2,163.68L573.59,189.2L573.62,182.54L573.63,184.39L573.69,191.97L574.07,164.2L574.39,172.95L574.4,178.57L574.92,187.42L574.99,161.63L575.14,175.73L575.15,178.52L575.69,188.32L575.76,165.69L575.86,171.52L575.87,172.02L575.96,184.23L576.31,156.51L576.36,177.91L576.37,184.08L576.38,185.19L576.83,157.27L576.99,173.94L577,169.25L577.27,162.03L577.36,181.63L577.75,179.53L577.76,172.63L577.84,181.37L578.05,161.77L578.49,179.87L578.5,180.72L578.64,162.3L578.71,188.38L579.19,176.59L579.2,173.17L579.47,157.68L579.9,187.25L579.93,173.51L579.94,169.57L580.02,167.28L580.38,178.68L580.39,177.67L580.4,179.43L580.63,189.03L580.87,165.19L581.13,176.2L581.14,174.71L581.56,159.6L581.79,182.11L581.84,173.02L581.85,168.99L582.27,178.85L582.41,161.53L582.59,168.55L582.6,171.97L583.1,182.62L583.14,165.52L583.35,178.05L583.37,170.8L583.65,160.44L584,185.58L584.1,170.29L584.12,173.07L584.2,169.62L584.54,185.69L584.76,173.33L584.77,168.49L585.03,179.95L585.34,162.99L585.48,175.36L585.49,177.61L585.67,183.47L585.86,167.11L585.97,178.66L585.98,180.42L586.08,162.51L586.14,179.68L586.15,183.89L586.16,185.84L586.62,162.93L586.85,175.98L586.86,174.11L586.96,165.03L587.32,191.4L587.57,176.06L587.58,179.98L587.87,188.99L588.23,161.93L588.32,179.51L588.33,177.08L588.49,188.56L588.68,166.22L589.08,175.4L589.09,177.45L589.13,179.58L589.25,165.01L589.56,179.31L589.57,181.91L589.58,182.42L589.76,161.39L590.02,168.12L590.03,166.66L590.11,186.73L590.79,170.44L590.8,170.8L590.88,180.54L590.94,164.1L590.95,163.74L591.15,185.35L591.74,173.86L591.75,169.64L591.88,184.41L592.02,158.8L592.36,182.26L592.38,184.11L592.41,185.55L592.62,164.82L593.14,169.86L593.15,171.21L593.41,192.45L593.65,164.01L593.88,174.01L593.89,172.69L594.35,163.36L594.45,185.48L594.64,177.05L594.65,175.08L594.95,182.67L595.35,164.24L595.43,168L595.44,171.17L595.48,182.81L595.87,165.2L596.18,167.75L596.19,167.53L596.36,163.67L596.57,179.71L596.88,171.6L596.89,169.85L596.93,160.39L597.3,185.34L597.6,171.95L597.61,172.53L597.67,180.4L597.73,169.38L597.96,174.47L597.97,171.08L598.48,181.82L598.63,163.48L598.71,171.59L598.72,172.29L599.14,180.37L599.23,165.36L599.48,176.24L599.49,175.16L599.66,171.39L599.84,177.72L599.85,179.66L600.01,181.2L600.19,170.24L600.52,174.48L600.53,170.07L600.54,168.28L601.04,180.41L601.25,175.24L601.26,177.4L601.66,184.25L601.8,165.69L601.98,177.44L601.99,174.36L602.45,166.33L602.59,181.61L602.74,170.93L602.75,170.27L602.82,168.57L603.25,180.08L603.34,175.45L603.35,178.16L603.77,181.24L603.92,167.98L604.11,171.87L604.12,173.89L604.49,179.19L604.65,167.34L604.85,177.07L604.86,177.94L604.87,178.49L605.1,163.83L605.6,177.6L605.61,176.37L605.68,164.26L605.91,180.24L606.36,171.83L606.37,174.5L606.58,184.04L606.65,168.44L607.03,178.92L607.04,179.73L607.48,167.12L607.61,183.65L607.83,172.4L607.84,173.92L608.06,179.78L608.36,165.16L608.56,173.28L608.57,175.7L608.6,181.17L608.99,168.58L609.29,172.86L609.3,169.91L609.41,176.99L609.55,165.8L609.95,173.88L609.96,174.44L610.19,166.98L610.24,176.56L610.63,171.57L610.64,173.7L610.85,164.89L610.92,182.78L611.38,172.94L611.39,173.17L611.75,179.45L611.98,167.89L612.09,172.61L612.1,172.89L612.23,166.07L612.48,181.19L612.84,174.01L612.85,173.44L613.06,181.24L613.31,167.76L613.51,174.64L613.52,176.23L613.6,181.56L613.72,168.34L614.26,175.14L614.27,175.35L614.67,167.62L614.8,180.29L614.89,168.71L614.91,183.27L615.03,109.27L615.44,236.49L615.63,197.16L615.64,202.77L615.68,224.27L616.27,132.63L616.28,133.13L616.42,104.73L616.91,173.25L616.92,179.98L617.13,210.96L617.6,171.1L617.64,187.83L617.65,171.62L617.88,164.3L618.14,203.96L618.42,199.39L618.43,198.11L618.89,136.15L619.31,167.85L619.32,171.18L619.67,196.92L620.07,172.07L620.08,173.51L620.44,160.93L620.66,177.63L620.78,167.58L620.79,168.13L620.8,167.9L620.89,180.34L620.91,183.06L620.92,184.43L621.41,165.39L621.58,172.33L621.59,170.08L621.91,181.94L622.07,166.41L622.32,177.98L622.33,167.98L622.83,182.98L622.91,157.82L623.07,162.77L623.08,170.31L623.36,188.56L623.61,164.59L623.84,182.08L623.85,184.96L623.86,185.63L624.22,161.83L624.42,177.29L624.43,173.37L624.53,183.4L624.78,159.31L625.18,181.86L625.19,175.73L625.38,163.06L625.85,183.12L625.91,179.74L625.92,182.9L625.93,183.59L625.98,164.63L626.56,175.81L626.57,174.08L626.87,180.18L627.02,162.59L627.31,173.14L627.32,177.51L627.45,186.93L627.94,165.36L628.03,169.88L628.05,168.69L628.29,162.78L628.84,183.56L628.85,181.57L629.03,164.44L629.5,185.18L629.55,173.25L629.56,165.82L629.64,157.17L629.8,185.94L630.28,179.22L630.3,181.09L630.56,188.28L630.92,161.56L631.03,177.79L631.05,178.38L631.11,183.8L631.44,160.89L631.59,172.78L631.61,164.98L631.9,162.8L632.04,183.3L632.09,164.09L632.1,158.28L632.11,153.49L632.74,196.26L632.8,178.44L632.81,184.44L633.04,192.31L633.15,174.28L633.28,176.65L633.3,171.2L633.39,190.73L633.99,146.6L634.05,169.35L634.06,170.32L634.13,186.17L634.64,157.15L634.71,176.46L634.72,184.38L634.87,156.22L635.37,191.63L635.46,183.84L635.47,182.11L635.58,195.46L636.31,147.72L636.32,150.78L637.16,193.41L637.18,179.69L637.19,172.85L637.76,194.88L637.87,151.91L637.92,170.9L637.93,177.41L638.4,196.39L638.5,144.12L638.63,170.41L638.64,161.84L638.7,141.55L638.79,186.46L639.36,178.57L639.37,179.45L639.71,190.85L640,157.05L640.09,186.5L640.1,187.55L640.12,188.53L640.17,156.43L640.18,149.3L640.19,148.48L640.47,183.43L640.62,169.32L640.63,173.95L640.86,192.57L641.32,155.3L641.33,148.37L641.42,192.16L641.53,143.55L641.67,160.59L641.68,151.5L642.09,138.93L642.2,211.95L642.37,198.54L642.38,201.4L642.39,207.59L642.85,145.62L643.06,160.75L643.07,161.54L643.33,203.59L643.39,162.03L643.4,153.31L643.53,195.07L643.6,149.03L643.66,177.12L643.67,188.54L643.71,203.41L643.98,140.82L644.39,159.18L644.4,161.14L644.55,154.38L645.03,201.9L645.18,195.12L645.19,201.77L645.69,154.48L645.98,176.52L645.99,176.4L646.26,160.2L646.71,189.06L646.73,178.76L646.74,176.09L647.25,156.01L647.39,187.58L647.46,166.13L647.47,165.8L648.03,199.75L648.1,149.97L648.17,177.1L648.18,177.48L648.32,158.51L648.61,203.28L648.9,159.94L648.91,156.15L649,202.91L649.53,154.22L649.67,182.7L649.68,177.69L649.75,147.68L649.82,189.46L650.23,173.62L650.24,179.68L650.64,199.33L650.76,158.73L650.98,177.54L650.99,179.23L651.06,201.71L651.14,158.66L651.72,182.14L651.73,179.55L652.4,188.34L652.51,143.06L652.52,143.58L652.53,147.3L652.61,190.27L653.12,147.15L653.3,175.67L653.31,171.16L653.41,194.75L653.53,161.49L654.05,164.7L654.06,171.46L654.29,192.35L654.41,152.09L654.76,170.05L654.77,164.68L655.01,157.9L655.1,190.34L655.43,177.82L655.45,181.04L655.67,186.24L655.78,165.16L656.06,180.55L656.07,185.04L656.55,158.51L656.68,187.56L656.83,175.85L656.84,176.29L657.27,184.41L657.38,160.66L657.46,182.38L657.47,187.82L657.52,169.39L657.53,162.85L657.87,157.1L658.02,190.71L658.2,180.02L658.21,188.03L658.84,161.48L658.95,185.34L658.96,187.34L659.08,153.18L659.75,169.46L659.77,165.63L659.96,158.2L660.07,189.79L660.55,179.53L660.56,174.57L660.64,193.71L661.32,154.41L661.33,155.13L661.34,159.33L661.94,193.9L662.12,176.43L662.13,178.06L662.33,191.73L662.81,167.17L662.85,177.37L662.86,178.59L663.1,194.31L663.38,154.28L663.55,159.73L663.56,155.17L663.58,149.93L663.68,185.78L664.23,181.5L664.24,181.34L664.85,167.29L664.97,190.35L664.99,185.28L665,182.94L665.26,159.42L665.36,184.7L665.73,171.44L665.74,175.4L665.83,161.4L666.53,191.35L666.54,187.09L666.7,189.2L666.82,168.56L667.3,181.06L667.31,180.02L667.63,181.37L667.92,164.69L668.07,173.92L668.08,172.97L668.14,165.55L668.63,184.27L668.76,169.85L668.78,167.89L668.91,184.11L669.49,165.07L669.51,171.01L669.53,172.76L669.57,181.43L669.87,165.14L670.05,166.97L670.06,162.22L670.08,160.66L670.19,178.58L670.75,169.65L670.76,173.34L670.88,178.96L671.33,165.81L671.35,171.52L671.36,177.84L671.9,165.6L672.03,188.26L672.09,177.42L672.1,175.52L672.48,161.82L672.63,181.14L672.84,179.05L672.85,176.02L673.23,181.79L673.44,163.74L673.59,176.98L673.6,176.66L673.67,163.68L673.82,179.8L674.3,173.57L674.31,170.2L674.71,179.52L674.82,163.2L675.1,167.04L675.11,167.55L675.74,185.19L675.9,180.8L675.92,182.69L675.95,188.74L676,181.25" style="vector-effect: non-scaling-stroke; fill: none; stroke: rgb(44, 160, 44); stroke-opacity: 1; stroke-width: 2px; opacity: 1;"/></g><g class="points"/><g class="text"/></g></g></g><g class="overplot"/><path class="xlines-above crisp" d="" style="fill: none; stroke-width: 1px; stroke: rgb(0, 0, 0); stroke-opacity: 0;"/><path class="ylines-above crisp" d="" style="fill: none; stroke-width: 1px; stroke: rgb(0, 0, 0); stroke-opacity: 0;"/><g class="overlines-above"/><g class="xaxislayer-above"><path class="xtick ticks crisp" d="M0,421v5" transform="translate(80,0)" style="stroke: rgb(51, 51, 51); stroke-opacity: 1; stroke-width: 1px;"/><path class="xtick ticks crisp" d="M0,421v5" transform="translate(164.5,0)" style="stroke: rgb(51, 51, 51); stroke-opacity: 1; stroke-width: 1px;"/><path class="xtick ticks crisp" d="M0,421v5" transform="translate(249,0)" style="stroke: rgb(51, 51, 51); stroke-opacity: 1; stroke-width: 1px;"/><path class="xtick ticks crisp" d="M0,421v5" transform="translate(333.5,0)" style="stroke: rgb(51, 51, 51); stroke-opacity: 1; stroke-width: 1px;"/><path class="xtick ticks crisp" d="M0,421v5" transform="translate(418.01,0)" style="stroke: rgb(51, 51, 51); stroke-opacity: 1; stroke-width: 1px;"/><path class="xtick ticks crisp" d="M0,421v5" transform="translate(502.51,0)" style="stroke: rgb(51, 51, 51); stroke-opacity: 1; stroke-width: 1px;"/><path class="xtick ticks crisp" d="M0,421v5" transform="translate(587.01,0)" style="stroke: rgb(51, 51, 51); stroke-opacity: 1; stroke-width: 1px;"/><path class="xtick ticks crisp" d="M0,421v5" transform="translate(671.51,0)" style="stroke: rgb(51, 51, 51); stroke-opacity: 1; stroke-width: 1px;"/><path class="xtick ticks crisp" d="M0,421v5" transform="translate(756.01,0)" style="stroke: rgb(51, 51, 51); stroke-opacity: 1; stroke-width: 1px;"/><g class="xtick"><text text-anchor="middle" x="0" y="444" transform="translate(80,0)" style="font-family: 'Open Sans', verdana, arial, sans-serif; font-size: 15px; fill: rgb(51, 51, 51); fill-opacity: 1; white-space: pre;">0</text></g><g class="xtick"><text text-anchor="middle" x="0" y="444" transform="translate(164.5,0)" style="font-family: 'Open Sans', verdana, arial, sans-serif; font-size: 15px; fill: rgb(51, 51, 51); fill-opacity: 1; white-space: pre;">500</text></g><g class="xtick"><text text-anchor="middle" x="0" y="444" transform="translate(249,0)" style="font-family: 'Open Sans', verdana, arial, sans-serif; font-size: 15px; fill: rgb(51, 51, 51); fill-opacity: 1; white-space: pre;">1000</text></g><g class="xtick"><text text-anchor="middle" x="0" y="444" transform="translate(333.5,0)" style="font-family: 'Open Sans', verdana, arial, sans-serif; font-size: 15px; fill: rgb(51, 51, 51); fill-opacity: 1; white-space: pre;">1500</text></g><g class="xtick"><text text-anchor="middle" x="0" y="444" transform="translate(418.01,0)" style="font-family: 'Open Sans', verdana, arial, sans-serif; font-size: 15px; fill: rgb(51, 51, 51); fill-opacity: 1; white-space: pre;">2000</text></g><g class="xtick"><text text-anchor="middle" x="0" y="444" transform="translate(502.51,0)" style="font-family: 'Open Sans', verdana, arial, sans-serif; font-size: 15px; fill: rgb(51, 51, 51); fill-opacity: 1; white-space: pre;">2500</text></g><g class="xtick"><text text-anchor="middle" x="0" y="444" transform="translate(587.01,0)" style="font-family: 'Open Sans', verdana, arial, sans-serif; font-size: 15px; fill: rgb(51, 51, 51); fill-opacity: 1; white-space: pre;">3000</text></g><g class="xtick"><text text-anchor="middle" x="0" y="444" transform="translate(671.51,0)" style="font-family: 'Open Sans', verdana, arial, sans-serif; font-size: 15px; fill: rgb(51, 51, 51); fill-opacity: 1; white-space: pre;">3500</text></g><g class="xtick"><text text-anchor="middle" x="0" y="444" transform="translate(756.01,0)" style="font-family: 'Open Sans', verdana, arial, sans-serif; font-size: 15px; fill: rgb(51, 51, 51); fill-opacity: 1; white-space: pre;">4000</text></g></g><g class="yaxislayer-above"><path class="ytick ticks crisp" d="M79,0h-5" transform="translate(0,375.2)" style="stroke: rgb(51, 51, 51); stroke-opacity: 1; stroke-width: 1px;"/><path class="ytick ticks crisp" d="M79,0h-5" transform="translate(0,317.59000000000003)" style="stroke: rgb(51, 51, 51); stroke-opacity: 1; stroke-width: 1px;"/><path class="ytick ticks crisp" d="M79,0h-5" transform="translate(0,259.98)" style="stroke: rgb(51, 51, 51); stroke-opacity: 1; stroke-width: 1px;"/><path class="ytick ticks crisp" d="M79,0h-5" transform="translate(0,202.38)" style="stroke: rgb(51, 51, 51); stroke-opacity: 1; stroke-width: 1px;"/><path class="ytick ticks crisp" d="M79,0h-5" transform="translate(0,144.77)" style="stroke: rgb(51, 51, 51); stroke-opacity: 1; stroke-width: 1px;"/><g class="ytick"><text text-anchor="end" x="71" y="5.25" transform="translate(0,375.2)" style="font-family: 'Open Sans', verdana, arial, sans-serif; font-size: 15px; fill: rgb(51, 51, 51); fill-opacity: 1; white-space: pre;">0.4</text></g><g class="ytick"><text text-anchor="end" x="71" y="5.25" transform="translate(0,317.59000000000003)" style="font-family: 'Open Sans', verdana, arial, sans-serif; font-size: 15px; fill: rgb(51, 51, 51); fill-opacity: 1; white-space: pre;">0.2</text></g><g class="ytick"><text text-anchor="end" x="71" y="5.25" transform="translate(0,259.98)" style="font-family: 'Open Sans', verdana, arial, sans-serif; font-size: 15px; fill: rgb(51, 51, 51); fill-opacity: 1; white-space: pre;">0</text></g><g class="ytick"><text text-anchor="end" x="71" y="5.25" transform="translate(0,202.38)" style="font-family: 'Open Sans', verdana, arial, sans-serif; font-size: 15px; fill: rgb(51, 51, 51); fill-opacity: 1; white-space: pre;">0.2</text></g><g class="ytick"><text text-anchor="end" x="71" y="5.25" transform="translate(0,144.77)" style="font-family: 'Open Sans', verdana, arial, sans-serif; font-size: 15px; fill: rgb(51, 51, 51); fill-opacity: 1; white-space: pre;">0.4</text></g></g><g class="overaxes-above"/></g></g><g class="polarlayer"/><g class="ternarylayer"/><g class="geolayer"/><g class="pielayer"/><g class="sunburstlayer"/><g class="glimages"/><defs id="topdefs-75f3ad"><g class="clips"/><clipPath id="legend75f3ad"><rect width="198" height="33" x="0" y="0"/></clipPath></defs><g class="layer-above"><g class="imagelayer"/><g class="shapelayer"/></g><g class="infolayer"><g class="legend" pointer-events="all" transform="translate(769.52, 100)"><rect class="bg" shape-rendering="crispEdges" width="198" height="33" x="0" y="0" style="stroke: rgb(68, 68, 68); stroke-opacity: 1; fill: rgb(255, 255, 255); fill-opacity: 1; stroke-width: 0px;"/><g class="scrollbox" transform="translate(0, 0)" clip-path="url('#legend75f3ad')"><g class="groups" transform="translate(0, 0)"><g class="traces" transform="translate(0, 16.25)" style="opacity: 1;"><text class="legendtext user-select-none" text-anchor="start" x="40" y="5.85" style="font-family: 'Open Sans', verdana, arial, sans-serif; font-size: 15px; fill: rgb(51, 51, 51); fill-opacity: 1; white-space: pre;">class=children_playing</text><g class="layers" style="opacity: 1;"><g class="legendfill"/><g class="legendlines"><path class="js-line" d="M5,0h30" style="fill: none; stroke: rgb(44, 160, 44); stroke-opacity: 1; stroke-width: 2px;"/></g><g class="legendsymbols"><g class="legendpoints"/></g></g><rect class="legendtoggle" pointer-events="all" x="0" y="-11.25" width="238" height="22.5" style="cursor: pointer; fill: rgb(0, 0, 0); fill-opacity: 0;"/></g></g></g><rect class="scrollbar" rx="20" ry="3" width="0" height="0" x="0" y="0" style="fill: rgb(128, 139, 164); fill-opacity: 1;"/></g><g class="g-gtitle"><text class="gtitle" x="490" y="50" text-anchor="middle" dy="0em" style="font-family: 'Open Sans', verdana, arial, sans-serif; font-size: 21px; fill: rgb(51, 51, 51); opacity: 1; font-weight: normal; white-space: pre;">time vs amplitude</text></g><g class="g-xtitle"><text class="xtitle" x="418" y="484" text-anchor="middle" style="font-family: 'Open Sans', verdana, arial, sans-serif; font-size: 18px; fill: rgb(51, 51, 51); opacity: 1; font-weight: normal; white-space: pre;">time(ms)</text></g><g class="g-ytitle"><text class="ytitle" transform="rotate(-90,34,260)" x="34" y="260" text-anchor="middle" style="font-family: 'Open Sans', verdana, arial, sans-serif; font-size: 18px; fill: rgb(51, 51, 51); opacity: 1; font-weight: normal; white-space: pre;">amplitude</text></g></g></svg>