<svg class="main-svg" xmlns="http://www.w3.org/2000/svg" xmlns:xlink="http://www.w3.org/1999/xlink" width="980" height="500" viewBox="0 0 980 500"><rect x="0" y="0" width="980" height="500" style="fill: rgb(255, 255, 255); fill-opacity: 1;"/><defs id="defs-577fca"><g class="clips"><clipPath id="clip577fcaxyplot" class="plotclip"><rect width="721" height="320"/></clipPath><clipPath class="axesclip" id="clip577fcax"><rect x="80" y="0" width="721" height="500"/></clipPath><clipPath class="axesclip" id="clip577fcay"><rect x="0" y="100" width="980" height="320"/></clipPath><clipPath class="axesclip" id="clip577fcaxy"><rect x="80" y="100" width="721" height="320"/></clipPath></g><g class="gradients"/></defs><g class="bglayer"><rect class="bg" x="80" y="100" width="721" height="320" style="fill: rgb(237, 237, 237); fill-opacity: 1; stroke-width: 0;"/></g><g class="layer-below"><g class="imagelayer"/><g class="shapelayer"/></g><g class="cartesianlayer"><g class="subplot xy"><g class="layer-subplot"><g class="shapelayer"/><g class="imagelayer"/></g><g class="gridlayer"><g class="x"><path class="xgrid crisp" transform="translate(170.13,0)" d="M0,100v320" style="stroke: rgb(255, 255, 255); stroke-opacity: 1; stroke-width: 1px;"/><path class="xgrid crisp" transform="translate(260.25,0)" d="M0,100v320" style="stroke: rgb(255, 255, 255); stroke-opacity: 1; stroke-width: 1px;"/><path class="xgrid crisp" transform="translate(350.38,0)" d="M0,100v320" style="stroke: rgb(255, 255, 255); stroke-opacity: 1; stroke-width: 1px;"/><path class="xgrid crisp" transform="translate(440.51,0)" d="M0,100v320" style="stroke: rgb(255, 255, 255); stroke-opacity: 1; stroke-width: 1px;"/><path class="xgrid crisp" transform="translate(530.63,0)" d="M0,100v320" style="stroke: rgb(255, 255, 255); stroke-opacity: 1; stroke-width: 1px;"/><path class="xgrid crisp" transform="translate(620.76,0)" d="M0,100v320" style="stroke: rgb(255, 255, 255); stroke-opacity: 1; stroke-width: 1px;"/><path class="xgrid crisp" transform="translate(710.88,0)" d="M0,100v320" style="stroke: rgb(255, 255, 255); stroke-opacity: 1; stroke-width: 1px;"/></g><g class="y"><path class="ygrid crisp" transform="translate(0,375.2)" d="M80,0h721" style="stroke: rgb(255, 255, 255); stroke-opacity: 1; stroke-width: 1px;"/><path class="ygrid crisp" transform="translate(0,317.6)" d="M80,0h721" style="stroke: rgb(255, 255, 255); stroke-opacity: 1; stroke-width: 1px;"/><path class="ygrid crisp" transform="translate(0,202.39)" d="M80,0h721" style="stroke: rgb(255, 255, 255); stroke-opacity: 1; stroke-width: 1px;"/><path class="ygrid crisp" transform="translate(0,144.79)" d="M80,0h721" style="stroke: rgb(255, 255, 255); stroke-opacity: 1; stroke-width: 1px;"/></g></g><g class="zerolinelayer"><path class="xzl zl crisp" transform="translate(80,0)" d="M0,100v320" style="stroke: rgb(255, 255, 255); stroke-opacity: 1; stroke-width: 1px;"/><path class="yzl zl crisp" transform="translate(0,259.99)" d="M80,0h721" style="stroke: rgb(255, 255, 255); stroke-opacity: 1; stroke-width: 1px;"/></g><path class="xlines-below"/><path class="ylines-below"/><g class="overlines-below"/><g class="xaxislayer-below"/><g class="yaxislayer-below"/><g class="overaxes-below"/><g class="plot" transform="translate(80, 100)" clip-path="url('#clip577fcaxyplot')"><g class="scatterlayer mlayer"><g class="trace scatter trace13f49de1-383d-4191-b866-1d62fe0d64da" style="stroke-miterlimit: 2; opacity: 1;"><g class="fills"/><g class="errorbars"/><g class="lines"><path class="js-line" d="M0,150.12L0.41,138.71L0.75,143.77L0.77,143.59L1.37,157.53L1.73,155.43L1.75,155.03L1.92,153.1L2.78,176.37L2.88,175.29L2.9,174.3L3.01,177.76L3.42,168.89L3.44,167.38L3.47,165L4.04,181.63L4.06,181.67L4.28,182.05L4.84,170.43L4.86,170.26L5.25,162.41L5.43,172.19L5.55,167.91L5.57,170.01L5.94,175.05L6.13,165.46L6.34,167.2L6.35,167.56L6.67,163.55L6.97,176.95L6.98,178.41L7.02,179.18L7.8,167.16L7.81,167.5L7.98,170.87L8.75,152.65L8.76,152.86L8.78,152L9.43,148.79L9.72,165.54L9.73,163.87L9.74,162.53L10.21,184.04L10.34,181.69L10.35,181.72L10.36,182.73L10.95,167.13L10.98,170.66L11,170.59L11.03,169.01L11.25,181.38L11.76,175.15L11.77,173.3L11.81,177.18L12.22,162.04L12.23,160.08L12.56,147.75L13,168.11L13.01,164.26L13.18,159.67L13.38,178.95L13.77,166.09L13.78,165.67L14.12,157.89L14.32,169.74L14.53,166.56L14.54,166.01L14.65,171.34L15.45,140.43L15.46,143.56L15.52,136.96L15.69,150.86L15.86,150.46L15.87,155.15L15.94,145.17L16.34,156.27L16.63,146.56L16.64,150.09L16.9,139.29L17.35,156.08L17.36,157.58L17.37,153.69L17.83,170.55L18.08,164.22L18.09,169.19L18.1,170.95L18.48,153.18L18.77,160.12L18.78,155.19L19.38,174.34L19.5,166.83L19.51,162.87L19.58,169.11L20.06,146.24L20.1,146.97L20.11,144.31L20.13,141.16L20.67,160.16L20.71,155.03L20.72,158.86L20.97,164.73L21.19,149.08L21.48,154.93L21.5,154.17L21.54,148.79L22.11,165.47L22.14,162.06L22.15,164.72L22.37,173.06L22.81,160.69L22.91,161.59L22.93,164.64L23.05,159.66L23.48,179.52L23.52,177.8L23.53,178.31L23.82,187.42L24.27,177.29L24.28,177.93L24.59,168.9L25.04,179.34L25.06,179.27L25.07,180.41L25.69,167.72L25.71,169.39L25.72,168.6L25.74,169.44L26.08,155L26.43,162.7L26.44,164.64L26.47,165.14L27.33,151.44L27.34,151.38L27.35,152.93L27.65,139.56L28.07,149.45L28.09,149.23L28.34,147.98L28.78,158.55L28.93,153.67L28.94,153.6L29.09,150.9L29.49,160.74L29.51,161.22L30.23,167.55L30.37,166.78L30.38,166.95L30.72,160.89L31.01,163.52L31.03,163.84L31.65,167.66L31.8,165.26L31.81,165.31L32.21,163.43L32.41,165.85L32.42,166.27L32.61,172.14L33.17,167.68L33.18,167.28L33.2,167.8L33.58,159.21L33.62,159.34L33.63,159.45L33.92,160.27L34.09,157.13L34.1,156.55L34.5,159.93L34.98,138.5L34.99,137.7L35.14,134.21L35.64,143.29L35.66,143.54L36.32,153.08L36.56,151.76L36.57,150.91L36.68,150.51L37.4,162.15L37.41,162.44L37.5,163.82L38.57,135.83L38.91,140.77L38.92,142.18L39.07,143.18L39.46,133.34L39.69,139.28L39.7,141.46L40.68,174.01L40.69,173.64L40.7,172.88L40.73,174.19L41.23,162.58L41.41,170.83L41.42,169.61L41.59,172.64L41.85,167.36L42.11,167.61L42.12,166.38L42.8,140.34L43.02,146.44L43.04,147.05L43.05,147.31L43.22,142.36L43.65,143.45L43.67,143.24L43.87,133.09L44.3,141.1L44.31,142.65L44.61,138.03L44.98,150.25L45,149.26L45.01,151.19L45.1,154.16L45.37,147.62L45.76,150.9L45.77,151.46L46.53,165.09L46.6,163.47L46.61,161.86L47.03,147.44L47.41,155.28L47.42,157.46L47.43,155.92L48.05,167.41L48.1,167.3L48.12,167.03L48.53,154.93L48.54,167.43L48.8,160.99L48.81,164.94L48.86,161.41L49.52,170.82L49.54,170.27L49.6,172.43L50.2,159.6L50.22,160.59L50.23,160.45L50.96,172.67L51.16,170.01L51.17,169.45L51.81,155.04L52.01,163.08L52.03,163.76L52.37,167.37L52.68,161.45L52.69,161.58L53.33,153.65L53.5,155.29L53.51,155.51L53.54,157.1L54.15,150.24L54.17,149.58L54.64,136.6L54.99,146L55,146.49L55.02,146.2L55.41,164.6L55.42,165.87L56.43,189.51L56.44,189.29L56.58,192.09L56.99,183.6L57.02,183.89L57.03,183.71L57.06,184.55L57.53,167.67L57.55,166.75L59.24,136.71L59.29,137.5L59.3,138.17L59.37,138.1L59.92,148.8L60.29,144.28L60.31,143.55L60.38,141.7L60.7,147.61L60.71,148.34L61.22,155.99L61.55,151.96L61.56,151.7L62.2,144.17L62.38,145.28L62.39,145.54L62.41,146.2L62.78,142.76L63.11,144.6L63.12,144.3L63.53,134.43L63.84,143.21L63.85,143.91L64.8,159.6L65.06,154.56L65.07,154.03L66.04,174.4L66.39,170.21L66.4,169.95L66.54,165.17L67.08,173.19L67.09,173.99L67.14,174.55L67.5,169.72L67.68,169.93L67.7,170.01L67.9,175.5L68.99,155.81L69.08,158.33L69.09,158.6L69.12,158.35L69.28,162.21L69.61,161.57L69.62,162L70.48,169.39L70.49,169.32L70.51,170.23L71,160.62L71.02,160.69L71.03,160.33L71.21,158.47L71.89,167.01L71.93,165.97L71.94,165.95L72.55,155.36L72.86,159.66L72.87,160.3L73.16,159.04L73.43,163.65L73.45,163.39L73.46,163.94L73.59,165.93L74.28,155.66L74.44,159.49L74.46,159.74L75.21,170.67L75.29,168.2L75.3,167.66L75.64,163.79L76.03,172.59L76.18,172.11L76.19,171.59L76.7,177.78L76.99,174.73L77,174.22L77.02,173.21L77.52,181.44L77.54,181.15L77.55,182.2L77.84,188.52L78.29,186.14L78.3,186.01L78.87,174.78L79.16,175.65L79.18,175.11L79.37,179.17L79.84,166.13L79.85,165.73L80.89,130.98L81.26,142.67L81.27,143.37L82.6,181.82L82.78,176.49L82.79,174.84L83.13,164.81L83.58,170.43L83.59,170.72L83.67,171.51L84.05,160.97L84.17,161.73L84.18,160.91L84.21,161.7L84.54,153.38L84.55,152.41L84.66,150.08L85.09,160.1L85.25,154.88L85.26,155.66L85.3,156.07L85.78,146.8L85.79,146.4L86.17,136.12L86.45,152.33L86.47,151.95L86.48,151.85L87.68,179.58L87.69,179.67L88.05,192.14L88.59,188.34L88.61,187.67L89.2,178.51L89.48,178.87L89.5,178.84L89.6,180.96L89.8,172.73L89.81,171.75L89.98,166.92L90.43,170.51L90.44,170.66L90.75,169.25L91.19,177.91L91.2,178.64L91.34,173.45L91.75,179.36L91.76,179.63L91.77,180.22L92.24,165.57L92.26,164.81L93.74,109.73L94.01,112.65L94.02,112.75L94.98,141.18L95.17,138.98L95.18,138.65L95.2,137.9L95.48,154.61L95.49,154.55L95.5,155.89L95.84,152.3L96.01,164.83L96.26,152.39L96.27,151.64L96.92,141.73L97.13,145.13L97.15,145.42L97.52,155.69L97.71,148.11L97.72,147.65L98.06,150.44L98.2,146.42L98.31,149.23L98.32,150.13L98.63,147.73L98.73,158L98.74,159.23L99,175.46L99.53,165.69L99.54,163.82L99.94,172.17L100.21,159.18L100.3,166.54L100.31,164.49L100.56,181.85L101.07,169.21L101.08,168.13L101.62,155.85L101.84,166.46L101.85,167.51L102.03,182.13L102.43,165.96L102.44,164.87L102.46,163.72L102.79,174.02L103.09,171.38L103.1,172.11L103.14,170.82L103.51,183.72L103.52,184.33L103.59,187.21L103.76,179.32L103.77,179.64L103.78,178.81L103.79,179.25L104.17,163.49L104.19,163.34L104.36,160.98L104.77,170.21L104.78,171.01L104.81,171.98L105.15,160.07L105.18,160.3L105.19,159.23L105.85,144.56L106.11,148.51L106.12,148.88L106.39,145.39L106.59,152.17L106.81,147.55L106.82,147.34L107.19,138.33L107.35,157.8L107.36,159.56L107.48,175.93L107.82,131.91L107.96,132.35L107.97,131.75L108.1,135.72L108.83,118.8L108.93,121.63L108.94,122.25L108.95,121.67L109.29,144.85L109.3,144.91L109.32,145.4L109.66,135.36L109.67,134.92L109.95,112.46L110.48,127.83L110.49,128.7L110.92,128L111.2,136.71L111.33,132.31L111.34,131.67L111.54,123.44L111.98,136.9L111.99,137.48L112.23,135.79L112.89,150.94L113.16,145.15L113.18,144.53L113.24,142.11L113.67,159.89L113.68,160.48L114.6,173.54L114.61,173.57L114.75,178.37L115.09,153.85L115.19,158.2L115.2,158.87L115.4,170.24L115.74,155.49L115.76,155.6L115.93,154.83L116.95,169.17L116.97,168.84L116.98,167.94L117.28,161.33L117.76,164.17L117.77,164.72L117.89,164.23L118.18,172.13L118.19,172.05L118.26,173.4L118.53,165.67L118.61,165.96L118.62,165.93L118.73,167.78L118.99,163.63L119,163.23L119.09,161.9L120.03,177.25L120.27,172.97L120.28,172.38L120.54,167.86L121.04,177.35L121.25,175.47L121.27,174.83L121.56,177.7L121.78,170.76L121.79,171.17L121.81,170.69L122.01,167.92L122.53,177.95L122.79,174.96L122.8,174.69L123.57,163.6L123.75,166.68L123.77,166.93L124.58,176.83L124.66,176.19L124.67,175.77L124.85,179.63L125.32,173.85L125.33,174.04L125.34,173.97L125.47,173.56L125.85,186.29L126.28,181.98L126.29,181.47L126.72,177.81L126.95,183.25L126.97,183.39L127.83,198.05L127.88,195.51L127.89,194.98L128.29,182.09L128.51,190.47L128.52,191.69L128.8,196.96L129.32,195.47L129.33,195.23L129.69,184.26L130.13,189.87L130.14,190.32L130.56,183.82L130.57,183.63L130.6,184.4L130.96,171.28L131.08,171.38L131.09,171.37L131.33,173.46L131.8,168.76L131.91,169.29L131.92,169.82L131.93,170.59L132.45,156.29L132.5,156.73L132.51,155.94L132.73,155.96L133.93,139.33L133.98,141.53L134,141.32L134.37,130.98L134.58,144.61L134.75,139.61L134.76,140.55L134.96,137.91L135.09,142.53L135.48,140.63L135.49,138.82L135.55,140.26L135.78,134.29L135.9,139.27L135.91,140.5L135.92,137.44L136.38,148.26L136.64,145.25L136.65,144.42L137.01,141.83L137.58,151.99L137.59,150.89L137.61,150.28L138.14,159.38L138.21,158.13L138.22,158.03L138.23,158.92L138.75,147.38L138.88,150.87L138.9,151.22L139.18,152.41L139.31,146.84L139.47,147.46L139.48,146.7L139.59,142.31L139.88,151.35L140.27,143.9L140.28,145.15L140.29,146.42L140.63,139.45L141,141.9L141.01,142.38L141.25,144.69L141.39,139.72L141.57,143.49L141.58,144.11L141.72,140.68L142.21,150.2L142.31,147.36L142.32,147.48L143.11,158.24L143.27,155.36L143.28,155.06L143.33,152.54L143.74,159.97L143.95,159.06L143.97,159.06L144.25,164.85L144.73,159.86L144.74,160.11L144.8,159.95L145.84,175.03L145.97,170.68L145.98,170.24L146.37,164.67L146.7,172.21L146.71,172.48L147.37,182.53L147.6,178.71L147.62,178.61L147.93,176.56L148.24,186.07L148.25,186.17L148.35,187.08L148.76,182.31L148.88,182.65L148.89,181.47L149.42,172.29L149.69,175.02L149.7,175.08L149.76,176.22L150.27,171.67L150.29,170.83L150.33,171.37L150.84,155.11L151.33,158.74L151.34,159.28L151.41,158.35L151.64,165.93L151.99,162.23L152,162.32L152.45,158.29L152.49,167.29L152.67,164.03L152.69,166.48L153.27,156.29L153.28,178.89L153.44,164.36L153.45,165L153.82,151.08L153.83,175.36L154.18,160.98L154.2,163.98L154.57,172.61L154.94,157.29L154.95,164.18L155.28,152.8L155.7,157.72L155.72,158.88L156.53,146.56L156.54,148.83L156.56,149.38L156.83,141.43L157.29,147.17L157.3,145.72L157.38,149.32L157.48,140.79L157.94,143.53L157.95,142.42L158.16,131.64L158.61,142.78L158.71,140.86L158.72,139.84L159.24,145.53L159.41,137.53L159.44,138.54L159.46,137.74L159.76,129.84L160.3,144.41L160.31,142.25L160.8,145.88L160.97,139.92L161.04,140.34L161.06,141.69L161.07,139.94L161.74,153.25L161.75,153.41L161.77,153.25L162.04,155.96L162.08,155.16L162.09,157.9L162.14,156.78L162.53,166.78L162.76,164.99L162.77,165.99L162.78,165.18L163.16,175.98L163.41,174.54L163.42,174.76L163.79,178.37L164.14,174.26L164.17,175.09L164.18,174.22L164.23,173.18L164.89,186.72L165.16,185.33L165.17,184.96L165.38,188.11L165.7,178.8L165.83,180.25L165.84,179.61L166.52,175.4L166.67,176.65L166.68,177.63L166.95,174.19L167.26,185.2L167.38,183.47L167.39,184.09L167.58,188.04L167.91,180.94L167.92,180.03L167.93,180.26L168.18,173.45L168.39,173.62L168.4,173.33L169.26,157.61L169.67,161.03L169.69,161.18L170.16,167.03L170.26,150.61L170.44,160.18L170.45,161.95L170.67,167.85L171.13,144.96L171.58,147.08L171.59,147.41L171.63,147.57L171.94,139.3L172.27,144.51L172.28,145.94L172.32,145.12L172.65,151.06L172.96,149.27L172.98,152.56L173.26,169.39L173.77,162.43L173.79,163.92L173.96,157.29L174.32,164.35L174.54,161.77L174.55,162.6L174.78,157.85L175.09,167.04L175.3,161.97L175.31,163.42L175.32,163.03L175.59,177.6L175.74,175.78L175.75,176.32L175.77,177.02L176.34,169.43L176.6,171.96L176.61,173.51L176.72,170.84L177.2,181.2L177.22,180.73L177.23,181.26L178.25,165.49L178.32,165.96L178.33,167.37L178.37,166.38L178.69,172.3L178.72,172.1L178.73,172.7L178.87,173.45L179.37,162.02L179.68,164.5L179.69,164.76L179.86,162.41L180.47,166.48L180.48,166.49L181.09,155.37L181.53,159.56L181.54,160.41L181.62,162.87L182.13,149.35L182.17,149.7L182.18,150L182.34,152.25L182.49,147.56L182.77,148.55L182.78,148.03L182.8,149.99L183.34,141.97L183.5,144.22L183.51,144.76L183.59,145.49L184.05,138.86L184.29,143.49L184.3,144L184.67,152.56L185.06,146.01L185.07,146.01L185.33,138.63L185.86,154.27L185.96,150.91L185.98,150.75L186.43,158.57L186.75,153.38L186.76,152.6L187.03,151.46L187.23,157.33L187.25,157.32L187.26,158.28L187.72,160.61L188.07,146.55L188.21,147.57L188.22,148.31L188.24,146.6L188.45,154.51L188.47,156.4L188.5,158.9L188.6,146.84L188.61,145.77L188.68,143.6L188.96,160.08L189.05,157.29L189.06,158.22L189.18,162.04L189.67,152.99L189.68,150.74L189.86,141.73L190.22,170.99L190.23,171.78L190.26,172.57L190.53,158.71L190.54,157.86L190.64,155.42L190.87,162.69L191.26,160.76L191.27,160.5L191.29,160.21L191.61,168.31L191.62,169.23L191.83,167.08L192.05,171.78L192.26,167.67L192.27,167.22L192.58,163.19L192.8,168.81L193.04,165.24L193.05,164.8L193.15,161.19L193.47,166.76L193.76,164.9L193.77,164.27L193.78,164.95L194.38,161.08L194.49,162.59L194.5,162.87L194.55,162.18L194.81,166.34L194.82,166.29L194.83,167.86L194.99,169.74L195.48,154.65L195.7,156.28L195.71,156.3L195.72,155.71L196.23,163.15L196.34,163.1L196.35,163.08L196.87,168.45L197.17,156.22L197.19,158.76L197.39,155.28L197.88,169.17L197.9,168.45L198.63,154.19L198.64,154.22L198.65,153.76L199.12,147.5L199.37,154.31L199.4,153.44L199.42,152.4L199.9,164.82L200.23,158.93L200.24,157.13L200.66,157.68L201.16,149.87L201.29,151.16L201.3,151.36L201.36,152.39L202.13,139.67L202.21,141.36L202.22,142.99L202.23,141.7L202.93,147.78L202.94,147.14L202.95,147.56L203.44,139.43L203.53,141.16L203.54,140.46L204.23,147.58L204.33,144.57L204.34,143.44L204.9,138.3L205.12,146.1L205.13,145.56L205.17,145.02L205.98,155.72L206,153.65L206.06,154.67L206.28,142.37L206.51,151.88L206.52,152.57L207.21,167.75L207.43,164.33L207.44,163.38L207.52,162.56L208.73,180.47L209.03,178.45L209.04,175.55L209.51,159.21L209.9,168.14L209.92,168.34L209.96,168.33L210.21,174.03L210.47,169.91L210.48,169.55L210.5,170.49L210.79,160.97L211.21,168.08L211.22,168.5L211.27,167.34L211.74,179.52L212.02,171.18L212.03,170.84L212.34,163.11L212.75,172.11L212.77,171.71L212.93,172L214.14,149.32L214.41,150.84L214.42,151.98L214.66,157.07L215,148.48L215.01,148.52L215.81,160.27L216.02,153.58L216.03,151.73L216.22,158.01L216.24,158.39L216.46,150.69L217.02,155.77L217.04,155.7L217.09,156.16L218.09,140.57L218.11,141.46L218.34,135.18L218.44,140.31L218.46,141.37L218.86,153.79L219.39,152.89L219.4,152.61L219.48,154.39L219.92,143.95L220.04,145.01L220.05,144.74L220.07,144.56L220.2,149.51L220.21,150.15L220.81,162.87L221.09,156.42L221.1,156.23L221.23,151.97L221.68,165.94L221.69,166.86L222.02,165.62L222.23,173.76L222.24,174.71L222.53,203.84L222.57,182.74L222.58,169.64L222.77,193.67L222.91,117.13L223.32,179.12L223.33,180.45L223.39,195.49L223.86,150.71L224.03,167.28L224.04,164.44L224.1,158.66L224.21,177.81L224.69,161.66L224.7,158.94L224.82,140.65L225.68,194.08L225.69,192.75L225.7,190.95L225.76,212.94L226.1,107.54L226.39,153.29L226.4,146.36L226.44,137.7L226.52,155.36L226.53,168.01L226.6,198.31L226.99,116.22L227.21,162.57L227.22,144.58L227.28,116.99L227.81,215.24L227.92,146.19L227.93,123.57L228.09,198.15L228.26,83.67L228.63,135.44L228.64,146.53L228.72,191.45L228.89,130.26L229.41,173.34L229.42,171.06L229.66,191.88L230.22,119.89L230.28,128.64L230.3,134.73L230.69,230.34L231.08,167.54L231.1,166.72L231.66,181.52L231.75,140.78L231.76,129.72L231.77,124.08L232.36,207.16L232.37,210.4L232.56,254.36L232.95,111.57L232.97,104.01L233.02,89.64L233.06,117.68L233.07,130.99L233.48,225.71L233.84,168.41L233.86,171.15L234,139.73L234.2,211.23L234.22,214.39L234.45,268.92L234.91,91.13L235.05,176.35L235.06,186.93L235.33,212.71L235.57,80.95L235.78,177.07L235.79,169.41L236.31,246.1L236.45,113.68L236.51,173.39L236.53,179.16L236.76,105.13L237.28,202.23L237.31,194.58L237.33,191.26L237.8,125.66L238.06,193.12L238.07,197.98L238.08,196.97L238.19,260.73L238.2,273.41L238.24,302.41L238.38,87.07L238.68,89.65L238.69,76.56L238.73,58.89L239.22,199.74L239.36,172.16L239.38,177.54L239.54,288.42L239.65,71.28L239.66,55.58L239.85,192.5L239.86,207.23L240.05,96.52L240.32,249.15L240.42,136.53L240.43,118.63L240.45,109.25L240.91,203.67L241.08,162.67L241.09,162.69L241.53,238.87L241.62,85.88L241.83,160.43L241.84,171.1L241.88,196.15L242.27,102.01L242.54,126.29L242.55,122.96L242.83,278.47L243.28,104.82L243.31,110.95L243.32,116.14L244.2,258.13L244.21,256.5L244.75,90.9L244.97,230.48L244.99,232.15L245.02,235.87L245.52,113.94L245.53,111.74L245.61,96.31L245.92,182.09L246,125.49L246.01,125.28L246.27,241.44L246.62,159.83L246.63,159.16L246.66,162.33L246.75,97.39L246.77,91.54L246.81,75.23L247.09,184.63L247.39,171.44L247.4,182.74L247.66,218.66L248.05,91.03L248.06,84.82L248.13,74.22L248.39,202.71L248.4,210.35L248.46,221.74L248.9,133.52L248.91,124.91L248.97,96.17L249.55,225.39L249.56,224.92L250.22,104.77L250.46,148.81L250.47,156.59L250.88,235.12L251.15,112.62L251.16,103.53L251.18,95.45L251.71,212.28L251.72,217.72L251.77,231.33L252.26,110.43L252.28,102.87L252.3,95.11L252.85,197.04L252.86,199.65L252.89,204.27L253.38,140.96L253.39,134.76L253.59,108.69L254.04,202.04L254.06,205.22L254.08,205.79L254.1,192.42L254.11,184.32L254.76,100.6L254.91,149.65L254.92,149.22L254.95,145.19L255.28,195.56L255.56,180.53L255.58,184.3L255.62,195.8L256.04,112.87L256.25,157.82L256.26,154.97L256.67,143.09L256.93,184.08L256.94,186.91L257.01,218.21L257.5,95.78L257.64,127.35L257.65,129.88L257.66,127.91L258.14,179.87L258.16,187.74L258.36,215.76L258.61,166.32L258.62,158.72L258.81,86.86L259.32,145.13L259.33,146.41L259.59,204.39L260.01,128.97L260.03,125.76L260.13,99.08L260.63,159.57L260.68,151.31L260.69,150.68L261.03,244.17L261.49,88.71L261.5,112.8L261.51,120.07L261.52,95.45L261.82,174.56L262.23,133.29L262.25,148.95L262.26,147.72L262.37,215.85L262.38,192.06L262.39,227.7L262.47,246.69L262.99,99.08L263.17,133.85L263.18,144.34L263.19,124.33L263.89,202.54L263.9,199.26L263.91,190.55L263.92,212.16L264.37,133.1L264.64,150.72L264.66,147.57L264.72,141.28L264.89,189.5L265.24,175.93L265.25,185.68L265.76,200.32L266.03,136.53L266.04,143.85L266.3,84.13L266.65,144.46L266.79,132.74L266.8,132.2L266.83,136.36L266.89,121.85L266.92,134.6L266.93,141.67L267.02,132.17L267.39,206.84L267.66,147.42L267.68,148.23L267.99,119.53L268.28,189.95L268.41,154.76L268.42,155.35L268.63,132.38L269.06,212.48L269.07,210.69L269.08,211.65L269.28,177.79L269.29,157.11L269.3,170.27L269.67,115.46L270.04,168.66L270.05,157.8L270.49,131.12L270.73,172.61L270.74,161.57L270.75,175.71L271,205.37L271.48,115.76L271.71,137.39L271.72,156.8L271.93,170.99L272.49,120.8L272.5,146.62L272.81,121.22L273.18,199.95L273.2,176.04L273.21,198.84L273.29,230.5L273.7,103.13L274.06,163.25L274.07,185.48L274.25,198.73L274.63,143.33L274.84,166.5L274.85,173.69L275.08,238.46L275.4,148.55L275.42,143.65L275.65,108.4L275.96,200.37L275.97,196.48L275.98,201.74L276,208.59L276.37,152.37L276.73,180.46L276.74,208.63L276.97,248.08L277.44,128.08L277.54,150.76L277.56,166.61L277.59,165.41L277.81,226.17L278.14,203.13L278.15,187.01L278.27,164.76L278.68,233.74L278.72,229.86L278.73,240.12L278.74,240.32L278.75,230.75L278.76,257.3L278.81,260.24L279.23,148.91L279.55,168.91L279.56,154.82L279.84,141.94L280.16,171.63L280.3,149.44L280.32,151.3L280.35,149.06L280.6,202.24L280.61,195.49L280.62,210.84L280.8,234.51L281.37,100.04L281.43,104.06L281.44,102.44L281.77,80.19L282.01,111.08L282.2,91.36L282.21,100.32L282.22,95.68L282.6,199.28L282.91,121.03L282.92,126.09L283.04,113.55L283.21,145.5L283.22,143.66L283.23,150.54L284.06,207.15L284.07,206.9L284.08,200.55L284.42,269.62L284.65,154.13L284.75,161.39L284.77,156.27L285.14,186.4L285.41,148.85L285.53,180.49L285.54,178.74L285.82,157.88L286.34,249.12L286.38,237.28L286.39,231.12L286.56,126.18L287.19,155.8L287.2,156.22L287.3,147.99L288.16,265.4L288.25,240.88L288.26,228.38L288.42,98.42L289.05,149.38L289.06,149.42L289.16,148.04L289.89,260.99L290.03,193.71L290.04,181.98L290.12,115.89L290.8,152.71L290.82,154.31L291.24,134.33L291.4,155.81L291.41,156.72L291.75,218.81L291.87,92.28L291.89,83.32L291.99,17.68L292.22,140.62L292.58,121.7L292.6,118.94L293.1,36.97L293.38,88.53L293.4,88.66L293.8,264.64L293.89,141.97L293.9,96.22L293.96,17.49L294.29,222.8L294.63,156.18L294.65,176.81L294.98,118.74L295.36,302.98L295.45,302.48L295.46,302.7L295.52,302.74L295.56,291.03L295.57,281.28L295.68,67.68L295.94,302.39L296.34,203.71L296.35,211.35L296.73,302.93L297,107.38L297.01,79.27L297.06,49.2L297.33,302.82L297.71,151.81L297.72,156.87L298.15,87.3L298.36,302.65L298.54,242.65L298.55,211.6L298.67,58.77L298.88,292.97L299.31,163.32L299.32,172.96L299.6,98.48L299.87,301.1L299.97,128.47L299.99,97.75L300.1,17.34L300.33,232.28L300.73,96.51L300.74,99.66L301.03,43.98L301.56,279.78L301.62,185.28L301.63,146.17L301.71,17.53L302.02,219.62L302.37,106.27L302.39,121.56L302.78,303.22L303.05,17.39L303.11,77.92L303.12,91.15L303.21,241.79L303.74,48.55L303.89,167.95L303.91,183.63L304.29,71.82L304.47,247.69L304.62,128.15L304.63,114.76L304.73,54.87L305.27,208.83L305.28,212.05L305.3,216.62L305.45,105.79L305.46,92.47L305.53,55.31L306.09,184.65L306.1,190.95L306.17,213.77L306.64,104.9L306.66,99.47L306.68,95.61L306.85,183.38L307.2,153.5L307.21,159.21L307.47,288.11L307.58,72.45L307.59,38.94L307.66,17.38L307.84,228.07L308.25,168.19L308.27,189.89L308.5,283.68L308.66,17.4L309,162.95L309.01,156.89L309.33,279.22L309.58,20.56L309.71,150.89L309.72,165.57L310.17,301.2L310.34,30.8L310.4,71.32L310.41,74.3L310.43,72.29L310.45,79.98L310.46,89.31L310.87,276.51L311.04,20.35L311.34,226.2L311.35,207.74L311.98,295.69L312.14,17.28L312.19,26.55L312.2,32.5L312.68,284.36L312.81,17.08L313.13,215.17L313.14,219.12L313.19,247.78L313.3,57.77L313.31,40.82L313.75,280.18L313.92,21.16L314.01,90.53L314.02,104.95L314.47,272.82L314.64,17.57L314.86,201.1L314.87,194.09L314.98,251.79L315.1,20.28L315.41,210.58L315.42,221.64L315.46,280.2L315.62,17.32L316.17,238.58L316.19,258.67L316.21,272.27L316.39,52.63L316.91,227.01L316.92,211.78L317.03,46.93L317.34,250.7L317.66,193.11L317.67,190.72L318.03,275.13L318.21,61.65L318.43,175.96L318.44,184.38L318.7,248.62L318.86,36.83L319.19,188.76L319.21,189.01L319.3,135.82L319.45,222.47L319.46,227.62L319.48,230.56L319.58,139.52L319.59,134.28L319.71,96L320.07,250.75L320.08,263.15L320.12,247.22L320.13,228.82L320.79,233.6L320.92,19.86L320.97,59.57L320.99,83.83L321.1,259.89L321.45,36.07L321.76,161.08L321.77,159.55L321.86,278.96L321.98,93.68L321.99,74.67L322.01,45.54L322.62,253.6L322.66,215.52L322.68,198.77L322.77,42.96L322.96,229.88L323.45,115.96L323.46,133.65L323.81,233.73L323.99,83.45L324.24,194.45L324.25,192.96L324.46,127.48L325.01,184.73L325.02,186.87L325.07,189.56L325.22,134.35L325.6,167.22L325.62,163.75L325.71,145.46L326.22,207.58L326.24,208.09L326.26,212.46L326.45,113.26L326.96,199.49L326.97,194.63L327.11,92.2L327.32,195.56L327.72,158.43L327.73,162.24L327.9,209.44L328.13,122.37L328.52,189.9L328.53,185.46L329.07,219.42L329.27,118.57L329.34,142.97L329.36,149.35L329.68,186.43L329.9,135.42L330.14,170.71L330.16,169.65L330.3,148.43L330.39,162.65L330.4,166.14L330.66,195.25L330.87,121.75L331.16,172.35L331.17,171.96L331.24,173.96L331.34,147.38L331.35,143.21L331.39,131.71L331.87,197.99L331.98,192.75L331.99,194.52L332.01,196.05L332.17,116.21L332.18,111.47L332.21,107.47L332.39,187.01L332.81,141.05L332.83,149.29L333.45,192.44L333.57,150.9L333.58,148.08L333.64,137.74L333.86,169.7L334.3,151.58L334.31,152L335.07,200.41L335.15,165.8L335.16,156.67L335.24,111.63L335.44,182.36L335.9,161.96L335.91,165.02L336.33,200.91L336.51,136.06L336.52,126.61L337.04,197.32L337.23,103.13L337.28,116.49L337.29,122.01L337.97,208.21L338.09,160.42L338.1,153.08L338.17,127.61L338.64,170.21L338.83,162.83L338.84,163.98L339.2,155.7L339.68,206.31L339.72,183.46L339.73,174.57L339.83,115.76L340.04,183.29L340.48,161.59L340.49,166.64L340.81,138.6L341.27,184.22L341.29,184.15L341.69,115.41L341.98,170.15L342,171.52L342.09,181.1L342.26,124.46L342.51,140.51L342.53,137.58L342.56,135.06L342.96,171.59L342.98,172.48L343.1,189.02L343.24,158.06L343.25,154.06L343.34,128.11L343.8,183.29L344.02,141.96L344.04,142.2L344.82,194.73L344.97,164.31L344.98,161.31L345.12,134.08L345.48,171.88L345.76,148.94L345.77,151L346.02,130.04L346.42,193.04L346.54,156.38L346.55,150.75L346.65,124.5L346.99,176.59L347.26,162.26L347.27,165.85L347.6,151.24L347.92,177.31L348.01,166.2L348.02,163.11L348.14,142.85L348.74,166.38L348.76,167.6L349.28,193.47L349.43,156.97L349.44,153.06L349.51,131.69L349.8,167.54L350.19,148.44L350.2,149.61L350.37,142.31L350.75,192.46L350.93,149.47L350.94,143.71L351.01,125.65L351.44,164.94L351.68,145.86L351.7,146.31L352.18,196.67L352.19,200.09L352.23,204.42L352.32,164.41L352.33,156.22L352.42,121.6L353.06,166.11L353.07,167.03L353.33,172.55L353.51,140.74L353.52,139.94L353.76,168.53L353.77,170.5L354.02,195.77L354.14,139.56L354.15,135.01L354.2,126.32L354.55,164.69L354.83,155.2L354.84,157.04L355.31,188.24L355.5,144.94L355.51,142.12L355.56,136.51L355.98,174.88L355.99,176.08L356.18,137.55L356.35,177.81L356.56,153.64L356.57,153.12L356.66,146.63L356.89,183.86L356.9,186.14L357.04,204.3L357.24,136L357.44,153.27L357.45,151.72L357.81,165.9L358.23,144.12L358.28,145.99L358.29,147.13L358.66,214.7L358.88,136.47L358.89,136.39L358.92,135.16L359.01,146.95L359.02,147.95L359.19,146.89L359.44,178.08L359.78,149.02L359.8,147.8L359.85,146.07L360.09,169.51L360.1,172.36L360.33,214.57L360.7,137.94L360.73,139.16L360.74,139.5L360.76,139.14L360.9,158.61L360.91,161.46L361.08,199.97L361.59,143.19L361.6,143.13L361.62,141.99L361.85,177.73L361.86,181.5L362.04,210.9L362.42,118.12L362.43,117.21L362.53,112.7L362.95,140.99L363.06,133.89L363.07,133.17L363.27,119.27L363.47,139.87L363.48,141.1L363.9,187.57L364.41,172.41L364.43,173.34L364.55,182.81L364.99,153.39L365.12,163.66L365.14,163.64L365.73,196.66L365.74,198.91L365.82,208.99L366.08,154.78L366.09,153.12L366.12,151.31L366.44,178.36L366.72,165.09L366.74,165.02L367.01,173.05L367.2,161.6L367.28,169.11L367.29,171.28L367.59,202.86L367.88,147.14L367.9,143.57L367.95,129.07L368.39,165.98L368.61,157.68L368.62,157.69L368.85,150.89L369.09,160.52L369.1,162.04L369.41,206.75L369.7,137.52L369.71,135.11L369.77,130.37L370.31,166.12L370.32,166.24L370.5,159.04L370.51,156.67L370.67,139.3L371.15,164.37L371.24,159.71L371.25,159.28L371.3,157.67L371.79,171.26L371.81,172.59L371.83,176.69L372.06,130.99L372.54,170.26L372.55,170.98L372.58,171.53L372.72,159.18L372.84,159.67L372.85,159L373.16,122.44L373.4,166.82L373.42,167.02L373.81,162.93L373.93,179.13L374.02,164.35L374.04,161.12L374.19,129.59L374.44,167.05L374.8,153.23L374.81,154.33L375.25,153.09L375.75,189.74L375.91,187.8L375.92,186.05L376.1,132.6L376.67,173.55L376.68,174.1L376.73,175.26L376.93,155.83L376.94,153.91L377.03,147.86L377.47,187.72L377.48,190.13L377.55,194.65L377.9,142.84L377.91,140.33L378.02,125.83L378.46,166.85L378.56,162.06L378.58,161.89L379,144.41L379.25,158.88L379.26,160.39L379.44,177.81L379.71,136.89L379.73,135.03L379.84,127.74L380.37,149.78L380.38,152.01L380.46,161.19L380.76,132.67L381.12,150.55L381.13,151.44L381.64,200.71L381.8,160.6L381.81,155.22L381.91,117.18L382.21,168.87L382.54,161.06L382.55,161.92L382.68,169.26L383,139.85L383.01,138.56L383.05,136.37L383.25,162.8L383.26,164.1L383.61,177.98L383.77,137.81L383.78,131.89L383.88,100.83L384.32,149.9L384.51,143.71L384.52,144.99L384.67,165.79L384.95,137.97L384.99,139.75L385,139.82L385.09,132.23L385.22,166.97L385.23,171.01L385.59,151.63L385.94,183.57L386.01,176.3L386.02,173.46L386.18,132.23L386.47,175.95L386.78,161.98L386.79,162.96L386.98,179.16L387.6,170.52L387.61,170.71L387.69,172.54L387.93,151.53L387.94,151.22L388.4,175.77L388.41,177.46L388.84,212.84L388.95,148.59L388.96,138.9L389.03,106.79L389.33,193.38L389.68,150.28L389.7,152.91L390.11,117.42L390.48,182.53L390.55,180.66L390.56,180.81L390.73,198.91L390.74,203.83L390.86,250.89L391.06,63.35L391.44,192.09L391.45,183.12L391.57,123.01L391.89,220.82L392.23,138.49L392.24,142.58L392.42,233.7L393.01,165.87L393.02,163.49L393.12,154.1L393.51,195.94L393.53,198.54L393.63,217.75L393.83,128.29L394.2,180.39L394.21,176.55L394.64,205.05L394.83,124.9L394.97,165.83L394.98,170.05L395.1,161.39L395.56,258.28L395.64,186.97L395.65,165.74L395.76,73.03L396.03,211.49L396.36,142.36L396.38,147.96L396.91,114.13L397.21,246.84L397.25,226.24L397.27,215.64L397.39,17.47L398.05,96.48L398.07,109.08L398.42,88.64L398.8,300.72L398.85,205.29L398.87,166.81L398.92,17.65L399.27,238.05L399.63,113.45L399.64,124.52L400.2,258.43L400.31,42.64L400.32,30.13L400.35,20.67L400.43,77.29L400.44,102.17L400.95,58.46L401.28,302.64L401.29,302.5L401.3,302.07L401.39,17.3L402.05,126.87L402.07,152.05L402.46,303.27L402.54,16.89L402.85,240.98L402.87,241.5L402.92,263.91L403.01,110.92L403.02,83.88L403.46,303.17L403.6,17.3L403.73,139.19L403.74,165.4L404.13,69.99L404.32,303.05L404.49,229.23L404.5,185.14L405.04,16.61L405.22,302.1L405.23,303.19L405.25,303.54L405.34,221.77L405.47,246.05L405.48,186.75L405.75,282.2L406.03,17.08L406.21,277.4L406.22,278.59L406.52,17.67L406.62,184.88L406.63,210.1L406.68,276.83L407.28,107.69L407.36,172.07L407.37,170.47L407.45,140.63L407.74,240.4L407.75,269.33L407.81,303.63L407.96,17L408.49,273.22L408.5,264.42L409.12,303.56L409.25,23.26L409.32,86.06L409.33,88.92L409.71,302.6L409.79,99.92L409.8,44.41L410.27,303.21L410.48,16.76L410.51,59.49L410.53,100.21L410.9,17.49L411.08,295.43L411.29,183.4L411.3,165.68L411.56,277.7L411.88,16.96L412.01,212.04L412.02,233.64L412.34,17.46L412.52,293.8L412.72,197.16L412.73,188.78L412.88,17.11L412.96,257.02L412.97,274.15L412.99,285.65L413.31,17.25L413.62,222.25L413.64,201.01L413.94,271.79L414.27,16L414.36,256.86L414.37,273.73L414.71,16.69L414.84,295.39L414.96,117L414.98,99.71L415.14,18.21L415.28,300.46L415.67,150.95L415.69,189.84L416.09,24.72L416.26,303.98L416.4,98.9L416.41,72.45L416.55,28.74L416.77,303.1L417.09,151.32L417.11,182.09L417.23,303.48L417.48,31.76L417.81,74.59L417.83,68.28L418.16,302.73L418.43,26.61L418.5,126.78L418.51,162.97L418.9,30.24L419.05,303.02L419.22,41.31L419.23,39.35L419.38,31.68L419.46,168.72L419.47,205.27L419.53,303.35L419.7,27.09L420.16,31.79L420.17,32.81L420.51,303.43L421.01,189.25L421.03,154.72L421.43,302.97L421.72,24.32L421.78,124.28L421.79,166.97L422.2,18.18L422.31,304L422.52,85.61L422.54,105.95L422.66,17.43L423.24,303.9L423.35,235.39L423.36,197.27L423.79,303.18L424.08,19.84L424.13,114.21L424.15,148.96L424.55,34.91L424.69,303.49L424.87,70.16L424.88,77.07L425.02,47.19L425.16,303.62L425.72,253.97L425.73,225.69L425.99,75.03L426.15,296.74L426.52,101.6L426.53,117.05L426.64,291.06L426.97,86.48L427.23,167.44L427.24,146.9L427.47,89.69L427.65,280.09L428.01,108.05L428.02,117.17L428.16,279.42L428.3,96.67L428.75,133.73L428.77,116.36L428.81,78.3L429.41,207.49L429.5,140.2L429.51,133.6L429.55,119.95L429.7,192.44L430.22,156.03L430.23,160.14L430.68,210.69L430.78,134.48L430.79,124.23L431.21,222.38L431.38,93.46L431.5,154.12L431.51,158.25L431.67,210.81L431.87,119.22L431.89,112.18L432.28,206.96L432.48,85.5L432.57,141.22L432.58,150.72L433,98.9L433.19,209.5L433.33,163.94L433.34,159.84L433.71,192.52L434.07,125.2L434.12,137.93L434.13,145.19L434.23,184.16L434.38,144.46L434.9,169.9L434.92,172.63L434.94,174.62L435.36,151.46L435.56,159.09L435.57,157.39L435.64,145.87L436,191.51L436.01,192.38L436.14,134.89L436.45,167.79L436.46,170.07L436.63,141.53L437.01,174.96L437.18,165.77L437.19,164.32L437.43,185.89L437.57,136.7L437.9,168.87L437.91,170.92L438.06,146.3L438.26,183.71L438.46,147.15L438.48,145.81L438.85,179.55L438.98,142.53L439.08,162.36L439.1,165.75L439.45,147.08L439.59,180.87L439.85,169.24L439.86,168.77L440.27,171.49L440.4,147.79L440.65,162.53L440.66,164.79L441.21,188.26L441.36,152.07L441.37,152.27L441.71,185.29L442.26,176.25L442.27,174.5L442.36,158.35L442.78,178.76L443.02,171.7L443.03,172.49L443.17,156.52L443.26,171.2L443.28,172.95L443.33,177.37L443.71,164.5L443.97,166.17L443.99,164.41L444.48,160.17L444.6,175.38L444.69,171.18L444.71,170.76L445.04,184.12L445.19,156.97L445.29,175.31L445.3,175.61L445.37,165.26L445.38,162.25L445.45,151.97L445.81,173.22L446.13,161.9L446.14,162.13L446.26,175.88L446.4,154.68L446.81,165.84L446.82,164.43L447.06,155.83L447.2,164.92L447.58,161.05L447.59,162.58L447.98,157.14L448.15,172.58L448.31,158.03L448.32,158.69L448.51,153.58L449.16,175.25L449.2,170.67L449.21,169.22L449.46,151.67L449.62,180.66L450.01,161.45L450.02,163.83L450.4,146.28L450.58,177.74L450.76,162.28L450.77,162.93L450.78,163.11L450.87,151.69L450.88,150.62L451.03,168.85L451.35,148.71L451.45,156.32L451.47,156.92L451.61,163.24L451.81,149.88L452.22,158.48L452.23,156.83L452.4,164.17L452.76,148.53L453.01,151.84L453.02,152.12L453.21,150.59L453.83,165.74L453.88,161.17L453.89,159.48L454.16,149.14L454.3,161.96L454.65,154.14L454.67,155.19L455.19,160.77L455.34,151.49L455.43,156.67L455.44,156.72L455.54,151.07L455.65,163.22L455.66,163.51L456.03,148.42L456.15,168.48L456.38,159L456.39,158.73L456.51,151.08L456.58,159.61L456.59,161.78L456.64,166.94L456.99,150.78L457.32,158.38L457.34,158.63L457.93,155.1L458.07,164.31L458.14,160.57L458.15,160L458.52,163.37L458.87,152.49L458.92,156.28L458.93,157.3L459.03,162.16L459.33,154.56L459.72,160.4L459.73,159.78L460.16,162.35L460.29,154.21L460.52,156.85L460.53,157.64L460.74,155.09L460.88,163.3L461.17,156.36L461.18,155.89L461.36,163.25L461.66,153.81L461.76,159.05L461.77,159.95L462.11,155.18L462.4,163.06L462.47,159.94L462.48,159.06L462.9,162.49L463.01,155.12L463.19,161.15L463.2,161.45L463.36,163.92L463.44,158.64L463.45,157.78L463.5,156.35L463.8,163.3L464.18,157.34L464.2,157.87L464.29,162.92L464.89,154.62L464.91,153.8L465.24,160.9L465.41,150.04L465.59,156.96L465.6,157.06L465.71,162.47L465.87,150.83L465.89,150.64L466.19,160.46L466.36,148.7L466.73,156.91L466.74,156.09L467.17,158.03L467.32,146.9L467.54,150.83L467.55,151.6L467.79,147.04L468.09,154.82L468.26,149.1L468.27,149.09L468.45,146.8L468.51,149.9L468.52,150.83L468.59,153.33L468.92,147.05L469.25,151.03L469.27,150.32L469.37,147.55L469.75,152.81L470.04,149.17L470.05,148.84L470.2,153.81L470.53,145.9L470.63,150.26L470.64,150.62L470.83,148.05L471.16,152.59L471.33,149.29L471.34,149.43L472.08,154.13L472.14,151.56L472.15,150.82L472.19,149.35L472.81,154.45L472.85,153.96L472.86,153.77L472.92,152.62L473.34,156.73L473.43,156.28L473.45,156.38L473.58,153.52L473.92,155.42L473.93,155.71L474.02,155.69L474.74,161.3L474.92,159.82L474.93,159.51L475.01,157.48L475.18,162.58L475.57,161.75L475.59,162.45L475.98,160.23L476.15,167.93L476.36,164.01L476.37,163.54L476.45,159.61L476.6,167.45L477.01,164.57L477.02,165.48L477.4,164.18L477.55,168.29L477.78,167.38L477.79,166.71L478,168.64L478.36,161.83L478.46,167.95L478.47,168.32L478.81,162.78L478.95,169.23L479.06,165.18L479.07,164.9L479.18,168.29L479.55,162.32L479.81,164.37L479.82,165.02L479.91,168L480.02,163.54L480.54,163.56L480.55,163.64L480.82,168.27L480.9,164.76L480.91,164.07L481.2,160.14L481.33,165.09L481.66,163.64L481.67,163.74L481.98,166.38L482.35,162.56L482.36,162.08L482.47,164.13L482.83,158.73L482.84,158.67L483.67,167.73L483.93,166.75L483.95,166.38L484.28,161.77L484.64,167.59L484.76,163.85L484.77,164.07L485.11,166.99L485.44,162.15L485.45,162.02L485.58,165.35L485.69,161.09L485.7,161.02L485.91,160.2L486.23,163.98L486.52,162.87L486.54,162.63L486.72,162.83L487.34,155.55L487.44,157.01L487.45,156.99L487.52,156.84L487.64,159.18L487.66,158.99L487.67,159.15L488.14,160.69L488.79,151.05L488.86,152.6L488.87,152.98L489.59,161.45L489.84,159.75L489.85,159.59L490.05,161.04L490.39,156.19L490.55,160.08L490.56,160.3L490.74,165.75L490.99,158.52L491.35,162.19L491.36,162.32L491.79,160.4L492.2,164.48L492.21,164.46L492.23,164.32L492.26,163.86L492.84,166.51L492.87,166.42L492.88,166.48L493.36,164.33L493.6,166.93L493.61,167.21L494.2,170.24L494.34,167.56L494.35,167.19L494.69,167.7L494.88,163.23L495.21,164.75L495.22,164.81L495.48,164.86L496.19,159.89L496.2,159.98L496.78,156.44L496.98,158.84L496.99,159.07L497.36,160.1L497.59,158.51L497.6,158.23L497.79,156.56L498.09,159.37L498.11,159.52L498.49,157.76L498.83,159.78L498.84,159.75L498.85,159.73L499.36,156.94L499.65,159.07L499.66,159.18L500.55,162.82L500.57,162.76L500.58,162.63L500.93,161L501.87,169.49L501.96,167L501.97,166.61L502.63,158.64L502.8,162.88L502.82,163.36L502.91,164.24L503.32,157.15L503.33,157.2L504.61,172.06L504.73,170.39L504.74,169.74L505.42,161.91L505.65,163.52L505.67,163.63L505.76,163.16L505.96,166.86L505.97,166.63L505.98,167.15L506.19,167.77L506.6,166.51L506.69,166.84L506.7,166.65L506.78,165.88L507.14,169.27L507.41,167.29L507.42,167.39L507.6,168.23L508.16,163.16L508.17,162.62L508.25,161.14L508.49,167.15L508.5,167.51L509.01,170.18L509.83,156L509.85,155.92L509.88,155.67L510.45,159.29L510.46,159.44L510.51,160.58L511.03,157.6L511.04,157.35L511.75,153.06L511.92,153.69L511.93,153.91L512.37,154.13L512.73,152.14L512.74,151.95L512.95,151.31L513.54,153.65L513.56,153.38L513.57,153.48L513.75,154.05L514.28,146.82L514.6,150.06L514.61,150.23L515.3,152.32L515.42,151.52L515.43,151.27L515.92,146.37L516.17,148.46L516.18,148.7L516.38,147.92L516.68,151.24L517.02,149.88L517.03,149.79L517.29,149.31L517.82,151.33L517.88,150.64L517.89,150.53L518.09,148.59L518.54,152.61L518.55,152.34L518.56,152.59L518.88,151.39L519.16,155.21L519.17,155.75L519.77,160L520.09,159.58L520.1,159.41L520.24,157.93L521.16,169.22L521.34,166.88L521.35,166.79L521.74,164.16L522.08,167.15L522.09,167.39L522.43,166.68L522.65,171.49L522.67,172.16L522.7,171.91L523.1,175.64L523.12,175.73L523.23,176.2L524.07,167.42L524.12,168.34L524.13,168.48L524.46,166.72L525.09,188.84L525.14,182.07L525.16,179.94L525.71,153.12L525.97,164.47L525.98,163.95L526.19,148.24L526.56,161.98L526.57,162.45L526.87,173.28L527.12,167.89L527.13,167.79L527.59,158.53L527.77,169.18L527.78,169.9L527.88,175.57L528.07,144.24L528.35,158.7L528.37,157.87L528.49,142.72L528.77,167.12L529.14,151.96L529.15,152.91L529.4,143.62L530.15,189.48L530.22,166.81L530.24,160.62L530.47,162.21L530.75,133.29L530.98,161.91L530.99,163.33L531.08,172.06L531.35,148.01L531.64,153.67L531.66,153.34L531.73,151.05L531.89,161.94L532.15,159.97L532.16,161.6L532.37,184.92L532.53,135.18L532.84,153.75L532.85,150.85L532.96,131.4L533.28,177.51L533.62,144.15L533.63,144.75L534.25,209.03L534.38,147.39L534.39,141.29L534.84,120.92L535.05,159.01L535.06,161.87L535.16,182.62L535.5,131.75L535.81,164.25L535.82,164.27L535.84,163.13L536.12,188.64L536.13,189.4L536.2,194.1L536.4,131.73L536.68,146.76L536.69,145.8L536.8,132.03L537.2,164.48L537.47,139.35L537.48,140.29L537.68,164.19L538.4,162.52L538.42,162.2L538.47,165.33L538.53,153.3L538.54,149.01L538.65,128.17L539.27,155.36L539.28,156.24L539.38,165.89L539.53,148.83L540.05,160.81L540.06,161.54L540.25,152.69L540.4,168.85L540.41,171.62L540.51,190.38L541.05,137.09L541.06,136.11L541.1,134.04L541.43,167.4L541.55,163.02L541.56,163.1L541.73,156.93L542.45,197.85L542.53,175.41L542.54,171.98L543.03,130.54L543.29,166.57L543.3,168.47L543.82,159.84L544.01,178.5L544.09,173.9L544.1,173.05L544.25,169.56L544.34,180.02L544.35,183.18L544.46,198.5L544.74,147.79L544.98,156.4L544.99,156.51L545.1,153.47L545.21,163.55L545.22,165.77L545.46,181.74L545.75,147.31L545.97,166.24L545.99,167.39L546.31,184.23L546.74,172.07L546.75,165.96L546.85,147.01L547.48,165.2L547.5,166.37L547.9,163.19L548.25,179.42L548.35,177.15L548.36,177.01L548.39,176.8L548.52,180.78L548.53,181.44L548.63,194.27L548.81,152.35L548.93,160.48L548.94,159.32L549.22,143.34L549.47,175.03L549.48,177.27L549.53,184.33L550.09,164.53L550.21,172.84L550.22,171.2L550.46,159.51L550.75,180.66L550.76,182.78L550.81,185.53L551,159.19L551.22,159.22L551.24,158.2L551.4,139.45L551.73,166.04L551.74,167.03L551.77,168.62L552.04,157.79L552.49,167.42L552.5,167.5L552.78,159.91L553,176.88L553.02,178.66L553.03,178.99L553.09,159.13L553.11,154.58L553.2,136.67L553.84,163.8L553.85,165.25L553.96,177.76L554.47,158.91L554.56,160.85L554.57,161.29L554.76,151.93L554.9,164.12L554.91,167L555.05,202.07L555.52,128.94L555.53,126.82L555.63,112.49L555.96,175.44L556.13,159.33L556.14,159.65L556.28,137.51L556.64,160.35L556.65,163.28L556.87,201.8L557.11,154.56L557.12,152.24L557.13,153.12L557.44,115.93L557.45,115.98L557.47,114.98L557.5,114.47L557.62,136.16L557.63,138.21L558.7,183.64L558.72,183.79L558.85,187.19L558.9,182.8L558.91,181.04L559.41,104.06L559.7,164.87L559.71,166.54L559.76,172.9L560.32,140.48L560.33,140.47L560.51,156.71L560.52,157.64L560.91,194.05L561.03,145.46L561.04,140.85L561.31,111.3L561.72,180.34L561.74,182.05L561.83,194.21L562.15,118.64L562.16,113.74L562.2,111.84L562.48,160.12L562.49,163.25L562.75,205.86L563.12,125.92L563.14,127.18L563.15,126.44L563.29,107.97L563.45,127.77L563.46,129.29L563.76,176.7L564.09,125.83L564.13,127.97L564.15,128.44L564.55,250.51L564.75,180.03L564.77,176.49L565.1,88.45L565.55,160.96L565.57,165.89L565.72,165.31L566.04,228.67L566.34,172.75L566.35,168.39L566.58,120.09L567.14,148.71L567.15,152.24L567.49,197.69L567.5,203.57L567.65,237.95L568.1,136L568.11,135.13L568.24,114.71L568.6,185.47L568.78,150.83L568.79,151.35L569.07,136.67L569.41,240.9L569.66,174.73L569.67,173.91L569.96,105.11L570.21,167.18L570.22,170.64L570.71,137.82L570.98,224.26L571.1,200.66L571.11,195.35L571.19,196.43L571.3,166.27L571.31,160.14L571.54,109.41L571.98,166.68L572.04,163.71L572.05,163.37L572.17,155.04L572.33,172.33L572.34,174.28L572.47,202.08L572.94,131.58L572.96,130.52L573.02,113.59L573.58,179.79L573.59,181.34L573.94,198.99L574.08,159.02L574.24,168.03L574.25,163.4L574.7,126.19L575,160.49L575.01,162.07L575.41,215.74L575.61,162.69L575.63,160.14L575.64,161.95L575.78,145.26L576.35,155.06L576.36,154.26L576.41,152.13L576.58,174.76L576.59,175.84L576.74,192.11L576.75,193.22L576.91,215.31L577.29,147.47L577.3,147.55L577.48,137.91L577.7,166.07L577.71,167.06L577.92,158.48L578.12,171.78L578.13,172.7L578.42,198.06L578.56,170.33L578.57,167.85L578.96,124.9L579.31,174.05L579.34,172.59L579.36,173.02L579.9,185.68L579.96,169.39L579.97,166.26L580.46,128.81L580.8,154.03L580.81,154.9L581.24,184.62L581.48,151.25L581.5,151.33L581.9,124.32L582.1,143.19L582.12,142.93L582.15,141.69L582.42,172.96L582.44,172.06L582.45,172.47L582.72,176.46L583.38,126.33L583.71,142.01L583.73,142.9L584.22,189L584.53,152.74L584.54,151.45L584.74,139.47L585.21,170.7L585.22,171.28L585.3,178.57L585.53,162.91L585.56,163.46L585.57,162.94L585.96,166L586.45,143.16L586.53,146.26L586.54,147.84L586.98,171.16L587.35,156.53L587.37,156.38L587.7,139.69L588.09,157.62L588.1,157.09L588.11,158.57L588.3,172.16L588.76,157.35L588.85,159.37L588.86,158.73L588.93,160L589.33,141.87L589.34,141.62L589.49,134.69L589.8,157.59L589.81,158.86L590.07,173.34L590.52,157.1L590.53,154.52L590.61,158.3L591.06,141.46L591.25,155.88L591.26,157.18L591.32,154.39L592.1,168.08L592.13,163.77L592.14,162.46L592.59,145.42L592.9,158.22L592.91,159.28L593.12,158.88L593.46,168.26L593.7,164.03L593.71,163.45L593.72,164.55L594.07,147.58L594.37,153.88L594.38,154.42L594.63,153.89L595.21,166.55L595.22,165.76L595.58,155.37L595.87,167.36L595.97,165.3L595.98,165.41L596.05,171.44L596.24,161.92L596.75,169.66L596.76,168.75L596.95,162.1L597.39,172.85L597.4,173.33L597.8,174.26L597.93,168.93L597.94,167.47L598.15,169.99L598.68,163.23L598.72,164.54L598.73,166.01L599.27,180.34L599.55,173.04L599.57,173.08L599.9,159.97L600.21,171.25L600.22,172.81L600.3,167.11L600.77,177.47L600.95,173.38L600.96,171.91L601.02,184.43L601.51,168.03L601.71,174.71L601.72,175.31L601.77,172.29L602.43,183.12L602.51,179.77L602.52,178.44L602.93,167.75L603.25,177.61L603.26,177.46L603.27,177.97L603.61,167.65L603.94,174.8L603.95,173.86L604.58,158.57L604.8,164.2L604.82,163.71L605.3,174.6L605.57,166.25L605.58,164.37L605.62,164.56L606.06,153.17L606.37,161.11L606.38,162.22L606.47,158.59L606.74,171.38L607.14,161.61L607.15,162.19L607.16,162.56L607.55,152.12L607.61,152.87L607.62,151.69L607.63,151.51L608.07,156.29L608.12,156.06L608.13,156.05L608.38,161.98L608.95,144.59L608.96,144.74L608.97,146.31L609.39,156.38L609.72,147.66L609.73,147.12L609.93,155.44L610.37,144.88L610.38,144.87L610.97,154.43L611.15,147.56L611.16,146.53L611.33,150.13L611.98,135.75L612.15,140.82L612.16,142.81L612.43,148.57L612.89,140.63L612.9,139.26L612.97,141.46L613.57,132.72L613.7,135.95L613.72,136.94L614.26,150.97L614.64,145.89L614.65,145.76L614.98,135.11L615.39,145.56L615.41,145.92L615.45,145.8L615.83,155.23L616.23,149L616.24,147.53L616.52,141.6L616.89,150.82L616.95,149.86L616.96,151.59L617.29,158.61L617.61,148.47L617.7,151.41L617.72,149.89L617.96,141.58L618.4,158.05L618.42,156.31L618.44,155.01L618.46,155.53L618.75,148.12L618.92,148.25L618.93,148.22L619.03,142.08L619.68,149.18L619.69,148.69L619.7,148.18L620.3,157.73L620.49,154.04L620.5,152.71L620.82,145.5L621.17,156.24L621.19,156.1L621.2,157.04L621.26,156.21L622.03,167.98L622.18,164.96L622.19,162.89L622.2,161.3L622.87,172.54L622.89,171.45L623.01,176.7L623.48,170.72L623.52,174.22L623.53,174.97L623.99,168.49L624.32,178.83L624.34,177.15L624.35,176.17L624.42,175.78L624.73,184.44L624.95,180.8L624.96,181.53L625,177.5L625.08,183.07L625.63,179.11L625.65,180.1L626.38,190.83L626.5,188.88L626.51,188.55L627.38,172.52L627.39,173.15L627.64,176.89L627.99,170.93L628.05,171.48L628.06,170.71L628.79,159.67L628.91,163.19L628.92,162.81L628.96,160.96L629.33,168.6L629.42,167.11L629.43,167.76L629.45,168.14L629.75,160.36L629.86,160.47L629.87,159.7L630.05,158.34L630.28,163.77L630.63,160.67L630.64,160.21L631.07,163.81L631.31,154.28L631.45,154.91L631.46,155.26L631.66,150.33L632.42,162.4L632.45,160.49L632.46,159.26L632.77,148.28L633.25,156.22L633.26,157.3L633.88,161.86L634.06,161.75L634.07,161.08L634.46,150.65L634.87,155.94L634.88,156.11L635.3,164.64L635.53,159.67L635.54,159.33L635.94,148.69L636.27,159.82L636.28,160.92L636.29,161.63L636.52,154.61L637.01,159.57L637.02,158.56L637.1,159.94L637.17,155.09L637.3,156.41L637.31,155.32L637.48,151.37L638,159.19L638.02,159.56L638.47,168.12L638.71,157.43L638.73,156.44L638.97,152.9L639.46,164.77L639.58,159.64L639.59,159.18L639.65,157.4L640.13,164.62L640.31,159.93L640.33,160.3L640.43,156.82L641.19,168.05L641.31,166.95L641.32,166.48L641.49,165.36L641.99,168.51L642.06,166.75L642.07,166.51L642.2,164.57L642.41,170.61L642.86,168.15L642.87,167.62L643.55,159.95L643.73,162.68L643.74,163.2L643.96,161.71L644.45,168.49L644.49,164.36L644.51,163.62L644.74,165.45L645.12,158.73L645.24,164.3L645.25,164.58L645.27,164.52L645.88,169.9L645.96,164.61L645.97,164.54L646.01,166.76L646.39,159.22L646.65,160.19L646.66,160.63L646.78,160.51L647.39,164.51L647.43,163.4L647.45,162.98L647.52,164.24L647.84,158.97L647.92,159.6L647.93,158.91L648.12,156.07L648.61,160.22L648.62,160.73L648.81,162.99L649.57,149.73L649.76,153.24L649.77,153.16L650.3,163.48L650.55,156.16L650.57,155.05L650.78,150.13L651.29,155.74L651.3,156.14L651.39,158.65L651.81,153.81L651.93,153.96L651.94,153.94L652.06,155.41L652.52,144.48L652.74,152.02L652.75,152.27L652.77,151.68L653.24,160.81L653.25,160.95L653.35,162.52L653.68,153.73L653.71,154.36L653.72,153.91L654.04,147.13L654.36,153.98L654.49,152.72L654.5,152.43L654.81,160.75L655.14,152.65L655.15,152.15L655.35,145.27L655.71,155.57L655.73,156.44L656.13,164.3L656.53,159.77L656.54,159.11L656.84,152.06L657.26,160.2L657.27,160.87L657.58,158.86L657.95,168.28L658.07,164.17L658.08,163.09L658.36,135.56L658.77,170.72L658.78,170.67L659.95,150.13L660.11,155.01L660.12,156.16L660.39,156.02L660.9,163.32L660.96,162.83L660.98,162.43L661.44,147.06L661.91,155.58L661.92,155.58L662.12,154.63L662.36,156.68L662.38,156.63L662.4,156.85L662.47,157.06L662.85,150.45L662.86,149.76L662.98,145.27L663.38,156.96L663.39,157.8L663.58,164.62L664.2,163.65L664.21,164.13L664.63,156.15L664.87,163.69L664.89,164.26L665.38,171.67L665.63,164.46L665.64,163.7L666.06,159.1L666.3,168.97L666.32,169.32L666.38,171.54L666.7,163.89L667,167.69L667.01,167.53L667.71,157.47L667.99,159.06L668.01,159.07L668.04,158.76L668.31,164.72L668.32,164.95L668.41,166.38L668.9,155.74L668.92,155.8L668.93,155.67L669.01,155.27L669.3,164.55L669.31,165.2L669.41,166.75L669.64,163.55L670.08,166.48L670.09,166.68L670.11,167.03L670.43,154.93L670.44,154.41L670.55,152.79L671.02,164.3L671.04,164.99L671.22,169L671.68,162.25L671.73,162.58L671.75,162.61L671.78,163.02L672.07,158.69L672.08,158.93L672.1,158.65L672.13,158.63L672.83,169.31L673.12,166.7L673.13,166.15L673.69,159.41L673.71,159.09L673.76,158.71L674,161.68L674.01,161.58L674.02,161.81L674.09,161.76L674.35,165.97L674.57,163.2L674.58,163.05L674.61,163.13L675.14,154.27L675.41,158.11L675.42,158.33L675.57,157.49L675.85,163.06L675.86,163.53L675.94,164.39L676.29,159.05L676.44,159.12L676.46,159.03L676.65,156.33L677.03,161.83L677.16,160.26L677.18,160.14L677.23,159.28L677.46,164.09L677.47,164.24L677.49,164.59L678.01,159.58L678.02,159.06L678.18,156.38L678.49,165.06L678.51,165.43L679.31,159.65L679.53,161.5L679.54,162.06L680.23,162.23L681.01,153L681.14,155.35L681.15,155.7L681.91,161.56L682.08,160.24L682.09,160.15L682.59,156.12L682.98,157.63L682.99,157.8L683.48,167.8L683.81,163.1L683.82,162.62L684.08,158.86L684.5,164.43L684.52,164.04L684.53,164.02L684.61,162.68L684.99,172.38L685.01,172.16L685.05,172.18L685.61,163.11L685.9,166.87L685.91,167.46L686.06,166.87L686.31,170.65L686.32,170.55L686.34,170.91L686.44,172.21L686.8,165.97L686.81,165.71L687.16,162.42L687.47,166.88L687.54,165.73L687.55,165.86L687.72,165.33L687.88,166.78L688.27,165.88L688.28,165.41L688.54,160.1L688.95,163.42L688.96,163.97L689.14,168.3L689.73,165.83L689.74,165.62L689.78,166.36L690.26,161.34L690.27,161.27L690.32,161.02L690.53,163.68L690.54,163.98L690.65,165.06L691.04,161.3L691.06,160.98L691.3,157.03L691.74,165.39L691.75,165.14L691.77,165.12L691.91,164.96L692.46,167.89L692.55,166.31L692.57,166.02L692.91,160.31L693.32,165.76L693.33,166.22L693.75,170.24L694.05,165.78L694.06,165.52L694.4,161.33L695.05,170.64L695.08,170.57L695.09,170.49L695.33,171.33L696,155.55L696.19,158.19L696.2,158.41L696.4,161.27L696.7,158.15L696.82,159.67L696.83,159.98L696.89,160.38L697.03,157.96L697.04,157.6L697.34,149.67L697.92,149.95L697.93,150.19L698.12,151.21L698.38,148.01L698.65,148.42L698.66,147.91L698.96,140.07L699.53,141.26L699.54,141.13L700.44,134.01L700.59,137.07L700.6,137.33L701.37,149.8L701.74,149.56L701.75,149.18L702.02,144.44L702.99,159.56L703.13,157.28L703.14,156.89L703.65,149.42L703.85,157.26L703.86,157.89L704.6,163.74L704.69,162.29L704.7,161.8L705.32,155.18L705.53,158.86L705.54,159.26L706.12,164.65L706.31,160.36L706.32,159.75L706.55,153.33L706.93,163.79L706.94,164.4L707.28,165.53L707.58,162.85L707.59,162.39L708.06,153.6L708.44,157.37L708.45,157.77L708.61,157.08L708.9,163.91L708.91,163.96L708.95,164.55L709.18,157.24L709.19,156.8L709.59,154.32L709.77,159.31L709.78,159.92L710.48,166.86L710.62,164.53L710.64,163.73L711.18,157.09L711.4,162.71L711.41,162.71L711.81,174.05L712.16,164.24L712.17,164.07L712.63,158.81L712.92,163.9L712.93,163.88L713.46,170.72L713.68,164.74L713.69,163.92L713.9,157.3L714.47,161.31L714.48,161.16L714.84,166.61L715.34,156.55L715.39,156.77L715.4,156.77L715.43,156.51L715.66,161.04L715.67,161.43L716.27,167.35L716.49,164.08L716.5,163.75L716.96,158.71L717.14,162.67L717.15,163.1L717.56,169.53L717.97,167.59L717.98,167.5L718.22,165.94L718.23,165.36L718.57,162.51L719.16,170.7L719.39,169.08L719.4,168.77L720.11,156.41L720.52,157.12L720.53,157.27L720.56,157.04L720.9,160.04L720.91,160.56L721,163.75" style="vector-effect: non-scaling-stroke; fill: none; stroke: rgb(214, 39, 40); stroke-opacity: 1; stroke-width: 2px; opacity: 1;"/></g><g class="points"/><g class="text"/></g></g></g><g class="overplot"/><path class="xlines-above crisp" d="" style="fill: none; stroke-width: 1px; stroke: rgb(0, 0, 0); stroke-opacity: 0;"/><path class="ylines-above crisp" d="" style="fill: none; stroke-width: 1px; stroke: rgb(0, 0, 0); stroke-opacity: 0;"/><g class="overlines-above"/><g class="xaxislayer-above"><path class="xtick ticks crisp" d="M0,421v5" transform="translate(80,0)" style="stroke: rgb(51, 51, 51); stroke-opacity: 1; stroke-width: 1px;"/><path class="xtick ticks crisp" d="M0,421v5" transform="translate(170.13,0)" style="stroke: rgb(51, 51, 51); stroke-opacity: 1; stroke-width: 1px;"/><path class="xtick ticks crisp" d="M0,421v5" transform="translate(260.25,0)" style="stroke: rgb(51, 51, 51); stroke-opacity: 1; stroke-width: 1px;"/><path class="xtick ticks crisp" d="M0,421v5" transform="translate(350.38,0)" style="stroke: rgb(51, 51, 51); stroke-opacity: 1; stroke-width: 1px;"/><path class="xtick ticks crisp" d="M0,421v5" transform="translate(440.51,0)" style="stroke: rgb(51, 51, 51); stroke-opacity: 1; stroke-width: 1px;"/><path class="xtick ticks crisp" d="M0,421v5" transform="translate(530.63,0)" style="stroke: rgb(51, 51, 51); stroke-opacity: 1; stroke-width: 1px;"/><path class="xtick ticks crisp" d="M0,421v5" transform="translate(620.76,0)" style="stroke: rgb(51, 51, 51); stroke-opacity: 1; stroke-width: 1px;"/><path class="xtick ticks crisp" d="M0,421v5" transform="translate(710.88,0)" style="stroke: rgb(51, 51, 51); stroke-opacity: 1; stroke-width: 1px;"/><path class="xtick ticks crisp" d="M0,421v5" transform="translate(801.01,0)" style="stroke: rgb(51, 51, 51); stroke-opacity: 1; stroke-width: 1px;"/><g class="xtick"><text text-anchor="middle" x="0" y="444" transform="translate(80,0)" style="font-family: 'Open Sans', verdana, arial, sans-serif; font-size: 15px; fill: rgb(51, 51, 51); fill-opacity: 1; white-space: pre;">0</text></g><g class="xtick"><text text-anchor="middle" x="0" y="444" transform="translate(170.13,0)" style="font-family: 'Open Sans', verdana, arial, sans-serif; font-size: 15px; fill: rgb(51, 51, 51); fill-opacity: 1; white-space: pre;">500</text></g><g class="xtick"><text text-anchor="middle" x="0" y="444" transform="translate(260.25,0)" style="font-family: 'Open Sans', verdana, arial, sans-serif; font-size: 15px; fill: rgb(51, 51, 51); fill-opacity: 1; white-space: pre;">1000</text></g><g class="xtick"><text text-anchor="middle" x="0" y="444" transform="translate(350.38,0)" style="font-family: 'Open Sans', verdana, arial, sans-serif; font-size: 15px; fill: rgb(51, 51, 51); fill-opacity: 1; white-space: pre;">1500</text></g><g class="xtick"><text text-anchor="middle" x="0" y="444" transform="translate(440.51,0)" style="font-family: 'Open Sans', verdana, arial, sans-serif; font-size: 15px; fill: rgb(51, 51, 51); fill-opacity: 1; white-space: pre;">2000</text></g><g class="xtick"><text text-anchor="middle" x="0" y="444" transform="translate(530.63,0)" style="font-family: 'Open Sans', verdana, arial, sans-serif; font-size: 15px; fill: rgb(51, 51, 51); fill-opacity: 1; white-space: pre;">2500</text></g><g class="xtick"><text text-anchor="middle" x="0" y="444" transform="translate(620.76,0)" style="font-family: 'Open Sans', verdana, arial, sans-serif; font-size: 15px; fill: rgb(51, 51, 51); fill-opacity: 1; white-space: pre;">3000</text></g><g class="xtick"><text text-anchor="middle" x="0" y="444" transform="translate(710.88,0)" style="font-family: 'Open Sans', verdana, arial, sans-serif; font-size: 15px; fill: rgb(51, 51, 51); fill-opacity: 1; white-space: pre;">3500</text></g><g class="xtick"><text text-anchor="middle" x="0" y="444" transform="translate(801.01,0)" style="font-family: 'Open Sans', verdana, arial, sans-serif; font-size: 15px; fill: rgb(51, 51, 51); fill-opacity: 1; white-space: pre;">4000</text></g></g><g class="yaxislayer-above"><path class="ytick ticks crisp" d="M79,0h-5" transform="translate(0,375.2)" style="stroke: rgb(51, 51, 51); stroke-opacity: 1; stroke-width: 1px;"/><path class="ytick ticks crisp" d="M79,0h-5" transform="translate(0,317.6)" style="stroke: rgb(51, 51, 51); stroke-opacity: 1; stroke-width: 1px;"/><path class="ytick ticks crisp" d="M79,0h-5" transform="translate(0,259.99)" style="stroke: rgb(51, 51, 51); stroke-opacity: 1; stroke-width: 1px;"/><path class="ytick ticks crisp" d="M79,0h-5" transform="translate(0,202.39)" style="stroke: rgb(51, 51, 51); stroke-opacity: 1; stroke-width: 1px;"/><path class="ytick ticks crisp" d="M79,0h-5" transform="translate(0,144.79)" style="stroke: rgb(51, 51, 51); stroke-opacity: 1; stroke-width: 1px;"/><g class="ytick"><text text-anchor="end" x="71" y="5.25" transform="translate(0,375.2)" style="font-family: 'Open Sans', verdana, arial, sans-serif; font-size: 15px; fill: rgb(51, 51, 51); fill-opacity: 1; white-space: pre;">0.4</text></g><g class="ytick"><text text-anchor="end" x="71" y="5.25" transform="translate(0,317.6)" style="font-family: 'Open Sans', verdana, arial, sans-serif; font-size: 15px; fill: rgb(51, 51, 51); fill-opacity: 1; white-space: pre;">0.2</text></g><g class="ytick"><text text-anchor="end" x="71" y="5.25" transform="translate(0,259.99)" style="font-family: 'Open Sans', verdana, arial, sans-serif; font-size: 15px; fill: rgb(51, 51, 51); fill-opacity: 1; white-space: pre;">0</text></g><g class="ytick"><text text-anchor="end" x="71" y="5.25" transform="translate(0,202.39)" style="font-family: 'Open Sans', verdana, arial, sans-serif; font-size: 15px; fill: rgb(51, 51, 51); fill-opacity: 1; white-space: pre;">0.2</text></g><g class="ytick"><text text-anchor="end" x="71" y="5.25" transform="translate(0,144.79)" style="font-family: 'Open Sans', verdana, arial, sans-serif; font-size: 15px; fill: rgb(51, 51, 51); fill-opacity: 1; white-space: pre;">0.4</text></g></g><g class="overaxes-above"/></g></g><g class="polarlayer"/><g class="ternarylayer"/><g class="geolayer"/><g class="pielayer"/><g class="sunburstlayer"/><g class="glimages"/><defs id="topdefs-577fca"><g class="clips"/><clipPath id="legend577fca"><rect width="153" height="33" x="0" y="0"/></clipPath></defs><g class="layer-above"><g class="imagelayer"/><g class="shapelayer"/></g><g class="infolayer"><g class="legend" pointer-events="all" transform="translate(815.42, 100)"><rect class="bg" shape-rendering="crispEdges" width="153" height="33" x="0" y="0" style="stroke: rgb(68, 68, 68); stroke-opacity: 1; fill: rgb(255, 255, 255); fill-opacity: 1; stroke-width: 0px;"/><g class="scrollbox" transform="translate(0, 0)" clip-path="url('#legend577fca')"><g class="groups" transform="translate(0, 0)"><g class="traces" transform="translate(0, 16.25)" style="opacity: 1;"><text class="legendtext user-select-none" text-anchor="start" x="40" y="5.85" style="font-family: 'Open Sans', verdana, arial, sans-serif; font-size: 15px; fill: rgb(51, 51, 51); fill-opacity: 1; white-space: pre;">class=dog_bark</text><g class="layers" style="opacity: 1;"><g class="legendfill"/><g class="legendlines"><path class="js-line" d="M5,0h30" style="fill: none; stroke: rgb(214, 39, 40); stroke-opacity: 1; stroke-width: 2px;"/></g><g class="legendsymbols"><g class="legendpoints"/></g></g><rect class="legendtoggle" pointer-events="all" x="0" y="-11.25" width="193" height="22.5" style="cursor: pointer; fill: rgb(0, 0, 0); fill-opacity: 0;"/></g></g></g><rect class="scrollbar" rx="20" ry="3" width="0" height="0" x="0" y="0" style="fill: rgb(128, 139, 164); fill-opacity: 1;"/></g><g class="g-gtitle"><text class="gtitle" x="490" y="50" text-anchor="middle" dy="0em" style="font-family: 'Open Sans', verdana, arial, sans-serif; font-size: 21px; fill: rgb(51, 51, 51); opacity: 1; font-weight: normal; white-space: pre;">time vs amplitude</text></g><g class="g-xtitle"><text class="xtitle" x="440.5" y="484" text-anchor="middle" style="font-family: 'Open Sans', verdana, arial, sans-serif; font-size: 18px; fill: rgb(51, 51, 51); opacity: 1; font-weight: normal; white-space: pre;">time(ms)</text></g><g class="g-ytitle"><text class="ytitle" transform="rotate(-90,34,260)" x="34" y="260" text-anchor="middle" style="font-family: 'Open Sans', verdana, arial, sans-serif; font-size: 18px; fill: rgb(51, 51, 51); opacity: 1; font-weight: normal; white-space: pre;">amplitude</text></g></g></svg>