<svg class="main-svg" xmlns="http://www.w3.org/2000/svg" xmlns:xlink="http://www.w3.org/1999/xlink" width="980" height="500" viewBox="0 0 980 500"><rect x="0" y="0" width="980" height="500" style="fill: rgb(255, 255, 255); fill-opacity: 1;"/><defs id="defs-7780d2"><g class="clips"><clipPath id="clip7780d2xyplot" class="plotclip"><rect width="706" height="320"/></clipPath><clipPath class="axesclip" id="clip7780d2x"><rect x="80" y="0" width="706" height="500"/></clipPath><clipPath class="axesclip" id="clip7780d2y"><rect x="0" y="100" width="980" height="320"/></clipPath><clipPath class="axesclip" id="clip7780d2xy"><rect x="80" y="100" width="706" height="320"/></clipPath></g><g class="gradients"/></defs><g class="bglayer"><rect class="bg" x="80" y="100" width="706" height="320" style="fill: rgb(237, 237, 237); fill-opacity: 1; stroke-width: 0;"/></g><g class="layer-below"><g class="imagelayer"/><g class="shapelayer"/></g><g class="cartesianlayer"><g class="subplot xy"><g class="layer-subplot"><g class="shapelayer"/><g class="imagelayer"/></g><g class="gridlayer"><g class="x"><path class="xgrid crisp" transform="translate(168.25,0)" d="M0,100v320" style="stroke: rgb(255, 255, 255); stroke-opacity: 1; stroke-width: 1px;"/><path class="xgrid crisp" transform="translate(256.5,0)" d="M0,100v320" style="stroke: rgb(255, 255, 255); stroke-opacity: 1; stroke-width: 1px;"/><path class="xgrid crisp" transform="translate(344.75,0)" d="M0,100v320" style="stroke: rgb(255, 255, 255); stroke-opacity: 1; stroke-width: 1px;"/><path class="xgrid crisp" transform="translate(433.01,0)" d="M0,100v320" style="stroke: rgb(255, 255, 255); stroke-opacity: 1; stroke-width: 1px;"/><path class="xgrid crisp" transform="translate(521.26,0)" d="M0,100v320" style="stroke: rgb(255, 255, 255); stroke-opacity: 1; stroke-width: 1px;"/><path class="xgrid crisp" transform="translate(609.51,0)" d="M0,100v320" style="stroke: rgb(255, 255, 255); stroke-opacity: 1; stroke-width: 1px;"/><path class="xgrid crisp" transform="translate(697.76,0)" d="M0,100v320" style="stroke: rgb(255, 255, 255); stroke-opacity: 1; stroke-width: 1px;"/></g><g class="y"><path class="ygrid crisp" transform="translate(0,375.2)" d="M80,0h706" style="stroke: rgb(255, 255, 255); stroke-opacity: 1; stroke-width: 1px;"/><path class="ygrid crisp" transform="translate(0,317.6)" d="M80,0h706" style="stroke: rgb(255, 255, 255); stroke-opacity: 1; stroke-width: 1px;"/><path class="ygrid crisp" transform="translate(0,202.39)" d="M80,0h706" style="stroke: rgb(255, 255, 255); stroke-opacity: 1; stroke-width: 1px;"/><path class="ygrid crisp" transform="translate(0,144.79)" d="M80,0h706" style="stroke: rgb(255, 255, 255); stroke-opacity: 1; stroke-width: 1px;"/></g></g><g class="zerolinelayer"><path class="xzl zl crisp" transform="translate(80,0)" d="M0,100v320" style="stroke: rgb(255, 255, 255); stroke-opacity: 1; stroke-width: 1px;"/><path class="yzl zl crisp" transform="translate(0,259.99)" d="M80,0h706" style="stroke: rgb(255, 255, 255); stroke-opacity: 1; stroke-width: 1px;"/></g><path class="xlines-below"/><path class="ylines-below"/><g class="overlines-below"/><g class="xaxislayer-below"/><g class="yaxislayer-below"/><g class="overaxes-below"/><g class="plot" transform="translate(80, 100)" clip-path="url('#clip7780d2xyplot')"><g class="scatterlayer mlayer"><g class="trace scatter tracea7cd982d-696d-48cb-8022-a1230a5c3a2e" style="stroke-miterlimit: 2; opacity: 1;"><g class="fills"/><g class="errorbars"/><g class="lines"><path class="js-line" d="M0,150.12L0.4,138.71L0.75,143.59L0.76,144.14L1.35,157.53L1.74,155.17L1.75,154.41L1.88,153.1L2.95,177.76L3.17,170.71L3.18,169.69L3.4,165L3.97,181.67L4,178.39L4.02,177.79L4.19,182.05L4.63,176.54L4.64,177.59L4.66,174.06L4.67,174.68L5.14,162.41L5.35,170.87L5.36,169.52L5.81,175.05L6,165.46L6.08,167.46L6.09,166.74L6.53,163.55L6.87,179.18L7.08,174.06L7.09,171.64L7.26,179.13L7.67,165.27L7.81,170.87L7.82,168.19L8.08,169.1L8.6,151.93L8.65,152.88L8.66,156.11L8.7,159.61L9.1,149.06L9.22,150.81L9.23,148.79L9.99,184.04L10.07,182.09L10.08,180.42L10.1,183.13L10.72,167.13L10.74,170.86L10.76,170.66L10.8,169.01L11.02,181.38L11.52,175.15L11.53,173.3L11.56,177.18L11.97,162.04L11.98,160.08L12.3,147.75L12.73,168.11L12.74,164.26L12.91,159.67L13.11,178.95L13.5,168.23L13.51,166.58L13.82,157.89L14.02,169.74L14.25,163.12L14.26,166.85L14.34,171.34L15.17,138.63L15.18,142.42L15.2,136.96L16,156.27L16.03,153.09L16.04,149.28L16.18,154L16.55,139.29L16.77,146.81L16.78,144.09L17.46,170.55L17.58,167.21L17.6,167.44L17.73,170.95L18.09,153.18L18.4,155.38L18.41,161.82L18.43,161.4L18.74,174.05L18.95,169.01L18.96,169.89L18.97,174.34L19.65,146.24L19.66,147.03L19.71,141.16L20.53,164.73L20.74,157.24L20.75,149.08L20.88,161.86L21.09,148.79L21.51,158.7L21.52,161.38L21.61,160.94L21.91,173.06L22.28,164.26L22.29,163.99L22.57,159.66L22.76,167.71L22.77,170.02L22.78,169.15L23.32,187.42L23.38,182.13L23.39,184.35L23.4,186.09L23.98,170.25L24.05,171.95L24.06,169.69L24.08,168.9L24.54,180.41L24.82,173.71L24.83,174.06L24.99,176.95L25.54,155L25.77,159.57L25.78,161.06L25.92,165.14L26.42,155.66L26.43,156.04L26.44,154.94L26.61,157.61L27.07,139.56L27.25,147.44L27.26,148.36L27.76,147.98L28.19,158.55L28.28,156.59L28.3,155.55L28.48,150.9L28.84,158.88L28.85,159.43L29.6,167.55L29.8,166.8L29.81,166.36L30.08,160.89L30.56,165.21L30.57,165.45L30.99,167.66L31.17,164.01L31.22,164.4L31.23,163.91L31.26,163.41L31.81,167.87L31.83,168.07L31.94,172.14L32.53,166.75L32.54,166.8L33.43,155.95L33.7,158.31L33.71,158.38L33.78,159.93L34.18,143.12L34.19,142.48L34.41,134.21L34.9,143.29L34.91,143.54L35.57,153.08L35.89,151.08L35.9,150.79L35.92,150.51L36.21,156.94L36.22,156.7L36.23,157.57L36.25,157.49L36.72,163.82L36.98,159.68L36.99,157.8L37.77,135.83L37.86,137.38L37.87,138.52L38.26,143.18L38.64,133.34L38.65,135.83L38.67,137.14L38.71,133.8L39.3,160.29L39.32,157.88L39.33,165.74L39.34,157.25L39.88,174.19L40.07,169.66L40.08,170.31L40.38,162.58L40.73,172.64L40.82,171.25L40.83,171.22L40.86,171.75L41.39,156.78L41.4,157.82L41.41,155.1L41.46,155.42L41.91,140.34L42.29,142.85L42.31,142.62L42.54,147.14L42.96,133.09L43.25,136.85L43.27,137.49L43.28,136.84L43.91,144.24L43.92,144.68L43.96,143.33L44.16,154.16L44.6,150.28L44.61,150.16L44.64,149.29L45.01,157.14L45.18,155.16L45.2,155.52L45.23,154.89L45.47,159.99L45.48,161.47L45.56,165.09L46.06,147.44L46.16,149.23L46.17,150.2L46.21,149.58L47.05,167.41L47.41,164.64L47.42,163.68L47.51,165.18L47.52,154.93L47.53,167.43L47.64,155.4L48.21,169.65L48.27,167.74L48.28,167.55L48.57,172.43L48.92,162.1L48.94,162.59L48.95,162.96L49.16,159.6L49.44,171.55L49.8,171.3L49.81,170.28L49.9,172.67L50.73,155.04L50.74,156.28L50.76,156.78L51.29,167.37L51.56,162.32L51.57,161.51L52.22,153.65L52.45,156.83L52.47,156.76L53.5,136.6L53.68,139.79L53.69,139.77L55.4,192.09L55.41,191.74L55.44,191.81L56.22,174.99L56.23,174.48L58,136.71L58.01,137.2L58.04,136.94L58.26,140.86L58.27,141.6L58.68,148.8L59.04,144.28L59.05,143.55L59.13,141.7L59.44,147.61L59.45,148.34L59.94,155.99L60.28,151.7L60.29,150.84L61.2,143.41L61.25,143.66L61.26,143.73L61.75,146.14L61.9,142.18L61.91,141.61L62.21,134.43L62.48,141.79L62.49,142.5L63.45,159.6L63.47,158.17L63.49,157.49L63.72,154.03L64.1,164.84L64.11,165.79L64.67,174.4L65.02,169.95L65.03,169.31L65.15,165.17L65.73,174.47L65.74,174.31L65.75,174.55L66.1,169.72L66.3,169.83L66.31,169.58L66.49,175.5L67.56,155.81L67.6,157.49L67.61,157.7L68.48,166.82L68.56,164.34L68.57,164.14L68.6,163.79L69.05,170.23L69.33,164.84L69.34,164.03L69.73,158.47L70.1,161.33L70.12,161.74L70.39,167.01L70.82,159.03L70.83,159.09L70.84,158.19L71.04,155.36L71.38,160.38L71.56,159.44L71.57,159.44L71.64,159.04L72.06,165.93L72.13,163.3L72.15,164.15L72.33,164.58L72.73,155.66L72.93,160.77L72.94,161.11L73.65,170.67L73.83,167.18L73.84,165.82L74.06,163.79L75.1,177.78L75.31,174.84L75.32,174.4L75.42,173.21L75.89,180.65L75.9,180.74L76.22,188.52L76.71,185.1L76.72,184.71L77.23,174.78L77.68,177.85L77.69,178.39L77.72,179.17L78.1,170.8L78.11,169.62L79.21,130.98L79.48,137.91L79.49,138.51L80.51,178.6L80.54,178.55L80.55,178.35L80.88,181.82L81.17,167.29L81.18,166.72L81.4,164.81L81.51,168.64L81.52,169.81L81.75,173L82.13,165.57L82.16,166.06L82.17,165.93L82.9,150.08L83.08,152.64L83.09,152.94L83.32,160.1L84.38,136.12L84.42,136.65L84.43,137.12L84.63,150.4L84.64,151.51L86.22,192.14L86.3,189.38L86.31,188.88L86.61,190.41L87.07,180.62L87.21,181.14L87.23,181.5L88.11,166.92L88.52,169.74L88.53,170.62L88.86,169.25L89.3,178.64L89.43,173.49L89.44,173.45L89.86,180.22L90.16,171.75L90.17,171.67L90.18,172.06L90.48,156.11L90.49,154.73L91.79,109.73L91.96,111L91.97,111.3L94.01,164.83L94.16,156.65L94.18,156.07L94.21,156.08L94.9,141.73L95.06,143.05L95.07,143.83L95.08,143.38L95.49,155.69L95.71,147.41L95.72,148.62L96.16,146.42L96.34,150.67L96.44,150.44L96.45,150.76L96.58,147.73L96.89,172.21L96.9,173.34L96.94,175.46L97.15,162.56L97.44,164.95L97.45,164.81L97.86,172.17L98.12,159.18L98.19,164.5L98.2,164.7L98.22,164.49L98.47,181.85L98.96,169.21L98.97,168.13L99.5,155.85L99.72,166.46L99.74,167.51L99.91,182.13L100.33,163.72L100.47,166.13L100.49,166.5L100.5,166.1L100.65,174.02L101.07,172.74L101.08,172.97L101.43,187.21L101.78,175.87L101.79,175.66L102.18,160.98L102.57,169.38L102.58,169.55L102.63,171.98L103.09,153.85L103.1,153.42L103.65,144.56L103.88,149.51L103.89,149.45L104.37,152.17L104.72,141.79L104.73,141.42L104.96,138.33L105.13,159.56L105.14,161.51L105.24,175.93L105.76,130.85L105.77,131.67L105.85,135.72L106.42,127.42L106.43,126.14L106.56,118.8L107.04,144.93L107.05,145.4L107.53,120.72L107.55,119.1L107.67,112.46L108.21,129.4L108.22,129.66L108.62,128L108.89,136.71L109.01,132.31L109.02,131.67L109.22,123.44L109.66,137.48L109.67,137.66L109.9,135.79L110.15,140.67L110.17,140.49L110.18,140.77L110.21,139.7L110.55,150.94L110.9,142.49L110.91,142.31L112.37,178.37L112.41,175.84L112.42,174.57L112.7,153.85L113.39,156.56L113.4,156.85L113.51,154.83L114.46,168.4L114.48,168.14L114.5,168.18L114.52,169.17L114.84,161.33L115.21,166L115.22,165.19L115.31,164.17L115.77,172.75L115.79,172.97L115.8,173.4L116.06,165.67L116.39,166.54L116.4,166.51L116.61,161.9L117.05,170.86L117.07,171.13L117.53,177.25L117.83,172.98L117.84,172.39L118.04,167.86L118.49,176.39L118.5,176.97L119.02,174.44L119.03,177.7L119.11,174.68L119.12,173.67L119.43,173.93L119.47,167.92L119.87,173.47L119.88,174.43L119.98,177.95L120.55,169.78L120.58,170.4L120.6,170.49L121,163.6L121.49,175.17L121.51,174.89L121.52,174.8L121.79,172.8L122.25,179.63L122.35,177.75L122.36,177.34L122.86,173.56L123.23,186.29L123.3,185.88L123.31,185.5L123.36,185.81L124.08,177.81L124.2,180.6L124.21,180.59L125.17,198.05L125.29,190.84L125.31,189.69L125.63,182.09L125.85,191.69L125.86,192.41L125.87,192.14L126.12,196.96L126.49,195.42L126.5,195.9L126.59,196.65L126.99,184.26L127.08,184.66L127.09,184.44L127.47,190.46L127.83,184L127.84,183.82L127.89,184.4L128.42,170.58L128.82,172.83L128.84,173.1L128.89,173.22L129.88,154.49L129.89,154.5L129.97,155.96L130.46,151.09L130.47,150.05L130.51,150.69L131.4,131.48L131.47,134.13L131.48,134.53L131.57,130.98L131.77,143.19L131.78,144.61L132.16,137.91L132.55,140.15L132.56,140.48L132.95,134.29L133.25,144.33L133.26,143.62L133.27,144.83L133.55,148.26L133.93,142.89L133.97,142.99L133.98,142.29L134.16,141.83L134.91,158.77L134.93,158.51L134.94,157.39L135.27,159.38L135.86,147.38L135.91,148.78L135.92,149.83L136.28,152.41L136.58,146.7L136.59,146.61L136.69,142.31L136.97,151.35L137.35,143.9L137.36,145.15L137.37,146.42L137.71,139.45L138.08,142.38L138.09,142.21L138.44,139.72L138.86,144.75L138.87,143.28L139.72,152.11L139.74,151.71L139.75,151.71L140.13,158.24L140.54,156.75L140.55,156.6L141.25,164.85L141.6,164.03L141.61,163.58L141.72,159.86L142.21,170.43L142.27,168.31L142.28,168.79L142.44,166.14L142.8,175.03L142.98,168.2L142.99,167.71L143.32,164.67L143.64,171.86L143.65,172.21L144.3,182.53L144.57,178.22L144.58,178.16L144.85,176.56L145.06,182.11L145.07,182.23L145.26,187.08L145.79,181.47L145.8,180.26L146.31,172.29L146.61,175.55L146.62,176.2L146.64,176.22L147.7,155.11L147.96,159.64L147.98,160.58L148.26,158.35L148.48,165.93L148.74,164.06L148.75,159.46L149.28,158.29L149.32,167.29L149.51,166.48L149.52,160.04L150.08,156.29L150.09,178.89L150.28,165.2L150.29,164.28L150.62,151.08L150.63,175.36L151.04,164.45L151.05,162.22L151.35,172.61L151.79,156.52L151.81,156.68L151.83,159.55L152.05,152.8L152.28,163.37L152.58,156.68L152.59,158L152.86,158.13L153.57,141.43L153.82,143.89L153.83,147.99L154.11,149.32L154.21,140.79L154.59,145L154.61,143.38L154.65,143.53L154.87,131.64L155.37,141.16L155.38,142.18L155.93,145.53L156.09,137.53L156.16,138.02L156.17,138.56L156.44,129.84L156.89,140.84L156.9,141.53L157.32,140.31L157.45,145.88L157.53,143.95L157.54,141.05L157.62,139.92L158.35,152.76L158.36,151.53L159.15,166.78L159.23,166.55L159.24,166.28L159.37,164.99L159.61,174.71L159.65,172.49L159.66,174.79L159.68,169.97L160.29,178.07L160.35,175.87L160.36,177.7L160.82,173.18L161.08,179.81L161.09,178.66L161.1,180.17L161.89,187.32L161.92,185.82L161.93,182.46L161.94,188.11L162.66,176.11L162.67,176.94L162.68,177.31L162.8,178.91L163.47,174.19L163.51,174.38L163.52,176.2L163.56,174.97L164.09,188.04L164.14,187.24L164.15,186.84L164.17,187.3L164.5,176.5L164.51,176.45L164.52,176.72L164.99,169.86L165,170.73L165.01,169.62L165.02,170.54L165.64,159.1L165.65,158.7L165.74,157.61L166.1,161.53L166.36,159.23L166.38,157.19L166.72,150.61L167.12,167.85L167.19,162.22L167.2,160.16L167.57,144.96L168.05,146.45L168.06,147.57L168.36,139.3L168.82,146.63L168.84,147.28L168.91,146.15L169.65,169.39L170.09,165.74L170.1,164.31L170.34,157.29L170.69,164.35L170.85,163.35L170.87,163.95L171.14,157.85L171.45,167.04L171.63,162.35L171.64,162.44L171.65,161.97L171.94,177.6L172.1,176.06L172.11,177.02L172.67,169.43L172.93,171.96L172.94,173.51L173.04,170.84L173.55,181.26L173.62,180.68L173.63,180.48L174.54,165.49L174.73,167.89L174.74,168.72L175.15,173.45L175.54,162.62L175.55,162.66L175.57,162.73L175.64,162.02L176.44,165.91L176.45,165.67L176.72,166.49L177.02,161.9L177.03,161.03L177.32,155.37L177.79,162.02L177.8,161.65L177.84,162.87L178.16,155.63L178.17,154.24L178.18,154.55L178.7,147.56L178.76,150.27L178.78,149.32L178.85,150.68L179.53,141.97L179.59,142.11L179.6,142.06L179.77,145.49L180.22,138.86L180.32,139.82L180.33,139.22L180.83,152.56L181.18,148.24L181.19,146.85L181.48,138.63L181.83,151.44L181.84,151.43L181.86,150.12L182.49,157.33L182.53,155.66L182.54,156.73L182.55,158.57L183.14,151.46L183.25,154.24L183.27,152.82L183.82,160.61L184.03,155.45L184.04,154.01L184.16,146.55L184.49,152.55L184.5,153.28L184.75,143.6L184.9,159.43L184.99,157.34L185,159.66L185.24,162.04L185.91,141.73L185.93,141.79L185.95,142.58L185.96,142.13L186.19,164.73L186.2,165.18L186.3,172.57L186.67,155.42L186.92,162.63L186.93,161.41L187.14,155.47L187.59,165.74L187.6,167.33L188.05,171.78L188.31,165.39L188.33,166.32L188.34,166.31L188.57,163.19L188.79,168.81L189.03,164.8L189.05,164.67L189.13,161.19L189.44,166.76L189.8,164.76L189.81,164.55L189.83,164.79L190.29,161.54L190.3,161.35L190.34,161.08L190.93,169.74L191.16,164.79L191.17,162.74L191.19,163.3L191.42,154.65L191.77,158.65L191.78,158.29L191.81,157.52L192.77,168.45L192.87,164.7L192.88,164.67L193.28,155.28L193.5,163.6L193.51,164.18L193.77,169.17L194.75,148.14L194.78,148.34L194.79,148.89L194.98,147.5L195.74,164.82L195.95,159.96L195.96,159.44L196.05,159.86L196.8,151.49L196.82,152.45L196.83,152.86L196.84,153.41L197.48,148.53L197.5,148.01L197.51,148.47L197.93,139.67L198.19,145.77L198.2,145.27L198.71,147.78L198.95,143.29L198.96,146.05L199.21,139.43L199.5,147.07L199.72,143.9L199.73,143.78L199.85,142.69L199.92,144.78L199.93,145.36L199.98,147.58L200.41,138.35L200.58,140.75L200.6,140.72L200.64,138.3L201.24,151.5L201.26,151.09L201.27,151.23L201.7,155.72L201.88,146.39L201.89,145.11L201.99,142.37L202.43,161.92L202.5,161.58L202.51,161.97L202.53,160.61L202.9,167.75L203.21,163.88L203.22,165.18L204.27,178.97L204.29,177.7L204.3,176.72L204.39,180.47L204.77,172.19L204.78,171.01L204.79,171.35L205.15,159.21L205.31,164.23L205.32,162.9L205.84,174.03L206.12,170.49L206.13,170.07L206.41,160.97L206.89,168.4L206.91,168.83L207.34,179.52L207.66,169.15L207.67,169.52L207.92,163.11L208.33,172.11L208.37,170.71L208.38,171.02L208.5,172L208.92,159.3L208.94,158.97L209.69,149.32L209.84,149.67L209.85,149.94L209.88,149.41L210.19,157.07L210.23,156.06L210.24,156.35L210.28,156.92L210.55,148.42L210.72,151.2L210.73,150.8L210.84,148.64L211.32,160.27L211.53,153.58L211.54,151.73L211.74,158.39L211.89,152.08L211.9,151.9L211.96,150.69L212.58,156.16L212.6,155.75L212.61,155.93L213.8,135.18L213.95,143.51L213.97,144.22L213.99,143.24L214.31,153.79L214.55,150.28L214.56,149.96L214.91,154.39L215.34,143.95L215.4,144.86L215.41,144.96L215.49,144.56L215.68,152.61L215.7,152.53L215.71,154.22L216.22,162.87L216.48,156.89L216.49,156.42L216.62,151.97L216.92,160.35L216.93,160.89L216.94,160.59L217.23,169.04L217.43,167.17L217.44,168.91L217.52,168.36L217.66,178.1L217.67,179.12L217.9,203.84L218,138.81L218.2,146.75L218.21,129.79L218.27,117.13L218.68,179.12L218.69,180.45L218.74,195.49L219.21,150.71L219.39,165.06L219.4,161.59L219.44,158.66L219.47,162.04L219.48,163.36L219.55,177.81L220.13,145.11L220.14,140.65L220.98,194.08L220.99,192.75L221.06,212.94L221.4,107.54L221.78,141.64L221.79,148.12L221.89,198.31L222.27,116.22L222.5,146.85L222.51,135.12L222.55,116.99L223.03,203.18L223.04,209.88L223.07,215.24L223.17,161.8L223.18,146.19L223.34,198.15L223.51,83.67L223.9,164.46L223.92,173.66L223.96,191.45L224.13,130.26L224.65,167.61L224.67,168.67L224.89,191.88L225.43,119.89L225.49,128.64L225.5,134.73L225.89,230.34L226.32,176.48L226.33,174.13L226.84,181.52L226.95,124.08L227.11,153.56L227.13,154.68L227.72,254.36L227.81,135.15L227.82,120.76L228.17,89.64L228.32,205.92L228.5,169.78L228.52,180.65L228.63,225.71L229.13,139.73L229.3,205.55L229.31,209.1L229.57,268.92L229.66,178.35L229.67,158.33L230.03,91.13L230.2,200.91L230.39,165.36L230.4,182.07L230.44,212.71L230.67,80.95L231.16,200.82L231.17,196.88L231.4,246.1L231.84,105.13L232.01,166.37L232.02,169.42L232.34,202.23L232.85,125.66L232.88,133.14L232.9,141.88L233.28,302.41L233.42,87.07L233.67,164.16L233.68,145.2L233.77,58.89L234.24,199.74L234.41,181.28L234.42,189.97L234.56,288.42L234.67,55.58L235.04,108.11L235.05,98.87L235.06,96.52L235.28,219.21L235.29,227.08L235.32,249.15L235.44,109.25L235.98,169.41L236,171.27L236.39,148.77L236.48,226.75L236.49,236.69L236.5,238.87L236.57,110.54L236.58,88.55L236.59,85.88L236.84,196.15L237.1,149.27L237.11,148.92L237.23,102.01L237.78,278.47L237.96,197.57L237.97,185.29L238.22,104.82L238.7,186.12L238.72,180.66L238.73,177.12L239.12,258.13L239.6,100.71L239.61,101.48L239.66,90.9L239.8,149.75L239.81,165.03L239.92,235.87L240.5,96.31L240.51,97.23L240.52,97.07L240.54,96.96L240.77,172.76L240.78,177.63L240.89,125.28L241.15,241.44L241.48,160.19L241.49,159.83L241.53,162.33L241.6,113.49L241.61,104.78L241.68,75.23L241.95,184.63L242.25,182.74L242.26,193.28L242.5,218.66L242.89,91.03L242.9,84.82L242.97,74.22L243.23,210.35L243.24,213.9L243.29,221.74L243.73,124.91L243.74,115.47L243.79,96.17L244.32,215.58L244.33,221.31L244.36,225.39L244.67,160.68L244.68,157.63L245.02,104.77L245.32,174.08L245.33,173.56L245.66,235.12L245.96,95.45L246.2,135L246.21,141.46L246.53,231.33L246.96,149.8L246.97,144.94L247.05,95.11L247.63,204.27L247.64,200.88L247.88,202.54L248.32,108.69L248.62,152.01L248.63,154.06L248.79,205.79L249.31,123.88L249.32,120.61L249.46,100.6L249.54,142.6L249.55,151.93L249.64,145.19L250.3,195.8L250.37,185.85L250.38,183.68L250.47,186.66L250.71,112.87L251.19,162.82L251.2,166.03L251.33,143.09L251.66,218.21L251.89,149.89L251.9,139.57L252.15,95.78L252.45,161.51L252.62,150.18L252.63,153.86L252.98,215.76L253.42,86.86L253.52,90.72L253.54,95.84L254.19,204.39L254.45,173.01L254.46,167.92L254.72,99.08L255.22,158.8L255.23,156.81L255.5,200.54L255.51,126.14L255.52,211.71L255.6,244.17L256.05,88.71L256.2,118.98L256.22,128.29L256.6,104.26L257.01,246.69L257.09,201.85L257.1,197.29L257.11,217.7L257.52,99.08L257.82,148.24L257.83,147.84L257.86,144.03L258.43,212.16L258.63,191.13L258.64,184.63L258.7,157.5L258.73,161.45L258.74,150.12L258.87,133.1L259.38,189.5L259.51,182.35L259.53,177.01L259.97,143.92L260.15,191.91L260.17,178.5L260.18,197.11L260.23,200.32L260.76,84.13L261.01,121.72L261.03,139.62L261.33,121.85L261.72,181.82L261.74,177.36L261.75,192.19L261.83,206.84L262.42,119.53L262.54,148.49L262.55,154.24L262.7,189.95L263.04,132.38L263.24,154.72L263.25,160.62L263.46,212.48L263.89,121.84L263.9,128.77L263.92,122.29L264.06,115.46L264.2,138.3L264.21,140.86L264.42,168.66L264.86,131.12L264.95,155.33L264.96,138.11L265.36,205.37L265.64,131.56L265.71,141.65L265.72,146.99L265.84,115.76L266.28,170.99L266.46,135.75L266.48,151.13L266.82,120.8L266.97,160L267.13,140.43L267.14,121.22L267.6,230.5L267.89,134.92L267.9,143.74L268.01,103.13L268.55,198.73L268.62,171.4L268.63,181.64L268.91,143.33L269.35,238.46L269.37,227.68L269.38,237.21L269.92,108.4L270.02,134.03L270.03,137.63L270.26,208.59L270.83,175.95L270.84,162.85L271.21,248.08L271.57,138.44L271.58,165.69L271.59,144.93L271.67,128.08L271.94,225.25L271.99,202.79L272,225.66L272.03,226.17L272.48,164.76L272.77,197.85L272.79,207.34L273.01,260.24L273.42,148.91L273.61,162.62L273.62,167.14L273.66,174.14L274.02,141.94L274.35,161.19L274.36,159.79L274.42,142.88L274.96,234.51L275.05,189.42L275.06,193.52L275.87,80.24L275.88,90.85L275.9,85.76L275.91,80.19L276.54,144.8L276.55,153.36L276.72,199.28L277.15,113.55L277.18,120.58L277.19,117.34L277.2,115.92L277.48,181.85L277.5,184.54L277.51,178.74L278.2,209.12L278.21,210.47L278.5,269.62L278.73,154.13L278.9,159.28L278.91,157.86L279.47,148.85L279.66,186.47L279.72,182.01L279.73,183.8L279.88,157.88L280.32,239.28L280.33,241.54L280.39,249.12L280.6,126.18L281.2,155.15L281.21,155.8L281.32,147.99L281.51,175.41L281.73,153.26L281.74,151.47L281.75,150.7L281.9,192.47L281.91,199.89L282.16,265.4L282.29,188.53L282.31,181.06L282.42,98.42L283.07,148.91L283.08,151.29L283.14,148.04L283.28,175.86L283.29,178.7L283.42,176.36L283.66,205.56L283.67,210.71L283.86,260.99L284.08,115.89L284.36,164.12L284.37,159.85L284.57,169.8L285.17,134.69L285.18,134.33L285.68,218.81L285.78,127.01L285.79,107.74L285.91,17.68L286.14,140.62L286.53,112.65L286.54,112.22L286.55,113.45L286.91,73.04L286.92,59.75L287,36.97L287.53,166.25L287.55,166.47L287.69,264.64L287.84,17.49L287.85,17.99L287.86,17.64L287.92,18.64L287.93,27.02L288.58,256.14L288.77,155.61L288.78,151.86L288.85,118.74L289.21,302.98L289.29,302.68L289.3,302.48L289.38,302.74L289.41,291.03L289.42,281.28L289.53,67.68L289.78,302.39L290.18,211.35L290.19,222.94L290.56,302.93L290.81,137.54L290.82,107.38L290.88,49.2L291.14,302.82L291.54,164.29L291.55,173.35L291.95,87.3L292.16,302.65L292.33,242.65L292.34,211.6L292.45,58.77L292.66,292.97L293.09,172.96L293.1,180.92L293.37,98.48L293.63,301.1L293.72,164.79L293.73,128.47L293.86,17.34L294.09,232.28L294.48,99.66L294.49,103.49L294.77,43.98L295.29,279.78L295.34,185.28L295.36,146.17L295.43,17.53L295.74,219.62L296.11,136.25L296.12,148.45L296.48,303.22L296.69,17.63L296.73,17.93L296.75,17.39L296.9,241.79L297.48,67.56L297.5,71.41L298.14,247.69L298.26,156.38L298.27,143.13L298.39,54.87L298.95,216.62L298.97,216.08L298.98,215.82L299.06,157.04L299.07,141.81L299.17,55.31L299.78,207.59L299.79,212.89L299.8,213.77L299.91,159.78L299.92,155.54L300.13,206.39L300.3,95.61L300.73,107.94L300.74,111.33L301.07,288.11L301.21,17.72L301.22,17.87L301.24,17.63L301.26,17.38L301.28,35.7L301.29,47.42L301.72,29.95L302.08,283.68L302.13,235.92L302.14,197.55L302.24,17.4L302.86,245.19L302.87,263.25L302.89,279.22L303.14,20.56L303.49,114.96L303.5,104.19L303.72,301.2L303.88,30.8L304.14,193.9L304.15,202.85L304.4,276.51L304.52,55.94L304.53,40.84L304.82,270.82L305,18.33L305.18,175.4L305.2,176.4L305.24,177.14L305.29,153.98L305.31,144.81L305.49,295.69L305.65,17.28L306.06,132.23L306.07,132.15L306.18,284.36L306.3,17.08L306.72,181.17L306.73,162.08L307.23,280.18L307.39,21.16L307.5,114.07L307.51,132.43L307.93,272.82L308.1,17.57L308.31,201.1L308.32,194.09L308.43,251.79L308.55,20.28L308.85,210.58L308.86,221.64L308.9,280.2L309.06,17.32L309.63,272.27L309.64,271.98L309.81,52.63L310.21,199.32L310.23,214.9L310.44,46.93L310.73,250.7L310.87,86.67L310.88,69.31L310.91,48.96L311.42,275.13L311.62,69.32L311.63,75.42L312.07,248.62L312.22,36.83L312.51,184.73L312.52,183.88L312.65,135.82L312.83,230.56L312.92,150.24L312.93,139.52L313.06,96L313.42,263.15L313.44,262.52L313.45,260.42L314.24,19.86L314.3,59.57L314.31,83.83L314.42,259.89L314.76,36.07L315.09,165.44L315.1,175.3L315.17,278.96L315.31,45.54L315.82,160.69L315.83,168.74L315.91,253.6L316.05,42.96L316.52,168.96L316.54,161.84L316.67,82.94L317.08,233.73L317.32,116.55L317.33,126.79L317.5,194.45L318.1,155.29L318.11,153.3L318.31,189.56L318.46,134.35L318.76,172.29L318.78,173.44L318.79,174.03L318.93,145.46L319.09,147.51L319.11,147.57L319.47,212.46L319.57,157.35L319.58,147.17L319.97,207.58L320.31,92.2L320.36,119.1L320.37,129.79L321.08,209.44L321.17,181.83L321.18,173.46L321.3,122.37L321.68,192.19L321.92,174.12L321.93,177.54L322.23,219.42L322.42,118.57L322.68,177.82L322.69,180.12L322.82,186.43L323.02,135.85L323.03,135.42L323.78,195.25L323.88,170.31L323.89,163.6L323.98,121.75L324.19,175.42L324.64,161.89L324.65,162.76L324.67,162.95L324.72,157.58L324.73,155.57L324.75,154.29L324.96,197.99L325.08,194.52L325.1,195.95L325.26,116.21L325.27,111.47L325.29,107.47L325.47,187.01L325.89,141.05L325.9,149.29L326.51,192.44L326.64,148.08L326.65,146.03L326.7,137.74L326.92,169.7L327.37,153.05L327.38,154.34L328.1,200.41L328.17,165.8L328.18,156.67L328.26,111.63L328.46,182.36L328.89,154.31L328.9,158.25L329.33,200.91L329.53,119.51L329.54,114.89L330.03,197.32L330.21,103.13L330.27,122.01L330.28,127.94L330.94,208.21L331.06,153.08L331.08,145.84L331.13,127.61L331.59,170.21L331.8,164.83L331.81,165.38L331.83,165.54L331.92,161.3L331.94,160.04L332.15,155.7L332.42,173.23L332.43,175.88L332.61,206.31L332.76,115.76L333.13,174.26L333.14,172.02L333.28,123.83L333.48,180.2L333.88,157.88L333.89,157.13L333.97,147.35L334.17,184.22L334.35,181.81L334.36,182.6L334.44,175.86L334.45,171.77L334.58,115.41L334.97,181.1L335.23,149.76L335.24,152.4L335.43,135.06L335.96,189.02L336.07,166.27L336.08,162.03L336.19,128.11L336.65,183.29L336.87,141.96L336.88,142.2L337.65,194.73L337.8,161.31L337.82,157.71L337.94,134.08L338.29,171.88L338.58,151L338.59,152.67L338.82,130.04L339.22,193.04L339.33,156.38L339.34,150.75L339.44,124.5L339.77,176.59L340.04,165.85L340.05,168.81L340.36,151.24L340.68,177.31L340.77,166.2L340.78,163.11L340.89,142.85L341.49,166.38L341.5,167.6L342.02,193.47L342.16,156.97L342.17,153.06L342.24,131.69L342.53,167.54L342.92,150.71L342.93,151.7L343.08,142.31L343.24,165.71L343.25,169.1L343.45,192.46L343.71,125.65L343.93,152.13L343.94,150.85L344.13,164.94L344.35,144.04L344.49,157.2L344.5,158.08L344.9,204.42L345.04,133.33L345.05,130.03L345.08,121.6L345.71,166.11L345.72,167.03L345.98,172.55L346.09,153.5L346.1,150.57L346.65,195.77L346.83,126.32L346.88,139.17L346.89,143.68L347.17,164.69L347.31,135.3L347.67,154.33L347.68,155.17L347.92,188.24L348.04,167.07L348.05,162.91L348.16,136.51L348.6,177.71L348.82,150.43L348.84,154.29L349.24,146.63L349.61,204.3L349.66,186.96L349.67,181.42L349.81,136L350.42,163.41L350.44,162.63L350.78,144.12L351.06,181.1L351.08,184.98L351.2,214.7L351.45,135.16L351.73,147.25L351.74,148.05L351.96,178.08L352.35,146.29L352.37,146.07L352.55,158.41L352.56,160.85L352.83,214.57L353.06,145.2L353.07,143.33L353.19,137.94L353.49,187.34L353.5,190.13L353.57,199.97L354.06,143.19L354.08,143.13L354.1,141.99L354.32,177.73L354.33,181.5L354.51,210.9L354.89,117.21L354.9,115.79L354.99,112.7L355.33,137.38L355.34,138.57L355.4,140.99L355.63,122.63L355.64,121.66L355.71,119.27L356.03,161.55L356.04,163.48L356.33,187.57L356.65,150.32L356.9,179.7L356.91,180.78L356.97,182.81L357.29,160.64L357.3,159.39L357.4,153.39L357.84,187.42L357.85,187.36L357.86,187.48L358.11,195.37L358.12,196.66L358.21,208.99L358.47,154.78L358.48,153.12L358.5,151.31L358.82,178.36L359.11,165.02L359.12,164.76L359.56,161.6L359.7,181.8L359.71,184.12L359.94,202.86L360.23,147.14L360.24,143.57L360.3,129.07L360.73,165.98L360.95,157.69L360.96,157.49L361.18,150.89L361.43,163.77L361.44,165.68L361.72,206.75L361.95,150.89L361.96,147.47L362.07,130.37L362.62,166.38L362.64,166.05L362.65,165.74L362.82,153.03L362.83,150.86L362.96,139.3L363.41,162.7L363.42,163.68L363.56,157.67L364.09,176.69L364.17,164.94L364.18,161.29L364.32,130.99L364.83,171.53L364.92,162.32L364.93,161.18L365.39,122.44L365.63,165.63L365.64,166.82L366.03,162.93L366.15,179.13L366.23,167.7L366.24,164.35L366.41,129.59L366.65,167.05L367,153.23L367.02,154.33L367.45,153.09L367.93,189.74L368.1,186.05L368.11,183.26L368.27,132.6L368.84,173.55L368.85,174.1L368.89,175.26L369.09,155.83L369.1,153.91L369.19,147.86L369.62,187.72L369.63,190.13L369.7,194.65L370.05,140.33L370.06,138.08L370.16,125.83L370.59,166.85L370.69,162.06L370.7,161.89L371.12,144.41L371.36,158.88L371.37,160.39L371.55,177.81L371.81,136.89L371.83,135.03L371.94,127.74L372.46,152.01L372.48,153.92L372.54,161.19L372.84,132.67L373.22,152.22L373.23,153L373.7,200.71L373.85,160.6L373.87,155.22L373.97,117.18L374.26,168.87L374.59,161.92L374.61,162.68L374.72,169.26L374.92,152.7L374.94,152.25L375.08,136.37L375.4,174.52L375.45,172.19L375.47,171.66L375.63,177.98L375.74,160.95L375.75,155.55L375.9,100.83L376.51,143.71L376.52,144.99L376.67,165.79L376.94,137.97L376.99,139.82L377,139.19L377.08,132.23L377.27,177.53L377.62,154.44L377.63,154.25L377.64,153.98L377.83,167.55L377.84,169.61L377.91,183.57L378.15,132.23L378.54,159.02L378.55,157.57L378.58,156.08L378.93,179.16L379.17,166.18L379.18,166.79L379.35,177.44L379.78,162.19L379.79,159.81L379.87,151.22L380.42,183.57L380.43,183.56L380.44,183.68L380.75,212.84L380.84,169.7L380.85,158.99L380.94,106.79L381.23,193.38L381.6,155.52L381.61,157.81L382,117.42L382.36,182.53L382.45,180.76L382.46,180.92L382.7,245.41L382.71,248.93L382.72,250.89L382.83,132.38L382.85,116.44L382.92,63.35L383.24,221.07L383.58,148.27L383.6,150.75L384.03,132.65L384.26,233.7L384.41,197.66L384.42,196.56L384.94,154.1L385.15,181.54L385.16,184.38L385.44,217.75L385.63,130.09L385.64,128.29L385.68,139.19L385.69,142.18L386.43,205.05L386.51,183.7L386.52,175.61L386.62,124.9L387.2,216.47L387.21,220.57L387.34,258.28L387.48,90.01L387.49,79.52L387.52,73.03L387.74,209.79L387.77,208.28L387.78,209.09L387.79,211.49L388.01,98.64L388.34,163.92L388.35,158.94L388.65,114.13L388.92,244.35L388.93,245.73L388.95,246.84L389,215.64L389.01,203.29L389.12,17.47L389.39,206.56L389.78,109.08L389.8,124.23L390.13,88.64L390.5,300.72L390.57,166.81L390.58,126.15L390.62,17.65L390.96,238.05L391.33,124.52L391.34,137.94L391.87,258.43L392,29.11L392.01,25.44L392.02,20.67L392.21,242.92L392.42,184.53L392.43,194.6L392.61,58.46L392.93,302.64L393.01,117.83L393.02,75.1L393.04,17.3L393.36,269.64L393.73,215.48L393.74,237.13L394.09,303.27L394.13,138.28L394.14,73.42L394.16,16.89L394.54,263.91L394.85,231.37L394.86,254.79L395.07,303.17L395.2,17.3L395.59,242.83L395.6,236.15L395.91,303.05L396.14,17.13L396.33,225.2L396.34,249.9L396.61,16.61L396.82,303.54L397.03,246.05L397.04,186.75L397.31,282.2L397.58,17.08L397.77,278.59L397.78,275.5L398.06,17.67L398.22,276.83L398.54,168.98L398.55,184.63L398.81,107.69L399.33,303.63L399.36,265.46L399.37,221.74L399.47,17L399.98,274.13L400.15,47.65L400.16,60.88L400.61,303.56L400.74,23.26L401.01,196.52L401.03,199.11L401.19,302.6L401.27,99.92L401.28,44.41L401.73,303.21L401.94,16.76L401.99,100.21L402,133.09L402.35,17.49L402.53,295.43L402.75,165.68L402.76,147.09L403,277.7L403.31,16.96L403.45,233.64L403.46,250.02L403.76,17.46L403.94,293.8L404.11,202.16L404.13,197.37L404.15,188.78L404.16,180.49L404.29,17.11L404.4,285.65L404.81,170.61L404.82,196.19L405.17,16.81L405.33,271.79L405.54,130.15L405.55,109.73L405.65,16L406.21,295.39L406.22,293.02L406.23,289.95L406.51,18.21L406.64,300.46L407.02,112.72L407.03,150.95L407.43,24.72L407.6,303.98L407.75,53.64L407.77,48.4L407.89,28.74L407.96,170.44L407.98,205.54L408.34,30.89L408.55,303.48L408.67,68.07L408.68,58.92L409,303.21L409.27,29.24L409.33,134.69L409.34,164.96L409.73,26.61L409.93,302.85L410.06,63.84L410.07,71.36L410.18,30.24L410.34,303.02L410.62,48.81L410.63,39.89L410.8,303.35L410.96,27.09L411.17,120.46L411.19,160.91L411.42,31.79L411.76,303.43L411.92,84.62L411.94,99.29L412.5,30.45L412.66,302.97L412.72,168.43L412.73,138.42L413.06,303.27L413.41,18.18L413.47,134.83L413.48,178.64L413.52,304L413.87,17.43L414.21,113.92L414.22,131.25L414.33,17.82L414.44,303.9L415.01,201.6L415.02,165.52L415.26,19.84L415.38,303.25L415.77,108.95L415.79,139.97L416.18,47.19L416.31,303.62L416.51,90.87L416.52,106.64L416.67,57.47L416.8,302.83L417.36,192.94L417.37,167.53L417.61,80.49L417.76,291.06L418.14,111.48L418.15,124.5L418.26,285.72L418.58,89.69L418.87,101.92L418.89,94.34L418.9,92.24L419.17,189.68L419.18,206.23L419.25,279.42L419.39,96.67L419.86,100.18L419.87,87.77L419.89,78.3L420.47,207.49L420.48,203.56L420.62,119.95L421.25,149.7L421.26,151.61L421.72,210.69L421.9,105.35L421.91,107.2L422.24,222.38L422.4,93.46L422.81,182.06L422.82,173.19L423.29,206.96L423.49,85.5L423.58,150.72L423.6,158.79L423.99,98.9L424.18,209.5L424.33,154.68L424.35,150.29L424.69,192.52L425.04,125.2L425.1,145.19L425.11,152.39L425.2,184.16L425.34,144.46L425.88,173.87L425.89,174.62L426.57,145.87L426.67,165.34L426.68,166.52L426.79,151.34L426.94,192.38L427.03,153.6L427.04,146.57L427.07,134.89L427.42,174.88L427.75,158.06L427.77,160.99L428.17,140.79L428.33,185.89L428.44,144.23L428.45,141.04L428.47,136.7L429.07,176.66L429.08,178.18L429.14,183.71L429.38,144.59L429.75,172.59L429.76,168.22L429.85,142.53L430.45,180.87L430.49,175.42L430.5,173.82L431.24,147.79L431.31,156.91L431.32,159.47L431.76,154.79L432.03,188.26L432.1,170.99L432.11,166.26L432.18,152.07L432.52,185.29L432.86,165.42L432.87,166.75L433.01,180.69L433.16,158.35L433.63,171.83L433.65,169.51L433.95,156.52L434.11,177.37L434.36,177.22L434.37,177.28L434.64,177.33L435.23,160.17L435.24,160.59L435.26,161.97L435.79,184.12L435.93,156.97L436.06,175.17L436.07,173.71L436.18,151.97L436.86,162.13L436.87,162.66L436.98,175.88L437.11,154.68L437.54,163.22L437.55,162.03L437.76,155.83L437.89,164.92L438.28,162.58L438.29,164.4L438.66,157.14L438.83,172.58L439.01,159.52L439.02,160.32L439.18,153.58L439.81,175.25L439.88,167.9L439.89,166.53L440.11,151.67L440.26,180.66L440.66,163.83L440.67,166.56L441.03,146.28L441.2,177.74L441.4,163.11L441.41,162.82L441.64,168.85L441.96,148.71L442.14,159.46L442.15,160.21L442.22,163.24L442.42,149.88L442.83,155.42L442.85,154.29L442.99,164.17L443.34,148.53L443.61,152.84L443.62,153.79L443.78,150.59L444.39,165.74L444.43,161.17L444.44,159.48L444.71,149.14L444.85,161.96L445.21,155.19L445.22,156.03L445.72,160.77L445.87,151.49L445.97,156.72L445.98,156.53L446.18,163.51L446.54,148.42L446.61,158.92L446.62,161.65L446.66,168.48L447.02,151.08L447.34,155.46L447.35,155.76L447.48,150.78L447.61,163.73L448.16,159.86L448.17,159.07L448.41,155.1L448.54,164.31L448.9,158.51L448.91,159.67L448.98,163.37L449.32,152.49L449.67,161.27L449.68,160.64L449.77,154.56L449.94,161.74L450.42,158.19L450.44,158.12L450.71,154.21L451.03,162.77L451.2,157.1L451.21,158.15L451.3,163.3L451.6,155.63L451.96,158.63L451.97,157.89L452.06,153.81L452.21,162.6L452.66,162.18L452.67,162.06L452.78,163.06L452.92,156.43L453.2,160.38L453.21,160.78L453.38,155.12L453.72,163.92L453.82,157.16L453.83,156.63L453.85,156.35L454.14,163.16L454.15,163.3L454.79,156.2L455,157.21L455.01,157.98L455.1,162.55L455.69,152.58L455.7,151.61L455.73,150.04L456.02,162.47L456.39,155.97L456.4,156.25L456.49,160.46L456.66,148.7L457.03,156.09L457.04,155.17L457.45,158.03L457.59,146.9L457.82,150.83L457.83,151.6L458.06,147.04L458.36,154.82L458.54,149.02L458.55,149.11L458.71,146.8L458.84,153.33L459.07,149L459.08,148.78L459.16,147.05L459.44,152.55L459.76,150.92L459.77,150.99L459.98,152.81L460.3,148.64L460.37,152.62L460.39,153.15L460.42,153.81L460.74,145.9L461,148.73L461.01,148.44L461.04,148.05L461.36,152.59L461.59,150.32L461.6,150.85L462.26,154.13L462.33,150.82L462.34,150.14L462.37,149.35L462.98,154.45L463.01,153.96L463.02,153.77L463.08,152.62L463.5,156.73L463.6,156.38L463.61,156.5L463.73,153.52L464.2,155.83L464.21,156.01L464.86,161.3L465.05,159.51L465.06,159.19L465.13,157.48L465.29,162.58L465.69,162.45L465.7,163.2L466.08,160.23L466.24,167.93L466.45,164.01L466.46,163.54L466.54,159.61L467.14,167.74L467.15,167.79L467.47,164.18L467.61,168.29L467.84,167.38L467.85,166.71L468.05,168.64L468.41,161.83L468.61,165.38L468.63,164.95L468.85,162.78L468.99,169.23L469.36,164.58L469.38,165.13L469.57,162.32L469.93,168L470.15,166.82L470.16,166.88L470.55,163.56L470.82,168.27L470.83,168.18L471.19,160.14L471.64,163.64L471.65,163.74L471.96,166.38L472.32,162.08L472.33,162.02L472.43,164.13L472.8,158.67L473.15,163.95L473.16,163.91L473.24,162.94L473.61,167.73L473.93,164.5L473.94,164.22L474.08,167.24L474.16,162.96L474.17,162.31L474.21,161.77L474.56,167.59L474.74,165.82L474.75,165.86L475.01,166.99L475.11,163L475.3,163.27L475.31,162.92L475.48,165.35L475.8,160.2L476.05,162.68L476.06,162.95L476.12,163.98L476.69,160.02L476.7,159.66L476.82,160.98L477.2,155.55L477.47,158.92L477.48,159.06L477.82,156.75L477.89,158.01L477.9,158.44L477.98,160.69L478.54,153.48L478.55,153.48L478.62,151.05L478.87,157.72L479.23,154.63L479.24,154.63L479.4,161.45L480.05,158.79L480.07,158.89L480.19,156.19L480.48,164.3L480.5,165L480.53,165.75L480.77,158.52L481.18,162.52L481.19,162.55L481.55,160.4L481.84,161.98L481.85,162.4L482.59,166.51L482.75,166.1L482.76,166.15L483.1,164.33L483.34,167.21L483.35,167.44L483.92,170.24L484.07,167.19L484.08,166.8L484.4,167.7L484.59,163.23L484.89,164.63L484.9,164.84L486.44,156.44L486.5,157.18L486.51,157.61L487.02,160.1L487.27,158.13L487.28,158.02L487.43,156.56L487.74,159.52L487.95,159.34L487.96,159.49L488.12,157.76L488.43,159.58L488.44,159.59L488.45,159.78L488.97,156.94L489.11,158.1L489.12,158.12L490.34,163.05L490.41,162.23L490.42,162.03L490.51,161L490.93,165.34L490.94,165.56L491.33,169.5L491.73,161.41L491.78,162.09L491.79,162.18L492,166.42L492.18,158.64L492.49,162.45L492.5,162.27L492.85,157.15L493.3,159.72L493.31,160.04L494.11,172.06L494.33,166.81L494.34,166.55L494.57,166.63L494.9,161.91L495.24,163.3L495.26,163.38L495.66,167.77L496.15,166.84L496.16,166.65L496.24,165.88L496.59,169.27L496.87,167.39L496.88,167.32L497.04,168.23L497.67,161.14L497.79,165.06L497.8,165.63L498.42,170.18L498.57,166.65L498.58,166.4L499.27,155.67L499.52,157.96L499.54,157.61L499.89,160.58L500.34,159.15L500.35,158.98L501.1,153.06L501.27,153.69L501.28,153.91L501.71,154.13L502.07,151.95L502.08,152.04L502.1,152.09L502.28,151.31L502.86,153.65L502.87,153.38L502.88,153.38L503.07,154.05L503.24,151.83L503.25,151.46L503.58,146.82L503.99,151.37L504,151.49L504.58,152.32L504.71,151.27L504.73,151.4L504.74,151.1L505.18,146.37L505.59,148.39L505.6,148.22L505.64,147.92L505.89,150.33L505.9,150.67L505.93,151.24L506.53,149.31L506.58,149.65L506.6,149.56L506.66,149.41L506.77,151.04L506.82,150.67L506.83,151.21L507.05,151.33L507.31,148.59L507.64,150.6L507.66,150.79L508.71,159.11L508.73,158.92L508.96,160L509.4,158.58L509.41,158.19L509.42,157.93L509.92,163.28L509.98,162.74L509.99,163.08L510.31,169.22L510.75,165.97L510.77,166.02L510.89,164.16L511.32,167.58L511.35,167.38L511.36,167.56L511.56,166.68L511.85,172.17L511.86,172.02L511.87,172.5L511.89,171.96L512.34,176.2L512.54,175.68L512.55,175.77L512.58,176.02L512.69,171.02L512.7,170.67L512.89,175.01L513.17,167.42L513.49,169.01L513.5,168.82L513.55,166.72L514.02,176.06L514.03,176.97L514.16,188.84L514.34,161.01L514.66,162.94L514.67,161.55L514.99,164.71L515.24,148.24L515.45,156.14L515.47,156.54L515.91,173.28L516.31,164.66L516.33,164.57L516.61,158.53L516.72,163.19L516.73,164.02L516.9,175.57L517.09,144.24L517.38,156.69L517.4,155.09L517.5,142.72L517.77,167.12L518.15,152.91L518.16,153.63L518.39,143.62L519.12,189.48L519.17,180.27L519.18,174.53L519.71,133.29L519.94,163.33L519.96,164.55L520.03,172.06L520.3,148.01L520.63,153.25L520.64,152.18L520.67,151.05L521.14,168.71L521.15,170.29L521.29,184.92L521.46,135.18L521.76,150.85L521.78,147.61L521.87,131.4L522.18,177.51L522.53,144.75L522.54,146.81L523.13,209.03L523.26,147.39L523.28,141.29L523.72,120.92L523.93,161.87L523.94,165L524.03,182.62L524.36,131.75L524.68,164.27L524.69,163.13L524.88,181.38L524.89,182.69L525.04,194.1L525.22,135.16L525.23,132.94L525.24,131.73L525.83,149.25L525.85,149.13L526.02,164.48L526.29,139.35L526.64,157.66L526.65,156.77L527.27,165.33L527.45,128.17L527.53,145.01L527.54,145.8L527.73,151.02L527.83,141.11L527.84,140.64L528.16,165.89L528.47,150.36L528.48,150.63L528.68,149.9L529.27,190.38L529.34,162.61L529.35,158.84L529.84,134.04L530.09,159.12L530.1,160.37L530.46,156.93L531.16,197.85L531.21,187.07L531.22,182.74L531.74,130.54L531.99,166.57L532,168.47L532.51,159.84L532.7,178.5L532.77,173.9L532.78,173.05L532.93,169.56L533.02,180.02L533.03,183.18L533.14,198.5L533.4,147.79L533.66,156.51L533.67,156.77L533.76,153.47L533.91,169.63L533.92,170.21L534.4,147.31L534.76,183.77L534.81,182.74L534.83,182.29L534.95,184.23L535.11,171.05L535.35,174.74L535.37,172.07L535.48,147.01L536.12,167.29L536.13,168.54L536.5,163.19L536.84,179.42L536.95,177.01L536.97,176.94L537.18,187.6L537.19,189.73L537.22,194.27L537.74,148.54L537.75,148.35L537.79,143.34L538.1,184.33L538.32,168.3L538.33,167.88L538.72,175.52L539.01,159.51L539.07,165.88L539.08,167.92L539.35,185.53L539.77,158.2L539.78,158.17L539.93,139.45L540.29,168.62L540.48,162.02L540.5,161.53L540.55,157.79L540.95,168.03L541.25,160.16L541.26,160.42L541.52,178.99L541.69,136.67L542.15,148.53L542.16,151.39L542.44,177.76L542.94,159.33L542.96,160.23L543.22,151.93L543.42,183.47L543.43,186.61L543.51,202.07L543.96,128.94L543.97,126.82L544.07,112.49L544.39,175.44L544.56,159.33L544.57,159.65L544.71,137.51L545.06,160.35L545.07,163.28L545.28,201.8L545.65,137.56L545.66,134.94L545.9,114.47L546.23,161.21L546.36,143.54L546.38,145.53L546.61,138.54L546.97,178.49L546.98,179.39L547.22,187.19L547.34,161.34L547.35,155.91L547.78,104.06L548.07,168.48L548.09,170.77L548.12,172.9L548.58,143.58L548.59,142.77L548.67,140.47L548.89,161.84L548.9,163.4L549.24,194.05L549.42,123.29L549.43,120.72L549.5,121.29L549.62,113L549.63,111.3L550.14,194.21L550.37,143.18L550.38,140.58L550.5,111.84L550.94,192.04L550.95,193.99L551.04,205.86L551.49,120.74L551.5,119.34L551.57,107.97L551.81,153.36L551.82,157.98L552.03,176.7L552.35,125.83L552.4,127.97L552.41,128.44L552.81,250.51L553.01,180.03L553.02,176.49L553.35,88.45L553.79,160.96L553.8,165.89L553.95,165.31L554.26,228.67L554.56,172.75L554.57,168.39L554.79,120.09L555.34,148.71L555.35,152.24L555.69,197.69L555.7,203.57L555.84,237.95L556.29,135.13L556.3,132.84L556.41,114.71L556.77,185.47L556.97,151.32L556.98,154.92L557.08,158L557.18,142.35L557.19,141.42L557.23,136.67L557.45,222.01L557.46,224.16L557.56,240.9L557.95,127.23L557.96,125.15L558.1,105.11L558.45,177.02L558.57,164.66L558.58,164.05L558.65,166.93L558.84,137.82L558.95,165.13L558.96,170.29L559.11,224.26L559.59,122.65L559.6,119.75L559.65,109.41L560.08,166.68L560.13,164.04L560.14,163.71L560.26,155.04L560.43,174.28L560.44,177.51L560.56,202.08L560.98,143.44L560.99,138.55L561.1,113.59L561.6,174.04L561.61,175.63L562,198.99L562.14,159.02L562.19,161.11L562.21,161.32L562.27,173.02L562.72,127.79L562.73,128.45L562.75,126.19L563.44,215.74L563.67,159.34L563.68,160.35L563.8,145.26L564.46,153.95L564.47,154.99L564.91,215.31L565.22,160.95L565.23,158.52L565.47,137.91L565.69,167.06L565.95,159.4L565.96,161.45L566.39,198.06L566.67,157.22L566.68,155.12L566.92,124.9L567.26,174.05L567.29,172.59L567.3,173.02L567.83,185.68L567.9,169.39L567.91,166.26L568.38,128.81L568.7,152.31L568.71,154.03L569.14,184.62L569.36,154.67L569.38,152.55L569.8,124.32L570.13,150.15L570.14,151.98L570.6,176.46L570.85,148.86L570.87,149.17L571.24,126.33L571.62,147.02L571.63,149.62L572.07,189L572.38,151.45L572.39,148.72L572.57,139.47L572.98,167.93L572.99,168.14L573.13,178.57L573.3,168.02L573.31,166.23L574.25,143.16L574.28,144.47L574.3,145.43L574.31,144.89L574.69,164.45L574.7,165.21L574.77,171.16L575.24,149.63L575.26,149.11L575.48,139.69L576.06,172.16L576.28,166.58L576.29,165.77L577.23,134.69L577.36,143.29L577.37,145.1L577.79,173.34L578.23,157.1L578.25,154.52L578.32,158.3L578.76,141.46L578.95,155.88L578.96,157.18L579.02,154.39L579.78,168.08L579.81,163.77L579.82,162.46L580.26,145.42L580.58,160.15L580.59,160.25L580.78,158.88L581.11,168.26L581.39,162.87L581.4,161.42L581.71,147.58L582.15,159.18L582.16,160.52L582.26,153.89L582.58,162.17L582.59,162.19L582.82,166.55L583.19,155.37L583.2,155.71L583.65,171.44L584.12,165.48L584.14,165.74L584.53,162.1L584.99,173.55L585.05,172.72L585.06,172.57L585.36,174.26L585.65,165.14L585.98,166.95L585.99,168.44L586.22,163.23L586.81,180.34L586.85,178.19L586.86,177.21L586.94,178.36L587.42,159.97L587.68,167.56L587.69,168.2L587.81,167.11L588.52,184.43L588.54,181.8L588.55,177.94L588.91,179.13L589,168.03L589.29,178.93L589.3,181.81L589.4,172.48L589.89,183.12L590.1,174.32L590.11,174.38L590.39,167.75L590.72,177.97L590.9,176.48L590.91,175.44L591.68,165.31L591.73,167.93L591.74,167.85L592,158.57L592.57,174.21L592.59,173.74L592.71,174.6L593.07,163.41L593.08,161.88L593.45,153.17L593.66,162.34L593.8,160.8L593.81,160.81L593.85,158.59L594.12,171.38L594.55,160.88L594.56,160.06L594.58,160.38L594.99,151.51L595.35,155.05L595.37,155.31L595.72,161.98L596.18,146.35L596.2,147.09L596.22,148.36L596.28,144.59L596.71,156.38L597,151.04L597.01,150.58L597.24,155.44L597.68,144.87L597.78,147.26L597.79,147.83L597.83,147.44L597.94,152.1L598.09,151.41L598.1,151.82L598.26,154.43L599.25,135.75L599.4,139.7L599.41,140.82L599.69,148.57L600.14,140.63L600.15,139.26L600.22,141.46L600.8,132.72L600.94,135.95L600.95,136.94L601.48,150.97L601.86,145.76L601.87,144.27L602.18,135.11L602.59,145.56L602.6,145.92L602.65,145.8L603.02,155.23L603.41,149L603.42,147.53L603.69,141.6L604.12,151.59L604.14,153.23L604.44,158.61L604.76,148.47L604.86,149.89L604.87,148.26L605.11,141.58L605.45,156.13L605.51,154.66L605.53,156.65L605.54,158.05L606.15,142.08L606.19,144.54L606.2,145.06L606.3,143.62L607.03,156.67L607.09,153.65L607.1,153.18L607.39,157.73L607.71,150.35L607.77,151.88L607.78,150.8L607.91,145.5L608.42,160.89L608.48,158.48L608.49,159.59L608.59,159.5L609.09,167.98L609.25,161.3L609.27,161.7L610.05,176.7L610.11,174.46L610.13,174.21L610.51,170.72L610.68,176.93L610.84,172.06L610.85,171.75L611.01,168.49L611.33,178.83L611.44,176.2L611.45,177.21L611.53,176.71L611.74,184.44L611.81,181.44L611.82,183.71L612,177.5L612.57,178.62L612.59,179.15L612.61,178.73L613.05,189.74L613.08,189.08L613.09,189.41L613.35,190.83L614.33,172.52L614.46,174.87L614.47,175.62L614.58,176.89L614.99,170.71L615,169.99L615.01,170.34L615.33,162.49L615.56,163.64L615.58,162.87L615.71,159.67L616.24,168.6L616.39,165.93L616.4,164.71L616.94,158.34L617.16,163.77L617.17,163.47L617.34,163.73L617.41,158.33L617.53,159.48L617.54,158.84L617.94,163.81L618.38,153.84L618.39,154.51L618.4,154.73L618.52,150.33L619.03,159.86L619.06,158.4L619.07,159.3L619.26,162.4L619.6,148.28L619.71,150.33L619.72,149.95L620.69,161.86L620.82,160.39L620.83,160.29L620.87,161.75L621.26,150.65L621.58,156.49L621.59,157.27L621.66,155.94L622.08,164.64L622.38,159.46L622.39,158.91L622.71,148.69L623.05,161.63L623.15,157.1L623.17,157.42L623.28,154.61L623.61,161.55L623.89,157.14L623.9,155.82L623.99,158.75L624.21,151.37L624.59,157.27L624.6,157.8L624.69,157.29L625.18,168.12L625.39,159.86L625.4,159.06L625.68,152.9L626.03,161.75L626.09,161.45L626.1,161.92L626.15,164.77L626.34,157.4L626.85,162.18L626.86,161.38L627.1,156.82L627.45,163.68L627.54,163.62L627.56,163.87L627.85,168.05L628.34,166.9L628.35,166.96L628.84,164.57L629.03,170.28L629.04,170.61L630.16,159.95L630.32,162.11L630.34,162.68L630.57,161.71L631.04,168.49L631.1,163.62L631.11,163.09L631.33,165.45L631.53,161.52L631.54,160.62L631.7,158.73L631.95,168.64L632.03,167.29L632.05,167.48L632.44,169.9L632.66,163.15L632.73,164.2L632.74,163.32L632.94,159.22L633.39,163.63L633.48,162.81L633.49,163.68L633.72,161.34L633.92,164.51L634.17,162.26L634.19,161.59L634.64,156.07L634.96,159.27L634.97,159.76L635.31,162.99L635.9,152.18L635.97,153.46L635.98,153.42L636.06,149.73L636.56,161.3L636.63,160.8L636.65,161.1L636.77,163.48L637.12,151.24L637.17,151.33L637.19,151.36L637.24,150.13L637.68,155.09L637.69,155.43L637.84,158.65L638.17,155.02L638.18,154.24L638.5,155.41L638.94,144.48L639.09,148.18L639.11,149.47L639.76,162.52L639.97,156.37L639.98,155.9L640.43,147.13L640.76,153.74L640.77,153.88L641.19,160.75L641.72,145.27L641.73,145.48L641.74,145.55L642.48,164.3L642.81,159.35L642.82,158.75L642.86,159.95L643.18,152.06L643.48,157.29L643.5,156.61L644.26,168.28L644.35,166.17L644.36,166.13L644.67,135.56L645.02,168.95L645.03,169.64L645.06,170.72L645.55,159.52L645.56,158.66L646.22,150.13L646.38,155.01L646.39,156.16L646.65,156.02L647.15,163.32L647.22,162.43L647.24,162.06L647.68,147.06L648.15,155.58L648.16,155.48L648.35,154.63L648.69,157.06L648.88,155.5L648.89,155.37L649.07,149.76L649.08,149.41L649.19,145.27L649.62,160.38L649.63,160.99L649.77,164.62L650.08,160.5L650.43,163.54L650.45,163.22L650.8,156.15L651.13,165.54L651.14,165.36L651.15,165.34L651.54,171.67L651.8,162.9L651.81,162.92L652.2,159.1L652.29,162.45L652.3,163.23L652.52,171.54L653.14,167.53L653.15,167L653.82,157.47L654.11,159.07L654.12,159.03L654.51,166.38L655.03,155.38L655.05,155.77L655.09,155.27L655.31,161.5L655.32,162.13L655.49,166.75L656.1,166.51L656.12,166.1L656.17,167.03L656.51,153.56L656.54,153.68L656.55,153.4L656.6,152.79L656.8,157.36L656.81,157.74L657.25,169L657.69,162.66L657.7,162.25L657.74,163.15L658.01,159.69L658.02,159.86L658.04,159.51L658.15,158.63L658.53,164.72L658.54,165.28L658.83,169.31L659.24,164.48L659.25,164.24L659.75,158.71L660.05,162.09L660.07,161.76L660.32,165.97L660.69,159.63L660.7,159.3L661.09,154.27L661.46,157.76L661.47,157.79L661.51,157.49L661.84,164.09L661.85,164.37L662.57,156.33L662.8,159.41L662.81,159.79L663.14,159.28L663.4,164.59L663.69,163.04L663.71,163.06L663.94,158.58L663.95,158.51L664.07,156.38L664.4,165.47L664.61,164L664.62,163.75L665.17,159.65L665.44,161.77L665.45,161.86L665.78,159.1L666.08,162.23L666.15,161.46L666.17,160.99L666.84,153L667.04,157.15L667.05,157.35L667.72,161.56L667.94,159.59L667.95,159.14L668.39,156.12L668.78,157.8L668.79,157.9L669.27,167.8L669.61,162.33L669.62,162.4L669.85,158.86L670.11,163.82L670.13,163.73L670.14,163.8L670.37,162.68L670.51,166.08L670.52,166.73L670.74,172.38L671.21,166.19L671.22,165.71L671.35,163.11L671.91,168.49L671.93,168.45L671.95,168.76L672.16,172.21L672.61,163.81L672.62,163.53L672.86,162.42L673.17,166.88L673.47,166.43L673.48,166.09L673.57,166.78L674.02,164.07L674.03,163.76L674.22,160.1L674.68,165.47L674.69,165.71L674.8,168.3L675.18,164.28L675.44,166.15L675.45,166.05L675.48,166.24L675.77,163.82L675.78,163.27L675.96,161.02L676.25,164.68L676.26,164.8L676.28,165.06L676.72,159.28L676.73,158.92L676.92,157.03L677.33,164.62L677.34,165.06L677.52,164.96L678.06,167.89L678.13,166.86L678.15,166.31L678.5,160.31L678.9,165.76L678.91,166.22L679.31,170.24L679.62,165.52L679.63,165.7L679.65,165.78L679.95,161.33L680.34,166.93L680.36,166.78L680.37,166.84L680.86,171.33L680.99,168.21L681,167.78L681.52,155.55L681.89,160.83L681.9,161.14L682.71,151.43L682.72,151.2L682.83,149.67L683.12,153.26L683.47,150.67L683.48,150.92L683.6,151.21L685.27,137.24L685.39,137.96L685.4,138.22L685.58,140.2L685.87,134.01L686.06,138.65L686.07,139.52L686.78,149.8L687.17,149.43L687.18,149.23L687.41,144.44L687.64,151.35L687.65,151.66L688.36,159.56L688.64,156L688.65,155.61L689.01,149.42L689.21,157.26L689.22,157.89L689.94,163.74L690.05,161.52L690.06,161.09L690.64,155.18L690.84,159.04L690.85,158.86L691.43,164.65L691.62,160.36L691.63,159.75L691.85,153.33L692.22,163.79L692.23,164.4L692.56,165.53L692.84,163.42L692.85,163.55L692.86,162.85L693.32,153.6L693.71,157.77L693.72,157.81L694.2,164.55L694.48,156.34L694.49,156.68L694.51,156.72L694.66,157.31L694.83,154.32L694.95,157.17L694.96,157.67L695.7,166.86L695.85,163.73L695.86,163.44L696.38,157.09L696.61,162.71L696.62,163.02L697,174.05L697.35,164.07L697.36,163.82L697.59,161.62L697.61,161.05L697.8,158.81L698.15,164.19L698.17,164.09L698.18,164.42L698.62,170.72L698.85,163.18L698.86,162.85L699.05,157.3L699.63,160.89L699.65,161.45L699.97,166.61L700.32,159.58L700.33,159.27L700.55,156.51L700.82,162.26L700.83,162.66L701.37,167.35L701.61,163.83L701.62,163.52L702.04,158.71L702.29,165.45L702.3,165.64L702.64,169.53L703.07,167.62L703.08,167.53L703.62,162.51L703.79,165.08L703.8,165.56L704.2,170.7L704.52,165.93L704.53,165.29L705.13,156.41L705.57,157.04L705.58,157.3L706,163.75" style="vector-effect: non-scaling-stroke; fill: none; stroke: rgb(214, 39, 40); stroke-opacity: 1; stroke-width: 2px; opacity: 1;"/></g><g class="points"/><g class="text"/></g></g></g><g class="overplot"/><path class="xlines-above crisp" d="" style="fill: none; stroke-width: 1px; stroke: rgb(0, 0, 0); stroke-opacity: 0;"/><path class="ylines-above crisp" d="" style="fill: none; stroke-width: 1px; stroke: rgb(0, 0, 0); stroke-opacity: 0;"/><g class="overlines-above"/><g class="xaxislayer-above"><path class="xtick ticks crisp" d="M0,421v5" transform="translate(80,0)" style="stroke: rgb(51, 51, 51); stroke-opacity: 1; stroke-width: 1px;"/><path class="xtick ticks crisp" d="M0,421v5" transform="translate(168.25,0)" style="stroke: rgb(51, 51, 51); stroke-opacity: 1; stroke-width: 1px;"/><path class="xtick ticks crisp" d="M0,421v5" transform="translate(256.5,0)" style="stroke: rgb(51, 51, 51); stroke-opacity: 1; stroke-width: 1px;"/><path class="xtick ticks crisp" d="M0,421v5" transform="translate(344.75,0)" style="stroke: rgb(51, 51, 51); stroke-opacity: 1; stroke-width: 1px;"/><path class="xtick ticks crisp" d="M0,421v5" transform="translate(433.01,0)" style="stroke: rgb(51, 51, 51); stroke-opacity: 1; stroke-width: 1px;"/><path class="xtick ticks crisp" d="M0,421v5" transform="translate(521.26,0)" style="stroke: rgb(51, 51, 51); stroke-opacity: 1; stroke-width: 1px;"/><path class="xtick ticks crisp" d="M0,421v5" transform="translate(609.51,0)" style="stroke: rgb(51, 51, 51); stroke-opacity: 1; stroke-width: 1px;"/><path class="xtick ticks crisp" d="M0,421v5" transform="translate(697.76,0)" style="stroke: rgb(51, 51, 51); stroke-opacity: 1; stroke-width: 1px;"/><path class="xtick ticks crisp" d="M0,421v5" transform="translate(786.01,0)" style="stroke: rgb(51, 51, 51); stroke-opacity: 1; stroke-width: 1px;"/><g class="xtick"><text text-anchor="middle" x="0" y="446.4" transform="translate(80,0)" style="font-family: 'Open Sans', verdana, arial, sans-serif; font-size: 17px; fill: rgb(51, 51, 51); fill-opacity: 1; white-space: pre;">0</text></g><g class="xtick"><text text-anchor="middle" x="0" y="446.4" transform="translate(168.25,0)" style="font-family: 'Open Sans', verdana, arial, sans-serif; font-size: 17px; fill: rgb(51, 51, 51); fill-opacity: 1; white-space: pre;">500</text></g><g class="xtick"><text text-anchor="middle" x="0" y="446.4" transform="translate(256.5,0)" style="font-family: 'Open Sans', verdana, arial, sans-serif; font-size: 17px; fill: rgb(51, 51, 51); fill-opacity: 1; white-space: pre;">1000</text></g><g class="xtick"><text text-anchor="middle" x="0" y="446.4" transform="translate(344.75,0)" style="font-family: 'Open Sans', verdana, arial, sans-serif; font-size: 17px; fill: rgb(51, 51, 51); fill-opacity: 1; white-space: pre;">1500</text></g><g class="xtick"><text text-anchor="middle" x="0" y="446.4" transform="translate(433.01,0)" style="font-family: 'Open Sans', verdana, arial, sans-serif; font-size: 17px; fill: rgb(51, 51, 51); fill-opacity: 1; white-space: pre;">2000</text></g><g class="xtick"><text text-anchor="middle" x="0" y="446.4" transform="translate(521.26,0)" style="font-family: 'Open Sans', verdana, arial, sans-serif; font-size: 17px; fill: rgb(51, 51, 51); fill-opacity: 1; white-space: pre;">2500</text></g><g class="xtick"><text text-anchor="middle" x="0" y="446.4" transform="translate(609.51,0)" style="font-family: 'Open Sans', verdana, arial, sans-serif; font-size: 17px; fill: rgb(51, 51, 51); fill-opacity: 1; white-space: pre;">3000</text></g><g class="xtick"><text text-anchor="middle" x="0" y="446.4" transform="translate(697.76,0)" style="font-family: 'Open Sans', verdana, arial, sans-serif; font-size: 17px; fill: rgb(51, 51, 51); fill-opacity: 1; white-space: pre;">3500</text></g><g class="xtick"><text text-anchor="middle" x="0" y="446.4" transform="translate(786.01,0)" style="font-family: 'Open Sans', verdana, arial, sans-serif; font-size: 17px; fill: rgb(51, 51, 51); fill-opacity: 1; white-space: pre;">4000</text></g></g><g class="yaxislayer-above"><path class="ytick ticks crisp" d="M79,0h-5" transform="translate(0,375.2)" style="stroke: rgb(51, 51, 51); stroke-opacity: 1; stroke-width: 1px;"/><path class="ytick ticks crisp" d="M79,0h-5" transform="translate(0,317.6)" style="stroke: rgb(51, 51, 51); stroke-opacity: 1; stroke-width: 1px;"/><path class="ytick ticks crisp" d="M79,0h-5" transform="translate(0,259.99)" style="stroke: rgb(51, 51, 51); stroke-opacity: 1; stroke-width: 1px;"/><path class="ytick ticks crisp" d="M79,0h-5" transform="translate(0,202.39)" style="stroke: rgb(51, 51, 51); stroke-opacity: 1; stroke-width: 1px;"/><path class="ytick ticks crisp" d="M79,0h-5" transform="translate(0,144.79)" style="stroke: rgb(51, 51, 51); stroke-opacity: 1; stroke-width: 1px;"/><g class="ytick"><text text-anchor="end" x="70.6" y="5.949999999999999" transform="translate(0,375.2)" style="font-family: 'Open Sans', verdana, arial, sans-serif; font-size: 17px; fill: rgb(51, 51, 51); fill-opacity: 1; white-space: pre;">0.4</text></g><g class="ytick"><text text-anchor="end" x="70.6" y="5.949999999999999" transform="translate(0,317.6)" style="font-family: 'Open Sans', verdana, arial, sans-serif; font-size: 17px; fill: rgb(51, 51, 51); fill-opacity: 1; white-space: pre;">0.2</text></g><g class="ytick"><text text-anchor="end" x="70.6" y="5.949999999999999" transform="translate(0,259.99)" style="font-family: 'Open Sans', verdana, arial, sans-serif; font-size: 17px; fill: rgb(51, 51, 51); fill-opacity: 1; white-space: pre;">0</text></g><g class="ytick"><text text-anchor="end" x="70.6" y="5.949999999999999" transform="translate(0,202.39)" style="font-family: 'Open Sans', verdana, arial, sans-serif; font-size: 17px; fill: rgb(51, 51, 51); fill-opacity: 1; white-space: pre;">0.2</text></g><g class="ytick"><text text-anchor="end" x="70.6" y="5.949999999999999" transform="translate(0,144.79)" style="font-family: 'Open Sans', verdana, arial, sans-serif; font-size: 17px; fill: rgb(51, 51, 51); fill-opacity: 1; white-space: pre;">0.4</text></g></g><g class="overaxes-above"/></g></g><g class="polarlayer"/><g class="ternarylayer"/><g class="geolayer"/><g class="pielayer"/><g class="sunburstlayer"/><g class="glimages"/><defs id="topdefs-7780d2"><g class="clips"/><clipPath id="legend7780d2"><rect width="168" height="36" x="0" y="0"/></clipPath></defs><g class="layer-above"><g class="imagelayer"/><g class="shapelayer"/></g><g class="infolayer"><g class="legend" pointer-events="all" transform="translate(800.12, 100)"><rect class="bg" shape-rendering="crispEdges" style="stroke: rgb(68, 68, 68); stroke-opacity: 1; fill: rgb(255, 255, 255); fill-opacity: 1; stroke-width: 0px;" width="168" height="36" x="0" y="0"/><g class="scrollbox" transform="translate(0, 0)" clip-path="url('#legend7780d2')"><g class="groups" transform="translate(0, 0)"><g class="traces" transform="translate(0, 17.55)" style="opacity: 1;"><text class="legendtext user-select-none" text-anchor="start" x="40" y="6.63" style="font-family: 'Open Sans', verdana, arial, sans-serif; font-size: 17px; fill: rgb(51, 51, 51); fill-opacity: 1; white-space: pre;">class=dog_bark</text><g class="layers" style="opacity: 1;"><g class="legendfill"/><g class="legendlines"><path class="js-line" d="M5,0h30" style="fill: none; stroke: rgb(214, 39, 40); stroke-opacity: 1; stroke-width: 2px;"/></g><g class="legendsymbols"><g class="legendpoints"/></g></g><rect class="legendtoggle" pointer-events="all" x="0" y="-12.55" width="208" height="25.1" style="cursor: pointer; fill: rgb(0, 0, 0); fill-opacity: 0;"/></g></g></g><rect class="scrollbar" rx="20" ry="3" width="0" height="0" style="fill: rgb(128, 139, 164); fill-opacity: 1;" x="0" y="0"/></g><g class="g-gtitle"><text class="gtitle" x="490" y="50" text-anchor="middle" dy="0em" style="font-family: 'Open Sans', verdana, arial, sans-serif; font-size: 24px; fill: rgb(51, 51, 51); opacity: 1; font-weight: normal; white-space: pre;">audio wave (time vs amplitude)</text></g><g class="g-xtitle"><text class="xtitle" x="433" y="490" text-anchor="middle" style="font-family: 'Open Sans', verdana, arial, sans-serif; font-size: 20px; fill: rgb(51, 51, 51); opacity: 1; font-weight: normal; white-space: pre;">time(ms)</text></g><g class="g-ytitle"><text class="ytitle" transform="rotate(-90,30,260)" x="30" y="260" text-anchor="middle" style="font-family: 'Open Sans', verdana, arial, sans-serif; font-size: 20px; fill: rgb(51, 51, 51); opacity: 1; font-weight: normal; white-space: pre;">amplitude</text></g></g></svg>