<svg class="main-svg" xmlns="http://www.w3.org/2000/svg" xmlns:xlink="http://www.w3.org/1999/xlink" width="980" height="500" viewBox="0 0 980 500"><rect x="0" y="0" width="980" height="500" style="fill: rgb(255, 255, 255); fill-opacity: 1;"/><defs id="defs-388483"><g class="clips"><clipPath id="clip388483xyplot" class="plotclip"><rect width="728" height="320"/></clipPath><clipPath class="axesclip" id="clip388483x"><rect x="80" y="0" width="728" height="500"/></clipPath><clipPath class="axesclip" id="clip388483y"><rect x="0" y="100" width="980" height="320"/></clipPath><clipPath class="axesclip" id="clip388483xy"><rect x="80" y="100" width="728" height="320"/></clipPath></g><g class="gradients"/></defs><g class="bglayer"><rect class="bg" x="80" y="100" width="728" height="320" style="fill: rgb(237, 237, 237); fill-opacity: 1; stroke-width: 0;"/></g><g class="layer-below"><g class="imagelayer"/><g class="shapelayer"/></g><g class="cartesianlayer"><g class="subplot xy"><g class="layer-subplot"><g class="shapelayer"/><g class="imagelayer"/></g><g class="gridlayer"><g class="x"><path class="xgrid crisp" transform="translate(171,0)" d="M0,100v320" style="stroke: rgb(255, 255, 255); stroke-opacity: 1; stroke-width: 1px;"/><path class="xgrid crisp" transform="translate(262,0)" d="M0,100v320" style="stroke: rgb(255, 255, 255); stroke-opacity: 1; stroke-width: 1px;"/><path class="xgrid crisp" transform="translate(353,0)" d="M0,100v320" style="stroke: rgb(255, 255, 255); stroke-opacity: 1; stroke-width: 1px;"/><path class="xgrid crisp" transform="translate(444.01,0)" d="M0,100v320" style="stroke: rgb(255, 255, 255); stroke-opacity: 1; stroke-width: 1px;"/><path class="xgrid crisp" transform="translate(535.01,0)" d="M0,100v320" style="stroke: rgb(255, 255, 255); stroke-opacity: 1; stroke-width: 1px;"/><path class="xgrid crisp" transform="translate(626.01,0)" d="M0,100v320" style="stroke: rgb(255, 255, 255); stroke-opacity: 1; stroke-width: 1px;"/><path class="xgrid crisp" transform="translate(717.01,0)" d="M0,100v320" style="stroke: rgb(255, 255, 255); stroke-opacity: 1; stroke-width: 1px;"/></g><g class="y"><path class="ygrid crisp" transform="translate(0,375.2)" d="M80,0h728" style="stroke: rgb(255, 255, 255); stroke-opacity: 1; stroke-width: 1px;"/><path class="ygrid crisp" transform="translate(0,317.59000000000003)" d="M80,0h728" style="stroke: rgb(255, 255, 255); stroke-opacity: 1; stroke-width: 1px;"/><path class="ygrid crisp" transform="translate(0,202.38)" d="M80,0h728" style="stroke: rgb(255, 255, 255); stroke-opacity: 1; stroke-width: 1px;"/><path class="ygrid crisp" transform="translate(0,144.78)" d="M80,0h728" style="stroke: rgb(255, 255, 255); stroke-opacity: 1; stroke-width: 1px;"/></g></g><g class="zerolinelayer"><path class="xzl zl crisp" transform="translate(80,0)" d="M0,100v320" style="stroke: rgb(255, 255, 255); stroke-opacity: 1; stroke-width: 1px;"/><path class="yzl zl crisp" transform="translate(0,259.99)" d="M80,0h728" style="stroke: rgb(255, 255, 255); stroke-opacity: 1; stroke-width: 1px;"/></g><path class="xlines-below"/><path class="ylines-below"/><g class="overlines-below"/><g class="xaxislayer-below"/><g class="yaxislayer-below"/><g class="overaxes-below"/><g class="plot" transform="translate(80, 100)" clip-path="url('#clip388483xyplot')"><g class="scatterlayer mlayer"><g class="trace scatter trace7851ad98-33d6-4943-94c4-c05eabfdd82b" style="stroke-miterlimit: 2; opacity: 1;"><g class="fills"/><g class="errorbars"/><g class="lines"><path class="js-line" d="M0,154.1L0.35,153.7L0.49,154.7L0.76,154.34L0.77,154.33L1.16,153.86L1.63,154.17L1.64,154.18L2.76,154.37L2.78,154.85L2.89,152.69L3.36,155.5L3.5,153.73L3.51,153.66L3.67,154.61L3.92,153.47L4.29,154L4.3,153.99L4.53,153.73L4.66,154.23L5.04,153.9L5.05,153.81L5.43,153.66L5.78,153.94L5.8,153.79L5.81,153.74L6.29,154.05L6.3,154.91L6.43,151.1L6.92,157.78L7.01,154.03L7.02,151.51L7.03,151.29L7.2,155.75L7.69,152.96L7.7,153.21L7.85,154.97L8.02,153.1L8.49,154.38L8.5,154.51L8.68,153.46L9.3,153.92L9.32,153.93L9.93,154.42L9.94,155.14L10.07,151.48L10.57,158.09L10.65,154.49L10.66,151.84L10.67,151.08L10.84,156.11L11.38,153.52L11.39,153.56L11.45,155.23L11.66,153.17L12.16,154.38L12.17,154.24L12.26,153.59L12.74,154.43L12.93,154.06L12.94,154.09L13.51,153.75L13.58,155.06L13.59,156.04L13.7,151.64L14.21,158.4L14.29,154.53L14.3,152.08L14.31,150.95L14.8,156.26L15.03,153.66L15.04,153.71L15.14,155.28L15.24,153.38L15.8,154.62L15.81,154.43L15.99,154.57L16.51,153.86L16.55,154.04L16.56,154.25L16.9,153.95L17.22,155.53L17.23,156.27L17.35,152.07L17.84,156.33L17.85,158.97L17.86,159.15L17.96,150.8L18.26,153.1L18.27,152.65L18.29,152.13L18.44,156.42L18.99,153.59L19,153.83L19.05,155.06L19.54,153.19L19.75,154.03L19.76,154.1L19.85,153.54L20.03,154.3L20.49,154.07L20.5,154.06L20.62,154.15L20.71,153.43L20.73,153.97L20.74,155.26L20.86,150.69L20.96,157.1L21.46,152.11L21.48,153.18L21.54,149.98L21.65,158.41L22.24,155.76L22.25,155.87L22.74,153.52L23,154.64L23.01,154.85L23.19,153.71L23.77,154.26L23.79,153.96L24.32,157.59L24.35,153.32L24.37,151.21L24.52,159.46L25.08,147.17L25.11,151.48L25.12,152.96L25.25,161.01L25.36,148.37L25.76,153.77L25.78,154.62L25.87,157.31L25.96,151.15L26.52,155.63L26.53,155.39L27,152.65L27.31,153.75L27.32,153.85L27.93,157.04L27.97,151.54L27.98,150.31L28.4,160.76L28.69,147.54L28.73,150.96L28.75,151.3L28.87,158.68L28.93,148.06L29.51,153.87L29.52,153.68L29.59,151.72L30.13,156.05L30.25,153.1L30.26,152.71L30.42,155.76L31.03,154.9L31.04,154.77L31.54,156.94L31.66,149.73L31.84,151.89L31.85,153.61L32.06,159.16L32.25,146.7L32.49,154.31L32.5,158.12L32.65,160.78L32.69,146.77L33.12,153.06L33.14,150.58L33.72,157.24L33.74,155.34L33.75,153.06L33.98,157.93L34.21,150.04L34.48,152.62L34.49,152.39L35.09,152.11L35.19,157.42L35.23,155.71L35.24,151.33L35.59,167.71L35.7,136.44L35.8,157.24L35.81,162.86L36.2,143.53L36.58,152.98L36.59,156.17L36.65,148.32L36.73,162.45L37.33,153.78L37.34,157.46L37.36,159.79L37.91,149.51L38.07,156.6L38.08,155.78L38.19,151.22L38.25,157.22L38.82,156.97L38.83,159.03L39.02,162.57L39.6,145.23L39.62,150.3L39.63,154.28L39.73,162.67L39.82,146.86L40.39,159.5L40.4,152.99L40.55,147.1L40.97,158.24L41.12,153.59L41.13,159.42L41.21,148.46L41.89,152.6L41.91,155.77L42.49,159.15L42.57,147.09L42.65,154.47L42.66,153.07L42.71,145.66L43.4,165.47L43.42,163.24L43.43,160.42L43.45,144.55L43.74,165.98L44.18,153.93L44.19,155.31L44.22,145.86L44.33,160.41L44.93,153.57L44.94,155.92L45.4,159.74L45.52,147.41L45.68,155.89L45.69,157.76L45.73,147.36L45.76,157.93L45.89,154.28L45.9,157.95L46.14,162.74L46.63,144.37L46.66,154.8L46.67,152.56L46.75,160.8L46.91,142.51L47.34,155.32L47.35,144.28L47.79,159.23L47.8,154.89L47.81,147.81L47.82,147.06L47.93,160.56L48.39,156.11L48.4,161.49L48.98,163.43L49,145.27L49.16,153.85L49.17,153.59L49.29,144.9L49.53,159.55L49.89,153.54L49.9,151.95L50.1,163.86L50.37,145.12L50.65,156.26L50.67,156.05L51.1,162.81L51.18,146.61L51.4,154.53L51.42,161.02L51.48,148.23L52.18,149.62L52.19,155.14L52.27,161.64L52.35,145.97L52.85,153.95L52.86,150.41L53.29,147.99L53.5,161.73L53.6,151.77L53.61,150.07L53.83,163.36L54.15,146.22L54.36,161.2L54.37,154.73L54.57,163.18L54.91,142.38L55.12,152.71L55.14,157.52L55.22,159.14L55.31,148.58L55.89,153.63L55.9,157.85L56,161.16L56.02,148.12L56.66,152.39L56.67,154.4L56.92,148.76L57.25,158.39L57.4,151.04L57.41,151.22L57.99,163.72L58.07,146.53L58.18,158.9L58.2,160.73L58.26,144.81L58.45,162.47L58.88,153.41L58.89,155.78L59.33,161.1L59.55,148.83L59.64,155.72L59.65,157.61L60.3,160.04L60.37,144.73L60.4,151.99L60.41,156.12L60.68,159.44L61.14,148.97L61.16,155.64L61.18,157.85L61.44,161.14L61.51,144.86L61.94,153.74L61.95,159.17L62.48,148.43L62.65,160.38L62.71,155.18L62.72,154.03L62.81,158.36L62.88,149.44L63.48,152.08L63.5,155.7L63.89,159.7L63.92,149.44L64.22,155.46L64.24,157.72L64.57,158.09L64.66,149.53L64.96,152.46L64.98,154.43L65.11,158.6L65.6,148.15L65.66,152.72L65.67,157.12L65.89,148.8L66.33,159.62L66.43,152.13L66.44,152.43L66.57,147.97L67.15,158.68L67.17,154.69L67.18,151.58L67.5,147.81L67.63,159.13L67.93,153.41L67.94,152.7L68.3,148.76L68.32,157.88L68.62,153.04L68.63,155.57L68.72,158.28L68.76,148.82L69.17,155.18L69.18,152.49L69.26,149.47L69.62,158.91L69.91,151.75L69.92,154.69L69.98,159.14L70.06,147.11L70.65,155.61L70.66,153.4L71.03,150.02L71.13,156.11L71.25,154.21L71.27,157.03L71.32,158.89L71.4,147.99L72.02,152.34L72.03,155.44L72.6,160.53L72.66,145.75L72.78,154.11L72.79,156.89L72.8,158.86L72.93,150.01L73.52,153.82L73.53,150.57L73.98,159.94L74.02,145.87L74.27,154.56L74.28,149.75L74.69,149.5L74.78,158.7L75.06,155.2L75.08,153.31L75.5,158.58L75.58,150.36L75.8,155.69L75.82,151.35L75.91,156.91L76.03,150.93L76.45,152.7L76.46,151.61L76.48,151.42L76.54,156.74L76.79,154.88L76.81,155.75L77.17,159.6L77.19,149.44L77.56,155.83L77.57,155.18L78.24,157.93L78.27,149.93L78.32,151.28L78.33,152.91L78.58,158.78L78.93,150.21L79.07,151.12L79.08,151.34L79.69,158.65L79.73,148.94L79.84,156.87L79.85,155.92L80,149.97L80.12,157.22L80.63,151.88L80.64,153.03L80.66,158.71L81.15,150.62L81.39,155.11L81.4,154.24L81.54,157.22L81.91,149.67L82.12,153.61L82.13,156.36L82.6,160.59L82.63,146.16L82.91,153.35L82.93,154.78L82.95,157.72L83.27,149.84L83.66,152.54L83.68,154.62L84.19,159.48L84.21,147.54L84.4,153.55L84.42,148.99L84.43,148.65L84.6,159.09L84.97,154.97L84.98,155.51L85.1,150.31L85.39,157.14L85.56,151.74L85.58,150.06L85.69,159.19L85.76,149.55L86.34,156.91L86.35,155.29L86.67,150.1L86.78,156.63L87.1,152.02L87.11,153.33L87.26,156L87.28,151.11L87.29,149.65L87.6,149.29L87.83,157.69L88.04,155.9L88.06,153.3L88.07,150.53L88.18,157.29L88.79,153.39L88.81,156.23L89.02,148.57L89.32,157.97L89.57,152.94L89.58,155.56L89.73,157.07L89.91,151.48L90.31,154.89L90.32,153.59L90.64,150.85L90.98,158.85L91.06,154.55L91.07,153.93L91.37,152.5L91.81,156.17L91.84,155.62L91.85,154.12L92.46,151.6L92.54,156.63L92.57,154.22L92.58,156.1L92.79,151.1L92.96,158.08L93.33,155.11L93.34,155.69L93.58,156.68L93.75,152.45L94.04,154.35L94.05,155.57L94.27,159.78L94.3,149.06L94.79,154.96L94.8,155.94L94.89,156.36L95.03,150.87L95.55,153.29L95.56,153.81L96.17,157.83L96.2,150.8L96.3,152.43L96.31,152.12L96.4,150.04L96.43,157.07L97.06,152.39L97.08,154.3L97.54,151.93L97.77,156.39L97.82,154.13L97.83,154.23L97.97,159.77L98.04,148.04L98.47,154.62L98.49,156.87L98.51,150.97L98.54,157.04L99.25,153.25L99.26,153.11L99.74,151.44L100,156.98L100.01,155.54L100.02,154.34L100.07,149.43L100.37,157.85L100.77,154.38L100.78,154.73L100.81,151.56L100.84,156.17L101.53,153.52L101.55,153.4L102.15,157.17L102.18,150.11L102.31,155.22L102.32,153.7L102.38,151.8L102.75,157.17L103.06,153.02L103.07,155.19L103.54,151.99L103.64,156.2L103.73,152.61L103.74,152.3L104.31,157.23L104.34,151.03L104.5,155.78L104.52,155.9L104.62,151.86L105.27,154.1L105.28,155.41L105.31,151.41L105.61,156.24L106.03,154.85L106.04,155.66L106.55,157.37L106.57,149.87L106.8,153.28L106.81,156.81L107.05,152.3L107.58,153.76L107.59,153.14L107.76,156.87L107.78,152.23L108.23,154.02L108.25,153.14L108.92,156.56L108.94,150.88L109.02,155.49L109.03,153.33L109.27,156.58L109.41,151.91L109.72,155.48L109.74,155.74L110.26,152.89L110.53,153.08L110.54,153.41L110.87,151.83L111.27,156.58L111.29,154.8L111.31,153.43L111.74,157.43L111.9,149.93L111.95,155.16L111.97,156.56L112.69,159.72L112.74,149.23L112.75,154.26L112.76,158.04L112.8,146.8L113.49,154.28L113.5,153.97L113.84,151.39L113.93,156.43L114.14,154.84L114.15,156.19L114.31,151.39L114.43,156.3L114.88,154.11L114.89,155.65L115.36,156.55L115.64,150.53L115.67,152.54L115.69,152.03L115.74,158.52L116.27,148.34L116.44,155.31L116.45,155.05L116.54,148.44L116.64,157.06L117.21,152.65L117.22,153.86L117.31,155.66L117.36,151.5L117.93,154.03L117.94,154.88L118.24,152.02L118.59,155.74L118.63,155.71L118.64,153.63L119.21,150.26L119.31,156.39L119.37,154.13L119.38,156.44L119.47,157.47L119.58,150.11L120.14,153.33L120.16,152.38L120.2,151.16L120.62,155.75L120.94,154.72L120.95,154.2L121.36,151.48L121.65,156.15L121.66,154.72L121.67,153.38L121.71,152.57L121.85,155.68L122.4,154.48L122.41,154.51L122.66,159.01L123.08,146.06L123.12,156.12L123.14,156.49L123.42,148.72L123.77,159.9L123.89,152.43L123.9,154.71L123.91,158.32L124.13,149.92L124.64,153.83L124.65,154.19L124.83,156.69L124.93,151.97L125.38,153.01L125.39,152.92L125.7,150.8L125.85,157.87L126.13,153.78L126.14,150.85L126.42,157.84L126.8,146.72L126.9,157.23L126.91,153.86L126.94,148.99L127.17,159.98L127.66,151.67L127.67,151.76L127.86,159.07L127.89,149.95L128.43,154.41L128.44,152.98L128.55,150.77L128.7,157.71L129.18,153.32L129.19,152.92L129.8,160.13L129.85,147.03L129.9,147.6L129.92,146.59L130.18,169.85L130.28,140.44L130.68,153.99L130.69,150.45L130.71,145.63L131.14,162.42L131.42,156.47L131.43,153.78L131.47,160.78L131.58,148.57L132.18,153.58L132.19,153.19L132.41,158.64L132.5,147.34L132.95,155.02L132.96,154.27L133.53,162.67L133.64,137.17L133.68,152.06L133.69,159.25L133.72,174.73L133.83,136.02L134.43,158.68L134.44,157.84L134.51,141.1L134.75,165.37L135.21,149.34L135.22,150.27L135.8,146.87L135.94,164.36L135.96,152.55L136.25,146.79L136.68,164.18L136.7,160.03L137.37,170.63L137.45,141.03L137.46,150.82L137.47,151.34L138.03,173.47L138.14,124.67L138.22,148.85L138.23,163.75L138.25,176.2L138.34,136.74L138.97,160.56L138.98,158.42L139.07,146.03L139.57,170.61L139.74,155.68L139.76,161.9L140.26,143.98L140.37,165.02L140.54,149.28L140.55,150.91L140.65,176.02L140.76,131.63L141.29,155.18L141.3,137.97L141.51,130.58L141.56,172.97L142.06,150.02L142.08,149.6L142.12,137.31L142.2,174.51L142.83,152.07L142.84,148.28L143.38,168.65L143.44,138.83L143.6,153.54L143.61,157.03L143.65,140.87L144.15,169.91L144.32,162.76L144.33,151.08L144.54,190.65L144.61,115.36L145.08,149.59L145.09,147.29L145.16,126.26L145.19,172.92L145.83,147.49L145.84,151.21L146.05,133.8L146.11,167.62L146.55,153.65L146.56,150.04L147.23,170.41L147.25,136.9L147.32,159.71L147.33,157.08L147.75,169.35L147.85,135.14L147.9,161.13L147.91,176.19L148.04,132.32L148.15,178.52L148.5,155.18L148.51,138.1L148.74,119.51L149.24,173.15L149.27,150.85L149.28,144.48L149.91,166.3L150.02,135.32L150.03,135.55L150.14,173.78L150.24,135.2L150.8,169.45L150.81,150.3L150.82,132.38L151.06,173.25L151.55,143.92L151.56,152.45L151.84,176.67L151.98,113.35L152.01,172.07L152.02,176.49L152.12,179.85L152.19,109.34L152.78,148.9L152.79,157.31L153.18,132.3L153.34,173.2L153.53,161.58L153.54,155.19L153.56,130.08L154.25,170.42L154.29,152.75L154.3,159.73L154.33,171.5L154.35,134.82L155.04,149.33L155.06,155.16L155.59,114.79L155.66,186.12L155.77,159.37L155.78,140.06L156.08,116.47L156.15,183.4L156.53,148.48L156.55,153.93L156.67,183.11L156.7,127.91L157.28,157.68L157.3,156.39L157.44,168.28L157.75,142.24L157.81,161.92L157.82,176.95L158.22,134.95L158.57,150.62L158.58,153.18L159.1,170.04L159.17,119.63L159.31,146.9L159.32,141.11L159.46,124.85L159.88,186.73L159.99,153.34L160,172.63L160.29,126.45L160.75,155.03L160.77,159.31L160.96,173.41L161.2,135.1L161.52,152.08L161.53,159.04L162.04,178.27L162.06,142.23L162.07,136.96L162.12,135.82L162.24,173.51L162.8,157.42L162.81,145.34L163.07,172.68L163.19,128.74L163.52,165.52L163.53,130.97L163.97,172.87L164.05,150.06L164.06,138.7L164.18,175.29L164.19,137.67L164.85,161.59L164.86,147.83L165.21,174.77L165.38,131.51L165.61,157.08L165.62,147.04L166.27,136.68L166.31,174.47L166.37,158.86L166.38,150.16L167.01,183.7L167.04,135.06L167.12,140.04L167.14,153.95L167.24,135.72L167.47,178.34L167.87,154.71L167.89,151.21L167.91,157.04L167.95,146.91L167.99,152.6L168,143.09L168.07,177.53L168.1,129.7L168.75,155.13L168.76,133.69L168.83,168.46L169.51,147.92L169.52,139.81L169.95,174.45L170.01,133.33L170.26,160.61L170.28,144.47L170.33,131.02L170.63,176.83L170.81,166.99L170.82,173.17L170.93,135.05L171.57,163.5L171.58,157.05L171.65,135.17L172.13,170.03L172.32,161.25L172.33,174.1L172.93,133.94L173.11,150.55L173.12,150.99L173.2,170.94L173.68,133.96L173.85,159.32L173.86,157.42L173.88,135.93L173.97,170.69L174.61,154.81L174.62,165.63L175.12,171.19L175.15,131.42L175.37,156.71L175.38,156.95L175.47,136.01L175.8,177.4L176.13,161.83L176.14,157.57L176.24,141.08L176.43,171.59L176.88,149.63L176.9,154.47L176.95,162.78L177.53,144.25L177.58,162.14L177.59,161.95L177.93,137.13L177.95,175.26L178.34,160.07L178.35,158.54L178.74,136.11L178.81,168.7L179.09,155.07L179.1,172.76L179.57,172.79L179.81,123.23L179.86,141.49L179.88,164.69L179.98,170.18L180.64,135.81L180.65,148.38L180.66,164.69L180.9,134.46L180.97,173.2L181.31,157.63L181.32,165.17L181.84,132.21L181.92,176.78L182.07,153.5L182.08,173.71L182.82,135.83L182.83,153.22L182.84,160.45L182.92,133.28L183.32,166.8L183.36,159.47L183.37,165.79L183.4,137.78L184.07,170.59L184.12,156.38L184.13,162.71L184.45,173.42L184.81,126.69L184.87,158.36L184.88,174.05L185.22,134.95L185.6,175.74L185.63,149.02L185.64,150.74L185.95,171.49L185.97,132.56L186.37,150.57L186.38,137.96L187.09,171.03L187.13,163.73L187.14,149.17L187.19,169.42L187.38,139.6L187.39,146.81L187.41,163.44L187.57,165.63L187.75,140.19L188.17,152.84L188.18,157.64L188.26,142.12L188.86,170.62L188.94,145.58L188.95,147.44L189.03,166.44L189.46,138.46L189.72,155.43L189.73,140.84L190.31,173.43L190.34,136.27L190.48,157.47L190.49,154.29L190.96,138.2L190.98,174.99L191.24,145.42L191.25,159.42L191.32,124L191.63,172.25L192,154.06L192.01,159.36L192.18,132.25L192.21,168.3L192.75,156.66L192.76,156.78L193.07,131.42L193.4,167.85L193.43,154.67L193.45,174.77L193.48,133.35L194.2,144.27L194.21,163.6L194.58,174.52L194.61,135.85L194.91,155.3L194.93,169.03L195.19,174.66L195.4,131.67L195.66,154.74L195.68,153.71L195.84,172.31L196.07,128.74L196.42,153.13L196.43,157.47L196.55,172.71L196.59,131.54L197.17,157.61L197.18,163.41L197.56,175.23L197.68,133.05L197.94,155.71L197.95,160.78L198.01,168.37L198.54,137.75L198.69,151.09L198.7,152.02L199.01,137.32L199.17,164.7L199.43,154.5L199.44,147.49L199.82,172.57L199.85,131.94L200.21,171.19L200.23,162.62L200.25,134.55L200.93,163.8L200.98,147.37L200.99,159.06L201.15,137.12L201.45,170.22L201.74,153.12L201.75,151.92L201.83,139.08L202.28,169.4L202.48,153.19L202.49,162.2L203.17,171.54L203.19,131.08L203.24,159.01L203.25,148.89L203.37,166.53L203.62,132.71L203.82,149.45L203.83,141.9L204.24,141.81L204.36,170.51L204.58,146.04L204.59,148.2L204.67,136.86L205.23,172.81L205.34,153.02L205.36,153.15L205.38,168.54L205.92,137.32L206.1,156.04L206.11,169.25L206.14,135.43L206.71,170.55L206.83,156.31L206.85,163.44L206.88,138.13L207.37,171.06L207.59,153.94L207.6,161.4L207.94,136.94L208.05,175.99L208.34,156.82L208.35,162.2L208.58,170.77L209.06,142.36L209.1,147.56L209.11,154.14L209.51,133.12L209.83,175.04L209.86,162.5L209.87,153.46L209.97,139.61L210.11,165L210.63,146.13L210.65,149.32L210.84,135.85L211.09,167.05L211.41,165.8L211.42,160.65L211.82,171.44L211.85,140.21L212.12,151.88L212.14,157.72L212.75,141.21L212.86,173.67L212.88,158.8L212.89,144.64L213.31,132.69L213.33,173.3L213.65,153.11L213.66,146.27L213.75,173.02L213.84,144.97L214.24,149.21L214.25,141.74L214.6,135.59L214.72,167.13L215.01,159.73L215.02,151.89L215.35,138.86L215.5,164.36L215.62,156.2L215.63,145.77L215.95,140.39L216.33,171.81L216.39,162.81L216.4,153.97L216.48,141.09L216.79,175.57L216.81,147.83L216.82,141.67L217.27,139.6L217.29,170.66L217.58,158.86L217.6,152.24L217.66,169.22L218.15,137.32L218.34,162.26L218.35,151.34L218.43,138.25L218.54,170.95L218.87,151.36L218.88,143.08L219.39,167.91L219.48,138.54L219.65,159.46L219.67,149.72L219.97,139.06L220.08,167.74L220.37,148.66L220.38,158.89L220.78,177.89L220.8,128.79L221.11,153.28L221.12,165.32L221.71,139.89L221.75,168.96L221.87,162.05L221.88,164.91L222.05,141.62L222.12,167.69L222.65,145.88L222.66,159.09L222.85,167.66L223.26,143.63L223.37,150.96L223.39,154.47L223.45,138.89L223.52,170.43L223.94,155.51L223.95,170.1L224.43,140.74L224.73,151.5L224.74,151.94L225.13,167.14L225.4,140.42L225.47,148.28L225.48,147.55L225.71,170.67L225.87,141.42L226.22,154.07L226.23,153.17L226.35,143.67L226.39,166.94L226.99,160.08L227,152.33L227.55,165.08L227.73,140.9L227.74,147.85L227.75,161.82L228.28,171.25L228.47,134.75L228.49,153L228.5,163.6L228.64,169.82L229.2,140.82L229.26,155.28L229.27,160.43L229.85,138.25L229.89,164.83L229.98,156.26L229.99,139.23L230.52,135.63L230.76,167.35L230.77,157.95L230.98,134.78L231.41,170.97L231.51,161.6L231.52,159.32L232.1,169.26L232.21,137.89L232.28,151.35L232.29,156.87L232.88,165.06L232.95,142.99L233.02,152.4L233.03,151.67L233.6,143.82L233.71,166.68L233.77,155.52L233.78,149.37L234.2,130.81L234.24,167.9L234.52,147.86L234.53,162.2L234.58,144.86L234.74,166.53L235.11,157.75L235.12,152.58L235.36,146.01L235.53,166.28L235.55,157.31L235.56,146.38L236.01,142.05L236.18,170.08L236.31,150.51L236.32,146.17L236.71,173.73L236.77,136.74L237.05,151.36L237.06,150.01L237.26,141.35L237.78,170.28L237.8,151.4L237.81,145.47L238.08,139.72L238.3,165.23L238.54,157.83L238.55,149.63L238.71,162.83L238.78,140.11L239.15,157.54L239.16,167.18L239.2,131.42L239.63,177.2L239.87,149.15L239.88,149.74L240.26,161.66L240.43,137.38L240.63,152.33L240.64,149.39L240.66,170.35L241.3,138.42L241.39,163.25L241.4,148.17L241.71,142.18L241.9,165.42L242.13,160.56L242.14,145.76L242.72,133.12L242.75,170.11L242.89,164.91L242.91,168.59L242.93,138.82L243.66,154L243.67,156.36L244.15,167.77L244.24,138.62L244.43,145.66L244.44,152.6L244.74,165.41L244.98,141.19L245.08,157.69L245.09,143.88L245.26,140.53L245.34,169.64L245.86,164.21L245.87,158.37L246.14,144.92L246.58,165.05L246.64,145.5L246.65,148.2L247.3,142.59L247.36,170.31L247.38,164.32L247.39,143.37L247.73,163.37L248.07,140.95L248.12,156.59L248.13,141.31L248.23,166.1L248.3,132.73L248.89,157.76L248.9,146.51L249.36,136.58L249.47,164.67L249.67,163.82L249.69,154.77L250.34,166.36L250.42,133.99L250.44,144.13L250.45,155.35L250.8,166.18L250.83,138.02L251.16,144.37L251.18,160.39L251.23,170.77L251.55,140.67L251.94,151.53L251.95,162.2L252.02,131.62L252.1,169.72L252.68,147.7L252.69,154.83L253.05,169.84L253.07,137.3L253.42,153.05L253.43,151.93L253.67,170.89L253.76,136.62L254.18,143.1L254.19,155.9L254.24,141.87L254.49,169.33L254.94,160.57L254.95,154.59L255.53,165.51L255.55,142.43L255.69,157.77L255.7,148.65L256.2,167.93L256.24,139.6L256.46,157.77L256.48,156.03L256.78,163.87L257.08,140.38L257.23,163.17L257.24,155.18L257.28,138.18L257.45,170.48L257.92,146.23L257.93,159.6L258.33,138.09L258.35,174.96L258.65,152.5L258.66,147.6L258.67,147.45L258.68,158.64L259.08,170.1L259.18,140.53L259.38,164.1L259.39,147.06L259.45,142.86L259.99,165.81L260.14,156.49L260.15,155.41L260.36,141.18L260.51,167.38L260.87,155.45L260.88,164.18L261.29,171.73L261.32,130.74L261.63,152.33L261.64,149.89L261.74,171.11L261.78,126.86L262.32,153.01L262.33,171.32L262.88,138.05L263.13,149.47L263.14,151.32L263.21,173.97L263.28,145.47L263.69,158.18L263.7,160.47L264.11,140.58L264.29,170.05L264.44,160.53L264.45,162.3L264.86,172.22L265.18,131.44L265.19,161.91L265.2,171.35L265.52,129.73L265.55,172.49L265.97,144.77L265.99,148.92L266.16,142.24L266.41,168.09L266.74,152.63L266.75,158.61L266.92,132.48L267.32,169.36L267.48,143.92L267.49,154.53L267.52,168.54L268.17,136.89L268.19,156.56L268.2,175.66L268.31,185.01L268.68,107.01L268.74,156.31L268.75,174.6L268.88,120.39L269.47,180.16L269.51,159.85L269.52,150.37L269.58,139.61L269.6,168.15L270.27,142.39L270.29,149.46L270.83,139.6L270.98,170.99L271.04,150.12L271.05,156.6L271.47,170.22L271.76,130.75L271.78,133.57L272.2,184.55L272.23,119.97L272.44,141.13L272.45,127.59L272.46,122.91L272.87,175.7L273.16,146.13L273.17,147.29L273.24,179.52L273.55,129.9L273.9,146.35L273.91,146.03L274.08,170.85L274.22,138.24L274.67,157.51L274.68,157.58L275.23,190.43L275.35,123.78L275.44,166.42L275.45,143.98L275.72,112.2L275.77,190L276.19,145.38L276.2,127.79L276.46,118.1L276.5,183.67L276.96,172.34L276.97,148.24L277.08,136.02L277.25,170.78L277.6,164.37L277.61,167.41L277.9,175.87L277.96,135.43L278.37,141.15L278.38,157.45L278.77,119.49L278.91,173.56L278.98,142.64L278.99,131.24L279.44,110.01L279.66,192.31L279.76,164.71L279.77,135.89L280.23,180.08L280.31,127.07L280.53,162.69L280.55,153.49L281.08,177.52L281.1,132.11L281.27,149.7L281.29,171.33L281.31,131.74L282.01,185.14L282.04,148.87L282.05,158.9L282.46,191.04L282.53,119.48L282.76,151.88L282.78,174.23L282.97,108.73L282.99,176.7L283.01,161.87L283.03,180.22L283.04,186.35L283.07,115.34L283.74,157.1L283.75,145.77L284.02,134.44L284.37,182.44L284.5,165.66L284.52,146.86L284.69,133.23L285.05,175.81L285.24,159.97L285.26,167.77L285.4,179.7L285.99,123.32L286.01,153.48L286.29,191.54L286.72,116.55L286.75,169.72L286.76,152.29L287.03,179L287.25,119.11L287.51,154.37L287.52,154.1L288.12,191.49L288.16,121.15L288.26,147.44L288.27,145.07L288.41,179.73L288.7,117.48L289.02,147.59L289.03,149.5L289.43,127.66L289.75,191.11L289.78,150.25L289.79,132.31L290.2,189L290.39,98.77L290.42,156.04L290.43,175.42L290.59,105.1L290.76,190.92L291.19,137.3L291.2,155.08L291.56,135.84L291.93,183.38L291.94,180.82L291.96,135.57L291.97,124.01L292.47,193.44L292.69,127.84L292.71,151.34L292.8,179.71L292.9,131.79L293.01,145.07L293.02,128.44L293.09,196.16L293.54,111.23L293.79,161.82L293.8,135.4L293.95,202.04L294.01,87.29L294.53,165.01L294.54,170.91L294.76,188.42L294.81,127.67L295.29,152.85L295.3,154.31L295.55,121.87L295.58,188.21L296.04,181.23L296.05,152.31L296.47,113.17L296.55,180.48L296.8,144.22L296.81,148.22L297.39,111.15L297.51,225.09L297.54,125.67L297.55,110.57L297.56,80.95L297.6,213.28L298.28,151.17L298.29,173.69L298.88,124.04L298.99,188.22L299.05,132.28L299.06,165.28L299.2,201.28L299.24,111.09L299.77,154.42L299.78,154.5L300.23,194.51L300.37,130.84L300.52,167.69L300.53,159.49L301.11,235.46L301.23,79.13L301.24,117.33L301.25,199.65L301.26,246.35L301.32,99.22L301.99,155.83L302,147.4L302.18,181.11L302.34,120.58L302.75,162.51L302.76,157.97L302.9,202.71L302.92,118.25L303.5,151.32L303.51,162.64L303.55,182.8L303.67,131.33L303.96,159.35L303.97,133.47L304.47,104.77L304.5,209.46L304.73,207.97L304.74,208.07L304.79,81.47L304.82,232.4L305.5,158.04L305.51,147.6L305.64,123.76L305.74,181.66L306.25,166.04L306.27,152.96L306.31,192.29L306.93,125.97L307,142.92L307.02,164.57L307.13,125.49L307.31,186.77L307.77,153.46L307.78,182.37L308.39,191.82L308.52,98.26L308.53,132.02L308.54,177.31L308.55,196.52L308.92,112.74L309.27,168.43L309.28,149.52L309.72,186.52L310.03,118.83L310.04,153.53L310.25,128.44L310.34,180.3L310.79,154.6L310.8,153.82L311.08,186.05L311.1,118.29L311.53,177.22L311.54,146.4L311.83,117.95L312.27,193.35L312.28,172.13L312.29,141.69L312.5,126.83L312.65,180.47L313.04,166.76L313.06,147.81L313.56,175.2L313.59,113.39L313.8,147.46L313.81,145.28L313.92,134.7L314.26,180.68L314.56,156.03L314.57,133.38L315.1,185.31L315.23,122.81L315.33,152.45L315.34,144.73L315.95,125.04L316,178.96L316.08,161.15L316.09,142.33L316.14,196.04L316.51,128.13L316.71,144.75L316.72,123.08L316.98,106.21L317.07,188.14L317.47,161.02L317.48,164.04L317.92,119.77L318.08,180.21L318.23,150.29L318.24,152.15L318.6,120.49L318.93,182.13L318.97,137.83L318.98,124.9L319.16,116.26L319.27,187.53L319.68,154.07L319.69,165.52L320.11,186.05L320.34,120.82L320.42,160.79L320.43,143.35L320.71,193.73L320.8,113.14L321.17,155.97L321.18,145.61L321.82,118.9L321.89,186.11L321.91,169.25L321.92,151.31L321.93,126.33L322.08,185.64L322.67,150.28L322.68,146.11L323.2,185.69L323.21,126.95L323.41,175.14L323.42,125.15L323.53,181.1L323.71,121.64L324.18,169.57L324.19,158.46L324.42,183.57L324.68,118.06L324.94,160.78L324.95,142.68L325.39,183.89L325.46,123.71L325.69,151.84L325.71,138.68L325.74,116.52L326.26,181.8L326.35,155.03L326.37,129.24L326.84,113.51L326.93,180.99L327.12,162.86L327.13,132.42L327.29,194.09L327.37,127.56L327.9,162.01L327.91,160.99L328.32,191.42L328.5,128.18L328.64,153.33L328.65,169.53L328.72,117.86L328.88,192.97L329.4,153.45L329.41,165.84L329.45,134.19L329.52,171.7L329.69,163.51L329.7,167.77L329.74,197.42L329.77,105.02L330.46,144.97L330.47,167.16L330.62,188.15L331.18,109.7L331.23,126.13L331.25,165.69L331.28,186.33L331.47,124.17L332.01,157.07L332.02,169.57L332.2,186.7L332.69,128.4L332.77,157.61L332.78,151.06L332.92,123.56L332.96,168.76L333.2,164.34L333.21,175.7L333.27,187.71L333.3,125.04L333.96,156.57L333.98,134.68L334.29,120.02L334.68,188.6L334.73,162.4L334.74,142.83L335.34,116.47L335.36,181.59L335.48,147.12L335.49,154.22L335.61,122.39L335.78,199.7L336.23,154.02L336.24,125.15L336.38,194.59L336.4,118.68L337,182.47L337.01,166.72L337.07,115.65L337.65,189.31L337.76,148.3L337.77,146.45L337.97,128.79L338.53,181.44L338.55,166.83L338.56,137.83L338.57,122.8L338.97,191.98L339.3,130.11L339.31,147.04L339.37,184.32L339.98,127.81L340.06,156.45L340.07,163.41L340.14,144.34L340.21,186.28L340.22,206.62L340.45,107.07L340.97,154.09L340.98,148.44L341.45,186.68L341.52,123.86L341.72,152.86L341.73,146.37L341.81,183.62L342.15,117.4L342.44,160.62L342.45,183.24L343,118.63L343.14,189.69L343.22,134.97L343.23,169.88L343.36,181.65L343.43,122.08L343.97,161.39L343.99,184.54L344.21,192.5L344.46,115.95L344.69,166.56L344.7,167.53L344.72,106.35L344.98,182.87L345.45,141.77L345.46,165.73L345.76,109.66L346.18,185.55L346.19,152.84L346.29,117.25L346.82,185.2L346.93,144.13L346.94,161.18L347.45,188.24L347.52,112.65L347.68,173.23L347.69,149.38L347.96,112.41L348.26,188.13L348.43,143.72L348.44,153.84L348.54,179.83L348.62,120.02L348.98,170.9L348.99,180.71L349.29,124.07L349.4,199.63L349.75,142.86L349.76,157.58L350.07,186.48L350.31,116.35L350.46,156.88L350.47,174.4L350.64,130.06L351.15,179.74L351.17,154.6L351.19,127.36L351.42,182.84L351.94,172.85L351.95,146.46L352.26,189.76L352.32,119.36L352.71,189.13L352.72,142.29L352.78,120.21L353.35,180.17L353.46,142.81L353.47,147.32L353.8,189.73L353.87,116.4L354.22,147.97L354.23,157.51L354.45,195.04L354.52,112.86L354.81,164.53L354.83,181.49L354.93,117.81L355.1,189.86L355.59,134.54L355.6,135.3L355.83,185.57L356.04,130.07L356.38,173.67L356.4,148.82L356.84,187.82L356.91,130.92L357.1,162L357.11,133.67L357.77,178.99L357.79,118.84L357.87,157.41L357.89,161.84L358.19,173.37L358.26,118.04L358.65,153.64L358.66,160.05L358.96,118.16L359.16,189.05L359.25,168.6L359.26,177.39L359.49,181.28L359.66,129.09L360.02,135.28L360.04,140.79L360.3,120.4L360.66,190.72L360.78,151.18L360.79,145.75L361.2,123.66L361.28,180.97L361.51,158.48L361.53,129.57L361.64,191.49L361.66,122.95L362.29,158.6L362.3,150.96L362.96,187.9L362.98,128.2L363.05,145.07L363.06,148.18L363.27,135.15L363.62,180.67L363.66,164.98L363.68,130.68L363.69,112.42L364.2,176.8L364.42,148.34L364.43,157.77L364.75,189.14L364.81,111.58L365.17,152.23L365.18,172.74L365.25,116.14L365.87,189.89L365.94,136.71L365.95,141.44L366.09,125.68L366.21,186.99L366.69,157.71L366.7,136.91L367.19,129.42L367.24,175.48L367.45,172.16L367.46,156.69L367.65,126.56L367.88,179.06L368.11,166.95L368.12,171.44L368.33,198.31L368.4,124.82L368.87,158.17L368.89,160.69L369.37,128.01L369.51,182.22L369.61,162.77L369.63,172.98L370.28,119.39L370.35,186.42L370.36,184.08L370.38,182.75L370.72,116.01L371.14,150.4L371.15,138.39L371.4,172.14L371.43,129.89L371.9,149.62L371.91,138L372.55,109.95L372.62,183.81L372.67,166.14L372.68,148.77L372.81,109.75L373.05,180.48L373.21,157.65L373.22,129.48L373.25,179.58L373.4,120.31L373.97,158.9L373.98,142.61L374.12,132.91L374.57,182.7L374.66,143.95L374.68,129.99L374.89,184.69L375.38,121.04L375.44,150.24L375.45,143.53L375.46,143.77L375.47,163.82L375.8,124.64L376.15,185.16L376.21,160.59L376.22,141.12L376.33,133.9L376.86,182.69L376.97,150.37L376.98,146.42L377.37,180.01L377.41,127.1L377.7,150.07L377.71,164.19L377.88,187.38L378.37,119.16L378.41,168.63L378.42,111.81L378.5,186.95L379.18,159.38L379.19,148.42L379.35,177.02L379.38,124.06L379.94,163.9L379.95,147.64L380.2,129.3L380.69,176.6L380.7,158.78L380.72,126.33L380.91,178.09L381.22,153.08L381.23,132.97L381.24,120.27L381.72,176.84L381.96,143.85L381.97,158.58L382.09,190.2L382.26,124.89L382.72,144.87L382.73,149.44L383.15,123.67L383.33,173.93L383.41,153.97L383.42,141.9L383.47,180.51L383.87,124.62L384.12,148.59L384.13,164.71L384.21,121.65L384.83,189.06L384.85,150.88L384.86,122.94L384.96,117.11L385.45,182.13L385.61,150L385.62,148.44L385.94,173.32L386.3,126.74L386.37,164.74L386.38,145.21L386.71,122.96L387.03,179.17L387.13,153.75L387.14,146.48L387.39,182.11L387.81,122.19L387.88,170.76L387.89,138.46L388.22,130.85L388.66,176.57L388.67,158.43L389.17,121.37L389.35,189.44L389.42,139.37L389.43,154.29L389.44,154.45L389.45,170.09L389.75,175.47L390.1,133.15L390.2,153.76L390.21,164.21L390.38,117.47L390.41,174.6L390.86,158.54L390.87,144.4L390.9,135.89L390.91,158.06L390.92,168.68L391.35,106.69L391.52,188.95L391.54,142.58L391.56,126L391.8,182.78L392.27,117.86L392.32,165.32L392.33,166.96L392.77,119.04L392.8,186.9L392.97,145.57L392.98,129.76L393,184.97L393.11,123.35L393.69,154.94L393.71,141.97L394,125.85L394.02,173.58L394.2,130.32L394.21,104.31L394.3,186.87L394.96,146.29L394.97,146.34L395.21,177.94L395.23,123.9L395.72,168.19L395.73,137.61L395.97,180.85L395.99,130.86L396.5,177.98L396.52,152.83L396.57,121.71L396.7,191.79L397.21,164.29L397.22,173.94L397.24,118.12L397.93,190.49L397.94,189.43L397.95,152.85L397.96,121.11L398.54,189.23L398.7,152.73L398.71,161.27L398.81,176.37L399.21,126.61L399.46,152.08L399.47,159.25L399.59,189.86L400.24,125.76L400.25,147.93L400.42,184.02L400.45,132.41L401,152.5L401.01,142.6L401.4,183.63L401.48,118.97L401.76,144.38L401.77,138.06L402.01,129.05L402.03,179.93L402.24,139.66L402.25,134.36L402.47,114.16L402.91,191.12L403,166.6L403.01,154.27L403.34,124.87L403.36,187.07L403.75,164.55L403.76,141.5L404.09,189.35L404.11,126.91L404.52,156.72L404.54,153.71L404.66,180.16L404.98,120.82L405.08,149.35L405.09,132.97L405.17,189.62L405.18,122.84L405.58,159.29L405.59,132.69L405.6,110.18L406.15,187.88L406.33,141.57L406.34,170.6L406.48,197.57L406.63,115.19L407.07,150.08L407.08,159.3L407.31,119.41L407.69,182.19L407.82,157.18L407.83,163.8L407.87,150.02L407.88,177.03L407.89,166.88L407.9,136.17L408.12,126.45L408.14,179.21L408.53,162.89L408.54,189.4L408.56,112.62L409.29,147.42L409.3,148.74L409.95,111.92L409.97,192.44L410,149.25L410.01,124.41L410.39,201.34L410.42,109.88L410.78,185.61L410.79,160.12L410.97,190.47L411.16,103.55L411.54,149.26L411.55,145.48L411.8,178.67L411.83,121.3L412.27,157.83L412.28,173.88L412.52,128.49L412.9,180.87L413.04,130.22L413.06,150.75L413.43,185.35L413.74,128.81L413.79,153.56L413.81,149.57L414.07,202.59L414.31,111.65L414.56,147.76L414.57,177.78L415.03,117.57L415.22,184.94L415.32,159.64L415.33,180.62L415.91,120.73L416.06,172.34L416.07,201.01L416.74,119.39L416.83,155.07L416.84,149.37L417.36,106.9L417.57,195.47L417.59,174.37L417.61,115.57L417.73,205.43L417.86,106.24L418.06,145.4L418.07,123.03L418.09,114.25L418.22,181.67L418.45,168.43L418.46,204.8L418.96,108.07L419.22,135.9L419.23,144.36L419.46,111.13L419.53,210.33L419.99,153.82L420.01,158.32L420.04,119.82L420.6,187.15L420.72,150.51L420.73,162.85L420.85,84.78L421.15,218.24L421.46,143.27L421.47,206.58L421.88,209.66L421.91,108.37L422.21,162.01L422.22,162.73L422.38,121.58L422.47,185.06L422.97,162.6L422.99,154.01L423.3,202.37L423.6,126.82L423.66,155.93L423.67,179.06L424.03,121.39L424.34,199.9L424.42,171.02L424.43,172.93L424.78,55.64L424.92,258.37L425.19,113.43L425.2,137.12L425.37,233.02L425.42,88.15L425.92,162.79L425.93,152.63L426.31,193.38L426.34,115.47L426.68,144.31L426.69,163.95L426.75,114.67L426.92,194.09L427.33,178.5L427.34,188.92L428.05,200.65L428.08,104.22L428.09,119.03L428.1,169.45L428.53,252.7L428.55,47.87L428.84,218.44L428.86,161.52L428.96,95.89L429.29,208.47L429.61,158.74L429.62,147.8L430.3,115.02L430.38,200.18L430.39,154.06L430.47,193.45L430.49,107.37L431.14,133.39L431.15,152.26L431.79,78.08L431.85,229.06L431.92,200.38L431.93,169.2L432.34,46.6L432.46,252.82L432.67,165.19L432.68,175.27L432.72,104.74L433,205.92L433.41,159.73L433.42,112.79L433.72,195.35L434.18,170.43L434.19,163.91L434.24,147.25L434.25,152.33L434.26,172.09L434.49,188.14L434.84,112.85L434.96,146.98L434.98,167.64L435.36,234.91L435.38,71.57L435.56,138.04L435.57,233.86L436.1,247.98L436.14,65.04L436.25,198.94L436.26,196.31L436.48,198.9L436.67,101.27L437.01,152.78L437.02,163.56L437.27,121.69L437.53,191.18L437.77,150.72L437.79,150.88L438.29,112.29L438.51,187.14L438.54,174.22L438.55,135.06L439.15,64.37L439.26,247.39L439.28,217.42L439.29,86.08L439.48,270.04L439.5,54.73L439.99,157.23L440,188.28L440.01,205.43L440.05,82.63L440.72,140.46L440.73,133.96L441.15,199.39L441.17,114.9L441.33,171.88L441.35,199.51L442.07,120L442.12,142.86L442.13,139.51L442.61,82.98L442.78,219L442.87,141.6L442.88,94.82L443.06,268.8L443.09,39.36L443.14,112.47L443.15,34.75L443.2,285.8L443.73,192.55L443.75,137.87L443.76,79.64L443.92,208.09L444.49,143.49L444.5,160.15L444.66,121.35L444.72,228.31L445.25,158.73L445.26,164.65L445.72,195.73L445.75,114.13L445.93,147.19L445.94,110.32L446.65,22.56L446.68,282.97L446.69,215.06L446.7,92.27L446.78,40.48L446.89,304L447.44,133.9L447.45,101.01L447.56,211.6L447.66,86.97L448.2,170.55L448.22,153.5L448.3,129L448.36,184.15L448.39,161.73L448.4,185.82L448.76,107.23L448.86,195.85L449.15,171.03L449.16,150.84L449.67,227.47L449.92,71.3L449.93,170.36L450.35,277.1L450.59,16L450.64,168.41L450.65,36.7L450.75,239.43L451.42,203.24L451.44,184.31L451.65,110.23L452.08,213.55L452.19,153.04L452.2,119.17L452.33,108.97L452.88,215.23L452.95,155.01L452.96,141.95L453.53,93.1L453.61,213.28L453.66,179.13L453.68,218.15L454.02,276.14L454.38,22.36L454.39,109.48L454.4,220.34L454.42,264.55L454.45,61.58L455.13,180.97L455.14,195.86L455.72,221.05L455.75,96.53L455.89,147.45L455.91,140.96L456.5,190.42L456.52,99L456.66,158.58L456.67,179.04L456.72,94.24L457.21,218.47L457.44,116.77L457.45,166.36L457.76,57.59L457.92,251.73L458.17,164.28L458.18,255.06L458.28,77.09L458.82,176.48L458.83,200.4L458.92,200.99L459.5,104.47L459.58,172.62L459.59,165.96L459.74,105.92L459.81,191.19L460.11,162.59L460.13,122.85L460.38,85.82L460.66,199.55L460.77,143.99L460.79,179.51L460.88,81.49L461.06,213.42L461.49,139.08L461.5,166.6L461.83,234.54L461.99,95.82L462.25,118.63L462.26,165.92L462.29,186.1L462.3,147.55L462.31,133.31L462.51,111.75L462.94,203.36L463.03,161.71L463.04,161.63L463.42,196.31L463.58,118.64L463.8,145.62L463.81,158.43L464.44,209.07L464.53,101.29L464.55,167.13L464.56,172.64L464.72,77.46L464.74,260.84L465.31,167.73L465.32,181.44L465.43,95.78L465.93,224.28L466.08,140.49L466.09,166.49L466.19,203.95L466.27,108.29L466.83,145.56L466.84,158.57L466.96,95.74L467.29,203.9L467.58,157.05L467.59,132.52L467.67,193.11L467.7,119.52L467.75,130.77L467.76,124.17L468,96.48L468.45,220.11L468.51,157.15L468.52,138.09L468.73,97.74L468.9,213.85L469.26,135.67L469.27,155.72L469.58,98.78L469.86,213.83L469.95,166.73L469.97,135.61L470.17,200.04L470.63,122.73L470.72,154.62L470.73,144.5L471.08,192.62L471.1,118.4L471.32,154.11L471.33,187.88L471.52,219.73L471.96,101.68L472.09,148.57L472.1,175.07L472.39,216.86L472.5,95.43L472.79,165.63L472.8,191.49L473.04,93.97L473.06,226.28L473.51,146.41L473.53,153.49L473.74,109.22L473.81,200.14L474.28,141.66L474.29,170.73L474.88,195.28L474.99,117.03L475.03,176.4L475.04,177.49L475.68,90.46L475.71,215.05L475.8,124.99L475.81,192.81L475.85,88.64L475.94,226.67L476.55,172.02L476.56,117.28L476.59,230.91L476.77,109.01L477.31,153.22L477.33,142.83L477.42,193.26L477.69,116.55L478.04,135.27L478.05,197.96L478.35,113.77L478.82,137.1L478.83,169.86L479.45,69.79L479.49,224.54L479.51,88.96L479.52,80.69L480.12,215.45L480.28,161.84L480.29,142.58L480.4,89.7L480.7,202.77L481,169.21L481.01,171.82L481.51,85.94L481.58,224.79L481.69,129.68L481.7,117.64L481.72,118.08L481.73,137.99L481.98,111.51L482.31,204.48L482.47,140.21L482.48,133.31L483.17,266.87L483.19,73.25L483.21,72.56L483.7,221.59L483.96,126.85L483.97,107.06L484.17,95.77L484.28,203.43L484.72,151.86L484.73,118.39L484.82,196.51L485.39,105.51L485.48,157.48L485.49,145.71L485.74,111.87L485.82,199.55L486.22,158.58L486.23,120.09L486.73,68.04L486.88,241.96L486.99,169.53L487.01,136.95L487.07,68.99L487.22,235.27L487.28,151.73L487.29,88.64L487.82,202.63L488.05,153.76L488.06,167.89L488.43,211.53L488.44,99.87L488.71,139.15L488.72,124.55L489.22,217.79L489.25,72.52L489.47,142.5L489.49,171.94L489.58,94.34L489.62,194.07L490.21,124.07L490.22,196.86L490.47,248.34L490.55,80.11L490.96,149.02L490.98,170.67L491.16,254.41L491.18,84.69L491.74,143.02L491.75,156.05L491.84,222.28L491.86,91.68L492.48,135.01L492.49,131.98L492.52,226.74L492.99,102.01L493.23,166.28L493.24,158.16L493.67,85.49L493.71,218.65L493.94,120.02L493.96,74.96L494.05,230.24L494.13,59.31L494.72,193.45L494.73,149.89L494.83,199.96L495.21,116.86L495.45,167.57L495.46,181.05L495.9,211.01L496.14,96.16L496.21,138.5L496.22,145.83L496.58,118.34L496.69,204L496.96,145L496.97,140.98L497,159.35L497.02,185.44L497.52,221.59L497.65,92.82L497.78,145.63L497.79,181.28L498.03,242.09L498.06,80.96L498.53,126.46L498.54,120.19L499.04,94.75L499.25,200.46L499.3,170.48L499.31,179.83L499.79,212.92L500.04,111.39L500.06,148.6L500.08,166.94L500.19,200.66L500.27,113.83L500.81,131.22L500.83,142.85L501.36,237.28L501.38,78.42L501.43,138.9L501.44,85.95L501.52,262.76L501.67,81.17L502.19,162.36L502.2,117.39L502.46,104.41L502.69,209.32L502.95,182.86L502.96,179.12L503.5,234.18L503.52,97.28L503.72,147.6L503.73,153.03L503.93,100.65L504.06,206.19L504.48,130.12L504.49,154.89L504.72,230L504.78,106.71L504.85,141.11L504.86,117.83L505.14,66.22L505.38,250.85L505.62,153.89L505.63,160.83L505.97,194.9L506.32,94.35L506.37,147.51L506.38,166.12L506.89,81.84L506.92,195.97L507.03,171.73L507.04,191.71L507.34,211.03L507.59,105.3L507.81,110.7L507.82,163.38L508.25,206.31L508.47,96.92L508.56,155.25L508.57,115.9L508.7,228.06L508.79,73.04L509.32,159.96L509.33,156L509.73,218.06L509.82,113.85L510.02,129.93L510.03,126.05L510.56,218.91L510.59,79.07L510.78,152.77L510.79,125.38L510.8,124.81L510.81,149.31L510.83,190.97L510.94,191.08L511.23,118.76L511.58,186.42L511.59,188.13L512.24,202.91L512.32,91.17L512.33,167.29L512.34,192.13L512.35,220.33L512.96,87.88L513.05,150.61L513.07,135.41L513.17,113.79L513.78,213.53L513.81,136.33L513.82,115.1L513.83,104.29L514.43,234.97L514.54,130.1L514.56,164.37L515.22,208.93L515.25,104.02L515.28,131.86L515.3,129.39L515.5,206.94L515.76,65.23L516.06,183.49L516.07,159.13L516.33,230.17L516.82,79.99L516.83,131.14L517.47,101.28L517.55,223.35L517.57,139.83L517.58,109.17L517.65,199.58L518.34,188.92L518.36,147.71L518.99,219.68L519.06,97.16L519.08,165.62L519.09,200.46L519.63,222.57L519.82,91.58L519.83,155.8L519.85,226.39L520.04,94.57L520.61,148.16L520.62,165.69L520.69,138.5L520.71,233.93L520.73,151.78L520.74,129.61L520.78,94.76L521.45,210.76L521.5,159.2L521.51,155.33L521.63,108.01L522.03,205.87L522.25,150.26L522.26,99.99L522.69,95.44L522.85,209.78L523,134.41L523.01,91.19L523.27,54.5L523.51,261.65L523.77,208.4L523.78,177.1L524.3,206.63L524.48,65.94L524.53,117.06L524.54,157.07L524.58,205.94L524.91,88.98L525.27,162.94L525.28,154.47L525.4,204.38L525.74,86.18L526.02,162.94L526.03,193.02L526.53,204.46L526.81,73.32L526.82,153.47L527.22,75.71L527.31,232.33L527.57,212.09L527.58,152.02L527.68,92.66L527.83,227.16L528.33,130.98L528.34,156.21L528.35,188.51L528.7,105.04L529.09,158.79L529.11,140.53L529.26,91.95L529.66,239.74L529.86,149L529.87,127.81L530.36,62.94L530.45,230.38L530.61,215.56L530.62,125.19L531.21,81.33L531.28,208.3L531.37,114.2L531.38,175.47L531.49,191.85L531.79,107.11L531.94,139.94L531.95,171.88L532.1,109.25L532.12,195.87L532.35,163.59L532.36,123.2L532.49,208.63L532.56,114.48L533.12,167.86L533.13,170.23L533.21,117.75L533.48,196.79L533.89,129.41L533.91,127.28L534.2,233.36L534.43,77.18L534.66,178.91L534.67,157.16L534.7,90.88L534.82,229.46L535.41,156.22L535.42,148.03L535.73,104.76L535.93,201.41L536.16,139.94L536.17,121.49L536.52,208.63L536.81,98.53L536.9,132.55L536.91,150.91L537.17,199.72L537.34,64.64L537.67,176.89L537.68,103.19L537.69,80.59L537.93,248.02L538.39,186.58L538.4,194.11L538.41,194.79L538.42,112.54L538.82,102.25L539.06,231.25L539.18,166.58L539.19,137.74L539.23,103.85L539.65,217.24L539.87,164.61L539.88,178.62L540.16,202.31L540.59,96.85L540.62,173.55L540.63,187.08L541.2,98.31L541.28,235.88L541.37,193.61L541.38,225.57L541.61,99.73L542.13,119.82L542.14,150.65L542.47,94.39L542.88,240.01L542.89,120.13L542.95,45.47L543.41,204.33L543.59,116.27L543.6,107.29L543.62,200.15L544.35,134.84L544.36,112.86L544.37,95.48L544.97,197.62L545.05,144.15L545.06,229.71L545.1,77.96L545.83,109.46L545.84,118.62L546.02,72.73L546.57,244.46L546.59,169.98L546.6,162.58L546.63,65.51L546.91,230.34L547.28,139.89L547.29,184.37L547.34,105.92L547.78,205.35L548.04,160.32L548.06,201.9L548.76,70.06L548.82,124.27L548.83,156.69L548.97,92.63L549.36,223.29L549.57,203L549.58,145.7L549.6,91.49L550.25,200.35L550.3,118.32L550.31,117.98L550.6,88.98L550.76,216.08L551.08,196.98L551.09,130.17L551.1,109.68L551.17,237.14L551.81,188.56L551.82,214.01L552.42,101.24L552.58,151.84L552.59,168.24L552.79,74.83L552.97,223.43L553.22,136.65L553.23,226.2L553.94,92.08L553.99,145.56L554.01,136.01L554.38,98.71L554.47,231.48L554.76,145.68L554.77,146.99L554.93,213.02L555.18,93.77L555.47,158.62L555.48,123.9L555.75,76.63L556.13,234.71L556.23,138.46L556.25,140.32L556.34,203.78L556.72,94.47L557,149.51L557.01,151.95L557.42,219.11L557.49,92.86L557.76,144.53L557.77,147.04L558.03,110.36L558.07,210.69L558.49,147.49L558.5,170.71L558.67,204.13L558.77,88.8L559.25,141.03L559.26,151.44L559.52,210.06L559.86,90.33L559.99,160.75L560,138.52L560.19,90.76L560.22,208.01L560.74,134.23L560.75,130.76L560.82,204.95L561.21,98.42L561.52,171.48L561.54,141.96L561.63,205.41L561.81,109L562.25,147.86L562.26,124.08L562.87,115.92L562.93,226.01L562.99,137.28L563,114.79L563.01,98.32L563.25,209.36L563.73,142.95L563.74,157.3L563.77,130.56L563.84,187.04L563.97,148.74L563.98,134.94L564.12,100.34L564.37,226.24L564.71,156.98L564.72,166.96L564.73,217.16L565.13,81.32L565.46,149.94L565.47,108.53L565.55,214.62L566.04,108.52L566.23,153.54L566.24,126.56L566.65,78.96L566.69,211.23L566.98,151.54L567,114.51L567.05,92.28L567.08,231.42L567.74,126.85L567.75,124.85L568.09,101.86L568.3,220.27L568.5,143.48L568.51,136.69L568.85,201.41L569.08,94.82L569.27,162.3L569.28,140.92L569.32,221.74L569.34,99.58L570.03,188.72L570.04,190.12L570.59,219.19L570.67,76.17L570.82,119.72L570.83,140.9L571.43,201.71L571.56,101.03L571.58,158.99L571.59,149.77L572.18,200.31L572.21,107.08L572.33,169.17L572.34,177.32L572.67,96.09L573,195.24L573.02,161.94L573.04,146.42L573.5,217.71L573.6,96.71L573.78,143.58L573.79,136.89L573.93,91.87L574.01,219.42L574.54,190.45L574.55,180.73L574.75,217.85L575.08,99.81L575.3,128.25L575.31,154.9L575.39,200.71L575.77,86.75L576.05,156.96L576.06,186.98L576.23,108.28L576.55,194.95L576.82,114L576.84,171.32L576.98,209.24L577.26,92.5L577.51,165.44L577.52,102.38L577.69,227.44L577.77,93.47L578.28,157.85L578.29,147.84L578.31,218.25L578.5,81.94L578.89,149.34L578.91,194.25L578.94,96.79L578.95,204.3L579.67,126.17L579.68,124.13L580.23,216.34L580.24,105.89L580.44,182.56L580.45,157.4L580.79,100.76L581.07,216.74L581.17,172.56L581.18,85.2L581.79,230.43L581.85,144.28L581.86,128.23L581.95,111.73L582.2,193.48L582.36,124.35L582.37,181.01L582.47,96.52L582.86,219.05L583.14,128.41L583.15,169.55L583.24,82.01L583.38,219.89L583.9,135.44L583.91,177.18L584.07,109.99L584.14,211.29L584.66,168.9L584.67,165.6L584.8,207.48L585.3,89.3L585.41,171.77L585.42,171.53L585.84,203.67L586.13,109.28L586.15,159.26L586.16,193.41L586.25,213.15L586.86,107.95L586.91,184.63L586.93,147.25L586.96,212.58L587.53,96.56L587.66,145.48L587.68,172.32L588.1,99.47L588.22,208.05L588.37,193.09L588.38,122L588.73,220.1L588.97,84.33L589.11,173.43L589.12,106L589.2,210.99L589.47,62.28L589.87,180.07L589.88,124.84L590.02,244.25L590.13,105.27L590.64,173.23L590.66,173.92L590.82,115.64L591.09,215.32L591.41,139.25L591.42,151.45L591.59,200.08L592.01,98.59L592.13,180.9L592.15,186.3L592.21,237.79L592.86,85.95L592.91,139.35L592.92,173.79L592.98,208.34L593,116.26L593.52,138.53L593.53,123.9L593.56,214.35L593.95,106.79L594.28,159.25L594.3,130.75L594.92,254.05L594.99,85.1L595.06,171.23L595.07,140.19L595.5,188.08L595.6,102.86L595.65,170.11L595.66,215.3L595.67,214.64L595.68,154.92L595.73,216.86L596.15,59.72L596.4,135.61L596.41,151.59L596.76,90.07L597.03,215.03L597.12,149.48L597.13,125.59L597.28,102.81L597.55,208.41L597.89,179.02L597.9,150.41L598.02,88.51L598.08,223.82L598.63,148.72L598.64,199.03L599.09,225.68L599.12,102.94L599.29,148.98L599.3,121.89L599.44,89.78L599.55,213.47L600.04,93.7L600.05,103.28L600.14,202.63L600.52,98.38L600.8,148.9L600.81,129.11L601.34,40.37L601.35,213.09L601.54,171.83L601.55,129.34L601.77,100.92L601.93,234.82L602.29,157.13L602.3,126.54L602.95,197.74L603.03,87.41L603.04,154.61L603.15,229.06L603.56,103.6L603.78,151.29L603.79,146.45L603.84,203.36L603.85,130.59L603.89,148.71L603.93,125.7L603.94,193.12L604.01,102.58L604.37,239.52L604.69,162.41L604.7,184.8L604.73,81.13L604.81,211.51L605.36,165.87L605.38,222.98L605.44,88.77L606.13,137.14L606.14,189.9L606.48,88.82L606.56,226.95L606.87,159.16L606.88,106.43L607,98.78L607.49,204.66L607.64,145.09L607.65,117.27L608.04,95.99L608.34,213.02L608.39,182.73L608.4,104.18L608.53,217.62L609.15,131.89L609.16,115.71L609.27,89.17L609.64,193.39L609.91,158.88L609.93,135.7L610.02,91.42L610.24,223.06L610.55,159.66L610.56,185.59L610.61,89.12L611.11,234.19L611.15,153.32L611.17,121.94L611.25,208.65L611.37,106.82L611.8,161.18L611.81,130.01L612.02,89.08L612.21,217.9L612.5,169.23L612.51,93.78L612.81,246.48L613.26,131.19L613.27,147.62L613.37,85.05L614.02,213.41L614.03,137.3L614.36,217.52L614.58,98.96L614.62,117.23L614.63,185.74L615.34,209.51L615.36,73.85L615.42,115.69L615.43,164.41L615.93,103.49L616,200.69L616.18,154.23L616.19,133.26L616.5,75.75L616.83,203.53L616.94,176.48L616.96,137.32L617.26,212.91L617.4,90.28L617.67,128.84L617.68,182.91L618.07,75.6L618.14,225.78L618.43,140.83L618.45,186.23L618.78,80.92L618.97,256.61L619.19,190.33L619.2,124.73L619.41,100.36L619.92,222.34L619.94,124.57L619.95,123.58L620.16,77.48L620.66,215.97L620.68,151.41L620.69,169.97L621.16,95.76L621.23,227.76L621.4,171.21L621.41,209.74L621.55,212.75L621.69,94.83L622.18,102.11L622.19,193.86L622.52,74.88L622.65,203L622.94,158.14L622.95,190.96L623.22,213.5L623.31,111.58L623.68,153.52L623.69,178.57L623.85,219.67L623.87,74.56L624.39,151.12L624.41,139.28L624.59,97.28L624.63,235.15L625.15,140.04L625.16,124.48L625.17,123.38L625.18,152.16L625.19,212.4L625.43,105.3L625.87,169.97L625.89,187.52L626.17,92.12L626.29,228.19L626.62,138.6L626.64,185.26L626.78,199.26L626.81,78.81L627.24,170.89L627.25,199.61L627.82,218.72L627.89,74.37L627.99,199.14L628,213.05L628.58,233.18L628.68,90.33L628.72,196.91L628.73,156.76L629.09,85.14L629.2,208.29L629.46,164.51L629.47,171.7L629.65,202.86L629.75,95.56L630.22,120.41L630.23,154.79L630.32,214.77L630.76,94.88L630.97,131.68L630.98,147.59L631.3,222.78L631.53,80.09L631.71,147.36L631.72,113.73L631.79,221.25L632.12,98.43L632.47,196.35L632.48,169.91L632.85,207.97L632.93,96.96L633.22,165L633.23,188.33L633.46,96.87L633.89,196.96L633.98,148.39L634,163.3L634.09,205.17L634.2,97.04L634.75,103.57L634.76,151.1L635.12,194.76L635.14,79.71L635.49,181.64L635.5,103.4L635.9,256.63L635.92,65.12L636.25,138.95L636.26,148.44L636.4,90.36L636.93,206.01L637.01,143.55L637.02,175.58L637.14,213.03L637.16,120.9L637.17,94.29L637.87,201.57L637.93,169.26L637.94,137.52L637.98,102.29L638.35,241.26L638.68,125.38L638.69,124.68L638.92,229.22L639.07,80.87L639.44,133.01L639.46,96.64L639.57,214.81L640.02,84.66L640.21,198.02L640.22,138.6L640.41,93.36L640.73,226.4L640.97,137.36L640.98,139.69L641.08,108.38L641.13,210.59L641.61,184.36L641.62,130.93L641.66,196.76L641.75,121.52L641.86,137.42L641.87,111.45L642.28,107.14L642.44,199.28L642.62,167.17L642.63,160.73L643.13,230.03L643.2,80.29L643.36,185.15L643.37,144.65L643.49,226.84L643.62,78.17L644.12,198.37L644.13,158.47L644.19,220.81L644.21,72.17L644.49,146.4L644.51,176.7L645,63.5L645.14,199.88L645.25,181.88L645.26,185.38L645.63,97.3L645.93,238.37L646.03,124.73L646.04,112.3L646.05,87.69L646.21,235.77L646.77,157.35L646.78,164.83L646.84,213.84L647.45,80.91L647.53,174.13L647.54,127.53L647.86,83.36L647.88,219.14L648.28,103.93L648.29,145.75L648.76,89.66L648.89,207.53L649.01,143.35L649.02,104.2L649.42,243.43L649.53,85.39L649.76,209.52L649.77,128.46L650.32,213.05L650.43,80.59L650.49,182.8L650.5,184.26L650.92,86.65L650.94,220.5L651.24,138.2L651.25,184.56L651.98,217.99L652,95.95L652.01,137.14L652.66,69.87L652.75,212.31L652.78,200.18L652.79,111.82L653.03,225.48L653.15,99.24L653.55,167.26L653.56,112.31L653.64,77.54L653.75,260.59L654.31,218.68L654.32,114.61L654.74,85.01L655.01,207.65L655.07,155.04L655.09,137.73L655.21,221.47L655.23,84.74L655.82,150.6L655.84,150.44L655.85,151.02L655.87,112.12L655.88,172.16L656.22,220.26L656.27,101.55L656.36,174.23L656.37,105.62L656.63,235.53L657.04,65.14L657.13,170.31L657.14,156.07L657.79,64.93L657.82,215.04L657.83,162.63L657.84,61.97L657.86,258.41L658.58,175.47L658.59,144.32L658.84,92.34L658.99,231.71L659.32,125.89L659.33,164.21L659.34,164.63L659.36,142.13L659.37,174.62L659.73,93.16L660.1,227.05L660.12,164.44L660.14,173.45L660.65,206.18L660.73,80.43L660.9,102.23L660.91,136.45L660.94,50.38L660.97,221.04L661.66,155.36L661.67,122.7L662.01,85.1L662.17,219.49L662.42,185.01L662.43,146.13L662.93,217.21L663.05,85.67L663.17,158.08L663.18,83.32L663.72,216.59L663.93,161.93L663.95,150.96L664.04,221.58L664.42,58.74L664.52,131.02L664.53,208.05L664.74,237.2L665.03,82.42L665.32,136.39L665.33,186.28L665.35,187.31L665.36,142.38L665.38,249.96L665.85,82.42L666.07,179.28L666.08,142.92L666.2,215.15L666.3,74.52L666.84,190.92L666.85,165.29L667.27,212.94L667.32,76.09L667.6,170.09L667.61,111.05L668.21,78.04L668.28,229.99L668.29,140.12L668.3,112.62L668.85,80.37L668.92,214.29L669.05,151.63L669.07,163.67L669.09,100.02L669.37,233.3L669.74,172.76L669.75,75.01L670.1,250.19L670.52,192.66L670.53,200.82L671.1,218.66L671.12,82.75L671.27,182.63L671.28,202.93L671.4,89.71L671.49,212.3L672.05,89.85L672.06,132.36L672.57,73.31L672.73,212.86L672.82,169.11L672.83,154.77L673.31,222.66L673.35,95.04L673.58,143.44L673.59,157.29L673.92,237.64L674.35,70.06L674.37,136.99L674.45,229.86L674.66,74.33L675.09,158.24L675.11,158.12L675.15,84.36L675.8,210.49L675.83,93.34L675.84,226.1L675.89,233.22L676,75.89L676.49,147.45L676.5,190.79L676.56,93.75L676.65,220.6L677.24,144.75L677.26,171.91L677.33,209.05L677.89,81.97L678.01,153.52L678.02,201.9L678.32,204.49L678.76,90.96L678.77,172.17L678.78,167.8L679.11,108.36L679.26,216.31L679.54,148.21L679.55,153.19L679.87,218.78L680.12,85.87L680.29,167.91L680.3,119.52L680.41,72.52L680.77,223.75L681.05,157.2L681.07,131.51L681.11,221.17L681.78,88.29L681.82,143.44L681.83,133.86L682.06,64.17L682.12,221.33L682.58,169.74L682.59,138.49L682.7,227.23L683.07,109.85L683.36,170.12L683.38,117.39L683.41,93.85L683.56,227.36L684.13,124.96L684.14,106.41L684.52,209.93L684.55,95.31L684.89,170L684.9,143.19L685.22,247.53L685.45,88.04L685.64,171.81L685.65,115.53L686.34,74.53L686.44,211.85L686.45,151.73L686.78,84.67L686.99,200.07L687.17,123.92L687.19,177.82L687.2,241.11L687.25,100.24L687.93,152.47L687.94,162.84L688.15,101L688.24,245.75L688.64,131.74L688.65,119.03L688.98,105.4L689.21,226.46L689.36,133.54L689.37,82.47L689.79,213.03L690.12,190.81L690.13,164.36L690.14,86.34L690.34,226.27L690.87,151.75L690.88,182.77L690.91,172.18L690.92,173.06L690.93,155.04L691.17,199.2L691.26,69.76L691.67,179.28L691.68,195.92L692.25,223.39L692.27,66.17L692.43,140.87L692.44,146.63L692.9,200.2L692.96,86.39L693.15,139.82L693.16,120.37L693.21,104.59L693.31,212.3L693.92,188.96L693.93,169.71L694.42,106.58L694.45,213.1L694.56,166.24L694.57,97.49L694.68,87.01L694.81,211.47L695.33,182.04L695.34,186.35L695.64,68.01L696.07,247.36L696.09,163.79L696.1,158.17L696.33,69.63L696.58,218.59L696.84,170.19L696.85,153.68L696.9,85.6L697.29,224.33L697.5,135.11L697.51,168.02L697.59,210.94L697.89,83.83L698.25,143.17L698.27,169.91L698.45,79.56L698.85,223.73L699,174L699.02,126.77L699.35,211.68L699.58,74.16L699.74,175.42L699.76,155.18L700.13,232.85L700.38,84.47L700.44,126.71L700.45,207.09L700.57,108.41L701.14,141.44L701.15,185.39L701.17,183.93L701.18,94.89L701.42,87.6L701.59,192.51L701.94,144.46L701.95,116.34L702.08,90.7L702.26,197.68L702.7,149.86L702.71,166.57L702.74,89.61L702.87,208.67L703.46,134.63L703.48,159.53L703.74,92.37L703.78,218.26L704.21,132.55L704.23,185.26L704.24,184.87L704.25,135.34L704.4,221.1L704.46,66.8L704.99,143.61L705,181.84L705.48,212.8L705.56,80.26L705.75,160.01L705.76,170.57L705.81,226.63L705.88,93.7L706.54,106.83L706.55,113.98L707.04,97.77L707.29,221.28L707.31,199.29L707.32,108.78L707.56,96.86L707.92,207.42L708.09,185.43L708.1,148.03L708.16,97.06L708.38,213.36L708.82,149.94L708.83,102.87L708.96,206.97L709.13,90.4L709.49,200.53L709.5,232.43L710.19,95.81L710.27,127.75L710.28,147.11L710.32,95.84L710.71,221.68L710.91,130.34L710.93,136.8L711.23,93.84L711.46,204.14L711.62,172.36L711.63,90.59L711.89,205.28L711.92,87.52L712.4,158.72L712.42,177.4L712.62,115.61L712.81,187.17L712.91,172.34L712.92,100.31L713.08,204.62L713.38,66.07L713.67,160.58L713.68,120.45L713.79,91.87L714.44,220.26L714.45,174.69L714.46,150.13L714.67,203.14L715.06,107.27L715.15,156.31L715.16,190.71L715.24,87L715.83,195.26L715.91,186.44L715.92,165.09L716.51,99.98L716.53,206.93L716.67,116.68L716.68,161.39L717.32,205.08L717.39,71.87L717.42,184.3L717.43,154.48L717.53,111.47L717.81,210.87L717.92,165.67L717.93,206.09L717.97,87.41L718.34,226.97L718.67,153.22L718.68,169L718.95,218.64L719.22,91.2L719.39,158.26L719.4,116.58L719.59,222.14L719.87,96.89L720.15,172.27L720.16,123.07L720.47,208.21L720.89,86.21L720.91,160.95L720.92,149.41L721.14,208.42L721.43,113.94L721.65,146.31L721.66,121.36L721.68,119.59L721.76,165.38L721.77,156.41L721.78,191.97L721.88,241.06L722.21,91.48L722.54,151.75L722.55,163.76L722.72,100.72L723.2,229.15L723.29,134.46L723.3,134.23L723.36,87.68L723.94,203.71L724.01,167.89L724.02,85.51L724.04,204.84L724.77,187.39L724.78,134.34L725.09,229.85L725.26,113.27L725.38,164.61L725.4,120.34L725.96,99.06L726.16,204.38L726.18,172.77L726.19,117.89L726.25,95.07L726.75,222.02L726.95,155.18L726.96,147.14L727.03,221.11L727.04,140.13L727.06,96.95L727.27,91.61L727.77,201.07L727.81,119.85L727.82,128.98L727.99,198.3L728,157.71" style="vector-effect: non-scaling-stroke; fill: none; stroke: rgb(148, 103, 189); stroke-opacity: 1; stroke-width: 2px; opacity: 1;"/></g><g class="points"/><g class="text"/></g></g></g><g class="overplot"/><path class="xlines-above crisp" d="" style="fill: none; stroke-width: 1px; stroke: rgb(0, 0, 0); stroke-opacity: 0;"/><path class="ylines-above crisp" d="" style="fill: none; stroke-width: 1px; stroke: rgb(0, 0, 0); stroke-opacity: 0;"/><g class="overlines-above"/><g class="xaxislayer-above"><path class="xtick ticks crisp" d="M0,421v5" transform="translate(80,0)" style="stroke: rgb(51, 51, 51); stroke-opacity: 1; stroke-width: 1px;"/><path class="xtick ticks crisp" d="M0,421v5" transform="translate(171,0)" style="stroke: rgb(51, 51, 51); stroke-opacity: 1; stroke-width: 1px;"/><path class="xtick ticks crisp" d="M0,421v5" transform="translate(262,0)" style="stroke: rgb(51, 51, 51); stroke-opacity: 1; stroke-width: 1px;"/><path class="xtick ticks crisp" d="M0,421v5" transform="translate(353,0)" style="stroke: rgb(51, 51, 51); stroke-opacity: 1; stroke-width: 1px;"/><path class="xtick ticks crisp" d="M0,421v5" transform="translate(444.01,0)" style="stroke: rgb(51, 51, 51); stroke-opacity: 1; stroke-width: 1px;"/><path class="xtick ticks crisp" d="M0,421v5" transform="translate(535.01,0)" style="stroke: rgb(51, 51, 51); stroke-opacity: 1; stroke-width: 1px;"/><path class="xtick ticks crisp" d="M0,421v5" transform="translate(626.01,0)" style="stroke: rgb(51, 51, 51); stroke-opacity: 1; stroke-width: 1px;"/><path class="xtick ticks crisp" d="M0,421v5" transform="translate(717.01,0)" style="stroke: rgb(51, 51, 51); stroke-opacity: 1; stroke-width: 1px;"/><path class="xtick ticks crisp" d="M0,421v5" transform="translate(808.01,0)" style="stroke: rgb(51, 51, 51); stroke-opacity: 1; stroke-width: 1px;"/><g class="xtick"><text text-anchor="middle" x="0" y="446.4" transform="translate(80,0)" style="font-family: 'Open Sans', verdana, arial, sans-serif; font-size: 17px; fill: rgb(51, 51, 51); fill-opacity: 1; white-space: pre;">0</text></g><g class="xtick"><text text-anchor="middle" x="0" y="446.4" transform="translate(171,0)" style="font-family: 'Open Sans', verdana, arial, sans-serif; font-size: 17px; fill: rgb(51, 51, 51); fill-opacity: 1; white-space: pre;">500</text></g><g class="xtick"><text text-anchor="middle" x="0" y="446.4" transform="translate(262,0)" style="font-family: 'Open Sans', verdana, arial, sans-serif; font-size: 17px; fill: rgb(51, 51, 51); fill-opacity: 1; white-space: pre;">1000</text></g><g class="xtick"><text text-anchor="middle" x="0" y="446.4" transform="translate(353,0)" style="font-family: 'Open Sans', verdana, arial, sans-serif; font-size: 17px; fill: rgb(51, 51, 51); fill-opacity: 1; white-space: pre;">1500</text></g><g class="xtick"><text text-anchor="middle" x="0" y="446.4" transform="translate(444.01,0)" style="font-family: 'Open Sans', verdana, arial, sans-serif; font-size: 17px; fill: rgb(51, 51, 51); fill-opacity: 1; white-space: pre;">2000</text></g><g class="xtick"><text text-anchor="middle" x="0" y="446.4" transform="translate(535.01,0)" style="font-family: 'Open Sans', verdana, arial, sans-serif; font-size: 17px; fill: rgb(51, 51, 51); fill-opacity: 1; white-space: pre;">2500</text></g><g class="xtick"><text text-anchor="middle" x="0" y="446.4" transform="translate(626.01,0)" style="font-family: 'Open Sans', verdana, arial, sans-serif; font-size: 17px; fill: rgb(51, 51, 51); fill-opacity: 1; white-space: pre;">3000</text></g><g class="xtick"><text text-anchor="middle" x="0" y="446.4" transform="translate(717.01,0)" style="font-family: 'Open Sans', verdana, arial, sans-serif; font-size: 17px; fill: rgb(51, 51, 51); fill-opacity: 1; white-space: pre;">3500</text></g><g class="xtick"><text text-anchor="middle" x="0" y="446.4" transform="translate(808.01,0)" style="font-family: 'Open Sans', verdana, arial, sans-serif; font-size: 17px; fill: rgb(51, 51, 51); fill-opacity: 1; white-space: pre;">4000</text></g></g><g class="yaxislayer-above"><path class="ytick ticks crisp" d="M79,0h-5" transform="translate(0,375.2)" style="stroke: rgb(51, 51, 51); stroke-opacity: 1; stroke-width: 1px;"/><path class="ytick ticks crisp" d="M79,0h-5" transform="translate(0,317.59000000000003)" style="stroke: rgb(51, 51, 51); stroke-opacity: 1; stroke-width: 1px;"/><path class="ytick ticks crisp" d="M79,0h-5" transform="translate(0,259.99)" style="stroke: rgb(51, 51, 51); stroke-opacity: 1; stroke-width: 1px;"/><path class="ytick ticks crisp" d="M79,0h-5" transform="translate(0,202.38)" style="stroke: rgb(51, 51, 51); stroke-opacity: 1; stroke-width: 1px;"/><path class="ytick ticks crisp" d="M79,0h-5" transform="translate(0,144.78)" style="stroke: rgb(51, 51, 51); stroke-opacity: 1; stroke-width: 1px;"/><g class="ytick"><text text-anchor="end" x="70.6" y="5.949999999999999" transform="translate(0,375.2)" style="font-family: 'Open Sans', verdana, arial, sans-serif; font-size: 17px; fill: rgb(51, 51, 51); fill-opacity: 1; white-space: pre;">0.4</text></g><g class="ytick"><text text-anchor="end" x="70.6" y="5.949999999999999" transform="translate(0,317.59000000000003)" style="font-family: 'Open Sans', verdana, arial, sans-serif; font-size: 17px; fill: rgb(51, 51, 51); fill-opacity: 1; white-space: pre;">0.2</text></g><g class="ytick"><text text-anchor="end" x="70.6" y="5.949999999999999" transform="translate(0,259.99)" style="font-family: 'Open Sans', verdana, arial, sans-serif; font-size: 17px; fill: rgb(51, 51, 51); fill-opacity: 1; white-space: pre;">0</text></g><g class="ytick"><text text-anchor="end" x="70.6" y="5.949999999999999" transform="translate(0,202.38)" style="font-family: 'Open Sans', verdana, arial, sans-serif; font-size: 17px; fill: rgb(51, 51, 51); fill-opacity: 1; white-space: pre;">0.2</text></g><g class="ytick"><text text-anchor="end" x="70.6" y="5.949999999999999" transform="translate(0,144.78)" style="font-family: 'Open Sans', verdana, arial, sans-serif; font-size: 17px; fill: rgb(51, 51, 51); fill-opacity: 1; white-space: pre;">0.4</text></g></g><g class="overaxes-above"/></g></g><g class="polarlayer"/><g class="ternarylayer"/><g class="geolayer"/><g class="pielayer"/><g class="sunburstlayer"/><g class="glimages"/><defs id="topdefs-388483"><g class="clips"/><clipPath id="legend388483"><rect width="145" height="36" x="0" y="0"/></clipPath></defs><g class="layer-above"><g class="imagelayer"/><g class="shapelayer"/></g><g class="infolayer"><g class="legend" pointer-events="all" transform="translate(822.5600000000001, 100)"><rect class="bg" shape-rendering="crispEdges" style="stroke: rgb(68, 68, 68); stroke-opacity: 1; fill: rgb(255, 255, 255); fill-opacity: 1; stroke-width: 0px;" width="145" height="36" x="0" y="0"/><g class="scrollbox" transform="translate(0, 0)" clip-path="url('#legend388483')"><g class="groups" transform="translate(0, 0)"><g class="traces" transform="translate(0, 17.55)" style="opacity: 1;"><text class="legendtext user-select-none" text-anchor="start" x="40" y="6.63" style="font-family: 'Open Sans', verdana, arial, sans-serif; font-size: 17px; fill: rgb(51, 51, 51); fill-opacity: 1; white-space: pre;">class=drilling</text><g class="layers" style="opacity: 1;"><g class="legendfill"/><g class="legendlines"><path class="js-line" d="M5,0h30" style="fill: none; stroke: rgb(148, 103, 189); stroke-opacity: 1; stroke-width: 2px;"/></g><g class="legendsymbols"><g class="legendpoints"/></g></g><rect class="legendtoggle" pointer-events="all" x="0" y="-12.55" width="185" height="25.1" style="cursor: pointer; fill: rgb(0, 0, 0); fill-opacity: 0;"/></g></g></g><rect class="scrollbar" rx="20" ry="3" width="0" height="0" style="fill: rgb(128, 139, 164); fill-opacity: 1;" x="0" y="0"/></g><g class="g-gtitle"><text class="gtitle" x="490" y="50" text-anchor="middle" dy="0em" style="font-family: 'Open Sans', verdana, arial, sans-serif; font-size: 24px; fill: rgb(51, 51, 51); opacity: 1; font-weight: normal; white-space: pre;">audio wave (time vs amplitude)</text></g><g class="g-xtitle"><text class="xtitle" x="444" y="490" text-anchor="middle" style="font-family: 'Open Sans', verdana, arial, sans-serif; font-size: 20px; fill: rgb(51, 51, 51); opacity: 1; font-weight: normal; white-space: pre;">time(ms)</text></g><g class="g-ytitle"><text class="ytitle" transform="rotate(-90,30,260)" x="30" y="260" text-anchor="middle" style="font-family: 'Open Sans', verdana, arial, sans-serif; font-size: 20px; fill: rgb(51, 51, 51); opacity: 1; font-weight: normal; white-space: pre;">amplitude</text></g></g></svg>