<svg class="main-svg" xmlns="http://www.w3.org/2000/svg" xmlns:xlink="http://www.w3.org/1999/xlink" width="980" height="500" viewBox="0 0 980 500"><rect x="0" y="0" width="980" height="500" style="fill: rgb(255, 255, 255); fill-opacity: 1;"/><defs id="defs-e1cdc1"><g class="clips"><clipPath id="clipe1cdc1xyplot" class="plotclip"><rect width="740" height="320"/></clipPath><clipPath class="axesclip" id="clipe1cdc1x"><rect x="80" y="0" width="740" height="500"/></clipPath><clipPath class="axesclip" id="clipe1cdc1y"><rect x="0" y="100" width="980" height="320"/></clipPath><clipPath class="axesclip" id="clipe1cdc1xy"><rect x="80" y="100" width="740" height="320"/></clipPath></g><g class="gradients"/></defs><g class="bglayer"><rect class="bg" x="80" y="100" width="740" height="320" style="fill: rgb(237, 237, 237); fill-opacity: 1; stroke-width: 0;"/></g><g class="layer-below"><g class="imagelayer"/><g class="shapelayer"/></g><g class="cartesianlayer"><g class="subplot xy"><g class="layer-subplot"><g class="shapelayer"/><g class="imagelayer"/></g><g class="gridlayer"><g class="x"><path class="xgrid crisp" transform="translate(172.5,0)" d="M0,100v320" style="stroke: rgb(255, 255, 255); stroke-opacity: 1; stroke-width: 1px;"/><path class="xgrid crisp" transform="translate(265,0)" d="M0,100v320" style="stroke: rgb(255, 255, 255); stroke-opacity: 1; stroke-width: 1px;"/><path class="xgrid crisp" transform="translate(357.5,0)" d="M0,100v320" style="stroke: rgb(255, 255, 255); stroke-opacity: 1; stroke-width: 1px;"/><path class="xgrid crisp" transform="translate(450.01,0)" d="M0,100v320" style="stroke: rgb(255, 255, 255); stroke-opacity: 1; stroke-width: 1px;"/><path class="xgrid crisp" transform="translate(542.51,0)" d="M0,100v320" style="stroke: rgb(255, 255, 255); stroke-opacity: 1; stroke-width: 1px;"/><path class="xgrid crisp" transform="translate(635.01,0)" d="M0,100v320" style="stroke: rgb(255, 255, 255); stroke-opacity: 1; stroke-width: 1px;"/><path class="xgrid crisp" transform="translate(727.51,0)" d="M0,100v320" style="stroke: rgb(255, 255, 255); stroke-opacity: 1; stroke-width: 1px;"/></g><g class="y"><path class="ygrid crisp" transform="translate(0,375.2)" d="M80,0h740" style="stroke: rgb(255, 255, 255); stroke-opacity: 1; stroke-width: 1px;"/><path class="ygrid crisp" transform="translate(0,317.59000000000003)" d="M80,0h740" style="stroke: rgb(255, 255, 255); stroke-opacity: 1; stroke-width: 1px;"/><path class="ygrid crisp" transform="translate(0,202.38)" d="M80,0h740" style="stroke: rgb(255, 255, 255); stroke-opacity: 1; stroke-width: 1px;"/><path class="ygrid crisp" transform="translate(0,144.78)" d="M80,0h740" style="stroke: rgb(255, 255, 255); stroke-opacity: 1; stroke-width: 1px;"/></g></g><g class="zerolinelayer"><path class="xzl zl crisp" transform="translate(80,0)" d="M0,100v320" style="stroke: rgb(255, 255, 255); stroke-opacity: 1; stroke-width: 1px;"/><path class="yzl zl crisp" transform="translate(0,259.99)" d="M80,0h740" style="stroke: rgb(255, 255, 255); stroke-opacity: 1; stroke-width: 1px;"/></g><path class="xlines-below"/><path class="ylines-below"/><g class="overlines-below"/><g class="xaxislayer-below"/><g class="yaxislayer-below"/><g class="overaxes-below"/><g class="plot" transform="translate(80, 100)" clip-path="url('#clipe1cdc1xyplot')"><g class="scatterlayer mlayer"><g class="trace scatter traceaac12048-421c-4d0f-bec5-2b95c16280ec" style="stroke-miterlimit: 2; opacity: 1;"><g class="fills"/><g class="errorbars"/><g class="lines"><path class="js-line" d="M0,154.1L0.36,153.7L0.5,154.7L0.76,154.36L0.77,154.34L1.18,153.86L1.65,154.17L1.67,154.18L2.81,154.37L2.82,154.85L2.94,152.69L3.41,155.5L3.54,153.92L3.55,153.88L3.73,154.61L3.99,153.47L4.3,153.88L4.31,153.85L4.6,153.73L4.74,154.23L5.1,154.01L5.11,153.96L5.23,153.98L5.52,153.66L5.86,153.89L5.87,153.94L6.38,153.63L6.41,154.91L6.42,155.79L6.53,151.1L7.03,157.78L7.08,153.98L7.09,153.37L7.15,151.29L7.32,155.75L7.84,153.5L7.85,153.53L7.98,154.97L8.15,153.1L8.56,154.2L8.57,154.23L8.64,154.51L8.82,153.46L9.32,154.19L9.33,154.15L9.5,153.9L10.08,154.12L10.09,154.42L10.23,151.48L10.74,158.09L10.82,154.49L10.83,151.84L10.85,151.08L11.02,156.11L11.53,153.18L11.54,153.52L11.64,155.23L11.85,153.17L12.33,154.44L12.34,154.53L12.46,153.59L13.14,154L13.15,154.06L13.74,153.75L13.81,155.06L13.82,156.04L13.92,151.64L14.44,158.4L14.52,154.53L14.53,152.08L14.55,150.95L15.04,156.26L15.24,153.62L15.25,154.06L15.39,155.28L15.49,153.38L15.96,154.54L15.97,154.52L16,154.76L16.15,153.83L16.68,154.26L16.7,154.28L16.9,154.4L17.18,153.95L17.47,154.04L17.48,154.2L17.63,152.07L18.15,159.15L18.21,154.68L18.22,153.6L18.26,150.8L18.74,156.42L18.97,153.34L18.99,153.44L19.03,155.43L19.25,153.17L19.75,154.72L19.76,154.58L19.86,153.19L20.55,153.72L20.56,153.86L21.06,153.43L21.08,155.26L21.09,156.47L21.21,150.69L21.31,157.1L21.74,153.67L21.75,152.77L21.9,149.98L22,158.41L22.49,153.72L22.5,152.61L22.51,152.24L22.62,155.87L23.19,153.85L23.21,154.23L23.39,154.85L23.58,153.71L23.95,154.13L23.96,154.19L24.14,154.73L24.57,153.86L24.66,154.09L24.67,153.41L24.93,159.46L25.16,149L25.36,155.76L25.37,154.18L25.5,147.17L25.67,161.01L26.12,152.69L26.13,153.8L26.17,149.97L26.29,157.31L26.89,155.93L26.91,155.11L26.94,155.75L27.45,152.65L27.63,154.8L27.65,154.32L28.05,154.85L28.35,152.75L28.36,154.14L28.37,155.84L28.49,150.05L28.87,160.76L29.06,153.72L29.07,152.75L29.16,147.54L29.35,158.68L29.82,153.62L29.83,152.62L29.85,150.7L29.96,156.66L30.56,155.09L30.57,155.27L30.63,156.05L30.72,152.48L31.25,155.34L31.27,155.58L31.95,156.14L32.02,152.38L32.03,152.77L32.04,154.53L32.51,148.39L32.58,159.16L32.76,151.03L32.77,148.63L32.78,146.7L33.18,160.78L33.49,150.84L33.5,153.77L33.58,159.57L33.68,150.58L34.28,156.92L34.29,155.34L34.54,157.93L34.77,150.04L35.06,152.39L35.07,155.09L35.67,152.11L35.77,157.42L35.81,155.71L35.82,151.33L36.18,167.71L36.28,136.44L36.39,157.24L36.4,162.86L36.79,143.53L37.17,148.18L37.19,152.98L37.25,148.32L37.34,162.45L37.93,152.6L37.94,151.73L37.97,159.79L38.54,149.51L38.7,156.6L38.71,155.78L38.82,151.22L38.89,157.22L39.45,153.76L39.46,156.97L39.57,145.86L39.66,162.57L40.18,152.61L40.19,152.32L40.25,145.23L40.3,156.26L40.37,154.36L40.38,159.53L40.39,162.67L40.48,146.86L41.12,157.57L41.13,157.06L41.22,147.1L41.81,159.42L41.9,151.24L41.91,154.79L42.02,158.92L42.09,149.2L42.56,154.09L42.57,150.46L43.19,159.15L43.26,151.14L43.27,147.09L43.38,163.72L43.42,145.66L44.02,149.81L44.03,146.15L44.11,165.47L44.17,144.55L44.45,155.06L44.46,165.98L44.94,145.86L45.24,153.64L45.26,154.15L45.48,147.81L45.73,159.15L45.96,155.02L45.97,151.29L46.15,159.74L46.48,147.36L46.72,153.64L46.74,152.9L46.9,162.74L47.4,144.37L47.5,148.78L47.51,157.75L47.52,160.8L47.68,142.51L48.25,159.03L48.26,156L48.61,147.06L48.73,160.56L49.01,151.94L49.03,154.09L49.07,148.78L49.2,161.49L49.63,151.22L49.64,157.81L49.79,163.43L50.1,144.9L50.39,150.86L50.4,157.43L50.92,163.86L51.11,145.45L51.13,156.03L51.14,162.35L51.2,145.12L51.28,162.43L51.9,153.56L51.92,151.59L51.94,162.81L52.02,146.61L52.64,157.46L52.66,154.97L53.13,161.64L53.21,145.97L53.42,149.7L53.43,155.49L53.49,146.04L53.51,160.57L54.14,154.4L54.15,157.51L54.71,163.36L54.89,147.55L54.9,148.56L54.91,159.15L55.47,163.18L55.59,145.82L55.64,153.93L55.65,154.93L55.78,162.66L55.81,142.38L56.39,156.36L56.4,157.7L56.92,161.16L56.95,148.12L57.08,154.74L57.1,157.49L57.17,148.16L57.26,159.13L57.86,148.76L57.87,155.02L57.91,149.26L58.43,161.72L58.59,155.04L58.6,149.82L58.95,163.72L59.22,144.81L59.35,155.32L59.36,152.24L59.41,162.47L59.92,149.32L60.08,156.29L60.09,151.75L60.31,161.1L60.53,148.83L60.82,153.32L60.83,152.55L61.29,160.04L61.36,144.73L61.59,159.12L61.61,158.38L62.15,148.97L62.32,159.82L62.37,151.41L62.38,154.26L62.45,161.14L62.52,144.86L63.13,153.93L63.14,153.38L63.48,159.71L63.51,148.43L63.68,157.61L63.69,160.38L63.72,148.65L64.44,155.19L64.45,155.26L64.95,159.7L64.97,149.44L65.07,154.32L65.09,157.75L65.21,158.12L65.24,150.07L65.62,155.12L65.63,158.09L66.1,149.19L66.18,158.6L66.38,155.02L66.39,154.48L66.68,148.15L66.83,158.12L67.13,154.63L67.14,155.83L67.42,159.62L67.66,147.97L67.84,155.22L67.85,153.67L68.25,158.68L68.34,148.76L68.58,152.04L68.59,156.48L68.61,147.81L68.74,159.13L69.26,153.96L69.27,151.9L69.42,148.76L69.85,158.28L70,154.19L70.01,154.1L70.41,149.47L70.76,158.91L70.78,155.44L71.13,159.14L71.21,147.11L71.53,154.74L71.54,155.01L71.69,149.47L71.8,156.69L72.17,154.65L72.19,152.43L72.5,158.89L72.58,147.99L72.91,156.19L72.93,156.12L73.48,149.73L73.54,158.95L73.68,154.37L73.69,153.75L73.79,160.53L73.86,145.75L74.43,154.71L74.44,156.46L74.74,150.57L75,157.4L75.16,154.42L75.17,153.99L75.2,159.94L75.24,145.87L75.9,153.09L75.91,151.83L75.92,149.5L76.01,158.7L76.65,153.74L76.66,152L76.74,158.58L76.82,150.36L77.32,154.58L77.33,155.31L77.74,151.42L77.81,156.74L78.07,155.75L78.08,157.29L78.44,159.6L78.46,149.44L78.63,155.56L78.64,156.57L78.76,156.61L79.24,151.06L79.4,154.63L79.41,156.83L79.56,149.93L79.87,158.78L80.13,154.02L80.14,156.68L80.15,158.69L80.23,150.21L80.87,152.73L80.88,151.38L81.01,158.65L81.04,148.94L81.64,155.59L81.66,154.17L81.99,158.71L82.07,151.1L82.4,152.91L82.41,155.75L82.49,150.62L82.88,157.22L82.99,151.65L83,151.2L83.09,156.82L83.26,149.67L83.76,155.86L83.77,151.22L83.96,160.59L83.99,146.16L84.51,152.13L84.52,154.16L84.59,157.52L84.64,149.84L85.3,151.47L85.31,153.36L85.58,159.48L85.6,147.54L86.01,149.93L86.03,149.78L86.2,158.92L86.29,148.89L86.79,154.7L86.8,157.14L87.1,159.19L87.17,149.55L87.55,156.06L87.56,157.56L88.1,150.1L88.32,152.92L88.33,152.61L88.8,157.04L89.04,149.29L89.06,153.82L89.07,156.82L89.28,157.69L89.39,150.52L89.83,154.64L89.84,156.36L90.45,157.42L90.49,148.57L90.58,155.42L90.59,156.56L90.69,149.42L90.79,157.97L91.36,152.56L91.37,153.97L91.39,151.48L91.85,157.14L92.09,153.93L92.1,156.83L92.13,150.85L92.48,158.85L92.8,155.42L92.81,155.88L92.87,152.5L93.32,156.17L93.58,154.2L93.59,156.19L94.06,156.63L94.32,151.1L94.33,154.45L94.34,157.85L94.37,151.36L94.49,158.08L95.1,153.14L95.11,155.91L95.73,152.1L95.82,159.78L95.83,158.19L95.84,152.14L95.85,149.06L96,157.21L96.59,150.87L96.61,152.16L96.81,151.09L96.91,156.32L97.38,155.87L97.39,154.87L97.75,157.83L97.99,150.04L98.13,153.01L98.14,156.1L98.56,151.61L98.73,154.6L98.75,155.73L99.15,151.93L99.38,156.39L99.49,155.8L99.5,156.77L99.59,159.77L99.66,148.04L100.25,154.94L100.26,156.89L101.03,151.6L101.05,152.61L101.68,157.46L101.72,149.43L101.8,153.79L101.81,154.05L101.99,150.33L102.03,157.85L102.46,153.28L102.47,151.56L102.5,156.17L103.24,155.22L103.25,153.73L103.83,157.17L103.87,150.11L103.97,153.85L103.98,154.96L104.06,151.8L104.45,157.17L104.67,153.46L104.68,152.53L104.71,156.27L105.24,151.99L105.39,153.68L105.41,153.5L105.78,155.68L105.96,151.77L105.97,155.1L105.98,157.19L106.03,157.23L106.06,151.03L106.74,155.7L106.75,155.84L107.05,151.41L107.35,156.24L107.5,153.97L107.51,153.73L107.79,155.66L108.23,152.3L108.24,152.55L108.31,157.37L108.33,149.87L108.99,152.7L109,152.71L109.53,156.87L109.56,152.23L109.76,154.36L109.78,153.25L109.8,156.09L109.88,152.52L110.48,153.57L110.49,154.45L110.74,150.88L111.07,156.58L111.2,153.49L111.21,151.91L111.55,155.74L111.97,154.01L111.98,154.02L112.46,156.31L112.69,152.46L112.7,151.83L113.11,156.58L113.27,151.09L113.45,153.19L113.46,153.16L113.58,157.43L113.74,149.93L113.85,155.96L113.86,157.52L114.55,159.72L114.6,149.23L114.61,154.26L114.62,158.04L114.66,146.8L115.37,153.97L115.38,153.8L115.72,151.39L115.81,156.43L116.12,154.28L116.14,153.66L116.19,151.39L116.32,156.3L116.84,153.71L116.85,152.69L117.26,156.55L117.55,150.53L117.6,152.91L117.62,153.15L117.65,158.52L118.18,148.34L118.34,155.74L118.36,155.31L118.46,148.44L118.56,157.06L118.96,153.49L118.97,155L119.08,151.48L119.25,155.66L119.62,153.94L119.63,152.07L120.19,152.02L120.22,155.58L120.38,153.74L120.39,153.36L120.54,155.74L120.9,151.38L121.14,154.38L121.15,152.94L121.44,157.47L121.55,150.11L121.88,152.88L121.89,156.2L121.99,157.09L122.18,151.16L122.56,153.55L122.58,155.44L122.61,155.75L123.1,152.17L123.27,155.13L123.28,155.98L123.36,151.48L123.65,156.15L124.04,153.59L124.06,154.64L124.68,159.01L124.73,151.64L124.76,152.85L124.77,150.17L125.07,158.7L125.11,146.06L125.54,155.24L125.55,153.27L125.78,149.52L125.81,159.9L126.16,151.63L126.17,149.92L126.29,157.99L126.92,154.07L126.94,153.79L126.96,155.99L126.99,151.97L127.68,155.21L127.69,153.23L127.93,157.87L128.4,148.78L128.42,150.71L128.43,154.71L128.89,146.72L129.05,158.25L129.16,150.56L129.17,150.71L129.27,159.98L129.31,149.32L129.93,157.22L129.94,154.48L129.96,159.07L130,149.95L130.66,154.53L130.67,150.77L130.82,157.71L131.42,154.06L131.43,153.66L131.94,160.13L131.99,147.03L132.05,147.6L132.06,146.59L132.32,169.85L132.43,140.44L132.83,153.99L132.84,150.45L132.87,145.63L133.31,162.42L133.56,149.79L133.57,156.21L133.64,160.78L133.75,148.57L134.05,154.44L134.06,151.63L134.59,158.64L134.68,147.34L134.8,152.54L134.81,154.58L134.92,158.44L135.08,150.33L135.56,156.9L135.57,151.97L135.92,174.73L136.03,136.02L136.31,150.5L136.32,152.86L136.52,139.22L136.61,169.46L136.91,150.01L136.93,141.97L136.97,165.37L137.68,159.72L137.69,157.16L138.04,146.87L138.19,164.36L138.45,151.7L138.46,158.92L138.5,146.79L138.94,164.18L139.1,148.07L139.11,144.64L139.63,170.63L139.71,141.03L139.8,155.26L139.82,161.4L140.07,168.43L140.24,126.29L140.28,163.71L140.29,172.31L140.42,124.67L140.53,176.2L140.87,156.88L140.88,145.62L141.05,168.29L141.16,136.88L141.64,158.35L141.65,155.56L141.87,170.61L142.14,145.46L142.38,154.35L142.39,159.79L142.97,176.02L143.08,131.63L143.17,150.25L143.18,160.59L143.2,175.02L143.37,135.2L143.62,155.18L143.63,137.97L143.84,130.58L143.9,172.97L144.39,153.86L144.41,150.02L144.46,137.31L144.53,164.01L144.55,174.51L145.08,138.22L145.31,159.76L145.32,162.17L145.75,168.65L145.81,138.83L145.99,158.1L146,148.42L146.52,169.91L146.73,122.73L146.74,136.21L146.75,159.92L146.93,190.65L147,115.36L147.47,149.59L147.48,147.29L147.55,126.26L147.59,172.92L148.21,157.45L148.22,160.58L148.45,133.8L148.52,167.62L148.97,150.04L148.99,154.15L149.66,170.41L149.68,136.9L149.74,156.84L149.75,159.71L150.36,178.18L150.48,132.32L150.49,134.83L150.5,162.01L150.59,178.52L151.09,134.24L151.17,141.75L151.18,129.68L151.19,119.51L151.7,173.15L151.9,155.66L151.91,164.01L152.49,135.32L152.62,173.78L152.67,158.32L152.69,157.33L152.81,173.39L153.31,132.38L153.43,149.19L153.44,167.41L153.55,173.25L154.2,130.12L154.21,159.19L154.63,179.85L154.7,109.34L154.95,161.65L154.96,152.63L155.16,131.18L155.26,179.09L155.69,139.3L155.7,132.3L155.86,173.2L156.1,130.08L156.45,157.41L156.47,153.48L156.87,171.5L156.89,134.82L157.21,160.78L157.22,157.48L157.77,130.1L157.9,172.17L157.99,136.99L158,141.5L158.15,114.79L158.22,186.12L158.74,146.3L158.76,143.65L158.81,120.44L159.25,183.11L159.51,155.34L159.52,155.75L159.55,141.69L159.59,166.04L159.61,163.75L159.62,172.58L159.65,134.26L160.37,153.87L160.39,150.72L160.42,176.95L160.83,134.95L161.11,146.18L161.13,153.19L161.73,170.04L161.8,119.63L161.85,150.74L161.87,168.86L162.09,124.85L162.51,186.73L162.63,153.34L162.64,172.63L162.93,126.45L163.4,155.03L163.42,159.31L163.61,173.41L163.85,135.1L164.18,152.08L164.19,159.04L164.71,178.27L164.73,142.23L164.75,136.96L164.79,135.82L164.92,173.51L165.49,157.42L165.5,145.34L165.76,172.68L165.88,128.74L166.21,165.52L166.23,130.97L166.68,172.87L166.76,150.06L166.77,138.7L166.88,175.29L166.9,137.67L167.55,171.54L167.57,161.59L167.94,174.77L168.11,131.51L168.32,151.87L168.33,155.8L168.7,170.7L168.73,138.76L169,152.38L169.01,136.68L169.76,183.7L169.77,169.83L169.79,144.63L169.8,135.06L170.23,178.34L170.54,144.54L170.55,163.58L170.84,177.53L170.87,129.7L171.3,157.53L171.31,160.79L171.47,170.33L171.54,133.69L172.06,152.59L172.08,144.46L172.75,174.45L172.82,133.33L172.83,147.72L172.84,154.21L173.14,131.02L173.44,176.83L173.59,165.63L173.6,140.16L173.64,173.17L173.75,135.05L174.3,153.25L174.31,153.86L174.48,135.17L174.97,170.03L175.04,152.77L175.05,166.57L175.17,174.1L175.78,133.94L175.8,158.83L175.81,160.1L176.05,170.94L176.54,133.96L176.56,159.39L176.57,161.67L176.75,135.93L176.84,170.69L177.29,161.5L177.3,166.31L177.87,167.02L177.98,136.02L178,151.92L178.01,171.19L178.04,131.42L178.34,173.8L178.69,157.22L178.7,177.4L178.72,139.01L179.46,146.57L179.48,149.09L179.7,141.43L179.73,163.78L180.24,158.52L180.25,156.17L180.66,168.55L180.86,137.13L180.88,150.25L180.89,175.26L181,137.98L181.41,152.65L181.42,166.16L181.68,136.11L182.05,172.76L182.19,152.21L182.2,160.87L182.26,166.11L182.3,143.05L182.37,147.58L182.38,127.21L182.53,172.79L182.77,123.23L183.13,159.78L183.14,151.62L183.62,135.81L183.68,171.17L183.87,151.92L183.88,134.46L183.95,173.2L184.63,149.51L184.64,150.55L184.84,132.21L184.92,176.78L185.25,161.97L185.26,139.32L185.53,169.58L185.94,133.28L186.01,153.01L186.02,138.73L186.22,136.82L186.52,169.62L186.77,145.39L186.78,149.07L187.42,130.87L187.49,173.42L187.54,159.75L187.55,160.5L187.86,126.69L187.93,174.05L188.3,157.05L188.31,161.35L188.55,142.51L188.66,175.74L189.02,171.49L189.03,146.19L189.04,132.56L189.28,166.19L189.76,156.91L189.77,164.82L190.17,171.03L190.47,139.6L190.52,153.38L190.53,164.52L190.66,165.63L190.84,140.19L191.29,146.58L191.3,156.05L191.36,142.12L191.55,164.12L191.71,151.56L191.72,144.24L191.87,144.13L191.98,170.62L192.45,156.17L192.46,145.42L192.59,138.46L192.98,173.23L193.2,150.29L193.21,140.77L193.44,173.43L193.48,136.27L193.96,155.92L193.98,147.91L194.13,174.99L194.47,124L194.67,152.94L194.68,141.59L194.78,172.25L195.35,132.25L195.43,157.68L195.44,153.24L195.55,140.03L195.72,165.62L196.17,155.44L196.18,167.07L196.25,131.42L196.63,174.77L196.91,154.91L196.92,162.64L196.98,166.91L197.17,137.41L197.68,146.9L197.69,149.54L197.79,174.52L197.81,135.85L198.31,153.06L198.32,159.84L198.4,174.66L198.62,131.67L199.05,148.51L199.06,172.31L199.31,128.74L199.79,172.71L199.83,131.54L199.84,152.88L200.14,172.05L200.28,135.33L200.49,151.35L200.5,146.68L200.74,139.26L200.82,175.23L200.92,157.63L200.94,133.05L201.27,168.37L201.71,161L201.72,152.9L201.84,167.38L202.29,137.32L202.43,154.03L202.44,145.39L203.11,172.57L203.14,131.94L203.19,151.5L203.2,148.27L203.51,171.19L203.55,134.55L203.94,154.19L203.95,142.35L204.46,137.12L204.56,168.04L204.69,152.27L204.71,150.5L204.78,170.22L205.16,139.08L205.45,155.35L205.46,150.19L205.62,169.4L205.79,140.66L206.21,152.36L206.22,144.43L206.52,171.54L206.54,131.08L206.96,143.67L206.97,132.71L207.72,170.51L207.74,145.91L208.05,136.86L208.07,167.42L208.44,156.82L208.45,161.89L208.46,141.22L208.61,172.81L209.2,154.49L209.22,154.44L209.54,135.43L209.84,169.4L209.94,159.38L209.96,144.05L210.12,170.55L210.29,138.13L210.71,150.83L210.72,148.74L211.37,136.94L211.48,175.99L211.49,154.17L211.94,142.76L212.01,170.77L212.26,147.4L212.27,150.75L212.95,164.82L212.96,133.12L213.01,146.52L213.02,137.23L213.25,136.05L213.29,175.04L213.78,162.68L213.79,150.88L214.29,166.72L214.31,135.85L214.49,137.32L214.5,137.07L214.57,167.05L215.25,159.06L215.26,153.18L215.31,171.44L215.34,140.21L216.01,147.46L216.03,145.5L216.37,173.67L216.7,139.18L216.74,148.71L216.75,155.89L216.82,132.69L216.85,173.3L217.49,153.99L217.51,159.62L218.14,135.59L218.21,166.57L218.22,137.24L218.23,136.54L218.26,167.13L218.99,153.97L219,151.64L219.44,167.89L219.51,140.39L219.76,163.87L219.77,152.86L219.78,140.51L220.36,175.57L220.51,151.77L220.52,155.66L220.85,139.6L220.87,170.66L221.22,156.76L221.23,153.09L221.25,169.22L221.75,137.32L221.98,155.11L221.99,154.59L222.03,138.25L222.14,170.95L222.76,162.38L222.77,156.62L223.01,167.91L223.1,138.54L223.51,153.57L223.52,159.23L223.6,139.06L223.7,167.74L224.28,148.89L224.29,160.41L224.42,177.89L224.44,128.79L225.04,157.82L225.06,154.03L225.37,139.89L225.4,168.96L225.77,159.72L225.78,167.69L226.19,142.62L226.52,167.66L226.54,163.57L227.14,138.89L227.21,170.43L227.3,148.7L227.31,155.73L227.51,139.16L227.65,170.1L228.04,155.51L228.05,148.83L228.11,167.18L228.13,140.74L228.8,152.32L228.81,157.06L229.11,140.42L229.43,170.67L229.46,156.59L229.47,150.04L229.57,168.02L229.59,141.42L230.21,155.5L230.22,148.24L230.24,144.02L230.88,162.38L230.9,153.1L230.91,162.79L231.3,165.08L231.48,140.9L231.65,155.08L231.66,162.44L232.04,171.25L232.24,134.75L232.33,161.59L232.34,165.51L232.41,169.82L232.98,140.82L233.03,155.28L233.05,160.43L233.64,138.25L233.68,164.83L233.77,156.26L233.79,139.23L234.28,166.22L234.32,135.63L234.54,145.19L234.55,158.32L234.79,134.78L235.22,170.97L235.28,153.81L235.29,147.57L235.45,137.9L235.92,169.26L236.01,156.87L236.02,152.06L236.04,137.89L236.48,164.89L236.68,155.29L236.69,158.6L236.79,142.99L236.93,166.62L237.46,149.08L237.47,156.22L238.06,130.81L238.1,167.9L238.14,155.98L238.16,141.15L238.17,137.07L238.61,166.53L238.86,154.74L238.87,159.01L239.42,166.28L239.53,144.99L239.62,158.03L239.64,151.31L239.9,142.05L240.08,170.08L240.41,160.97L240.42,145.79L240.61,173.73L240.68,136.74L241.11,157.46L241.12,161.25L241.17,141.35L241.69,170.28L241.88,148.96L241.89,157.37L242.01,139.72L242.23,165.23L242.63,156.68L242.64,162.83L243.12,172.26L243.14,131.42L243.39,160.24L243.41,154.27L243.54,137.98L243.58,177.2L244.03,147.52L244.04,143.89L244.39,137.38L244.63,170.35L244.79,161.94L244.81,145.9L245.28,138.42L245.31,169.23L245.49,154.38L245.5,147.14L245.7,142.18L245.89,165.42L246.25,157.71L246.26,147.17L246.72,133.12L246.75,170.11L247,151.65L247.01,146.58L247.44,168.31L247.61,141.63L247.78,155.94L247.79,156.98L248.17,167.77L248.26,138.62L248.44,153.56L248.45,142.61L248.77,165.41L249.01,141.19L249.21,156.75L249.22,149.72L249.3,140.53L249.38,169.64L249.97,154.21L249.99,151.03L250.19,144.92L250.64,165.05L250.71,148.2L250.73,155.24L251.37,142.59L251.44,170.31L251.45,164.32L251.47,143.37L251.81,163.37L252.16,140.95L252.21,156.59L252.22,141.31L252.32,166.1L252.39,132.73L252.98,162.05L252.99,157.76L253.47,136.58L253.58,164.67L253.74,154.66L253.75,157.27L254.03,139.83L254.46,165.22L254.47,166.36L254.54,148.18L254.55,133.99L254.93,166.18L255.32,160.39L255.33,158.22L255.37,170.77L255.7,140.67L256.09,151.53L256.1,162.2L256.17,131.62L256.25,169.72L256.8,151.74L256.81,158.78L257.22,169.84L257.25,137.3L257.55,156.85L257.56,162.22L257.85,170.89L257.94,136.62L258.32,145.3L258.33,164.33L258.43,141.87L258.68,169.33L258.99,148.59L259,160.33L259.35,161.84L259.41,144.53L259.73,155.28L259.74,165.51L260.43,167.93L260.46,139.6L260.5,155.04L260.51,152.18L260.75,145.21L261.02,163.87L261.15,158.55L261.17,163.84L261.52,138.18L261.7,170.48L261.91,147.22L261.92,164.95L262.59,138.09L262.61,174.96L262.66,161.72L262.67,160.15L262.79,139.96L262.82,172.3L263.42,149.13L263.43,154.03L263.46,140.53L263.94,164.93L264.14,159.35L264.15,165.6L264.65,141.18L264.81,167.38L264.9,150.04L264.91,162.23L265.59,171.73L265.63,130.74L265.68,142.65L265.69,140.26L266.06,171.11L266.09,126.86L266.45,166.02L266.46,159.89L266.66,171.32L267.21,138.05L267.23,147.22L267.46,142.44L267.55,173.97L267.98,153.67L267.99,151.43L268.46,140.58L268.65,170.05L268.75,161.79L268.76,153.72L268.81,162.3L268.82,142.79L268.91,155.47L268.92,140.72L269.23,172.22L269.29,139.59L269.34,144.67L269.35,139.84L269.9,129.73L269.93,172.49L270.1,144.07L270.12,165.17L270.13,168.52L270.54,142.24L270.82,164.67L270.83,147.33L271.27,166.8L271.32,132.48L271.54,157.41L271.55,155.31L271.61,138.3L271.72,169.36L272.3,156.8L272.31,158.27L272.73,185.01L272.88,110.19L273.03,156.49L273.04,180.03L273.11,107.01L273.79,144.5L273.8,158.03L273.82,158.26L273.83,155.97L273.84,141.49L273.91,180.16L273.94,130.32L274.58,159.72L274.59,141.48L274.81,167.12L275.3,139.6L275.34,157.38L275.35,144.54L275.45,170.99L275.98,136.72L276.09,159.93L276.11,141.93L276.68,184.55L276.72,119.97L276.79,141.23L276.8,126.74L276.95,122.91L277.37,175.7L277.56,155.73L277.57,152.97L277.75,179.52L278.06,129.9L278.07,161.89L278.08,178.03L278.27,137.3L278.85,151.83L278.86,159.78L278.91,168.73L279.11,140.42L279.61,145.03L279.62,154.24L279.77,190.43L280.27,112.2L280.34,128.68L280.35,122.11L280.48,116.55L281.05,183.67L281.11,173.11L281.12,169.7L281.18,173.36L281.64,136.02L281.89,142.6L281.9,148.05L282.48,175.87L282.55,135.43L282.66,163.72L282.67,162.18L283.32,169.41L283.36,126.8L283.37,119.49L284.05,110.01L284.12,191.82L284.13,169.27L284.14,152.47L284.27,192.31L284.29,128.23L284.86,161.76L284.87,144.46L284.89,176.44L284.93,127.07L285.54,155.92L285.55,171.05L285.71,177.52L285.95,131.74L286.25,148.8L286.26,173.93L286.59,134.92L286.66,185.14L287.02,142.36L287.03,152.96L287.11,191.04L287.63,108.73L287.73,129.76L287.74,115.34L288.18,179.23L288.51,168.19L288.52,162.91L288.7,134.44L289.06,182.44L289.26,157.19L289.28,157.89L289.38,133.23L289.75,175.81L290,171.15L290.02,169.14L290.11,179.7L290.71,123.32L290.76,159.19L290.77,167.18L291.01,191.54L291.45,116.55L291.53,152.74L291.54,152.24L291.76,179L291.98,119.11L292.15,151.09L292.17,176.15L292.2,135.43L292.82,176.47L292.86,146.94L292.87,191.49L293.46,117.48L293.61,165.9L293.62,175.6L293.66,126.25L293.91,177.4L294.32,150.35L294.33,171.35L294.52,191.11L295.07,111.84L295.08,150.73L295.09,172.83L295.17,98.77L295.55,190.92L295.85,134.72L295.87,166.98L295.88,181.49L296.36,135.84L296.61,157.36L296.62,160.12L296.78,124.01L297.29,193.44L297.36,156.3L297.37,152.81L297.92,196.16L297.98,123.74L298.1,150.98L298.11,133.81L298.65,108.15L298.79,202.04L298.85,125.41L298.86,87.29L299.17,198.29L299.62,188.42L299.64,182.38L300.21,127.31L300.4,141.17L300.41,148.19L300.42,121.87L300.46,188.21L301.16,147.57L301.17,155.04L301.36,113.17L301.75,194.56L301.89,167.28L301.9,195.04L302.41,225.09L302.47,80.95L302.65,147.67L302.66,173.03L302.72,193.06L302.78,111.68L303.4,150.31L303.42,159.23L304.13,201.28L304.17,111.09L304.18,154.85L304.39,128.64L304.55,183.67L304.92,147.77L304.93,133.48L305.17,194.51L305.62,121.18L305.68,133.72L305.69,136.83L306.19,79.13L306.23,246.35L306.35,130.85L306.36,110.23L306.64,195.11L306.68,102.8L307.13,164.71L307.14,152.83L307.32,120.58L307.84,182.42L307.87,167.27L307.88,180.24L307.89,202.71L307.91,118.25L308.61,164.96L308.62,145.09L308.86,181.52L309.04,118.13L309.32,153.6L309.34,164.11L309.81,81.47L309.85,232.4L310.08,170.95L310.09,182.73L310.2,110.92L310.33,191.56L310.84,169.63L310.85,158.46L311.28,134.33L311.36,192.29L311.41,167.85L311.42,133.93L311.78,185.45L311.98,125.97L312.18,180.71L312.19,125.49L312.38,186.77L312.96,168.65L312.97,152.82L313.6,98.26L313.64,196.52L313.73,191.42L313.74,161.03L313.96,192.87L314.01,112.74L314.48,161.48L314.49,162.49L314.83,186.52L314.85,127.23L314.9,148.18L314.91,126.59L314.92,126.35L314.93,141.42L314.94,138.2L314.96,151.63L315.11,180.54L315.14,118.83L315.71,167.78L315.72,162.27L316.2,186.05L316.23,118.29L316.46,153.54L316.47,185.39L316.97,117.95L317.06,188.9L317.23,158.65L317.25,143.5L317.42,193.35L317.65,126.83L318.02,161.9L318.03,159.96L318.14,129.03L318.73,175.2L318.75,144.01L318.76,113.39L319.44,180.68L319.51,153.75L319.52,143.21L319.71,178.67L320.12,130.19L320.15,153.29L320.16,177.11L320.3,185.31L320.43,122.81L320.91,143.88L320.92,166.63L321.15,125.04L321.35,196.04L321.64,154.83L321.65,171.64L321.69,190.55L321.94,123.08L322.19,153.93L322.21,106.21L322.3,188.14L322.97,154.63L322.98,143.59L323.17,119.77L323.33,180.21L323.77,155.42L323.78,153.14L324.4,186.12L324.43,116.26L324.52,166.54L324.53,187.53L325.12,124.02L325.33,140.86L325.34,145.05L325.62,120.82L326,193.73L326.08,144.9L326.09,113.14L326.63,178.8L326.85,167.28L326.87,152.79L327.12,118.9L327.2,186.11L327.61,152.86L327.62,180.11L327.72,130.36L328.35,181.72L328.38,153.96L328.39,156.25L328.53,185.69L329.05,121.64L329.13,155.77L329.14,144.31L329.77,183.57L329.84,126.82L329.88,137.43L329.89,143.25L330.03,118.06L330.33,180.07L330.63,159.35L330.65,152.55L330.75,183.89L331.11,116.52L331.39,166.79L331.4,144.86L331.48,117.91L331.64,181.8L332.14,141.5L332.15,139.22L332.23,113.51L332.68,194.09L332.9,144.83L332.91,144.35L333.14,132.29L333.47,171.36L333.51,158.28L333.53,178.31L333.73,191.42L334.14,117.86L334.28,163.44L334.29,179.59L334.3,192.97L334.35,120.95L335.02,164.77L335.03,154.48L335.06,136.22L335.17,176.61L335.18,197.42L335.2,105.02L335.93,152.13L335.94,150.25L336.07,188.15L336.64,109.7L336.69,126.13L336.71,165.69L336.74,186.33L336.94,124.17L337.47,157.24L337.48,157.07L337.68,186.7L338.17,128.4L338.21,155.15L338.22,140.04L338.4,123.56L338.76,187.71L338.93,160.93L338.94,131.6L339.27,128.78L339.38,180.73L339.69,157.44L339.7,128.48L339.78,181.64L339.8,120.02L340.19,172.58L340.2,188.6L340.87,116.47L340.97,136.88L340.98,161.93L341.15,122.39L341.32,199.7L341.71,170.34L341.72,144.34L341.92,194.59L341.94,118.68L342.46,142.46L342.48,128.02L342.63,115.65L343.22,189.31L343.24,179.4L343.25,146.16L343.54,128.79L343.64,179.04L343.97,138.87L343.98,169.98L344.15,122.8L344.56,191.98L344.73,145.27L344.74,175.15L344.83,126.79L344.96,184.32L345.49,147.57L345.5,164.49L345.83,206.62L346.06,107.07L346.19,170.6L346.2,146.7L346.33,117.79L346.5,185.64L346.93,168.73L346.94,143.65L347.08,186.68L347.15,123.86L347.68,149.81L347.69,142.49L347.79,117.4L348.09,183.24L348.41,151.1L348.42,145.62L348.65,118.63L348.8,189.69L349.17,139.89L349.18,158.32L349.23,140.16L349.24,147.6L349.25,181.22L349.66,184.54L349.77,124.05L349.88,158.36L349.89,192.5L350.41,106.35L350.64,141.24L350.65,169.44L350.66,182.87L351.05,120.33L351.39,169.23L351.4,155.34L351.46,109.66L351.89,185.55L352.15,128.18L352.16,160.78L352.53,185.2L352.6,120.82L352.9,163.19L352.92,152.24L353.18,188.24L353.25,112.65L353.67,174.05L353.68,146.49L353.69,112.41L354,188.13L354.43,139.28L354.44,150.58L354.58,123.11L355.16,199.63L355.19,170.07L355.21,180.54L355.23,125.37L355.84,186.48L355.97,146.03L355.98,155.52L356.05,180.08L356.08,116.35L356.49,162.25L356.5,137.53L356.97,127.36L357.22,182.84L357.23,174.47L357.24,135.98L357.82,184.26L357.9,121.98L357.95,135.42L357.96,153.54L358.06,189.76L358.13,119.36L358.72,169.4L358.73,160.27L358.76,163.73L358.77,156.16L358.78,163.19L358.79,175.43L359.17,180.17L359.24,121.49L359.54,131.55L359.55,156.62L359.63,189.73L359.7,116.4L360.1,140.96L360.11,133.66L360.29,195.04L360.36,112.86L360.77,160.65L360.78,117.81L360.95,189.86L361.53,156.76L361.54,142.22L361.69,185.57L361.91,130.07L362.31,162.91L362.32,171.97L362.72,187.82L362.79,130.92L363.08,138.38L363.09,147.06L363.67,178.99L363.69,118.84L363.84,171.94L363.85,150.73L364.1,173.37L364.17,118.04L364.59,155.62L364.61,145.46L364.87,118.16L365.08,189.05L365.36,146.11L365.37,153.54L365.42,181.28L365.59,129.09L366.04,169.96L366.05,172.16L366.24,120.4L366.61,190.72L366.81,140.78L366.83,150.75L367.15,123.66L367.23,180.97L367.57,145.58L367.58,145.31L367.6,191.49L367.62,122.95L368.32,162.3L368.33,151.35L368.57,131.61L368.61,176.25L368.85,159.83L368.86,142.22L368.88,153.15L368.9,180.28L368.94,187.9L368.97,128.2L369.65,145.27L369.66,164.98L369.68,112.42L370.2,176.8L370.41,159.21L370.42,148.34L370.76,189.14L370.83,111.58L371.17,152.26L371.19,152.23L371.27,116.14L371.9,189.89L371.91,183.83L371.93,120.4L371.94,117.65L372.25,186.99L372.51,159.99L372.53,173.57L372.7,181.57L373.24,129.42L373.27,172.35L373.28,169.53L373.71,126.56L373.95,179.06L373.98,164.34L373.99,144.32L374.4,198.31L374.47,124.82L374.71,167.69L374.72,172.52L374.75,124.86L375.47,153.07L375.49,167.13L375.6,182.22L375.64,131.4L376.23,148.64L376.24,160.36L376.46,186.42L376.83,116.01L376.98,123.23L376.99,175.04L377.56,129.89L377.72,139.5L377.73,160.94L378.37,170.42L378.48,134.22L378.49,149.75L378.5,149.02L378.69,109.95L378.76,183.81L378.92,166.82L378.93,172.81L378.96,109.75L379.2,180.48L379.68,154.39L379.7,151.52L379.86,129.56L380.35,174.72L380.44,159.35L380.45,147.08L380.85,129.99L381.07,184.69L381.15,144.57L381.16,177.93L381.34,184.17L381.57,121.04L381.92,142.16L381.93,157.36L381.95,147.87L381.96,174.88L381.98,161.38L382,124.64L382.35,185.16L382.75,162.4L382.76,144.2L382.77,144.38L382.78,164.33L383.07,182.69L383.43,132.41L383.53,157.57L383.55,161.16L383.63,127.1L384.11,187.38L384.27,162.17L384.29,173.48L384.66,111.81L384.74,186.95L385.04,166.53L385.05,169.64L385.2,182.98L385.64,124.06L385.8,138.65L385.81,157.4L386.04,174.62L386.47,129.3L386.55,154.36L386.56,144.3L386.99,126.33L387.19,178.09L387.26,143.73L387.27,140.76L387.4,175.66L387.52,120.27L388,156.87L388.01,176.84L388.39,190.2L388.56,124.89L388.76,144.33L388.77,168.49L388.97,176.3L389.47,123.67L389.54,157.95L389.55,166.83L389.79,180.51L390.19,124.62L390.29,158.8L390.3,171.36L390.54,121.65L390.56,173.09L391.06,146.99L391.07,168.01L391.18,189.06L391.3,117.11L391.79,162.47L391.8,182.13L391.87,122.14L392.55,172.99L392.56,170.74L392.87,175.74L393.08,122.96L393.33,149.76L393.34,160.66L393.7,124.11L393.78,182.11L393.99,163.99L394,143.04L394.21,122.19L394.46,174.2L394.73,156.5L394.74,158.75L395.32,176.72L395.43,128.53L395.48,167.25L395.49,162.46L395.58,121.37L395.77,189.44L396.21,146.32L396.22,144.36L396.82,117.47L396.84,174.6L396.98,164.19L396.99,161.76L397.04,134.21L397.13,173.59L397.4,144.74L397.41,180.13L397.8,106.69L397.98,188.95L398.17,142.98L398.18,156.48L398.22,122.1L398.25,182.78L398.72,160.87L398.73,137.22L398.74,117.86L399.27,186.9L399.47,138.71L399.48,184.97L399.59,123.35L400.24,144.41L400.25,160.4L400.7,104.31L400.74,179.16L400.79,135.47L400.8,186.87L401.12,130.94L401.56,155.66L401.57,162.51L401.72,177.94L401.75,123.9L402.32,151.99L402.34,155.29L402.5,180.85L402.52,130.86L403.04,177.98L403.05,152.83L403.11,121.71L403.24,191.79L403.75,155.77L403.76,164.29L403.79,118.12L404.49,190.49L404.5,189.43L404.51,152.85L404.52,121.11L405.11,189.23L405.25,172.85L405.26,157.67L405.39,176.37L405.79,126.61L406.01,150.81L406.02,160.07L406.17,189.86L406.58,126.52L406.76,157.8L406.78,150.18L406.83,125.76L407.02,184.02L407.52,138.49L407.53,167.87L407.58,173.36L407.83,128.28L407.93,132.02L407.94,122.16L408.01,183.63L408.09,118.97L408.69,161.25L408.71,159.27L409.1,114.16L409.4,178.77L409.45,146.25L409.46,163.65L409.55,191.12L409.57,122.18L410.21,154.91L410.22,176.94L410.75,189.35L410.78,126.91L410.91,146.81L410.93,143.5L410.96,181.6L411.03,134.55L411.62,161.93L411.63,152.52L411.85,189.62L412.29,110.18L412.38,148.08L412.39,151.73L412.85,187.88L413.07,124.4L413.11,138.95L413.12,121.25L413.18,197.57L413.33,115.19L413.79,159.3L413.81,134.37L414.02,119.41L414.41,182.19L414.57,162.87L414.58,153.36L414.85,126.45L414.87,179.21L415.26,162.89L415.27,189.4L415.3,112.62L416.01,152.85L416.03,147.54L416.21,135.34L416.34,169.98L416.43,151.67L416.44,137.99L416.86,111.1L417.16,201.34L417.17,153.54L417.18,109.88L417.75,190.47L417.92,125.7L417.93,103.55L417.96,182.08L418.68,163.58L418.7,163.45L419.14,178.13L419.32,128.49L419.45,162.68L419.46,156.88L419.7,180.87L419.85,130.22L420.22,138.81L420.23,148.05L420.85,115.88L420.89,202.59L420.97,168.08L420.99,161.96L421.14,111.65L421.32,196.99L421.73,161.57L421.74,145.28L421.88,117.57L422.06,184.94L422.48,163.15L422.49,139.07L422.77,120.73L422.93,201.01L423.23,143.97L423.24,126.29L423.61,119.39L423.99,183.38L424,155.56L424.02,152.4L424.23,106.9L424.62,205.43L424.73,121.49L424.74,106.24L425.36,204.8L425.52,155.01L425.53,159.15L425.81,184.68L425.87,108.07L426.27,165.93L426.28,159.08L426.37,111.13L426.44,210.33L427.03,150.4L427.04,146.83L427.69,120.54L427.75,208.56L427.76,195.98L427.77,131.62L427.78,84.78L428.1,218.24L428.5,176.19L428.51,182.19L428.84,209.66L428.86,108.37L429.26,161.25L429.28,156.72L429.35,121.58L429.44,185.06L430.03,152.11L430.04,139.58L430.28,202.37L430.58,126.82L430.8,173.9L430.81,151.98L431.33,199.9L431.45,105.26L431.54,135.73L431.55,172.62L431.79,55.64L431.92,258.37L432.26,131.27L432.27,96.5L432.28,94.4L432.32,204.81L432.37,157.54L432.39,233.02L432.43,88.15L433.16,149.56L433.17,141.93L433.33,193.38L433.79,114.67L433.8,136L433.81,168.96L433.96,194.09L433.99,124.83L434.53,154.08L434.54,174.23L435.18,225.81L435.29,99.44L435.32,144.45L435.33,197.48L435.59,252.7L435.61,47.87L435.94,113.68L435.95,106.38L436.03,95.89L436.36,208.47L436.7,147.8L436.71,165.73L437.07,189.98L437.39,115.02L437.45,156.97L437.46,174.45L437.47,200.18L437.59,107.37L438.19,164.21L438.2,137.1L438.91,78.08L438.97,229.06L438.98,156.58L439.46,46.6L439.59,252.82L439.72,179.41L439.73,196.58L439.74,208.59L439.77,99.42L440.43,144.53L440.45,157.62L440.56,112.79L440.87,195.35L441.2,143.78L441.21,141.38L441.31,124.96L441.65,188.14L441.94,149.41L441.95,131.38L442.54,234.91L442.56,71.57L442.7,150.74L442.71,91.46L442.72,83.06L442.75,233.86L443.28,185.02L443.29,247.98L443.32,65.04L444.03,156.29L444.04,182.33L444.05,114.96L444.75,191.18L444.79,144.02L444.8,154.86L445.07,186.04L445.51,112.29L445.52,143.73L445.53,174.43L446.22,197.97L446.25,91.08L446.27,178.83L446.28,234.17L446.72,270.04L446.75,54.73L447.01,151.16L447.02,184.37L447.27,205.43L447.3,82.63L447.72,138.81L447.73,179.2L447.78,108.62L448.42,199.39L448.49,158.14L448.5,141.61L448.62,199.51L449.06,120.86L449.24,159.96L449.26,152.07L449.9,82.98L449.94,209.68L450.01,184.14L450.02,160.98L450.46,34.75L450.51,285.8L450.77,125.97L450.78,158.48L451.04,215.02L451.07,79.64L451.51,167.15L451.52,167.92L451.63,98.47L452.05,228.31L452.27,164.23L452.29,166.09L452.39,189.14L453,119.29L453.04,159.19L453.05,155.61L453.66,97.83L453.77,226.26L453.78,205.72L453.79,114.74L454.01,22.56L454.25,304L454.51,137.24L454.52,195.65L454.93,211.6L455.04,86.97L455.23,164.59L455.25,164.83L455.33,100.99L455.42,188.65L455.99,157.77L456,158.67L456.16,107.23L456.6,215.54L456.69,158.6L456.7,119.49L457.08,227.47L457.34,71.3L457.35,170.36L457.36,224.33L457.78,277.1L458.02,16L458.04,225.13L458.06,241.67L458.08,36.7L458.81,150.52L458.82,150.34L458.83,99.25L459.54,213.55L459.57,116.49L459.58,155.4L459.79,108.97L460.29,203.26L460.32,139.67L460.33,188.52L460.35,215.23L461,93.1L461.04,169.88L461.05,123.9L461.33,36.73L461.5,276.14L461.74,136.4L461.76,211.69L461.77,269.43L461.87,22.36L462.5,177.89L462.51,161.99L463.24,221.05L463.26,96.53L463.27,179.68L463.43,185.35L463.72,103.36L464.01,144.67L464.02,190.42L464.25,94.24L464.75,218.47L464.77,101.15L464.79,126.69L465.13,251.41L465.31,57.59L465.42,145.45L465.43,74.36L465.73,255.06L466.18,153.79L466.2,174.91L466.48,200.99L466.64,110.35L466.95,146.8L466.96,165.9L466.99,180.53L467.07,104.47L467.12,149.98L467.13,179.41L467.32,105.92L467.39,191.19L467.85,159.46L467.86,153.13L467.96,85.82L468.45,201.69L468.46,170.33L468.47,81.49L468.66,213.42L469.18,139.7L469.19,116.91L469.21,98.56L469.36,193.23L469.43,183.36L469.44,234.54L469.61,95.82L470.2,151.09L470.21,151.08L470.34,114.95L470.57,203.36L470.94,142.59L470.95,120.58L471.06,196.31L471.68,113.25L471.7,181.76L471.71,136.44L472.38,77.46L472.4,260.84L472.43,111.23L472.44,86.57L472.59,195.02L473.21,183.37L473.23,144.32L473.61,224.28L473.95,108.29L473.97,162.16L473.98,176.42L474.56,194.01L474.66,95.74L474.72,142.78L474.73,186.96L474.99,203.9L475.09,111.97L475.49,154.27L475.5,160.77L475.71,96.48L475.86,204.13L476.1,153.45L476.12,214.21L476.17,220.11L476.45,97.74L476.87,133.01L476.88,167.48L477.32,98.78L477.61,213.83L477.62,165.06L477.63,158.75L477.92,200.04L478.26,124.28L478.37,145.1L478.38,122.73L478.85,192.62L478.87,118.4L479.13,136.19L479.15,127L479.3,219.73L479.74,101.68L479.86,124.66L479.87,148.57L480.18,216.86L480.29,95.43L480.61,163.09L480.63,142.99L480.65,121.91L480.8,198.86L480.82,143.13L480.83,93.97L480.86,226.28L481.59,198.56L481.6,150.36L481.62,200.14L481.92,116.52L482.33,155.95L482.34,155.05L482.71,195.28L483.03,111.76L483.08,183.93L483.09,145.39L483.22,113.53L483.35,190.44L483.49,167.16L483.51,111.82L483.69,88.64L483.78,226.67L484.23,154.9L484.25,163.97L484.44,230.91L484.63,109.01L484.99,141.98L485,154.72L485.29,193.26L485.56,116.55L485.73,156.43L485.74,127.69L485.93,197.96L486.23,113.77L486.49,184.72L486.5,153.2L486.73,181.54L486.94,84.12L486.96,179.5L486.97,215.23L487.36,69.79L487.39,224.54L487.71,136.38L487.73,135.26L488.04,215.45L488.32,89.7L488.47,155.77L488.48,124.95L488.63,202.77L488.79,98.56L489.24,170.88L489.25,148.35L489.45,85.94L489.52,224.79L489.99,147.56L490,163.06L490.56,114.43L490.59,209.73L490.71,145.68L490.72,213.22L491.14,266.87L491.17,72.56L491.48,135.64L491.49,150.3L491.58,98.18L491.59,180.98L491.6,208.68L491.63,92.83L491.67,221.59L492.35,156.55L492.36,183.27L492.37,199.44L492.99,110.6L493.09,172.06L493.1,133.86L493.39,105.51L493.83,199.55L493.85,166.83L493.87,159.02L494.42,205.49L494.45,90.13L494.63,116.83L494.64,131.7L494.76,68.04L494.91,241.96L495.38,144.62L495.39,113.89L495.61,108.9L495.87,202.63L496.14,141.37L496.15,138.87L496.48,211.53L496.49,99.87L496.92,163.87L496.93,135.72L497.29,217.79L497.31,72.52L497.67,123.26L497.68,154.13L498.35,90.74L498.44,230.5L498.46,130.64L498.56,248.34L498.64,80.11L499.18,130.29L499.2,193.06L499.25,254.41L499.28,84.69L499.92,169.26L499.94,171.32L499.97,91.68L500.64,226.74L500.66,123.32L500.68,107.03L501.12,102.01L501.38,185.8L501.42,156.34L501.43,141.54L501.84,218.65L502.1,74.96L502.14,116.13L502.16,78.94L502.19,230.24L502.27,59.31L502.92,163.53L502.93,183.41L502.99,199.96L503.37,116.86L503.68,160.88L503.69,145.53L503.83,105.81L504.08,211.01L504.29,167.86L504.31,132.45L504.32,96.16L504.87,204L505.06,121.86L505.07,145.52L505.72,221.59L505.8,111.68L505.82,127.04L505.83,162.59L506.24,242.09L506.27,80.96L506.58,114.79L506.6,155.42L506.61,155.19L506.62,188.74L507.27,94.75L507.3,198.35L507.38,145.71L507.39,166.74L507.47,200.46L507.97,111.4L508.01,125.07L508.02,198.73L508.03,212.92L508.28,111.39L508.73,144.8L508.75,145.75L509.27,201.26L509.3,103.18L509.49,140.15L509.5,182L509.65,78.42L509.79,262.76L510.23,155.94L510.24,196.03L510.32,102.9L510.45,197.79L510.97,164.79L510.98,209.32L511.57,103.77L511.73,137.24L511.74,170.56L511.8,234.18L511.82,97.28L512.48,153.1L512.49,136.08L513.04,230L513.11,106.71L513.24,131.04L513.26,193.87L513.46,66.22L513.71,250.85L514.01,136.67L514.02,160.47L514.31,194.9L514.67,94.35L514.79,127.19L514.81,190.64L514.82,192.28L515.11,127.68L515.22,153.97L515.23,117.14L515.24,81.84L515.71,211.03L515.97,148.51L515.98,177.62L516.46,99.72L516.63,206.31L516.72,119.11L516.74,153.05L517.08,228.06L517.18,73.04L517.48,142.49L517.49,164.72L517.57,106.97L518.14,218.06L518.24,149.12L518.25,148.65L518.27,179.24L518.33,170.78L518.34,139.64L518.98,218.91L519,79.07L519.09,154.29L519.11,153.27L519.36,191.08L519.66,118.76L519.86,169.73L519.87,143.76L520.02,188.13L520.46,99.86L520.61,151.24L520.62,170.52L520.76,91.17L520.79,220.33L521.37,145.02L521.38,197.75L521.42,87.88L521.75,212.66L522.08,155.02L522.09,187.99L522.3,104.29L522.63,215.95L522.84,158.47L522.85,168.96L522.91,234.97L522.95,108.25L523.41,152.59L523.42,136.31L523.71,208.93L524.02,89.07L524.16,118.93L524.17,133.77L524.26,65.23L524.84,230.17L524.92,164.71L524.93,183.34L525.03,219.67L525.34,79.99L525.67,153.72L525.69,188.04L526,101.28L526.08,223.35L526.44,164.34L526.45,163.93L527.05,114.03L527.12,201.69L527.18,152.69L527.19,105.23L527.55,219.68L527.84,93.29L527.94,144.25L527.95,101.3L528.39,91.58L528.41,226.39L528.7,145.91L528.72,104.9L529.29,233.93L529.36,94.76L529.39,153.76L529.4,187.07L530.01,103.89L530.04,210.76L530.15,167.33L530.16,143.91L530.63,205.87L530.87,99.99L530.9,160.6L530.91,143.85L531.47,209.78L531.63,91.19L531.64,154.54L531.65,210.29L531.89,54.5L531.93,260.28L531.99,183.75L532,82.02L532.14,261.65L532.76,171.66L532.77,167.87L532.95,206.63L533.12,65.94L533.51,137.62L533.53,183.36L533.56,88.98L533.74,205.74L534.29,143.58L534.3,185.39L534.4,86.18L534.7,193.02L535.05,123.4L535.06,189.27L535.21,204.46L535.49,73.32L535.81,127.85L535.83,162.24L535.91,75.71L536,232.33L536.58,181.57L536.59,137.28L536.84,109.92L537.01,201.41L537.34,165.02L537.35,143.03L537.92,216.86L537.99,91.95L538.1,152.98L538.12,125.23L538.39,239.74L538.57,99.08L538.88,164.83L538.89,113.34L539.1,62.94L539.19,230.38L539.64,137.98L539.65,99.22L539.97,81.33L540.04,208.3L540.39,142.2L540.41,147.76L540.56,107.11L540.89,195.87L541.15,153.7L541.16,190.12L541.27,208.63L541.34,114.48L541.91,167.86L541.92,170.23L542,117.75L542.28,196.79L542.67,156.56L542.68,167.46L543.01,233.36L543.24,77.18L543.43,160.8L543.45,143.09L543.52,90.88L543.63,229.46L544.21,203.78L544.22,162.58L544.56,104.76L544.76,201.41L544.97,148.12L544.98,159.39L545.37,208.63L545.65,98.53L545.7,168.81L545.71,171.44L546.02,199.72L546.2,64.64L546.46,155.79L546.48,166.47L546.56,80.59L546.8,248.02L547.24,115.15L547.25,122.83L547.7,102.25L547.94,231.25L548,140.73L548.01,160.92L548.12,103.85L548.42,203.82L548.53,138.93L548.55,217.24L549.26,101.74L549.31,156.01L549.32,182.29L549.5,96.85L549.81,220.21L550.01,152.74L550.03,126.74L550.12,98.31L550.2,235.88L550.79,167.56L550.8,161.83L551.1,219.91L551.41,94.39L551.54,149.83L551.55,167.84L551.83,240.01L551.9,45.47L552.19,161.34L552.2,190.33L552.22,104.18L552.37,204.33L552.95,136L552.96,156.05L553.34,95.48L553.55,197.47L553.71,194.26L553.73,189.93L554.05,229.71L554.08,77.96L554.48,166.87L554.49,165.26L554.89,211.33L555.02,72.73L555.24,125.7L555.25,147.9L555.58,244.46L555.64,65.51L555.99,136.72L556,125L556.29,97.82L556.4,204.45L556.75,155.08L556.77,151.5L556.81,205.35L557.33,97.26L557.46,145.41L557.47,188.71L557.81,70.06L557.96,212.01L558.22,167.24L558.23,129.23L558.42,223.29L558.66,91.49L558.99,184.88L559,95.27L559.63,210.22L559.68,88.98L559.75,169.49L559.76,160.02L560.11,100.68L560.26,237.14L560.5,150.01L560.51,189.08L560.79,112.08L560.92,214.01L561.19,168.82L561.21,113.94L561.61,213.48L561.9,74.83L561.95,126.97L561.96,118.33L562.35,226.2L562.49,106.9L562.72,164.12L562.73,135.57L562.88,199.4L563.07,92.08L563.48,145.55L563.5,165.46L563.52,98.71L563.61,231.48L564.25,142.03L564.26,157.74L564.27,157.96L564.28,151.53L564.29,151.87L564.31,171.09L564.84,217.19L564.91,76.63L564.99,163.01L565,166.23L565.3,234.71L565.37,108.35L565.75,157.83L565.76,190.64L565.9,94.47L566.49,198.58L566.51,127.86L566.53,189.07L566.61,219.11L566.68,92.86L567.24,145.4L567.25,173.68L567.27,210.69L567.77,106.67L567.96,174.45L567.97,117.25L567.98,88.8L568.36,199.91L568.69,184.99L568.7,175.34L568.75,210.06L569.09,90.33L569.42,118.71L569.43,90.76L569.45,208.01L570.18,176.77L570.19,148.35L570.46,98.42L570.69,201.45L570.87,149L570.88,205.41L571.07,109L571.66,121.83L571.67,148.98L572.21,226.01L572.28,114.79L572.29,98.32L572.54,209.36L573.05,158.01L573.06,130.56L573.42,100.34L573.67,226.24L573.75,133.29L573.76,118.66L574.04,217.16L574.17,113.19L574.43,191.68L574.45,81.32L574.87,214.62L575.22,197.69L575.23,177.64L575.67,88.02L575.76,199.2L575.97,192.51L575.98,184.37L575.99,78.96L576.42,231.42L576.73,126.13L576.75,154.36L577.07,227.05L577.45,101.86L577.5,163.42L577.51,113.94L577.67,220.27L578.27,161.39L578.28,157.5L578.46,94.82L578.7,221.74L579.02,148.33L579.04,171.57L579.34,211.55L579.74,94.17L579.79,147.55L579.8,177.5L580,219.19L580.08,76.17L580.53,188.69L580.54,164.75L580.85,201.71L580.98,101.03L581.28,121.1L581.29,174.67L581.41,128.87L581.61,200.31L581.63,147.38L581.64,107.08L581.87,194.04L582.11,96.09L582.4,161L582.41,159.07L582.44,158.85L582.45,195.24L582.96,217.71L583.06,96.71L583.22,143.56L583.23,143.58L583.4,91.87L583.48,219.42L583.94,147.93L583.95,181.97L584.23,217.85L584.56,99.81L584.69,197.67L584.7,209.43L585.26,86.75L585.45,172.92L585.46,141.23L585.73,108.28L586.05,194.95L586.2,141.03L586.22,141.98L586.49,209.24L586.77,92.5L586.94,178.82L586.96,141.53L587.21,227.44L587.29,93.47L587.59,105.11L587.6,198.55L587.85,218.25L588.03,81.94L588.36,116.21L588.37,153.72L588.48,96.79L588.49,204.3L589.08,169.31L589.1,192.46L589.21,100.99L589.79,216.34L589.86,114.71L589.87,135.79L590.24,207.38L590.37,100.76L590.61,135.6L590.62,116.94L590.76,85.2L591.38,230.43L591.4,176.22L592.03,205.48L592.07,96.52L592.15,140.46L592.16,164.75L592.33,100.81L592.47,219.05L592.84,139.11L592.85,82.01L592.99,219.89L593.6,159.5L593.62,179.81L593.77,211.29L594.33,109.62L594.37,143.69L594.38,142.69L594.44,207.48L594.95,89.3L595.12,142.68L595.13,146.25L595.5,203.67L595.79,109.28L595.81,159.26L595.82,193.41L595.92,213.15L596.53,107.95L596.56,131.01L596.58,166.21L596.63,212.58L597.21,96.56L597.32,149.34L597.33,130.6L597.79,99.47L597.92,208.05L598.07,193.09L598.08,122L598.44,220.1L598.68,84.33L598.82,173.43L598.83,106L598.91,210.99L599.19,62.28L599.59,180.07L599.61,124.84L599.74,244.25L599.86,105.27L600.37,179.71L600.38,173.23L600.39,173.92L600.42,130.96L600.44,136.88L600.45,121.98L600.55,115.64L600.83,215.32L601.2,137.05L601.21,140.08L601.77,98.59L601.98,237.79L601.99,184.2L602.64,85.95L602.66,209.19L602.73,127.52L602.74,188.47L602.77,116.26L603.34,214.35L603.46,136.59L603.47,120.32L603.75,106.79L603.93,205.63L604.22,198.58L604.23,136.08L604.73,254.05L604.8,85.1L604.98,159.92L604.99,151.09L605.08,185.79L605.09,117.25L605.31,142.63L605.32,188.08L605.55,216.86L605.98,59.72L606.07,164.49L606.08,169.87L606.6,90.07L606.76,213.72L606.84,128.46L606.86,137.06L606.87,215.03L607.12,102.81L607.61,178.73L607.62,136.48L607.87,88.51L607.94,223.82L608.34,201.22L608.35,109.99L608.96,225.68L608.99,102.94L609.08,191.28L609.09,119.76L609.32,89.78L609.43,213.47L609.8,164.87L609.82,146.86L609.93,93.7L610.04,202.63L610.06,108.78L610.07,104.07L610.42,98.38L610.69,198.53L610.83,163.35L610.84,142.66L611.25,40.37L611.26,213.09L611.55,158.24L611.56,189.88L611.85,234.82L612.24,99.17L612.31,136.71L612.32,172.65L612.89,197.74L612.97,87.41L612.98,154.61L613,208.58L613.09,229.06L613.5,103.6L613.76,148.33L613.77,154.39L613.97,102.58L614.34,239.52L614.49,150.5L614.5,107.84L614.7,81.13L614.78,211.51L615.16,157.21L615.17,128.44L615.35,222.98L615.42,88.77L615.89,165.59L615.9,187.77L616.48,88.82L616.56,226.95L616.64,137.89L616.65,195.75L616.8,94.28L617.16,202.92L617.39,160.93L617.4,191.16L617.5,204.66L618.06,95.99L618.16,142.71L618.18,121.13L618.19,119.83L618.27,199.49L618.35,185.5L618.36,207.87L618.43,104.18L618.56,217.62L619.01,160.42L619.02,141.14L619.14,203.43L619.31,89.17L619.78,174.82L619.79,167.97L620.07,91.42L620.3,223.06L620.49,176.69L620.5,132.55L620.67,89.12L621.18,234.19L621.23,153.32L621.24,121.94L621.32,208.65L621.45,106.82L621.89,161.18L621.9,130.01L622.11,89.08L622.3,217.9L622.59,169.23L622.6,93.78L622.92,246.48L623.36,169.24L623.37,131.19L623.48,85.05L624.05,209.83L624.11,138.38L624.12,107.31L624.49,217.52L624.71,98.96L624.87,157.25L624.88,158.21L625.48,209.51L625.51,73.85L625.58,164.41L625.59,118.21L626.08,103.49L626.15,200.69L626.34,154.23L626.35,133.26L626.66,75.75L627,203.53L627.08,184.21L627.09,140.22L627.44,212.91L627.58,90.28L627.83,191.84L627.84,132.76L628.26,75.6L628.33,225.78L628.44,166.96L628.45,188.1L628.95,216.16L628.98,80.92L629.16,167.12L629.17,256.61L629.62,100.36L629.92,200.9L629.93,163.91L630.14,222.34L630.39,77.48L630.7,130.98L630.71,185.05L630.83,79.18L630.89,215.97L631.39,117.94L631.4,95.76L631.47,227.76L631.94,94.83L632.15,171.21L632.17,185.59L632.4,212.71L632.78,74.88L632.91,177.67L632.92,203L633.07,99.7L633.5,213.5L633.66,142.12L633.67,211.41L634.13,219.67L634.16,74.56L634.43,122.46L634.44,134.77L634.88,97.28L634.93,235.15L635.18,176L635.2,138.57L635.5,212.4L635.74,105.3L635.94,136.33L635.95,137.98L636.49,92.12L636.62,228.19L636.72,191.54L636.73,162.26L636.87,201.84L637.14,78.81L637.47,170.62L637.49,163.21L638.17,218.72L638.24,74.37L638.25,106.84L638.26,120.39L638.43,94.44L638.94,233.18L639.02,170.36L639.03,93.27L639.05,90.33L639.06,174.29L639.07,143.49L639.08,196.91L639.46,85.14L639.57,208.29L639.83,164.51L639.84,171.7L640.03,202.86L640.13,95.56L640.61,120.41L640.62,154.79L640.71,214.77L641.16,94.88L641.36,154.05L641.37,131.68L641.71,222.78L641.94,80.09L642.12,147.36L642.13,113.73L642.2,221.25L642.54,98.43L642.9,196.35L642.91,169.91L643.28,207.97L643.36,96.96L643.66,165L643.67,188.33L643.9,96.87L644.34,196.96L644.43,148.39L644.45,163.3L644.54,205.17L644.65,97.04L645.21,103.57L645.22,151.1L645.59,194.76L645.61,79.71L645.96,181.64L645.97,103.4L646.38,256.63L646.4,65.12L646.72,127.53L646.74,138.95L646.89,90.36L647.43,206.01L647.45,150.85L647.46,111.14L647.64,213.03L647.67,94.29L648.16,124.63L648.17,144.67L648.22,94.39L648.87,241.26L648.92,162.59L648.93,162.39L649.45,229.22L649.6,80.87L649.66,160.57L649.67,124.59L650.11,214.81L650.29,90.76L650.45,208.97L650.46,146.69L650.57,84.66L650.69,206.38L650.93,193.27L650.94,209.6L650.97,93.36L651.29,226.4L651.68,116.11L651.7,210.59L652.01,109.81L652.45,111.45L652.46,196.94L652.86,107.14L653.03,199.28L653.21,167.17L653.22,160.73L653.73,230.03L653.8,80.29L653.96,185.15L653.97,144.65L654.1,226.84L654.23,78.17L654.7,165.33L654.71,106.09L654.81,220.81L654.83,72.17L655.44,191.91L655.45,111.36L655.63,63.5L655.78,199.88L656.01,137.11L656.02,103.05L656.58,238.37L656.7,87.69L656.77,164.16L656.78,164.24L656.86,235.77L657.34,95.66L657.53,103.22L657.55,188.21L657.96,206.52L658.12,80.91L658.22,127.53L658.23,111.2L658.54,83.36L658.56,219.14L658.99,182.97L659,105.77L659.45,89.66L659.58,207.53L659.75,181.73L659.77,114.56L659.81,97.85L659.84,220.24L660.01,170.08L660.02,127.56L660.13,243.43L660.24,85.39L660.75,165.28L660.76,169.98L661.15,80.59L661.36,215.04L661.5,174.32L661.51,172.23L661.65,86.65L661.67,220.5L662.26,170L662.28,136.4L662.73,217.99L662.99,90.26L663.05,171L663.06,165.62L663.42,69.87L663.51,212.31L663.78,152.03L663.79,225.48L664.41,77.54L664.53,260.59L664.55,86.74L664.57,143.53L664.69,82.37L664.75,224.82L665.33,174.11L665.34,154.13L666.01,221.47L666.03,84.74L666.09,151.7L666.1,172.54L666.74,106.6L666.75,207.03L666.85,126.58L666.87,144.36L667.36,99.17L667.46,235.53L667.61,102.37L667.62,146.91L667.63,214.06L667.87,65.14L668.36,118.57L668.37,140.52L668.68,61.97L668.7,258.41L669.11,101.92L669.12,100.28L669.27,90.51L669.4,207.09L669.54,152.67L669.55,112.47L669.7,92.34L669.85,231.71L670.31,169.64L670.32,138.79L670.6,93.16L670.98,227.05L671.07,168.29L671.09,154.16L671.54,206.18L671.84,50.38L671.85,147.58L671.86,221.04L672.34,83.62L672.6,205.15L672.61,176.44L672.92,85.1L673.09,219.49L673.34,185.01L673.35,146.13L673.86,217.21L673.98,85.67L674.1,158.08L674.12,83.32L674.66,216.59L674.88,161.93L674.89,150.96L674.98,221.58L675.38,58.74L675.47,131.02L675.48,208.05L675.7,237.2L675.99,82.42L676.2,114.05L676.21,223.33L676.35,249.96L676.82,82.42L676.96,201.74L676.97,173.26L677.18,215.15L677.28,74.52L677.73,105.48L677.75,131.54L678.27,212.94L678.32,76.09L678.5,162.92L678.51,108.31L678.73,226.32L679.23,78.04L679.26,167.63L679.27,126.63L679.3,229.99L679.87,80.37L680.01,143.2L680.02,136.51L680.12,100.02L680.41,233.3L680.74,132.97L680.75,133.72L680.79,75.01L681.15,250.19L681.5,175.2L681.52,181.28L681.55,110.71L682.16,218.66L682.18,167.3L682.19,82.75L682.56,212.3L682.94,130.23L682.95,143.23L683.22,210.65L683.66,73.31L683.69,140.36L683.7,163.75L684.35,96.44L684.41,222.66L684.44,165.42L684.45,95.04L684.74,80.66L685.03,237.64L685.2,161.92L685.22,165.52L685.47,70.06L685.56,229.86L685.94,190.46L685.96,152.04L686.16,80.36L686.19,212.78L686.7,134.62L686.71,148.46L687.03,233.22L687.15,75.89L687.45,161.87L687.46,120.46L687.71,93.75L687.81,220.6L688.19,186.25L688.2,105.8L688.48,102.82L688.5,209.05L688.95,186.3L688.96,143.55L689.07,81.97L689.51,204.49L689.71,144.53L689.73,160.43L689.95,90.96L690.45,216.31L690.47,186.47L690.48,180.24L690.93,94.59L691.08,218.78L691.23,148.5L691.24,170.1L691.62,72.52L691.85,207.45L691.95,139.37L691.96,114.23L691.97,84.05L691.99,223.75L692.67,135.71L692.69,181.97L693.3,64.17L693.37,221.33L693.43,168.25L693.44,133.68L693.58,94.87L693.61,196.94L693.65,147.31L693.66,84.17L693.96,227.23L694.41,184.15L694.42,163.56L694.67,93.85L694.82,227.36L695.08,153.99L695.09,125.37L695.41,106.41L695.51,207.06L695.77,164.79L695.78,204.05L696.3,221.62L696.33,88.88L696.5,150.57L696.51,247.53L696.74,88.04L697.26,146.63L697.28,167.33L697.66,74.53L697.75,211.85L697.92,151.47L697.93,106.14L698.1,84.67L698.52,241.11L698.71,204.97L698.72,163.71L698.93,102.56L699.16,213.06L699.35,134.58L699.36,118.15L699.5,101L699.59,245.75L700.11,164.87L700.12,178.14L700.57,226.46L700.73,82.47L700.87,128.01L700.88,168.51L701.16,213.03L701.52,86.34L701.65,114.08L701.66,155.2L701.72,226.27L702.12,102.79L702.39,175.98L702.4,149.57L702.56,199.2L702.65,69.76L703.02,189.87L703.03,141.3L703.37,91.13L703.52,223.29L703.62,158.16L703.64,119.08L703.66,223.39L703.68,66.17L704.38,164.79L704.39,86.39L704.73,212.3L705.15,194.05L705.16,161.1L705.83,205.02L705.87,106.58L705.89,168.22L705.9,213.1L706.13,87.01L706.66,114.76L706.68,158.23L707.1,68.01L707.28,220L707.43,196.04L707.44,96.85L707.54,247.36L707.81,69.63L708.09,150.65L708.1,70.38L708.78,224.33L708.86,167.92L708.87,134.6L709.09,210.94L709.39,83.83L709.65,175.5L709.66,157.02L709.96,79.56L710.36,223.73L710.39,165.87L710.4,206.02L710.41,214.02L710.83,107.57L711.02,166.15L711.04,114.2L711.12,74.16L711.67,232.85L711.79,187.62L711.8,102.34L711.93,84.47L712,207.09L712.56,170.95L712.57,161.02L712.61,206.31L712.98,87.6L713.28,133.24L713.29,188.39L713.65,90.7L713.83,197.68L714.05,150.87L714.06,158.48L714.32,89.61L714.46,208.67L714.78,182.16L714.79,126.15L715.34,92.37L715.38,218.26L715.49,140.71L715.5,198.19L716.01,221.1L716.08,66.8L716.25,163.35L716.26,154.25L716.79,205.84L717.04,98.87L717.05,126.42L717.19,80.26L717.44,226.63L717.8,181.08L717.81,184.9L718.17,104.76L718.42,208.44L718.56,177.36L718.57,147.14L718.94,221.28L719.22,96.86L719.28,184.38L719.29,195.58L719.59,207.42L719.83,97.06L720.04,182.28L720.05,213.36L720.53,91.7L720.78,182.65L720.79,198.65L720.82,90.4L721.2,232.43L721.53,172.95L721.55,163.59L721.89,95.81L721.96,220.85L722.3,130.21L722.31,167.56L722.42,221.68L722.96,93.84L723.05,146.05L723.06,172.55L723.16,99.91L723.19,204.14L723.35,172.36L723.36,90.59L723.63,205.28L723.65,87.52L724.12,132.51L724.14,121.88L724.83,204.62L724.88,94.31L724.89,140.39L724.9,114.11L725.14,66.07L725.42,200.64L725.65,160.7L725.66,126.47L725.74,103.05L726.22,220.26L726.41,139.29L726.43,163.49L726.45,203.14L727.03,87L727.19,144.85L727.2,172.54L727.39,106.09L727.76,196.7L727.93,163.41L727.94,204.36L728.32,99.98L728.34,206.93L728.69,139.05L728.7,158.17L729.14,205.08L729.21,71.87L729.45,142.42L729.47,149.01L729.49,125.17L729.64,210.87L729.79,179.34L729.8,87.41L730.18,226.97L730.56,152.34L730.58,144.9L730.69,100.84L730.8,218.64L731.05,127.87L731.06,111.59L731.07,91.2L731.46,222.14L731.78,97.84L731.79,155.7L731.87,200.74L732.24,116.5L732.31,135.86L732.32,103.51L732.77,86.21L733.03,208.42L733.07,149.37L733.09,169.45L733.78,241.06L733.81,102.35L733.83,167.02L733.84,191.67L733.93,205.79L734.11,91.48L734.59,151.29L734.6,165.23L734.63,100.72L734.88,194.49L735.11,181.63L735.12,229.15L735.28,87.68L735.88,160.52L735.9,152.55L735.95,85.51L735.98,204.84L736.64,167.85L736.65,196.69L737.04,229.85L737.21,113.27L737.42,127.24L737.43,160.85L737.93,99.06L738.13,204.38L738.18,180.32L738.2,103.72L738.22,95.07L738.73,222.02L738.98,180.76L738.99,195.17L739.02,221.11L739.26,91.61L739.58,170.19L739.6,122.72L739.61,110.69L739.77,201.07L740,157.71" style="vector-effect: non-scaling-stroke; fill: none; stroke: rgb(148, 103, 189); stroke-opacity: 1; stroke-width: 2px; opacity: 1;"/></g><g class="points"/><g class="text"/></g></g></g><g class="overplot"/><path class="xlines-above crisp" d="" style="fill: none; stroke-width: 1px; stroke: rgb(0, 0, 0); stroke-opacity: 0;"/><path class="ylines-above crisp" d="" style="fill: none; stroke-width: 1px; stroke: rgb(0, 0, 0); stroke-opacity: 0;"/><g class="overlines-above"/><g class="xaxislayer-above"><path class="xtick ticks crisp" d="M0,421v5" transform="translate(80,0)" style="stroke: rgb(51, 51, 51); stroke-opacity: 1; stroke-width: 1px;"/><path class="xtick ticks crisp" d="M0,421v5" transform="translate(172.5,0)" style="stroke: rgb(51, 51, 51); stroke-opacity: 1; stroke-width: 1px;"/><path class="xtick ticks crisp" d="M0,421v5" transform="translate(265,0)" style="stroke: rgb(51, 51, 51); stroke-opacity: 1; stroke-width: 1px;"/><path class="xtick ticks crisp" d="M0,421v5" transform="translate(357.5,0)" style="stroke: rgb(51, 51, 51); stroke-opacity: 1; stroke-width: 1px;"/><path class="xtick ticks crisp" d="M0,421v5" transform="translate(450.01,0)" style="stroke: rgb(51, 51, 51); stroke-opacity: 1; stroke-width: 1px;"/><path class="xtick ticks crisp" d="M0,421v5" transform="translate(542.51,0)" style="stroke: rgb(51, 51, 51); stroke-opacity: 1; stroke-width: 1px;"/><path class="xtick ticks crisp" d="M0,421v5" transform="translate(635.01,0)" style="stroke: rgb(51, 51, 51); stroke-opacity: 1; stroke-width: 1px;"/><path class="xtick ticks crisp" d="M0,421v5" transform="translate(727.51,0)" style="stroke: rgb(51, 51, 51); stroke-opacity: 1; stroke-width: 1px;"/><path class="xtick ticks crisp" d="M0,421v5" transform="translate(820.01,0)" style="stroke: rgb(51, 51, 51); stroke-opacity: 1; stroke-width: 1px;"/><g class="xtick"><text text-anchor="middle" x="0" y="444" transform="translate(80,0)" style="font-family: 'Open Sans', verdana, arial, sans-serif; font-size: 15px; fill: rgb(51, 51, 51); fill-opacity: 1; white-space: pre;">0</text></g><g class="xtick"><text text-anchor="middle" x="0" y="444" transform="translate(172.5,0)" style="font-family: 'Open Sans', verdana, arial, sans-serif; font-size: 15px; fill: rgb(51, 51, 51); fill-opacity: 1; white-space: pre;">500</text></g><g class="xtick"><text text-anchor="middle" x="0" y="444" transform="translate(265,0)" style="font-family: 'Open Sans', verdana, arial, sans-serif; font-size: 15px; fill: rgb(51, 51, 51); fill-opacity: 1; white-space: pre;">1000</text></g><g class="xtick"><text text-anchor="middle" x="0" y="444" transform="translate(357.5,0)" style="font-family: 'Open Sans', verdana, arial, sans-serif; font-size: 15px; fill: rgb(51, 51, 51); fill-opacity: 1; white-space: pre;">1500</text></g><g class="xtick"><text text-anchor="middle" x="0" y="444" transform="translate(450.01,0)" style="font-family: 'Open Sans', verdana, arial, sans-serif; font-size: 15px; fill: rgb(51, 51, 51); fill-opacity: 1; white-space: pre;">2000</text></g><g class="xtick"><text text-anchor="middle" x="0" y="444" transform="translate(542.51,0)" style="font-family: 'Open Sans', verdana, arial, sans-serif; font-size: 15px; fill: rgb(51, 51, 51); fill-opacity: 1; white-space: pre;">2500</text></g><g class="xtick"><text text-anchor="middle" x="0" y="444" transform="translate(635.01,0)" style="font-family: 'Open Sans', verdana, arial, sans-serif; font-size: 15px; fill: rgb(51, 51, 51); fill-opacity: 1; white-space: pre;">3000</text></g><g class="xtick"><text text-anchor="middle" x="0" y="444" transform="translate(727.51,0)" style="font-family: 'Open Sans', verdana, arial, sans-serif; font-size: 15px; fill: rgb(51, 51, 51); fill-opacity: 1; white-space: pre;">3500</text></g><g class="xtick"><text text-anchor="middle" x="0" y="444" transform="translate(820.01,0)" style="font-family: 'Open Sans', verdana, arial, sans-serif; font-size: 15px; fill: rgb(51, 51, 51); fill-opacity: 1; white-space: pre;">4000</text></g></g><g class="yaxislayer-above"><path class="ytick ticks crisp" d="M79,0h-5" transform="translate(0,375.2)" style="stroke: rgb(51, 51, 51); stroke-opacity: 1; stroke-width: 1px;"/><path class="ytick ticks crisp" d="M79,0h-5" transform="translate(0,317.59000000000003)" style="stroke: rgb(51, 51, 51); stroke-opacity: 1; stroke-width: 1px;"/><path class="ytick ticks crisp" d="M79,0h-5" transform="translate(0,259.99)" style="stroke: rgb(51, 51, 51); stroke-opacity: 1; stroke-width: 1px;"/><path class="ytick ticks crisp" d="M79,0h-5" transform="translate(0,202.38)" style="stroke: rgb(51, 51, 51); stroke-opacity: 1; stroke-width: 1px;"/><path class="ytick ticks crisp" d="M79,0h-5" transform="translate(0,144.78)" style="stroke: rgb(51, 51, 51); stroke-opacity: 1; stroke-width: 1px;"/><g class="ytick"><text text-anchor="end" x="71" y="5.25" transform="translate(0,375.2)" style="font-family: 'Open Sans', verdana, arial, sans-serif; font-size: 15px; fill: rgb(51, 51, 51); fill-opacity: 1; white-space: pre;">0.4</text></g><g class="ytick"><text text-anchor="end" x="71" y="5.25" transform="translate(0,317.59000000000003)" style="font-family: 'Open Sans', verdana, arial, sans-serif; font-size: 15px; fill: rgb(51, 51, 51); fill-opacity: 1; white-space: pre;">0.2</text></g><g class="ytick"><text text-anchor="end" x="71" y="5.25" transform="translate(0,259.99)" style="font-family: 'Open Sans', verdana, arial, sans-serif; font-size: 15px; fill: rgb(51, 51, 51); fill-opacity: 1; white-space: pre;">0</text></g><g class="ytick"><text text-anchor="end" x="71" y="5.25" transform="translate(0,202.38)" style="font-family: 'Open Sans', verdana, arial, sans-serif; font-size: 15px; fill: rgb(51, 51, 51); fill-opacity: 1; white-space: pre;">0.2</text></g><g class="ytick"><text text-anchor="end" x="71" y="5.25" transform="translate(0,144.78)" style="font-family: 'Open Sans', verdana, arial, sans-serif; font-size: 15px; fill: rgb(51, 51, 51); fill-opacity: 1; white-space: pre;">0.4</text></g></g><g class="overaxes-above"/></g></g><g class="polarlayer"/><g class="ternarylayer"/><g class="geolayer"/><g class="pielayer"/><g class="sunburstlayer"/><g class="glimages"/><defs id="topdefs-e1cdc1"><g class="clips"/><clipPath id="legende1cdc1"><rect width="133" height="33" x="0" y="0"/></clipPath></defs><g class="layer-above"><g class="imagelayer"/><g class="shapelayer"/></g><g class="infolayer"><g class="legend" pointer-events="all" transform="translate(834.8000000000001, 100)"><rect class="bg" shape-rendering="crispEdges" width="133" height="33" x="0" y="0" style="stroke: rgb(68, 68, 68); stroke-opacity: 1; fill: rgb(255, 255, 255); fill-opacity: 1; stroke-width: 0px;"/><g class="scrollbox" transform="translate(0, 0)" clip-path="url('#legende1cdc1')"><g class="groups" transform="translate(0, 0)"><g class="traces" transform="translate(0, 16.25)" style="opacity: 1;"><text class="legendtext user-select-none" text-anchor="start" x="40" y="5.85" style="font-family: 'Open Sans', verdana, arial, sans-serif; font-size: 15px; fill: rgb(51, 51, 51); fill-opacity: 1; white-space: pre;">class=drilling</text><g class="layers" style="opacity: 1;"><g class="legendfill"/><g class="legendlines"><path class="js-line" d="M5,0h30" style="fill: none; stroke: rgb(148, 103, 189); stroke-opacity: 1; stroke-width: 2px;"/></g><g class="legendsymbols"><g class="legendpoints"/></g></g><rect class="legendtoggle" pointer-events="all" x="0" y="-11.25" width="173" height="22.5" style="cursor: pointer; fill: rgb(0, 0, 0); fill-opacity: 0;"/></g></g></g><rect class="scrollbar" rx="20" ry="3" width="0" height="0" x="0" y="0" style="fill: rgb(128, 139, 164); fill-opacity: 1;"/></g><g class="g-gtitle"><text class="gtitle" x="490" y="50" text-anchor="middle" dy="0em" style="font-family: 'Open Sans', verdana, arial, sans-serif; font-size: 21px; fill: rgb(51, 51, 51); opacity: 1; font-weight: normal; white-space: pre;">time vs amplitude</text></g><g class="g-xtitle"><text class="xtitle" x="450" y="484" text-anchor="middle" style="font-family: 'Open Sans', verdana, arial, sans-serif; font-size: 18px; fill: rgb(51, 51, 51); opacity: 1; font-weight: normal; white-space: pre;">time(ms)</text></g><g class="g-ytitle"><text class="ytitle" transform="rotate(-90,34,260)" x="34" y="260" text-anchor="middle" style="font-family: 'Open Sans', verdana, arial, sans-serif; font-size: 18px; fill: rgb(51, 51, 51); opacity: 1; font-weight: normal; white-space: pre;">amplitude</text></g></g></svg>