<svg class="main-svg" xmlns="http://www.w3.org/2000/svg" xmlns:xlink="http://www.w3.org/1999/xlink" width="980" height="500" viewBox="0 0 980 500"><rect x="0" y="0" width="980" height="500" style="fill: rgb(255, 255, 255); fill-opacity: 1;"/><defs id="defs-15b196"><g class="clips"><clipPath id="clip15b196xyplot" class="plotclip"><rect width="678" height="320"/></clipPath><clipPath class="axesclip" id="clip15b196x"><rect x="80" y="0" width="678" height="500"/></clipPath><clipPath class="axesclip" id="clip15b196y"><rect x="0" y="100" width="980" height="320"/></clipPath><clipPath class="axesclip" id="clip15b196xy"><rect x="80" y="100" width="678" height="320"/></clipPath></g><g class="gradients"/></defs><g class="bglayer"><rect class="bg" x="80" y="100" width="678" height="320" style="fill: rgb(237, 237, 237); fill-opacity: 1; stroke-width: 0;"/></g><g class="layer-below"><g class="imagelayer"/><g class="shapelayer"/></g><g class="cartesianlayer"><g class="subplot xy"><g class="layer-subplot"><g class="shapelayer"/><g class="imagelayer"/></g><g class="gridlayer"><g class="x"><path class="xgrid crisp" transform="translate(164.75,0)" d="M0,100v320" style="stroke: rgb(255, 255, 255); stroke-opacity: 1; stroke-width: 1px;"/><path class="xgrid crisp" transform="translate(249.5,0)" d="M0,100v320" style="stroke: rgb(255, 255, 255); stroke-opacity: 1; stroke-width: 1px;"/><path class="xgrid crisp" transform="translate(334.25,0)" d="M0,100v320" style="stroke: rgb(255, 255, 255); stroke-opacity: 1; stroke-width: 1px;"/><path class="xgrid crisp" transform="translate(419.01,0)" d="M0,100v320" style="stroke: rgb(255, 255, 255); stroke-opacity: 1; stroke-width: 1px;"/><path class="xgrid crisp" transform="translate(503.76,0)" d="M0,100v320" style="stroke: rgb(255, 255, 255); stroke-opacity: 1; stroke-width: 1px;"/><path class="xgrid crisp" transform="translate(588.51,0)" d="M0,100v320" style="stroke: rgb(255, 255, 255); stroke-opacity: 1; stroke-width: 1px;"/><path class="xgrid crisp" transform="translate(673.26,0)" d="M0,100v320" style="stroke: rgb(255, 255, 255); stroke-opacity: 1; stroke-width: 1px;"/></g><g class="y"><path class="ygrid crisp" transform="translate(0,375.2)" d="M80,0h678" style="stroke: rgb(255, 255, 255); stroke-opacity: 1; stroke-width: 1px;"/><path class="ygrid crisp" transform="translate(0,317.59000000000003)" d="M80,0h678" style="stroke: rgb(255, 255, 255); stroke-opacity: 1; stroke-width: 1px;"/><path class="ygrid crisp" transform="translate(0,202.38)" d="M80,0h678" style="stroke: rgb(255, 255, 255); stroke-opacity: 1; stroke-width: 1px;"/><path class="ygrid crisp" transform="translate(0,144.77)" d="M80,0h678" style="stroke: rgb(255, 255, 255); stroke-opacity: 1; stroke-width: 1px;"/></g></g><g class="zerolinelayer"><path class="xzl zl crisp" transform="translate(80,0)" d="M0,100v320" style="stroke: rgb(255, 255, 255); stroke-opacity: 1; stroke-width: 1px;"/><path class="yzl zl crisp" transform="translate(0,259.99)" d="M80,0h678" style="stroke: rgb(255, 255, 255); stroke-opacity: 1; stroke-width: 1px;"/></g><path class="xlines-below"/><path class="ylines-below"/><g class="overlines-below"/><g class="xaxislayer-below"/><g class="yaxislayer-below"/><g class="overaxes-below"/><g class="plot" transform="translate(80, 100)" clip-path="url('#clip15b196xyplot')"><g class="scatterlayer mlayer"><g class="trace scatter traceac9ba3e9-a0e6-4ba9-bac1-54aef837dc02" style="stroke-miterlimit: 2; opacity: 1;"><g class="fills"/><g class="errorbars"/><g class="lines"><path class="js-line" d="M0,166.93L0.01,167.98L0.11,106.96L0.12,100.62L0.2,73.25L0.64,237.01L0.66,233.59L0.67,233.66L0.71,236.97L0.99,162.05L1,154.65L1.3,25.88L1.67,222.83L1.68,226.03L1.79,244.75L1.98,163.53L1.99,159.2L2.27,77.63L2.67,177.9L2.7,174.05L2.71,172.47L3,150.29L3.46,267.93L3.58,218.68L3.59,209.98L3.89,40.4L4.27,246.44L4.28,250.01L4.39,274.86L4.63,114.26L4.64,107.67L4.84,32.76L5.14,247.9L5.15,258.22L5.28,297.57L5.67,101.31L5.68,95.3L5.78,31.89L6.22,198.08L6.23,203.11L6.66,120.31L7.11,269.77L7.12,267.06L7.6,41.73L7.93,216.3L7.95,221.81L8.03,262.82L8.36,90.17L8.37,88.83L8.62,64.16L9.04,237.47L9.29,155.24L9.3,149.57L9.5,82.58L9.91,233.46L9.92,231.04L9.98,236.62L10.15,172.64L10.16,168.27L10.45,114.27L10.77,240.84L10.78,240.58L10.8,244.79L10.89,284.79L11.34,97.69L11.36,99.52L11.37,100.18L11.48,90.08L11.93,208.13L12.15,110.08L12.16,103.9L12.42,19.66L12.77,164.39L12.78,165.92L12.82,169.69L13.33,151.79L13.35,151.96L13.36,151.7L13.77,216.08L14.03,165.07L14.04,160.03L14.14,125.48L14.44,267.11L14.45,277.52L14.64,303.62L14.95,88L14.96,77.84L15.11,30.3L15.53,261.29L15.54,265.51L15.55,267.31L15.77,173.1L15.78,167.56L16.07,24.83L16.31,151.59L16.33,165.96L16.57,242.19L16.99,103.83L17,98.83L17.05,88.96L17.46,157.27L17.63,152.98L17.64,155.03L17.65,151.8L18.11,245.21L18.12,248.49L18.25,268.26L18.56,143.15L18.57,138.03L18.78,61.34L19.17,211.25L19.19,216.01L19.21,218.37L19.34,195.17L19.36,195.46L19.37,192.24L19.84,89.55L20.14,177.07L20.15,178.52L20.39,244.59L20.73,93.32L20.77,104.64L20.79,104.99L20.83,102.39L21.35,208.09L21.78,180.36L21.79,180.18L22.2,216.74L22.55,87.21L22.71,120.99L22.72,127L22.93,221.39L23.34,40.12L23.35,33.95L23.38,28.75L23.75,158.21L23.76,161.86L24.01,255.36L24.25,135.48L24.44,136.43L24.45,134.21L24.54,122.38L24.62,172.98L24.63,173.79L24.79,242.8L25.23,128.57L25.25,126.56L25.44,106.32L25.67,211.54L25.68,221.78L25.86,270.59L26.23,72.45L26.24,67.76L26.32,49.54L26.54,163.11L26.55,169.08L26.82,246.83L27.14,82.73L27.15,76.57L27.25,47.36L27.62,184.48L27.63,192.44L27.75,246.66L28.16,108.5L28.28,121.2L28.29,116.03L28.33,104.75L28.65,177.76L28.66,182.96L29.11,152.43L29.42,269.37L29.43,276.97L29.54,303.82L29.87,116.53L29.89,104.71L30.12,74.68L30.39,204.71L30.46,197.78L30.47,197.52L30.48,198.37L30.7,155.53L30.71,150.23L31,68.59L31.33,191.3L31.34,198.47L31.55,225.29L31.96,91.84L31.97,95.64L31.98,94.21L32.01,85.77L32.46,190.73L32.51,176.7L32.52,177.81L32.64,196.93L32.8,153.97L33.05,196.3L33.06,200.32L33.18,239.64L33.61,82.23L33.83,147.12L33.84,155.23L34.12,255.51L34.48,77.34L34.49,77.36L34.62,59.44L34.75,106.42L34.76,110.24L35.06,242.3L35.47,109.33L35.48,104.36L35.57,99.88L35.77,176.95L35.78,184.31L35.98,224.3L36.42,106.09L36.43,107.31L36.44,111.1L36.8,223.04L37.07,148.69L37.08,139.46L37.15,74.63L37.65,229.63L37.72,223.88L37.74,227.98L37.76,232.57L37.98,105.88L37.99,100.49L38.34,58.52L38.59,195.2L38.6,202.34L38.73,225.12L39.25,126.7L39.26,123.13L39.45,170.09L39.46,177.39L39.54,211.65L40.03,134.78L40.05,133.6L40.31,209.06L40.32,216.96L40.49,271.95L40.91,106.75L40.93,106.95L40.95,106.71L41,94.88L41.22,136.24L41.23,139.13L41.58,195.88L41.79,103.03L41.82,107.46L41.84,110.84L42,58.91L42.18,138.61L42.2,141.84L42.46,171.16L42.88,134.72L42.92,135.16L42.93,133.33L43.41,195.8L43.81,170.49L43.82,169.16L43.92,217.94L43.93,219.64L44.16,293.54L44.47,145.51L44.48,140.2L44.63,30.7L45.12,244.42L45.13,243.81L45.25,251.82L45.49,112.48L45.5,107.19L45.67,21.92L46.1,239.18L46.12,240.49L46.13,241.13L46.27,202.35L46.28,195.81L46.67,116.91L47.26,133.92L47.27,137.65L47.9,280.98L48.13,182.9L48.14,177.15L48.4,85.73L48.8,218.61L48.81,222.79L48.82,223.58L49.03,188.92L49.04,180.15L49.42,45.59L49.79,175.51L49.8,185.69L50.01,232.54L50.33,118.84L50.45,130.82L50.46,128.11L50.83,220.28L51.39,207.83L51.4,205.91L51.98,79.87L52.26,143.87L52.27,150.13L52.44,211.12L52.79,130.6L52.8,126.54L52.86,79.74L53.41,214.4L53.45,211.68L53.46,210.51L53.52,218.34L53.64,196.17L53.65,191.97L54.01,71.69L54.34,193.89L54.35,192.09L54.36,192.11L54.4,182.14L54.43,197.8L54.44,210.48L54.78,157.99L55.27,275.36L55.28,272.91L55.29,268.68L55.37,281.47L55.46,233.44L55.47,222.22L55.81,16.75L56.22,217.05L56.23,218.71L56.33,242.41L56.45,178.92L56.47,174.75L56.75,16.6L57.15,203.02L57.16,212.31L57.25,260.06L57.64,135.11L57.76,151.04L57.77,146.5L57.86,126.67L58.27,212.23L58.5,154.33L58.51,153.19L58.62,138.64L58.82,187.71L58.83,195.03L59,303.59L59.43,72.16L59.44,70.28L59.58,59.64L59.7,101.54L59.71,108.99L59.97,234.31L60.35,74.92L60.36,65.59L60.52,19.2L60.89,200.53L60.9,202.37L61,233.34L61.32,135.43L61.33,131.27L61.62,97.13L62,194.73L62.01,194.37L62.28,157.85L62.62,221.34L62.77,204L62.78,197.83L63.12,80.95L63.42,209.68L63.43,214.21L63.61,256.54L63.81,138.15L63.82,133.02L64.07,40.36L64.28,165.47L64.29,175.58L64.61,247.35L64.86,125.87L64.87,121.03L64.95,78.01L65.42,212.51L65.46,211.02L65.47,210.77L65.82,114.29L66.13,190.78L66.14,192.45L66.32,232.09L66.55,125.93L66.56,116L66.69,49.69L67.19,242.63L67.2,247.81L67.22,253.82L67.66,89.07L67.67,87.56L67.82,64.71L68.27,246.18L68.55,128.91L68.56,122.31L68.7,86.85L68.88,152.81L68.89,161.48L69.05,239.34L69.59,133.08L69.6,130.06L69.63,115.42L69.94,263.36L69.95,263.88L70.02,275.62L70.03,278.97L70.13,291.05L70.22,237.08L70.23,230.01L70.63,66.29L71.03,183.24L71.04,183.58L71.11,200.4L71.42,85.35L71.43,74.28L71.59,45.07L71.89,170.88L71.94,168.72L71.95,169.15L72.04,177.57L72.41,137.43L72.75,154.95L72.76,159.06L72.78,158.14L72.91,212.53L73.08,178.04L73.09,173.09L73.32,127.23L73.64,303.73L73.65,303.4L73.66,303.56L73.8,303.93L73.81,302.22L73.82,296.05L74.2,17.29L74.56,206.87L74.57,218.27L74.74,283.2L75.14,48.42L75.15,46.56L75.27,28.59L75.64,197.67L75.65,201.18L75.73,221.14L76.11,116.05L76.12,109.55L76.19,82.04L76.78,157.1L76.8,157.53L77.43,283.17L77.65,196.19L77.66,188.55L77.94,66.22L78.36,225.93L78.37,224.78L78.38,226.69L78.69,144.91L78.7,139.34L79,54.84L79.34,195.63L79.35,201.4L79.58,249.87L79.87,104.23L79.91,112.13L79.92,113.87L79.98,112.26L80.42,223.98L80.91,211.44L80.92,210.72L81.54,81.78L81.88,159.96L81.89,166L82.01,199.95L82.35,114.44L82.36,105.1L82.43,75.39L82.94,182.61L82.96,181.81L82.97,190.53L83.13,229.88L83.32,124.03L83.33,119.48L83.62,104.62L83.77,183.93L83.78,190.68L83.87,223.56L84.4,141.92L84.41,141.65L84.42,140.34L84.68,201.76L84.69,207.87L84.85,291.8L85.23,111.54L85.24,103.1L85.38,23.77L85.85,230.88L85.86,240.75L85.91,257.22L86.26,65.78L86.27,57.47L86.32,40.32L86.77,240.86L86.79,250.32L86.95,269.2L87.24,116.59L87.3,123.42L87.32,120.06L87.44,86.54L87.92,203.27L87.97,192.14L87.98,190.66L88.2,148.29L88.54,285.48L88.55,293.34L88.59,296.09L88.65,287.38L88.66,282.4L89.03,90.33L89.49,216.15L89.5,217.82L89.67,226.22L89.84,146.97L89.85,137.4L90.13,20.32L90.44,188.89L90.45,192.91L90.56,225.24L90.96,84.91L91.05,88.65L91.07,91.35L91.12,86.02L92.2,232.61L92.24,217.96L92.25,213.13L92.66,45.28L92.98,201.98L92.99,206.66L93.15,277.72L93.16,281.73L93.62,41.44L93.86,165.6L93.87,177.41L94.06,261.44L94.52,100.95L94.53,93.68L94.58,56.01L95.01,209.49L95.15,179.79L95.17,178.57L95.3,136.6L95.31,130.15L95.41,102.72L95.77,242.87L95.78,245.86L95.92,258.67L96.06,216.92L96.07,209.88L96.39,67.01L96.76,218.56L96.78,224.59L96.82,246.89L97.25,73.56L97.32,79.27L97.33,78.44L97.4,56.87L97.75,232.12L97.76,230.4L97.77,235.14L97.82,252.85L98.26,83.31L98.27,80.59L98.3,77.01L98.4,130.6L98.41,137.4L98.78,228.53L99.04,134.32L99.05,129.43L99.23,126.75L99.36,202.97L99.37,214.96L99.69,277.51L100,124.21L100.01,118.96L100.02,119.32L100.13,96.87L100.15,99.67L100.17,96.47L100.28,119.55L100.29,125.45L100.68,202.62L100.97,89.28L100.98,84.53L101.14,18.94L101.48,173.92L101.49,177.28L101.57,186.36L101.93,138.79L102.19,162.78L102.2,161.3L102.32,155.16L102.47,196.12L102.91,171.11L102.92,176.85L103.25,299.22L103.59,138.4L103.6,129.44L103.78,51.11L104.2,264.79L104.21,262.95L104.22,264.26L104.33,271.6L104.39,239.38L104.4,231.19L104.78,21.15L105.18,203.38L105.19,201.81L105.27,222.66L105.38,195.75L105.39,192.09L105.73,93.57L106.2,170.18L106.21,168.45L106.28,152.86L106.64,195.51L106.65,197.8L106.92,238.44L107.22,143.12L107.23,136.12L107.53,84.57L107.88,220.32L107.89,221.81L107.95,237.99L108.24,119.46L108.25,110.93L108.53,76.73L108.87,196.67L108.88,204.19L108.96,229.66L109.37,110.42L109.42,113.8L109.44,115.37L109.52,109.25L109.69,178.69L109.7,180.27L110.41,221.23L110.49,210.26L110.51,207.48L110.59,208.44L111,79.78L111.27,136.8L111.28,140.38L111.5,198.81L111.88,92.67L111.89,91.74L111.91,84.28L112.35,180.22L112.36,181.69L112.6,216.06L112.77,140.37L112.78,136.02L113.09,92.84L113.35,219.8L113.47,187.21L113.48,191.23L113.95,144.05L114.34,285.03L114.36,284.48L114.37,284.4L114.38,286.79L114.62,168.39L114.63,160.79L114.93,16.8L115.28,198.92L115.29,205.19L115.4,252.31L115.72,73.87L115.73,66.31L115.86,33.18L116.18,190.67L116.19,195.32L116.31,260.62L116.74,116.13L116.82,116.77L116.83,113.56L116.89,89.71L117.34,201.3L117.47,185.61L117.48,181.5L117.63,162.02L117.94,247.42L117.95,256.92L118.06,303.76L118.44,99.66L118.45,90.37L118.49,68.46L118.99,227.96L119.02,216.84L119.03,220.39L119.05,222.52L119.29,151.42L119.3,151.73L119.31,146.47L119.57,31.54L119.95,195.6L119.97,203.07L120.07,224.37L120.39,106.87L120.4,99.44L120.58,75.92L120.88,175.43L120.89,178.87L121.33,167.29L121.7,241.6L121.78,232.83L121.79,230.26L122.13,77.85L122.14,72.71L122.17,62.49L122.47,207.66L122.48,209.83L122.64,253.08L122.8,170.4L122.82,159.2L123.13,35.35L123.46,241.76L123.47,246.27L123.56,277.91L123.84,168.35L123.85,161.77L124.04,70.31L124.47,211.37L124.56,192.4L124.57,194.11L124.6,197.2L124.73,170.1L124.74,168.87L124.87,119.03L125.3,242.65L125.32,244.86L125.72,68.82L126.09,184.07L126.1,186.62L126.29,245.52L126.61,88.78L126.62,90.63L126.63,92.4L126.85,55.59L126.94,93.52L126.95,101.21L127.29,237.74L127.7,104.68L127.71,107.36L127.78,94.68L128.15,223.83L128.17,228.86L128.65,133.68L128.98,268.44L128.99,267.62L129.16,296.27L129.35,184.46L129.36,180.14L129.67,83.2L130.08,191.93L130.09,197.12L130.13,199.07L130.36,106.22L130.37,105.15L130.63,27.4L130.95,159.34L130.96,162.69L131.07,177.17L131.43,148.25L131.7,167L131.71,163.48L131.77,149.09L132.02,202.68L132.42,174.64L132.43,178.34L132.58,231.32L132.59,237.4L132.71,300.25L133.09,96.24L133.1,86.67L133.26,19.31L133.67,266.8L133.68,270.45L133.79,291.55L133.94,202.31L133.95,195.95L134.27,38.75L134.63,209.95L134.67,207.69L134.68,211.54L134.73,223.28L134.81,193.75L134.82,190.77L135.21,91.23L135.69,143.12L135.7,145.86L135.78,143.27L136.26,222.08L136.27,228.28L136.38,245.87L136.64,172.97L136.65,167.61L136.92,87.24L137.3,215.89L137.31,215.59L137.4,230.37L137.64,168.39L137.65,168.44L137.66,166.33L137.67,167.05L137.75,121.82L137.76,115.42L138.02,51.13L138.35,196.26L138.36,202.7L138.53,233L138.83,118.04L138.84,114.38L138.85,113.17L139.15,164.79L139.16,169.45L139.9,211.36L140.03,199.78L140.04,196.18L140.52,84.6L140.81,138.53L140.82,141.68L140.99,199.81L141.35,104.27L141.37,94.94L141.42,63.02L141.97,199.65L141.98,198.81L141.99,195.85L142.11,225.38L142.31,122.88L142.32,115.67L142.38,100.35L142.9,228.24L142.96,214.88L142.98,213.09L143.06,219.97L143.45,138.62L143.7,209.03L143.71,213.93L143.83,282.16L144.2,118.48L144.21,111.41L144.38,30.78L144.69,167.59L144.7,177.42L144.89,257.38L145.27,32.73L145.28,29.61L145.31,25.36L145.54,77.68L145.55,82.26L145.84,248.31L146.33,116.68L146.34,111.18L146.41,98.24L146.69,194.27L146.83,182.6L146.84,186.4L147.14,160.45L147.53,286.51L147.72,226.02L147.73,221.97L148.01,94.2L148.44,224.22L148.45,229.04L148.46,229.99L148.75,186.32L148.76,183.02L149.14,16.21L149.45,187.65L149.46,192.57L149.61,236.17L149.86,121.08L149.87,113.58L150.12,80.51L150.31,148.61L150.32,151.11L150.59,234.05L151.21,226.93L151.22,228L151.68,44.52L151.86,140.14L151.87,142.31L152.16,263.97L152.36,116.15L152.45,116.85L152.46,112.37L152.66,56.55L153.01,252.03L153.04,247.95L153.05,249.95L153.07,255.16L153.47,109.77L153.48,100.84L153.55,68.01L153.97,213.85L153.98,217.06L154.01,220.09L154.28,172.98L154.29,166.6L154.46,113.38L154.87,251.32L154.91,249.35L154.93,248.92L154.94,249.12L155,239.12L155.01,235.21L155.06,237.14L155.32,27.21L155.68,164.7L155.69,167.48L155.83,251.09L156.22,70.62L156.23,74.42L156.42,56.05L156.86,254.34L157.11,145.84L157.12,141.12L157.31,93.83L157.56,184.11L157.57,189.17L157.75,224.22L158.24,123.94L158.25,125.67L158.62,270.15L158.87,206.77L158.88,203.06L159.19,92.58L159.6,182.11L159.61,187.26L159.68,205.6L160.14,41.34L160.15,41.63L160.16,40.37L160.39,143.94L160.4,149.85L160.55,188L160.95,133.14L161.15,151.38L161.17,150.36L161.19,148L161.4,179.6L161.41,182.79L161.92,143.67L162.29,303.36L162.44,265.9L162.45,259.57L162.81,16.6L163.18,223.55L163.19,230.28L163.32,265.15L163.74,58.13L163.75,54.35L163.79,40.44L164.17,215.87L164.18,218.32L164.31,238.93L164.43,208.95L164.44,202.97L164.79,101.72L165.28,140.02L165.29,142.32L165.35,129.19L165.68,176.47L165.69,181.78L166.03,266.34L166.34,141.25L166.35,133.4L166.58,68.5L166.93,209.13L166.94,212.95L167.06,229.07L167.32,143.66L167.33,138L167.59,59.63L167.89,185.75L167.9,189.08L168.08,229.41L168.29,181.81L168.31,176.49L168.5,97.95L168.95,190.18L169.04,185.7L169.05,190.3L169.3,166.21L169.52,222.09L169.82,194.85L169.83,191.26L169.94,206.42L170.24,91.88L170.59,182.96L170.6,184.88L170.63,186.97L170.66,177.87L170.67,171.73L171.08,57.7L171.42,166.81L171.43,166.8L171.74,260.46L172,122.48L172.06,131.78L172.07,131.75L172.19,112.86L172.52,220.62L172.88,158.27L172.89,154.65L172.96,118.88L173.41,249.15L173.42,253.73L173.46,267.33L173.87,88.12L173.88,85.37L174.02,36.37L174.47,229.84L174.48,238.13L174.51,247.58L174.92,51.09L174.93,49.13L174.94,48L175.15,107.33L175.16,109.71L175.46,252.3L175.68,181.22L175.69,173.53L176.03,104.37L176.39,201.68L176.4,202.4L176.82,136.58L177.2,299.37L177.31,254.49L177.32,247.37L177.6,87.73L178.13,206.09L178.14,209L178.15,209.38L178.27,190.05L178.31,193.28L178.32,187.31L178.74,45.14L179.03,172.33L179.04,173.59L179.19,228.55L179.58,106.04L179.62,114.55L179.63,113.71L180.19,204.05L180.44,152.87L180.45,144.26L180.49,142.16L180.67,192.91L180.68,196.81L180.89,238.55L181.08,150.56L181.09,146.72L181.33,50.09L181.66,204.71L181.68,209.46L181.82,273.24L182.18,60.12L182.19,56.87L182.28,31.05L182.47,154.02L182.48,163.08L182.69,270.63L183.16,91.24L183.17,82.8L183.2,61.49L183.62,217.58L183.77,200.32L183.78,198.17L184.1,104.07L184.24,165.3L184.25,172.67L184.54,253.99L184.82,83.2L184.83,76.37L185.01,62.39L185.27,172.64L185.28,177.72L185.44,251.06L185.71,104.06L185.72,101.81L186.01,63.61L186.14,116.85L186.15,121.51L186.41,246.2L186.86,92.62L186.87,94.45L186.88,90.91L186.92,82.19L187.25,200.88L187.26,197.99L187.27,198.93L187.39,211.13L187.67,152.04L187.79,154.73L187.8,151.37L187.84,141.43L188.22,282.44L188.28,275.9L188.29,281.34L188.32,281.57L188.55,132.48L188.56,123.87L188.82,78.76L188.96,159.65L188.97,161.32L189.09,136.45L189.14,156.69L189.15,162.07L189.26,200.98L189.74,24.07L189.75,24.45L189.77,22.63L189.97,113.12L189.98,119.73L190.49,183.79L190.8,167.73L190.81,169.48L191.14,200.53L191.4,153.74L191.41,153.83L191.42,154.23L191.43,152.5L191.71,231.22L191.72,238.53L191.87,297.19L192.21,128.74L192.22,120.54L192.37,44.92L192.71,216.85L192.72,226.4L192.87,263.71L193.15,114.62L193.16,109.08L193.35,25.08L193.76,222.15L193.77,222.45L193.88,232.15L194.28,127.84L194.29,122.18L194.33,103.97L194.95,156L194.96,160.54L195.56,259.04L195.76,184.11L195.78,177.04L196.04,86.71L196.49,211.92L196.5,214.27L196.56,219.5L196.72,148.97L196.73,142.61L197.04,58.91L197.32,137.9L197.33,143.75L197.53,234.92L197.96,106.72L197.97,108.8L198.2,152.16L198.21,156.38L199.06,230.88L199.1,214.28L199.11,207.71L199.17,214.29L199.59,69.79L199.96,167.66L199.97,177.13L200.01,196L200.51,64.08L200.57,88.36L200.59,91.71L200.66,79.95L201.18,253.56L201.35,155.96L201.36,145.41L201.43,108.42L201.93,225.24L202.06,185.65L202.07,186.46L202.39,129.53L202.92,282.15L203.07,245.15L203.09,240.4L203.46,33.23L203.86,213.18L203.87,214.68L203.96,257.58L204.16,162.24L204.17,151.76L204.4,16.73L204.82,219.82L204.83,229.24L204.9,256.95L205.3,113.16L205.39,113.81L205.41,109.79L205.49,83.6L205.89,197.6L205.9,199.56L205.99,203.45L206.23,166.91L206.36,197.45L206.37,198.64L206.52,244.27L206.53,248.94L206.63,293.37L207.05,89.52L207.06,86.04L207.16,99.49L207.23,69.77L207.31,88.32L207.32,97.88L207.7,226.92L207.97,108.48L207.98,101.66L208.18,35.77L208.59,231.59L208.6,233.22L208.66,234.05L208.7,222.49L208.71,216.56L209.13,69.9L209.51,187.37L209.52,192.63L209.67,202.38L209.92,164.26L210.15,197.02L210.16,205.16L210.3,239.87L210.67,79.36L210.68,71.72L210.71,59.23L211.12,249.83L211.13,252.1L211.23,278.24L211.47,118.57L211.48,112.93L211.67,43.08L211.97,220.48L211.98,226.88L212.12,279.57L212.48,109.94L212.49,102.82L212.62,56.79L213.03,191.18L213.04,189.27L213.05,186.97L213.17,195.88L213.26,172.45L213.27,164.19L213.45,95.88L213.88,250.45L213.89,253.3L213.93,265.56L214.11,203.03L214.12,189.2L214.3,61.02L214.82,270.36L214.83,270.68L214.84,271.28L214.94,236.72L214.95,231.01L215.44,33.1L215.63,158.44L215.64,171.77L215.85,257.09L216.31,87.11L216.32,83.09L216.35,77.35L216.45,129.38L216.47,134.19L216.76,235.27L217.11,146.3L217.12,144.54L217.24,109.08L217.38,194.69L217.39,201.65L217.7,269.63L217.98,116.21L217.99,112.69L218.17,78.36L218.55,180.24L218.56,186.92L218.66,221.68L219.04,84.15L219.05,78.81L219.16,44.6L219.37,127.28L219.38,133.28L219.62,171.61L219.99,130.23L220.14,141.03L220.15,141.3L220.33,140.18L220.48,197.91L220.85,146.24L220.86,144.23L221.36,303.61L221.61,148.17L221.62,139.04L221.84,16.79L222.14,199.23L222.15,206.07L222.32,277.66L222.62,114.15L222.63,104.8L222.82,18.4L223.26,227.94L223.27,231.92L223.3,239.82L223.71,116.12L223.72,108.49L223.76,98.52L224.26,163.39L224.37,158.53L224.38,165.79L224.51,163.48L224.93,268.84L225.18,200.82L225.19,194.83L225.53,64.21L225.86,187.19L225.87,189.8L225.97,244.22L226.3,124.68L226.31,120.34L226.56,43.96L226.78,135.47L226.79,144.56L227.04,254.49L227.37,134.2L227.38,126.7L227.58,89.82L228,209.94L228.01,214.61L228.03,217.65L228.38,180.48L228.66,195.35L228.67,190.32L229.09,89.14L229.43,173.67L229.44,181.53L229.54,210.18L229.69,144.61L229.82,146.49L229.83,144.28L229.98,64.1L230.33,148.92L230.34,158.13L230.68,241.02L231.01,127.89L231.05,133.92L231.06,133.06L231.14,122.55L231.24,146.92L231.25,152.69L231.64,210.76L231.84,146.43L231.88,149.9L231.89,144.79L231.99,138.17L232.32,233.05L232.34,241.84L232.41,293.86L232.85,53.11L232.86,44.79L232.96,20.83L233.21,143.19L233.23,148.89L233.51,257.18L233.69,137.88L233.7,131.42L233.9,38.34L234.33,217.27L234.34,228.22L234.54,249.8L234.91,120.78L234.92,118.06L235.02,87.54L235.32,203.77L235.33,207.67L235.83,146.87L236.13,302.53L236.24,271.32L236.25,265.95L236.67,76.26L236.92,173.71L236.93,182.49L237.08,238.12L237.49,86.72L237.5,75.83L237.69,33.66L237.9,135.28L237.91,141.27L238.17,236.55L238.38,143.73L238.39,139.73L238.67,77.21L238.86,136.32L238.87,139.02L239.83,236.01L239.84,234.35L239.88,228.12L239.89,225.49L240.25,44.33L240.57,215.72L240.58,217.71L240.73,275.29L240.98,126.39L240.99,119.67L241.17,47.16L241.49,208.47L241.5,215.58L241.63,279.58L242.06,103.97L242.07,97.85L242.19,62.05L242.49,185.97L242.51,191.17L242.56,197.81L242.84,164.02L242.85,160.8L243.02,110.17L243.31,220.85L243.32,227.14L243.43,254.08L243.79,96.71L243.8,93.35L243.86,62.52L244.33,229.47L244.34,233.6L244.37,244.88L244.62,120.71L244.63,112.34L244.97,55.92L245.2,188.95L245.21,193.16L245.4,272.87L245.57,190L245.58,187.1L245.87,91.2L246.06,163.15L246.08,165.57L246.26,221.82L246.74,119.36L246.75,118.9L246.8,117.24L246.9,189L246.91,196.33L247.17,292.44L247.45,175.22L247.46,165.24L247.72,77.97L248.15,198.26L248.16,203.22L248.19,206.51L248.7,37.39L248.86,124.56L248.87,130.81L249.06,192.68L249.64,145.28L249.65,144.92L249.69,137.23L250.09,192.95L250.26,173.39L250.27,175.94L250.39,153.13L250.65,251.16L250.66,258.15L250.75,303.78L251.17,108.28L251.18,98.1L251.27,36.21L251.79,261.89L251.8,265.34L251.83,270.75L251.92,235.19L251.93,222.8L252.33,23.12L252.69,206.39L252.7,210.2L252.82,227.79L253.29,101.59L253.3,103.5L253.31,101.86L253.73,155.93L253.75,154.92L253.84,127.04L254.2,203.65L254.21,210.54L254.35,261.63L254.82,109.78L254.83,108.43L254.93,88.5L255.09,128.77L255.1,133.87L255.47,238.27L255.79,106.83L255.8,98.22L255.99,52.62L256.39,227.86L256.4,235.13L256.45,250.68L256.74,154.43L256.75,154.58L256.76,151.64L256.83,142.2L256.84,139.8L257.02,114.18L257.45,208.78L257.51,194.83L257.52,196.42L257.63,187.63L258.06,211.67L258.08,209.95L258.09,212.21L258.14,220.68L258.39,183.41L258.4,179.08L258.52,90.11L258.97,215.6L259.14,150.62L259.15,146.62L259.22,157.93L259.26,134.57L259.28,128.13L259.44,38.07L259.88,182.83L259.89,188.02L260.08,226.79L260.4,108.09L260.57,141.67L260.58,139.77L260.89,224.12L261.34,124.2L261.36,125.89L261.37,131.47L261.86,290.15L262.11,162.85L262.13,151.49L262.32,39.75L262.69,210.21L262.7,217.18L262.9,240.24L263.1,100.71L263.11,95.38L263.32,16.82L263.66,166.69L263.67,171.61L263.77,254.05L264.23,123.23L264.31,131.7L264.32,128.9L264.4,104.89L264.68,208.26L264.75,202.18L264.76,203.27L264.81,206.28L265.05,157.33L265.06,151.18L265.11,136.55L265.5,303.6L265.53,303.54L265.54,303.5L265.57,303.8L265.58,300.56L265.59,293.1L265.96,76.22L266.29,177.48L266.3,184.16L266.47,231.98L266.88,72.43L266.89,67.32L267.04,32.83L267.45,210.97L267.46,211.5L267.52,230.79L267.66,199.18L267.67,194.14L268.03,93.2L268.37,183.56L268.38,188.37L268.83,180.84L269.1,221.94L269.18,216.94L269.19,212.49L269.59,70.03L269.85,211.66L269.86,219.23L270.03,281.88L270.37,73.62L270.38,70.26L270.55,31.77L270.71,104.57L270.72,116.66L270.99,249.14L271.43,80.79L271.44,69.83L271.47,50.39L272.02,208.99L272.04,207.63L272.05,208.22L272.3,120.9L272.71,253.35L272.72,255.13L272.78,269.58L273.11,94.5L273.12,85.41L273.2,40.94L273.67,250.07L273.68,249.9L273.69,255.88L274.04,60.52L274.12,65.12L274.13,63.38L274.29,40.39L274.48,150.12L274.49,157.43L274.72,249.58L275.11,93.17L275.12,87.58L275.17,82.52L275.48,218.99L275.49,217.77L275.51,220.26L275.6,244.13L275.95,143.76L275.96,141.32L276.07,108.82L276.42,286.19L276.43,289.02L276.47,302.23L276.82,137.68L276.83,134.77L276.99,79.05L277.48,196.32L277.49,202.47L277.53,212.57L277.96,24.95L277.99,28.75L278.01,31.97L278.04,26.89L278.19,121.79L278.2,124.73L278.47,182.11L278.97,144.75L278.98,144.33L278.99,143.43L279.3,180.58L279.31,184.6L279.73,150.78L280.21,303.97L280.25,280.04L280.26,278.59L280.66,22.07L280.98,193.2L280.99,200.95L281.15,283.13L281.54,45.67L281.55,35.25L281.69,16.65L281.88,123.02L281.89,132.43L282.13,238.97L282.6,98.16L282.61,100.29L283.52,180.92L283.54,185.36L283.83,269.71L284.16,145.31L284.17,138.98L284.37,78.49L284.76,217.98L284.78,216.4L284.79,218.7L285.11,120.46L285.12,115.47L285.38,40.58L285.62,166.25L285.63,175.07L285.93,273.59L286.26,122.53L286.28,123.92L286.29,120.42L286.36,106.49L286.68,178.16L286.69,184.87L286.82,209.3L286.98,173.38L287.47,204.15L287.48,199.98L287.56,190.4L287.57,180.63L287.89,74.42L288.3,189.34L288.31,193.74L288.37,206.86L288.79,67.91L289.08,119.19L289.09,130.13L289.48,254.23L289.79,123.45L289.85,142.8L289.86,144.23L289.99,118.2L290.23,214.07L290.62,149.63L290.63,145.97L290.71,126.43L291,200.48L291.01,209.02L291.24,285.53L291.52,160.99L291.53,152.36L291.7,31.3L292.2,217.48L292.21,224.44L292.28,250.16L292.57,63.11L292.58,57.41L292.67,16.66L293.11,235.55L293.12,248.2L293.19,278.69L293.74,116.43L293.75,105.97L293.79,96.58L294.13,214.42L294.26,191.51L294.27,189.22L294.51,134.68L294.84,257.07L294.85,269.33L294.96,303.84L295.35,75.73L295.36,73.62L295.37,72.11L295.63,140.81L295.64,146.46L295.84,232.85L296.26,82.62L296.27,73.82L296.45,16.4L296.84,209.9L296.85,213.37L296.98,234.88L297.12,187.27L297.13,179.33L297.47,106.11L297.83,211.64L297.84,211.12L297.93,221.79L298.77,124.76L298.78,122.06L298.8,123.3L298.85,110.74L298.86,104.93L298.98,56.02L299.21,176.05L299.23,184.41L299.49,275.66L299.85,64.7L299.86,63.07L299.96,28.44L300.18,173.06L300.19,189.22L300.41,276.47L300.84,79.79L300.85,74.46L300.88,65.34L301.24,181.22L301.25,183.76L301.74,120.47L302.03,213.47L302.06,211.18L302.07,210.65L302.17,244.03L302.36,178.76L302.37,162.91L302.65,54.67L303.05,252.21L303.06,261.3L303.07,266.39L303.45,81.76L303.46,80.26L303.64,54.52L303.93,185.47L303.94,197.46L304.12,241.22L304.55,90.94L304.61,107.99L304.62,108.96L304.98,254.83L305.26,173.11L305.27,166.24L305.48,129.12L305.69,224.93L305.7,236.02L305.89,280.38L306.24,104.96L306.25,102.15L306.39,59.1L306.61,126.95L306.62,133.17L306.73,156.49L306.74,161.4L306.92,216.66L307.32,53.82L307.33,44.43L307.35,33.62L307.76,167.77L307.95,147.77L307.97,151.41L308.18,124.74L308.81,222.22L308.87,195.92L308.88,189.49L309.06,152.51L309.4,286.73L309.41,295.56L309.43,303.71L309.85,104.53L309.86,91.55L310,16.86L310.41,259.25L310.42,262.97L310.5,298.76L310.89,50.45L310.9,42.1L310.94,16.22L311.38,215.06L311.39,220.32L311.41,226.51L311.92,117.32L311.93,112.74L311.97,105.06L312.4,148.23L312.41,151.04L312.51,131.31L312.57,161.49L312.58,164.33L313.12,261.46L313.36,180.27L313.37,178.51L313.66,69.27L314.06,221.2L314.07,223.86L314.2,252.1L314.52,84.36L314.53,79.24L314.64,36.46L314.99,174.93L315,180.32L315.27,234.66L315.56,115.05L315.57,112.65L315.71,106.74L316.07,201.05L316.08,205.94L316.3,191.51L316.64,233.93L316.82,209.77L316.83,205.49L317.19,50.97L317.58,193.87L317.59,200.51L317.62,216.16L318.04,86.44L318.05,82.22L318.1,63.54L318.6,207.02L318.61,208.42L318.75,242.41L319.04,109.42L319.05,106.86L319.25,102.59L319.48,193.1L319.49,201.06L319.54,212.85L320.07,132.66L320.08,133.38L320.11,128.1L320.24,198.49L320.25,208.37L320.51,287.43L320.86,117.38L320.87,108.44L320.99,37.49L321.42,212.73L321.43,213.56L321.56,241.91L321.61,222.38L321.62,216.71L321.96,23.94L322.36,215.93L322.37,225.06L322.45,262.24L323,103.17L323.01,100.56L323.07,82.79L323.42,202.47L323.62,179.25L323.63,182.78L323.75,155.25L324.21,304L324.33,212.12L324.34,203.72L324.61,74.56L325.08,209.37L325.1,211.7L325.13,222.32L325.51,89.51L325.52,84.74L325.7,30.35L326.11,221.26L326.12,223.31L326.14,238.32L326.68,71.28L326.73,82.04L326.74,81.73L326.77,80.81L326.81,102.78L326.82,107.17L327.7,234.88L327.75,232.11L327.77,230.85L328.2,45.19L328.46,186.83L328.47,193.84L328.7,284.47L328.9,150.93L328.91,142.67L329.14,39.33L329.51,237.53L329.52,245.41L329.63,267.12L330,87.77L330.01,78.99L330.1,50.23L330.54,196.64L330.61,186.89L330.63,190.16L330.66,192.35L330.78,151.91L330.8,144.66L330.88,107.42L331.37,288.25L331.38,291.94L331.8,47.15L332.09,174.91L332.1,182.02L332.31,268.44L332.71,51L332.72,50.56L332.87,41.21L332.93,61.87L332.95,71.03L333.28,249.73L333.71,102.94L333.72,96.07L333.76,68.72L334.25,223.2L334.39,175.68L334.4,176.64L334.65,126.65L334.88,280.94L334.89,286.24L334.94,303.7L335.31,176.13L335.32,168.84L335.58,84.53L336.03,205.82L336.04,207.28L336.34,100.11L336.35,96.03L336.56,17.71L336.89,171.57L336.9,174.13L336.94,183.49L337.32,137.62L337.33,134.25L337.35,132.08L337.85,163.53L337.86,164.81L337.99,192.01L338.06,162.26L338.07,159.43L338.19,151.25L338.65,303.79L338.85,187.91L338.86,180.96L339.08,41.21L339.49,257.76L339.5,263.21L339.61,279.74L339.9,123.77L339.91,113.34L340.14,16.77L340.48,194.23L340.49,200.46L340.54,221.03L341.09,107.57L341.1,103.88L342.05,215.86L342.06,223.1L342.28,250.71L342.65,91.14L342.66,86.82L342.78,49.88L342.96,138.86L342.97,148.15L343.25,254.88L343.6,110.89L343.61,103.46L343.77,28.31L344.18,221.73L344.19,228.88L344.42,257.96L344.68,105.68L344.73,109.9L344.74,110.44L344.88,108.74L345.68,243.27L345.86,220.99L345.87,216.75L346.26,90.81L346.27,79.44L346.29,72.49L346.73,188.78L346.91,139.76L346.92,141.16L346.95,141.51L347.2,57.19L347.45,125.84L347.46,131.64L347.85,232.55L348.11,114.16L348.12,109.66L348.17,96.91L348.61,213.35L348.7,194.68L348.71,195.84L348.79,204.47L348.83,189.14L348.84,182.33L349.09,126.16L349.47,264.1L349.48,264.07L349.49,268.32L349.55,289.96L349.95,112.41L349.96,100.53L350.05,16.63L350.58,250L350.6,253.21L350.62,259.09L350.86,117.66L350.87,109.44L351.01,16.41L351.48,235.93L351.5,247.99L351.54,269.59L352.11,106.14L352.12,101.28L352.15,97.16L352.23,126.52L352.24,130.73L352.29,122.47L353.22,303.86L353.4,248.84L353.41,242.88L353.71,55.72L354.18,225.92L354.19,227.44L354.25,231.11L354.54,131.72L354.55,125.39L354.78,16.77L355.17,224.71L355.18,228.18L355.27,253.5L355.64,113.71L355.65,112.31L355.84,69.75L356.16,202.69L356.21,195.06L356.22,197.8L356.46,182.72L356.83,236.52L356.97,213.39L356.98,208.72L357.36,55.86L357.52,153.67L357.53,161.09L357.81,282.1L358.16,58.12L358.17,54.35L358.23,20.1L358.59,244.06L358.6,248.33L358.71,285.08L359.04,146.28L359.05,134.84L359.22,70.77L359.62,216.88L359.73,202.38L359.74,204.02L359.78,218.35L359.94,148.34L359.95,142.15L360.08,100.35L360.43,231.7L360.44,236.6L360.51,241.31L360.74,129.73L360.75,120.04L360.99,35.74L361.29,219.5L361.31,218.44L361.42,271.5L361.66,129.65L361.67,116.16L362,54.81L362.31,212.9L362.32,219.05L362.44,247.2L362.85,86L362.86,79.69L362.88,73.44L363,112.08L363.01,114.39L363.36,251.98L363.77,131.65L363.78,126.81L363.82,120.01L363.91,189.98L363.92,200.83L364.24,297.98L364.5,139.46L364.52,130.47L364.71,72.26L365.16,187.06L365.17,192.63L365.25,205.77L365.59,56.42L365.6,52.37L365.71,16.75L365.96,161.19L365.97,164.44L366.12,181.66L366.5,144.14L366.73,168.4L366.74,170.39L366.84,158.75L366.99,181.1L367.01,185.26L367.38,142.86L367.83,303.66L367.93,262.14L367.94,250.33L368.33,23.36L368.66,228.4L368.67,240.68L368.84,291.58L369.21,30.23L369.22,27.14L369.24,16L369.62,183.04L369.63,191.57L369.73,248.88L370.21,129.2L370.23,126.21L370.3,105.13L370.87,167.08L370.88,169.68L371.41,253.24L371.65,178.24L371.66,176.56L371.92,63.21L372.34,212.33L372.35,216.71L372.47,248.22L372.59,206.52L372.6,196.19L372.96,51.22L373.34,192.89L373.35,195.29L373.62,253.87L373.89,96.31L373.95,107.84L373.97,108.84L374.02,100.56L374.89,235.72L375.06,202.6L375.07,201.31L375.14,202.18L375.49,70.36L375.84,173.67L375.85,177.13L375.96,217.93L376.25,137.81L376.26,136.84L376.42,70.62L376.81,180.95L376.83,181.41L377.04,224.97L377.27,140.82L377.28,133.38L377.39,91.13L377.84,221.51L377.96,190.9L377.97,193.42L378.3,131.02L378.55,204.42L378.56,212.12L378.8,295.3L379.17,119.36L379.18,109.56L379.29,19.23L379.8,237.64L379.81,247.64L379.88,262.09L380.14,60.53L380.15,56.5L380.26,16.63L380.55,118.81L380.57,125.13L380.77,275.63L381.16,120.71L381.17,119.77L381.37,78.22L381.68,213.78L381.69,217.76L382.08,167.7L382.53,291.17L382.58,265.76L382.59,255.62L382.93,90.18L383.4,206.6L383.41,208.77L383.53,221.42L383.75,119.97L383.76,120.24L383.78,114.41L384.01,21.95L384.26,166.34L384.27,174.06L384.47,246.95L384.88,108.19L384.89,103.87L385.07,71.52L385.36,210.59L385.37,211.48L385.81,193.45L385.94,225.14L385.95,227.11L386.01,246.49L386.22,204.19L386.23,194.5L386.53,38.29L386.93,243.55L386.94,245.34L387.06,285.59L387.26,125.31L387.27,117.57L387.5,16.69L387.79,200.53L387.8,207.99L387.96,261.19L388.38,76.73L388.39,69.41L388.43,65.93L388.69,180L388.7,183.02L388.99,230.58L389.09,181.95L389.1,171.7L389.28,128.67L389.65,246.72L389.67,245.46L389.68,250.42L389.71,264.66L390.1,49.39L390.18,53.74L390.2,54.62L390.63,258.46L390.84,147.55L390.85,135.57L391.23,46.41L391.52,223.02L391.53,224.22L391.61,250.64L391.86,186.61L391.87,182.27L392.12,76.57L392.52,223.05L392.53,225L392.57,238.2L392.93,143.38L392.94,144.14L392.95,143.34L393.02,116.91L393.18,207.12L393.19,212.31L393.42,289.82L393.85,125.49L393.86,120.51L393.95,94.32L394.36,187.55L394.37,189.85L394.4,208.46L394.82,41.5L394.84,34.22L394.93,16.77L395.18,154.7L395.2,157.29L395.39,187.54L395.7,147.33L396.03,175.09L396.04,170.22L396.28,204.22L396.46,153.54L396.74,192.28L396.75,197.3L396.77,196.19L396.92,286.5L396.93,293.96L397.04,303.67L397.39,81.49L397.4,67.13L397.47,16.76L397.97,263.98L397.98,263.5L398.06,286.38L398.26,163.97L398.27,151.39L398.54,22.89L398.94,238.19L398.95,239.08L399.51,81.83L399.95,148.02L399.96,150.77L400.03,139.94L400.45,228.98L400.46,233.02L400.47,232.71L400.56,252.2L400.57,251.25L400.58,252.57L400.69,266.85L400.89,198.45L400.91,191.18L401.19,65.32L401.58,196.4L401.59,201.16L401.7,241.01L402.03,108.9L402.04,99.09L402.23,51.41L402.62,227.22L402.63,232.93L402.8,250.37L403.15,116.99L403.16,117.43L403.26,106.8L403.77,216.82L404.25,194.48L404.26,191.24L404.35,198.09L404.74,75.7L405.03,165.75L405.04,165.94L405.21,232.93L405.56,115.05L405.57,106.27L405.66,46.32L406.17,188.01L406.2,174.88L406.21,175.98L406.32,219.14L406.62,93.31L406.85,154.47L406.86,149.48L407.27,218.7L407.54,137.61L407.58,151.17L407.59,155.1L408.05,298.32L408.35,167.34L408.36,160.93L408.53,17.5L408.94,196.75L408.95,202.85L409.12,235.01L409.29,141.02L409.3,132.47L409.48,16.72L409.91,188.36L409.92,197.11L410.04,276.23L410.54,118.73L410.55,116.63L410.62,96.25L410.86,186.32L410.87,194.63L411.33,138.1L411.73,303.62L411.86,274.94L411.87,267.89L412.19,65.03L412.65,220.92L412.66,227.75L412.69,228.48L412.75,216.4L412.84,220.21L412.86,216.75L413.3,24.5L413.48,119.17L413.49,128.37L413.76,239.65L414.19,86.25L414.2,83.97L414.26,73.29L414.68,207.34L414.69,205.33L414.77,224.75L414.92,199.6L414.93,199.67L414.94,196.6L415.35,229.11L415.81,65.35L415.96,106.35L415.97,112.5L416.33,260.18L416.61,78.65L416.62,70.58L416.78,25.01L417.15,240.03L417.16,244.63L417.25,271.85L417.67,108.45L417.68,103.56L417.74,89.75L418.1,236.02L418.11,236.25L418.57,108.65L418.9,222.23L418.92,226.85L419.01,243.02L419.31,82.04L419.32,72.7L419.36,48.31L419.89,237.49L419.9,244.93L419.93,257.86L420.37,60.29L420.45,71.86L420.46,68.13L420.51,61.35L420.61,106.58L420.62,115.92L420.93,236.05L421.35,111.53L421.36,113.48L421.37,108.94L421.42,101.14L421.85,247.03L421.86,245.86L421.98,186L421.99,181.02L422.02,186.07L422.32,123.87L422.41,177.8L422.42,186.47L422.67,280.09L423.02,109.6L423.03,105.57L423.23,76.74L423.63,181.63L423.64,187.51L423.7,200.08L424.04,74.38L424.05,73.24L424.22,26.42L424.39,134.48L424.4,141.99L424.63,179.6L425.19,159.93L425.2,157.73L425.37,138.6L425.63,188.96L425.93,156.46L425.94,161.89L426.35,303.63L426.64,133.11L426.65,125.63L426.83,18.69L427.27,264.99L427.28,267.58L427.34,275.2L427.49,195.63L427.5,185.11L427.76,16.87L428.21,226.52L428.22,227.26L428.23,227.66L428.32,209.08L428.52,209.41L428.53,207.72L428.83,101.37L429.33,158.91L429.34,163L429.81,262.64L430.08,206.78L430.09,199.79L430.42,63.83L430.83,199.54L430.84,201.98L431,241.46L431.34,82.01L431.35,75.12L431.44,40.73L431.55,68.59L431.56,79.91L431.98,237.9L432.36,128.76L432.37,127.67L432.6,116.88L433.42,227.58L433.6,203.54L433.61,200.84L433.98,67.12L433.99,58.42L434.02,52.3L434.46,216.19L434.47,214.6L434.91,45.41L435.27,181.16L435.28,187.79L435.56,241.7L435.85,117.95L435.87,116.4L435.96,132.49L435.97,135.62L436.02,132.53L436.31,221.05L436.69,143.04L436.7,141.63L436.81,120.9L437.1,209.58L437.12,213.61L437.3,276.3L437.68,122.82L437.69,112.41L437.81,17.03L438.31,232.45L438.32,241.18L438.38,248.77L438.55,137.5L438.56,129.24L438.75,16.66L439.21,241.77L439.22,250.47L439.28,271.96L439.79,127.81L439.8,126.33L439.88,101.08L440.08,167.85L440.09,172.24L440.58,146.44L441.01,288.91L441.05,272.43L441.06,263.96L441.44,68.8L441.77,162.21L441.78,169.75L441.93,229.03L442.39,64.36L442.4,59.92L442.5,19.37L442.88,232.58L442.89,233.9L442.98,266.04L443.16,209.37L443.18,200.91L443.48,86.9L443.93,195.75L443.94,195.05L444.28,191.44L444.57,223.03L444.66,198.33L444.67,191.99L445.04,44.69L445.38,221.73L445.39,226.99L445.56,269.6L445.78,110.45L445.79,99.71L445.98,44.55L446.37,257.99L446.39,256.71L446.44,268.59L446.7,189.13L446.71,184.47L446.94,57.3L447.38,209.94L447.4,207.44L447.41,208.89L447.46,213.38L447.66,149.01L447.67,141.22L447.77,118.33L448.09,217.11L448.1,220.42L448.22,244.41L448.35,205.16L448.36,202.13L448.58,43.81L448.9,149.09L448.91,154.96L449.15,260.99L449.51,87.02L449.52,83.77L449.71,61.15L449.93,182.32L449.94,191.39L450.15,248.46L450.4,151.59L450.41,139.39L450.6,72.99L451.01,235.87L451.03,234.99L451.04,235.13L451.07,237.64L451.33,139.64L451.34,138.87L451.51,124.34L451.63,199.95L451.64,206.37L451.98,285.44L452.2,135.11L452.21,127.25L452.4,76.76L452.85,199.81L452.86,208.26L452.89,215.9L453.04,163.74L453.05,154.74L453.41,17.78L453.7,171.1L453.77,161.47L453.78,168.49L453.83,180.92L454.19,146.46L454.52,172.15L454.53,168.36L454.71,194.43L455.06,149.05L455.22,191.31L455.23,195.88L455.5,303.46L455.7,194.29L455.71,185.86L456,28.12L456.33,199.54L456.34,213.37L456.53,281.73L456.94,31.46L456.95,26.38L457,16.84L457.3,172.32L457.31,180.16L457.41,247.53L457.9,102.57L457.92,105.17L457.93,103.7L458.02,95.49L458.43,148.66L458.53,138.5L458.54,146.37L459.14,268.82L459.33,196.19L459.34,188.26L459.64,50.7L459.98,196.6L459.99,200.99L460.13,269.37L460.49,115.99L460.5,107.67L460.73,35.2L461.11,211.84L461.12,211.27L461.31,247.84L461.52,131.78L461.53,129.59L461.75,116.51L461.82,137.94L461.83,145.53L462.11,231.43L462.64,204.79L462.65,201.18L463.18,55.01L463.44,162.91L463.45,166.8L463.63,222.82L464,104.15L464.01,97.57L464.09,55.32L464.56,214.18L464.57,213.15L464.59,212.16L464.73,229.55L465.24,123.29L465.46,165.12L465.48,172.22L465.69,183.98L465.93,118.78L465.94,115.35L465.95,114.99L466.05,136.51L466.06,142.53L466.13,131.91L466.45,291.8L466.68,225.42L466.69,211.77L466.97,25.57L467.44,206.71L467.45,208.61L467.53,231.71L467.82,65.27L467.83,62.19L467.97,26.35L468.31,195.59L468.33,203.11L468.43,275.2L469,119.78L469.01,117.78L469.06,110.41L469.3,208.13L469.56,175.24L469.58,173.62L469.74,129.33L469.98,224.92L469.99,230.99L470.21,303.66L470.47,128.25L470.48,117.23L470.61,57.45L471.07,254.86L471.08,252.78L471.09,253.86L471.31,198.33L471.32,192.26L471.73,16.66L472,201.18L472.04,201.05L472.05,208.02L472.15,246.56L472.63,88.94L472.64,84.49L472.71,74.67L473.11,200.6L473.12,200.43L473.13,202.74L473.18,203.84L473.28,188.56L473.29,186.9L473.72,219.9L473.92,162.86L473.93,158.2L474.1,105.71L474.11,99.55L474.19,79.61L474.57,249.38L474.58,248.9L474.66,272.82L474.77,228.3L474.78,214.19L475.15,45.5L475.5,240.96L475.51,237.12L475.58,256.28L475.86,173.37L475.87,170.82L476.12,68.95L476.43,189.51L476.44,192.5L476.47,209.34L476.89,124.78L476.9,126.08L476.91,123.91L476.92,121.87L477.23,207.69L477.25,216.65L477.34,248.22L477.77,49.47L477.79,45.76L477.82,40.19L478.08,167.57L478.09,175.58L478.29,254.22L478.68,69.76L478.69,67.39L478.92,60.26L479.1,152.25L479.11,161.37L479.35,247.41L479.77,96.96L479.78,97.24L479.79,96.39L480.08,224.08L480.1,232.61L480.25,246.53L480.53,149.34L480.57,152.54L480.58,151.32L480.72,127.92L480.77,156.98L480.78,170.17L481.08,293.86L481.48,126.11L481.49,122.77L481.61,74.99L481.87,131.62L481.89,130.97L481.9,134.89L481.92,132.13L482.12,211.76L482.24,159.43L482.25,153.74L482.6,16.44L482.8,128.39L482.81,131.72L483.01,188.67L483.56,137.55L483.57,137.02L483.62,135.01L483.94,194.94L483.98,189.96L483.99,192.73L484.33,151.19L484.79,303.67L484.92,237.88L484.93,232.71L485.25,17.15L485.59,205.99L485.6,211.36L485.79,295.56L486.11,79.55L486.12,69.22L486.22,16.42L486.64,218.28L486.65,224.3L486.75,243.28L487.1,146.47L487.11,138.73L487.21,86.59L487.82,158.45L487.83,166.34L488.39,261.47L488.63,194.62L488.64,188.69L488.91,72.28L489.35,214.33L489.36,216.5L489.49,228.71L489.57,200.81L489.58,192.76L489.88,65.64L490.29,180.78L490.3,184.1L490.47,232.78L490.87,110.71L490.88,111.78L490.89,109.07L491.01,93.29L491.35,197.94L491.36,196.91L491.45,221.49L491.6,185.89L491.61,182.22L492.08,216.59L492.27,167.29L492.37,179.53L492.38,181.11L492.42,184.93L492.49,118.64L492.5,107.53L492.53,90.95L493,206.74L493.2,142.53L493.21,141.89L493.46,38.27L493.69,106.83L493.7,118.23L494.1,232.52L494.4,116.63L494.45,120.47L494.46,121.55L494.6,117.13L494.88,229.97L495.25,162.17L495.27,160.89L495.53,129.62L495.65,193.41L495.66,205.26L495.87,303.7L496.27,95.44L496.28,83.3L496.4,22.24L496.9,252.62L496.91,259.58L496.92,260.27L497.03,216.51L497.05,208.29L497.34,25.02L497.71,167.22L497.72,178.39L497.92,257.82L498.38,103.13L498.39,101.75L498.46,92.99L498.86,211.78L498.94,204.85L498.95,205.23L499.24,147.2L499.53,263.35L499.55,270.47L499.59,284.17L500.03,97.27L500.06,102.8L500.08,102.97L500.09,100.23L500.42,213.22L500.44,218.87L500.48,227.69L500.85,135.67L500.86,128.95L501.15,16.78L501.42,172.76L501.43,179.08L501.63,246.05L501.96,104.31L502,105.09L502.01,103.82L502.07,82.64L502.5,207.35L502.58,187.91L502.59,190.63L502.84,157.35L503.25,226.72L503.36,204.52L503.37,197.88L503.69,60.35L504.04,233.41L504.05,243.49L504.19,282.25L504.5,89.01L504.51,82L504.65,24.38L505,242.74L505.01,250.19L505.06,266.84L505.51,85.67L505.52,80.5L505.59,62.32L505.98,201.37L505.99,207.26L506.37,131.74L506.86,254.11L506.87,254.64L507.22,54.93L507.54,149.56L507.55,157.74L507.78,245.71L508.14,80.24L508.15,77.77L508.36,58.25L508.55,155.69L508.56,161.33L508.78,252.79L509.21,114.48L509.22,111.54L509.28,93.59L509.65,229.46L509.8,195.29L509.81,195.37L510.18,115.56L510.36,235.14L510.37,238.71L510.48,266.79L510.78,188.08L510.79,181.39L511.08,89.52L511.5,174.52L511.51,182.05L511.55,188.53L511.98,68.47L511.99,59.59L512.03,44.23L512.46,190.75L512.54,167.92L512.55,168.6L512.88,139.72L513,164.34L513.01,166.62L513.23,138.32L513.34,173.64L513.36,173.18L513.37,176.89L513.57,162.48L514.11,265.46L514.21,233.99L514.22,229.84L514.59,48.53L514.93,215.21L514.94,219.5L515.15,282.18L515.42,100.97L515.43,96.43L515.44,96.62L515.46,84.84L515.47,80.41L515.62,32.99L515.74,75.87L515.75,79.78L516.02,201.2L516.51,119.06L516.52,114.65L516.61,107.28L516.96,171.5L517.12,156.86L517.13,156.13L517.56,243.55L517.57,250.92L517.63,278.76L518.11,114.25L518.12,112.59L518.25,63.01L518.56,193.39L518.57,197.84L518.77,228.17L518.88,200.36L518.89,193.44L519.23,28.91L519.66,177.29L519.67,188.34L519.76,244.86L520.35,124.28L520.36,125.98L520.72,231.56L521.28,208.02L521.29,200.79L521.44,213.73L521.57,153.49L521.63,153.72L521.64,148.36L521.84,59.65L522.26,227.66L522.31,208.82L522.32,204.11L522.74,53.21L523.07,170.99L523.09,176.94L523.36,258.16L523.68,119L523.72,127.69L523.73,125.73L523.83,95.78L524.12,207.42L524.29,184.47L524.3,185.95L524.35,197.33L524.57,130.36L524.58,126.82L524.61,117.87L524.96,242.65L524.97,251.33L525.1,285.85L525.33,164.8L525.34,157.99L525.6,25.71L526,233.71L526.01,234.24L526.12,250L526.3,164.8L526.31,154.76L526.6,29.41L526.98,225.02L526.99,233.54L527.05,263.92L527.48,98.93L527.61,107.31L527.62,104.38L527.67,80.37L528.07,201.09L528.27,170.22L528.28,173.36L528.38,149.42L528.66,266.52L528.67,273.23L528.72,303.78L529.14,118.89L529.16,114.46L529.24,74L529.66,237.5L529.67,241.74L529.69,243.48L529.91,198.03L529.92,191.88L530.35,16.86L530.66,192.23L530.67,195.78L530.83,234.93L531.23,103.64L531.24,102.89L531.33,102.01L531.42,132.13L531.43,137.44L532.37,231.96L532.44,215.32L532.45,212.99L532.47,213.59L532.66,128.9L532.67,125.1L532.86,26.92L533.12,167.33L533.13,178.59L533.35,282.37L533.74,47L533.75,41.25L533.8,28.86L534.09,206.47L534.1,211.92L534.25,264.64L534.61,127.73L534.62,121.83L534.75,67.26L535.14,196.56L535.15,201.09L535.19,215.74L535.62,107.62L535.84,171.3L535.85,173.98L536.06,260.43L536.41,46.53L536.45,54.69L536.47,53.86L536.67,114.5L536.68,121.17L536.97,264.17L537.38,82.01L537.39,81.88L537.54,71.73L537.77,192.76L537.78,198.26L537.98,254.73L538.27,128.89L538.28,122.21L538.45,60.52L538.83,226.43L538.84,229.33L538.92,234.16L539.13,178.99L539.15,169.99L539.39,112.96L539.71,287.13L539.72,289.18L539.75,302.77L540.07,153.14L540.08,143.92L540.36,78.32L540.76,186.23L540.77,189.19L540.82,202.55L541.06,105.41L541.07,101.43L541.27,26.1L541.72,176.32L542.09,147.53L542.1,143.77L542.68,213.42L542.87,172.55L542.89,171.3L543.04,154.68L543.29,260.37L543.3,268.82L543.44,303.9L543.82,59.78L543.83,53.96L543.91,16.61L544.25,197.47L544.26,208.4L544.46,286.9L544.82,53.89L544.83,51.33L544.92,23.82L545.21,142.66L545.22,152.1L545.42,229.09L545.88,95.45L545.92,105.61L545.93,104.39L545.94,103.59L546.2,142.05L546.21,140.95L546.22,144.24L546.42,142.83L547.07,264.56L547.19,226.96L547.2,221.89L547.44,121.84L547.45,117.04L547.59,76.96L548,205.24L548.01,208.21L548.1,237.91L548.5,93.57L548.51,88.47L548.65,58.07L549.02,201.98L549.03,202.6L549.19,242.04L549.54,115.61L549.62,119.6L549.63,117.42L549.67,112.73L549.82,162.21L549.83,172.21L550.2,219.96L550.43,151.66L550.61,189.13L550.62,187.39L550.74,200.48L551.13,125.34L551.14,114.34L551.24,64.24L551.69,213.42L551.85,165.91L551.86,165.05L551.9,169.05L552,145.98L552.01,138.34L552.12,71.4L552.65,211.68L552.68,207.4L552.7,209.83L552.8,234.55L553.3,112.88L553.31,114.15L553.32,111.44L553.59,228.95L553.86,168.01L553.87,167.5L554.18,129.26L554.37,211.84L554.38,220.04L554.54,274.01L554.86,133.39L554.87,122.47L555.04,39.97L555.49,217.35L555.5,224.17L555.59,248.48L555.93,64.45L555.94,64.11L556.05,34.34L556.24,92.04L556.25,96.6L556.5,254.04L556.88,139.09L556.89,135.71L557.11,102.2L557.48,201.72L557.79,162.78L557.8,157.55L557.88,149.91L558.09,219.08L558.1,228L558.23,286.18L558.66,88.93L558.67,89.91L558.72,85.64L558.96,134.13L558.97,141.76L559.25,221.12L559.56,112.1L559.57,109.38L559.78,45.53L559.92,101.38L559.93,104.58L560.27,224.94L560.49,136.56L560.5,129.48L560.8,76.04L561.02,159.7L561.03,164.66L561.9,249.95L561.91,250.11L561.93,253.37L562.11,179.21L562.12,174.33L562.39,38.24L562.71,193.62L562.72,199.12L562.85,277.91L563.28,32.51L563.29,30.13L563.54,147.27L563.55,160.01L563.78,294.07L564.22,61.41L564.23,52.08L564.25,36.75L564.69,201.92L564.84,192.48L564.85,187.9L565.11,106.62L565.41,214.74L565.42,222.17L565.6,265.46L565.94,60.77L565.97,68.81L565.98,69.91L566.08,56.47L566.5,247.75L566.77,91.19L566.79,86.64L566.99,90.11L567.06,60.96L567.17,88.93L567.18,99.9L567.51,253.56L567.9,104.25L567.91,97.68L567.99,67.17L568.26,198.32L568.27,205.31L568.38,228.19L568.86,123.09L568.87,118.62L568.93,107.3L569.08,226.83L569.09,233.5L569.36,266.33L569.56,175.28L569.57,166.4L569.83,107.36L570.26,191.86L570.27,193.53L570.32,200.27L570.58,105.13L570.59,101.84L570.82,24.62L571.13,167.58L571.14,171.9L571.25,177.86L571.71,137.84L571.77,149.68L571.79,150.86L572.16,205.99L572.45,145.39L572.57,160.67L572.58,159.02L572.59,158.86L572.62,169.26L572.63,173.27L572.69,181.54L572.7,186.45L572.9,303.94L573.24,188.35L573.25,180.07L573.51,24.37L573.87,253.54L573.88,257.58L573.9,261.47L574.16,178.78L574.17,168.76L574.47,16.79L574.88,209.51L574.89,211.78L574.97,235.03L575.36,147.4L575.37,139.73L575.43,119.69L576.08,157.1L576.09,157.16L576.25,144.67L576.43,197.77L576.44,200.14L576.68,254.74L577.02,127.72L577.03,121.19L577.22,95.45L577.54,220.43L577.55,226.5L577.65,249.53L577.97,128.58L577.98,119.99L578.21,55.48L578.58,171.47L578.59,178.05L578.8,225.53L579.11,115.62L579.2,124.9L579.21,122.66L579.25,108.34L579.66,209.15L579.91,148.48L579.92,155.56L580.33,229.7L580.69,167.39L580.71,159.69L580.8,84.63L581.26,212.54L581.4,169.19L581.42,166.32L581.76,54.45L582.06,138.84L582.07,147.24L582.39,217.43L582.71,101.94L582.79,126.57L582.8,128.75L582.82,125.83L583.14,226.44L583.15,231.41L583.34,237.98L583.57,147.93L583.63,151.94L583.64,148.58L583.7,127.94L584.08,242.06L584.1,251.04L584.13,264.77L584.63,71.29L584.64,71.24L584.78,18.48L585.01,143.9L585.02,152.6L585.22,263.15L585.61,30.61L585.62,27.85L585.68,17.97L585.92,102.39L585.93,108.83L586.22,279.6L586.68,123.16L586.69,122.94L586.75,119.38L586.9,143.87L586.91,148.07L587.11,210.53L587.55,117.16L587.64,143.23L587.66,141.67L587.7,140.33L587.72,151.63L587.73,161.08L588,294.6L588.35,88.84L588.36,84.35L588.4,79.9L588.65,114.17L588.66,121.92L588.92,246.35L589.35,69.06L589.36,70.38L589.37,68.78L589.51,30.1L589.69,116.98L589.7,127.15L589.94,225.56L590.36,87.95L590.4,88.93L590.41,89.55L590.46,78.64L590.87,204.86L590.88,208.8L591,213.51L591.07,189.97L591.08,186.49L591.24,150.44L591.62,249.54L591.63,257.52L591.66,260.66L591.75,212.63L591.77,203.28L592.08,52.32L592.46,233.72L592.48,238.16L592.58,265.03L592.85,110.61L592.86,104.3L593.03,52.3L593.27,162.05L593.28,168.27L593.48,257.16L593.95,85.36L593.96,86.96L594.01,85.49L594.05,95.31L594.06,102.55L594.42,215.6L594.84,121.18L594.85,119.35L594.89,109.81L595.23,213.63L595.24,214.2L595.34,222.64L595.52,155.14L595.53,152.94L595.77,64.05L596.11,203.23L596.12,205.99L596.24,237.83L596.61,109.87L596.62,104.13L596.69,89.66L596.92,155.85L596.94,162.11L597.19,223.33L597.53,135.62L597.54,129.23L597.71,104.24L598.07,216.29L598.16,212.38L598.17,210.28L598.19,210.55L598.23,201.14L598.24,198.79L598.51,125.77L598.86,217.22L598.87,215.5L598.88,218.15L599.08,262.69L599.33,171.67L599.34,160.6L599.64,108.35L600.04,195.33L600.05,195.71L600.1,213.56L600.44,75.9L600.45,67.74L600.59,25.95L601.05,168.66L601.06,167.11L601.44,140.66L601.59,153.27L601.6,157.14L601.9,212.77L602.3,153.33L602.31,153.49L602.69,303.76L602.98,184.73L603,177.53L603.26,20.54L603.66,243.82L603.67,249.27L603.74,284.27L604.05,121.87L604.07,113.27L604.28,40.95L604.68,198.95L604.69,201.18L604.74,212.55L605.11,111.28L605.12,105.45L605.2,75.76L605.65,161.91L605.66,165.59L606.47,260.86L606.65,217.4L606.66,209.77L606.99,77.56L607.38,216.37L607.39,223.61L607.43,232.24L607.86,92.15L607.87,89.9L608.05,55.54L608.26,143.27L608.27,151.42L608.58,231.43L608.97,125.02L608.98,122.55L609.02,117.64L609.16,130.82L609.17,134.63L609.91,213.2L610.04,213.13L610.05,215.45L610.07,221.41L610.5,124.29L610.51,116.33L610.58,76.22L611.01,182.22L611.19,156L611.21,156.75L611.52,76.89L612.17,253.79L612.2,244.69L612.21,238.57L612.59,108.9L612.91,191.16L612.92,197.03L613.13,204.85L613.4,132.12L613.51,148.46L613.53,148.12L613.59,135.67L613.79,199.4L613.8,207.26L613.9,303.74L614.38,51.54L614.39,49.33L614.48,31.15L614.52,42.17L614.53,47.91L614.97,249.91L615.28,86.54L615.29,76.12L615.37,36.16L615.79,183.17L615.8,189.92L616.02,265.9L616.42,120.86L616.43,114.29L616.51,95.2L616.83,220.39L616.95,210.53L616.96,210.2L617.31,134.52L617.53,218.56L617.54,228.82L617.73,303.59L618.13,95.6L618.14,89.96L618.21,58.39L618.62,221.12L618.77,200.28L618.78,204.83L618.79,206.34L618.96,123.15L618.97,111.99L619.19,24.19L619.6,213.66L619.61,213.68L619.77,236.4L619.96,154.97L619.97,148.33L620.26,97.57L620.63,200.8L620.64,199.17L620.66,197.57L620.74,213.96L621,174.45L621.43,208.14L621.44,200.71L621.82,54.95L622.16,216.18L622.17,217.89L622.3,259.6L622.64,79.01L622.65,76.62L622.71,62.47L622.93,153.38L622.94,159.6L623.2,271.49L623.5,141.53L623.52,132.69L623.66,74.32L624.14,197.43L624.15,195.98L624.61,110.26L624.84,201.61L624.85,208.21L624.94,249.53L625.41,76.77L625.45,84.1L625.46,87.6L625.54,79.13L625.93,221.95L626.16,132.36L626.17,122.03L626.48,78L626.79,186.45L626.8,192.83L626.94,235.18L627.22,160.04L627.23,156.4L627.42,91.06L627.85,228.4L627.86,231.28L627.88,238.22L628.12,152.29L628.13,147.42L628.23,136.4L628.24,131.81L628.31,113.47L628.55,233.39L628.56,233.84L628.73,273.95L628.92,237.61L628.93,229.39L629.26,91.73L629.74,179.23L629.76,179.45L629.78,184.73L629.95,130.78L629.96,126.77L630.26,42L630.59,182.45L630.6,186.41L630.75,193.16L631.16,134.4L631.5,164.3L631.51,168.74L632,145.22L632.41,283.87L632.42,281.99L632.7,142.43L632.71,133.51L632.83,56.99L633.3,265.04L633.31,267.45L633.34,264.94L633.4,280.1L633.41,284.26L633.44,286.51L633.59,207.98L633.6,197.78L633.91,28.61L634.29,218.25L634.31,215.79L634.32,212.69L634.33,215.13L634.73,135.33L634.75,131.51L634.88,85.42L635.24,148.7L635.47,148.31L635.48,155.36L636.03,254.71L636.27,193.81L636.28,195.35L636.29,195.65L636.33,175.99L636.34,166.38L636.56,104.31L636.92,218.94L636.93,216.49L636.94,215.94L637.11,233.83L637.62,61.88L637.89,159.85L637.9,168.14L638.09,236.36L638.5,117.89L638.51,108.36L638.52,105.94L638.98,174.32L638.99,179.63L639.09,211.48L639.41,166.54L639.76,193.61L639.77,193.5L639.91,195.44L640.01,159L640.02,154.9L640.13,88.17L640.49,170.49L640.5,172.59L640.61,210.89L640.96,107.25L640.97,98.35L641.05,52.43L641.55,184.82L641.57,181.57L641.58,183.89L641.67,220.79L641.99,125.49L642.21,125.85L642.22,123.61L642.25,123.2L642.49,239.67L642.74,174.22L642.75,167.57L642.96,137.96L643.36,248.47L643.37,252.11L643.47,280.43L643.77,168.5L643.78,157.88L643.98,35.74L644.47,217.59L644.48,222.98L644.52,239.27L644.88,16.68L644.93,16.83L644.94,17.19L645,16.57L645.03,28.38L645.04,31.55L645.18,80L645.19,89.03L645.46,260.82L645.97,121.63L645.99,120.6L646.06,112.45L646.51,221.23L646.74,165.41L646.75,163.07L646.79,157.61L646.99,206.51L647,212.36L647.16,303.63L647.57,85.29L647.58,82.86L647.65,67.82L647.99,180.67L648,190.71L648.2,223.13L648.56,60.9L648.57,59.6L648.74,16.47L648.98,177.13L648.99,180.63L649.18,233.11L649.42,161.97L649.43,154.14L649.72,103.97L650.06,210.34L650.07,211.99L650.43,158.49L650.64,190.97L650.65,194.78L650.89,218.94L651.11,122.66L651.12,119.95L651.31,51.61L651.55,195.57L651.56,199.11L651.61,212.96L651.62,219.44L651.78,279.36L652.11,77.64L652.12,72.87L652.23,36.53L652.62,249.6L652.63,256.34L652.67,276.72L653.13,79.59L653.14,73.2L653.18,61.62L653.57,207.86L653.58,213.24L653.61,215.19L653.92,140.33L653.93,134.95L653.99,115.68L654.45,255.28L654.48,249.72L654.49,244.57L654.8,53L655.19,192.08L655.2,198.6L655.37,253.7L655.67,93.82L655.68,97.03L655.69,94.89L656,53.97L656.23,210.23L656.24,212.88L656.38,259.7L656.56,184.61L656.6,185.44L656.61,181.8L656.88,80.93L657.07,177.73L657.08,182.08L657.3,227.37L657.69,129.8L657.72,130.13L657.73,128.57L657.78,123.41L658.06,255.18L658.07,256.19L658.21,280.04L658.32,246.68L658.33,245.77L658.67,77.21L659.12,202.52L659.13,208.12L659.17,223.58L659.56,59.91L659.57,58.84L659.66,18.71L660.11,186.31L660.6,147.88L660.62,148.02L660.84,147.39L661,196.54L661.27,151.7L661.28,147.1L661.4,124.62L661.49,153.64L661.51,159.71L661.85,303.63L662.16,108.34L662.17,96.84L662.31,20.06L662.78,272L662.79,278.56L662.83,302.04L663.23,51.3L663.24,42.8L663.34,16.72L663.67,200.81L663.68,203.05L663.79,235.8L664.24,81.44L664.25,77.47L664.26,74.06L664.73,156.56L664.82,134.25L664.83,136.91L665.5,268.15L665.73,203.21L665.74,195L666.03,86.56L666.42,242.01L666.43,243.2L666.47,258.33L666.77,161.06L666.78,153.12L667.02,35.94L667.47,202.84L667.48,205.5L667.59,238.77L668.01,115.49L668.02,109.76L668.04,104.58L668.45,217.73L668.63,177.3L668.65,174.38L669.12,222.12L669.32,157.66L669.39,170.92L669.4,176.83L669.51,151.21L669.52,144.71L669.62,83.77L670.04,215.63L670.05,219.51L670.08,223.58L670.38,149.54L670.39,146.63L670.54,67.23L671.05,209.08L671.06,208.19L671.23,241.05L671.45,105.02L671.46,98.7L671.51,87.99L671.97,213.32L672.07,188.68L672.08,189.53L672.15,210.64L672.43,137.66L672.44,134.69L672.45,133.91L672.7,168.8L672.71,172.77L672.94,288.4L673.36,119.55L673.37,114.03L673.54,21.16L673.97,244.45L673.98,249.8L674.02,250.52L674.09,240.59L674.1,233.99L674.42,16.74L674.78,133.29L674.79,139.27L675,265.74L675.49,115.81L675.5,116.36L675.54,115.32L675.99,206.84L676.1,164.63L676.11,158.46L676.3,138.14L676.6,271.09L676.61,280.85L676.78,303.75L677.17,82.54L677.18,81.88L677.62,222.31L677.97,146.23L677.98,134.68L678,118.76" style="vector-effect: non-scaling-stroke; fill: none; stroke: rgb(140, 86, 75); stroke-opacity: 1; stroke-width: 2px; opacity: 1;"/></g><g class="points"/><g class="text"/></g></g></g><g class="overplot"/><path class="xlines-above crisp" d="" style="fill: none; stroke-width: 1px; stroke: rgb(0, 0, 0); stroke-opacity: 0;"/><path class="ylines-above crisp" d="" style="fill: none; stroke-width: 1px; stroke: rgb(0, 0, 0); stroke-opacity: 0;"/><g class="overlines-above"/><g class="xaxislayer-above"><path class="xtick ticks crisp" d="M0,421v5" transform="translate(80,0)" style="stroke: rgb(51, 51, 51); stroke-opacity: 1; stroke-width: 1px;"/><path class="xtick ticks crisp" d="M0,421v5" transform="translate(164.75,0)" style="stroke: rgb(51, 51, 51); stroke-opacity: 1; stroke-width: 1px;"/><path class="xtick ticks crisp" d="M0,421v5" transform="translate(249.5,0)" style="stroke: rgb(51, 51, 51); stroke-opacity: 1; stroke-width: 1px;"/><path class="xtick ticks crisp" d="M0,421v5" transform="translate(334.25,0)" style="stroke: rgb(51, 51, 51); stroke-opacity: 1; stroke-width: 1px;"/><path class="xtick ticks crisp" d="M0,421v5" transform="translate(419.01,0)" style="stroke: rgb(51, 51, 51); stroke-opacity: 1; stroke-width: 1px;"/><path class="xtick ticks crisp" d="M0,421v5" transform="translate(503.76,0)" style="stroke: rgb(51, 51, 51); stroke-opacity: 1; stroke-width: 1px;"/><path class="xtick ticks crisp" d="M0,421v5" transform="translate(588.51,0)" style="stroke: rgb(51, 51, 51); stroke-opacity: 1; stroke-width: 1px;"/><path class="xtick ticks crisp" d="M0,421v5" transform="translate(673.26,0)" style="stroke: rgb(51, 51, 51); stroke-opacity: 1; stroke-width: 1px;"/><path class="xtick ticks crisp" d="M0,421v5" transform="translate(758.01,0)" style="stroke: rgb(51, 51, 51); stroke-opacity: 1; stroke-width: 1px;"/><g class="xtick"><text text-anchor="middle" x="0" y="446.4" transform="translate(80,0)" style="font-family: 'Open Sans', verdana, arial, sans-serif; font-size: 17px; fill: rgb(51, 51, 51); fill-opacity: 1; white-space: pre;">0</text></g><g class="xtick"><text text-anchor="middle" x="0" y="446.4" transform="translate(164.75,0)" style="font-family: 'Open Sans', verdana, arial, sans-serif; font-size: 17px; fill: rgb(51, 51, 51); fill-opacity: 1; white-space: pre;">500</text></g><g class="xtick"><text text-anchor="middle" x="0" y="446.4" transform="translate(249.5,0)" style="font-family: 'Open Sans', verdana, arial, sans-serif; font-size: 17px; fill: rgb(51, 51, 51); fill-opacity: 1; white-space: pre;">1000</text></g><g class="xtick"><text text-anchor="middle" x="0" y="446.4" transform="translate(334.25,0)" style="font-family: 'Open Sans', verdana, arial, sans-serif; font-size: 17px; fill: rgb(51, 51, 51); fill-opacity: 1; white-space: pre;">1500</text></g><g class="xtick"><text text-anchor="middle" x="0" y="446.4" transform="translate(419.01,0)" style="font-family: 'Open Sans', verdana, arial, sans-serif; font-size: 17px; fill: rgb(51, 51, 51); fill-opacity: 1; white-space: pre;">2000</text></g><g class="xtick"><text text-anchor="middle" x="0" y="446.4" transform="translate(503.76,0)" style="font-family: 'Open Sans', verdana, arial, sans-serif; font-size: 17px; fill: rgb(51, 51, 51); fill-opacity: 1; white-space: pre;">2500</text></g><g class="xtick"><text text-anchor="middle" x="0" y="446.4" transform="translate(588.51,0)" style="font-family: 'Open Sans', verdana, arial, sans-serif; font-size: 17px; fill: rgb(51, 51, 51); fill-opacity: 1; white-space: pre;">3000</text></g><g class="xtick"><text text-anchor="middle" x="0" y="446.4" transform="translate(673.26,0)" style="font-family: 'Open Sans', verdana, arial, sans-serif; font-size: 17px; fill: rgb(51, 51, 51); fill-opacity: 1; white-space: pre;">3500</text></g><g class="xtick"><text text-anchor="middle" x="0" y="446.4" transform="translate(758.01,0)" style="font-family: 'Open Sans', verdana, arial, sans-serif; font-size: 17px; fill: rgb(51, 51, 51); fill-opacity: 1; white-space: pre;">4000</text></g></g><g class="yaxislayer-above"><path class="ytick ticks crisp" d="M79,0h-5" transform="translate(0,375.2)" style="stroke: rgb(51, 51, 51); stroke-opacity: 1; stroke-width: 1px;"/><path class="ytick ticks crisp" d="M79,0h-5" transform="translate(0,317.59000000000003)" style="stroke: rgb(51, 51, 51); stroke-opacity: 1; stroke-width: 1px;"/><path class="ytick ticks crisp" d="M79,0h-5" transform="translate(0,259.99)" style="stroke: rgb(51, 51, 51); stroke-opacity: 1; stroke-width: 1px;"/><path class="ytick ticks crisp" d="M79,0h-5" transform="translate(0,202.38)" style="stroke: rgb(51, 51, 51); stroke-opacity: 1; stroke-width: 1px;"/><path class="ytick ticks crisp" d="M79,0h-5" transform="translate(0,144.77)" style="stroke: rgb(51, 51, 51); stroke-opacity: 1; stroke-width: 1px;"/><g class="ytick"><text text-anchor="end" x="70.6" y="5.949999999999999" transform="translate(0,375.2)" style="font-family: 'Open Sans', verdana, arial, sans-serif; font-size: 17px; fill: rgb(51, 51, 51); fill-opacity: 1; white-space: pre;">0.4</text></g><g class="ytick"><text text-anchor="end" x="70.6" y="5.949999999999999" transform="translate(0,317.59000000000003)" style="font-family: 'Open Sans', verdana, arial, sans-serif; font-size: 17px; fill: rgb(51, 51, 51); fill-opacity: 1; white-space: pre;">0.2</text></g><g class="ytick"><text text-anchor="end" x="70.6" y="5.949999999999999" transform="translate(0,259.99)" style="font-family: 'Open Sans', verdana, arial, sans-serif; font-size: 17px; fill: rgb(51, 51, 51); fill-opacity: 1; white-space: pre;">0</text></g><g class="ytick"><text text-anchor="end" x="70.6" y="5.949999999999999" transform="translate(0,202.38)" style="font-family: 'Open Sans', verdana, arial, sans-serif; font-size: 17px; fill: rgb(51, 51, 51); fill-opacity: 1; white-space: pre;">0.2</text></g><g class="ytick"><text text-anchor="end" x="70.6" y="5.949999999999999" transform="translate(0,144.77)" style="font-family: 'Open Sans', verdana, arial, sans-serif; font-size: 17px; fill: rgb(51, 51, 51); fill-opacity: 1; white-space: pre;">0.4</text></g></g><g class="overaxes-above"/></g></g><g class="polarlayer"/><g class="ternarylayer"/><g class="geolayer"/><g class="pielayer"/><g class="sunburstlayer"/><g class="glimages"/><defs id="topdefs-15b196"><g class="clips"/><clipPath id="legend15b196"><rect width="196" height="36" x="0" y="0"/></clipPath></defs><g class="layer-above"><g class="imagelayer"/><g class="shapelayer"/></g><g class="infolayer"><g class="legend" pointer-events="all" transform="translate(771.5600000000001, 100)"><rect class="bg" shape-rendering="crispEdges" style="stroke: rgb(68, 68, 68); stroke-opacity: 1; fill: rgb(255, 255, 255); fill-opacity: 1; stroke-width: 0px;" width="196" height="36" x="0" y="0"/><g class="scrollbox" transform="translate(0, 0)" clip-path="url('#legend15b196')"><g class="groups" transform="translate(0, 0)"><g class="traces" transform="translate(0, 17.55)" style="opacity: 1;"><text class="legendtext user-select-none" text-anchor="start" x="40" y="6.63" style="font-family: 'Open Sans', verdana, arial, sans-serif; font-size: 17px; fill: rgb(51, 51, 51); fill-opacity: 1; white-space: pre;">class=engine_idling</text><g class="layers" style="opacity: 1;"><g class="legendfill"/><g class="legendlines"><path class="js-line" d="M5,0h30" style="fill: none; stroke: rgb(140, 86, 75); stroke-opacity: 1; stroke-width: 2px;"/></g><g class="legendsymbols"><g class="legendpoints"/></g></g><rect class="legendtoggle" pointer-events="all" x="0" y="-12.55" width="236" height="25.1" style="cursor: pointer; fill: rgb(0, 0, 0); fill-opacity: 0;"/></g></g></g><rect class="scrollbar" rx="20" ry="3" width="0" height="0" style="fill: rgb(128, 139, 164); fill-opacity: 1;" x="0" y="0"/></g><g class="g-gtitle"><text class="gtitle" x="490" y="50" text-anchor="middle" dy="0em" style="font-family: 'Open Sans', verdana, arial, sans-serif; font-size: 24px; fill: rgb(51, 51, 51); opacity: 1; font-weight: normal; white-space: pre;">audio wave (time vs amplitude)</text></g><g class="g-xtitle"><text class="xtitle" x="419" y="490" text-anchor="middle" style="font-family: 'Open Sans', verdana, arial, sans-serif; font-size: 20px; fill: rgb(51, 51, 51); opacity: 1; font-weight: normal; white-space: pre;">time(ms)</text></g><g class="g-ytitle"><text class="ytitle" transform="rotate(-90,30,260)" x="30" y="260" text-anchor="middle" style="font-family: 'Open Sans', verdana, arial, sans-serif; font-size: 20px; fill: rgb(51, 51, 51); opacity: 1; font-weight: normal; white-space: pre;">amplitude</text></g></g></svg>