<svg class="main-svg" xmlns="http://www.w3.org/2000/svg" xmlns:xlink="http://www.w3.org/1999/xlink" width="980" height="500" viewBox="0 0 980 500"><rect x="0" y="0" width="980" height="500" style="fill: rgb(255, 255, 255); fill-opacity: 1;"/><defs id="defs-4ba975"><g class="clips"><clipPath id="clip4ba975xyplot" class="plotclip"><rect width="696" height="320"/></clipPath><clipPath class="axesclip" id="clip4ba975x"><rect x="80" y="0" width="696" height="500"/></clipPath><clipPath class="axesclip" id="clip4ba975y"><rect x="0" y="100" width="980" height="320"/></clipPath><clipPath class="axesclip" id="clip4ba975xy"><rect x="80" y="100" width="696" height="320"/></clipPath></g><g class="gradients"/></defs><g class="bglayer"><rect class="bg" x="80" y="100" width="696" height="320" style="fill: rgb(237, 237, 237); fill-opacity: 1; stroke-width: 0;"/></g><g class="layer-below"><g class="imagelayer"/><g class="shapelayer"/></g><g class="cartesianlayer"><g class="subplot xy"><g class="layer-subplot"><g class="shapelayer"/><g class="imagelayer"/></g><g class="gridlayer"><g class="x"><path class="xgrid crisp" transform="translate(167,0)" d="M0,100v320" style="stroke: rgb(255, 255, 255); stroke-opacity: 1; stroke-width: 1px;"/><path class="xgrid crisp" transform="translate(254,0)" d="M0,100v320" style="stroke: rgb(255, 255, 255); stroke-opacity: 1; stroke-width: 1px;"/><path class="xgrid crisp" transform="translate(341,0)" d="M0,100v320" style="stroke: rgb(255, 255, 255); stroke-opacity: 1; stroke-width: 1px;"/><path class="xgrid crisp" transform="translate(428.01,0)" d="M0,100v320" style="stroke: rgb(255, 255, 255); stroke-opacity: 1; stroke-width: 1px;"/><path class="xgrid crisp" transform="translate(515.01,0)" d="M0,100v320" style="stroke: rgb(255, 255, 255); stroke-opacity: 1; stroke-width: 1px;"/><path class="xgrid crisp" transform="translate(602.01,0)" d="M0,100v320" style="stroke: rgb(255, 255, 255); stroke-opacity: 1; stroke-width: 1px;"/><path class="xgrid crisp" transform="translate(689.01,0)" d="M0,100v320" style="stroke: rgb(255, 255, 255); stroke-opacity: 1; stroke-width: 1px;"/></g><g class="y"><path class="ygrid crisp" transform="translate(0,375.2)" d="M80,0h696" style="stroke: rgb(255, 255, 255); stroke-opacity: 1; stroke-width: 1px;"/><path class="ygrid crisp" transform="translate(0,317.59000000000003)" d="M80,0h696" style="stroke: rgb(255, 255, 255); stroke-opacity: 1; stroke-width: 1px;"/><path class="ygrid crisp" transform="translate(0,202.38)" d="M80,0h696" style="stroke: rgb(255, 255, 255); stroke-opacity: 1; stroke-width: 1px;"/><path class="ygrid crisp" transform="translate(0,144.77)" d="M80,0h696" style="stroke: rgb(255, 255, 255); stroke-opacity: 1; stroke-width: 1px;"/></g></g><g class="zerolinelayer"><path class="xzl zl crisp" transform="translate(80,0)" d="M0,100v320" style="stroke: rgb(255, 255, 255); stroke-opacity: 1; stroke-width: 1px;"/><path class="yzl zl crisp" transform="translate(0,259.99)" d="M80,0h696" style="stroke: rgb(255, 255, 255); stroke-opacity: 1; stroke-width: 1px;"/></g><path class="xlines-below"/><path class="ylines-below"/><g class="overlines-below"/><g class="xaxislayer-below"/><g class="yaxislayer-below"/><g class="overaxes-below"/><g class="plot" transform="translate(80, 100)" clip-path="url('#clip4ba975xyplot')"><g class="scatterlayer mlayer"><g class="trace scatter trace08a91676-02d0-4e3d-9c4f-9ee612a74107" style="stroke-miterlimit: 2; opacity: 1;"><g class="fills"/><g class="errorbars"/><g class="lines"><path class="js-line" d="M0,166.93L0.01,167.98L0.11,106.96L0.12,100.62L0.21,73.25L0.65,237.01L0.66,233.94L0.67,233.59L0.73,236.97L0.9,201.56L0.91,196L1.34,25.88L1.65,192.84L1.66,202.62L1.84,244.75L2.2,99.42L2.26,99.51L2.27,94.97L2.33,77.63L2.7,176.69L2.71,175.41L2.72,175.26L3.08,150.29L3.56,267.93L3.66,224.49L3.68,218.68L3.99,40.4L4.39,250.01L4.4,253.66L4.5,274.86L4.7,148.75L4.71,140.62L4.97,32.76L5.31,274.66L5.32,285.46L5.42,297.57L5.71,175.07L5.72,169.42L5.94,31.89L6.39,203.11L6.41,208.21L6.42,210.14L6.75,135.09L6.76,129.74L6.84,120.31L7.14,233.4L7.16,238.2L7.3,269.77L7.46,207.89L7.47,197.4L7.8,41.73L8.18,230.28L8.19,238.59L8.24,262.82L8.62,80.41L8.63,79.2L8.85,64.16L8.99,137.32L9,149.1L9.28,237.47L9.64,98.15L9.65,98.85L9.76,82.58L10.04,205.72L10.05,212.51L10.24,236.62L10.33,207.26L10.34,205.8L10.72,114.27L11.02,230.67L11.03,234.63L11.18,284.79L11.46,162.64L11.47,152.18L11.79,90.08L12.11,189.21L12.13,197.4L12.25,208.13L12.34,155.41L12.35,150.57L12.75,19.66L13.03,154.06L13.04,153.49L13.05,156.07L13.71,151.7L13.84,179.71L13.87,179.48L13.88,180.71L14.14,216.08L14.52,125.48L14.62,167.76L14.63,172.97L15.03,303.62L15.29,137.15L15.3,128.75L15.51,30.3L15.91,250.68L15.92,255.74L15.96,267.31L16.24,147.56L16.25,139.14L16.5,24.83L16.9,219.34L16.91,217.84L17.01,242.19L17.43,108.69L17.44,103.83L17.5,88.96L17.92,157.27L18.09,151.15L18.1,152.98L18.12,151.8L18.74,268.26L18.99,186.18L19,178.54L19.28,61.34L19.68,211.25L19.69,216.01L19.72,218.37L19.81,205.39L19.83,202.01L20.37,89.55L20.56,144.39L20.58,149.07L20.93,244.59L21.18,141.21L21.2,132.64L21.28,93.32L21.88,200.07L21.89,204.09L21.91,208.09L22.28,160.66L22.56,191.89L22.57,191.71L22.66,199.94L22.75,198.87L22.76,207.85L23.15,87.21L23.53,221.39L23.54,220.26L24,28.75L24.38,158.21L24.39,161.86L24.64,255.36L24.89,135.48L25.08,142.99L25.09,136.43L25.19,122.38L25.4,229.6L25.42,232.8L25.45,242.8L25.81,156.15L25.83,156.73L25.84,154.12L26.11,106.32L26.42,251.97L26.43,258.68L26.55,270.59L26.83,136.85L26.84,130.22L27.01,49.54L27.42,211.67L27.43,210.7L27.44,212.31L27.54,246.83L27.8,102.35L27.81,98.45L27.97,47.36L28.25,134.71L28.26,138.77L28.48,246.66L28.75,154.58L28.76,147.38L29.08,104.75L29.4,176.24L29.41,177.76L29.88,152.43L30.32,303.82L30.36,285.05L30.37,277.7L30.92,74.68L31.1,152.63L31.11,159.17L31.2,204.71L31.76,84.19L31.77,81.69L31.82,68.59L32.07,148.08L32.08,153.2L32.39,225.29L32.73,98.54L32.75,93.79L32.86,85.77L33.51,196.93L33.85,184.51L33.87,184.27L34.06,239.64L34.4,136.74L34.41,131.83L34.51,82.23L34.99,246.29L35,247.64L35.03,255.51L35.17,185.37L35.18,179.17L35.54,59.44L35.88,212.52L35.89,219.01L35.99,242.3L36.38,117.14L36.39,115.63L36.52,99.88L36.79,207.21L36.85,202.48L36.86,205.82L36.93,224.3L37.27,138.38L37.28,133.02L37.39,106.09L37.5,133.97L37.51,140.29L37.78,223.04L38.13,77.3L38.14,74.63L38.76,232.57L38.97,118.04L38.98,111.01L39.36,58.52L39.59,177.46L39.6,185.86L39.76,225.12L40.22,126.94L40.26,132.14L40.27,129.59L40.3,123.13L40.54,197.95L40.55,197.71L40.56,201.72L40.59,211.65L41.1,134.78L41.11,133.6L41.38,209.06L41.39,216.96L41.56,271.95L42,106.75L42.01,108.62L42.02,106.95L42.09,94.88L42.15,109.94L42.26,107.19L42.27,113.72L42.69,195.88L42.99,100.14L43,97.72L43.12,58.91L43.52,168.69L43.54,167.57L43.56,165.85L43.59,171.16L44.07,133.33L44.15,154.67L44.16,156.66L45.33,293.54L45.49,245.6L45.5,238.51L45.82,30.7L46.18,156.23L46.19,168.54L46.45,251.82L46.82,49.4L46.83,42.24L46.88,21.92L47.3,231.05L47.31,235.61L47.35,241.13L47.76,140.88L47.77,132.87L47.91,116.91L48.32,156.44L48.51,133.92L48.53,137.65L49.17,280.98L49.4,188.41L49.41,182.9L49.69,85.73L50.09,218.61L50.1,222.79L50.11,223.58L50.33,188.92L50.34,180.15L50.73,45.59L51.1,165.63L51.11,175.51L51.34,232.54L51.67,118.84L51.81,132.5L51.82,134.33L52.18,220.28L52.8,201.83L52.81,197.75L52.86,201.02L53.01,175.49L53.02,171.28L53.36,79.87L53.58,132.68L53.59,138.4L53.83,211.12L54.23,101.01L54.25,91.94L54.27,79.74L54.83,214.4L54.85,212.98L54.87,211.68L54.94,218.34L55.29,91.7L55.3,87.12L55.44,71.69L55.55,145.27L55.56,152.26L55.59,147.02L55.7,179.44L55.71,185.3L55.95,236.99L56.24,157.99L56.43,176.66L56.44,173.25L56.84,281.47L56.99,192L57,185.5L57.29,16.75L57.7,214.93L57.71,217.05L57.82,242.41L57.93,193.07L57.94,186.53L58.26,16.6L58.66,193.32L58.67,203.02L58.77,260.06L59.17,135.11L59.33,136.85L59.35,134.76L59.4,126.67L59.7,205.21L59.72,207.11L59.81,212.23L60.17,138.64L60.36,172.05L60.37,180.78L60.56,303.59L60.97,98.97L60.98,91.83L61.16,59.64L61.51,224.88L61.52,228.42L61.56,234.31L61.83,154.97L61.84,157.51L61.85,150.17L62.13,19.2L62.52,202.37L62.53,207.18L62.62,233.34L62.8,199.48L62.81,193.85L63.26,97.13L63.51,181.73L63.52,184.18L63.94,157.85L64.28,221.34L64.42,210.77L64.44,204L64.79,80.95L65.15,224.69L65.16,227.53L65.29,256.54L65.63,103.25L65.64,95.36L65.77,40.36L66.16,222.45L66.18,226.06L66.33,247.35L66.64,86.63L66.65,82.01L66.68,78.01L66.95,172.83L66.96,172.68L66.97,175.89L67.15,212.51L67.52,122.07L67.53,117.05L67.57,114.29L67.67,134.12L67.68,139.98L68.08,232.09L68.29,158.76L68.3,147.78L68.46,49.69L68.96,240.59L68.97,242.63L69,253.82L69.42,93.87L69.43,92.07L69.62,64.71L69.73,106.55L69.74,111.11L70.08,246.18L70.45,102.99L70.46,99.22L70.53,86.85L70.59,102.93L70.6,110.11L70.88,239.34L71.38,139.14L71.4,139.38L71.48,115.42L71.99,291.05L72.19,178.01L72.2,173.42L72.5,66.29L72.91,185.18L72.93,183.58L72.94,186.56L72.99,200.4L73.49,45.07L73.66,121.5L73.67,122.67L73.95,177.57L74.43,149.11L74.44,145.9L74.84,212.53L75.03,173.09L75.04,165.92L75.27,127.23L75.55,279.22L75.56,285.35L75.76,303.93L76.05,89.06L76.06,79.07L76.17,17.29L76.51,177.77L76.52,189.33L76.72,283.2L77.1,60.58L77.12,57.06L77.27,28.59L77.56,180.66L77.57,182.56L77.74,221.14L78.17,95.95L78.18,90.55L78.21,82.04L78.82,157.1L78.83,157.53L79.49,283.17L79.7,203.02L79.71,196.19L80.01,66.22L80.36,195.17L80.37,200.25L80.47,226.69L80.82,123.13L80.84,119.11L81.1,54.84L81.29,122.07L81.3,132.32L81.69,249.87L81.99,104.23L82.01,109.34L82.02,110.18L82.55,223.98L83.15,197.33L83.16,195.83L83.2,208.04L83.68,83.49L83.7,82.72L83.71,81.78L83.88,135.7L83.89,138.3L84.18,199.95L84.5,133.56L84.51,126.7L84.62,75.39L85.14,182.61L85.16,181.81L85.17,190.53L85.34,229.88L85.44,179.04L85.45,167.01L85.84,104.62L86.1,223.56L86.15,212.52L86.16,210.67L86.17,211.93L86.52,163.35L86.53,160.24L86.66,140.34L86.88,177.43L86.89,185.62L87.1,291.8L87.5,103.1L87.51,93.14L87.64,23.77L88.13,230.88L88.14,240.75L88.19,257.22L88.53,71.36L88.55,65.78L88.61,40.32L89.08,240.86L89.09,250.32L89.26,269.2L89.56,116.59L89.62,123.42L89.63,120.06L89.76,86.54L90.25,203.27L90.27,200.41L90.29,198.57L90.55,148.29L90.86,264.89L90.87,274.86L90.94,296.09L91.39,90.33L91.41,90.54L92.05,226.22L92.24,132.9L92.25,127.68L92.53,20.32L92.91,217.14L92.92,220.13L92.96,225.24L93.22,137.04L93.23,129.22L93.37,84.91L93.73,150.83L93.74,157.54L94.05,227.84L94.55,213.27L94.56,215.55L94.65,232.61L94.92,133.95L94.93,132.33L95.13,45.28L95.4,171.24L95.41,176.62L95.64,281.73L96.01,66.56L96.02,62.74L96.1,41.44L96.39,193.34L96.4,201.17L96.56,261.44L97.01,108.57L97.02,104.45L97.09,56.01L97.47,180.1L97.49,188.46L97.94,102.72L98.31,242.87L98.32,245.86L98.46,258.67L98.61,216.92L98.62,209.88L98.95,67.01L99.32,216.62L99.33,218.56L99.39,246.89L99.83,73.56L99.84,74.72L99.86,76.24L99.9,79.27L99.94,67.19L99.95,65.19L99.99,56.87L100.25,193.38L100.26,204.1L100.42,252.85L100.83,87.44L100.85,86.01L100.91,77.01L101.08,146.31L101.1,153.35L101.4,228.53L101.69,127.54L101.82,139.9L101.84,133.14L101.87,126.75L102.14,266.71L102.15,267.69L102.34,277.51L102.54,179.32L102.55,176L102.82,96.47L103.28,187.53L103.29,193.36L103.36,202.62L103.4,176.66L103.41,167.73L103.83,18.94L104.15,171.42L104.16,173.83L104.27,186.36L104.64,138.79L104.78,151.5L104.79,148.03L104.83,143.53L105.2,196.12L105.48,161.31L105.49,162.81L105.54,156.34L105.63,168.95L105.64,171.11L105.99,299.22L106.33,148.36L106.34,138.4L106.53,51.11L106.94,259.18L106.95,262.6L107.1,271.6L107.25,182.43L107.26,172.76L107.57,21.15L107.96,206.49L107.98,201.81L107.99,202.26L108.07,222.66L108.53,93.57L108.83,147.63L108.84,149.36L109.76,238.44L109.9,199.9L109.92,196.54L110.38,84.57L110.49,152.96L110.5,158.24L110.82,237.99L111.17,94.84L111.18,91.21L111.42,76.73L111.58,108.39L111.59,115.23L111.6,113.24L111.81,220.64L111.82,227.11L111.85,229.66L112.43,109.25L112.57,162.77L112.58,167.49L113.34,221.23L113.4,205.82L113.41,203.98L113.43,210.26L113.87,133.87L113.88,121.02L113.95,79.78L114.46,198.81L114.57,154.16L114.58,150.75L114.64,156.8L114.8,127.54L114.81,121.67L114.89,84.28L115.44,203.01L115.45,204.45L115.59,216.06L115.79,127.37L115.8,120.51L116.09,92.84L116.3,201.34L116.31,204.23L116.36,219.8L116.7,168.7L116.78,182.67L116.79,176.33L116.97,144.05L117.38,285.03L117.4,284.48L117.41,284.4L117.42,286.79L117.66,168.39L117.67,160.79L117.98,16.8L118.33,197.51L118.34,198.92L118.46,252.31L118.83,48.9L118.84,48.95L118.85,46.81L118.93,33.18L119.12,93.04L119.13,100.06L119.4,260.62L119.87,122.76L119.88,121.3L119.89,121.78L119.99,93.43L120,89.71L120.45,201.3L120.79,163.18L120.8,163.3L121.19,303.76L121.41,226.27L121.42,220.66L121.64,68.46L122.1,214.71L122.11,218.88L122.15,227.96L122.53,117.98L122.54,111.03L122.75,31.54L123.16,206.11L123.17,209.87L123.26,224.37L123.43,173.51L123.44,167.88L123.78,75.92L124.13,188.61L124.14,188.96L124.55,167.29L124.93,241.6L124.96,239.75L124.97,240.58L125.03,228.83L125.04,224.95L125.41,62.49L125.61,149.71L125.62,155.74L125.89,253.08L126.26,75.6L126.27,71.43L126.4,35.35L126.73,233.55L126.74,241.76L126.84,277.91L127.21,124L127.22,118.92L127.34,70.31L127.52,141.25L127.53,146.41L127.77,211.37L128.13,145.61L128.14,137.5L128.19,119.03L128.64,244.86L128.77,217.05L128.78,218.18L129.06,68.82L129.36,161.27L129.37,168.43L129.64,245.52L129.94,92.95L129.95,93.04L130.22,55.59L130.4,156.02L130.42,160.85L130.67,237.74L131.02,104.22L131.03,104.22L131.18,94.68L131.36,172.9L131.37,178.87L131.59,234.85L132.04,138.36L132.05,138.41L132.07,133.68L132.33,233.54L132.34,236.63L132.59,296.27L132.83,160.66L132.84,152.92L133.11,83.2L133.54,191.93L133.55,197.12L133.58,199.07L133.82,106.22L133.83,105.15L134.1,27.4L134.41,156.58L134.42,155.93L134.43,159.34L134.55,177.17L134.92,148.25L135.2,167L135.21,163.48L135.27,149.09L135.53,202.68L135.92,173.93L135.93,173.69L136.15,260.04L136.16,268.62L136.23,300.25L136.65,76.19L136.66,65.38L136.8,19.31L137.15,223.44L137.16,231.54L137.34,291.55L137.72,55.07L137.73,53.28L137.83,38.75L137.94,79.31L137.95,85.65L138.31,223.28L138.73,104.99L138.75,104.05L138.8,91.23L139.22,158.59L139.4,144.02L139.41,151.28L139.55,145.05L140,245.87L140.22,194.14L140.24,186.88L140.55,87.24L140.9,203.98L140.91,206.16L141.05,230.37L141.41,121.82L141.42,115.42L141.68,51.13L142.01,187.64L142.02,196.26L142.2,233L142.54,113.17L142.67,135.38L142.68,136.37L143.62,211.36L143.76,196.18L143.77,194.9L144.19,112.13L144.2,103.58L144.25,84.6L144.63,162.1L144.64,169.8L144.74,199.81L145.17,63.02L145.24,73.33L145.25,70.47L145.26,68.95L145.51,139.36L145.52,139.2L145.53,145.8L145.88,225.38L146.16,100.35L146.22,107.94L146.23,113.22L146.7,228.24L147.09,162.76L147.1,158.15L147.26,138.62L147.42,178.99L147.43,186.03L147.65,282.16L147.98,149.61L147.99,142.41L148.22,30.78L148.64,217.58L148.65,224.1L148.74,257.38L149.07,79.28L149.08,71.32L149.16,25.36L149.62,219.49L149.63,224.55L149.71,248.31L150.21,119.46L150.22,116.68L150.29,98.24L150.81,198.25L150.82,199.22L151.05,160.45L151.45,286.51L151.67,217.06L151.68,209.88L151.94,94.2L152.36,214.43L152.37,219.81L152.4,229.99L152.85,104.06L152.86,97.53L153.1,16.21L153.42,187.65L153.43,192.57L153.58,236.17L153.84,121.08L153.85,113.58L154.1,80.51L154.29,144.54L154.3,148.61L154.59,234.05L155.28,221.94L155.29,222.55L155.67,60.75L155.68,54.49L155.71,44.52L156.1,225.28L156.11,233.07L156.2,263.97L156.54,90.88L156.55,81.84L156.71,56.55L156.93,192.5L156.94,203.74L157.14,255.16L157.54,119.44L157.55,109.77L157.62,68.01L158.1,220.09L158.2,194.79L158.21,196.51L158.22,197.98L158.49,131.59L158.51,130.26L158.56,113.38L158.98,251.32L159.02,248.59L159.03,249.35L159.23,209.52L159.25,195.78L159.44,27.21L159.94,245.34L159.95,248.36L159.96,251.09L160.23,124.23L160.25,116.02L160.57,56.05L160.89,213.31L160.9,217.83L161.03,254.34L161.43,100.27L161.44,101.24L161.45,96.73L161.49,93.83L161.94,224.22L162.21,160.23L162.22,155.61L162.44,123.94L162.59,201.8L162.61,210L162.83,270.15L163.24,119.45L163.25,115.52L163.42,92.58L163.58,153.26L163.6,160.54L163.92,205.6L164.22,99.62L164.23,95.24L164.41,40.37L164.76,181.09L164.77,179.7L164.78,180.96L164.81,188L165.23,133.14L165.39,151.75L165.4,148.1L165.47,148L165.84,204.18L166.16,157.4L166.17,151.41L166.22,143.67L166.6,303.36L166.67,288.34L166.68,290.55L166.9,155.76L166.91,145.7L167.13,16.6L167.52,230.28L167.53,239.47L167.65,265.15L168,94.32L168.01,87.53L168.14,40.44L168.58,221.12L168.59,220.41L168.67,238.93L169.01,169.89L169.02,162.26L169.16,101.72L169.79,140.35L169.8,142.67L170.44,266.34L170.69,188.81L170.7,179.89L171,68.5L171.39,218.75L171.4,219.45L171.49,229.07L171.54,213.24L171.56,204.16L172.03,59.63L172.34,180.57L172.35,185.75L172.55,229.41L172.89,120.45L172.9,116.91L172.97,97.95L173.11,136.92L173.12,138.66L173.18,137.97L174.02,222.09L174.21,204.96L174.22,203.31L174.27,217.39L174.6,127.52L174.61,119.77L174.76,91.88L175.16,186.97L175.29,162.21L175.3,166.41L175.31,168.95L175.62,57.7L175.69,75.39L175.7,76.1L175.72,75.5L176.3,260.46L176.42,171.96L176.43,159.98L176.77,112.86L177.09,219.07L177.1,220.62L177.33,164.52L177.34,158.21L177.46,161.94L177.55,118.88L177.8,161.29L177.81,169.25L178.07,267.33L178.45,101.05L178.46,97.45L178.64,36.37L178.94,184.88L178.95,192.33L179.15,247.58L179.4,114.1L179.41,106.66L179.58,48L179.95,174.63L179.96,179.01L180.11,252.3L180.64,116.08L180.65,111.7L180.7,104.37L181.05,197.52L181.06,201.3L181.09,205.07L181.26,184.45L181.27,182.87L181.52,136.58L181.69,194.34L181.7,201.83L181.91,299.37L182.1,216.79L182.12,208.82L182.31,87.73L182.81,210.96L182.86,206.09L182.87,209L182.88,209.38L183.01,190.05L183.04,193.28L183.05,187.31L183.49,45.14L183.77,171.31L183.78,172.33L183.94,228.55L184.17,168.28L184.18,162.43L184.35,106.04L184.71,160.54L184.73,164.83L185.28,142.16L185.63,233.6L185.64,233.34L185.69,238.55L185.85,166.66L185.86,161.34L186.14,50.09L186.48,201.79L186.49,204.71L186.65,273.24L186.96,96.32L186.97,89.91L187.12,31.05L187.42,230.53L187.43,232.51L187.54,270.63L187.86,178.63L187.87,170.59L188.06,61.49L188.42,191.02L188.43,197.95L188.5,217.58L188.99,104.07L189.08,142.01L189.09,143.61L189.43,253.99L189.66,148.45L189.67,137.42L189.92,62.39L190.3,220.91L190.32,230.02L190.36,251.06L190.88,76.29L190.89,72.88L190.95,63.61L191,78.14L191.01,82.33L191.36,246.2L191.78,101.1L191.79,98.47L191.88,82.19L192.18,194.71L192.19,195.6L192.36,211.13L192.78,151.37L192.8,146.66L192.83,141.43L193.22,282.44L193.26,275.49L193.27,275.9L193.32,281.57L193.68,107.8L193.71,111.51L193.72,111.07L193.83,78.76L194.21,180.53L194.22,184.12L194.28,200.98L194.55,106.21L194.56,103.76L194.81,22.63L195.09,145.82L195.1,148.61L195.55,183.79L195.91,172.5L195.92,169.64L196.21,200.53L196.51,152.5L196.63,171.19L196.64,170.94L196.96,297.19L197.2,190.64L197.21,183.26L197.48,44.92L197.87,234.91L197.88,239.13L197.99,263.71L198.22,147L198.23,141.04L198.48,25.08L198.89,214.87L198.9,217.79L199.03,232.15L199.44,127.84L199.45,122.18L199.49,103.97L200.12,156L200.14,160.54L200.76,259.04L200.96,184.11L200.97,177.04L201.25,86.71L201.68,207.83L201.69,209.55L201.78,219.5L202.06,121.75L202.07,116.74L202.27,58.91L202.66,183.46L202.67,192.53L202.78,234.92L203.21,106.72L203.24,109.33L203.25,110.36L203.53,176.74L203.54,182.2L203.69,213.8L203.7,218.02L203.95,183.37L204.34,230.88L204.51,206.66L204.52,206.12L204.89,69.79L205.3,188.42L205.31,193.65L205.32,196L205.73,119.17L205.74,111.54L205.83,64.08L206.35,201.17L206.36,203.74L206.52,253.56L206.78,108.42L206.91,137.78L206.92,138.23L206.95,128.65L206.97,126.11L207.02,109.6L207.29,225.24L207.68,141.41L207.69,143.15L207.76,129.53L208.07,189.82L208.09,197.56L208.3,282.15L208.74,89.58L208.75,79.22L208.86,33.23L209.34,230.15L209.35,239.3L209.38,257.58L209.78,26.38L209.79,21.58L209.83,16.73L210.11,110.08L210.12,116.6L210.34,256.95L210.68,130.66L210.7,125.93L210.95,83.6L211.3,195.81L211.33,192.95L211.34,194.91L211.71,166.91L212.12,293.37L212.31,234.62L212.32,228.33L212.73,69.77L213.07,219.37L213.08,220.61L213.22,226.92L213.34,176.5L213.35,172.46L213.71,35.77L213.98,187.91L213.99,191.63L214.2,234.05L214.4,152.45L214.41,143.72L214.69,69.9L215.03,170.9L215.05,175.03L215.49,164.26L215.88,239.87L215.9,234.45L215.92,228.38L216.31,59.23L216.66,226.69L216.67,231.11L216.84,278.24L217.12,95.75L217.13,89.22L217.29,43.08L217.55,181.39L217.56,188.23L217.75,279.57L218.18,81.72L218.19,77.62L218.25,58.49L218.26,56.79L218.35,83.25L218.36,89.2L218.83,195.88L219.07,104.41L219.08,102.29L219.11,95.88L219.45,206.75L219.46,214.62L219.61,265.56L219.95,78.93L219.96,70.15L219.99,61.02L220.47,246.17L220.48,248.84L220.55,271.28L220.91,78.51L220.92,79.39L220.93,77.05L221.16,33.1L221.3,120.38L221.31,125.68L221.58,257.09L221.99,100.32L222.01,98.31L222.09,77.35L222.42,223.46L222.46,222.14L222.47,223.62L222.52,235.27L222.73,188.17L222.75,184.09L223.01,109.08L223.21,224.56L223.22,228.12L223.48,269.63L223.73,127.25L223.75,122.07L223.96,78.36L224.37,186.92L224.38,190.96L224.46,221.68L224.79,109.51L224.8,108.11L224.97,44.6L225.29,163.59L225.32,160.1L225.33,161.1L225.45,171.61L225.83,130.23L225.96,142.9L225.98,142.51L226.18,140.18L226.33,197.91L226.4,191L226.41,191.26L226.73,144.23L227.01,240.96L227.02,250.82L227.24,303.61L227.57,74.01L227.58,64.67L227.73,16.79L228,155.22L228.01,166.38L228.23,277.66L228.63,55.25L228.64,51.22L228.74,18.4L229.13,210.51L229.14,212.06L229.23,239.82L229.63,122.64L229.64,118.74L229.71,98.52L230.15,157.94L230.19,156.03L230.21,159.71L230.28,149.51L230.9,268.84L231.12,219.85L231.13,215.35L231.52,64.21L231.89,197.09L231.9,204.19L231.97,244.22L232.5,62.93L232.51,58.08L232.58,43.96L232.86,177.13L232.87,183.94L233.07,254.49L233.47,105.85L233.48,110.33L233.49,110.14L233.62,89.82L234.09,217.65L234.66,190.64L234.68,189.53L234.72,199.4L234.89,149.2L235.03,151.85L235.05,147.79L235.18,89.14L235.62,203.88L235.63,210.18L236.09,64.1L236.42,138.28L236.43,144.36L236.81,241.02L236.99,163.55L237,158.39L237.27,122.55L237.56,198.36L237.7,176.15L237.71,179.57L238.14,138.17L238.58,293.86L238.6,290.89L238.61,284.08L239.14,20.83L239.48,179.65L239.49,182.16L239.71,257.18L239.91,131.42L239.92,123.81L240.11,38.34L240.55,217.27L240.56,228.22L240.77,249.8L241.14,121.41L241.15,120.78L241.25,87.54L241.56,200.74L241.57,203.77L242.09,146.87L242.4,302.53L242.49,279.5L242.51,276.14L242.95,76.26L243.3,216.79L243.31,222.96L243.38,238.12L243.73,132.68L243.75,123.4L244,33.66L244.37,207.38L244.38,212.6L244.5,236.55L244.7,150.87L244.71,143.73L245.01,77.21L245.33,183.31L245.34,192.05L245.8,157.21L246.15,231.23L246.16,230.92L246.17,232.85L246.19,236.01L246.36,172.73L246.37,164.92L246.63,44.33L247,230.56L247.01,236.37L247.12,275.29L247.56,49.64L247.57,47.16L248.04,279.58L248.43,124.81L248.44,120.12L248.62,62.05L248.97,194.7L248.98,196.98L249,197.81L249.24,172.27L249.25,170.42L249.48,110.17L249.82,239.79L249.84,242.44L249.89,254.08L250.19,132.01L250.21,128.09L250.34,62.52L250.68,183.26L250.69,187.44L250.86,244.88L251.09,150.73L251.1,139.63L251.48,55.92L251.78,214.24L251.79,219.14L251.91,272.87L252.31,106.73L252.33,107.67L252.34,104.39L252.4,91.2L252.51,135.92L252.52,142.34L252.79,221.82L253.24,129.46L253.25,125.65L253.35,117.24L253.43,172.94L253.45,181.45L253.73,292.44L254.11,122.34L254.12,118.24L254.29,77.97L254.7,182.17L254.71,188.34L254.78,206.51L255.21,50.59L255.22,46.27L255.31,37.39L255.35,51.57L255.36,61.55L255.68,192.68L256.2,141.6L256.21,141.33L256.32,137.23L256.73,192.95L256.99,159.69L257,155.44L257.03,153.13L257.22,206.86L257.23,213.26L257.4,303.78L257.83,118.23L257.84,108.28L257.94,36.21L258.43,254.85L258.44,257.27L258.51,270.75L258.6,241.19L258.61,235.19L259.02,23.12L259.38,202.44L259.39,206.39L259.54,227.79L259.83,156.29L259.84,156.47L260.01,101.59L260.61,145.05L260.62,152.86L261.1,261.63L261.43,189.07L261.44,182.47L261.7,88.5L262.15,215.48L262.16,215.41L262.25,238.27L262.52,115.68L262.55,117.59L262.56,112.17L262.57,112.42L262.59,98.22L262.6,89.54L262.79,52.62L263.19,221.11L263.2,227.86L263.26,250.68L263.73,122.25L263.81,129.89L263.82,123.76L263.84,114.18L264.29,208.78L264.47,187.63L264.48,190.12L264.65,187.92L265,220.68L265.21,190.49L265.22,188.2L265.39,90.11L265.78,179.25L265.79,190.92L265.84,215.6L266.33,38.07L266.35,45.11L266.37,46.6L266.99,226.79L267.27,115.62L267.28,114.23L267.31,108.09L267.72,192.1L267.74,199.59L267.81,224.12L268.28,124.2L268.37,143.18L268.38,141.94L268.42,138.67L268.49,159.74L268.5,166.51L268.81,290.15L269.16,105.7L269.17,98.41L269.28,39.75L269.74,233.86L269.78,225.83L269.79,224.92L269.88,240.24L269.95,194.93L269.97,185.81L270.31,16.82L270.69,187.18L270.7,199.4L270.77,254.05L271.25,123.23L271.31,132.73L271.32,131.7L271.42,104.89L271.64,174.1L271.65,176.62L272.15,136.55L272.54,301.81L272.55,303.6L272.61,303.41L272.62,303.8L272.63,300.56L273.02,76.22L273.48,219.28L273.49,221.6L273.54,231.98L273.82,150.05L273.83,144.63L274.13,32.83L274.5,192.77L274.51,194.25L274.62,230.79L275.05,102.86L275.07,101.48L275.14,93.2L275.5,188.37L275.51,193.41L275.97,180.84L276.24,221.94L276.32,220.44L276.33,216.94L276.75,70.03L277.03,225.53L277.04,233.92L277.2,281.88L277.48,120.22L277.49,106.43L277.73,31.77L278.06,233.15L278.13,227.77L278.14,233.74L278.19,249.14L278.61,95.83L278.62,89.23L278.68,50.39L279.22,200.86L279.23,206.34L279.52,120.9L280.02,269.58L280.13,247.22L280.14,245.21L280.17,250.38L280.22,212.46L280.23,195.55L280.45,40.94L280.94,250.07L280.95,249.9L280.96,255.88L281.32,60.52L281.38,64.28L281.4,65.12L281.57,40.39L281.73,135.51L281.74,139.62L282.01,249.58L282.36,119.79L282.37,114.08L282.47,82.52L282.92,244.13L282.95,238.96L282.96,241.11L283.4,108.82L283.64,228.22L283.65,237.6L283.81,302.23L284.23,119.03L284.24,117.62L284.34,79.05L284.77,171.3L284.78,178.39L284.9,212.57L285.29,51.64L285.3,40.51L285.34,24.95L285.77,172.46L285.78,176.83L285.86,182.11L286.21,135.49L286.34,149.87L286.35,147.51L286.4,143.43L286.82,203.36L287.04,158.97L287.05,161.39L287.16,150.78L287.65,303.97L287.84,208.83L287.85,199.93L288.12,22.07L288.44,193.2L288.45,200.95L288.62,283.13L289.01,52.16L289.02,45.67L289.17,16.65L289.58,231.96L289.59,237.06L289.62,238.97L289.7,210.97L289.71,206.35L290.11,98.16L290.67,138.72L290.68,140.36L291.37,269.71L291.57,214L291.59,208.53L291.92,78.49L292.28,205.71L292.29,211.82L292.35,218.7L292.72,104.26L292.73,96.17L292.96,40.58L293.31,205.78L293.33,214.91L293.52,273.59L293.81,134.15L293.83,131.42L293.97,106.49L294.38,202.15L294.4,200.7L294.41,201.28L294.43,209.3L294.6,173.38L295.15,199.74L295.16,199.78L295.53,74.42L295.84,142.88L295.85,144.02L296.02,206.86L296.46,67.91L296.47,70.71L296.48,72.84L297.16,254.23L297.37,151.93L297.38,145.1L297.69,118.2L297.94,214.07L298.07,181.27L298.08,185.06L298.43,126.43L298.97,285.53L299.07,261.24L299.08,258.84L299.45,31.3L299.75,150.72L299.76,151.54L300.04,250.16L300.17,183.67L300.18,173.74L300.44,16.66L300.87,213.1L300.88,224.24L300.97,278.69L301.52,120.47L301.54,116.43L301.59,96.58L301.94,214.42L302.25,156.02L302.26,154.45L302.33,134.68L302.63,233.07L302.65,240.01L302.79,303.84L303.2,73.62L303.21,72.11L303.69,232.85L304.06,121.28L304.07,116.64L304.32,16.4L304.58,162.45L304.59,170.28L304.86,234.88L305.27,113.81L305.28,113.33L305.36,106.11L305.6,168.75L305.61,173.73L305.84,221.79L306.2,163.12L306.4,192.6L306.41,192.68L306.43,195.42L306.77,116.91L306.78,114.36L306.92,56.02L307.21,211.54L307.22,216.6L307.44,275.66L307.75,88.05L307.76,81.8L307.92,28.44L308.17,201.67L308.18,211.02L308.39,276.47L308.79,96.6L308.8,89.93L308.87,65.34L309.31,202.13L309.37,184.89L309.38,184.5L309.47,193.05L309.72,122.14L309.74,121.24L309.75,120.47L309.93,160.92L309.94,168.73L310.19,244.03L310.54,63.01L310.55,61.67L310.68,54.67L310.9,175.55L310.91,181.17L311.12,266.39L311.49,90.01L311.5,88.53L311.7,54.52L312.05,222.81L312.06,224.08L312.19,241.22L312.64,90.94L312.9,197.21L312.91,204.77L313.07,254.83L313.57,129.36L313.59,129.12L314.01,280.38L314.19,208.43L314.21,200.25L314.52,59.1L314.94,195.73L314.96,199.41L314.98,198.7L315.01,205.99L315.02,211.73L315.06,216.66L315.36,94.2L315.37,88.51L315.51,33.62L315.93,167.77L316.02,161.9L316.03,163.6L316.36,124.74L316.7,174.56L316.76,169.37L316.77,170.41L317.01,222.22L317.26,152.51L317.36,181.2L317.37,186.94L317.64,303.71L318.01,144.63L318.02,136.32L318.23,16.86L318.59,215.59L318.6,224.1L318.74,298.76L319.14,50.45L319.15,42.1L319.2,16.22L319.64,215.06L319.65,220.32L319.68,226.51L320.19,119.46L320.2,117.32L320.25,105.06L320.86,157.35L320.87,161.49L321.44,261.46L321.67,183.7L321.68,180.27L321.99,69.27L322.17,156L322.18,164.69L322.55,252.1L322.75,131.27L322.79,135.07L322.8,134.15L322.99,36.46L323.35,174.93L323.36,180.32L323.65,234.66L323.92,120.01L323.93,115.98L324.09,106.74L324.28,148.23L324.29,149.87L325.05,233.93L325.11,219.12L325.12,217.35L325.61,50.97L325.87,145.59L325.89,146.15L326.05,216.16L326.36,125.28L326.37,121.11L326.55,63.54L326.94,175.23L326.95,176.65L327.21,242.41L327.48,114.05L327.49,110.49L327.72,102.59L327.83,125L327.84,130.49L328.03,212.85L328.58,133.38L328.59,130.91L328.6,128.1L328.9,251.66L328.91,253.83L329.02,287.43L329.28,173.07L329.29,165.19L329.51,37.49L329.97,213.92L329.99,217.67L330.09,241.91L330.19,189.67L330.2,180.85L330.51,23.94L330.91,206.1L330.92,215.93L331.01,262.24L331.48,109.11L331.55,109.14L331.56,105.9L331.65,82.79L331.98,192.33L331.99,196.14L332.35,155.25L332.81,304L332.88,261.69L332.89,252.56L333.23,74.56L333.68,205.36L333.69,204.36L333.76,222.32L334.14,94.52L334.15,89.51L334.35,30.35L334.64,196.46L334.65,206.12L334.8,238.32L335.13,109.19L335.22,115.38L335.23,110.02L335.36,71.28L335.83,197.91L335.84,199.62L336.04,189.38L336.4,234.88L336.58,200.87L336.59,196.14L336.91,45.19L337.29,232.87L337.3,236.76L337.42,284.47L337.59,182.61L337.6,173.88L337.88,39.33L338.26,237.53L338.27,245.41L338.38,267.12L338.75,94.98L338.76,87.77L338.86,50.23L339.32,196.64L339.39,186.89L339.4,190.16L339.44,192.35L339.57,151.91L339.58,144.66L339.66,107.42L340.16,288.25L340.18,291.94L340.61,47.15L340.9,174.91L340.91,182.02L341.13,268.44L341.42,74.59L341.43,68.96L341.71,41.21L341.97,191.52L341.98,200.82L342.13,249.73L342.5,107L342.54,111.6L342.55,107.91L342.62,68.72L342.84,147.1L342.85,152.91L343.12,223.2L343.54,126.65L343.55,128.08L343.56,130.65L343.58,129.86L343.63,161.6L343.64,169.67L343.83,303.7L344.26,138.34L344.28,135.83L344.49,84.53L344.91,193.69L344.92,197.03L344.96,207.28L345.29,91.87L345.3,84.08L345.49,17.71L345.87,183.16L345.88,183.49L346.31,132.08L346.77,149.06L346.78,153.21L347.17,151.25L347.64,303.79L347.78,230.06L347.79,222.74L348.08,41.21L348.49,250.8L348.51,257.76L348.63,279.74L348.95,104.14L348.96,94.18L349.17,16.77L349.57,220.35L349.58,221.03L350.17,103.83L350.57,148.95L350.58,154.65L350.7,139.16L351.37,250.71L351.44,230.48L351.45,226.02L351.88,49.88L352.21,200.84L352.23,204.65L352.37,254.88L352.73,110.89L352.74,103.46L352.9,28.31L353.31,221.73L353.32,228.88L353.56,257.96L353.83,105.68L353.85,107.6L353.86,108.41L354.27,181.61L354.28,193.73L354.86,243.27L355.05,216.75L355.06,215.61L355.49,72.49L355.79,144.83L355.8,150.58L355.93,188.78L356.14,139.66L356.16,141.51L356.17,136.89L356.21,139.85L356.36,72.09L356.37,64.87L356.42,57.19L356.74,154.38L356.75,161.23L357.09,232.55L357.36,109.66L357.37,104.62L357.41,96.91L357.81,184.27L357.83,194.34L357.87,213.35L358.36,126.16L358.5,139.18L358.51,138.84L358.83,289.96L359.21,141.24L359.22,135.49L359.35,16.63L359.87,238.92L359.88,243.35L359.92,259.09L360.29,30.09L360.31,26.4L360.33,16.41L360.78,197.85L360.79,210.08L360.87,269.59L361.32,126.47L361.39,131.73L361.4,129.94L361.5,97.16L361.86,202.77L361.88,202.47L361.89,201.74L362.22,150.55L362.4,186.31L362.42,190.52L362.6,303.86L362.94,160.29L362.95,150.29L363.1,55.72L363.59,227.44L363.63,225.93L363.64,229.92L363.65,231.11L363.87,171.78L363.88,160.64L364.2,16.77L364.54,204.21L364.55,206.92L364.7,253.5L364.93,171.98L364.94,159.38L365.29,69.75L365.61,202.69L365.63,196.35L365.64,195.38L365.67,195.06L365.7,204.07L365.71,207.13L365.93,182.72L366.31,236.52L366.45,213.39L366.46,208.72L366.85,55.86L367.02,153.67L367.03,161.09L367.31,282.1L367.66,62.8L367.67,58.12L367.74,20.1L368.05,183.66L368.06,194.54L368.23,285.08L368.7,89.23L368.71,81.98L368.76,70.77L369.17,216.88L369.18,216.18L369.33,218.35L369.64,100.35L369.92,201.01L369.93,203.7L370.08,241.31L370.36,85.21L370.38,83.29L370.57,35.74L370.89,219.5L370.9,218.44L370.91,221.35L371.02,271.5L371.35,78.11L371.43,83.23L371.44,77L371.62,54.81L371.92,208.07L371.93,212.9L372.06,247.2L372.47,93.1L372.49,86L372.52,73.44L372.97,244.85L372.99,247.75L373.01,251.98L373.13,190.24L373.14,190.81L373.15,186.63L373.16,186.84L373.2,175.66L373.21,171.61L373.48,120.01L373.65,230.82L373.66,236.35L373.91,297.98L374.25,115.09L374.26,115.78L374.39,72.26L374.64,145.83L374.73,132.08L374.74,134.22L374.94,205.77L375.33,42.64L375.35,41.03L375.42,16.75L375.8,176.25L375.81,179.17L375.83,181.66L376.23,144.14L376.51,169.34L376.52,166.4L376.81,197.13L377.13,142.86L377.23,168.5L377.24,177.8L377.6,303.66L377.91,127.83L377.92,119.66L378.11,23.36L378.54,273.56L378.55,274.17L378.63,291.58L378.76,228.37L378.77,223.75L379.04,16L379.49,221.34L379.5,227.44L379.54,248.88L380.1,112.04L380.11,108.16L380.13,105.13L380.6,153.74L380.69,147.74L380.7,151.66L381.27,253.24L381.49,186.95L381.5,180.6L381.79,63.21L382.06,168.85L382.07,177.06L382.36,248.22L382.7,112.36L382.71,107.35L382.86,51.22L383.16,132.26L383.18,142.85L383.53,253.87L383.82,96.31L383.86,103.81L383.87,102.14L383.95,100.56L384.84,235.72L384.85,232.2L385.46,70.36L385.8,159.59L385.81,165.65L385.94,217.93L386.42,70.62L386.45,79.54L386.46,81.74L387.05,224.97L387.3,133.38L387.31,125.16L387.41,91.13L387.87,221.51L387.92,202.43L387.93,200.5L388.34,131.02L388.61,212.12L388.62,219.07L388.85,295.3L389.11,193.24L389.12,182.37L389.36,19.23L389.74,204.34L389.76,208.69L389.96,262.09L390.19,85.16L390.2,77.43L390.35,16.63L390.77,182.54L390.78,194.56L390.88,275.63L391.44,100.74L391.45,96.22L391.5,78.22L391.88,231.36L392.06,182.1L392.07,182.33L392.22,167.7L392.68,291.17L392.85,191.49L392.87,184.36L393.09,90.18L393.57,207.06L393.58,206.6L393.59,208.77L393.71,221.42L393.94,119.97L393.95,120.24L393.96,114.41L394.2,21.95L394.46,166.34L394.48,174.06L394.68,246.95L395.01,109.22L395.08,111.94L395.09,108.19L395.29,71.52L395.51,166.93L395.52,169.97L396.26,246.49L396.36,231.94L396.37,226.79L396.49,194.5L396.5,184.19L396.79,38.29L397.19,239.55L397.2,243.55L397.34,285.59L397.42,226.71L397.43,214.37L397.79,16.69L398.14,240.16L398.15,243.89L398.17,242.99L398.26,261.19L398.31,244.33L398.32,240.28L398.59,119.82L398.6,113.43L398.74,65.93L399.14,216.19L399.15,223.04L399.31,230.58L399.42,181.95L399.43,171.7L399.62,128.67L400,246.72L400.01,245.46L400.05,264.66L400.39,70.5L400.4,64.38L400.46,49.39L400.89,216.86L400.9,220.33L401,258.46L401.44,54.98L401.45,53.73L401.62,46.41L402.01,250.64L402.33,139.7L402.34,128.52L402.53,76.57L402.91,218.63L402.93,221.32L402.99,238.2L403.25,155.63L403.26,152.25L403.28,153.82L403.45,122.45L403.46,116.91L403.63,212.31L403.64,222.15L403.86,289.82L404.23,138.35L404.24,140.09L404.4,94.32L404.63,147.01L404.74,146.12L404.75,149.61L404.87,208.46L405.28,53.66L405.3,48.58L405.42,16.77L405.86,182.38L405.87,186.95L405.88,187.54L406.13,159.95L406.14,157.38L406.21,147.33L406.76,197.08L406.77,198.55L406.98,153.54L407.45,279.12L407.46,286.5L407.58,303.67L407.93,92.83L407.94,81.49L408.03,16.76L408.56,266.04L408.57,271.91L408.62,286.38L408.86,129.81L408.87,123.8L409.12,22.89L409.46,209.29L409.47,220.81L409.54,239.08L410,126.25L410.02,119.08L410.11,81.83L410.42,136.27L410.44,135.73L410.45,138.93L410.54,131.57L411.01,186.25L411.02,190.74L411.33,266.85L411.66,120.02L411.67,116.59L411.84,65.32L412.14,183.86L412.15,187.69L412.36,241.01L412.57,130.29L412.58,127.93L412.64,132.05L412.91,51.41L413.09,104.15L413.1,112.63L413.5,250.37L413.73,143.19L413.75,137.53L413.96,106.8L414.27,188.29L414.28,193.36L414.49,216.82L414.66,178.35L415.02,192.88L415.03,190.5L415.08,198.09L415.43,98.79L415.44,89.61L415.49,75.7L415.96,232.93L416.09,168.11L416.11,164.72L416.43,46.32L416.83,173.15L416.85,175.92L417.11,219.14L417.31,139.67L417.32,132.94L417.41,93.31L417.91,211.55L417.99,190.44L418,192.62L418.36,137.61L418.88,298.32L418.9,295.48L418.91,292.89L419.38,17.5L419.8,202.85L419.81,204.65L419.84,202.63L419.97,234.26L419.98,235.01L420.03,212.13L420.04,205.45L420.35,16.72L420.75,156.61L420.76,166.34L420.92,276.23L421.43,118.73L421.45,116.63L421.52,96.25L421.77,186.32L421.78,194.63L422.25,138.1L422.66,303.62L422.71,303.53L422.72,303.51L422.76,297.93L422.77,291.55L423.13,65.03L423.6,214.73L423.61,220.92L423.64,228.48L424.13,65.56L424.14,63.14L424.27,24.5L424.45,110.3L424.46,119.17L424.74,239.65L425.16,90.57L425.18,88.55L425.26,73.29L425.58,164.92L425.59,170.61L426.37,229.11L426.42,221.02L426.43,218.11L426.6,169.24L426.61,165.51L426.85,65.35L427.2,217.49L427.21,217.75L427.38,260.18L427.59,131.68L427.6,124.21L427.84,25.01L428.19,224.96L428.2,231.71L428.33,271.85L428.71,139.12L428.72,131.68L428.83,89.75L429.21,236.25L429.4,192.3L429.41,188.39L429.68,108.65L430.04,226.85L430.05,230.91L430.13,243.02L430.25,195.04L430.27,196.02L430.28,190.58L430.49,48.31L430.9,191.72L430.91,194.95L431.08,257.86L431.33,97.47L431.34,87.76L431.53,60.29L431.91,186.45L431.92,196.43L432.1,236.05L432.46,130.51L432.47,132.89L432.48,133.73L432.6,101.14L432.88,198.81L432.89,208.9L433.05,247.03L433.42,152.95L433.43,152.59L433.53,123.87L433.89,280.09L434.15,184.81L434.16,175.43L434.46,76.74L434.87,175.84L434.88,181.63L434.95,200.08L435.4,51.57L435.41,50.01L435.49,26.42L435.9,179.6L435.97,172.26L435.99,169.98L436.12,177.54L436.64,144.16L436.65,139.09L436.66,138.6L436.75,168.62L436.76,172.02L437.19,150.93L437.67,303.63L437.74,275.58L437.75,267.83L438.16,18.69L438.52,239.78L438.53,245.56L438.68,275.2L439.04,56.13L439.05,46.61L439.12,16.87L439.6,227.66L439.64,217.49L439.65,217.35L439.75,222.3L440.22,101.37L440.56,151.27L440.57,152.61L441.22,262.64L441.49,215.07L441.5,206.78L441.85,63.83L442.26,195.14L442.27,199.54L442.45,241.46L442.66,123.89L442.67,122.2L442.71,123.38L442.89,40.73L443.15,106.59L443.16,113.34L443.45,237.9L443.92,123.78L443.94,124.66L444.09,116.88L444.92,227.58L445.12,200.84L445.13,199.59L445.54,52.3L445.84,153.43L445.85,157.97L445.99,216.19L446.41,56.31L446.43,50.7L446.46,45.41L446.74,130.33L446.75,135.91L447.12,241.7L447.39,127.01L447.4,120.57L447.44,116.4L447.76,156.4L447.77,159.03L447.89,221.05L448.24,140.87L448.35,146.6L448.36,141.42L448.41,120.9L448.91,276.3L448.93,274.39L448.94,272.83L449.31,112.41L449.32,101.79L449.44,17.03L449.94,221.42L449.95,232.45L450.01,248.77L450.4,16.66L450.45,16.95L450.46,16.88L450.71,116.18L450.72,127.87L450.94,271.96L451.46,127.81L451.47,126.33L451.56,101.08L451.75,162L451.77,167.85L452.28,146.44L452.72,288.91L452.74,282.89L452.76,272.43L453.16,68.8L453.59,196.34L453.6,199.95L453.66,229.03L454.19,36.72L454.2,34.33L454.24,19.37L454.5,133.98L454.51,145.35L454.75,266.04L455.21,94.68L455.22,91.13L455.26,86.9L455.64,180.37L455.65,187.15L456.38,223.03L456.44,209.59L456.45,202.9L456.86,44.69L457.17,207.59L457.18,215.72L457.39,269.6L457.61,117.83L457.62,110.45L457.82,44.55L458.23,257.99L458.24,256.71L458.29,268.59L458.55,194.57L458.56,189.13L458.8,57.3L459.2,205.72L459.23,204.2L459.24,206.45L459.33,213.38L459.54,149.01L459.55,141.22L459.66,118.33L459.99,217.11L460,220.42L460.12,244.41L460.25,205.16L460.26,202.13L460.49,43.81L460.81,149.09L460.82,154.96L461.07,260.99L461.3,109.39L461.31,98.89L461.65,61.15L461.87,175.59L461.88,182.32L462.1,248.46L462.52,86.01L462.53,82.21L462.56,72.99L462.93,229.74L462.95,229.27L463.04,237.64L463.5,124.34L463.63,206.37L463.64,210.71L463.98,285.44L464.16,165.73L464.17,158.19L464.41,76.76L464.86,196.84L464.87,199.81L464.91,215.9L465.41,26.04L465.42,23.11L465.45,17.78L465.61,119.78L465.62,123.84L465.88,180.92L466.45,168.12L466.46,169.11L466.78,194.43L467.06,155.29L467.12,159.07L467.13,154.57L467.14,149.05L467.59,303.46L467.61,302.97L467.62,302.17L468.11,28.12L468.45,199.54L468.46,213.37L468.65,281.73L469.06,41.23L469.07,31.46L469.13,16.84L469.48,202.06L469.49,211.36L469.56,247.53L470.06,102.57L470.08,105.17L470.09,103.7L470.18,95.49L470.6,148.66L470.7,138.5L470.71,146.37L471.33,268.82L471.51,199.55L471.53,196.19L471.84,50.7L472.24,222.91L472.25,231.4L472.34,269.37L472.73,99.75L472.74,92.5L472.96,35.2L473.33,204.18L473.34,206L473.56,247.84L473.83,119.86L473.94,123.51L473.95,123.06L474.01,116.51L474.37,231.43L474.95,196L474.96,192.94L475.02,197.51L475.13,185.75L475.14,176.7L475.47,55.01L475.84,201.42L475.85,200.5L475.94,222.82L476.07,161.48L476.08,155.25L476.41,55.32L476.75,173.23L476.76,174.77L477.07,229.55L477.37,147.79L477.38,145.52L477.59,123.29L477.82,165.12L477.83,172.22L478.05,183.98L478.29,124L478.3,118.78L478.32,114.99L478.7,238.13L478.71,242.39L478.83,291.8L479.21,115.75L479.23,103.94L479.37,25.57L479.87,212.49L479.88,215.29L479.94,231.71L480.25,62.19L480.26,56.84L480.39,26.35L480.62,113.15L480.63,120.4L480.87,275.2L481.36,128.24L481.37,130.14L481.51,110.41L481.69,157.49L481.7,165.29L481.76,208.13L482.21,130.88L482.22,129.33L482.44,216.57L482.46,224.92L482.69,303.66L482.99,105.12L483,99.5L483.11,57.45L483.55,245.92L483.56,251.78L483.58,254.86L483.85,186.33L483.86,181.99L484.25,16.66L484.52,198.06L484.53,201.18L484.56,200.02L484.61,223.5L484.62,225.39L484.68,246.56L485.08,122.79L485.09,119L485.26,74.67L485.58,166.99L485.59,174.25L486.29,219.9L486.37,201.93L486.38,193.06L486.78,79.61L487.08,214.35L487.09,222.86L487.26,272.82L487.57,117.77L487.58,108.42L487.76,45.5L488.15,243.55L488.16,249.03L488.21,256.28L488.57,145.52L488.58,135.3L488.76,68.95L489.12,209.34L489.27,186.15L489.28,188.16L489.58,121.87L489.82,169.71L489.83,175L490.01,248.22L490.42,68.31L490.43,62.54L490.5,40.19L490.88,201.63L490.89,203.14L490.99,254.22L491.27,110.8L491.29,104.45L491.63,60.26L491.88,190.97L491.89,194.39L492.08,247.41L492.29,167.55L492.3,164L492.53,96.39L492.86,238.15L492.87,235.69L492.88,233.64L493,246.53L493.24,155.98L493.25,151.75L493.48,127.92L493.55,170.17L493.56,180.92L493.85,293.86L494.19,147.16L494.2,139.46L494.4,74.99L494.82,179.3L494.83,183.86L494.92,211.76L495.34,40.14L495.35,34.27L495.41,16.44L495.74,178.77L495.8,178.07L495.81,181L495.83,188.67L496.32,134.04L496.45,137.12L496.46,135.01L497.62,303.64L497.63,303.4L497.64,303.64L497.66,303.67L497.7,288.12L497.71,280.76L498.14,17.15L498.52,224.23L498.53,230.29L498.69,295.56L499.02,79.55L499.03,69.22L499.13,16.42L499.56,218.28L499.57,224.3L499.67,243.28L500.03,146.47L500.04,138.73L500.15,86.59L500.68,154.74L500.76,152.65L500.77,158.45L501.36,261.47L501.57,199.08L501.58,194.78L501.6,194.99L501.62,188.69L501.63,181.92L501.89,72.28L502.33,209.87L502.35,214.33L502.49,228.71L502.74,137.68L502.75,132.59L502.89,65.64L503.32,188.5L503.34,195.23L503.49,232.78L503.81,144.93L503.82,137.51L504.04,93.29L504.35,180.14L504.36,187.17L504.5,221.49L504.67,179.8L505.16,213.19L505.17,210.44L505.23,210.46L505.61,90.95L505.98,164.9L505.99,172.39L506.09,206.74L506.57,38.27L506.58,38.46L507.22,232.52L507.5,120.19L507.51,116.78L507.52,116.63L507.6,123.46L507.61,127.19L507.73,117.13L508.02,229.97L508.32,174.02L508.33,169.29L508.69,129.62L508.88,231.83L508.89,237.82L509.03,303.7L509.37,149.23L509.38,143.69L509.58,22.24L509.95,188.93L509.97,186.51L509.98,188.98L510.11,260.27L510.25,203.91L510.26,196.75L510.55,25.02L510.98,206.23L510.99,212.47L511.14,257.82L511.58,116.83L511.59,112.05L511.7,92.99L512.1,211.78L512.18,204.56L512.19,204.85L512.2,205.23L512.29,180.42L512.3,176.55L512.49,147.2L512.66,192.8L512.67,196.66L512.85,284.17L513.24,115.14L513.25,107.99L513.31,97.27L513.72,218.87L513.73,221.33L513.76,227.69L514.01,192.45L514.03,184.75L514.3,63.87L514.31,55.07L514.45,16.78L514.69,148.93L514.7,155.18L514.95,246.05L515.34,103.82L515.35,98.94L515.4,82.64L515.84,207.35L515.95,200.02L515.96,201.44L516.04,191.47L516.05,189.38L516.19,157.35L516.61,226.72L516.69,210.73L516.7,210.01L516.81,154.31L516.82,151.19L517.06,60.35L517.4,216.08L517.41,222.08L517.57,282.25L517.98,42.81L518,39.21L518.05,24.38L518.36,228.48L518.38,230.63L518.47,266.84L518.82,137.52L518.83,133.4L519.02,62.32L519.2,137.29L519.21,143.6L519.44,212.74L519.81,131.74L520.09,210.67L520.11,213.39L520.32,254.64L520.59,114.72L520.61,103.41L520.68,54.93L521.23,230.44L521.24,236.63L521.26,245.71L521.71,59.92L521.73,59.04L521.86,58.25L522.1,188.91L522.11,199.86L522.29,252.79L522.74,111.54L522.75,106.35L522.8,93.59L523.11,199.39L523.12,205.37L523.18,229.46L523.68,126.92L523.69,124.93L523.73,115.56L523.98,251.08L523.99,257.03L524.03,266.79L524.4,146.85L524.41,139.52L524.65,89.52L525.05,173.79L525.06,172.61L525.07,174.52L525.13,188.53L525.55,79.94L525.56,75.3L525.62,44.23L525.91,173.05L525.99,170.45L526,173.16L526.06,190.75L526.5,139.72L526.7,157.43L526.71,157.31L526.86,138.32L527.03,187.8L527.36,167.97L527.37,171.3L527.76,265.46L528.03,129.01L528.04,116.68L528.25,48.53L528.62,224.55L528.63,233.69L528.83,282.18L529.16,79.7L529.17,75.49L529.31,32.99L529.63,157.81L529.64,165.3L529.72,201.2L530.25,108.44L530.28,114.82L530.3,112.6L530.33,107.28L530.69,171.5L530.86,156.13L530.87,156.88L531.37,278.76L531.7,197.1L531.71,196.07L532.01,63.01L532.37,201.32L532.38,202.92L532.55,228.17L532.75,140.63L532.76,138.89L533.01,28.91L533.31,97.07L533.32,101.56L533.56,244.86L533.99,129.73L534,129.25L534.17,124.28L534.55,231.56L535.06,216.99L535.07,215.04L535.08,217.77L535.52,138.69L535.53,134.96L535.69,59.65L536.05,186.82L536.06,192.76L536.12,227.66L536.53,75.4L536.54,68.7L536.61,53.21L537.05,215.16L537.06,217.09L537.26,258.16L537.73,95.78L537.97,179.43L537.98,185.47L538.04,207.42L538.54,117.87L538.6,120.59L538.61,121.99L538.63,121.26L538.7,144.04L538.71,148.47L539.04,285.85L539.39,120.67L539.4,115.32L539.55,25.71L539.96,233.71L539.97,234.24L540.08,250L540.27,164.8L540.28,154.76L540.58,29.41L540.96,214.71L540.97,225.02L541.04,263.92L541.42,111.13L541.43,105.5L541.68,80.37L541.88,151.71L541.89,159.11L542.41,149.42L542.76,303.78L542.93,296.33L542.94,284.7L543.29,74L543.73,237.5L543.74,241.74L543.75,243.48L544.03,165.75L544.04,160.66L544.43,16.86L544.69,167.81L544.7,173.09L544.92,234.93L545.22,125.78L545.26,128.59L545.27,126.62L545.43,102.01L545.51,121.69L545.52,128.57L546.5,231.96L546.53,224.62L546.54,221.03L546.67,192.58L546.68,184.52L547.01,26.92L547.36,231.73L547.37,234.97L547.51,282.37L547.75,135.19L547.76,124.92L547.97,28.86L548.39,256.01L548.4,257.94L548.43,264.64L548.78,152.03L548.79,137.71L548.95,67.26L549.4,215.74L549.48,191.1L549.49,192.13L549.84,107.62L550.29,260.43L550.34,236.36L550.35,225.67L550.65,46.53L551.11,210.23L551.12,215.78L551.23,264.17L551.61,90.63L551.62,90.12L551.81,71.73L552.05,192.76L552.06,198.26L552.26,254.73L552.56,128.89L552.57,122.21L552.74,60.52L553.12,220.92L553.13,226.43L553.23,234.16L553.56,136.05L553.57,135.36L553.71,112.96L553.84,211.76L553.85,216.66L554.08,302.77L554.31,218.3L554.32,214.68L554.45,128.75L554.46,123.55L554.71,78.32L555.11,186.23L555.12,189.19L555.18,202.55L555.42,107.27L555.43,105.41L555.65,26.1L556.01,160.86L556.03,165.4L556.1,176.32L556.49,143.77L556.78,166.56L556.79,165.48L556.9,158.04L556.98,171.57L556.99,175.65L557.46,154.68L557.86,303.9L557.94,271.62L557.95,261.96L558.35,16.61L558.71,208.4L558.72,216.9L558.92,286.9L559.29,53.89L559.3,51.33L559.39,23.82L559.79,202.1L559.8,202.49L559.9,229.09L559.97,208.42L559.98,206.33L560.09,197.57L560.1,194.13L560.38,95.45L560.95,143.59L560.96,145.95L561,144.33L561.59,264.56L561.84,197.15L561.85,191.13L562.13,76.96L562.47,186.12L562.49,188.13L562.65,237.91L562.93,136.22L562.94,136.38L562.95,135.98L563.21,58.07L563.53,184.49L563.54,190.06L563.77,242.04L564.08,125.75L564.1,122.7L564.26,112.73L564.46,190.44L564.48,196.54L564.8,219.96L565.04,151.66L565.2,192.61L565.22,189.81L565.36,200.48L565.76,125.34L565.77,114.34L565.88,64.24L566.34,213.42L566.48,165.77L566.49,166.97L566.55,169.05L566.78,71.4L567.04,121.89L567.05,125.16L567.38,217.01L567.39,222.5L567.48,234.55L567.81,113.57L567.94,124.05L567.96,117.68L568.02,111.42L568.16,179.73L568.17,180.28L568.28,228.95L568.75,133.84L568.76,131.51L568.89,129.26L569.05,201.6L569.07,202.29L569.26,274.01L569.58,140.73L569.59,133.39L569.77,39.97L570.25,224.17L570.26,229.25L570.34,248.48L570.49,181.08L570.5,170.53L570.82,34.34L571.19,216.9L571.2,221.17L571.27,254.04L571.78,123.75L571.79,124.46L571.81,124.07L571.9,102.2L572,132.95L572.01,138.84L573.05,286.18L573.08,280.68L573.09,277.38L573.12,277.59L573.4,134.77L573.42,123.15L573.56,85.64L574.07,219.47L574.08,219.14L574.1,221.12L574.32,158.69L574.33,152.57L574.64,45.53L574.96,184.37L574.97,188.05L575.14,224.94L575.47,98.7L575.48,91.44L575.69,76.04L575.98,180.07L575.99,182.49L576,182.04L576.14,209.32L576.16,211.18L576.44,167.89L576.85,253.37L576.94,232.42L576.95,227.47L577.32,38.24L577.68,217.81L577.69,228.2L577.8,277.91L578.24,30.13L578.25,31.42L578.27,34.28L578.3,32.5L578.37,62.45L578.39,70.01L578.74,294.07L579.16,102.44L579.17,92.64L579.23,36.75L579.68,201.92L579.77,184.9L579.78,186.07L579.82,193.58L579.97,146.22L579.98,136.62L580.11,106.62L580.44,230.07L580.45,236.87L580.61,265.46L580.89,115.41L580.9,103.69L581.1,56.47L581.54,247.75L581.56,242.59L581.57,236.75L582.12,60.96L582.34,175.27L582.35,183.82L582.57,253.56L582.9,126.7L582.91,116.88L583.07,67.17L583.45,227.52L583.46,227.3L583.47,228.19L583.64,200.82L583.65,195.45L584.03,107.3L584.17,220.52L584.18,224.61L584.48,266.33L584.67,184.03L584.68,175.28L584.95,107.36L585.4,191.86L585.41,193.53L585.46,200.27L585.73,105.13L585.74,101.84L585.98,24.62L586.29,167.58L586.3,171.9L586.41,177.86L586.88,140.94L586.89,137.84L587.35,205.99L587.72,163.61L587.73,163.45L587.79,158.86L588.04,270.75L588.05,282.52L588.11,303.94L588.51,137.46L588.52,124.83L588.74,24.37L589.14,261.47L589.15,259.72L589.72,16.79L590,144.98L590.01,151.86L590.24,235.03L590.71,119.69L590.73,126.94L590.74,130.57L590.9,129.54L591.47,163.21L591.52,148.62L591.53,145.45L591.54,144.67L591.69,191.11L591.7,190.92L591.99,254.74L592.16,216.23L592.17,210.33L592.54,95.45L592.73,169.25L592.74,171.14L592.99,249.53L593.14,203.14L593.15,199.21L593.56,55.48L593.91,163.63L593.93,167.27L594.16,225.53L594.48,115.62L594.57,126.8L594.58,124.9L594.63,108.34L595,186.95L595.01,191.32L595.31,148.48L595.74,229.7L595.77,219.8L595.79,216.35L596.17,125.6L596.18,113.94L596.22,84.63L596.69,212.54L596.88,160.55L596.89,158.91L596.95,163.4L597.01,150.97L597.03,147.51L597.21,54.45L597.69,187.11L597.7,193.43L597.85,217.43L598.18,101.94L598.34,135L598.35,133.55L598.4,127.23L598.47,163.99L598.48,171.38L598.83,237.98L599.17,137.65L599.18,132.6L599.2,127.94L599.6,251.04L599.61,259.23L599.64,264.77L600.06,145.09L600.07,131.03L600.31,18.48L600.72,247.12L600.73,255.77L600.76,263.15L601.1,51.11L601.11,46.86L601.23,17.97L601.49,115.65L601.51,123.89L601.79,279.6L602.22,138.22L602.23,130.32L602.33,119.38L602.7,210.53L602.78,202.05L602.79,200.61L602.83,207.79L603.12,124.84L603.13,120.5L603.15,117.16L603.34,168.25L603.35,179.01L603.62,294.6L603.91,117.73L603.92,112.76L604.02,79.9L604.43,208.66L604.44,217.81L604.55,246.35L604.97,72.58L604.99,69.99L605.16,30.1L605.28,85.85L605.29,87.93L605.61,225.56L605.92,122.47L605.93,112.53L606.14,78.64L606.53,203.79L606.54,202L606.55,204.86L606.93,150.44L607.37,260.66L607.41,251L607.42,242.44L607.8,52.32L608.18,231L608.19,233.72L608.31,265.03L608.62,100.94L608.63,95.02L608.77,52.3L609.09,216.36L609.1,221.88L609.24,257.16L609.64,114.65L609.65,111.36L609.72,85.36L609.96,137.55L609.97,140.9L610.21,215.6L610.61,125.63L610.62,121.88L610.68,109.81L610.83,148.17L610.84,152.5L611.14,222.64L611.43,69.17L611.45,69.77L611.59,64.05L611.72,106.14L611.73,111.6L612.07,237.83L612.46,104.13L612.47,102.69L612.53,89.66L612.9,195.27L612.91,196.09L613.04,223.33L613.31,157.02L613.35,159.63L613.36,154.54L613.58,104.24L613.91,213.36L613.94,213.31L613.95,216.29L614.4,125.77L614.65,186.96L614.66,190.66L614.98,262.69L615.25,160.6L615.26,153.25L615.56,108.35L615.94,184.03L615.95,183.65L615.96,192.93L616.03,213.56L616.32,108.5L616.33,103.85L616.54,25.95L616.73,122.7L616.74,125.15L617.67,180.88L617.68,180.77L617.88,212.77L618.29,153.33L618.39,181.76L618.41,183.64L618.69,303.76L618.97,199.35L618.98,193.81L619.28,20.54L619.67,242.14L619.68,242.23L619.77,284.27L619.98,204.89L619.99,193.51L620.32,40.95L620.72,195.6L620.73,198.95L620.8,212.55L621.15,132.11L621.16,122.52L621.27,75.76L621.8,173L621.81,175.77L621.83,171.53L621.9,195.19L621.91,197.98L622.07,171.9L622.52,250.16L622.53,251.27L622.57,260.86L622.88,145.47L622.89,134.57L623.1,77.56L623.51,216.37L623.52,223.61L623.56,232.24L623.98,93.76L624,92.15L624.19,55.54L624.43,157.38L624.44,162.58L624.74,231.43L625.1,125.62L625.12,125.76L625.19,117.64L625.44,178.86L625.45,183.98L625.51,160.95L626.27,221.41L626.34,212.62L626.36,208.75L626.37,209.69L626.59,163.8L626.61,159.84L626.65,163.93L626.79,76.22L627.13,142.05L627.14,144.61L627.23,176.88L627.24,182.22L627.76,76.89L628.01,136.28L628.02,139.89L628.42,253.79L628.73,110.2L628.74,110.16L628.86,108.9L628.99,132.52L629,140.64L629.41,204.85L629.68,132.12L629.74,133.77L629.75,138.37L629.88,135.67L630.19,303.74L630.53,174.25L630.54,163.91L630.79,31.15L631.24,221.59L631.25,227.63L631.29,249.91L631.71,36.16L631.78,45.64L631.79,44.02L631.87,37.53L631.93,51.09L631.95,59.44L632.37,265.9L632.77,124.8L632.78,120.86L632.88,95.2L633.21,220.39L633.39,211.4L633.4,212.24L633.7,134.52L633.89,188.89L633.9,197.43L634.13,303.59L634.54,95.6L634.56,89.96L634.62,58.39L635.04,221.12L635.19,204L635.2,200.28L635.22,206.34L635.58,32.69L635.59,29.53L635.63,24.19L635.9,153.74L635.91,155.69L636.22,236.4L636.47,127.47L636.48,122.1L636.73,97.57L637.11,200.8L637.13,197.57L637.14,200.4L637.22,213.96L637.49,174.45L637.92,210.93L637.93,208.14L638.33,54.95L638.67,215.33L638.68,216.18L638.82,259.6L638.99,164.31L639,156.97L639.24,62.47L639.64,246.47L639.66,250.01L639.74,271.49L640.11,113.81L640.12,107.09L640.22,74.32L640.71,197.43L640.72,195.98L640.73,192.92L641.19,110.26L641.42,195.53L641.43,201.61L641.53,249.53L641.99,80.63L642,79.52L642.02,76.77L642.32,137.57L642.33,147.67L642.55,221.95L643.01,81.75L643.02,82.02L643.11,78L643.29,138.3L643.3,146.09L643.58,235.18L644.01,115.62L644.02,111.04L644.08,91.06L644.54,233.08L644.55,238.22L644.76,177.3L644.77,171.52L645,113.47L645.4,268.29L645.41,270.11L645.42,273.95L645.79,128.69L645.8,125.43L645.81,125.84L645.93,101.64L645.94,96.4L645.96,91.73L646.22,157.57L646.39,147.55L646.4,151.73L646.5,184.73L646.94,61.1L646.95,58L647,42L647.42,187.54L647.43,188.69L647.5,193.16L647.92,134.4L648.09,158.1L648.11,158.41L648.43,201.56L648.7,149.92L648.71,146.52L648.78,145.22L649.06,248.1L649.07,254.32L649.2,283.87L649.61,64.95L649.62,60.12L649.63,56.99L650,171.09L650.01,182.66L650.26,286.51L650.66,44.67L650.67,37.3L650.74,28.61L650.99,135.43L651,143.29L651.13,218.25L651.71,89.97L651.72,87.53L651.74,85.42L652.06,139.28L652.08,143.31L652.11,148.7L652.19,131.42L652.34,148.31L652.35,155.36L652.91,254.71L653.14,198.34L653.15,197.31L653.46,104.31L653.8,213.41L653.82,216.51L654.02,233.83L654.23,135.7L654.24,132.06L654.54,61.88L654.83,159.85L654.84,168.14L655.03,236.36L655.45,117.89L655.46,108.36L655.47,105.94L655.79,173.91L655.94,171.01L655.95,174.32L656.06,211.48L656.38,166.54L656.73,199.19L656.74,193.61L656.9,195.44L656.93,181.69L656.94,176.7L657.12,88.17L657.62,210.89L657.65,198.47L657.67,195.34L658.07,52.43L658.45,172.58L658.46,173.13L658.71,220.79L659.04,125.49L659.05,127.37L659.06,127.22L659.3,123.2L659.55,239.67L659.85,151.01L659.86,147.2L660.02,137.96L660.28,168.11L660.29,176.16L660.56,280.43L660.94,110.51L660.95,102.29L661.08,35.74L661.6,230.01L661.61,233.63L661.63,239.27L661.84,113.44L661.85,105.31L662.12,16.57L662.48,210.47L662.49,219.86L662.59,260.82L663.09,123.71L663.1,124.44L663.11,123.13L663.21,112.45L663.44,186.02L663.45,191.4L663.96,157.61L664.34,303.63L664.43,288.64L664.44,280.71L664.84,67.82L665.25,209.69L665.26,212.9L665.41,223.13L665.68,117.72L665.69,107.09L665.96,16.47L666.34,213.07L666.35,217.85L666.42,233.11L666.68,149.07L666.69,147L666.97,103.97L667.28,194.63L667.29,198.34L667.34,212.02L667.7,158.49L668.05,205.03L668.06,205.91L668.17,218.94L668.46,100.36L668.47,92.09L668.61,51.61L668.79,165.13L668.8,170.82L669.08,279.36L669.38,92.26L669.39,88.86L669.54,36.53L669.8,196.06L669.81,205.62L670,276.72L670.39,127.61L670.4,119.1L670.52,61.62L670.97,215.19L671.08,199.74L671.1,196.63L671.36,115.68L671.61,175.27L671.62,181.25L671.82,255.28L672.13,95.03L672.14,81.24L672.18,53L672.76,252.31L672.77,253.7L672.85,220.11L672.86,212.54L673.41,53.97L673.62,186.97L673.63,200.19L673.8,259.7L674.23,99.11L674.24,94.03L674.31,80.93L674.72,225.73L674.73,224.66L674.75,227.37L675,161.16L675.01,158.52L675.24,123.41L675.53,255.18L675.54,256.19L675.69,280.04L675.79,246.68L675.8,245.77L676.15,77.21L676.59,186.11L676.6,193.23L676.67,223.58L676.98,88.57L676.99,84.01L677.18,18.71L677.52,176.69L677.56,170.28L677.57,171.23L677.63,186.31L677.98,147.31L677.99,145.2L678.55,196.54L678.8,160.63L678.81,160.36L678.96,124.62L679.25,267.43L679.26,279.65L679.43,303.63L679.75,96.84L679.76,83.14L679.89,20.06L680.38,278.56L680.39,286.12L680.43,302.04L680.64,186.03L680.66,181.3L680.95,16.72L681.34,217.56L681.35,217.36L681.42,235.8L681.79,139.95L681.8,137.27L681.89,74.06L682.37,156.56L682.49,140.84L682.5,145.58L683.17,268.15L683.41,203.21L683.42,195L683.71,86.56L684.1,238.15L684.11,242.01L684.17,258.33L684.33,195.4L684.34,187.32L684.73,35.94L685.12,168.14L685.14,173.74L685.31,238.77L685.78,104.58L685.8,107.71L685.81,108.96L686.2,217.73L686.77,194.43L686.78,192.19L686.89,222.12L687.4,83.77L687.69,151.01L687.7,156.58L687.87,223.58L688.3,78.01L688.31,74.89L688.34,67.23L688.67,139.33L688.68,148.72L689.05,241.05L689.33,87.99L689.34,88.72L689.36,89.8L689.37,89.03L689.58,129.94L689.59,135.94L689.81,213.32L690.29,134.69L690.3,133.91L690.8,288.4L691.13,194.07L691.14,186.61L691.42,21.16L691.83,221.05L691.85,228.43L691.91,250.52L692.32,16.74L692.35,16.75L692.36,17.09L692.73,159.8L692.74,170.01L692.92,265.74L693.42,115.81L693.43,116.36L693.44,117.24L693.48,115.32L693.63,149.27L693.64,153.92L693.93,206.84L694.26,138.14L694.43,173.15L694.44,173.87L694.75,303.75L694.92,216.54L694.93,204.55L695.16,81.88L695.55,209.08L695.56,214.04L695.61,222.31L695.99,129.02L696,118.76" style="vector-effect: non-scaling-stroke; fill: none; stroke: rgb(140, 86, 75); stroke-opacity: 1; stroke-width: 2px; opacity: 1;"/></g><g class="points"/><g class="text"/></g></g></g><g class="overplot"/><path class="xlines-above crisp" d="" style="fill: none; stroke-width: 1px; stroke: rgb(0, 0, 0); stroke-opacity: 0;"/><path class="ylines-above crisp" d="" style="fill: none; stroke-width: 1px; stroke: rgb(0, 0, 0); stroke-opacity: 0;"/><g class="overlines-above"/><g class="xaxislayer-above"><path class="xtick ticks crisp" d="M0,421v5" transform="translate(80,0)" style="stroke: rgb(51, 51, 51); stroke-opacity: 1; stroke-width: 1px;"/><path class="xtick ticks crisp" d="M0,421v5" transform="translate(167,0)" style="stroke: rgb(51, 51, 51); stroke-opacity: 1; stroke-width: 1px;"/><path class="xtick ticks crisp" d="M0,421v5" transform="translate(254,0)" style="stroke: rgb(51, 51, 51); stroke-opacity: 1; stroke-width: 1px;"/><path class="xtick ticks crisp" d="M0,421v5" transform="translate(341,0)" style="stroke: rgb(51, 51, 51); stroke-opacity: 1; stroke-width: 1px;"/><path class="xtick ticks crisp" d="M0,421v5" transform="translate(428.01,0)" style="stroke: rgb(51, 51, 51); stroke-opacity: 1; stroke-width: 1px;"/><path class="xtick ticks crisp" d="M0,421v5" transform="translate(515.01,0)" style="stroke: rgb(51, 51, 51); stroke-opacity: 1; stroke-width: 1px;"/><path class="xtick ticks crisp" d="M0,421v5" transform="translate(602.01,0)" style="stroke: rgb(51, 51, 51); stroke-opacity: 1; stroke-width: 1px;"/><path class="xtick ticks crisp" d="M0,421v5" transform="translate(689.01,0)" style="stroke: rgb(51, 51, 51); stroke-opacity: 1; stroke-width: 1px;"/><path class="xtick ticks crisp" d="M0,421v5" transform="translate(776.01,0)" style="stroke: rgb(51, 51, 51); stroke-opacity: 1; stroke-width: 1px;"/><g class="xtick"><text text-anchor="middle" x="0" y="444" transform="translate(80,0)" style="font-family: 'Open Sans', verdana, arial, sans-serif; font-size: 15px; fill: rgb(51, 51, 51); fill-opacity: 1; white-space: pre;">0</text></g><g class="xtick"><text text-anchor="middle" x="0" y="444" transform="translate(167,0)" style="font-family: 'Open Sans', verdana, arial, sans-serif; font-size: 15px; fill: rgb(51, 51, 51); fill-opacity: 1; white-space: pre;">500</text></g><g class="xtick"><text text-anchor="middle" x="0" y="444" transform="translate(254,0)" style="font-family: 'Open Sans', verdana, arial, sans-serif; font-size: 15px; fill: rgb(51, 51, 51); fill-opacity: 1; white-space: pre;">1000</text></g><g class="xtick"><text text-anchor="middle" x="0" y="444" transform="translate(341,0)" style="font-family: 'Open Sans', verdana, arial, sans-serif; font-size: 15px; fill: rgb(51, 51, 51); fill-opacity: 1; white-space: pre;">1500</text></g><g class="xtick"><text text-anchor="middle" x="0" y="444" transform="translate(428.01,0)" style="font-family: 'Open Sans', verdana, arial, sans-serif; font-size: 15px; fill: rgb(51, 51, 51); fill-opacity: 1; white-space: pre;">2000</text></g><g class="xtick"><text text-anchor="middle" x="0" y="444" transform="translate(515.01,0)" style="font-family: 'Open Sans', verdana, arial, sans-serif; font-size: 15px; fill: rgb(51, 51, 51); fill-opacity: 1; white-space: pre;">2500</text></g><g class="xtick"><text text-anchor="middle" x="0" y="444" transform="translate(602.01,0)" style="font-family: 'Open Sans', verdana, arial, sans-serif; font-size: 15px; fill: rgb(51, 51, 51); fill-opacity: 1; white-space: pre;">3000</text></g><g class="xtick"><text text-anchor="middle" x="0" y="444" transform="translate(689.01,0)" style="font-family: 'Open Sans', verdana, arial, sans-serif; font-size: 15px; fill: rgb(51, 51, 51); fill-opacity: 1; white-space: pre;">3500</text></g><g class="xtick"><text text-anchor="middle" x="0" y="444" transform="translate(776.01,0)" style="font-family: 'Open Sans', verdana, arial, sans-serif; font-size: 15px; fill: rgb(51, 51, 51); fill-opacity: 1; white-space: pre;">4000</text></g></g><g class="yaxislayer-above"><path class="ytick ticks crisp" d="M79,0h-5" transform="translate(0,375.2)" style="stroke: rgb(51, 51, 51); stroke-opacity: 1; stroke-width: 1px;"/><path class="ytick ticks crisp" d="M79,0h-5" transform="translate(0,317.59000000000003)" style="stroke: rgb(51, 51, 51); stroke-opacity: 1; stroke-width: 1px;"/><path class="ytick ticks crisp" d="M79,0h-5" transform="translate(0,259.99)" style="stroke: rgb(51, 51, 51); stroke-opacity: 1; stroke-width: 1px;"/><path class="ytick ticks crisp" d="M79,0h-5" transform="translate(0,202.38)" style="stroke: rgb(51, 51, 51); stroke-opacity: 1; stroke-width: 1px;"/><path class="ytick ticks crisp" d="M79,0h-5" transform="translate(0,144.77)" style="stroke: rgb(51, 51, 51); stroke-opacity: 1; stroke-width: 1px;"/><g class="ytick"><text text-anchor="end" x="71" y="5.25" transform="translate(0,375.2)" style="font-family: 'Open Sans', verdana, arial, sans-serif; font-size: 15px; fill: rgb(51, 51, 51); fill-opacity: 1; white-space: pre;">0.4</text></g><g class="ytick"><text text-anchor="end" x="71" y="5.25" transform="translate(0,317.59000000000003)" style="font-family: 'Open Sans', verdana, arial, sans-serif; font-size: 15px; fill: rgb(51, 51, 51); fill-opacity: 1; white-space: pre;">0.2</text></g><g class="ytick"><text text-anchor="end" x="71" y="5.25" transform="translate(0,259.99)" style="font-family: 'Open Sans', verdana, arial, sans-serif; font-size: 15px; fill: rgb(51, 51, 51); fill-opacity: 1; white-space: pre;">0</text></g><g class="ytick"><text text-anchor="end" x="71" y="5.25" transform="translate(0,202.38)" style="font-family: 'Open Sans', verdana, arial, sans-serif; font-size: 15px; fill: rgb(51, 51, 51); fill-opacity: 1; white-space: pre;">0.2</text></g><g class="ytick"><text text-anchor="end" x="71" y="5.25" transform="translate(0,144.77)" style="font-family: 'Open Sans', verdana, arial, sans-serif; font-size: 15px; fill: rgb(51, 51, 51); fill-opacity: 1; white-space: pre;">0.4</text></g></g><g class="overaxes-above"/></g></g><g class="polarlayer"/><g class="ternarylayer"/><g class="geolayer"/><g class="pielayer"/><g class="sunburstlayer"/><g class="glimages"/><defs id="topdefs-4ba975"><g class="clips"/><clipPath id="legend4ba975"><rect width="178" height="33" x="0" y="0"/></clipPath></defs><g class="layer-above"><g class="imagelayer"/><g class="shapelayer"/></g><g class="infolayer"><g class="legend" pointer-events="all" transform="translate(789.92, 100)"><rect class="bg" shape-rendering="crispEdges" width="178" height="33" x="0" y="0" style="stroke: rgb(68, 68, 68); stroke-opacity: 1; fill: rgb(255, 255, 255); fill-opacity: 1; stroke-width: 0px;"/><g class="scrollbox" transform="translate(0, 0)" clip-path="url('#legend4ba975')"><g class="groups" transform="translate(0, 0)"><g class="traces" transform="translate(0, 16.25)" style="opacity: 1;"><text class="legendtext user-select-none" text-anchor="start" x="40" y="5.85" style="font-family: 'Open Sans', verdana, arial, sans-serif; font-size: 15px; fill: rgb(51, 51, 51); fill-opacity: 1; white-space: pre;">class=engine_idling</text><g class="layers" style="opacity: 1;"><g class="legendfill"/><g class="legendlines"><path class="js-line" d="M5,0h30" style="fill: none; stroke: rgb(140, 86, 75); stroke-opacity: 1; stroke-width: 2px;"/></g><g class="legendsymbols"><g class="legendpoints"/></g></g><rect class="legendtoggle" pointer-events="all" x="0" y="-11.25" width="218" height="22.5" style="cursor: pointer; fill: rgb(0, 0, 0); fill-opacity: 0;"/></g></g></g><rect class="scrollbar" rx="20" ry="3" width="0" height="0" x="0" y="0" style="fill: rgb(128, 139, 164); fill-opacity: 1;"/></g><g class="g-gtitle"><text class="gtitle" x="490" y="50" text-anchor="middle" dy="0em" style="font-family: 'Open Sans', verdana, arial, sans-serif; font-size: 21px; fill: rgb(51, 51, 51); opacity: 1; font-weight: normal; white-space: pre;">time vs amplitude</text></g><g class="g-xtitle"><text class="xtitle" x="428" y="484" text-anchor="middle" style="font-family: 'Open Sans', verdana, arial, sans-serif; font-size: 18px; fill: rgb(51, 51, 51); opacity: 1; font-weight: normal; white-space: pre;">time(ms)</text></g><g class="g-ytitle"><text class="ytitle" transform="rotate(-90,34,260)" x="34" y="260" text-anchor="middle" style="font-family: 'Open Sans', verdana, arial, sans-serif; font-size: 18px; fill: rgb(51, 51, 51); opacity: 1; font-weight: normal; white-space: pre;">amplitude</text></g></g></svg>