<svg class="main-svg" xmlns="http://www.w3.org/2000/svg" xmlns:xlink="http://www.w3.org/1999/xlink" width="980" height="500" viewBox="0 0 980 500"><rect x="0" y="0" width="980" height="500" style="fill: rgb(255, 255, 255); fill-opacity: 1;"/><defs id="defs-a76584"><g class="clips"><clipPath id="clipa76584xyplot" class="plotclip"><rect width="708" height="320"/></clipPath><clipPath class="axesclip" id="clipa76584x"><rect x="80" y="0" width="708" height="500"/></clipPath><clipPath class="axesclip" id="clipa76584y"><rect x="0" y="100" width="980" height="320"/></clipPath><clipPath class="axesclip" id="clipa76584xy"><rect x="80" y="100" width="708" height="320"/></clipPath></g><g class="gradients"/></defs><g class="bglayer"><rect class="bg" x="80" y="100" width="708" height="320" style="fill: rgb(237, 237, 237); fill-opacity: 1; stroke-width: 0;"/></g><g class="layer-below"><g class="imagelayer"/><g class="shapelayer"/></g><g class="cartesianlayer"><g class="subplot xy"><g class="layer-subplot"><g class="shapelayer"/><g class="imagelayer"/></g><g class="gridlayer"><g class="x"><path class="xgrid crisp" transform="translate(168.5,0)" d="M0,100v320" style="stroke: rgb(255, 255, 255); stroke-opacity: 1; stroke-width: 1px;"/><path class="xgrid crisp" transform="translate(257,0)" d="M0,100v320" style="stroke: rgb(255, 255, 255); stroke-opacity: 1; stroke-width: 1px;"/><path class="xgrid crisp" transform="translate(345.5,0)" d="M0,100v320" style="stroke: rgb(255, 255, 255); stroke-opacity: 1; stroke-width: 1px;"/><path class="xgrid crisp" transform="translate(434.01,0)" d="M0,100v320" style="stroke: rgb(255, 255, 255); stroke-opacity: 1; stroke-width: 1px;"/><path class="xgrid crisp" transform="translate(522.51,0)" d="M0,100v320" style="stroke: rgb(255, 255, 255); stroke-opacity: 1; stroke-width: 1px;"/><path class="xgrid crisp" transform="translate(611.01,0)" d="M0,100v320" style="stroke: rgb(255, 255, 255); stroke-opacity: 1; stroke-width: 1px;"/><path class="xgrid crisp" transform="translate(699.51,0)" d="M0,100v320" style="stroke: rgb(255, 255, 255); stroke-opacity: 1; stroke-width: 1px;"/></g><g class="y"><path class="ygrid crisp" transform="translate(0,375.2)" d="M80,0h708" style="stroke: rgb(255, 255, 255); stroke-opacity: 1; stroke-width: 1px;"/><path class="ygrid crisp" transform="translate(0,317.6)" d="M80,0h708" style="stroke: rgb(255, 255, 255); stroke-opacity: 1; stroke-width: 1px;"/><path class="ygrid crisp" transform="translate(0,202.39)" d="M80,0h708" style="stroke: rgb(255, 255, 255); stroke-opacity: 1; stroke-width: 1px;"/><path class="ygrid crisp" transform="translate(0,144.79)" d="M80,0h708" style="stroke: rgb(255, 255, 255); stroke-opacity: 1; stroke-width: 1px;"/></g></g><g class="zerolinelayer"><path class="xzl zl crisp" transform="translate(80,0)" d="M0,100v320" style="stroke: rgb(255, 255, 255); stroke-opacity: 1; stroke-width: 1px;"/><path class="yzl zl crisp" transform="translate(0,259.99)" d="M80,0h708" style="stroke: rgb(255, 255, 255); stroke-opacity: 1; stroke-width: 1px;"/></g><path class="xlines-below"/><path class="ylines-below"/><g class="overlines-below"/><g class="xaxislayer-below"/><g class="yaxislayer-below"/><g class="overaxes-below"/><g class="plot" transform="translate(80, 100)" clip-path="url('#clipa76584xyplot')"><g class="scatterlayer mlayer"><g class="trace scatter trace24412064-3111-4e40-8288-13e3ea414f2b" style="stroke-miterlimit: 2; opacity: 1;"><g class="fills"/><g class="errorbars"/><g class="lines"><path class="js-line" d="M0,162.55L315.67,162.55L315.68,162.78L316.12,161.18L316.34,162.88L316.4,162.6L316.41,163.24L316.55,163.7L316.87,162L317.17,162.57L317.18,163.14L317.28,163.63L317.57,161.96L317.89,162.76L317.9,162.49L318.03,163.51L318.58,161.72L318.62,161.82L318.63,161.9L318.68,161.22L318.88,162.88L319.34,162.35L319.35,162.58L319.37,162.42L319.7,164.02L319.99,163.35L320,163.73L320.36,161.86L320.8,162.19L320.81,162.6L320.95,163.33L321.33,161.11L321.55,162.62L321.56,162.75L322.01,161L322.28,163.1L322.31,162.25L322.32,162.97L322.37,162.05L322.58,163.61L323.04,162.56L323.05,162.31L323.55,164.74L323.63,156.21L323.64,166.88L323.87,40.28L323.89,281.65L323.9,133.37L323.92,30.92L323.97,16L324.32,304L324.67,108.75L324.68,126.69L325.03,267.49L325.28,35.92L325.4,86.57L325.41,35.02L325.67,267.78L325.7,30.71L326.15,149.18L326.16,86.2L326.22,211.16L326.91,95.06L326.92,125.14L327.1,220.74L327.12,84.35L327.67,127.95L327.68,143.4L327.99,100.64L328.36,216.58L328.43,173.85L328.44,120.59L328.86,94.88L328.88,252.3L329.21,179.96L329.23,171.38L329.37,205.16L329.4,109.89L329.58,141.48L329.59,198.46L329.86,220.88L329.89,101.9L330.14,171.64L330.15,125.94L330.18,190.5L330.19,210.62L330.28,74.03L330.33,241.83L330.94,167.31L330.95,167.67L331.08,104.89L331.11,203.28L331.69,152.34L331.7,192.03L332.15,212.51L332.27,107.62L332.46,175.44L332.47,190.6L332.94,119.23L332.98,197.84L333.04,188.62L333.05,213.54L333.77,227.18L333.81,99.53L333.82,159.24L333.92,226.83L333.95,98.04L334.56,139.35L334.57,145.27L334.84,84.8L335.29,228.94L335.31,129.73L335.32,95.96L335.8,86.64L336,247.27L336.07,145.56L336.08,148.46L336.33,111.69L336.45,234.27L336.81,197L336.83,146.33L337.04,213.19L337.43,99.93L337.57,168.53L337.58,152.19L337.67,102.01L337.85,222.62L338.31,167.65L338.32,195.13L338.71,237.12L339.04,98.74L339.05,193.21L339.06,232.32L339.35,105.55L339.83,146.81L339.85,156.25L340.12,108.24L340.17,214.23L340.6,161.19L340.61,161.02L340.86,224.37L340.9,101.91L341.34,164.54L341.35,206.86L341.96,123.53L342.11,158.23L342.12,179.27L342.66,106.07L342.69,231.41L342.82,152.92L342.83,147.74L343.15,95.71L343.19,222.98L343.6,179.29L343.61,162.25L343.77,217.78L343.81,101.95L344.1,156.49L344.12,202.82L344.57,119.93L344.6,203.64L344.86,173.52L344.87,189.41L345.11,126.27L345.4,205.59L345.64,144.47L345.65,163.51L345.68,219.64L345.77,121.32L346.39,170.08L346.41,185.18L346.72,203.68L346.75,104.29L347.1,151.32L347.11,147.64L347.22,119.27L347.88,216.72L347.89,190.47L348.3,113.94L348.6,211.08L348.64,170.8L348.65,189.31L348.8,220.35L348.91,105.34L349.31,177.67L349.33,198.41L349.61,126.72L349.64,211.61L350.07,165.92L350.08,193.6L350.74,200.74L350.76,113.99L350.82,183.9L350.83,194.32L350.87,96.71L351.15,238.43L351.46,188.99L351.47,201.76L351.9,210.18L352.09,121.22L352.22,164.92L352.24,163.93L352.86,120.53L352.88,195.74L353,173.53L353.01,138.55L353.33,109.44L353.36,206.17L353.75,127.7L353.76,153.76L353.98,214.69L354.33,118.57L354.51,185.99L354.53,168.18L354.86,98.75L354.89,215.36L355.26,192.99L355.27,196.9L355.54,123.92L355.78,207.1L356.03,144.99L356.04,179.48L356.1,219.81L356.65,124.06L356.79,159.07L356.8,162.67L357.14,184.89L357.27,131.61L357.43,150.89L357.45,181.35L358.14,200.64L358.2,111.18L358.21,150.05L358.22,187.72L358.4,231.69L358.43,111.94L358.92,145.08L358.93,142.3L359.48,126.41L359.53,215.88L359.68,169.63L359.69,164.79L359.87,220.08L359.9,114.13L360.42,182.08L360.43,190.75L360.46,108.59L361.01,203.78L361.17,117.9L361.19,163.07L361.37,133.52L361.85,209.64L361.92,183.98L361.93,163.3L361.94,131.57L362.37,192.23L362.68,146.76L362.69,176.12L363.39,216.62L363.41,111.36L363.42,94.44L364.12,226.04L364.15,91.02L364.16,77.61L364.19,225.84L364.92,156.1L364.94,192.39L365.17,212.23L365.27,114.14L365.59,163.66L365.6,147.49L365.8,231.7L366.07,90.83L366.31,154.81L366.32,105.3L366.36,226.62L366.41,88.02L366.94,151.56L366.95,122.46L367.24,202.91L367.35,173.45L367.36,132.34L367.48,219.07L367.81,100.43L368.1,126.82L368.11,141.22L368.53,212.21L368.58,114.44L368.86,150.03L368.87,141.89L369.02,119.83L369.4,205.54L369.61,167.14L369.63,148L369.74,214.27L369.77,106.21L370.28,182.13L370.29,184.72L370.74,128.87L370.78,193L371.04,155.2L371.05,163.33L371.22,197.57L371.25,123.31L371.74,170.23L371.75,132.95L372.35,207.17L372.37,110.08L372.48,160.3L372.49,169.79L372.61,84.13L372.65,250.74L373.24,190.32L373.25,141.26L373.53,117.11L373.76,208.86L373.91,171.39L373.92,191.08L374.56,203.13L374.6,122.62L374.63,167.8L374.64,195.13L374.77,217.07L375.2,103.85L375.39,168.42L375.4,166.57L375.72,118.7L375.75,220.8L376.12,166.9L376.13,128.25L376.26,211.65L376.45,94.34L376.73,166.55L376.74,184.47L376.87,125.5L376.92,193.53L377.43,161.61L377.44,142.17L377.95,126.42L378.01,193.47L378.18,156.09L378.19,140.86L378.27,223.01L378.69,111.51L378.75,174.31L378.76,122.91L379.45,112.51L379.48,219.63L379.5,153.04L379.52,136.22L379.81,221.85L379.93,96.88L380.19,146.11L380.2,129.37L380.48,212.53L380.52,113.29L380.95,153.64L380.97,156.59L381.09,215.87L381.12,84.24L381.58,120.65L381.6,112.87L381.99,224.89L382.27,106.41L382.36,177.47L382.37,193.8L382.57,86.16L382.69,222.07L383.11,181.06L383.12,209.36L383.35,225.95L383.41,95.65L383.89,139.8L383.9,144.31L383.96,119.38L384.37,212.03L384.65,176.56L384.66,152.35L385.05,224.18L385.12,123.55L385.21,169.71L385.22,127.64L385.7,220.76L385.74,98.93L385.91,157.53L385.92,140.02L385.93,139.62L385.94,172.04L386.1,92.64L386.14,225.37L386.68,200.2L386.7,161.28L386.91,221.66L386.94,80.48L387.44,169.83L387.45,201.28L387.46,220.59L387.49,103.5L388.17,157.61L388.18,148.75L388.26,119.37L388.69,209.71L388.86,159.36L388.88,185.51L389.09,132.5L389.13,196.84L389.16,146.12L389.17,119.68L389.49,97.34L389.61,211.06L389.95,177.79L389.96,175.22L390.27,118.83L390.62,219.44L390.68,154.91L390.69,184.41L391.04,99.58L391.08,217.38L391.42,152.54L391.43,142.12L391.53,112.87L391.56,217.53L392.17,150.05L392.18,168.76L392.7,231.71L392.74,96.36L392.92,161.81L392.94,156.96L393.11,93.5L393.15,236.67L393.6,154.78L393.61,123.24L393.68,202.83L393.93,108.98L394.36,160.95L394.37,134.95L394.64,231.17L394.68,101.17L395.06,128.66L395.07,124.67L395.61,219.55L395.65,123.88L395.83,158.58L395.84,129.04L395.87,101.41L395.92,248.89L396.54,168.88L396.55,179.09L396.61,100.8L396.64,214.57L397.28,186.28L397.29,154.37L397.65,115.81L397.69,212.75L398.03,172.85L398.05,157.42L398.2,121.47L398.59,211.17L398.73,195.79L398.74,198.91L398.79,104.66L399.04,225.11L399.5,153.33L399.51,175.27L399.82,226.59L399.94,88.22L400.23,160.95L400.24,134.11L400.89,194.56L400.93,121.49L400.94,128.48L400.96,162.2L401.3,197.83L401.33,114.12L401.72,190.42L401.73,171.8L402.27,117.39L402.29,189.73L402.47,180.71L402.48,176.17L403.08,117.81L403.11,226.75L403.2,155.65L403.21,187.72L403.35,106.34L403.81,224.54L403.89,119.35L403.9,114.23L403.94,207.1L404.46,111.68L404.67,189.02L404.68,160.9L404.87,210.78L404.92,104.34L405.42,173.06L405.44,142.5L405.52,130.77L405.57,195.42L406.13,185L406.14,201.9L406.51,77.87L406.55,223.32L406.81,156.72L406.82,175.05L407.01,125.26L407.17,203.89L407.54,156.73L407.55,136.84L407.88,59.88L407.91,212.84L408.2,152.27L408.21,190.06L408.74,107.97L408.79,219.24L408.92,131.75L408.93,104.14L408.98,213.83L409.44,140.32L409.45,108.46L409.48,217.33L409.55,101.1L410.2,159.05L410.21,132.95L410.28,209.2L410.33,132.82L410.46,147.9L410.47,137.56L410.71,79.95L410.77,211.94L411.09,158.58L411.1,141.54L411.56,105.71L411.6,203.77L411.72,156.89L411.73,140.34L412.21,210.25L412.24,109.9L412.46,179.58L412.47,173.42L412.54,219.93L412.79,99.18L413.22,130.32L413.24,144.74L413.39,106.8L413.42,216.46L413.98,128.77L413.99,133.83L414.54,199.97L414.58,113.89L414.74,145.07L414.75,142.64L415.14,113.58L415.33,210.27L415.49,166.33L415.5,150.31L416.12,230.58L416.17,111.13L416.21,201.25L416.22,194.83L416.54,106.4L416.59,216.04L416.97,193.1L416.99,162.88L417.28,113.51L417.32,222.23L417.73,169.3L417.74,172.84L417.8,103.69L418.01,208.22L418.37,164.56L418.38,138.86L418.4,107.33L418.76,202.49L419.1,197.13L419.11,187.66L419.42,240.68L419.46,90.14L419.87,150.3L419.88,158.18L420.53,119.66L420.57,197.54L420.6,125.05L420.61,129.25L420.98,207.01L421.26,93.84L421.36,188.75L421.37,164.21L421.58,108.1L421.62,238.07L422.12,154.47L422.13,168.66L422.46,217.38L422.49,105.03L422.85,165.55L422.86,147.01L422.91,229.81L423.5,113.99L423.6,135.04L423.61,162.27L423.83,116.95L424.03,210.11L424.36,186.37L424.38,170.1L424.68,124.42L424.88,227.13L425.09,166.27L425.11,194L425.12,195L425.18,132.7L425.27,153.02L425.28,127.21L425.43,215.38L425.76,113.25L425.79,193.17L425.8,225.61L425.84,114.49L426.57,121.18L426.58,139.65L426.93,205.17L426.96,109.11L427.33,159.98L427.34,146.82L427.78,118.86L428.04,194.7L428.06,160.31L428.07,140.99L428.2,136.22L428.27,209.2L428.3,142.55L428.31,111.44L428.32,111.18L428.34,147.24L428.36,204.76L428.49,113.95L429.08,167.98L429.09,144.86L429.11,129.8L429.31,211.46L429.83,152.02L429.84,144.93L430.47,198.46L430.5,123.66L430.58,168.21L430.59,155.46L431.19,205.53L431.32,132.49L431.33,133.94L431.34,161.73L431.75,125.75L431.79,208.81L432.09,162.46L432.1,158.26L432.17,220.72L432.36,122.89L432.84,162.54L432.85,172.64L433.28,127.56L433.32,204.07L433.54,159.18L433.55,142.25L433.94,215.76L433.98,108.84L434.28,147.35L434.29,151.76L434.82,131.88L435.05,204.62L435.06,187.19L435.07,158.81L435.31,201.52L435.34,120.15L435.81,152.85L435.83,151.64L435.95,196.38L436.15,132.82L436.49,149.7L436.5,136.59L436.99,192.42L437.17,150.92L437.19,120.92L437.69,194.28L437.73,138.96L437.74,121.09L438.13,197.98L438.49,152.58L438.5,150L438.77,197.08L438.8,126.25L439.17,160.48L439.18,152.67L439.6,133.95L439.65,184.81L439.87,164.54L439.89,178.83L440.29,133.15L440.48,198.44L440.49,169.65L440.5,132.89L440.52,127.11L440.96,186.52L441.15,157.82L441.16,161.14L441.56,128.09L441.6,189L441.63,140.64L441.64,132.27L441.79,199.38L441.91,125.96L442.41,175.49L442.42,164.96L442.54,189.69L442.6,120.84L443.15,179.1L443.16,191.87L443.17,192.23L443.18,179.38L443.19,157.6L443.79,125.93L443.9,191.59L443.93,158.06L443.95,157.87L444,153.17L444.03,180.59L444.08,155.79L444.09,141.88L444.12,185.81L444.83,167.92L444.84,157.34L444.96,196.3L445,134.37L445.38,172.36L445.39,176.52L445.74,190.25L445.95,137.31L446.01,161.45L446.02,194.66L446.09,44.12L446.25,281.19L446.78,156.91L446.79,170.1L447.04,187.13L447.22,140.44L447.52,164.5L447.53,159.59L447.84,145.98L447.88,186.51L448.24,166.29L448.25,169.22L448.39,111.94L448.44,193.76L448.89,159.79L448.9,165.85L449.06,142.83L449.09,190.68L449.63,153.54L449.64,153.48L450.16,187.43L450.21,144.44L450.37,156.24L450.38,158.02L450.64,138.51L451.09,194.26L451.1,176.69L451.11,149.55L451.14,123.37L451.78,196.35L451.84,158.99L451.85,178.37L451.9,135.87L452.16,179.36L452.4,163.83L452.41,169.71L452.54,137.27L452.62,182.65L453.13,169.17L453.14,172.95L453.55,183.51L453.58,137.26L453.88,172.75L453.89,180.2L453.99,184.76L454.13,143.88L454.65,144.77L454.66,161.17L455.32,142.55L455.42,182.54L455.43,180.97L455.44,169.31L456.15,179.72L456.2,131.91L456.21,179.92L456.22,220.22L456.25,96.4L456.95,151.22L456.97,157.84L457.53,142.81L457.74,185.86L457.75,183.99L457.76,169.29L457.8,139.48L458.09,182.27L458.51,154.97L458.53,161.75L458.9,178.8L458.93,144.97L459.26,164.12L459.27,164.79L459.41,141L459.44,184.79L459.94,165.15L459.95,179.57L460.19,140.01L460.23,184.07L460.62,162.52L460.63,186.18L460.95,147.12L461.36,175.06L461.37,188.5L462.18,134.56L462.19,155.84L462.87,178.16L462.92,141.18L462.94,168.41L462.95,161.25L463.47,183.37L463.58,138.07L463.7,161.75L463.71,149.1L464,144.57L464.25,181.84L464.32,168.68L464.33,176.77L464.69,141.81L465.07,169.53L465.09,174.52L465.38,180.09L465.59,141.91L465.8,168.68L465.82,172.15L466,178.31L466.13,150.14L466.34,157.27L466.35,153.54L466.44,152.75L466.6,179.98L467.09,164.04L467.1,158.97L467.35,149.69L467.39,179.17L467.83,168.4L467.84,167.62L468.07,139.36L468.13,185.31L468.58,165.46L468.59,157.22L468.63,191.63L468.66,134.08L469.23,159.55L469.25,154.7L469.4,184.8L469.82,137.59L469.96,166.74L469.98,175.86L470.15,143.75L470.26,186.89L470.72,156.44L470.73,178.67L470.74,187.25L470.93,147.74L471.46,162.1L471.47,161.44L471.72,135.24L471.78,183.11L472.14,166.6L472.15,148.93L472.17,145.56L472.28,178.5L472.75,172.68L472.76,175.74L472.94,147.11L473.53,163.67L473.54,173.3L473.65,142.53L473.73,184.95L474.28,167.75L474.29,169.97L474.54,151.19L474.6,178.48L474.93,165.3L474.94,170.99L474.95,175.61L475.4,149.91L475.66,160L475.67,161.51L475.94,143.57L475.97,179.77L476.43,173.47L476.44,162.48L476.46,151.12L477.06,174.76L477.19,157.36L477.2,162.85L477.41,150.15L477.79,174.9L477.93,163.88L477.94,157.58L478.1,177.39L478.26,146.98L478.67,157.27L478.68,156.02L478.85,149.39L479.38,177.23L479.43,160.72L479.45,159.51L479.53,182.33L480.05,147.79L480.16,169L480.18,159.71L480.68,134.96L480.71,182.95L480.88,173.02L480.89,173.78L481.51,124.49L481.54,186.21L481.57,168.32L481.58,206.57L481.6,129.91L482.33,165.22L482.34,164.5L482.41,179.67L482.83,145.65L483.08,169.74L483.1,164.13L483.26,178.41L483.29,138.63L483.83,167.81L483.84,161.12L483.89,178.41L483.97,146.73L484.6,172.36L484.61,168.45L484.74,141.8L485.09,184.11L485.39,160.13L485.4,169.25L485.65,150.31L485.68,176.61L486.12,164.7L486.13,161.2L486.67,153.04L486.85,172.33L486.88,165.07L486.89,160.35L487.03,175.41L487.13,149.63L487.6,161.05L487.61,170.13L487.7,180.04L487.74,147.93L488.34,164.82L488.35,156.88L488.75,153.89L488.78,168.97L488.98,160.29L488.99,154.37L489.16,173.79L489.28,148.75L489.76,169.79L489.77,163.25L490.4,150.46L490.44,176.84L490.51,170.79L490.52,165.59L490.61,145.13L491.06,177.2L491.27,158.03L491.28,156.68L491.72,173.01L491.77,152.53L491.97,163.14L491.98,158.77L492.63,147.24L492.68,175.98L492.73,162.31L492.74,163.36L493.06,150.93L493.36,174.83L493.37,178.53L493.59,151.05L494.11,165.16L494.13,169.11L494.37,175.34L494.42,145.55L494.69,167.61L494.7,169.18L494.71,173.89L494.76,153.71L495.45,172.12L495.46,166.95L495.49,152.17L495.53,176.31L496.21,157.53L496.22,164.97L496.25,169.59L496.73,155.1L496.97,166.24L496.98,165.86L497.07,154.02L497.59,169.27L497.73,163.87L497.74,167.49L497.8,153.09L497.84,168.92L498.2,158.45L498.21,154.24L498.22,153.35L498.28,170.29L498.87,161.14L498.88,163.61L498.99,155.64L499.48,169.63L499.53,161.33L499.55,160.43L499.59,154.75L499.72,170.73L499.76,157.79L499.77,152.73L500.49,171.58L500.52,158.9L500.53,157.87L500.55,153.19L500.92,170.85L501.23,166.57L501.24,166.76L501.44,146.53L501.5,172.13L502,161.7L502.01,165.06L502.27,150.25L502.65,171.67L502.73,162.58L502.74,159.26L502.8,152.55L502.83,176.73L503.52,166.53L503.53,165.06L503.99,142.98L504.04,179.92L504.26,166.22L504.27,170.02L504.47,173.03L504.54,150.99L505.02,165.15L505.03,166.66L505.55,168.3L505.59,152.81L505.73,165.64L505.74,167.44L505.98,169.27L506.38,155.77L506.45,164.7L506.46,163.27L506.7,169.04L507.08,155.77L507.14,163.57L507.15,165.74L507.49,155.62L507.83,168.7L507.9,162.66L507.91,164.55L508.43,170.35L508.46,155.96L508.47,153.83L508.52,171.29L509.23,163.54L509.24,161.94L509.29,164.63L509.34,154.29L509.38,164.03L509.39,164.83L509.98,155.39L510.09,174.63L510.12,163.99L510.13,159.11L510.42,168.12L510.62,156.65L510.84,166.57L510.85,168.77L511.44,169.23L511.57,155.03L511.6,163.81L511.62,164.52L511.87,155.51L512.05,171.19L512.36,166.31L512.37,167.32L512.38,170.59L512.6,154.93L513.1,162.92L513.11,163.75L513.25,153.71L513.44,169.89L513.64,161.16L513.65,158.12L513.94,169.65L514.02,156.63L514.41,160.35L514.43,161.07L515.04,157.01L515.1,174.5L515.12,160.02L515.13,155.52L515.17,150.96L515.28,178.19L515.87,158.8L515.89,158.33L516.12,156.29L516.57,168.79L516.65,165.11L516.66,162.95L516.7,168.41L516.76,156.87L517.41,162.55L517.42,162.55L708,162.55" style="vector-effect: non-scaling-stroke; fill: none; stroke: rgb(227, 119, 194); stroke-opacity: 1; stroke-width: 2px; opacity: 1;"/></g><g class="points"/><g class="text"/></g></g></g><g class="overplot"/><path class="xlines-above crisp" d="" style="fill: none; stroke-width: 1px; stroke: rgb(0, 0, 0); stroke-opacity: 0;"/><path class="ylines-above crisp" d="" style="fill: none; stroke-width: 1px; stroke: rgb(0, 0, 0); stroke-opacity: 0;"/><g class="overlines-above"/><g class="xaxislayer-above"><path class="xtick ticks crisp" d="M0,421v5" transform="translate(80,0)" style="stroke: rgb(51, 51, 51); stroke-opacity: 1; stroke-width: 1px;"/><path class="xtick ticks crisp" d="M0,421v5" transform="translate(168.5,0)" style="stroke: rgb(51, 51, 51); stroke-opacity: 1; stroke-width: 1px;"/><path class="xtick ticks crisp" d="M0,421v5" transform="translate(257,0)" style="stroke: rgb(51, 51, 51); stroke-opacity: 1; stroke-width: 1px;"/><path class="xtick ticks crisp" d="M0,421v5" transform="translate(345.5,0)" style="stroke: rgb(51, 51, 51); stroke-opacity: 1; stroke-width: 1px;"/><path class="xtick ticks crisp" d="M0,421v5" transform="translate(434.01,0)" style="stroke: rgb(51, 51, 51); stroke-opacity: 1; stroke-width: 1px;"/><path class="xtick ticks crisp" d="M0,421v5" transform="translate(522.51,0)" style="stroke: rgb(51, 51, 51); stroke-opacity: 1; stroke-width: 1px;"/><path class="xtick ticks crisp" d="M0,421v5" transform="translate(611.01,0)" style="stroke: rgb(51, 51, 51); stroke-opacity: 1; stroke-width: 1px;"/><path class="xtick ticks crisp" d="M0,421v5" transform="translate(699.51,0)" style="stroke: rgb(51, 51, 51); stroke-opacity: 1; stroke-width: 1px;"/><path class="xtick ticks crisp" d="M0,421v5" transform="translate(788.01,0)" style="stroke: rgb(51, 51, 51); stroke-opacity: 1; stroke-width: 1px;"/><g class="xtick"><text text-anchor="middle" x="0" y="446.4" transform="translate(80,0)" style="font-family: 'Open Sans', verdana, arial, sans-serif; font-size: 17px; fill: rgb(51, 51, 51); fill-opacity: 1; white-space: pre;">0</text></g><g class="xtick"><text text-anchor="middle" x="0" y="446.4" transform="translate(168.5,0)" style="font-family: 'Open Sans', verdana, arial, sans-serif; font-size: 17px; fill: rgb(51, 51, 51); fill-opacity: 1; white-space: pre;">500</text></g><g class="xtick"><text text-anchor="middle" x="0" y="446.4" transform="translate(257,0)" style="font-family: 'Open Sans', verdana, arial, sans-serif; font-size: 17px; fill: rgb(51, 51, 51); fill-opacity: 1; white-space: pre;">1000</text></g><g class="xtick"><text text-anchor="middle" x="0" y="446.4" transform="translate(345.5,0)" style="font-family: 'Open Sans', verdana, arial, sans-serif; font-size: 17px; fill: rgb(51, 51, 51); fill-opacity: 1; white-space: pre;">1500</text></g><g class="xtick"><text text-anchor="middle" x="0" y="446.4" transform="translate(434.01,0)" style="font-family: 'Open Sans', verdana, arial, sans-serif; font-size: 17px; fill: rgb(51, 51, 51); fill-opacity: 1; white-space: pre;">2000</text></g><g class="xtick"><text text-anchor="middle" x="0" y="446.4" transform="translate(522.51,0)" style="font-family: 'Open Sans', verdana, arial, sans-serif; font-size: 17px; fill: rgb(51, 51, 51); fill-opacity: 1; white-space: pre;">2500</text></g><g class="xtick"><text text-anchor="middle" x="0" y="446.4" transform="translate(611.01,0)" style="font-family: 'Open Sans', verdana, arial, sans-serif; font-size: 17px; fill: rgb(51, 51, 51); fill-opacity: 1; white-space: pre;">3000</text></g><g class="xtick"><text text-anchor="middle" x="0" y="446.4" transform="translate(699.51,0)" style="font-family: 'Open Sans', verdana, arial, sans-serif; font-size: 17px; fill: rgb(51, 51, 51); fill-opacity: 1; white-space: pre;">3500</text></g><g class="xtick"><text text-anchor="middle" x="0" y="446.4" transform="translate(788.01,0)" style="font-family: 'Open Sans', verdana, arial, sans-serif; font-size: 17px; fill: rgb(51, 51, 51); fill-opacity: 1; white-space: pre;">4000</text></g></g><g class="yaxislayer-above"><path class="ytick ticks crisp" d="M79,0h-5" transform="translate(0,375.2)" style="stroke: rgb(51, 51, 51); stroke-opacity: 1; stroke-width: 1px;"/><path class="ytick ticks crisp" d="M79,0h-5" transform="translate(0,317.6)" style="stroke: rgb(51, 51, 51); stroke-opacity: 1; stroke-width: 1px;"/><path class="ytick ticks crisp" d="M79,0h-5" transform="translate(0,259.99)" style="stroke: rgb(51, 51, 51); stroke-opacity: 1; stroke-width: 1px;"/><path class="ytick ticks crisp" d="M79,0h-5" transform="translate(0,202.39)" style="stroke: rgb(51, 51, 51); stroke-opacity: 1; stroke-width: 1px;"/><path class="ytick ticks crisp" d="M79,0h-5" transform="translate(0,144.79)" style="stroke: rgb(51, 51, 51); stroke-opacity: 1; stroke-width: 1px;"/><g class="ytick"><text text-anchor="end" x="70.6" y="5.949999999999999" transform="translate(0,375.2)" style="font-family: 'Open Sans', verdana, arial, sans-serif; font-size: 17px; fill: rgb(51, 51, 51); fill-opacity: 1; white-space: pre;">−0.4</text></g><g class="ytick"><text text-anchor="end" x="70.6" y="5.949999999999999" transform="translate(0,317.6)" style="font-family: 'Open Sans', verdana, arial, sans-serif; font-size: 17px; fill: rgb(51, 51, 51); fill-opacity: 1; white-space: pre;">−0.2</text></g><g class="ytick"><text text-anchor="end" x="70.6" y="5.949999999999999" transform="translate(0,259.99)" style="font-family: 'Open Sans', verdana, arial, sans-serif; font-size: 17px; fill: rgb(51, 51, 51); fill-opacity: 1; white-space: pre;">0</text></g><g class="ytick"><text text-anchor="end" x="70.6" y="5.949999999999999" transform="translate(0,202.39)" style="font-family: 'Open Sans', verdana, arial, sans-serif; font-size: 17px; fill: rgb(51, 51, 51); fill-opacity: 1; white-space: pre;">0.2</text></g><g class="ytick"><text text-anchor="end" x="70.6" y="5.949999999999999" transform="translate(0,144.79)" style="font-family: 'Open Sans', verdana, arial, sans-serif; font-size: 17px; fill: rgb(51, 51, 51); fill-opacity: 1; white-space: pre;">0.4</text></g></g><g class="overaxes-above"/></g></g><g class="polarlayer"/><g class="ternarylayer"/><g class="geolayer"/><g class="pielayer"/><g class="sunburstlayer"/><g class="glimages"/><defs id="topdefs-a76584"><g class="clips"/><clipPath id="legenda76584"><rect width="166" height="36" x="0" y="0"/></clipPath></defs><g class="layer-above"><g class="imagelayer"/><g class="shapelayer"/></g><g class="infolayer"><g class="legend" pointer-events="all" transform="translate(802.16, 100)"><rect class="bg" shape-rendering="crispEdges" style="stroke: rgb(68, 68, 68); stroke-opacity: 1; fill: rgb(255, 255, 255); fill-opacity: 1; stroke-width: 0px;" width="166" height="36" x="0" y="0"/><g class="scrollbox" transform="translate(0, 0)" clip-path="url('#legenda76584')"><g class="groups" transform="translate(0, 0)"><g class="traces" transform="translate(0, 17.55)" style="opacity: 1;"><text class="legendtext user-select-none" text-anchor="start" x="40" y="6.63" style="font-family: 'Open Sans', verdana, arial, sans-serif; font-size: 17px; fill: rgb(51, 51, 51); fill-opacity: 1; white-space: pre;">class=gun_shot</text><g class="layers" style="opacity: 1;"><g class="legendfill"/><g class="legendlines"><path class="js-line" d="M5,0h30" style="fill: none; stroke: rgb(227, 119, 194); stroke-opacity: 1; stroke-width: 2px;"/></g><g class="legendsymbols"><g class="legendpoints"/></g></g><rect class="legendtoggle" pointer-events="all" x="0" y="-12.55" width="206" height="25.1" style="cursor: pointer; fill: rgb(0, 0, 0); fill-opacity: 0;"/></g></g></g><rect class="scrollbar" rx="20" ry="3" width="0" height="0" style="fill: rgb(128, 139, 164); fill-opacity: 1;" x="0" y="0"/></g><g class="g-gtitle"><text class="gtitle" x="490" y="50" text-anchor="middle" dy="0em" style="font-family: 'Open Sans', verdana, arial, sans-serif; font-size: 24px; fill: rgb(51, 51, 51); opacity: 1; font-weight: normal; white-space: pre;">audio wave (time vs amplitude)</text></g><g class="g-xtitle"><text class="xtitle" x="434" y="490" text-anchor="middle" style="font-family: 'Open Sans', verdana, arial, sans-serif; font-size: 20px; fill: rgb(51, 51, 51); opacity: 1; font-weight: normal; white-space: pre;">time(ms)</text></g><g class="g-ytitle"><text class="ytitle" transform="rotate(-90,30,260)" x="30" y="260" text-anchor="middle" style="font-family: 'Open Sans', verdana, arial, sans-serif; font-size: 20px; fill: rgb(51, 51, 51); opacity: 1; font-weight: normal; white-space: pre;">amplitude</text></g></g></svg>