<svg class="main-svg" xmlns="http://www.w3.org/2000/svg" xmlns:xlink="http://www.w3.org/1999/xlink" width="980" height="500" viewBox="0 0 980 500"><rect x="0" y="0" width="980" height="500" style="fill: rgb(255, 255, 255); fill-opacity: 1;"/><defs id="defs-33a98f"><g class="clips"><clipPath id="clip33a98fxyplot" class="plotclip"><rect width="721" height="320"/></clipPath><clipPath class="axesclip" id="clip33a98fx"><rect x="80" y="0" width="721" height="500"/></clipPath><clipPath class="axesclip" id="clip33a98fy"><rect x="0" y="100" width="980" height="320"/></clipPath><clipPath class="axesclip" id="clip33a98fxy"><rect x="80" y="100" width="721" height="320"/></clipPath></g><g class="gradients"/></defs><g class="bglayer"><rect class="bg" x="80" y="100" width="721" height="320" style="fill: rgb(237, 237, 237); fill-opacity: 1; stroke-width: 0;"/></g><g class="layer-below"><g class="imagelayer"/><g class="shapelayer"/></g><g class="cartesianlayer"><g class="subplot xy"><g class="layer-subplot"><g class="shapelayer"/><g class="imagelayer"/></g><g class="gridlayer"><g class="x"><path class="xgrid crisp" transform="translate(170.13,0)" d="M0,100v320" style="stroke: rgb(255, 255, 255); stroke-opacity: 1; stroke-width: 1px;"/><path class="xgrid crisp" transform="translate(260.25,0)" d="M0,100v320" style="stroke: rgb(255, 255, 255); stroke-opacity: 1; stroke-width: 1px;"/><path class="xgrid crisp" transform="translate(350.38,0)" d="M0,100v320" style="stroke: rgb(255, 255, 255); stroke-opacity: 1; stroke-width: 1px;"/><path class="xgrid crisp" transform="translate(440.51,0)" d="M0,100v320" style="stroke: rgb(255, 255, 255); stroke-opacity: 1; stroke-width: 1px;"/><path class="xgrid crisp" transform="translate(530.63,0)" d="M0,100v320" style="stroke: rgb(255, 255, 255); stroke-opacity: 1; stroke-width: 1px;"/><path class="xgrid crisp" transform="translate(620.76,0)" d="M0,100v320" style="stroke: rgb(255, 255, 255); stroke-opacity: 1; stroke-width: 1px;"/><path class="xgrid crisp" transform="translate(710.88,0)" d="M0,100v320" style="stroke: rgb(255, 255, 255); stroke-opacity: 1; stroke-width: 1px;"/></g><g class="y"><path class="ygrid crisp" transform="translate(0,375.2)" d="M80,0h721" style="stroke: rgb(255, 255, 255); stroke-opacity: 1; stroke-width: 1px;"/><path class="ygrid crisp" transform="translate(0,317.6)" d="M80,0h721" style="stroke: rgb(255, 255, 255); stroke-opacity: 1; stroke-width: 1px;"/><path class="ygrid crisp" transform="translate(0,202.39)" d="M80,0h721" style="stroke: rgb(255, 255, 255); stroke-opacity: 1; stroke-width: 1px;"/><path class="ygrid crisp" transform="translate(0,144.79)" d="M80,0h721" style="stroke: rgb(255, 255, 255); stroke-opacity: 1; stroke-width: 1px;"/></g></g><g class="zerolinelayer"><path class="xzl zl crisp" transform="translate(80,0)" d="M0,100v320" style="stroke: rgb(255, 255, 255); stroke-opacity: 1; stroke-width: 1px;"/><path class="yzl zl crisp" transform="translate(0,259.99)" d="M80,0h721" style="stroke: rgb(255, 255, 255); stroke-opacity: 1; stroke-width: 1px;"/></g><path class="xlines-below"/><path class="ylines-below"/><g class="overlines-below"/><g class="xaxislayer-below"/><g class="yaxislayer-below"/><g class="overaxes-below"/><g class="plot" transform="translate(80, 100)" clip-path="url('#clip33a98fxyplot')"><g class="scatterlayer mlayer"><g class="trace scatter tracec5af13aa-7ab8-4b67-b181-c20af544c784" style="stroke-miterlimit: 2; opacity: 1;"><g class="fills"/><g class="errorbars"/><g class="lines"><path class="js-line" d="M0,162.55L228.48,162.55L228.49,162.78L228.93,161.18L229.16,162.88L229.23,162.6L229.24,163.24L229.37,163.7L229.7,162L230,162.57L230.01,163.14L230.12,163.63L230.25,161.98L230.62,162.42L230.63,162.15L230.88,163.51L231.15,162.13L231.38,162.54L231.39,162.39L231.55,161.22L231.75,162.88L232.13,161.89L232.14,162.35L232.19,161.73L232.58,164.02L232.92,163.31L232.93,162.83L233.03,163.52L233.26,161.86L233.64,162.55L233.65,162.26L233.86,163.33L234.24,161.11L234.38,162.54L234.4,162.29L234.94,161L235.04,163.03L235.15,162.23L235.16,162.5L235.3,162.05L235.51,163.61L235.87,162.73L235.88,163.08L236.5,164.74L236.58,156.21L236.59,166.88L236.83,40.28L236.85,281.65L236.86,133.37L236.87,30.92L236.93,16L237.29,304L237.62,175.51L237.63,106.03L237.69,78.32L237.7,266.6L237.83,183.27L237.84,95.43L238.01,267.49L238.56,33.37L238.6,251.33L238.61,170.4L238.67,267.78L238.69,30.71L239.32,148.17L239.33,122.78L239.48,87.07L239.76,207.92L240.07,105.81L240.09,106.85L240.12,220.74L240.14,84.35L240.83,183.41L240.84,151.19L241.02,100.64L241.4,216.58L241.58,164.79L241.6,182.54L241.91,94.88L241.93,252.3L242.3,128.24L242.32,118.54L242.92,220.88L242.96,101.9L243.01,163.11L243.03,119.47L243.35,74.03L243.41,241.83L243.69,149.44L243.7,207.1L243.9,212.99L244.17,104.89L244.43,162.16L244.45,201.61L244.7,116.87L245.04,204.03L245.2,141.65L245.21,187.17L245.26,212.51L245.38,107.62L245.95,182.09L245.97,188.02L246.07,119.23L246.18,213.54L246.72,157.18L246.73,173.97L246.91,227.18L247.09,98.04L247.48,132.6L247.49,186.98L247.98,219.9L248.01,84.8L248.24,175.26L248.25,171.52L248.92,229.13L248.97,86.64L248.99,150.53L249,214.8L249.15,104.93L249.18,247.27L249.56,171.47L249.57,122.53L249.64,234.27L250.03,108.02L250.21,146.86L250.22,203.56L250.24,213.19L250.64,99.93L250.86,189.9L250.87,137.76L250.88,102.01L251.07,222.62L251.61,136.45L251.62,175.14L251.94,237.12L252.28,98.74L252.32,160.32L252.33,119.64L252.56,215.64L252.59,105.55L252.93,212.29L252.94,219.78L253.38,108.24L253.68,194.71L253.69,194.83L254.13,224.37L254.17,101.91L254.44,136.98L254.45,187.55L254.61,119.35L254.63,206.86L255.05,140.22L255.06,123.73L255.53,111.78L255.73,212.72L255.81,148.76L255.82,117.38L255.99,231.41L256.47,95.71L256.58,180.2L256.59,157.21L257.1,217.78L257.13,101.95L257.27,150.89L257.28,192.45L257.91,119.93L257.94,203.64L258.02,163.69L258.03,163.54L258.12,196.59L258.46,126.27L258.47,165.95L258.48,196.64L259.03,219.64L259.14,121.32L259.24,144.21L259.25,171.38L259.35,197.11L259.82,121.21L259.99,172.72L260,167.89L260.13,104.29L260.65,210.02L260.74,158.33L260.75,139.99L261.28,216.72L261.31,121.4L261.52,189.95L261.54,152.61L262.18,105.93L262.21,220.35L262.28,166.78L262.29,180.11L262.32,105.34L262.36,200.6L263.02,171.34L263.03,154.07L263.07,211.61L263.7,116.29L263.79,133.08L263.8,151.1L264.19,200.74L264.33,96.71L264.54,172.43L264.55,135.68L264.57,105.2L264.61,238.43L265.28,165.5L265.29,154.77L265.38,210.18L265.57,121.22L265.97,179.26L265.99,180.98L266.37,195.74L266.52,117.77L266.62,152.2L266.63,195.85L266.83,109.44L266.86,206.17L267.34,145.95L267.35,179.76L267.5,214.69L267.84,118.57L268.06,151.98L268.07,143.21L268.39,98.75L268.42,215.36L268.82,147.58L268.84,145.28L269.08,123.92L269.32,207.1L269.59,179.48L269.6,162.74L269.65,219.81L270.21,124.06L270.35,162.53L270.36,159.07L270.71,184.89L270.84,131.61L271.07,172.5L271.08,141.79L271.73,200.64L271.79,111.18L271.8,150.05L271.81,187.72L271.99,231.69L272.02,111.94L272.51,162.29L272.52,145.08L272.99,198.37L273.09,126.41L273.12,154.92L273.13,190.08L273.49,220.08L273.52,114.13L273.86,169.28L273.87,160.23L274.09,108.59L274.34,203.33L274.6,167.87L274.62,138.21L274.82,117.9L274.86,204.58L275.31,154.06L275.32,203.65L275.51,209.64L275.6,131.57L276.01,146.58L276.02,182.55L276.37,211.65L276.42,119.34L276.72,146L276.73,132.49L277.1,94.44L277.14,224.69L277.48,165.57L277.49,131.5L277.81,226.04L277.86,77.61L278.16,157.48L278.18,171.88L278.69,128.5L278.88,212.23L278.91,169.15L278.92,121.8L278.96,196.23L278.99,114.14L279.44,170.27L279.45,192.93L279.53,231.7L279.81,90.83L280.12,164.93L280.14,115.94L280.15,88.02L280.45,212.08L280.87,151.36L280.88,159.54L281.24,219.07L281.27,111.2L281.49,176.19L281.5,147.09L281.58,100.43L281.6,209.2L282.24,143.34L282.25,145.03L282.28,136.86L282.29,150.27L282.3,190.82L282.31,212.21L282.35,114.44L283.02,137.93L283.03,132.29L283.54,214.27L283.57,106.21L283.77,169.79L283.79,149.59L284.07,136.16L284.32,190.34L284.48,148.64L284.5,178.01L285.05,197.57L285.08,123.31L285.16,136.38L285.17,128.13L285.6,112.79L285.63,202.5L285.91,139.17L285.93,154.05L286.47,84.13L286.5,250.74L286.69,171L286.7,170.55L287.04,96.76L287.1,206.34L287.36,167.78L287.37,189.66L287.4,117.11L287.64,208.86L287.93,128.71L287.94,123.4L288.49,122.62L288.66,217.07L288.69,158.33L288.7,125L289.06,215.46L289.1,103.85L289.4,188.34L289.41,197.96L289.63,118.7L289.67,220.8L290.16,155.21L290.17,204.92L290.18,211.65L290.38,94.34L290.87,172.92L290.88,139.03L291.03,131.6L291.06,186.18L291.6,152.41L291.62,157.27L292.22,223.01L292.26,112.41L292.35,155.26L292.36,156.33L292.65,111.51L292.71,216.93L293.09,163.93L293.1,149.08L293.43,112.51L293.46,219.63L293.72,137.83L293.73,129.83L293.8,221.85L293.91,96.88L294.44,153.82L294.45,151.12L295.1,215.87L295.13,84.24L295.19,163.57L295.2,139.8L295.61,112.87L295.7,218.59L295.87,170.39L295.88,179.91L296.02,224.89L296.3,106.41L296.56,173.85L296.57,198.23L296.61,86.16L296.73,222.07L297.3,126.77L297.32,165.14L297.41,225.95L297.46,95.65L298.07,165.56L298.08,152.79L298.3,119.71L298.44,212.03L298.84,185.81L298.85,164.56L299.13,224.18L299.57,112.5L299.58,156.47L299.59,196.65L300.2,92.64L300.24,225.37L300.36,137.63L300.37,162.49L300.73,110.68L301.02,221.66L301.04,123.32L301.06,80.48L301.59,220.59L301.81,173.96L301.82,136.52L302.22,208.54L302.4,119.37L302.52,182.57L302.53,179.31L302.84,209.71L303.24,132.5L303.26,168.1L303.28,186.16L303.66,97.34L303.77,211.06L303.99,150.5L304,150.6L304.2,206.71L304.45,118.83L304.74,148.56L304.75,148.38L304.81,219.44L305.24,99.58L305.45,168.02L305.46,172.72L305.73,112.87L305.77,217.53L306.18,142.71L306.19,181.3L306.26,122.57L306.56,207.73L306.59,154.03L306.6,105.24L306.61,102.47L306.64,221.12L306.91,217.22L306.93,231.71L307.34,93.5L307.38,236.67L307.68,179.89L307.69,185.73L307.92,202.83L308.18,108.98L308.42,150.13L308.44,160.88L308.9,231.17L308.94,101.17L309.19,172.99L309.2,174.28L309.89,219.55L309.92,123.88L309.94,145.6L309.96,154.55L310.15,101.41L310.2,248.89L310.67,158.8L310.68,147.45L310.78,223.66L310.9,100.8L311.39,169.57L311.4,174.61L311.96,115.81L312.01,212.75L312.13,180.61L312.14,162.92L312.52,121.47L312.64,211.04L312.89,162.35L312.9,187.99L313.12,104.66L313.38,225.11L313.63,163.85L313.64,160.97L313.79,202.36L314.12,123.17L314.15,168.39L314.16,213.88L314.17,226.59L314.29,88.22L314.87,168.81L314.88,159.52L315.31,121.49L315.35,197.29L315.65,140.59L315.66,167.84L315.68,197.83L315.71,114.12L316.4,141.06L316.41,143.49L316.67,117.39L317.17,206.28L317.18,177.51L317.19,151.91L317.37,192.56L317.41,134.77L317.48,150.82L317.49,117.81L317.53,226.75L317.76,106.34L318.18,134.07L318.19,112.69L318.24,224.54L318.57,112.44L318.88,157.71L318.89,126.25L319.32,210.78L319.36,104.34L319.6,160.17L319.61,181.68L319.8,125.16L320.03,195.42L320.32,145.33L320.33,138.48L320.99,77.87L321.03,223.32L321.1,168.17L321.11,144.07L321.49,125.26L321.66,203.89L321.83,187.62L321.84,182.26L322.38,59.88L322.42,212.84L322.56,160.18L322.57,187.34L322.73,212L322.77,125.73L323,169.34L323.01,130.34L323.31,219.24L323.45,104.14L323.67,176.96L323.68,186.57L324.02,217.33L324.08,101.1L324.44,150.43L324.46,158.11L324.6,130.4L324.73,212.85L325.23,199.27L325.24,166.66L325.27,79.95L325.32,211.94L325.99,155.1L326,174.95L326.13,105.71L326.17,203.77L326.74,160.47L326.75,150.56L327.13,219.93L327.38,99.18L327.45,167.32L327.46,128.73L327.99,106.8L328.03,216.46L328.17,164.47L328.18,183.32L328.22,186L328.23,169.61L328.24,141.39L328.35,195.19L328.59,128.77L328.95,164.59L328.96,176.52L328.97,176.77L328.98,155.73L329.21,113.89L329.54,202.07L329.69,169.11L329.7,180.14L329.77,113.58L329.96,210.27L330.29,145.43L330.3,127.87L330.78,230.58L330.82,111.13L331.01,156.72L331.02,135.96L331.2,106.4L331.25,216.04L331.78,168.58L331.79,157.14L331.99,222.23L332.49,103.69L332.5,142.74L332.51,182.9L332.7,208.22L333.1,107.33L333.25,185.85L333.26,172.16L333.96,218.13L334,105.66L334.02,136.94L334.03,185.25L334.13,240.68L334.18,90.14L334.77,168.66L334.79,141.64L335.26,119.66L335.37,199.43L335.52,141.71L335.53,163.9L335.72,207.01L336,93.84L336.28,171.3L336.3,174.43L336.33,108.1L336.37,238.07L337.05,135.82L337.06,145.42L337.08,142.77L337.12,201.46L337.13,209.54L337.26,105.03L337.69,229.81L337.91,141.21L337.92,150.26L338.24,223.41L338.29,113.99L338.6,155.98L338.62,129.55L338.63,116.95L338.83,210.11L339.34,165.67L339.35,159.66L339.42,127.14L339.44,175.72L339.45,195.53L339.7,227.13L340.11,123.64L340.16,169.79L340.17,182.95L340.59,113.25L340.63,225.61L340.88,174.7L340.89,167.98L341.41,121.18L341.53,198.7L341.62,197.66L341.64,187.3L341.78,205.17L341.82,109.11L342.4,148.69L342.41,141.4L342.65,118.86L343.15,209.2L343.17,177.57L343.18,142.55L343.2,111.18L343.24,204.76L343.92,155.56L343.93,166.01L344,129.8L344.2,211.46L344.68,169.85L344.69,159.01L344.78,191.52L345,134.09L345.38,190.16L345.39,198.46L345.42,123.66L346.12,205.53L346.13,203.27L346.69,125.75L346.73,208.81L346.87,174.64L346.89,189.77L347.12,220.72L347.31,122.89L347.62,165.98L347.63,186.76L348.25,127.56L348.29,204.07L348.32,176.29L348.33,147.09L348.92,215.76L348.96,108.84L349.04,169.52L349.05,193.39L349.06,199.32L349.09,123.4L349.76,177.41L349.77,174.26L350.05,204.62L350.34,120.15L350.51,168.5L350.52,189.83L350.7,140.29L350.96,196.38L350.97,179.87L350.99,152.37L351.17,132.82L351.21,196.24L351.73,146.96L351.74,159.51L352.02,192.42L352.23,120.92L352.42,151.78L352.43,141.67L352.74,194.28L352.79,121.09L353.13,146.5L353.14,138.78L353.18,197.98L353.32,127.59L353.86,147.91L353.87,126.25L353.92,194.17L354.39,157.2L354.4,151.56L354.68,133.95L354.74,184.81L355.08,147.5L355.09,149.63L355.1,149.19L355.12,167.24L355.13,185.06L355.39,133.15L355.49,188.59L355.56,166.9L355.57,191.15L355.58,198.44L355.62,127.11L356.28,162.62L356.29,158.79L356.91,199.38L357.04,125.96L357.05,157.9L357.68,189.69L357.73,120.84L357.79,156.97L357.8,151.5L358.26,134.18L358.32,192.23L358.55,172.66L358.56,158.16L358.95,125.93L359.06,191.59L359.31,153.32L359.32,146.73L359.66,142.59L359.69,185.56L360.08,159.85L360.09,164.26L360.15,196.3L360.18,134.37L360.79,164.32L360.8,159.52L361.27,248.85L361.29,44.12L361.44,219.2L361.45,281.19L361.58,70.73L362.21,152.4L362.22,163.36L362.26,187.13L362.44,140.44L362.94,161.89L362.95,148.97L363.64,111.94L363.68,193.76L363.71,182.33L363.72,155.03L363.86,133.6L364.35,190.68L364.46,156.53L364.47,168.16L364.66,148.44L364.79,179.78L365.14,160.87L365.15,170.14L365.44,187.43L365.49,144.44L365.89,177.8L365.9,168.33L366.39,194.26L366.43,123.37L366.63,155.26L366.65,175.39L367.01,130.98L367.08,196.35L367.36,154.92L367.37,139.3L367.38,138.59L367.48,179.36L367.72,163.83L367.73,169.71L367.86,137.27L367.94,182.65L368.46,169.17L368.47,172.95L368.89,183.51L368.92,137.26L369.21,168.88L369.23,172.75L369.34,184.76L369.48,143.88L369.95,158.42L369.96,157.2L370.01,144.77L370.1,180.14L370.52,161.05L370.53,151.99L370.69,142.55L370.79,182.54L371.31,170.94L371.32,167.06L371.61,220.22L371.64,96.4L372.01,149.91L372.02,164.25L372.14,146.94L372.23,179.61L372.75,153.17L372.76,151.74L373.16,185.86L373.21,139.48L373.53,175.74L373.54,164.69L373.99,177.59L374.1,145.02L374.29,159.8L374.31,162.67L374.86,141L374.89,184.79L375.05,179.37L375.06,168.38L375.65,140.01L375.69,184.07L375.8,161.21L375.82,159.37L376.07,146.52L376.1,186.18L376.57,157.32L376.58,159.92L376.82,148.09L376.85,188.5L377.34,171.95L377.35,162.66L377.49,180.83L377.67,134.56L378.1,161.08L378.11,165.45L378.43,141.18L378.55,182.66L378.87,159.57L378.88,163.02L378.99,183.37L379.11,138.07L379.6,160.08L379.61,151.55L379.78,181.84L380,148.06L380.13,159.67L380.14,154.12L380.19,173.69L380.22,148.29L380.23,141.81L380.94,180.09L380.98,160.51L380.99,158.01L381.16,141.91L381.57,178.31L381.72,165.09L381.73,169.92L381.78,151.95L382.18,179.98L382.42,162.7L382.43,169.65L382.95,149.69L382.98,179.17L383.16,160.78L383.17,161.15L383.24,169.58L383.26,159.55L383.27,151.13L383.3,150.33L383.32,158.69L383.33,173.78L383.68,139.36L383.74,185.31L384.05,166.52L384.06,157.48L384.24,191.63L384.28,134.08L384.59,157.51L384.6,147.41L385.03,184.8L385.08,139.77L385.37,167.96L385.38,159.12L385.46,137.59L385.91,186.89L386.07,165.97L386.08,174.02L386.12,145.53L386.38,178.67L386.39,187.25L386.59,147.74L387.16,164.28L387.17,165.41L387.4,135.24L387.45,183.11L387.8,174.22L387.81,180.94L387.85,145.56L388.56,164.25L388.57,164.29L388.64,147.11L388.68,174.32L389.32,173.94L389.33,166.2L389.36,142.53L389.44,184.95L390.07,165.01L390.08,168.33L390.27,151.19L390.33,178.48L390.7,170.19L390.71,161.63L391.05,174.36L391.14,149.91L391.46,159.83L391.48,154.3L391.69,143.57L391.72,179.77L392.13,162.84L392.14,166.31L392.17,176.24L392.22,151.12L392.86,156.44L392.87,154.21L393.19,150.15L393.57,174.9L393.59,157.04L393.6,152.26L393.89,177.39L394.06,146.98L394.35,160.44L394.36,161.01L394.43,171.88L394.65,149.39L395.14,151.47L395.15,155.61L395.16,155.84L395.17,155.12L395.18,173.5L395.35,182.33L395.78,150.73L395.86,164.29L395.87,150.9L396.49,182.7L396.52,134.96L396.53,158.88L396.54,182.95L396.83,125.51L396.98,184.01L397.29,168.23L397.3,166.88L397.37,124.49L397.43,206.57L398.02,162.14L398.03,168.69L398.28,179.67L398.71,145.65L398.8,157.52L398.81,165.29L399.15,178.41L399.18,138.63L399.45,149.12L399.46,144.44L399.79,178.41L400.22,162.83L400.23,161.01L400.66,141.8L400.69,173.74L400.89,157.22L400.9,178.96L401.01,184.11L401.13,146.5L401.59,158.33L401.6,169.98L401.61,176.61L401.72,152.32L402.32,160.56L402.34,156.58L402.92,150.2L402.99,175.41L403.08,151.56L403.09,149.63L403.66,180.04L403.71,147.93L403.87,170.17L403.88,169.57L404.1,152.84L404.21,170.12L404.63,161.58L404.65,164.52L405.15,173.79L405.28,148.75L405.38,169.34L405.39,161.57L406.03,174.43L406.05,152.17L406.13,160.07L406.14,172.31L406.46,176.84L406.63,145.13L406.77,162.85L406.79,150.62L407.09,177.2L407.12,146.08L407.53,160.82L407.54,160.78L407.77,173.01L407.81,152.53L408.28,161.88L408.3,157.45L408.69,147.24L408.73,175.98L409.07,169.5L409.08,164.88L409.13,150.93L409.44,178.53L409.7,169.26L409.71,171.79L409.84,152.25L409.86,175.6L410.33,162.52L410.35,166.9L410.46,175.34L410.51,145.55L410.95,168.7L410.97,168.32L411.6,152.17L411.64,176.31L411.71,163.64L411.72,164.35L412.01,172.68L412.32,154.27L412.46,165.04L412.47,166.22L412.93,169.11L413.21,154.02L413.23,163.47L413.24,166.84L413.74,169.27L413.95,153.09L413.98,166.88L414,168.92L414.38,153.35L414.45,170.29L414.75,162.44L414.76,163.6L415.17,155.64L415.29,168.48L415.47,158.91L415.48,157.86L415.96,152.73L416.06,171.33L416.25,165.61L416.26,160.73L416.69,171.58L416.76,153.19L417,159.98L417.01,163.52L417.13,170.85L417.66,146.53L417.69,161.56L417.7,149.51L417.72,172.13L418.45,160.65L418.46,160.76L418.5,150.25L419.08,176.73L419.21,162.98L419.22,164.32L419.53,153.55L419.76,169.69L419.97,159.24L419.98,162.4L420.26,142.98L420.3,179.92L420.74,173.03L420.76,169.63L420.81,150.99L421.04,169.87L421.51,163.4L421.52,165.95L421.85,168.3L421.88,152.81L422.03,165.64L422.04,167.44L422.1,157.04L422.29,169.27L422.68,157.8L422.69,155.77L423.02,169.04L423.45,160.74L423.46,163.57L423.82,155.62L424.17,168.7L424.19,165.5L424.2,158.95L424.82,153.83L424.87,171.29L424.93,161L424.95,162.99L425.25,169.53L425.7,154.29L425.72,156.54L425.73,160.57L426.35,155.39L426.47,174.63L426.49,167.79L426.5,163.99L427.01,156.65L427.24,168.77L427.26,166.95L427.84,169.23L427.98,155.03L428.01,163.81L428.02,164.52L428.28,155.51L428.46,171.19L428.75,163.28L428.77,166.36L428.8,170.59L429.02,154.93L429.35,161.22L429.36,159.69L429.69,153.71L429.88,169.89L429.98,159.36L429.99,157.79L430.39,169.65L430.47,156.63L430.76,164.05L430.77,161.67L430.97,157.86L431.25,168.69L431.5,159.33L431.51,157.01L431.57,174.5L431.6,155.52L431.63,160.23L431.64,150.96L431.75,178.19L432.4,165.04L432.42,166.99L432.61,156.29L433.07,168.79L433.18,163.37L433.19,166.2L433.2,168.41L433.26,156.87L433.92,162.55L433.94,162.55L721,162.55" style="vector-effect: non-scaling-stroke; fill: none; stroke: rgb(227, 119, 194); stroke-opacity: 1; stroke-width: 2px; opacity: 1;"/></g><g class="points"/><g class="text"/></g></g></g><g class="overplot"/><path class="xlines-above crisp" d="" style="fill: none; stroke-width: 1px; stroke: rgb(0, 0, 0); stroke-opacity: 0;"/><path class="ylines-above crisp" d="" style="fill: none; stroke-width: 1px; stroke: rgb(0, 0, 0); stroke-opacity: 0;"/><g class="overlines-above"/><g class="xaxislayer-above"><path class="xtick ticks crisp" d="M0,421v5" transform="translate(80,0)" style="stroke: rgb(51, 51, 51); stroke-opacity: 1; stroke-width: 1px;"/><path class="xtick ticks crisp" d="M0,421v5" transform="translate(170.13,0)" style="stroke: rgb(51, 51, 51); stroke-opacity: 1; stroke-width: 1px;"/><path class="xtick ticks crisp" d="M0,421v5" transform="translate(260.25,0)" style="stroke: rgb(51, 51, 51); stroke-opacity: 1; stroke-width: 1px;"/><path class="xtick ticks crisp" d="M0,421v5" transform="translate(350.38,0)" style="stroke: rgb(51, 51, 51); stroke-opacity: 1; stroke-width: 1px;"/><path class="xtick ticks crisp" d="M0,421v5" transform="translate(440.51,0)" style="stroke: rgb(51, 51, 51); stroke-opacity: 1; stroke-width: 1px;"/><path class="xtick ticks crisp" d="M0,421v5" transform="translate(530.63,0)" style="stroke: rgb(51, 51, 51); stroke-opacity: 1; stroke-width: 1px;"/><path class="xtick ticks crisp" d="M0,421v5" transform="translate(620.76,0)" style="stroke: rgb(51, 51, 51); stroke-opacity: 1; stroke-width: 1px;"/><path class="xtick ticks crisp" d="M0,421v5" transform="translate(710.88,0)" style="stroke: rgb(51, 51, 51); stroke-opacity: 1; stroke-width: 1px;"/><path class="xtick ticks crisp" d="M0,421v5" transform="translate(801.01,0)" style="stroke: rgb(51, 51, 51); stroke-opacity: 1; stroke-width: 1px;"/><g class="xtick"><text text-anchor="middle" x="0" y="444" transform="translate(80,0)" style="font-family: 'Open Sans', verdana, arial, sans-serif; font-size: 15px; fill: rgb(51, 51, 51); fill-opacity: 1; white-space: pre;">0</text></g><g class="xtick"><text text-anchor="middle" x="0" y="444" transform="translate(170.13,0)" style="font-family: 'Open Sans', verdana, arial, sans-serif; font-size: 15px; fill: rgb(51, 51, 51); fill-opacity: 1; white-space: pre;">500</text></g><g class="xtick"><text text-anchor="middle" x="0" y="444" transform="translate(260.25,0)" style="font-family: 'Open Sans', verdana, arial, sans-serif; font-size: 15px; fill: rgb(51, 51, 51); fill-opacity: 1; white-space: pre;">1000</text></g><g class="xtick"><text text-anchor="middle" x="0" y="444" transform="translate(350.38,0)" style="font-family: 'Open Sans', verdana, arial, sans-serif; font-size: 15px; fill: rgb(51, 51, 51); fill-opacity: 1; white-space: pre;">1500</text></g><g class="xtick"><text text-anchor="middle" x="0" y="444" transform="translate(440.51,0)" style="font-family: 'Open Sans', verdana, arial, sans-serif; font-size: 15px; fill: rgb(51, 51, 51); fill-opacity: 1; white-space: pre;">2000</text></g><g class="xtick"><text text-anchor="middle" x="0" y="444" transform="translate(530.63,0)" style="font-family: 'Open Sans', verdana, arial, sans-serif; font-size: 15px; fill: rgb(51, 51, 51); fill-opacity: 1; white-space: pre;">2500</text></g><g class="xtick"><text text-anchor="middle" x="0" y="444" transform="translate(620.76,0)" style="font-family: 'Open Sans', verdana, arial, sans-serif; font-size: 15px; fill: rgb(51, 51, 51); fill-opacity: 1; white-space: pre;">3000</text></g><g class="xtick"><text text-anchor="middle" x="0" y="444" transform="translate(710.88,0)" style="font-family: 'Open Sans', verdana, arial, sans-serif; font-size: 15px; fill: rgb(51, 51, 51); fill-opacity: 1; white-space: pre;">3500</text></g><g class="xtick"><text text-anchor="middle" x="0" y="444" transform="translate(801.01,0)" style="font-family: 'Open Sans', verdana, arial, sans-serif; font-size: 15px; fill: rgb(51, 51, 51); fill-opacity: 1; white-space: pre;">4000</text></g></g><g class="yaxislayer-above"><path class="ytick ticks crisp" d="M79,0h-5" transform="translate(0,375.2)" style="stroke: rgb(51, 51, 51); stroke-opacity: 1; stroke-width: 1px;"/><path class="ytick ticks crisp" d="M79,0h-5" transform="translate(0,317.6)" style="stroke: rgb(51, 51, 51); stroke-opacity: 1; stroke-width: 1px;"/><path class="ytick ticks crisp" d="M79,0h-5" transform="translate(0,259.99)" style="stroke: rgb(51, 51, 51); stroke-opacity: 1; stroke-width: 1px;"/><path class="ytick ticks crisp" d="M79,0h-5" transform="translate(0,202.39)" style="stroke: rgb(51, 51, 51); stroke-opacity: 1; stroke-width: 1px;"/><path class="ytick ticks crisp" d="M79,0h-5" transform="translate(0,144.79)" style="stroke: rgb(51, 51, 51); stroke-opacity: 1; stroke-width: 1px;"/><g class="ytick"><text text-anchor="end" x="71" y="5.25" transform="translate(0,375.2)" style="font-family: 'Open Sans', verdana, arial, sans-serif; font-size: 15px; fill: rgb(51, 51, 51); fill-opacity: 1; white-space: pre;">−0.4</text></g><g class="ytick"><text text-anchor="end" x="71" y="5.25" transform="translate(0,317.6)" style="font-family: 'Open Sans', verdana, arial, sans-serif; font-size: 15px; fill: rgb(51, 51, 51); fill-opacity: 1; white-space: pre;">−0.2</text></g><g class="ytick"><text text-anchor="end" x="71" y="5.25" transform="translate(0,259.99)" style="font-family: 'Open Sans', verdana, arial, sans-serif; font-size: 15px; fill: rgb(51, 51, 51); fill-opacity: 1; white-space: pre;">0</text></g><g class="ytick"><text text-anchor="end" x="71" y="5.25" transform="translate(0,202.39)" style="font-family: 'Open Sans', verdana, arial, sans-serif; font-size: 15px; fill: rgb(51, 51, 51); fill-opacity: 1; white-space: pre;">0.2</text></g><g class="ytick"><text text-anchor="end" x="71" y="5.25" transform="translate(0,144.79)" style="font-family: 'Open Sans', verdana, arial, sans-serif; font-size: 15px; fill: rgb(51, 51, 51); fill-opacity: 1; white-space: pre;">0.4</text></g></g><g class="overaxes-above"/></g></g><g class="polarlayer"/><g class="ternarylayer"/><g class="geolayer"/><g class="pielayer"/><g class="sunburstlayer"/><g class="glimages"/><defs id="topdefs-33a98f"><g class="clips"/><clipPath id="legend33a98f"><rect width="153" height="33" x="0" y="0"/></clipPath></defs><g class="layer-above"><g class="imagelayer"/><g class="shapelayer"/></g><g class="infolayer"><g class="legend" pointer-events="all" transform="translate(815.42, 100)"><rect class="bg" shape-rendering="crispEdges" width="153" height="33" x="0" y="0" style="stroke: rgb(68, 68, 68); stroke-opacity: 1; fill: rgb(255, 255, 255); fill-opacity: 1; stroke-width: 0px;"/><g class="scrollbox" transform="translate(0, 0)" clip-path="url('#legend33a98f')"><g class="groups" transform="translate(0, 0)"><g class="traces" transform="translate(0, 16.25)" style="opacity: 1;"><text class="legendtext user-select-none" text-anchor="start" x="40" y="5.85" style="font-family: 'Open Sans', verdana, arial, sans-serif; font-size: 15px; fill: rgb(51, 51, 51); fill-opacity: 1; white-space: pre;">class=gun_shot</text><g class="layers" style="opacity: 1;"><g class="legendfill"/><g class="legendlines"><path class="js-line" d="M5,0h30" style="fill: none; stroke: rgb(227, 119, 194); stroke-opacity: 1; stroke-width: 2px;"/></g><g class="legendsymbols"><g class="legendpoints"/></g></g><rect class="legendtoggle" pointer-events="all" x="0" y="-11.25" width="193" height="22.5" style="cursor: pointer; fill: rgb(0, 0, 0); fill-opacity: 0;"/></g></g></g><rect class="scrollbar" rx="20" ry="3" width="0" height="0" x="0" y="0" style="fill: rgb(128, 139, 164); fill-opacity: 1;"/></g><g class="g-gtitle"><text class="gtitle" x="490" y="50" text-anchor="middle" dy="0em" style="font-family: 'Open Sans', verdana, arial, sans-serif; font-size: 21px; fill: rgb(51, 51, 51); opacity: 1; font-weight: normal; white-space: pre;">time vs amplitude</text></g><g class="g-xtitle"><text class="xtitle" x="440.5" y="484" text-anchor="middle" style="font-family: 'Open Sans', verdana, arial, sans-serif; font-size: 18px; fill: rgb(51, 51, 51); opacity: 1; font-weight: normal; white-space: pre;">time(ms)</text></g><g class="g-ytitle"><text class="ytitle" transform="rotate(-90,34,260)" x="34" y="260" text-anchor="middle" style="font-family: 'Open Sans', verdana, arial, sans-serif; font-size: 18px; fill: rgb(51, 51, 51); opacity: 1; font-weight: normal; white-space: pre;">amplitude</text></g></g></svg>