<svg class="main-svg" xmlns="http://www.w3.org/2000/svg" xmlns:xlink="http://www.w3.org/1999/xlink" width="980" height="500" viewBox="0 0 980 500"><rect x="0" y="0" width="980" height="500" style="fill: rgb(255, 255, 255); fill-opacity: 1;"/><defs id="defs-1abe53"><g class="clips"><clipPath id="clip1abe53xyplot" class="plotclip"><rect width="685" height="320"/></clipPath><clipPath class="axesclip" id="clip1abe53x"><rect x="80" y="0" width="685" height="500"/></clipPath><clipPath class="axesclip" id="clip1abe53y"><rect x="0" y="100" width="980" height="320"/></clipPath><clipPath class="axesclip" id="clip1abe53xy"><rect x="80" y="100" width="685" height="320"/></clipPath></g><g class="gradients"/></defs><g class="bglayer"><rect class="bg" x="80" y="100" width="685" height="320" style="fill: rgb(237, 237, 237); fill-opacity: 1; stroke-width: 0;"/></g><g class="layer-below"><g class="imagelayer"/><g class="shapelayer"/></g><g class="cartesianlayer"><g class="subplot xy"><g class="layer-subplot"><g class="shapelayer"/><g class="imagelayer"/></g><g class="gridlayer"><g class="x"><path class="xgrid crisp" transform="translate(165.63,0)" d="M0,100v320" style="stroke: rgb(255, 255, 255); stroke-opacity: 1; stroke-width: 1px;"/><path class="xgrid crisp" transform="translate(251.25,0)" d="M0,100v320" style="stroke: rgb(255, 255, 255); stroke-opacity: 1; stroke-width: 1px;"/><path class="xgrid crisp" transform="translate(336.88,0)" d="M0,100v320" style="stroke: rgb(255, 255, 255); stroke-opacity: 1; stroke-width: 1px;"/><path class="xgrid crisp" transform="translate(422.51,0)" d="M0,100v320" style="stroke: rgb(255, 255, 255); stroke-opacity: 1; stroke-width: 1px;"/><path class="xgrid crisp" transform="translate(508.13,0)" d="M0,100v320" style="stroke: rgb(255, 255, 255); stroke-opacity: 1; stroke-width: 1px;"/><path class="xgrid crisp" transform="translate(593.76,0)" d="M0,100v320" style="stroke: rgb(255, 255, 255); stroke-opacity: 1; stroke-width: 1px;"/><path class="xgrid crisp" transform="translate(679.38,0)" d="M0,100v320" style="stroke: rgb(255, 255, 255); stroke-opacity: 1; stroke-width: 1px;"/></g><g class="y"><path class="ygrid crisp" transform="translate(0,375.2)" d="M80,0h685" style="stroke: rgb(255, 255, 255); stroke-opacity: 1; stroke-width: 1px;"/><path class="ygrid crisp" transform="translate(0,317.59000000000003)" d="M80,0h685" style="stroke: rgb(255, 255, 255); stroke-opacity: 1; stroke-width: 1px;"/><path class="ygrid crisp" transform="translate(0,202.37)" d="M80,0h685" style="stroke: rgb(255, 255, 255); stroke-opacity: 1; stroke-width: 1px;"/><path class="ygrid crisp" transform="translate(0,144.76)" d="M80,0h685" style="stroke: rgb(255, 255, 255); stroke-opacity: 1; stroke-width: 1px;"/></g></g><g class="zerolinelayer"><path class="xzl zl crisp" transform="translate(80,0)" d="M0,100v320" style="stroke: rgb(255, 255, 255); stroke-opacity: 1; stroke-width: 1px;"/><path class="yzl zl crisp" transform="translate(0,259.98)" d="M80,0h685" style="stroke: rgb(255, 255, 255); stroke-opacity: 1; stroke-width: 1px;"/></g><path class="xlines-below"/><path class="ylines-below"/><g class="overlines-below"/><g class="xaxislayer-below"/><g class="yaxislayer-below"/><g class="overaxes-below"/><g class="plot" transform="translate(80, 100)" clip-path="url('#clip1abe53xyplot')"><g class="scatterlayer mlayer"><g class="trace scatter trace59a8234f-3fb0-4836-8d58-c84081c4e585" style="stroke-miterlimit: 2; opacity: 1;"><g class="fills"/><g class="errorbars"/><g class="lines"><path class="js-line" d="M0,138.73L0.09,215.55L0.36,104.61L0.72,160.8L0.73,164.17L0.79,226.12L1.21,123.94L1.42,162.18L1.43,145.38L1.81,91.2L2.22,201.2L2.23,187.58L2.25,192.73L2.52,90.98L2.75,185.99L2.76,195.18L2.79,209.27L2.9,161.4L2.96,168.51L2.98,151.93L3.52,240.33L3.7,137.13L3.71,140.01L3.72,144.11L3.94,99.68L4.11,212.74L4.12,212.51L4.13,217.48L4.23,111.95L4.24,102.72L4.26,91.27L4.63,252.8L4.84,158.15L4.85,172.7L4.89,134.14L5.13,165.01L5.14,173.15L5.32,227.69L5.59,122.55L5.92,140.95L5.93,162.65L6.39,110.63L6.65,206.22L6.71,192.18L6.72,186.87L6.79,232.55L7.22,116.63L7.54,134.63L7.55,142.29L7.72,200.48L7.82,102.27L8.28,133.56L8.3,141.33L8.53,112.15L8.73,220.1L9.14,203.23L9.15,172.88L9.34,222.02L9.7,115.23L9.89,172.68L9.9,153.74L10.01,130.01L10.09,190.8L10.65,151.32L10.66,152.88L11.17,123.94L11.43,244.14L11.46,210.65L11.47,209.76L11.93,137.04L12.19,195.77L12.2,201.58L12.58,252.32L12.78,118.68L13,160.55L13.02,173.51L13.03,172.87L13.12,213.79L13.13,238.03L13.14,245.25L13.3,133.15L13.82,202.03L13.83,190.74L13.84,197.06L14.09,131.37L14.56,179.41L14.57,176.4L14.85,105.41L15.08,199.19L15.36,134.18L15.37,150.89L16.05,132.28L16.16,236.52L16.17,235.14L16.2,259.36L16.33,136.8L16.88,178.22L16.89,164.43L17.32,211.06L17.67,101.53L17.68,109.09L17.69,107.68L18.52,229.02L18.57,211.05L18.58,200.51L18.9,125.38L19.22,226.76L19.32,186.54L19.33,182.95L19.63,74.07L19.82,193.03L20.13,129.61L20.14,152.22L20.21,133.03L20.42,238.15L20.69,174.57L20.7,150.87L21.13,255.8L21.47,92.94L21.48,106.92L21.49,111.5L22.02,94.1L22.31,210.37L22.35,191.63L22.36,180.9L22.46,212.1L22.56,150L22.57,139.24L23.04,212.77L23.31,117.68L23.33,133.5L23.34,139.18L23.73,217.36L24.02,109.49L24.03,104.46L24.04,101.2L24.21,211.71L24.46,208.11L24.47,208.26L24.89,216.81L25.04,132.41L25.28,165.39L25.29,180.36L25.42,115.83L26.06,151.89L26.07,152.64L26.34,125.67L26.58,216.77L26.87,198.52L26.88,195.31L26.95,204.29L27.59,109.89L27.66,155.29L27.67,153.99L28.17,178.58L28.28,129.03L28.36,145.44L28.37,186.99L28.62,132.02L28.95,208.6L29.13,167.46L29.15,165.19L29.27,211.22L29.69,129.59L29.7,126.44L29.71,114.98L30.37,178.11L30.4,170.23L30.41,181.72L30.84,152.31L31.1,217.37L31.18,206.81L31.19,201.9L31.2,204.3L31.54,125.68L31.75,163.19L31.76,155.83L32.06,76.68L32.32,209.51L32.53,171.02L32.54,167.05L32.72,117.92L33.08,209.73L33.26,173.16L33.27,163.7L33.58,219.19L33.82,146.41L33.97,151.61L33.98,145.02L34.04,126.1L34.28,197.89L34.64,168.27L34.65,177.9L34.86,128.24L35.43,224.88L35.44,215.93L35.78,118.43L36.24,153.87L36.25,158.13L36.34,143.64L36.59,231.42L37.02,177.42L37.03,160.35L37.14,201.45L37.65,127.4L37.72,195.14L37.73,219.75L38.34,129.07L38.49,144.4L38.5,173.85L38.71,108.92L39.12,214.86L39.24,161.78L39.25,180.58L39.45,101.53L39.69,203.1L39.87,178.5L39.88,153.52L40.05,137.57L40.42,230.58L40.63,154.8L40.64,160.1L41.09,208.22L41.21,140.62L41.4,171.53L41.41,149.18L41.58,186.72L41.67,93.22L42.01,158.11L42.02,138.12L42.39,180.25L42.56,117.78L42.77,137.67L42.78,133.69L43.01,218.69L43.38,118.37L43.56,166.35L43.57,157.41L43.59,138.6L44.01,197.2L44.29,181.51L44.3,182.64L44.37,139.97L44.5,206.92L44.51,216.67L44.93,140.59L45.24,172.45L45.25,182.92L45.27,203.17L45.82,106.19L45.99,171.29L46,162.31L46.2,182.17L46.36,127.67L46.37,121.45L46.39,114.18L46.72,213.76L46.73,219.65L46.76,221.68L46.78,196.28L46.79,185.42L47.08,85.57L47.35,153.17L47.36,177.27L47.7,129.07L47.84,196.87L48.08,168.16L48.09,176.27L48.48,252.65L48.75,140.13L48.76,143.86L48.77,136.23L48.97,214.66L49.41,102.53L49.47,124.28L49.48,123.61L49.7,186.44L50.11,112.33L50.25,180.78L50.26,175.89L50.71,117.76L50.94,236.2L51.02,187.72L51.03,174.97L51.09,219.63L51.34,116.19L51.69,163.53L51.7,163.62L51.88,113.96L52.32,199.79L52.39,151.46L52.4,140.43L52.41,128.22L52.83,237.25L53.12,163.81L53.13,172.44L53.58,202.28L53.88,97.53L53.91,123.05L53.92,110.73L54.17,188.79L54.48,101.55L54.6,161L54.61,170.43L54.8,154.59L55.28,208.69L55.38,194.24L55.39,187.9L55.55,197.81L55.88,123.35L56.13,185.5L56.14,190.04L56.26,220.16L56.61,119.05L56.83,152.48L56.85,124.92L57.48,191.08L57.64,153.78L57.65,152.19L57.75,174.36L58.22,119.61L58.4,161.9L58.41,155.5L58.6,225.04L58.92,119.58L59.21,217.1L59.22,207.48L59.68,119.48L59.91,216.37L60.02,160.33L60.03,165.35L60.18,124.66L60.47,208.62L60.59,193.02L60.6,198.08L60.83,137.83L61.15,218.85L61.31,171.45L61.32,168.7L61.44,126.15L61.8,181.81L61.89,159.51L61.9,151.47L61.95,128.63L62.53,196.47L62.62,168.62L62.64,173.67L62.98,213.65L63.07,155.66L63.25,162.6L63.26,155.4L63.59,197.01L63.9,116.57L63.97,158.56L63.98,160.91L64.12,198.34L64.38,166.33L64.39,147.97L64.48,109.62L64.79,212.77L65.14,142.44L65.15,136.68L65.19,112.21L65.62,173.2L65.86,146.36L65.87,147.26L65.89,143.09L66.18,203L66.32,178.72L66.33,189.56L66.35,191.3L66.36,175.54L66.37,178.14L66.38,168.11L66.59,132.25L67.07,229.87L67.15,190.13L67.16,177.74L67.46,120.52L67.79,228.69L67.92,200.22L67.93,184.11L67.97,206.3L68.22,128.15L68.66,186.1L68.67,164.01L68.75,121.94L68.98,194.5L69.44,129.84L69.45,157.98L69.52,145.41L69.81,197.09L70.19,162L70.2,162.31L70.37,235.46L70.7,173.55L70.71,162.8L70.74,156.01L70.85,201.13L71.16,163L71.17,155.37L71.31,112.39L71.59,186.1L71.94,171.08L71.95,166.2L72.11,124.79L72.27,197.63L72.58,197.18L72.59,197.17L72.88,157.8L73.12,206.34L73.2,166.76L73.21,154.72L73.22,155.17L73.26,129.67L73.34,132.93L73.35,124.78L73.45,92.56L73.77,210.27L73.86,189.41L73.87,193.52L73.99,106.05L74.45,197.74L74.62,177.17L74.63,188.57L74.94,235.76L75.12,146.92L75.4,172.19L75.42,164.81L75.74,127.11L76.07,213.59L76.08,215.48L76.1,229.22L76.24,105.05L76.83,214.64L76.84,211.7L77.02,119.3L77.26,167.99L77.27,179.61L77.73,213.45L77.83,122.63L78.02,170.07L78.03,171.34L78.12,130.67L78.34,201.97L78.77,189.41L78.78,196.34L79.05,201.86L79.44,109.64L79.58,151.99L79.59,160.88L80.12,117.86L80.22,204.4L80.34,167.03L80.35,171.37L80.48,214.34L80.71,149.84L81.12,188.98L81.13,174.87L81.45,112.63L81.6,186.13L81.89,155.68L81.9,158.32L82.24,120.09L82.53,197.75L82.62,197.02L82.63,193.15L82.67,185.59L82.74,206.18L82.77,190.11L82.78,178.15L82.84,203.2L83.06,145.25L83.07,139.6L83.08,131.39L83.29,200.86L83.79,150.75L83.8,158.82L84.11,79.58L84.58,257.59L84.62,232.73L84.63,219.34L84.81,118.55L85.23,248.59L85.47,140.83L85.48,168.55L85.66,212.73L86.26,96.78L86.28,104.04L86.29,135.33L86.63,121.94L86.75,203.12L87,156.73L87.01,170.13L87.22,123.21L87.6,209.48L87.76,165.54L87.77,173.24L88.36,201.55L88.45,93.46L88.55,139.31L88.56,163.75L88.94,216.6L89.14,122.02L89.31,159.01L89.32,160.09L89.34,151.68L89.68,212.03L89.73,180.53L89.74,158.81L89.99,212.82L90.21,140.72L90.47,170.51L90.49,172.15L90.57,123.64L91.11,205.06L91.23,160.07L91.25,152.03L91.45,112.05L91.91,202.56L91.92,202.03L92.13,109.59L92.75,124.74L92.77,123.17L92.8,117.71L93.23,198.6L93.29,191.82L93.3,211.79L93.73,132.7L94.08,165.06L94.09,176.73L94.23,159.46L94.46,229.29L94.62,177.29L94.63,168.86L94.86,100.15L95.05,219.9L95.25,168.59L95.26,131.3L95.33,102.97L95.7,236.23L96.01,134.19L96.02,136.91L96.4,226.71L96.73,117.19L96.76,130.84L96.77,156.1L97.2,126.1L97.5,217.79L97.53,199.21L97.54,195.21L97.55,195.38L97.56,176.15L97.76,124.02L98.14,220.23L98.28,163.5L98.29,159.34L98.44,122.95L98.58,182.76L98.86,172.96L98.87,180.53L99.09,124.08L99.38,208.59L99.55,157.77L99.56,167.92L99.8,200.09L100.24,135.92L100.34,188.28L100.35,187L100.49,210.33L100.81,130.71L101.12,171.56L101.14,177.65L101.38,120.95L101.8,192.57L101.88,173.62L101.9,172.77L102.3,216.11L102.7,147.37L102.72,154.26L102.73,154.85L102.93,204.89L103.35,97.59L103.51,140.96L103.52,148.4L103.59,119.45L104.2,181.29L104.21,189.21L104.49,136.77L104.98,216.85L104.99,198.15L105,227.04L105.27,134.96L105.72,140.63L105.73,143.35L105.97,119.68L106.17,176.44L106.5,162.71L106.51,157.14L107.2,215.23L107.31,203.12L107.32,177.77L107.44,196.73L107.85,141.9L108.05,149.18L108.06,155.05L108.45,170.16L108.56,112.64L108.66,154.38L108.67,163.29L108.78,147.2L108.97,202.68L108.98,211.03L109.1,226.1L109.64,143.36L109.85,152.83L109.86,160.91L110.14,186.71L110.44,131.19L110.62,151.82L110.63,150.03L110.88,128.99L111.16,193.33L111.3,185.07L111.31,184.58L111.42,209.27L111.59,124.83L112,163.82L112.01,162.59L112.28,102.23L112.53,205.28L112.78,132.01L112.79,143.97L113.12,221.88L113.48,131.99L113.54,148.28L113.55,153.8L113.7,224.52L114.15,116.04L114.29,149.38L114.3,140.59L114.68,130.74L114.89,218.93L115.08,193.11L115.09,175.23L115.27,108.78L115.57,229.98L115.83,151.41L115.84,137.47L116.07,196.47L116.47,102.9L116.57,151.74L116.58,164.3L116.64,120.25L116.82,198.59L117.32,181.61L117.33,183L117.39,223.35L117.79,138.21L117.96,166.26L117.97,168.74L118.3,99.77L118.66,200.03L118.74,192.79L118.75,187.41L118.96,129.81L119.15,202.21L119.43,163.57L119.44,159.51L119.49,173.93L119.63,135.44L119.68,161.31L119.69,182.94L119.86,198.87L120.27,142.49L120.45,178.41L120.47,182.03L120.93,143.12L121.06,194.51L121.29,150.8L121.3,154.18L121.81,199.84L121.92,157.49L121.93,155.85L122.23,148.41L122.54,192.12L122.55,186.53L122.56,190.87L122.82,103.33L123.22,217.74L123.28,204.53L123.29,227.58L123.63,102.73L124.04,195.14L124.05,209.56L124.8,142.01L124.82,149.53L124.83,145.66L125.05,130.84L125.53,195.26L125.54,175.66L125.55,193.18L125.68,205.43L125.86,116.59L126.16,181.93L126.17,192.03L126.37,218.87L126.61,115.95L126.92,193.76L126.93,190.71L127.27,118.63L127.52,221.12L127.7,170.59L127.71,173.19L128.06,210.09L128.36,143.78L128.39,151.03L128.4,145.84L128.64,217.63L128.96,112.69L129.12,144.07L129.14,148.1L129.33,223.56L129.58,124.69L129.82,162.66L129.83,176.1L130.23,116.02L130.44,201.53L130.51,195.49L130.52,198.48L130.57,204.23L130.89,147.52L131.18,180.77L131.19,184.04L131.39,111.03L131.79,199.65L131.89,170.24L131.9,170.44L132.25,139.95L132.31,193.47L132.62,188.62L132.64,191.98L132.65,205.95L133.17,145.09L133.38,182.4L133.4,175.23L133.41,175.03L133.42,187.87L133.43,180.35L133.44,164.3L133.53,97.65L133.78,193.19L134.24,114.04L134.25,130.93L134.35,160.1L134.42,158.39L134.43,167.71L134.72,212.56L134.82,164.91L134.83,150.46L135.21,219.53L135.5,132.75L135.51,136.96L135.53,125.71L135.87,192.19L136.03,83.21L136.11,181.38L136.12,187.56L136.14,194.13L136.22,144.93L136.86,189.59L136.87,183.79L137.41,148.51L137.53,219.43L137.62,186.89L137.63,178.67L137.95,98.91L138.3,214.07L138.36,189.53L138.37,189.38L138.55,109.87L138.93,199.01L139.12,175.47L139.13,179.91L139.41,225.17L139.84,124L139.92,141.72L139.93,145.09L140.43,97.51L140.75,220.14L140.78,207.87L140.79,194.74L141.04,136.37L141.33,234.99L141.56,157.76L141.57,160.69L142,211.59L142.26,120.18L142.27,123.34L142.28,123.64L142.29,108.49L142.67,214.33L143.01,142.57L143.02,165.88L143.27,217.04L143.78,142.08L143.79,159.76L144.13,101.07L144.52,185.94L144.53,198.71L144.59,218.74L144.77,119.84L145.28,202.61L145.29,199.68L145.8,200.54L146.01,137.14L146.07,145.6L146.08,159.23L146.24,86.71L146.52,216.29L146.83,151.63L146.84,156.35L146.92,133.47L147.2,205.82L147.61,184.85L147.62,172.26L147.67,146.19L148.02,186.79L148.14,173.65L148.15,184.57L148.39,117.71L148.66,194.97L148.79,174.92L148.8,187.66L148.88,240.74L149.14,119.67L149.57,221.81L149.58,214.63L149.9,114.63L150.25,228.18L150.38,124.11L150.39,119.93L150.48,53.58L150.82,244.29L151.11,140.56L151.12,145.42L151.21,111.31L151.26,156.64L151.27,181.82L151.47,243.58L151.86,124.26L152.01,191.48L152.02,160.97L152.18,233.75L152.67,113.35L152.77,162.62L152.78,150.71L153.2,231.03L153.43,137.33L153.45,161.58L153.46,176.43L153.49,199.77L154.12,116.13L154.21,184.43L154.22,175.86L154.57,255.61L154.75,36.93L154.99,162.65L155.01,175.06L155.08,237.35L155.52,83.62L155.7,177.22L155.71,187.97L156.08,126.85L156.43,224.78L156.44,221.62L156.89,88.95L157.14,189.34L157.15,198.17L157.57,198.76L157.79,112.46L158,127.46L158.01,138.85L158.02,134.94L158.29,217.75L158.63,182.41L158.64,194L158.69,258.62L158.9,85.48L159.39,206.45L159.4,192.06L159.6,84.79L160,214.56L160.17,150.74L160.19,148.99L160.36,120.79L160.6,223.32L160.96,165.55L160.97,162.7L161.32,222.72L161.41,127.7L161.73,139.79L161.74,162.86L162.2,119.12L162.34,227.1L162.48,174.6L162.49,171.7L162.91,272.05L163.03,119.64L163.04,91.55L163.06,79.3L163.11,141.11L163.12,138.59L163.13,152.28L163.5,215.15L163.79,95.13L163.86,141.18L163.87,132.15L164.16,217.4L164.39,119.18L164.65,175.76L164.66,177.85L164.8,237.51L165.13,147.33L165.14,130.27L165.62,106.03L166.14,237.41L166.22,198.78L166.23,179.8L166.33,138.35L166.54,224.83L166.96,169.48L166.97,181.2L167.49,211.1L167.61,58.27L167.62,52.19L167.74,222.74L168.39,175.13L168.41,164.09L168.5,223.52L168.88,158.86L169,204.88L169.02,210.55L169.1,220.98L169.49,74.82L169.5,65.85L169.52,61.32L170.43,209.98L170.45,189.62L170.46,169.17L170.51,131.29L170.99,223.63L171.21,167.91L171.22,157.31L171.49,73.09L171.7,198.53L171.96,160.5L171.97,183.36L172.11,119.51L172.29,242.3L172.71,170.43L172.72,175.11L172.94,197.41L173.4,91.05L173.48,129.48L173.49,130.76L173.75,87.23L174.19,237.12L174.32,176.85L174.34,167.13L174.93,234.63L175.1,115.97L175.12,131.44L175.13,148.28L175.47,216.4L175.71,32.79L175.84,109.46L175.86,110.57L175.87,107.79L176.07,242.13L176.12,239.73L176.13,258.81L176.14,265.48L176.4,123.44L176.84,236.91L176.85,223.1L177.58,120.81L177.65,133.52L177.66,143.52L178.04,117.44L178.49,242.99L178.52,220.99L178.53,205.85L179.02,249.58L179.33,101.28L179.34,108.1L179.36,117.53L179.77,217.39L180.02,90.39L180.17,195.41L180.18,186.83L180.41,227.89L180.64,77.47L180.78,142L180.79,115.65L181.11,231.49L181.32,109.54L181.55,148.22L181.56,135.28L181.88,190.87L182.33,167.64L182.34,167.95L182.63,202.53L182.91,118.04L183.11,182.51L183.12,183.14L183.36,205.41L183.61,59.79L183.88,168.05L183.89,166.49L184.43,123.57L184.69,243.56L184.7,238.1L184.71,234.99L185.06,124.53L185.52,182.39L185.53,192.72L185.93,228.58L186.32,104.23L186.33,108.76L186.4,99.9L186.8,201.69L186.97,170.03L186.98,177.37L187.47,112.97L187.65,193.55L187.71,176.81L187.73,172.49L187.86,228.38L188.52,118.07L188.55,151.55L188.56,167.1L188.93,220.2L189.12,127.05L189.13,121.33L189.2,82.68L189.58,211.55L189.93,168.58L189.94,165.11L190.2,236.89L190.54,105.89L190.69,159.39L190.7,164.62L190.83,219.36L191.21,95.43L191.48,150.62L191.49,157.1L191.6,210.2L191.8,127.39L191.97,186.23L191.98,191.52L192.19,224.85L192.5,120.95L192.71,172.24L192.72,170.25L192.99,199.19L193.15,130.72L193.45,151.27L193.46,153.23L193.61,137.98L193.72,212.74L194.21,169.38L194.22,163.87L194.56,189.77L194.76,118.66L194.89,134.43L194.9,125.79L195.05,225.7L195.19,107.04L195.58,173.99L195.59,192.06L195.62,227.41L195.92,142.9L196.35,215.83L196.36,213.67L196.84,120.49L197.19,157.46L197.2,164.72L197.43,123.12L197.72,194.87L197.97,145.93L197.98,160.23L198.09,150.12L198.33,206.91L198.76,187.8L198.77,184.65L198.9,211.57L199,121.69L199.01,112.37L199.07,86.76L199.45,200.87L199.68,172.8L199.69,177.9L199.8,114.2L200.18,223.6L200.43,173.58L200.44,180.63L200.72,202.37L200.99,53.35L201.2,155.71L201.21,163.84L201.41,220.46L201.76,128.26L201.96,171.26L201.97,164.76L202.59,240.57L202.69,141.13L202.73,182.44L202.74,179.36L203.02,108.39L203.38,169.31L203.39,172.31L203.44,193.69L203.59,155.61L203.6,143.13L203.61,142.9L203.63,151.91L203.64,160.22L203.88,115.53L204.38,225.19L204.42,195.88L204.43,186.71L204.87,219.58L205.17,99.74L205.25,108.65L205.26,116.93L205.31,116.2L206.09,215.47L206.33,205.34L206.34,202.05L206.68,211.65L206.98,137.05L206.99,143.71L207,144.89L207.3,125.85L207.62,180.38L207.75,157.21L207.76,144.97L208.03,141L208.19,212.44L208.53,170.23L208.54,162.89L208.99,208.24L209.22,97.23L209.35,101.62L209.36,127.83L209.46,92.95L209.84,219.68L210.07,171.23L210.08,183.58L210.47,211.61L210.74,141.95L210.76,166.46L210.77,184.65L211.08,206.46L211.57,104.02L211.58,104.9L211.63,94.19L212.31,196.81L212.48,188.73L212.49,169.61L212.55,131.57L212.96,190L213.19,176.27L213.2,180.89L213.37,304L213.68,31.45L213.96,200.04L213.97,193.18L214.02,245.35L214.43,116.05L214.71,183.84L214.72,189.9L214.9,125.19L215.22,226.24L215.47,194.31L215.48,183.4L215.6,107.72L215.94,209.64L215.95,212.61L216.47,224.89L216.8,100L216.91,147.94L216.92,151.81L217.02,125.34L217.19,211.88L217.52,165.27L217.53,172.44L217.76,110.14L218.26,255.47L218.3,212.52L218.32,190.67L218.38,93.15L218.91,215.6L219.07,133.95L219.09,151.39L219.52,228.51L219.64,114.8L219.83,159.23L219.85,162.18L220.22,249.4L220.51,127.24L220.52,140.06L220.53,123.85L220.92,227.84L221.29,161.63L221.3,143.46L221.39,227.69L222,127.42L222.06,180.51L222.07,163.47L222.33,256.59L222.45,113.58L222.84,186.81L222.85,188.74L223.09,117.51L223.46,203.12L223.58,178.46L223.59,203.74L223.62,179.19L223.63,164.65L224.09,179.44L224.36,118.7L224.41,140.34L224.42,145.59L224.68,271.55L224.8,25.66L225.04,184.57L225.05,185.21L225.27,229L225.54,133.47L225.79,175.55L225.8,186.49L225.97,239.25L226.28,131.98L226.52,163.44L226.54,163.73L226.69,99.69L226.98,215.45L227.26,154.6L227.27,144.65L227.43,131L227.67,236.6L227.95,165.55L227.96,175.89L228.3,242.8L228.58,116.41L228.7,195.26L228.71,170.48L228.92,207.09L229.23,107.3L229.38,178.07L229.39,196.62L229.69,214.26L229.95,129.6L230.14,191.16L230.15,173.59L230.2,210.3L230.55,97.33L230.89,165.28L230.9,156.74L231.13,215.5L231.3,124.72L231.66,181.89L231.67,189.09L231.8,250.18L232.2,142.58L232.4,177.93L232.41,166.35L232.71,89.26L232.99,209.55L233.17,192.04L233.18,182.31L233.39,125.87L233.45,198.68L233.93,175.86L233.94,173.05L234.2,200.66L234.5,152.96L234.66,200.59L234.67,220.46L234.68,234.33L235,132.56L235.38,172.73L235.39,171.29L235.52,124.87L235.84,209.27L235.85,229.71L235.86,238.36L236.2,121.34L236.49,139.05L236.5,143.1L236.72,120.41L237.25,278.17L237.3,214.87L237.31,212.38L237.4,16L237.94,227.67L238.05,171.72L238.06,162.36L238.61,227.76L238.74,93.74L238.75,80.8L239.21,253.39L239.51,99.14L239.52,90.39L239.71,86.24L239.9,227.87L240.32,197.03L240.33,172.67L240.52,222.24L241.1,88.84L241.12,98.86L241.13,107.65L241.21,194.25L241.37,119.36L241.38,116.26L241.4,98.04L241.82,195.29L242.1,146.07L242.11,158.47L242.35,129.57L242.45,219.73L242.87,174.09L242.88,183.37L242.95,190.62L243.02,112.14L243.07,176.16L243.08,189.59L243.14,230.78L243.29,113.9L243.3,87.61L243.31,87.26L243.32,98.51L243.33,119.26L243.89,199.41L243.99,110.57L244.11,180.48L244.12,169.91L244.22,134.81L244.55,223.71L244.75,212.46L244.76,216.31L244.78,222.49L245.2,93.12L245.34,124.67L245.35,126.06L245.38,134.72L245.39,127.59L245.41,116.05L245.42,115.33L245.47,160.01L245.48,159.5L245.49,167.13L245.74,208.48L245.94,103.03L246.22,184.98L246.23,172.44L246.33,103.93L246.73,218.29L246.98,172.13L246.99,170.4L247.29,102.8L247.4,193.92L247.74,158.44L247.75,164.62L247.9,223.12L248.25,107.39L248.49,179.57L248.5,164.78L248.79,233.13L248.97,123.26L249.24,166.88L249.25,155.47L249.63,96.18L249.87,238.67L250.02,204.13L250.03,186.87L250.16,116.14L250.51,214.67L250.77,200.26L250.78,191.64L250.97,223.03L251.36,128.2L251.44,146.26L251.45,139.57L251.92,224.73L252.05,75.69L252.19,129.43L252.2,144L252.31,180.42L252.32,190.15L252.41,239.42L252.81,135.7L253,196.23L253.02,199.22L253.04,219.93L253.39,90.52L253.71,155.82L253.72,147.21L254.11,77.61L254.39,206.88L254.4,199.04L254.41,205.67L254.46,224.62L255.06,156.79L255.08,157.19L255.09,151.06L255.38,135.64L255.44,206.15L255.64,146.12L255.65,134.79L255.92,212.85L256.02,95.51L256.3,154.98L256.31,162.59L256.32,161.73L256.45,214.44L256.46,226.73L256.74,115.74L257.15,242.09L257.17,222.09L257.18,203.14L257.66,118.65L257.82,219.97L257.96,132.11L257.97,143.29L258.15,98.24L258.56,235.05L258.62,180.52L258.63,202L258.76,217.88L258.86,116.22L259.37,189.73L259.38,210.7L259.57,115.77L259.85,219.39L259.98,153.35L259.99,145.4L260.38,221.13L260.49,96.35L260.66,184.62L260.67,197.83L260.69,206.7L260.96,128.81L261.15,147.6L261.16,135.43L261.21,97.42L261.31,219.28L261.85,158.78L261.86,162.7L262.02,194.45L262.41,105.09L262.59,169.64L262.61,179.68L262.72,230.71L263.16,100.9L263.35,184.23L263.37,180.74L263.46,215.54L263.73,135.34L264.08,166.69L264.09,153.64L264.47,106.75L264.64,201.79L264.72,201.55L264.74,200.14L265.15,112.53L265.54,145.82L265.55,165.8L265.73,139.79L265.97,220.01L266.3,179.09L266.31,182.35L266.53,237.12L267.05,112.67L267.07,118.47L267.08,136.76L267.09,136.93L267.1,164.15L267.39,129.61L267.6,236.86L267.7,152.42L267.71,133.9L268.03,90.86L268.27,228.54L268.47,169.64L268.48,160.97L268.73,85.86L268.94,241.59L269.19,162.94L269.2,141.64L269.29,79.32L269.57,230.98L269.96,152.62L269.97,149.89L270.02,118.2L270.23,223.52L270.24,227.44L270.37,122.7L270.78,165.49L270.79,172.79L271.04,134.64L271.39,226.29L271.56,195.59L271.57,188.41L271.8,127.8L272.08,202.48L272.09,216.07L272.13,234.34L272.18,208.74L272.2,204.69L272.22,209.26L272.23,204.79L272.24,192.35L272.7,197.13L273.02,105.8L273.06,124.9L273.07,130.1L273.61,106.26L273.83,210.35L273.93,194.9L273.94,194.78L274.22,145.72L274.54,226.15L274.58,216.18L274.59,219.68L274.88,78.56L275.36,184.51L275.37,186.7L275.53,134.01L276.01,211.33L276.02,195.42L276.03,213.25L276.58,223.2L276.88,98.96L276.89,119.91L277.05,162.4L277.16,109.68L277.44,136.69L277.45,149.24L277.54,221.98L277.8,107.32L278.22,187.46L278.23,167.74L278.37,245.04L278.75,155.78L278.95,192.52L278.96,191.68L279.32,103.04L279.63,217.42L279.73,137.64L279.74,137.23L279.91,109.06L280.16,228.99L280.27,196.72L280.28,204.89L280.58,215.77L281.03,137.19L281.12,143.72L281.13,148.16L281.37,189.34L281.49,125.27L281.87,144.65L281.88,154.13L281.96,138.55L282.49,218.14L282.68,200.01L282.7,205.55L283.34,128.27L283.48,164.77L283.49,158.56L283.66,110.78L283.93,199.72L284.23,154.8L284.24,158.7L284.56,208.81L284.9,112.21L285.02,192.88L285.03,195.7L285.16,229.13L285.26,162.62L285.4,170.47L285.41,163.29L285.45,173.64L285.74,102.63L285.75,65.28L286.13,248.83L286.55,187.27L286.56,185.72L286.62,213.17L287.06,101.7L287.3,178.66L287.31,178.88L287.4,211.09L287.67,75.63L287.98,203.33L287.99,209.91L288.05,230.01L288.39,127.69L288.4,136.23L288.41,129.5L288.52,120.08L288.57,155.02L288.58,166.33L288.68,213.86L288.99,146.27L289,144.74L289.34,200L289.61,109.79L289.67,111.69L289.68,104.46L289.99,92.19L290.25,248.14L290.47,152.41L290.48,137.18L290.52,103.74L291.08,240.04L291.16,200.15L291.17,199.37L291.3,119.33L291.53,206.37L291.79,158.44L291.8,152.87L291.92,104.54L292.36,232.48L292.54,156.48L292.55,154.53L292.64,85.97L292.83,224.39L293.17,160.32L293.18,171.24L293.32,111.47L293.51,196.94L293.71,116.81L293.72,99.08L293.79,85.95L294.15,199.13L294.31,150.1L294.32,152.1L294.91,209.92L295.05,173.35L295.06,165.37L295.2,224.14L295.7,129.7L295.82,195.36L295.83,210.74L295.84,214.25L296.18,129.71L296.41,156.84L296.42,148.2L296.52,188.87L296.64,125.61L297.2,168.38L297.21,164.08L297.64,113.92L297.82,209.16L297.94,133.78L297.95,144.28L298.07,104.91L298.45,199.89L298.71,172.68L298.72,162.37L298.91,116.37L299.17,209.84L299.5,145.98L299.51,153.77L299.52,153.39L299.56,180.03L299.62,154.36L299.63,143.98L299.75,223.29L300.25,108.08L300.4,172.23L300.41,177.54L300.63,245.57L300.93,121.79L301.12,168.16L301.13,157.29L301.29,209.48L301.61,116.59L301.86,168.33L301.88,186.24L301.95,245.46L302.28,102.27L302.44,114.15L302.45,102.15L302.46,99.55L302.73,206.72L302.76,205.66L302.77,219.43L302.79,229.23L303.17,107.08L303.43,180.91L303.44,178.35L303.8,116.27L303.9,213.95L304.21,157.53L304.22,159.17L304.34,184.91L304.42,130.84L304.53,182.39L304.54,193.81L304.84,117.45L305.04,238.49L305.24,168.77L305.25,159.04L305.41,119.95L305.84,240.25L305.98,151.36L305.99,149.57L306.16,114.79L306.31,204.86L306.75,179.61L306.76,164.25L306.81,125.59L307,206.38L307.49,161.39L307.51,160.95L307.56,144.99L307.66,208.82L307.78,194.85L307.79,204.05L307.85,216.3L308.34,151.6L308.4,163.36L308.42,156.02L308.48,173.26L308.49,174.8L308.68,185.82L309,122.14L309.01,109.62L309.04,124.05L309.05,137.9L309.36,195.4L309.69,123.34L309.83,171.87L309.84,161.86L310.01,240.76L310.63,119.36L310.67,137.45L310.68,143.03L310.77,113.93L310.99,206.97L311.01,220.59L311.04,231.73L311.36,126.71L311.73,200.6L311.74,191.4L312.04,122.25L312.33,249.54L312.45,222.61L312.46,226.85L312.68,103.6L313.17,172.66L313.18,183.71L313.31,123.73L313.62,215.27L313.96,140.66L313.97,148.22L314.23,218.07L314.57,125.23L314.73,191.57L314.74,165.95L314.75,186.16L315.02,84.21L315.48,174.11L315.49,158.45L315.59,138.2L315.74,215.08L316.23,162.57L316.24,154.36L316.26,142.85L316.59,252.41L316.92,157.48L316.94,152.93L317.03,191.73L317.28,116.36L317.71,173.1L317.72,166.67L317.91,125.34L318.38,199.63L318.48,179.9L318.49,179.59L318.57,205.78L319.14,96.99L319.15,89.7L319.17,69.79L319.69,221.76L319.78,184.43L319.79,177.71L319.92,200.87L320,148.56L320.01,140.18L320.37,217.48L320.85,209.99L320.86,204.96L320.99,211.02L321.26,111.96L321.62,167.26L321.63,175.43L321.69,198.07L322.2,139.14L322.36,180.34L322.37,170.4L322.54,233.97L323.07,144.07L323.15,146.02L323.16,144.04L323.26,178.81L323.49,115.12L323.5,111.92L323.52,102.24L323.89,229.47L324.18,158.87L324.19,168.56L324.27,122.8L324.64,251.4L324.96,186.82L324.97,171.01L325.26,189.57L325.48,136.53L325.49,141.56L325.5,129.15L325.52,111.42L325.93,198.62L326.21,139.02L326.23,137.31L326.25,128.83L326.57,214.34L326.93,165.24L326.94,170.7L327.04,201.5L327.54,122.06L327.7,162.03L327.71,175.87L327.85,99.58L328.33,230.38L328.42,200.52L328.43,208.23L328.67,129.3L328.99,210.79L329.21,158.54L329.22,159.43L329.52,202.6L329.92,124.88L329.93,103.96L329.95,98.26L330.35,239.34L330.55,165.75L330.56,165.68L331.08,216.34L331.17,133.91L331.18,128.93L331.55,223.19L331.81,151.84L331.82,150.22L331.84,157.35L331.89,131.73L331.9,124.22L332.07,51.96L332.38,264.4L332.66,104.62L332.67,110.18L332.77,85.95L333.13,222.8L333.68,198.77L333.69,187.48L333.95,106.83L334.39,230.54L334.44,193.63L334.45,191.95L334.95,129.4L335.09,205.64L335.21,164.35L335.22,181.63L335.79,203.71L335.88,135.5L335.98,158.64L335.99,143.96L336.17,108.59L336.52,260.73L336.73,168.18L336.74,143.12L336.9,107.81L337.42,213.4L337.47,159.81L337.49,140.52L337.52,113.37L338.04,207.6L338.21,160.99L338.22,172.86L338.45,110.09L338.73,222.73L338.88,147.67L338.89,142.72L339.14,121.32L339.45,227.15L339.62,149.93L339.63,152.51L340.13,212.13L340.43,106.89L340.44,116.13L340.45,124.33L340.54,83.15L340.58,133.71L340.59,156.14L340.76,231.46L341.16,98.33L341.33,149.21L341.34,153.15L341.4,228.66L341.64,129.52L342.1,206.11L342.11,195.78L342.14,205.42L342.19,159.2L342.21,152.86L342.58,191.62L342.72,116.73L342.94,142.09L342.95,159.8L343.08,231.1L343.17,137.05L343.63,157.52L343.64,152.05L343.71,239.48L344.01,140.88L344.22,193.16L344.23,212.19L344.69,99.61L344.99,180.2L345,199.37L345.02,221.07L345.41,115.7L345.74,200.45L345.75,183.55L345.92,230.45L346.01,155.29L346.49,176.17L346.5,175.13L346.52,182.96L346.71,118.69L347.13,143.02L347.14,138.84L347.45,115.68L347.82,184.56L347.84,199.56L348.01,159.18L348.29,242.1L348.56,174.3L348.57,165.64L348.86,82.8L349.26,206.67L349.27,208.72L349.78,113.98L350.03,183.97L350.04,199.56L350.09,241.38L350.47,144.68L350.71,178.96L350.73,162.12L350.97,115.67L351.27,184.98L351.47,167.74L351.49,171.11L351.68,131.4L352.02,210.15L352.19,193.91L352.2,203.23L352.57,215.03L352.63,117.25L352.72,164.48L352.73,136.01L353.23,77.13L353.51,215.13L353.52,196.19L353.53,196.46L353.56,177.16L353.57,170.19L353.95,110.32L354.35,264.56L354.36,262.48L354.59,96.23L354.82,192.31L354.84,194.58L355.35,104.86L355.54,238.86L355.6,217.98L355.61,199.64L355.94,113.21L356.14,237.81L356.33,193.32L356.34,185.26L356.66,140.27L356.84,215.31L357,157.96L357.01,141.14L357.36,95.48L357.7,209L357.71,214.06L357.78,253.69L357.92,217.12L357.93,213.26L358.47,233.87L358.72,143.39L358.73,143.5L358.74,147.76L358.8,105.36L359.08,214.38L359.32,119.03L359.33,108.79L359.51,80.74L359.9,219.85L359.91,217.16L359.92,220.45L360.11,126.96L360.4,221.16L360.73,148.36L360.74,154.31L361.1,217.77L361.38,105.88L361.41,106.31L361.42,103.41L361.62,54.43L361.96,240.21L361.97,237.71L361.99,235.85L362.04,253.04L362.16,178.98L362.17,152.88L362.24,96.38L362.75,239.32L362.92,165.05L362.93,159.4L363.34,197.03L363.63,124.22L363.64,139.5L363.66,149.34L363.79,124.64L363.9,181.17L363.91,195.04L364.04,254.52L364.58,136.77L364.7,169.35L364.71,185.57L365.11,203.23L365.17,137.09L365.55,156.76L365.56,160L365.89,119.96L366.06,202.38L366.32,178.64L366.33,170.28L366.64,122.7L366.82,189.26L367.14,128.39L367.16,137.47L367.17,129.58L367.38,219.9L367.84,180.42L367.85,192.02L367.87,203.06L368.49,139.02L368.58,183.24L368.59,185.49L368.6,186.17L368.84,151.68L368.85,150.49L369.01,186.19L369.09,141.68L369.25,173.04L369.26,174.55L369.41,130.87L369.52,185.92L369.99,180.69L370,185.33L370.14,131.25L370.32,201.26L370.64,153.67L370.66,151.43L370.67,150.63L370.91,190.84L370.92,199.16L370.95,200.49L371.27,113.3L371.58,172.58L371.59,187.8L371.64,224.02L371.93,127.1L372.36,170.83L372.37,179.55L372.42,141.58L372.85,197.81L373.11,179.88L373.12,191.7L373.23,173.1L373.26,184.02L373.27,193.37L373.61,149.46L373.81,214.7L373.99,188.32L374.01,186.97L374.33,105.14L374.77,154.76L374.78,163.37L374.98,189.01L375.36,128.07L375.51,175.47L375.53,174.96L375.84,225.21L376.21,134.08L376.25,158.42L376.26,154L376.83,122.34L377.01,192.41L377.04,185.06L377.06,180.55L377.28,147.24L377.57,212.21L377.75,190.85L377.76,190.55L378.07,208.64L378.31,155.11L378.41,155.2L378.43,151.96L378.52,85.31L379.07,196.05L379.1,189.24L379.11,189.01L379.34,149.09L379.69,215.58L379.82,207.55L379.83,216.1L379.84,225.9L380.38,140.41L380.51,156.36L380.52,148.52L380.93,103.09L381.12,180.08L381.13,185.18L381.35,136.62L381.72,227.72L381.89,210.6L381.9,189.88L382.19,207.86L382.59,135.13L382.6,149.98L382.61,134.59L382.77,67.91L383.28,207.59L383.3,205.86L383.31,209.11L383.56,90.09L383.87,250.34L384.08,176.25L384.09,191.09L384.28,108.51L384.6,228.14L384.89,128.72L384.9,135.01L385,111.51L385.56,205.82L385.67,156.29L385.68,156.23L385.79,209.05L386.19,139.34L386.43,158.89L386.44,165.94L386.5,189.04L387.05,114.43L387.17,153.72L387.18,154.03L387.3,139.9L387.39,206.91L387.96,177.38L387.97,171.51L388.1,225.45L388.37,112.46L388.7,179.59L388.71,184.08L388.81,200.66L389.09,96.01L389.38,182.72L389.39,188.06L389.73,148.13L390.15,229.79L390.19,223.79L390.2,211.85L390.99,94.51L391.03,124.55L391.04,148.28L391.12,181.51L391.38,132.33L391.58,150.04L391.59,171.24L391.83,246.6L392.24,137.43L392.34,163.05L392.35,167.75L392.83,199.03L392.96,140.66L393.08,175.11L393.09,162.32L393.41,92.6L393.77,226.09L393.85,180.62L393.86,154.38L394.02,135.98L394.37,227.66L394.61,176.48L394.62,169.31L395.05,207.48L395.43,99.92L395.44,112.6L395.45,103.81L395.78,218.03L396.15,129.68L396.16,143.77L396.17,132.33L396.77,192.46L396.87,176.7L396.88,180.79L397.05,208.28L397.76,140.69L397.89,152.66L397.91,154.2L398.39,127.4L398.71,195.97L398.72,184.96L398.83,148.21L399.25,217.78L399.55,154.13L399.56,162.83L399.93,175.75L400.29,110.44L400.4,141.62L400.41,148.67L400.82,132.25L401.12,181.56L401.13,188.65L401.47,158.98L401.74,205.12L401.84,196.28L401.86,196.51L402.08,122.17L402.42,207.62L402.5,179.86L402.51,172.19L402.56,192L402.83,110.18L403.24,177.83L403.25,178.37L403.42,209.15L403.88,130.17L403.9,136.67L403.91,126.61L403.95,101.81L404.33,208.48L404.54,162.23L404.55,169.6L404.76,105.14L405.04,201.17L405.3,170.62L405.31,170.94L405.54,222.56L406.03,96.99L406.13,131.54L406.14,141.82L406.16,135.34L406.47,179.25L406.48,188.76L406.49,196.07L407.1,137.91L407.22,191.5L407.23,184.45L407.43,209.76L407.44,218.07L408.08,107.19L408.42,140.22L408.43,147.33L408.62,212.06L409.24,206.61L409.25,204.18L409.3,223.56L410.06,127.47L410.08,144.16L410.29,101.91L410.62,197.76L410.82,154.63L410.84,141.66L410.91,132.73L411.32,213.82L411.65,202.36L411.66,205.73L411.78,239.39L412.32,98.3L412.47,124.56L412.48,135.26L412.91,127.75L413.28,177.91L413.32,176.58L413.33,165.85L413.45,210.22L414.02,164.61L414.11,195.35L414.12,194.59L414.14,208.26L414.63,115.39L414.83,161.92L414.84,164.09L414.95,144.76L415.61,222.14L415.71,190.84L415.72,187.72L415.81,227.42L415.96,156.88L416.3,178.24L416.32,172.95L416.47,121.77L416.95,188.78L416.96,194.09L417.27,131.39L417.45,205.68L417.57,197.71L417.58,202.39L417.87,119.44L418.17,216.73L418.35,191.17L418.36,195.34L418.65,111.08L419.03,209.35L419.09,185.83L419.1,171.2L419.34,142.78L419.71,180.71L419.84,157.79L419.85,175.42L420.14,145.5L420.4,201.46L420.58,182.24L420.59,163.44L420.91,126.54L421.25,212.25L421.26,205.7L421.27,211.33L421.59,146.76L422.04,159.85L422.05,149.55L422.13,128.37L422.33,197.63L422.68,131.77L422.69,126.56L422.75,113.62L422.79,139.87L422.8,153.91L423.35,197.94L423.47,146.36L423.51,161.7L423.52,174.86L423.65,215.96L424.15,141.47L424.28,190.26L424.29,180.86L424.71,182.28L425.02,101.11L425.09,112.11L425.1,125.26L425.57,222.61L426.06,199.97L426.07,200.22L426.21,219.26L426.38,118.74L426.85,184.76L426.86,188L426.89,198.24L427.17,122.74L427.56,167.77L427.58,168.15L427.72,152.77L427.9,218.68L428.26,174.4L428.27,170.55L428.4,142.2L428.85,192.54L428.87,172.86L428.88,161.19L429.06,216.94L429.33,91.2L429.63,162.67L429.64,165.97L429.77,191.1L430.1,127.07L430.37,172.65L430.38,174.25L430.74,139.64L430.85,201.86L431.16,194.96L431.17,189.08L431.36,108.71L431.95,158.72L431.96,153.16L432.24,205.77L432.59,143.12L432.61,145.54L432.62,141.74L432.66,127.51L432.98,207.22L433,206.88L433.01,217.44L433.5,117.73L433.77,197.25L433.78,202.35L434.05,128.77L434.62,153.91L434.63,162.66L434.65,152.44L435.13,202.67L435.14,206.64L435.17,221.48L435.67,116.91L435.68,113.72L436.08,183.59L436.51,164.78L436.52,152L436.61,145.32L437.11,227.27L437.43,199.29L437.44,194.73L437.64,109.94L438.21,172.18L438.22,178.77L438.6,119.38L438.7,149.77L438.71,177.18L438.9,204.07L439.03,150.5L439.33,185.14L439.34,201.4L439.41,219.51L439.93,111.95L440.16,170.96L440.17,178.02L440.19,176.56L440.21,188.85L440.24,177.66L440.25,170.61L440.48,118.98L440.75,223.59L441.05,198.14L441.06,192.19L441.47,226.83L441.81,126.11L441.86,131.97L441.87,136.49L442.12,113.4L442.38,208.68L442.59,140.01L442.6,128.05L442.61,121.57L443.21,184.35L443.3,159.09L443.31,158.09L443.83,205.15L443.92,147.02L443.98,174.34L443.99,176.26L444.02,178.71L444.54,134.01L444.66,164.07L444.67,179.51L445.01,204.39L445.11,142.92L445.41,174.2L445.42,177.16L445.59,208.07L445.86,143.56L446.16,184.05L446.17,173.53L446.39,92.24L446.81,236.23L446.89,202.09L446.91,205.3L446.92,209.87L447.22,130.19L447.62,193.14L447.63,185.58L447.67,193.13L448.04,153.13L448.14,185.36L448.15,158.45L448.46,105.19L448.95,207.2L448.96,195.42L449.11,138.4L449.48,210.23L449.69,187.63L449.7,177.88L449.97,219.88L450.31,109.32L450.32,96.91L450.44,118.35L450.52,60.39L450.57,106.7L450.58,122.15L450.91,230.42L451.23,97.58L451.35,169.46L451.36,171.81L451.61,236.64L451.82,146.03L452.12,189.86L452.13,193.34L452.26,220.35L452.65,95.91L452.88,183.2L452.89,191.16L452.97,226.5L453.13,126.58L453.62,175.46L453.63,172.52L453.66,191.92L454.32,141.43L454.35,153.32L454.37,149.02L454.8,93.64L455.03,161.78L455.04,168.45L455.45,149.23L455.82,224.89L455.85,210.07L455.86,207.47L456.78,128.05L456.8,130.77L456.9,124.38L457.23,200.99L457.58,159.67L457.59,151.95L457.94,229.81L458.28,139.27L458.33,151.68L458.34,132.38L458.81,215.03L459.06,86.53L459.07,98.29L459.09,105.99L459.39,222.84L459.89,155.99L459.9,145.61L460.37,135.85L460.49,194.19L460.71,163.01L460.72,158.6L461.11,103.38L461.5,215.14L461.59,188.41L461.6,184.7L461.81,145.77L462.17,214.73L462.29,169.44L462.3,168.41L462.68,222.09L463.01,134.54L463.02,127.1L463.22,98.23L463.81,211.57L463.87,167.22L463.88,150.01L463.94,103.47L464.53,206.14L464.6,162.96L464.61,171.15L464.89,143.91L465.02,205.22L465.03,212.05L465.04,212.26L465.07,197.79L465.08,192.85L465.51,129.36L465.72,193.52L465.95,158.16L465.96,160.43L466.03,106.05L466.39,170.58L466.4,180.99L467.05,208.44L467.12,154.66L467.13,152.74L467.15,151.23L467.33,190.51L467.35,184.99L467.36,206.79L467.51,132.53L468.12,166.03L468.13,167.78L468.14,167.98L468.17,156.4L468.18,141.47L468.46,114.8L468.65,209.56L468.86,155.67L468.87,168.5L469.16,138.11L469.49,192.48L469.51,185.25L469.52,190.38L469.78,102.29L469.94,202.42L470.32,124.32L470.33,138.21L470.51,135.02L470.75,201.52L471.03,173.44L471.04,164.36L471.48,215.82L471.77,80.39L471.82,138.6L471.83,153.11L472.18,210.22L472.44,116.19L472.56,140.36L472.57,137.38L472.61,123.56L472.88,207.85L473.12,163.14L473.13,155.62L473.5,228.47L473.72,165.3L473.73,162.25L474.22,222.37L474.4,105.82L474.46,154.23L474.47,166.14L474.61,132.01L474.68,187.22L475.22,173.43L475.23,175.75L475.42,220.47L475.88,118.94L475.89,100.65L476.04,53.32L476.33,226.39L476.59,154.46L476.6,150.84L476.7,115.69L477.04,216.5L477.25,192.5L477.26,211.71L477.59,219.32L478.11,93.26L478.17,118.55L478.18,125.32L478.5,225.42L478.69,119.57L478.99,180.49L479,186.05L479.19,222.18L479.41,153.37L479.58,212.05L479.59,217.93L479.61,228.81L480.14,81.72L480.15,66.66L480.19,37.45L480.6,251.38L480.85,130.98L480.86,132.68L480.93,83.13L481.23,212.68L481.59,146.55L481.61,138.84L481.77,201.9L482.31,104.61L482.35,138.73L482.37,147.28L482.72,183.48L483,131.25L483.05,155.45L483.06,172.14L483.4,228.56L483.65,156.26L483.83,202.07L483.84,202.8L483.86,205.97L483.96,140.11L484.13,166.15L484.14,154.08L484.62,91.57L484.82,188.9L484.85,188.71L484.86,185.04L485.02,223.75L485.29,136.05L485.62,197.09L485.63,196.34L485.66,208.62L486.03,135.25L486.18,161.12L486.19,143.88L486.35,197.73L486.71,84.56L486.94,158.45L486.95,151.07L487.44,150.14L487.7,218.35L487.76,199.85L487.77,193.26L488.28,199.69L488.57,86.53L488.64,115.34L488.65,123.55L488.71,108.25L488.95,187.07L488.96,194.18L489.17,209.36L489.52,128.47L489.73,186.28L489.74,192.15L489.92,203.42L490.2,154L490.46,186.95L490.47,178.53L490.63,148.15L490.67,148.83L490.68,140.93L490.7,111.87L491.3,211.08L491.4,183.46L491.41,179.61L491.44,182.24L491.92,136.61L492.05,165.72L492.06,175.08L492.34,196.53L492.67,120.16L492.76,122.1L492.77,125.36L492.84,112.96L492.96,186.63L492.97,195.96L493.06,209.9L493.13,124.13L493.72,201.08L493.73,193.98L494.03,138.07L494.31,215.75L494.51,154.04L494.52,151.24L494.71,107.78L494.96,217.75L495.24,164.01L495.25,171.11L495.8,138.9L496.03,194.45L496.04,182.79L496.19,156.57L496.72,209.85L496.77,196.17L496.78,182.16L496.9,112.2L497.36,216.56L497.5,208.13L497.51,207.88L497.84,110.47L497.85,111.72L497.86,102.72L498.67,187.48L498.68,191.23L498.98,196.7L499.17,108.56L499.45,169.23L499.46,176.86L499.5,217.56L499.94,131.82L500.23,202.92L500.24,202.86L500.56,153.24L500.97,251.91L501,212.29L501.01,196.53L501.3,110.29L501.65,208.9L501.8,151.59L501.81,167.23L501.86,169.83L501.95,115.55L501.96,112.55L501.97,107.92L502.25,194.06L502.59,163.08L502.61,162.02L502.96,230.88L503.39,125.38L503.4,131.46L503.69,124.02L504,170.9L504.01,176.1L504.02,185.74L504.08,141.34L504.76,181.34L504.77,185.48L505.15,226.64L505.56,105.26L505.6,138.88L505.61,151.86L505.72,131.83L506.05,191.56L506.46,171.9L506.47,170.79L506.84,140.15L507.04,214.51L507.05,225.19L507.11,258.28L507.54,108.27L507.69,142.57L507.7,144.71L507.85,96.15L508.19,197.71L508.32,195.15L508.33,201.12L508.58,130.29L509.1,224.47L509.11,224.07L509.12,205.87L509.14,206.02L509.17,201.08L509.18,199.88L509.51,223.11L509.67,159.44L509.68,151.71L509.88,73.43L510.26,220.01L510.4,188.22L510.41,182.83L510.59,109.98L511.11,222.23L511.17,188.24L511.18,186.04L511.37,205.07L511.91,84.09L511.98,143.61L511.99,152.71L512.11,112.19L512.45,196.22L512.46,211.32L512.62,138.39L513.15,193.29L513.16,198.06L513.47,215.41L513.57,128.6L513.58,113.35L513.59,103.07L514.07,176.56L514.29,142.19L514.3,151.61L514.33,145.44L514.41,201.37L514.6,188.18L514.61,193.73L514.73,132.04L515.1,245.49L515.33,200.7L515.34,206.18L516.07,112.55L516.12,128.11L516.13,128.6L516.23,97.36L516.97,204.6L517.07,164.05L517.08,158.4L517.25,199.67L517.54,143.64L517.83,157.65L517.84,156.72L518.25,186.22L518.33,148.78L518.41,153.65L518.42,149.44L518.5,117.33L518.92,232.67L519.09,167.11L519.1,165.04L519.24,150.56L519.39,198.19L519.53,152.51L519.54,143.76L519.86,131.55L520,210.85L520.31,170.11L520.32,163.77L520.44,80.68L520.74,223.17L520.85,198.31L520.87,204.57L520.94,204.84L521.19,116.1L521.72,142.64L521.73,148.59L521.8,126.17L522.01,170.84L522.49,137.27L522.5,142.18L522.94,232.67L523.25,153.26L523.26,138.25L524,188.09L524.05,178.6L524.07,179.83L524.2,219.87L524.58,118.09L524.86,157L524.87,177.81L525.02,238.93L525.48,94.77L525.61,172.34L525.62,194.58L525.69,228.9L525.96,147.06L525.98,148.17L525.99,145.61L526.1,132.01L526.36,204.09L526.72,160.71L526.73,168.57L526.88,192.27L527.25,140.25L527.27,130.68L528.28,224.28L528.34,205.55L528.35,194.79L528.54,207.9L528.76,87L529.12,181.17L529.13,182.78L529.17,201.46L529.5,104.29L529.74,157.73L529.75,158.06L529.89,243.91L530.31,151.5L530.58,234.03L530.59,225.07L530.63,230.6L530.65,223.99L530.66,208.33L530.92,93.38L531.43,160.39L531.44,158.98L531.65,136.04L532.09,219.11L532.34,184.74L532.35,175.6L532.7,233.58L533.06,78.02L533.18,112.03L533.2,111.27L533.78,92.96L534.02,211.09L534.03,205.04L534.04,205.59L534.17,209.72L534.33,139.69L534.78,205.17L534.79,207.5L534.8,216.83L535.04,114.42L535.49,178.03L535.5,168.94L535.65,151.7L535.88,218.67L536.27,189.44L536.28,187.04L536.7,218.56L537.01,120.64L537.1,137.87L537.11,138.12L537.32,56.08L537.75,241.63L537.88,168.97L537.89,161.3L538.18,135.31L538.46,201.18L538.6,148.96L538.61,141.39L538.74,205.16L539.27,125.78L539.34,147.36L539.35,156.03L539.46,189.88L539.54,146.7L539.67,182.8L539.68,188.16L540.25,153.82L540.39,211.23L540.45,209.33L540.46,202.8L541.02,117.49L541.27,159.16L541.28,162.51L541.49,90.85L541.86,229.45L542.09,184.97L542.1,182.66L542.49,138.3L542.55,189.62L542.56,199.16L542.57,203.68L542.9,132.22L543.2,176.69L543.21,147.58L543.46,125.79L543.99,207.94L544.01,207.39L544.48,224.18L544.82,129.54L544.83,141.66L544.84,141.64L544.89,138.43L545.4,181.57L545.44,157.41L545.45,151.11L545.62,99.49L546.09,212.94L546.19,158.57L546.2,164.78L546.5,116.41L546.8,209.59L547.01,132.83L547.02,147.73L547.49,233.32L547.77,150.07L547.78,154.93L547.98,203.98L548.39,111.18L548.52,153.37L548.53,150.42L548.86,137.72L548.97,198.03L549.23,163.02L549.24,165.75L549.43,203.69L549.86,138.09L549.94,154.13L549.95,147.8L550.05,173.64L550.18,139.44L550.19,131.18L550.48,117.59L550.82,193.93L550.83,198.07L550.99,142.89L551.46,249.05L551.59,214.98L551.6,196.52L552.08,104.44L552.44,168.67L552.45,182.35L552.5,205.46L552.71,131.91L552.81,141.31L552.83,140.78L552.88,115.4L553.26,227.41L553.51,177.47L553.52,178.49L553.83,230.06L554.2,70.08L554.21,62.34L554.22,59.1L554.49,193.75L554.51,209.25L554.61,234.76L554.9,119.19L555.16,162.21L555.17,151.87L555.28,221.2L555.53,163.14L555.54,155.18L555.77,213.52L556.15,139.49L556.16,145.49L556.18,137.9L556.25,102.23L556.87,200.93L556.9,190.81L556.91,197.67L556.99,145.5L557.4,225.33L557.7,154.52L557.71,154.95L557.82,212.38L558.24,93.09L558.44,157.93L558.45,159.94L558.49,162.6L558.58,130.42L558.59,118.91L559.25,212.31L559.48,206.72L559.49,194.92L560.01,133.48L560.26,162.91L560.27,155.52L560.49,118.31L560.86,187.66L560.98,158.99L560.99,166.74L561.15,156.78L561.57,203.06L561.76,195.33L561.77,184.65L562.23,197.78L562.42,126.51L562.48,168.78L562.49,180.78L562.82,91.63L563.19,215.89L563.2,215.3L563.21,224.48L563.6,101.65L563.97,198.63L563.98,207.01L564.23,150.56L564.65,209.3L564.75,151.15L564.76,161.86L564.91,118.45L565.31,233.32L565.51,163.99L565.52,165.78L565.69,138.68L565.8,200.68L566.23,164.55L566.24,175.35L566.51,216.58L566.8,92.67L566.99,183.77L567,179.97L567.36,127.32L567.45,197.39L567.78,149.28L567.79,150.04L567.83,134.53L568.19,205.7L568.34,200.82L568.36,198.65L568.43,219.45L568.48,185.82L568.49,170.69L568.66,215.95L569.01,99.46L569.29,149.15L569.3,157.7L569.5,129.23L569.99,205.69L570.07,194.71L570.08,192.48L570.73,223.25L570.91,136.8L570.92,141.76L571.32,101.71L571.64,178.08L571.72,165.63L571.73,161.1L571.82,114.07L571.94,176.89L572.07,162.46L572.08,166.86L572.64,237.66L572.75,151.95L572.89,217.37L572.9,215.59L573.66,112.01L573.71,148.89L573.72,164.95L574.25,231.68L574.37,127.43L574.38,124.36L574.39,123.01L574.53,192.55L574.67,182.57L574.68,190.54L574.75,225.06L575.22,120.54L575.23,118.23L575.38,77.45L575.75,222.17L575.94,150.89L575.95,151.99L576.07,113.21L576.4,217.78L576.73,163.63L576.74,153.77L577.11,217.49L577.47,99.34L577.52,125.14L577.53,133.01L578.31,208.51L578.32,201.35L578.63,209.23L578.92,133.53L579.1,145.03L579.11,142.6L579.28,219.88L579.42,117.19L579.43,111.64L579.47,93.84L579.92,221.39L580.06,167.95L580.08,169.35L580.66,229.5L580.87,126.28L580.88,129.28L580.89,127.62L580.91,118.8L581.34,205.64L581.6,148.97L581.61,149.35L581.68,122.03L582.06,231.42L582.25,175.85L582.26,194.78L582.39,173.18L582.57,222.59L582.62,180.92L582.63,169.1L582.67,153.67L583.19,198.51L583.32,159.56L583.33,142.53L583.47,211.68L583.78,90.66L584.06,141.73L584.07,145.6L584.19,237.15L584.54,137.59L584.75,180.06L584.76,178.98L585.19,132.14L585.28,206.08L585.47,190.97L585.48,192.37L585.56,203.74L585.66,154.35L585.67,148.93L585.73,120.43L585.84,173.31L586.23,165.46L586.24,173.45L586.28,195.12L586.36,151.36L586.37,141.78L586.4,122.79L586.62,196.18L587.08,181.55L587.09,183.29L587.59,222.87L587.94,93.95L587.97,103.57L587.99,115.23L588.17,217.74L588.64,96.83L588.77,152.65L588.78,152.41L589.56,224.65L589.63,218.37L589.64,208.98L589.82,214.75L590.04,102.01L590.62,134.25L590.63,140.07L590.68,127.25L591.4,193.29L591.45,188.51L591.46,173.59L591.85,254.63L592.07,118.99L592.3,133.67L592.31,142.76L592.87,132.48L593.05,195.96L593.1,163.12L593.11,157.3L593.16,147.16L593.19,167.18L593.2,177.74L593.27,212.8L593.37,147.38L593.95,178.85L593.96,173.24L594.03,183.86L594.09,168.42L594.12,172.61L594.13,164.05L594.26,122.49L594.63,189.29L594.64,196.09L595.02,148.52L595.11,219.26L595.39,182.64L595.4,192.18L596.22,110.47L596.23,111.26L596.31,71.68L596.32,74.09L596.33,67.6L596.37,56.46L596.51,151.97L596.52,160.38L596.74,221.14L597.02,147.89L597.3,195.48L597.31,192.12L597.38,205.76L597.65,145.68L598.09,174.3L598.1,175.03L598.13,200.73L598.49,101.27L598.85,181.89L598.86,178.99L598.99,157.87L599.37,212.15L599.62,199.49L599.63,199.84L599.67,219.2L600.16,153.23L600.2,166.39L600.21,163.8L600.33,179.28L600.59,76.38L600.94,174.97L600.95,182.48L601.08,198.78L601.36,133.75L601.7,180.93L601.71,190.49L601.84,202.82L602.02,134.79L602.42,193.97L602.43,211.95L602.57,119.76L603.02,175.08L603.03,182.07L603.36,113.24L603.6,206.68L603.75,188.4L603.76,194.88L603.79,196.36L603.83,168.08L603.84,157.4L603.89,135.23L604.25,223.96L604.53,213.83L604.54,206.49L605.01,130.36L605.32,182.64L605.34,185.36L605.37,200.3L606.02,110.66L606.13,171.68L606.14,172.78L606.49,134.22L606.63,208.13L606.88,170.53L606.89,159.17L607.51,200.6L607.58,143.13L607.59,137.84L607.63,120.48L607.72,190.64L608.21,169.27L608.23,173.34L608.54,223.1L608.81,112.32L608.82,108.74L608.86,103.1L609,123.8L609.03,121.36L609.04,122.96L609.15,205.96L609.72,147.88L609.73,138.68L609.75,130.09L609.89,204.12L610.38,181.42L610.39,187.79L610.78,209.88L611.15,127.5L611.18,131.63L611.19,138.64L611.53,203.57L611.67,130.84L611.92,145.14L611.93,150.85L612.12,145.91L612.25,208.96L612.74,189.05L612.75,182.69L612.78,178.86L612.8,188.42L612.81,196.61L612.93,209.24L613.52,95.13L613.6,152.3L613.61,164.91L613.75,118.77L614.33,206.91L614.38,193.71L614.39,190.86L614.76,278.51L614.91,153.67L615.09,171.44L615.1,152.78L615.48,207.72L615.65,64.98L615.88,99.37L615.89,109.2L616.66,219.82L616.73,201.79L616.75,197.02L617.13,228.72L617.51,100.77L617.57,129.04L617.58,139.49L617.76,133.81L618.37,183.44L618.38,175.47L618.56,191.21L618.92,136.75L619,180.08L619.01,197.51L619.04,228.09L619.68,112.54L619.73,142.3L619.74,153.21L619.84,132.62L620.23,189.74L620.5,164.66L620.51,158.77L620.61,151.93L620.72,197.45L621.3,173.47L621.32,173.93L621.41,194.54L621.51,135.93L621.52,123.76L621.57,108.49L621.82,152.71L621.83,157.31L621.87,153.49L621.9,166.68L621.94,155.37L621.95,151.1L622.45,143.39L622.56,195.12L622.72,179.69L622.73,176.45L622.79,182.96L622.93,117.72L623.2,162.44L623.21,172.29L623.27,210.47L623.43,134.85L623.98,194.31L623.99,194.12L624.06,171.99L624.1,185.05L624.11,194.49L624.63,216.93L624.79,161.25L624.82,165.82L624.83,168.83L625.16,181.58L625.32,137.19L625.47,143.71L625.48,133.35L625.81,108.18L626.12,166.42L626.19,144.46L626.2,147.05L626.56,194.88L627.03,185.68L627.04,183.23L627.57,198.13L627.84,151.34L627.86,153.9L627.87,157.44L628.27,120.39L628.63,198.62L628.7,185.51L628.71,180.98L629.02,143.55L629.4,217.12L629.41,228.32L629.73,154.62L630.19,170.22L630.2,167.86L630.47,97.3L630.8,203.4L630.96,152.51L630.97,150.96L631.03,127.5L631.3,210.94L631.67,192.63L631.68,196.14L631.92,210.26L632.37,118.9L632.56,130.07L632.58,129.61L632.59,128.05L632.71,172.42L633.08,167.63L633.09,169.02L633.37,134.38L633.89,216.74L633.91,208.91L633.92,211.31L634.04,221.7L634.67,115.43L634.84,162.62L634.86,167.44L635.07,203.27L635.23,135.57L635.54,143.23L635.55,142.67L635.84,215.7L636.34,201.71L636.35,195.77L636.73,199.83L636.89,107.9L637.16,166.32L637.17,174.93L637.22,201.18L637.31,177L637.32,161.94L637.41,127.5L637.99,222.05L638.04,187.41L638.06,174.88L638.32,180.51L638.65,98.08L638.85,145.98L638.86,154.09L639.13,218.19L639.54,143.69L639.61,172.07L639.62,167.02L639.91,227.32L640.3,132.16L640.35,155.69L640.36,150.6L640.7,99.06L640.85,159.94L640.91,124.46L640.92,117.08L640.96,111.33L640.99,126.18L641.01,123.29L641.02,128.35L641.28,221.28L641.86,188.1L641.87,176.42L641.96,163.95L642.04,209.51L642.29,184.95L642.3,174.85L642.99,110.99L643.06,164.98L643.08,177.37L643.2,109.71L643.62,207.55L643.82,173.25L643.84,177.07L643.96,233.42L644.36,134.3L644.53,162.82L644.54,160.69L645,109.29L645.25,164.6L645.27,163.67L645.28,167.84L645.69,149.83L646.08,210.13L646.09,207.95L646.25,220.84L646.84,133.84L646.97,143.15L646.98,143.09L647.07,193.77L647.17,134.96L647.19,135.42L647.2,130.22L647.27,113L647.69,207.65L647.7,215.63L648.01,140.95L648.33,176.35L648.34,196.68L648.52,233.39L649.18,125.72L649.19,133.11L649.28,91.55L649.69,238.73L649.83,190.65L649.84,192.27L650.55,116.5L650.67,143.97L650.69,148.51L650.89,209.69L651.06,150.89L651.07,147.77L651.08,147.44L651.11,166.97L651.12,173.58L651.28,108.04L651.68,226.67L651.89,201.75L651.91,197.69L652.47,126.45L652.69,157.72L652.7,154.13L652.9,148.48L653.05,211.99L653.44,153.72L653.45,158.03L654.01,217.39L654.16,151.5L654.17,147.44L654.27,122.48L654.41,168.88L654.57,161.19L654.58,162.88L655.01,115.72L655.19,201.07L655.34,167.23L655.35,161.42L655.84,204.94L655.98,137.77L656.11,155.83L656.12,154.18L656.28,122.16L656.56,181.39L656.78,180.65L656.79,186.58L657.06,195.6L657.42,136.23L657.57,146.4L657.58,160.84L657.67,205.57L657.77,83.21L658.28,150.16L658.3,143.12L658.32,135.14L658.57,190.05L658.58,195.38L658.78,161.46L658.88,216.36L659.32,197.01L659.33,199.97L659.6,201.67L659.9,79.37L660.18,148.86L660.19,150.63L660.44,190.07L660.62,112.47L660.71,183.05L660.72,192.04L660.97,156.61L661.44,237.89L661.51,208.31L661.52,198.66L661.81,99.9L662.33,125.2L662.34,129.09L662.66,215.81L663.17,184.42L663.18,182.04L663.52,237.24L663.84,125.12L663.85,123.57L664.1,106L664.26,185.14L664.27,189.07L664.39,144.94L664.5,208.91L664.8,172.42L664.81,170.21L664.92,144.37L665.25,216.05L665.55,171.7L665.56,173.17L665.68,209.22L665.96,119.73L665.97,114.06L666.06,92.98L666.4,203.3L666.67,160.98L666.68,158.55L666.87,138.33L667.07,198.23L667.4,164.87L667.41,169.76L667.5,205.15L667.95,111.17L668.1,136.04L668.11,132.05L668.16,118.75L668.52,205.94L668.91,195.22L668.92,187.66L669.49,127.13L669.6,214.7L669.7,157.11L669.72,149.22L669.82,156.24L670.27,111.56L670.49,136.52L670.5,145.5L670.7,223.95L671.17,139.21L671.31,214.58L671.32,214.22L671.73,123L672.12,166.03L672.13,170.75L672.4,107.57L672.63,192.2L672.64,193.46L672.84,217.71L673.53,128.02L673.56,133.93L673.57,140.85L673.92,207.55L674.21,92.73L674.32,136.57L674.33,144.63L675.19,223.87L675.27,201.54L675.28,189.29L675.41,194.51L676.02,130.07L676.12,140.39L676.13,145.13L676.75,95.24L676.92,197.27L676.93,182.98L677.06,222.51L677.29,133.13L677.67,171.45L677.68,181.57L677.72,201.54L678.14,144.01L678.4,178.57L678.41,189.12L678.58,132.29L679.13,168.72L679.15,178.51L679.2,206.52L679.63,142.31L679.81,156.95L679.82,155.85L680.14,231.49L680.54,149.7L680.59,165.57L680.6,165.49L680.84,197.27L681.01,133.26L681.38,180.69L681.39,180.3L681.69,114.03L682.14,201.28L682.16,196.91L682.17,193.22L682.2,196.26L682.26,183.31L682.29,185.43L682.3,173.33L682.48,246.8L682.85,100.7L683,185.1L683.01,190.19L683.21,221.16L683.32,148.53L683.36,150.62L683.37,136.99L683.56,114.13L683.83,194.05L684.1,153.48L684.11,156.1L684.59,240.63L684.84,147.82L684.85,139.41L684.93,120.56L685,148.48" style="vector-effect: non-scaling-stroke; fill: none; stroke: rgb(127, 127, 127); stroke-opacity: 1; stroke-width: 2px; opacity: 1;"/></g><g class="points"/><g class="text"/></g></g></g><g class="overplot"/><path class="xlines-above crisp" d="" style="fill: none; stroke-width: 1px; stroke: rgb(0, 0, 0); stroke-opacity: 0;"/><path class="ylines-above crisp" d="" style="fill: none; stroke-width: 1px; stroke: rgb(0, 0, 0); stroke-opacity: 0;"/><g class="overlines-above"/><g class="xaxislayer-above"><path class="xtick ticks crisp" d="M0,421v5" transform="translate(80,0)" style="stroke: rgb(51, 51, 51); stroke-opacity: 1; stroke-width: 1px;"/><path class="xtick ticks crisp" d="M0,421v5" transform="translate(165.63,0)" style="stroke: rgb(51, 51, 51); stroke-opacity: 1; stroke-width: 1px;"/><path class="xtick ticks crisp" d="M0,421v5" transform="translate(251.25,0)" style="stroke: rgb(51, 51, 51); stroke-opacity: 1; stroke-width: 1px;"/><path class="xtick ticks crisp" d="M0,421v5" transform="translate(336.88,0)" style="stroke: rgb(51, 51, 51); stroke-opacity: 1; stroke-width: 1px;"/><path class="xtick ticks crisp" d="M0,421v5" transform="translate(422.51,0)" style="stroke: rgb(51, 51, 51); stroke-opacity: 1; stroke-width: 1px;"/><path class="xtick ticks crisp" d="M0,421v5" transform="translate(508.13,0)" style="stroke: rgb(51, 51, 51); stroke-opacity: 1; stroke-width: 1px;"/><path class="xtick ticks crisp" d="M0,421v5" transform="translate(593.76,0)" style="stroke: rgb(51, 51, 51); stroke-opacity: 1; stroke-width: 1px;"/><path class="xtick ticks crisp" d="M0,421v5" transform="translate(679.38,0)" style="stroke: rgb(51, 51, 51); stroke-opacity: 1; stroke-width: 1px;"/><path class="xtick ticks crisp" d="M0,421v5" transform="translate(765.01,0)" style="stroke: rgb(51, 51, 51); stroke-opacity: 1; stroke-width: 1px;"/><g class="xtick"><text text-anchor="middle" x="0" y="446.4" transform="translate(80,0)" style="font-family: 'Open Sans', verdana, arial, sans-serif; font-size: 17px; fill: rgb(51, 51, 51); fill-opacity: 1; white-space: pre;">0</text></g><g class="xtick"><text text-anchor="middle" x="0" y="446.4" transform="translate(165.63,0)" style="font-family: 'Open Sans', verdana, arial, sans-serif; font-size: 17px; fill: rgb(51, 51, 51); fill-opacity: 1; white-space: pre;">500</text></g><g class="xtick"><text text-anchor="middle" x="0" y="446.4" transform="translate(251.25,0)" style="font-family: 'Open Sans', verdana, arial, sans-serif; font-size: 17px; fill: rgb(51, 51, 51); fill-opacity: 1; white-space: pre;">1000</text></g><g class="xtick"><text text-anchor="middle" x="0" y="446.4" transform="translate(336.88,0)" style="font-family: 'Open Sans', verdana, arial, sans-serif; font-size: 17px; fill: rgb(51, 51, 51); fill-opacity: 1; white-space: pre;">1500</text></g><g class="xtick"><text text-anchor="middle" x="0" y="446.4" transform="translate(422.51,0)" style="font-family: 'Open Sans', verdana, arial, sans-serif; font-size: 17px; fill: rgb(51, 51, 51); fill-opacity: 1; white-space: pre;">2000</text></g><g class="xtick"><text text-anchor="middle" x="0" y="446.4" transform="translate(508.13,0)" style="font-family: 'Open Sans', verdana, arial, sans-serif; font-size: 17px; fill: rgb(51, 51, 51); fill-opacity: 1; white-space: pre;">2500</text></g><g class="xtick"><text text-anchor="middle" x="0" y="446.4" transform="translate(593.76,0)" style="font-family: 'Open Sans', verdana, arial, sans-serif; font-size: 17px; fill: rgb(51, 51, 51); fill-opacity: 1; white-space: pre;">3000</text></g><g class="xtick"><text text-anchor="middle" x="0" y="446.4" transform="translate(679.38,0)" style="font-family: 'Open Sans', verdana, arial, sans-serif; font-size: 17px; fill: rgb(51, 51, 51); fill-opacity: 1; white-space: pre;">3500</text></g><g class="xtick"><text text-anchor="middle" x="0" y="446.4" transform="translate(765.01,0)" style="font-family: 'Open Sans', verdana, arial, sans-serif; font-size: 17px; fill: rgb(51, 51, 51); fill-opacity: 1; white-space: pre;">4000</text></g></g><g class="yaxislayer-above"><path class="ytick ticks crisp" d="M79,0h-5" transform="translate(0,375.2)" style="stroke: rgb(51, 51, 51); stroke-opacity: 1; stroke-width: 1px;"/><path class="ytick ticks crisp" d="M79,0h-5" transform="translate(0,317.59000000000003)" style="stroke: rgb(51, 51, 51); stroke-opacity: 1; stroke-width: 1px;"/><path class="ytick ticks crisp" d="M79,0h-5" transform="translate(0,259.98)" style="stroke: rgb(51, 51, 51); stroke-opacity: 1; stroke-width: 1px;"/><path class="ytick ticks crisp" d="M79,0h-5" transform="translate(0,202.37)" style="stroke: rgb(51, 51, 51); stroke-opacity: 1; stroke-width: 1px;"/><path class="ytick ticks crisp" d="M79,0h-5" transform="translate(0,144.76)" style="stroke: rgb(51, 51, 51); stroke-opacity: 1; stroke-width: 1px;"/><g class="ytick"><text text-anchor="end" x="70.6" y="5.949999999999999" transform="translate(0,375.2)" style="font-family: 'Open Sans', verdana, arial, sans-serif; font-size: 17px; fill: rgb(51, 51, 51); fill-opacity: 1; white-space: pre;">0.4</text></g><g class="ytick"><text text-anchor="end" x="70.6" y="5.949999999999999" transform="translate(0,317.59000000000003)" style="font-family: 'Open Sans', verdana, arial, sans-serif; font-size: 17px; fill: rgb(51, 51, 51); fill-opacity: 1; white-space: pre;">0.2</text></g><g class="ytick"><text text-anchor="end" x="70.6" y="5.949999999999999" transform="translate(0,259.98)" style="font-family: 'Open Sans', verdana, arial, sans-serif; font-size: 17px; fill: rgb(51, 51, 51); fill-opacity: 1; white-space: pre;">0</text></g><g class="ytick"><text text-anchor="end" x="70.6" y="5.949999999999999" transform="translate(0,202.37)" style="font-family: 'Open Sans', verdana, arial, sans-serif; font-size: 17px; fill: rgb(51, 51, 51); fill-opacity: 1; white-space: pre;">0.2</text></g><g class="ytick"><text text-anchor="end" x="70.6" y="5.949999999999999" transform="translate(0,144.76)" style="font-family: 'Open Sans', verdana, arial, sans-serif; font-size: 17px; fill: rgb(51, 51, 51); fill-opacity: 1; white-space: pre;">0.4</text></g></g><g class="overaxes-above"/></g></g><g class="polarlayer"/><g class="ternarylayer"/><g class="geolayer"/><g class="pielayer"/><g class="sunburstlayer"/><g class="glimages"/><defs id="topdefs-1abe53"><g class="clips"/><clipPath id="legend1abe53"><rect width="189" height="36" x="0" y="0"/></clipPath></defs><g class="layer-above"><g class="imagelayer"/><g class="shapelayer"/></g><g class="infolayer"><g class="legend" pointer-events="all" transform="translate(778.7, 100)"><rect class="bg" shape-rendering="crispEdges" style="stroke: rgb(68, 68, 68); stroke-opacity: 1; fill: rgb(255, 255, 255); fill-opacity: 1; stroke-width: 0px;" width="189" height="36" x="0" y="0"/><g class="scrollbox" transform="translate(0, 0)" clip-path="url('#legend1abe53')"><g class="groups" transform="translate(0, 0)"><g class="traces" transform="translate(0, 17.55)" style="opacity: 1;"><text class="legendtext user-select-none" text-anchor="start" x="40" y="6.63" style="font-family: 'Open Sans', verdana, arial, sans-serif; font-size: 17px; fill: rgb(51, 51, 51); fill-opacity: 1; white-space: pre;">class=jackhammer</text><g class="layers" style="opacity: 1;"><g class="legendfill"/><g class="legendlines"><path class="js-line" d="M5,0h30" style="fill: none; stroke: rgb(127, 127, 127); stroke-opacity: 1; stroke-width: 2px;"/></g><g class="legendsymbols"><g class="legendpoints"/></g></g><rect class="legendtoggle" pointer-events="all" x="0" y="-12.55" width="229" height="25.1" style="cursor: pointer; fill: rgb(0, 0, 0); fill-opacity: 0;"/></g></g></g><rect class="scrollbar" rx="20" ry="3" width="0" height="0" style="fill: rgb(128, 139, 164); fill-opacity: 1;" x="0" y="0"/></g><g class="g-gtitle"><text class="gtitle" x="490" y="50" text-anchor="middle" dy="0em" style="font-family: 'Open Sans', verdana, arial, sans-serif; font-size: 24px; fill: rgb(51, 51, 51); opacity: 1; font-weight: normal; white-space: pre;">audio wave (time vs amplitude)</text></g><g class="g-xtitle"><text class="xtitle" x="422.5" y="490" text-anchor="middle" style="font-family: 'Open Sans', verdana, arial, sans-serif; font-size: 20px; fill: rgb(51, 51, 51); opacity: 1; font-weight: normal; white-space: pre;">time(ms)</text></g><g class="g-ytitle"><text class="ytitle" transform="rotate(-90,30,260)" x="30" y="260" text-anchor="middle" style="font-family: 'Open Sans', verdana, arial, sans-serif; font-size: 20px; fill: rgb(51, 51, 51); opacity: 1; font-weight: normal; white-space: pre;">amplitude</text></g></g></svg>