<svg class="main-svg" xmlns="http://www.w3.org/2000/svg" xmlns:xlink="http://www.w3.org/1999/xlink" width="980" height="500" viewBox="0 0 980 500"><rect x="0" y="0" width="980" height="500" style="fill: rgb(255, 255, 255); fill-opacity: 1;"/><defs id="defs-258f55"><g class="clips"><clipPath id="clip258f55xyplot" class="plotclip"><rect width="702" height="320"/></clipPath><clipPath class="axesclip" id="clip258f55x"><rect x="80" y="0" width="702" height="500"/></clipPath><clipPath class="axesclip" id="clip258f55y"><rect x="0" y="100" width="980" height="320"/></clipPath><clipPath class="axesclip" id="clip258f55xy"><rect x="80" y="100" width="702" height="320"/></clipPath></g><g class="gradients"/></defs><g class="bglayer"><rect class="bg" x="80" y="100" width="702" height="320" style="fill: rgb(237, 237, 237); fill-opacity: 1; stroke-width: 0;"/></g><g class="layer-below"><g class="imagelayer"/><g class="shapelayer"/></g><g class="cartesianlayer"><g class="subplot xy"><g class="layer-subplot"><g class="shapelayer"/><g class="imagelayer"/></g><g class="gridlayer"><g class="x"><path class="xgrid crisp" transform="translate(167.75,0)" d="M0,100v320" style="stroke: rgb(255, 255, 255); stroke-opacity: 1; stroke-width: 1px;"/><path class="xgrid crisp" transform="translate(255.5,0)" d="M0,100v320" style="stroke: rgb(255, 255, 255); stroke-opacity: 1; stroke-width: 1px;"/><path class="xgrid crisp" transform="translate(343.25,0)" d="M0,100v320" style="stroke: rgb(255, 255, 255); stroke-opacity: 1; stroke-width: 1px;"/><path class="xgrid crisp" transform="translate(431.01,0)" d="M0,100v320" style="stroke: rgb(255, 255, 255); stroke-opacity: 1; stroke-width: 1px;"/><path class="xgrid crisp" transform="translate(518.76,0)" d="M0,100v320" style="stroke: rgb(255, 255, 255); stroke-opacity: 1; stroke-width: 1px;"/><path class="xgrid crisp" transform="translate(606.51,0)" d="M0,100v320" style="stroke: rgb(255, 255, 255); stroke-opacity: 1; stroke-width: 1px;"/><path class="xgrid crisp" transform="translate(694.26,0)" d="M0,100v320" style="stroke: rgb(255, 255, 255); stroke-opacity: 1; stroke-width: 1px;"/></g><g class="y"><path class="ygrid crisp" transform="translate(0,375.2)" d="M80,0h702" style="stroke: rgb(255, 255, 255); stroke-opacity: 1; stroke-width: 1px;"/><path class="ygrid crisp" transform="translate(0,317.59000000000003)" d="M80,0h702" style="stroke: rgb(255, 255, 255); stroke-opacity: 1; stroke-width: 1px;"/><path class="ygrid crisp" transform="translate(0,202.37)" d="M80,0h702" style="stroke: rgb(255, 255, 255); stroke-opacity: 1; stroke-width: 1px;"/><path class="ygrid crisp" transform="translate(0,144.76)" d="M80,0h702" style="stroke: rgb(255, 255, 255); stroke-opacity: 1; stroke-width: 1px;"/></g></g><g class="zerolinelayer"><path class="xzl zl crisp" transform="translate(80,0)" d="M0,100v320" style="stroke: rgb(255, 255, 255); stroke-opacity: 1; stroke-width: 1px;"/><path class="yzl zl crisp" transform="translate(0,259.98)" d="M80,0h702" style="stroke: rgb(255, 255, 255); stroke-opacity: 1; stroke-width: 1px;"/></g><path class="xlines-below"/><path class="ylines-below"/><g class="overlines-below"/><g class="xaxislayer-below"/><g class="yaxislayer-below"/><g class="overaxes-below"/><g class="plot" transform="translate(80, 100)" clip-path="url('#clip258f55xyplot')"><g class="scatterlayer mlayer"><g class="trace scatter trace405834b0-4f76-459d-a2a1-5cd2d6fb0800" style="stroke-miterlimit: 2; opacity: 1;"><g class="fills"/><g class="errorbars"/><g class="lines"><path class="js-line" d="M0,138.73L0.09,215.55L0.37,104.61L0.71,163.3L0.72,166.11L0.81,226.12L1.24,123.94L1.49,151.96L1.5,173.73L1.59,198.74L1.85,91.2L2.23,180.8L2.24,185.59L2.58,90.98L2.86,209.27L2.97,161.4L2.98,168.66L3.29,137.37L3.61,240.33L3.73,183.88L3.74,169.27L4.23,217.48L4.37,91.27L4.45,178.77L4.46,200.09L4.63,138.47L4.73,237.6L4.74,246.18L4.75,252.8L5.01,134.14L5.45,227.69L5.46,218.01L5.73,122.55L6.23,184.53L6.24,179.42L6.55,110.63L6.92,210.44L6.93,228.9L6.95,232.55L7.22,155.77L7.23,160.74L7.24,152.1L7.58,207.32L8.02,102.27L8.03,108.32L8.04,107.91L8.14,129.48L8.24,123.83L8.25,133.43L8.74,112.15L8.95,220.1L9.04,181.5L9.05,174L9.22,134.42L9.58,222.02L9.78,176.68L9.8,156.8L9.94,115.23L10.08,221.98L10.55,163.75L10.56,166.22L10.79,140.35L11.2,243.23L11.29,174.91L11.3,160.07L11.45,123.94L11.71,244.14L11.97,184.78L11.98,187.11L12.23,137.04L12.5,201.58L12.68,167.81L12.69,159.88L12.89,252.32L13.1,118.68L13.36,178.84L13.37,194.57L13.47,245.25L13.63,133.15L14.04,157.32L14.05,155.56L14.11,211.99L14.44,131.37L14.76,167.52L14.78,154.06L15.21,105.41L15.46,199.19L15.53,177.55L15.54,166.14L15.72,118.18L15.9,190.68L16.27,165.41L16.28,184.32L16.45,132.28L16.61,259.36L17.01,169.95L17.02,164.34L17.4,107.6L17.75,211.06L17.89,207.76L17.9,202.71L18.11,101.53L18.7,151.57L18.71,157.99L18.83,135.12L18.98,229.02L19.34,161.46L19.35,141.44L19.7,226.76L20.12,74.07L20.13,86.67L20.14,115.56L20.15,98.98L20.31,193.03L20.86,156.99L20.87,167.34L21.25,135.81L21.65,255.8L21.66,244.96L21.67,220.16L22,92.94L22.57,94.56L22.59,96.6L23.01,212.1L23.29,141.46L23.3,136.7L23.62,212.77L23.84,151.89L23.85,142.07L24.32,217.36L24.64,101.2L24.65,116.01L25.43,212.41L25.44,208.74L25.45,209.7L25.5,216.81L25.66,132.41L26.02,147.08L26.03,125.58L26.05,115.83L26.28,179.48L26.73,160.25L26.74,160.26L26.99,125.67L27.24,216.77L27.63,199.17L27.64,189.02L27.81,199.38L28.28,109.89L28.45,134.63L28.46,141.99L28.49,139.98L28.5,149.64L28.51,159.28L28.87,178.58L28.98,129.03L29.07,145.44L29.08,186.99L29.33,132.02L29.67,208.6L29.82,191.45L29.84,178.82L30,211.22L30.45,114.98L30.61,148.36L30.63,152.6L30.8,132.45L31.29,210.89L31.31,206.94L31.32,204.73L31.6,152.31L31.88,217.37L32.05,193.67L32.06,194.45L32.45,204.13L32.85,76.68L32.87,93.8L32.88,102.33L33.13,209.51L33.78,181.53L33.8,178.8L34.16,157.93L34.41,219.19L34.54,172.39L34.55,167.78L34.88,126.1L35.13,197.89L35.27,168.83L35.28,165.08L35.55,210.81L35.73,128.24L36.02,154.88L36.03,166.03L36.31,224.88L36.53,129.77L36.61,130.88L36.63,122.79L36.67,118.43L37.5,231.42L37.6,194.76L37.61,182.19L37.9,206.74L38.34,142.1L38.38,158.18L38.39,152.87L38.41,178.86L38.48,141.24L38.52,174.74L38.53,137.98L38.59,127.4L38.67,219.75L39.28,140.77L39.29,129.07L39.67,108.92L40.07,192.55L40.08,190.38L40.09,214.86L40.43,101.53L40.82,171.83L40.83,178.41L41.05,137.57L41.42,230.58L41.51,193.86L41.52,210.51L41.57,217.69L42.23,140.62L42.32,168.65L42.33,175.98L42.61,186.72L42.7,93.22L43.15,127.84L43.16,137.57L43.61,117.78L43.94,200.47L43.96,192.92L43.97,191.71L44.07,218.69L44.46,118.37L44.65,157.41L44.67,146.17L44.68,138.6L45.1,197.2L45.37,181L45.38,185.54L45.47,139.97L45.62,216.67L46.12,161.94L46.14,172.4L46.4,203.17L46.8,115.54L46.86,140.23L46.87,134.25L46.96,106.19L47.1,190.33L47.5,138.39L47.51,127.67L47.92,221.68L48.25,85.57L48.27,85.8L48.29,126.88L48.3,98.23L49,196.68L49.01,191.98L49.02,193.57L49.15,154.3L49.68,252.65L49.85,225.59L49.86,217.28L49.99,136.23L50.41,173.59L50.42,182.93L50.63,102.53L50.93,186.44L51.01,176.46L51.02,181.51L51.03,182.79L51.24,117.26L51.32,125.2L51.33,123.27L51.35,123.54L51.36,112.33L52.2,236.2L52.22,216.19L52.23,212.02L52.35,219.63L52.62,116.19L53.01,163.79L53.02,168.7L53.17,113.96L53.62,199.79L53.76,162.86L53.77,160.43L54.14,237.25L54.49,132.19L54.5,128.65L54.58,127.1L54.64,147.86L54.65,156.8L54.69,146.72L54.73,178.33L54.76,168.21L54.77,188.66L54.91,202.28L55.11,133.35L55.12,136.06L55.13,129.96L55.22,97.53L55.51,188.79L55.86,146.11L55.88,147.37L55.91,141.37L56.25,202.38L56.57,170.48L56.58,178.15L56.65,208.69L57.27,123.35L57.29,136.95L57.3,144.25L57.65,220.16L58.01,119.05L58.06,167.91L58.07,164.57L58.26,124.92L58.78,189.14L58.8,182.52L58.82,169.64L58.9,191.08L58.97,125.9L59.56,162.81L59.57,168.21L59.66,119.61L60.05,225.04L60.33,149.32L60.34,145.52L60.38,119.58L60.68,217.1L61.06,145.53L61.07,151.93L61.16,119.48L61.39,216.37L61.77,156.3L61.78,168.35L61.97,208.62L62.34,137.83L62.39,146.41L62.4,140.08L62.67,218.85L62.96,126.15L63.16,167.05L63.17,156.35L63.33,181.81L63.49,128.63L63.9,160.83L63.92,169.67L64.54,213.65L64.64,155.66L64.65,155.89L64.77,197.91L64.85,152.48L64.86,147.98L65.17,197.01L65.48,116.57L65.55,149.14L65.56,158.56L65.71,198.34L66.07,110.87L66.08,109.62L66.39,212.77L66.84,123.93L66.86,127.84L67.25,173.2L67.39,124.67L67.45,143.87L67.46,151.72L67.82,203L68.12,133.57L68.15,160.4L68.16,137.41L68.24,132.25L68.73,229.87L68.92,211.81L68.93,186.67L69.14,120.52L69.48,228.69L69.67,179.72L69.69,184.7L70.14,198.54L70.45,121.94L70.49,123.97L70.5,131.64L70.69,194.5L71.12,122.5L71.2,153.05L71.21,153.45L71.24,145.41L71.54,197.09L71.93,162L71.95,162.31L72.12,235.46L72.45,173.55L72.46,162.8L72.49,156.01L72.6,201.13L72.92,163L72.93,155.37L73.07,112.39L73.37,186.1L73.69,162.92L73.7,163.62L73.9,124.79L74.41,201.17L74.5,186.29L74.51,181.22L74.93,206.34L75.27,92.56L75.35,130.73L75.36,143.47L75.6,210.27L75.76,150.33L75.77,139.23L75.83,106.05L76.3,197.74L76.4,143.46L76.41,143.2L76.8,235.76L77.18,168.27L77.19,166.02L77.62,127.11L77.99,229.22L78.01,214.64L78.02,172.28L78.04,191.01L78.13,105.05L78.42,176.18L78.43,187.39L78.52,223.29L78.93,119.3L79.11,148.67L79.12,132.78L79.66,213.45L79.77,122.63L79.86,154.67L79.88,137.27L80.06,130.67L80.28,201.97L80.45,159.12L80.46,147.26L81.02,201.86L81.2,137.82L81.21,141.96L81.22,140.89L81.41,109.64L81.56,160.88L81.58,168.82L82.11,117.86L82.21,204.4L82.32,168.79L82.33,167.03L82.48,214.34L82.72,149.84L83.13,188.98L83.14,174.87L83.47,112.63L83.63,186.13L83.9,155.25L83.91,158.78L84.29,120.09L84.45,195.88L84.55,181.62L84.56,190.98L84.79,206.18L85.14,131.39L85.29,182.06L85.31,177.37L85.77,149.28L85.95,208.98L86.04,166.9L86.05,163.89L86.19,79.58L86.68,257.59L86.75,210.7L86.76,211.34L86.91,126.78L86.92,118.55L87.35,248.59L87.67,140.48L87.69,131.05L87.78,212.73L88.4,96.78L88.43,135.33L88.44,125.66L88.78,121.94L89.24,205.12L89.25,173.36L89.39,123.21L89.77,209.48L90,183.99L90.01,168.48L90.55,201.55L90.65,93.46L90.75,139.31L90.76,163.75L91.15,216.6L91.35,122.02L91.5,147.88L91.51,164.58L91.91,212.03L91.97,145.16L92.19,200.04L92.2,200.24L92.23,212.82L92.45,140.72L92.74,158.76L92.75,136.7L92.82,123.64L93.37,205.06L93.64,173.71L93.65,166.36L94.19,202.56L94.42,109.59L94.43,114.48L94.67,196.72L95.22,150.42L95.23,150.18L95.62,211.79L95.78,146.86L95.97,158.45L95.98,155.05L96.05,132.7L96.47,193.18L96.63,189.38L96.64,190.16L96.8,229.29L97.22,100.15L97.38,197.74L97.39,202.59L97.7,102.97L98.07,236.23L98.13,191.92L98.14,192.43L98.38,119.51L98.8,226.71L98.92,148.47L98.93,168.61L99.13,117.19L99.25,212.14L99.67,170.01L99.69,172.47L99.92,217.79L100.16,140.44L100.17,135.46L100.57,220.23L100.88,122.95L100.93,148.12L100.94,146.62L101.55,124.08L101.65,183.27L101.69,168.31L101.7,157.5L101.75,145.65L101.85,208.59L102.33,189.21L102.34,194.25L102.72,135.92L102.99,210.33L103.1,198.91L103.11,203.17L103.14,205.01L103.9,120.95L103.92,133.44L103.93,137.84L104.02,123.84L104.79,205.04L104.8,204.74L104.81,203.88L104.84,216.11L105.25,147.37L105.53,197.13L105.54,192.28L105.62,194.85L105.92,97.59L106.34,158.16L106.35,159.24L106.56,129.3L106.98,204.06L107.03,177.58L107.05,149.97L107.08,136.77L107.61,227.04L107.78,137.72L107.79,141.64L107.88,134.96L108.1,208.58L108.46,161.9L108.47,165.7L108.48,165.86L108.49,150.32L108.6,119.68L109.26,189.63L109.27,178.54L109.55,209.75L109.63,157.83L109.83,191.07L109.84,203.61L109.86,215.23L110.19,154.82L110.2,151.94L110.45,181.37L110.85,139.46L110.91,155.63L110.92,156.08L111.26,112.64L111.76,218.81L111.77,209.72L111.78,204.39L111.81,226.1L112.2,156.57L112.31,176.85L112.32,156.67L112.67,140.75L112.87,186.71L113.03,175.96L113.05,172.11L113.24,177.09L113.63,128.99L113.81,148.44L113.82,154.76L114.19,209.27L114.36,124.83L114.58,168.23L114.59,160.92L114.7,207.37L115.06,102.23L115.27,184.8L115.28,194.41L115.58,132.01L115.93,221.88L116.02,204.05L116.03,185.49L116.29,131.99L116.52,224.52L116.68,168.69L116.69,160.03L116.98,116.04L117.32,193.89L117.43,158.61L117.44,156.14L117.74,218.93L118.09,116.67L118.12,129.47L118.14,108.78L118.44,229.98L118.91,171.16L118.93,178.05L118.95,196.47L119.36,102.9L119.68,184.76L119.69,188.82L120.1,125.8L120.31,223.35L120.39,194.65L120.41,178.23L120.71,138.21L121.07,197.65L121.13,154.83L121.14,147.29L121.24,99.77L121.6,200.03L121.86,141.66L121.88,136.28L121.91,129.81L122.11,202.21L122.3,187.89L122.31,197.66L122.6,135.44L122.83,198.87L123.15,153.89L123.16,158.56L123.26,142.49L123.76,185.5L123.89,150.88L123.9,154.1L123.93,143.12L124.07,194.51L124.56,166.56L124.57,174.07L124.77,172.86L124.84,199.84L124.93,174.98L124.94,163.65L125.27,148.41L125.58,192.12L125.69,162.96L125.7,164.37L125.71,164.83L125.78,134.62L125.79,130.39L125.87,103.33L126.01,140.71L126.02,150L126.03,148.65L126.26,212.17L126.27,217.74L126.35,227.58L126.49,162.89L126.52,169.41L126.53,153.66L126.7,102.73L127.11,218.89L127.29,160.92L127.31,159.06L127.55,205.91L127.94,132.98L128.05,142.32L128.06,153.97L128.15,130.84L128.7,201.77L128.79,193.47L128.8,205.43L128.98,116.59L129.51,218.87L129.6,158.81L129.61,160.47L129.75,115.95L130.05,209.35L130.37,141.91L130.38,137.28L130.43,118.63L130.68,221.12L131.09,174.18L131.1,173.06L131.55,143.78L131.84,217.63L131.88,211.69L131.89,208.67L132.16,112.69L132.54,223.56L132.72,135.99L132.73,145.02L133.21,183.61L133.46,116.02L133.51,128.97L133.52,133.63L133.81,204.23L134.13,148.45L134.14,147.52L134.29,188.38L134.65,111.03L134.93,175.11L134.94,172.79L135.06,199.65L135.53,139.95L135.72,183.16L135.73,185.25L135.94,205.95L136.48,145.09L136.53,146.37L136.54,161.63L136.64,197.07L136.85,97.65L137.27,183.71L137.28,187.76L137.57,114.04L137.91,209.82L138.01,204.16L138.02,204.96L138.23,144.86L138.57,219.53L138.68,169.52L138.69,159.5L138.97,107.75L139.24,192.19L139.36,138.46L139.37,130.82L139.4,83.21L139.51,194.13L140.07,157.58L140.08,163.26L140.1,160.21L140.46,218.73L140.47,210.04L140.48,218.24L140.94,219.43L141.38,98.91L141.5,131.21L141.51,145.27L141.73,214.07L141.99,109.87L142.26,163.01L142.27,160.01L142.28,152.69L142.87,225.17L142.95,210.91L142.96,204.79L143.64,116.35L143.74,156.31L143.75,154.78L143.91,97.51L144.23,213.56L144.24,220.14L144.54,136.37L144.83,234.99L145.07,157.76L145.09,160.69L145.52,211.59L145.79,120.18L145.8,123.34L145.82,108.49L145.86,126.49L145.88,138.89L146.04,127.47L146.22,214.33L146.64,187.57L146.65,166.6L146.83,217.04L147.35,142.08L147.42,143.09L147.43,168.31L147.71,101.07L148.15,213.51L148.16,211.95L148.18,218.74L148.37,119.84L148.76,199.23L148.77,198.88L148.84,217.93L149.06,150.83L149.45,160.96L149.46,149.94L149.87,86.71L150.15,216.29L150.24,191.52L150.25,187.79L150.26,188.13L150.33,172.92L150.39,174.53L150.41,167.59L150.57,133.47L150.86,205.82L151.15,167.16L151.16,171.62L151.34,146.19L151.93,189.07L151.94,188.49L152.07,117.71L152.58,240.74L152.65,212.4L152.67,205.91L152.84,119.67L153.27,232.92L153.56,125.13L153.58,130.56L153.98,228.18L154.21,53.58L154.34,146.54L154.35,137.24L154.41,135.31L154.48,186.36L154.49,199.51L154.56,244.29L154.8,119.59L154.93,134.59L154.94,122.15L154.96,111.31L155.23,243.58L155.67,133.47L155.68,136.07L155.96,233.75L156.38,119.56L156.42,126.56L156.43,137.98L156.46,113.35L156.53,179.97L156.64,170.86L156.65,193.51L157,231.03L157.24,137.33L157.45,162.47L157.46,171.98L157.74,196.54L157.94,116.13L158.22,158.71L158.23,157.95L158.4,255.61L158.59,36.93L158.88,194.63L158.9,208.23L158.93,237.35L159.33,103.82L159.35,108.4L159.36,89.52L159.38,83.62L160.31,224.78L160.35,206.01L160.37,210.94L160.46,146.52L160.48,138.12L160.78,88.95L161.05,198.17L161.22,143.03L161.23,143.49L161.48,198.76L161.7,112.46L162.11,191.15L162.12,190.53L162.22,217.75L162.49,148.31L162.59,212.76L162.6,230.42L162.63,258.62L162.84,85.48L163.34,219.17L163.35,206.45L163.56,84.79L163.97,214.56L164.12,174.71L164.13,169.96L164.34,120.79L164.59,223.32L164.87,177.53L164.88,175.19L165.32,222.72L165.41,127.7L165.65,156.42L165.66,163.76L166.07,195.61L166.22,119.12L166.3,168.09L166.31,186.16L166.68,147.6L166.96,272.05L167.03,195.37L167.05,164.14L167.11,79.3L167.56,215.15L167.75,169.15L167.76,189.21L167.86,95.13L168.22,197.86L168.23,217.4L168.47,119.18L168.89,237.51L169.03,155.27L169.04,170.55L169.14,185.74L169.73,106.03L169.79,153.66L169.8,168.58L170.26,237.41L170.46,138.35L170.61,207.78L170.62,204.69L170.68,224.83L171.08,168.43L171.33,188.24L171.35,180.39L171.78,52.19L171.89,212.44L171.9,222.74L171.97,135.24L172.61,173.8L172.62,186.44L172.68,223.52L173.07,158.86L173.36,182.21L173.37,179.74L173.54,198.67L173.73,61.32L174.13,169L174.14,171.78L174.66,209.98L174.75,131.29L174.86,156.41L174.87,147.87L175.23,223.63L175.65,118.37L175.66,129.53L175.74,73.09L176.27,211.34L176.39,130.34L176.4,158.05L176.57,242.3L176.78,121.52L177.16,195.63L177.17,176.48L177.24,197.41L177.71,91.05L177.9,167.28L177.92,168.07L178.06,87.23L178.51,237.12L178.67,160.21L178.68,159.19L178.75,143.33L179.28,234.63L179.31,220.45L179.32,227.83L180.07,32.79L180.2,105.67L180.21,109.46L180.23,107.79L180.34,196.16L180.35,211.32L180.52,265.48L180.78,123.44L181.07,181.16L181.09,180.64L181.22,239.8L181.44,124.34L181.83,184.93L181.84,189.91L181.99,120.81L182.35,204.68L182.38,165.69L182.39,147.63L182.46,117.44L182.92,242.99L183.15,128.56L183.16,125.76L183.47,249.58L183.69,181.32L183.7,179.51L184.23,217.39L184.49,90.39L184.5,104.47L184.51,119.32L184.89,227.89L185.12,77.47L185.27,142L185.28,115.65L185.61,231.49L185.82,109.54L186.05,148.22L186.07,135.28L186.39,190.87L186.84,173.69L186.86,167.64L186.9,166.66L186.92,190.05L186.93,198.42L187.16,202.53L187.45,118.04L187.78,155.93L187.79,160.35L187.91,205.41L188.17,59.79L188.61,191.67L188.62,187.93L189.01,123.57L189.27,243.56L189.37,207.22L189.38,198.91L189.4,213.01L189.65,124.53L189.98,182.08L189.99,174.95L190.23,117.87L190.54,228.58L190.73,179.17L190.74,175.69L191.02,99.9L191.44,201.69L191.48,174.13L191.5,162.21L191.86,190.43L192.12,112.97L192.21,178.61L192.22,185.71L192.53,228.38L192.89,124.73L192.98,148.59L192.99,167.39L193,167.62L193.01,159.1L193.02,141.92L193.2,118.07L193.62,220.2L193.63,219.37L193.9,82.68L194.4,205.41L194.41,202.54L194.92,236.89L195.19,131.22L195.2,131.43L195.21,144.02L195.56,219.36L195.96,95.43L195.97,103.75L195.98,110.81L196.1,190.16L196.19,129.93L196.2,111.99L196.96,224.85L197.03,200.34L197.05,185.5L197.28,120.95L197.41,202.14L197.77,186.62L197.78,199.19L197.84,172.44L197.85,160.8L197.95,130.72L198.53,212.74L198.66,176.43L198.67,175.38L198.73,140.64L199.39,189.77L199.41,183.76L199.43,173.26L199.89,225.7L200.03,107.04L200.23,131.11L200.24,137.92L200.38,126.55L200.48,227.41L200.99,156.57L201.01,151.95L201.21,220.27L201.71,120.59L201.72,123.6L201.73,120.49L201.95,191.57L202.38,149.29L202.39,152.14L202.63,194.87L202.87,138.61L203.18,190.84L203.19,188.49L203.84,211.57L203.9,151.91L203.91,135.08L204.01,86.76L204.39,200.87L204.6,182.59L204.61,187.76L204.76,114.2L205.14,203.95L205.15,223.6L205.97,53.35L205.99,69.14L206.41,220.46L206.8,176.29L206.81,178.51L207.18,207.66L207.29,158.96L207.46,182.76L207.47,179.07L207.61,238.23L207.62,240.57L208.06,108.39L208.42,161.29L208.43,169.31L208.79,201.57L208.94,115.53L209.06,145.42L209.07,136.09L209.09,130.4L209.2,186.42L209.21,202.02L209.45,225.19L209.68,120.29L209.96,219.58L209.97,218.77L210.26,99.74L210.7,202.25L210.71,203.34L211.04,137.85L211.21,215.47L211.43,201.71L211.44,202.25L211.61,150.54L211.81,211.65L212.05,161.3L212.06,151.52L212.45,125.85L212.78,180.38L212.9,163.96L212.91,157.21L213.19,141L213.36,212.44L213.65,167.63L213.66,162.1L213.8,136.06L214.18,208.24L214.38,136.54L214.39,116.39L214.66,92.95L215.05,219.68L215.16,170.42L215.17,182.27L215.25,146.21L215.69,211.61L215.93,155.79L215.95,156.3L216.32,206.46L216.72,137.1L216.73,138.85L216.75,139.58L216.78,118.04L216.81,119.67L216.82,104.02L216.88,94.19L217.24,177.4L217.25,195.41L217.58,196.81L217.82,131.57L218.02,181.57L218.03,184.79L218.13,140.46L218.67,304L218.74,180.27L218.75,140.42L218.98,31.45L219.33,245.35L219.47,191.9L219.48,192.75L219.75,116.05L220.06,194.38L220.29,145.7L220.3,152.27L220.56,226.24L220.95,107.72L221.06,140.15L221.07,138.23L221.11,128.01L221.31,212.61L221.74,172.47L221.75,178.76L221.85,224.89L222.18,100L222.5,184.67L222.52,189.16L222.58,211.88L222.9,162.96L223.02,164.15L223.03,151.47L223.09,140.66L223.1,134.49L223.68,255.47L223.8,93.15L223.84,136.51L223.85,142.16L224.35,215.6L224.56,116.24L224.58,122.3L224.59,120.83L224.97,228.51L225.09,114.8L225.36,156.95L225.37,151.32L225.69,249.4L226,123.85L226.12,162.13L226.14,145.18L226.17,155.37L226.23,127.92L226.26,146.1L226.27,169.43L226.4,227.84L226.51,135.61L226.99,159.65L227,150.33L227.51,127.42L227.85,256.59L227.86,230.71L227.97,113.58L228.31,248.35L228.64,128.49L228.65,133.79L229.14,203.74L229.34,120.45L229.39,135.94L229.4,131.98L229.93,118.7L230.26,271.55L230.28,242.96L230.29,201.21L230.38,25.66L230.86,229L231.04,164.08L231.05,165.79L231.14,133.47L231.58,239.25L231.82,139.6L231.83,148.29L232.09,223.19L232.31,99.69L232.64,209.48L232.65,190.38L232.76,108.03L233.32,236.6L233.42,169.64L233.43,176.64L233.73,132.26L233.95,215.83L233.96,215.06L233.97,242.8L234.25,116.41L234.73,193.84L234.75,167.35L234.92,107.3L235.39,214.26L235.51,192.97L235.52,197.11L235.91,210.3L236.27,97.33L236.33,145.11L236.34,168.99L236.48,128.22L236.86,215.5L236.99,164.14L237.01,146.67L237.04,124.72L237.13,168.28L237.35,155.39L237.36,174.59L237.55,250.18L237.96,142.58L238.1,169.95L238.11,175.43L238.49,89.26L238.77,209.55L238.8,205.92L238.82,199.41L238.88,205.62L238.97,182.31L238.98,164.1L239.18,125.87L239.24,198.68L239.71,178.39L239.73,179.86L240.01,200.66L240.32,152.96L240.47,175.41L240.48,200.59L240.5,234.33L240.83,132.56L241.21,180.45L241.22,172.73L241.36,124.87L241.65,170.92L241.66,187.04L241.71,238.36L242.06,121.34L242.31,141.76L242.33,133.79L242.47,215.38L242.6,120.41L242.74,134.67L242.75,122.69L242.82,120.49L242.88,217.51L243.07,191.46L243.08,212.87L243.14,278.17L243.29,16L243.81,201.51L243.82,189.94L244.05,99.41L244.53,227.76L244.56,201.31L244.57,175.81L244.67,80.8L245.11,225.84L245.12,225.23L245.14,253.39L245.66,86.24L245.86,227.87L245.87,220.61L246.35,120.21L246.45,194.2L246.46,208.61L246.49,222.24L247.09,88.84L247.11,98.86L247.12,107.65L247.39,98.04L247.82,195.29L247.83,177.62L247.84,152.45L247.86,128.4L248.47,219.73L248.57,174.29L248.58,182.63L249.05,112.14L249.17,230.78L249.26,140.05L249.27,133.46L249.35,87.26L249.71,177.68L249.85,157.19L249.86,164.65L250.05,110.57L250.62,223.71L250.65,203.3L250.66,193.98L250.86,222.49L251.29,93.12L251.5,116.05L251.51,115.33L251.84,208.48L252.04,103.03L252.29,165.55L252.3,168.74L252.44,103.93L252.86,218.29L253.05,173.94L253.06,164.51L253.43,102.8L253.54,193.92L253.63,177.91L253.65,178.79L254.05,223.12L254.41,107.39L254.46,133.92L254.47,137.45L254.96,233.13L255.15,123.26L255.22,152.22L255.24,172.25L255.31,198.2L255.83,96.18L255.96,181.97L255.97,198.05L256.07,238.67L256.37,116.14L256.69,200.54L256.71,208.9L256.73,214.67L256.84,148.6L257.07,155.76L257.08,145.64L257.11,132.6L257.2,223.03L257.53,146.6L257.54,128.71L257.78,105.73L258.18,224.73L258.27,106.93L258.29,89.96L258.31,75.69L258.66,239.25L258.67,239.42L259.09,135.7L259.47,191.64L259.48,196.55L259.68,90.52L260.22,204.27L260.23,194.81L260.41,77.61L260.78,224.62L260.98,190.6L260.99,185.21L261.24,210L261.72,135.64L261.75,176.31L261.76,193.27L262.27,212.85L262.37,104.14L262.38,95.51L262.86,240.33L263.29,164.35L263.3,146.86L263.32,125.21L263.53,242.09L263.92,168.15L263.93,174.44L264.22,219.97L264.56,98.24L264.76,130.24L264.77,141.89L264.98,235.05L265.28,116.22L265.58,217.34L265.59,217.84L266.3,219.39L266.51,106.71L266.52,117.22L266.84,221.13L266.95,96.35L267.18,186.1L267.19,184.54L267.7,97.42L267.8,219.28L267.93,192.33L267.94,186.3L268.12,202.73L268.61,121.37L268.74,162.71L268.75,174.77L268.93,105.09L269.24,230.71L269.51,133.66L269.52,145.91L269.69,100.9L270,215.54L270.26,139.22L270.27,135.34L270.55,209.68L270.98,147.76L270.99,136.79L271.03,106.75L271.21,201.79L271.74,119.78L271.76,129.62L272.2,213.98L272.54,205.75L272.56,207.89L273.06,131.77L273.15,237.12L273.29,199.91L273.3,183.44L273.35,202.2L273.67,112.67L274.01,135.77L274.03,129.61L274.24,236.86L274.68,90.86L274.85,223.77L274.86,214.15L275.4,85.86L275.62,241.59L275.63,240.06L275.64,228.66L275.68,237.4L275.98,79.32L276.14,159.8L276.15,176.4L276.26,230.98L276.72,118.2L276.88,192.71L276.89,195.59L276.94,227.44L277.03,183.78L277.04,162.17L277.07,122.7L277.16,186.69L277.8,140.63L277.81,151.4L278.13,226.29L278.52,131.3L278.53,129.5L278.54,127.8L278.83,202.48L278.84,216.07L278.88,234.34L278.94,208.74L278.95,204.69L278.97,209.26L278.98,204.79L278.99,192.35L279.47,197.13L279.8,105.8L279.84,124.9L279.85,130.1L280.4,106.26L280.63,210.35L280.68,196.18L280.69,186.55L281.02,145.72L281.28,214.54L281.32,205.46L281.33,214.7L281.35,226.15L281.58,155.26L281.59,144.44L281.7,78.56L282.01,216.29L282.19,178.63L282.2,184.51L282.37,134.01L282.88,213.25L282.91,211.34L282.92,175.46L283.1,139.81L283.45,223.2L283.66,171.85L283.67,154.97L283.76,98.96L283.93,162.4L284.36,160.2L284.37,175.68L284.42,221.98L284.7,107.32L285.13,187.46L285.14,167.74L285.28,245.04L285.66,155.78L285.86,212.32L285.87,192.52L286.05,119.05L286.06,111.75L286.26,103.04L286.57,217.42L286.8,128.4L286.82,122.86L286.86,109.06L287.11,228.99L287.41,186.01L287.42,198.77L287.54,215.77L288,137.19L288.09,143.54L288.1,143.72L288.35,189.34L288.47,125.27L288.86,150.42L288.87,144.65L288.95,138.55L289.5,218.14L289.66,195.18L289.67,191.47L289.71,205.55L290.01,163.15L290.04,163.74L290.05,162.85L290.13,194.48L290.69,113.88L290.7,110.78L290.97,199.72L291.49,179.84L291.5,170.05L291.97,112.21L292.23,229.13L292.31,192.86L292.32,181.38L292.41,194.61L292.84,65.28L293.05,176.38L293.06,196.07L293.23,248.83L293.48,118.01L293.81,206.18L293.82,199.91L294.19,101.7L294.54,211.09L294.55,204.63L294.56,186.28L294.81,75.63L295.2,230.01L295.31,192.52L295.32,187.35L295.68,120.08L295.84,213.86L295.97,177.43L295.99,167.89L296.05,209.84L296.87,104.46L296.88,115.46L296.9,127.79L297.19,92.19L297.46,248.14L297.66,179.69L297.67,152.41L297.73,103.74L298.29,235.35L298.3,240.04L299.16,110.23L299.17,104.54L299.62,232.48L299.87,123.01L299.88,105.61L299.9,85.97L300.1,224.39L300.61,121.89L300.63,132.31L300.79,196.94L301.09,85.95L301.41,190.05L301.43,194.92L301.57,124.52L301.86,208.33L302.1,170.16L302.11,162.27L302.52,224.14L302.75,153.77L302.84,160.89L302.85,167.33L303.04,129.7L303.18,214.25L303.59,166.85L303.6,153.22L303.66,195.7L304,125.61L304.35,170.62L304.37,167.86L304.69,197.91L304.84,139.17L304.96,151.37L304.97,139.97L305.21,209.16L305.46,104.91L305.68,169.3L305.69,176.54L306.27,201.81L306.33,116.37L306.5,151.73L306.52,169.26L306.66,125.76L307.18,223.29L307.25,168.45L307.26,164.42L307.37,217.72L307.7,108.08L307.99,176.54L308,178.38L308.1,245.57L308.4,121.79L308.76,209.48L308.78,209.14L309.09,116.59L309.44,245.46L309.53,199.47L309.54,209.68L309.97,99.55L310.3,229.23L310.32,223.35L310.33,221L310.69,107.08L311.16,162.22L311.17,160.2L311.21,172.54L311.29,159.12L311.3,135.59L311.34,116.27L311.44,213.95L312.04,144.57L312.05,156.56L312.41,117.45L312.61,238.49L312.8,168.57L312.81,168.77L312.99,119.95L313.43,240.25L313.57,151.36L313.58,149.57L313.76,114.79L313.91,204.86L314.36,179.61L314.37,164.25L314.42,125.59L314.62,206.38L315.1,160.39L315.12,159.75L315.19,144.99L315.49,216.3L315.78,171.63L315.8,167.34L315.86,191.79L315.99,151.6L316.19,163.27L316.2,152.05L316.34,185.82L316.65,127.13L316.66,126.01L316.68,109.62L317.03,195.4L317.25,174.82L317.27,178.08L317.37,123.34L317.67,231.09L317.68,232.7L317.7,240.76L318.27,134.79L318.29,127.35L318.48,113.93L318.54,153.04L318.55,169.02L318.76,231.73L319.09,126.71L319.29,157.06L319.31,147.86L319.45,202.81L319.79,122.25L319.99,179.35L320,186.51L320.08,249.54L320.44,103.6L320.76,200.74L320.78,197.25L320.79,198.73L321.05,126.29L321.06,127.82L321.07,127.34L321.08,123.73L321.4,215.27L321.76,148.22L321.77,154.8L322.03,218.07L322.15,128.04L322.34,158.4L322.35,128.52L322.54,191.57L322.84,84.21L323.14,162.61L323.16,160.79L323.42,138.2L323.57,215.08L323.9,162.14L323.91,171.2L324.11,142.85L324.45,252.41L324.56,181.92L324.57,166.05L324.66,217.93L325.15,116.36L325.31,155.81L325.32,156.72L325.8,125.34L325.91,191.75L326.05,151.72L326.06,161.92L326.22,151.83L326.48,205.78L326.82,183.72L326.83,173.71L327.09,69.79L327.62,221.76L327.67,203.52L327.69,192.68L327.95,140.18L328.32,217.48L328.46,174.97L328.48,181.56L328.96,211.02L329.08,117.57L329.18,143.7L329.19,140.64L329.23,111.96L329.61,167.26L329.62,175.43L329.67,198.07L330.2,139.14L330.35,185L330.36,180.34L330.55,233.97L331.09,144.07L331.14,150.12L331.15,150L331.55,102.24L331.73,210.82L331.83,178.98L331.84,186.8L331.93,229.47L332.31,122.8L332.57,180.96L332.58,162.15L332.61,133.69L332.7,251.4L333.27,164.3L333.28,170.84L333.6,111.42L334,191.29L334.01,198.62L334.23,124.82L334.67,214.34L334.76,197.57L334.77,191.33L335.16,201.5L335.58,133.47L335.59,138.91L335.99,99.58L336.48,230.38L336.49,212.99L336.56,214.69L336.82,129.3L337.36,150.57L337.37,152.18L337.63,136.73L337.7,202.6L338.08,138.5L338.1,128.65L338.14,98.26L338.52,230.23L338.53,235.18L338.54,239.34L338.62,142.61L339.14,181.08L339.15,180.47L339.3,216.34L339.4,128.93L339.7,192.19L339.71,195.04L339.77,223.19L340.31,51.96L340.39,113.68L340.4,121.21L340.63,264.4L341.02,85.95L341.14,126.09L341.16,125.55L341.17,123.9L341.37,204.2L341.39,214.46L341.64,114.21L342.11,230.25L342.13,208.54L342.14,190.3L342.24,106.83L342.69,230.54L342.89,164.76L342.9,170.22L343.26,129.4L343.4,205.64L343.65,169.97L343.66,156.4L344.13,203.71L344.22,135.5L344.39,149.96L344.4,132.32L344.51,108.59L344.81,200.46L344.82,222.28L344.87,260.73L345.26,107.81L345.59,178.6L345.6,187.24L345.8,213.4L345.89,113.37L346.19,178.41L346.2,158.38L346.43,207.6L346.85,110.09L346.94,165.36L346.95,159.06L347.13,222.73L347.56,121.32L347.67,164.51L347.68,170.2L347.88,227.15L348.27,110.11L348.41,189.9L348.42,191.59L348.57,212.13L348.99,83.15L349.13,205.36L349.14,214.19L349.22,231.46L349.62,98.33L349.74,121.66L349.76,114.64L349.88,228.66L350.58,213.49L350.59,206.11L351.22,116.73L351.41,123.38L351.42,141.22L351.43,118.77L351.6,231.1L352.16,157.52L352.17,152.05L352.24,239.48L352.55,140.88L352.76,193.16L352.77,212.19L353.24,99.61L353.54,161.78L353.55,180.2L353.58,221.07L353.98,115.7L354.3,205.41L354.31,195.59L354.5,230.45L354.59,155.29L355.05,196.01L355.06,190.17L355.32,118.69L355.86,148.79L355.88,144.99L356.07,115.68L356.5,220.85L356.74,198.49L356.75,189.5L356.93,242.1L357.52,82.8L357.56,88.95L357.58,92.76L357.94,208.72L358.31,124.43L358.32,116.23L358.46,113.98L358.78,241.38L359.13,179.04L359.14,161.44L359.25,230.51L359.68,115.67L359.93,125.3L359.95,140.55L360.41,131.4L360.73,186.53L360.75,197.49L361.32,215.03L361.38,117.25L361.47,164.48L361.48,136.01L362,77.13L362.26,208.94L362.27,205.4L362.28,215.13L362.4,239.06L362.73,110.32L363.01,231.79L363.02,249.14L363.15,264.56L363.39,96.23L363.88,169.8L363.89,182.56L364.17,104.86L364.37,238.86L364.69,116.57L364.71,124.85L364.77,113.21L364.98,237.81L365.42,150.61L365.43,153.25L365.51,140.27L365.54,169.99L365.55,165.75L365.56,178.21L365.69,215.31L365.97,114.16L366.19,136.47L366.2,121.67L366.23,95.48L366.66,253.69L366.89,194.67L366.9,199.37L366.95,150.11L367.34,213.5L367.35,217.49L367.37,233.87L367.7,105.36L368.05,194.11L368.06,182.78L368.44,80.74L368.69,194.42L368.71,187.76L368.72,201.64L369.05,126.96L369.35,221.16L369.48,215.41L369.49,198.6L370.06,217.77L370.4,96.39L370.41,105.12L370.5,110.42L370.56,73.17L370.57,69.34L370.6,54.43L370.93,219.35L370.94,224.68L371.02,253.04L371.23,96.38L371.66,192.48L371.67,192.96L371.75,239.32L371.97,126.08L372.31,191.64L372.32,177.94L372.66,124.22L373.07,254.52L373.1,220.32L373.11,203.65L373.21,211.17L373.62,136.77L373.88,174.77L373.89,177.17L373.95,186.12L374,158.76L374.06,161.66L374.07,153.65L374.17,203.23L374.72,135.86L374.83,173.39L374.84,163.82L374.97,119.96L375.15,202.38L375.6,143.31L375.61,153.21L375.74,122.7L375.93,189.26L376.38,179.77L376.39,172.66L376.41,168.64L376.5,219.9L376.8,177.94L376.82,172.06L376.89,131.98L377,203.06L377.56,167.98L377.57,171.27L377.64,139.02L377.7,191.65L378.27,153.49L378.29,153.18L378.58,130.87L378.69,185.92L379.05,177.36L379.06,171.37L379.33,131.25L379.51,201.26L379.69,152.15L379.7,141.62L380.16,200.49L380.34,127.12L380.42,134.47L380.44,123.3L380.48,113.3L380.59,158.3L380.6,155.76L380.61,167.89L380.86,224.02L381.16,127.1L381.17,147.31L381.18,128.16L381.35,186.42L381.95,176.3L381.96,175.21L382.59,205.46L382.71,151.04L382.72,165.16L382.73,166.62L382.88,149.46L383.09,214.7L383.31,160.39L383.32,146.9L383.56,105.14L383.76,176.53L384.08,163.37L384.09,156.25L384.29,189.01L384.68,128.07L384.77,177.79L384.78,180.62L385.16,225.21L385.55,134.08L385.56,142.99L385.63,162.58L385.65,169.4L386.18,122.34L386.37,192.41L386.38,189.85L386.39,192.28L386.64,147.24L386.94,212.21L387.14,190.55L387.15,194.79L387.46,208.64L387.92,85.31L388.09,121.35L388.1,126.98L388.65,207.29L388.95,183.18L388.96,184.27L389.27,225.9L389.67,151.26L389.71,175.58L389.73,179.31L390.38,103.09L390.45,155.9L390.46,158.72L390.81,136.62L391.2,227.72L391.25,227.32L391.26,215.46L391.47,147.82L392.03,175.37L392.04,171.31L392.27,67.91L392.48,130.31L392.49,160.17L392.82,209.11L393.08,90.09L393.26,143.87L393.27,163.62L393.4,250.34L393.82,108.51L394.04,210.05L394.05,195.55L394.15,228.14L394.31,139.36L394.33,154.21L394.34,142.74L394.55,111.51L394.86,196.6L395.03,154.68L395.05,171.39L395.36,209.05L395.77,139.34L395.81,152.98L395.82,160.34L395.87,171.21L395.88,178.52L395.92,199.17L396.18,123.25L396.56,154.76L396.57,144.77L396.66,114.43L397.01,206.91L397.31,153.5L397.32,152.71L397.71,217.18L397.72,215.97L397.73,225.45L398.01,112.46L398.67,113.29L398.68,118.45L398.74,96.01L399.15,224.81L399.38,150.07L399.39,149.3L399.4,148.13L399.65,200.97L399.77,190.43L399.78,197.66L399.83,229.79L400.09,139.36L400.45,163.87L400.46,119.62L400.69,94.51L400.83,181.51L401.21,139.16L401.22,138.65L401.55,246.6L401.97,162.85L401.98,137.43L402.58,199.03L402.76,189.92L402.77,179.94L403.17,92.6L403.55,226.09L403.57,218.18L403.58,195.34L403.8,135.98L404.16,227.66L404.36,164.69L404.37,165.77L404.85,207.48L405.16,103L405.17,108.97L405.18,116.67L405.25,99.92L405.6,218.03L405.89,138.27L405.9,138.11L405.98,129.68L406.9,208.28L406.96,186.07L406.97,177.56L407.63,140.69L407.76,150.3L407.77,152.66L407.86,193.76L408.23,139.1L408.24,132.13L408.27,127.4L408.3,136.66L408.31,144.8L409.16,217.78L409.2,197.92L409.21,197.37L409.25,215.25L410.23,110.44L410.31,124.57L410.33,130.04L411.13,202.3L411.14,198.64L411.71,205.12L411.94,134.09L411.95,139.11L411.96,143.2L412.06,122.17L412.41,207.62L412.54,176.57L412.55,192L412.83,110.18L413.29,184.77L413.3,188.31L413.43,209.15L413.96,111.95L413.97,103.23L413.98,101.81L414.12,178.12L414.24,167.87L414.25,175.35L414.36,208.48L414.8,105.14L414.97,176.02L414.98,183.53L415.49,151.77L415.58,208.81L415.59,218.03L415.6,222.56L416.08,107.13L416.1,101.9L416.11,96.99L416.58,196.07L416.74,147.28L416.75,161.15L417.2,137.91L417.54,209.76L417.55,218.07L418.21,107.19L418.55,140.22L418.56,147.33L418.76,212.06L419.36,205.25L419.37,200.77L419.46,223.56L419.92,155.76L420.11,205.09L420.12,199.68L420.47,101.91L420.88,166.15L420.89,176.34L421.11,132.73L421.52,213.82L421.63,191.8L421.65,194.06L422,239.39L422.22,138.65L422.28,168.56L422.29,148.53L422.3,161.54L422.56,98.3L423.04,149.23L423.05,147.59L423.16,127.75L423.69,198.99L423.7,206.3L423.71,210.22L424.3,164.61L424.43,203.69L424.44,198.22L424.93,115.39L425.27,158.36L425.28,158L426.13,227.42L426.19,209.27L426.2,201.72L426.8,121.77L427.06,139.79L427.07,149.25L427.62,131.39L427.81,205.68L427.94,202.39L427.95,197.12L428.24,119.44L428.51,190.27L428.52,208.33L428.54,216.73L428.9,140.69L428.95,141.75L428.96,131.37L429.04,111.08L429.43,209.35L429.67,168.08L429.69,166.94L429.75,142.78L430.28,185.92L430.42,161.41L430.43,158.55L430.56,145.5L430.84,201.46L431.01,182.24L431.02,163.44L431.35,126.54L431.67,210.04L431.69,208.3L431.7,212.25L432.55,145.35L432.56,144.67L432.81,197.63L433.24,113.62L433.29,153.91L433.31,151.59L433.85,197.94L433.97,146.36L434.01,161.14L434.02,161.7L434.16,215.96L434.68,141.47L434.79,188.55L434.8,191.67L435.56,101.11L435.7,134.99L435.71,139.61L435.72,136.34L436.14,222.61L436.38,158.11L436.39,163.06L436.78,219.26L436.96,118.74L437.16,149.97L437.17,161.88L437.27,211.4L437.77,122.74L437.9,146.88L437.91,143.44L438.52,218.68L438.72,172.15L438.73,169.64L438.78,185.16L439.03,142.2L439.43,179.6L439.44,191.22L439.49,192.54L439.51,172.86L439.52,161.19L439.71,216.94L439.99,91.2L440.05,101.86L440.06,101.07L440.44,191.1L440.86,151.65L440.87,148.13L441.43,139.64L441.54,201.86L441.63,190.07L441.64,185.33L441.85,200.98L441.98,138.69L441.99,132.86L442.07,108.71L442.89,191.98L442.91,184.26L442.93,179.66L442.97,205.77L443.37,134.37L443.39,129.2L443.4,127.51L443.61,201.31L443.69,199.22L443.7,203.68L443.76,217.44L444.26,117.73L444.52,186.83L444.53,196.56L444.55,202.35L444.64,156.85L444.65,156.79L444.82,128.77L445.25,185.9L445.33,149.38L445.34,144.99L445.36,139.1L445.9,202.6L445.92,199.58L445.93,202.67L445.97,221.48L446.46,130.84L446.47,122.66L446.49,113.72L446.91,183.59L447.18,144.34L447.19,146.79L447.44,145.32L447.96,227.27L448.12,194.95L448.14,189.45L448.28,202.98L448.5,109.94L448.9,176.08L448.91,176.31L448.97,183.16L449.16,155.41L449.17,141.62L449.19,138.59L449.23,146.79L449.24,153.27L449.48,119.38L449.79,204.07L450.02,180.73L450.03,179.8L450.32,219.51L450.84,111.95L450.89,123.04L450.9,142.98L450.91,142.19L451.11,178.23L451.12,176.56L451.13,188.85L451.41,118.98L451.69,223.59L451.88,180.11L451.89,183.54L451.94,205.45L452.02,183.31L452.03,160.34L452.42,226.83L452.78,126.11L452.81,134.4L452.82,133.35L453.09,113.4L453.21,178.72L453.28,168.72L453.29,173.81L453.36,208.68L453.6,121.57L454.01,178.84L454.03,166.99L454.56,199.61L454.76,151.03L454.78,161.3L454.79,175.52L454.85,205.15L455.29,137.62L455.51,149.8L455.52,140.93L455.57,134.01L455.82,196.5L456.04,191.72L456.05,204.39L456.15,142.92L456.54,206.14L456.64,193.67L456.65,208.07L457.47,92.24L457.65,123.45L457.66,136.35L457.9,236.23L458.31,130.19L458.42,159.95L458.44,172.15L458.59,202.32L459.16,153.13L459.18,167.07L459.19,167.51L459.59,105.19L459.93,203.38L459.95,199.23L459.96,195.34L460.05,190.45L460.09,207.2L460.15,196.8L460.16,182.42L460.26,138.4L460.64,210.23L460.89,183.18L460.9,180.1L461.13,219.88L461.7,60.39L461.71,69.78L461.73,74.03L462.1,230.42L462.53,171.96L462.54,172.93L462.82,236.64L463.03,146.03L463.26,180.11L463.27,185.62L463.48,220.35L463.89,95.91L464,170.78L464.01,176.09L464.22,226.5L464.39,126.58L464.67,171.95L464.68,182.59L464.74,209.88L465.14,157.01L465.42,175.72L465.43,173.78L465.47,183.87L465.98,117.7L466.01,125.82L466.03,124.36L466.09,93.64L466.42,203.73L466.75,149.23L466.76,154.57L467.13,224.89L467.46,150.82L467.5,153.49L467.51,150.04L467.86,196.43L468.24,124.38L468.3,138.31L468.31,146.7L468.45,133.89L469.09,215.75L469.12,198.29L469.13,198.71L469.31,229.81L469.71,132.38L469.96,150.12L469.97,165.41L470.46,86.53L470.78,216.61L470.79,222.84L471.1,134.55L471.65,166.24L471.66,171.5L471.8,135.85L471.92,194.19L472.35,165.72L472.37,151.53L472.55,103.38L472.96,215.14L473.06,184.7L473.07,187.69L473.28,145.77L473.64,214.73L473.9,151.19L473.91,168.29L474.16,222.09L474.71,98.23L474.81,126.22L474.82,133.17L475.32,211.57L475.46,103.47L475.58,141.98L475.59,138.95L475.68,124.72L475.77,154.2L475.78,168.76L476.06,206.14L476.42,143.91L476.56,205.22L476.57,212.05L476.58,212.26L476.61,197.79L476.62,192.85L477.06,129.36L477.28,193.52L477.5,155.37L477.51,158.16L477.6,106.05L478.05,204.32L478.32,173.83L478.33,173.61L478.64,208.44L478.74,151.23L479.05,155.32L479.06,154.53L479.11,132.53L479.36,194.71L479.81,137.68L479.82,149.36L480.09,114.8L480.18,179.7L480.2,178.81L480.21,189.91L480.29,209.56L480.8,138.11L480.91,181.43L480.92,172.46L481.44,102.29L481.6,202.42L481.63,193.18L481.65,194.76L482,124.32L482.39,186.33L482.4,196.81L482.44,201.52L482.76,144.72L483.08,173.29L483.09,167.53L483.18,215.82L483.48,80.39L483.88,205.91L483.89,210.22L484.17,116.19L484.69,153.33L484.71,159.7L484.87,155.62L485.25,228.47L485.46,166.77L485.47,165.3L485.65,109.99L485.99,222.37L486.01,221.98L486.02,219.9L486.18,105.82L486.64,172.59L486.65,177.18L486.84,138.57L487.22,220.47L487.34,175.65L487.35,169.27L487.85,53.32L488.15,226.39L488.16,218.71L488.17,215.16L488.53,115.69L488.87,216.5L488.95,185.75L488.96,190.94L489.25,138.69L489.44,219.32L489.65,172.28L489.66,162.2L489.97,93.26L490.35,222.57L490.37,224.99L490.38,225.42L490.42,195.11L490.43,184.9L490.57,119.57L490.96,190.28L490.97,196.17L491.31,153.37L491.52,228.81L491.59,187.54L491.61,179.35L491.88,220.91L492.11,37.45L492.36,177.26L492.37,180.7L492.53,251.38L492.87,83.13L493.03,132.24L493.04,131.73L493.07,128.53L493.17,212.68L493.49,168.22L493.5,159.79L493.57,127.57L493.68,189.71L493.69,192.62L493.72,201.9L494.22,131.07L494.23,126.13L494.28,104.61L494.7,183.48L494.96,135.2L494.97,131.88L494.98,131.25L495.05,172.14L495.06,183.21L495.4,228.56L495.65,156.26L495.82,211.45L495.83,201.94L495.87,205.97L495.93,177.85L495.94,159.59L496.07,194.55L496.65,91.57L496.72,120.83L496.73,131.53L497.06,223.75L497.55,196.84L497.56,197.55L497.71,208.62L498.27,132.19L498.33,157.51L498.34,171.15L498.79,84.56L499.14,203.68L499.15,192.65L499.54,150.14L499.8,218.35L499.89,187.92L499.9,180.18L500.4,199.69L500.7,86.53L500.76,115.34L500.78,123.55L500.84,108.25L501.08,187.07L501.09,194.18L501.31,209.36L501.66,128.47L501.88,186.28L501.89,192.15L502.08,203.42L502.37,154L502.62,187.6L502.63,186.95L502.88,111.87L503.18,202.31L503.37,183.92L503.39,189.5L503.43,179.56L503.47,192.82L503.48,204.67L503.5,211.08L503.79,139.06L504.05,155.62L504.07,146.44L504.13,136.61L504.56,196.53L504.83,164.96L504.84,163.04L505.07,112.96L505.18,176.58L505.2,186.63L505.29,209.9L505.37,124.13L505.96,197.84L505.97,201.08L506.29,138.07L506.58,215.75L506.71,185.05L506.72,197.42L506.98,107.78L507.25,217.75L507.51,158.38L507.52,161.18L507.88,194.27L508.1,138.9L508.22,174.3L508.23,151.21L508.4,203.92L508.99,187.38L509,181.59L509.23,112.2L509.7,216.56L509.75,186.52L509.76,190.51L509.85,208.13L510.22,102.72L510.58,158.26L510.59,172.06L510.8,139.72L511.36,196.7L511.37,188.86L511.38,184.94L511.56,108.56L511.9,217.56L512.11,193.1L512.12,180.41L512.35,131.82L512.67,205.81L512.87,171.08L512.88,180.03L512.98,153.24L513.04,184.1L513.1,182.27L513.12,189.19L513.14,187.23L513.19,198.63L513.2,198.41L513.21,203.42L513.4,251.91L513.74,110.29L513.95,206.46L513.96,204.2L514.1,208.9L514.43,107.92L514.78,167.7L514.79,178.74L514.99,133.81L515.25,177.67L515.27,177.99L515.44,230.88L515.88,125.38L516.11,148.21L516.12,153.14L516.19,124.02L516.52,176.1L516.53,185.74L516.56,170.32L516.57,153.69L516.59,141.34L517.29,185.48L517.31,180.01L517.69,226.64L517.88,161.47L517.9,169.97L517.91,149.37L518.11,105.26L518.61,191.56L518.65,150.86L518.67,139.65L518.88,191.13L519.41,152.35L519.42,140.15L519.56,199.68L519.58,209.28L519.7,258.28L519.75,225.27L519.76,203.71L519.88,208.89L520.45,96.15L520.68,143.02L520.69,148.17L520.96,205.4L521.2,130.29L521.4,166.12L521.41,158.45L521.43,154.05L521.74,224.47L522.04,200.49L522.05,209.95L522.15,223.11L522.33,151.71L522.34,139.48L522.54,73.43L522.67,122.79L522.68,136.46L522.92,220.01L523.26,109.98L523.55,196.59L523.56,192.68L523.8,222.23L523.97,143.64L524.18,165.93L524.19,160.35L524.24,180.69L524.61,84.09L524.92,160.67L524.93,168.79L525.18,211.32L525.35,138.39L525.65,164.94L525.66,161.33L526.21,215.41L526.33,103.07L526.38,127.63L526.39,126.68L526.55,103.13L527.18,201.37L527.24,186.81L527.25,185.35L527.51,132.04L527.88,245.49L527.9,236.01L527.91,236.73L528.35,129.95L528.76,135.15L528.77,143.19L528.82,153.79L528.86,126.26L528.87,126.39L528.88,112.55L529.04,97.36L529.11,145.48L529.12,153.82L529.71,134.83L529.8,204.6L529.89,170.77L529.9,164.05L530.08,199.67L530.38,143.64L530.65,151.28L530.67,160.61L531.12,186.22L531.37,117.33L531.44,146.42L531.46,154.98L531.8,232.67L532.12,150.56L532.24,189.04L532.26,177.42L532.76,131.55L532.9,210.85L532.97,171.56L532.98,158.8L533.35,80.68L533.66,223.17L533.68,219.2L533.69,213.34L534.12,116.1L534.47,181.92L534.48,183.43L534.75,126.17L535.15,159.49L535.16,165.11L535.32,129.29L535.54,190.71L535.83,184.26L535.84,188.87L535.92,232.67L536.25,138.25L536.52,161.49L536.53,160.7L536.56,149.96L537.19,206.39L537.2,206.36L537.21,219.87L537.6,118.09L537.96,205.65L537.97,222.37L538.05,238.93L538.52,94.77L538.71,208.86L538.72,223.05L538.74,228.9L538.96,151.08L538.99,160.41L539,153.11L539.16,132.01L539.42,204.09L539.76,146.78L539.77,152.77L539.96,192.27L540.35,130.68L540.49,142.89L540.5,135.46L540.52,133.99L540.63,177.8L540.64,181.32L540.71,200.44L540.78,160.02L541.35,188.03L541.36,208L541.39,224.28L541.89,87L542.04,141.49L542.05,134.42L542.3,201.46L542.64,104.29L542.79,138.64L542.8,133.83L543.04,243.91L543.59,181.39L543.6,181.65L543.74,235.75L544.09,93.38L544.24,119.09L544.26,110.5L545.14,202.51L545.17,191.34L545.18,189.32L545.3,219.11L545.57,168.58L545.86,203.34L545.87,217.77L545.92,233.58L546.24,108.25L546.25,95.13L546.29,78.02L546.69,197.79L546.93,132.38L546.94,147.5L547.03,92.96L547.27,211.09L547.68,167.25L547.69,179.8L548.07,216.83L548.31,114.42L548.52,134.76L548.53,143.96L549.18,218.67L549.47,191.33L549.48,182.82L549.63,158.09L550.01,218.56L550.06,166.32L550.07,161.59L550.08,162.31L550.32,128.51L550.33,120.64L550.65,56.08L551.1,241.63L551.17,209.64L551.18,203.5L551.99,134.07L552,128.49L552.11,205.16L552.64,149.4L552.65,133.44L552.66,125.78L553.15,206.17L553.31,199.35L553.32,211L553.66,153.82L553.8,211.23L554.13,175.62L554.14,185.99L554.93,90.85L554.97,125.52L554.98,126.84L555.31,229.45L555.76,156.55L555.77,158.43L556.04,203.68L556.38,132.22L556.55,187.24L556.56,179.36L556.95,125.79L557.24,204.74L557.34,195.29L557.35,188.3L557.86,149.72L557.99,224.18L558.04,177.2L558.05,163.34L558.15,184.38L558.34,129.54L558.81,175.78L558.82,163.97L558.93,181.57L558.98,157.41L558.99,151.11L559.16,99.49L559.65,212.94L559.7,181.91L559.71,182.22L560.06,116.41L560.37,209.59L560.52,127.96L560.53,135.54L560.57,121.54L561.08,233.32L561.27,154.06L561.28,149.9L561.58,203.98L561.96,118.56L561.97,120.78L561.98,118.59L562,111.18L562.6,198.03L562.62,185.57L562.63,187.65L562.96,146.15L563.07,203.69L563.33,164.82L563.34,157.52L563.7,173.64L563.91,119.67L564.05,155.97L564.07,144.6L564.14,117.59L564.55,211.31L564.79,166.78L564.8,173.48L565.14,249.05L565.52,165.41L565.54,161.67L565.78,104.44L566.22,205.46L566.26,186.86L566.27,183.09L566.28,183.44L566.33,164.75L566.34,166.05L566.35,151.37L566.6,115.4L566.99,227.41L567.1,182.77L567.12,159.11L567.58,230.06L567.84,148.94L567.85,133.9L567.97,59.1L568.38,234.76L568.57,177.66L568.59,168.45L568.67,119.19L569.03,209.06L569.05,220.35L569.06,221.2L569.3,181.44L569.31,176.64L569.56,213.52L570.05,102.23L570.1,110.9L570.11,117.34L570.18,114.3L570.69,200.93L571.04,195.44L571.05,188.11L571.23,225.33L571.58,143.92L571.84,168.66L571.85,177.54L571.88,183.71L572.1,93.09L572.56,176.08L572.57,179.49L572.98,156.57L573.13,212.31L573.33,202.28L573.35,203.33L573.36,206.8L573.71,135.52L573.89,141.52L573.9,133.48L573.99,192.02L574.4,118.31L574.57,146.79L574.59,139.47L574.71,130.05L574.99,199.95L575.37,182.66L575.39,185.02L575.51,203.06L575.99,131.61L576.02,144.15L576.03,141.79L576.19,197.78L576.37,126.51L576.73,134L576.75,122.86L576.79,91.63L576.9,137.97L576.91,157.46L577.18,224.48L577.59,101.65L577.72,127.35L577.73,123.12L577.97,207.01L578.54,170.78L578.56,174.64L578.67,209.3L578.93,118.45L579.28,175.28L579.29,197.27L579.33,233.32L579.73,138.68L579.94,159.82L579.95,152.41L580.34,201.68L580.43,149.99L580.53,189.35L580.54,201.5L580.57,216.58L580.87,92.67L581.13,135.43L581.14,132.45L581.44,127.32L581.53,197.39L581.88,150.04L581.89,147.23L581.92,134.53L582.54,219.45L582.65,160.16L582.66,155.03L582.77,215.95L583.13,99.46L583.39,154.59L583.4,153.12L583.48,198.77L583.63,129.23L584.07,180.97L584.08,182.62L584.14,205.69L584.33,149.24L584.8,168.52L584.81,168.76L584.9,223.25L585.5,101.71L585.6,140.47L585.61,151.29L586.01,114.07L586.39,230.5L586.43,192.96L586.44,188.88L586.85,237.66L587.21,147.77L587.22,157.61L587.43,209.94L587.7,116.37L587.85,149.35L587.86,140.17L587.9,112.01L588.5,231.68L588.61,130.98L588.63,127.43L588.65,123.01L589.01,225.06L589.23,163.54L589.24,176.38L589.66,77.45L589.97,211.89L590,202.75L590.01,203.96L590.04,222.17L590.37,113.21L590.75,207.31L590.76,190.2L590.82,203.66L591.07,140.43L591.37,197.34L591.38,200.08L591.43,217.49L591.81,99.34L592.14,189.98L592.15,199.85L592.66,208.51L592.76,134.73L592.85,175.43L592.86,173.42L592.99,209.23L593.07,156.5L593.23,161.21L593.24,152.03L593.29,133.53L593.43,171.18L593.54,169.92L593.55,176.66L593.66,219.88L593.75,150.23L593.76,143.62L593.85,93.84L594.31,221.39L594.49,158.14L594.5,157.12L594.71,129.43L594.8,167.33L594.9,164.18L594.91,176.61L595.07,229.5L595.33,118.8L595.61,153.95L595.62,145.18L595.77,205.64L595.9,120.92L596.35,183.79L596.36,165.44L596.5,231.42L596.64,140.03L596.96,197.8L596.97,203.4L597.03,222.59L597.13,153.67L597.67,193.15L597.69,187.99L597.95,211.68L598.27,90.66L598.33,120.87L598.34,108.45L598.37,105.68L598.68,237.15L599.14,163.87L599.16,157.48L599.42,188.38L599.71,132.14L599.77,173.68L599.78,191.77L599.8,206.08L600.26,120.43L600.49,154.61L600.5,161.46L600.95,122.79L601.17,196.18L601.25,168.77L601.26,160.99L601.76,139.28L602.17,222.87L602.19,202.64L602.2,194.84L602.53,93.95L602.75,212.73L602.76,217.74L603.25,96.83L603.46,180.51L603.47,194.15L603.63,159.69L604.19,224.65L604.24,221.29L604.26,221.25L604.68,102.01L605.18,158.38L605.19,160.17L605.2,160.78L605.34,127.25L605.46,131.22L605.47,128.69L606.3,198.95L606.31,181.97L606.54,254.63L606.77,118.99L607.14,157.01L607.15,166.34L607.44,192.22L607.58,132.48L607.76,181.14L607.77,195.96L607.88,147.16L608,212.8L608.47,194.55L608.48,201.23L608.51,203.21L609.01,122.49L609.3,144.34L609.31,151.69L609.78,148.52L609.88,219.26L610.08,173.22L610.09,170L610.18,192.18L610.43,153.97L610.77,161.31L610.78,153.22L611.17,56.46L611.55,221.14L611.58,196.64L611.59,186.6L611.84,147.89L612.12,195.48L612.19,190.55L612.2,193.33L612.21,205.76L612.48,145.68L612.93,174.3L612.94,175.03L612.98,200.73L613.34,101.27L613.67,155.44L613.68,156.18L614.25,212.15L614.47,200.27L614.48,201.4L614.56,219.2L615.05,153.23L615.1,163.8L615.12,155.16L615.5,76.38L615.94,195.12L615.95,193.82L615.99,198.78L616.29,133.75L616.69,188.26L616.71,193.85L617.39,211.95L617.53,119.76L617.55,121.01L617.56,131.88L617.57,127.22L618.16,189.84L618.18,189.04L618.19,188.14L618.33,113.24L618.58,206.68L618.73,188.4L618.75,194.88L618.78,196.36L618.81,168.08L618.82,157.4L618.88,135.23L619.25,223.96L619.5,211.18L619.51,218.26L620.03,130.36L620.29,177.12L620.3,181.44L620.39,200.3L620.73,136.93L620.74,132.75L621.06,110.66L621.19,180.03L621.47,149.44L621.48,157.33L621.54,134.22L621.69,208.13L622.22,159.14L622.23,164.36L622.59,200.6L622.71,120.48L622.93,139.8L622.94,131.57L622.96,125.19L622.98,134.21L623.01,133.45L623.02,146.07L623.34,179.75L623.45,129.23L623.53,173.56L623.54,188.45L623.64,223.1L623.97,103.1L624.3,204.14L624.31,205.39L624.88,130.09L625.13,141.66L625.14,153.51L625.37,144.51L625.76,208.38L625.86,168.1L625.88,172.13L625.94,209.88L626.31,127.5L626.52,151.94L626.53,144.29L626.71,203.57L626.85,130.84L627.26,155.05L627.27,154.19L627.31,145.91L627.44,208.96L627.94,187.38L627.95,189.05L628.15,209.24L628.75,95.13L628.79,130.59L628.8,134.56L628.98,118.77L629.57,206.91L629.61,187.8L629.62,188.07L630.02,278.51L630.18,153.67L630.34,176.64L630.35,171.44L630.76,207.72L630.93,64.98L631.14,95.32L631.15,101.33L631.16,99.37L631.4,179.41L631.44,178.99L631.45,190.86L631.65,138.36L631.96,219.82L632.12,177.18L632.13,173.63L632.45,228.72L632.83,100.77L632.93,152.83L632.94,160.32L632.99,175.28L633.09,133.81L633.65,161.44L633.66,169.95L634.28,136.75L634.4,228.09L634.48,201.77L634.49,193.34L634.62,213.25L635.06,112.54L635.3,146.25L635.31,157.95L635.63,189.74L635.92,161.98L635.93,154.64L636.01,151.93L636.12,197.45L636.73,173.93L636.75,173.17L636.83,194.54L637,108.49L637.5,179.42L637.51,177.69L637.67,153.79L637.74,178.85L637.76,183.04L637.9,143.39L638.01,195.12L638.3,167.26L638.31,166.82L638.39,117.72L638.74,210.47L638.96,153.77L638.97,160.52L639.13,135.79L639.8,208.05L639.83,196.14L639.84,183.84L640.14,216.93L640.56,157.49L640.6,166.51L640.61,171.24L640.67,181.58L641.06,110.09L641.28,130.43L641.29,122.25L641.34,108.18L641.8,167.73L641.81,168.85L642.11,194.88L642.24,177.35L642.25,174.94L642.34,194.21L643,153.79L643.03,156.56L643.04,166.78L643.14,198.13L643.66,136.21L643.77,155.47L643.78,156L643.86,120.39L644.47,202.89L644.48,199.46L644.59,164.09L644.6,157.88L644.63,143.55L645.03,228.32L645.33,172.33L645.35,169.76L645.63,199.13L646.11,97.3L646.12,102.04L646.14,111.06L646.97,210.94L646.99,200.52L647,197.19L647.01,197.95L647.1,155.68L647.11,146.29L647.61,210.26L647.91,172.11L647.92,162.47L648.07,118.9L648.42,172.42L648.68,154.95L648.69,153.51L649.09,134.38L649.69,220.15L649.72,219.17L649.73,219.38L649.78,221.7L650.42,115.43L650.62,171.38L650.63,172.23L650.76,153.08L650.81,189.94L650.82,193.44L650.83,203.27L650.99,135.57L651.54,169.94L651.55,167.97L651.62,215.7L652.24,166.66L652.26,163.89L652.53,199.83L652.69,107.9L652.97,166.32L652.98,174.93L653.03,201.18L653.12,177L653.13,161.94L653.23,127.5L653.82,222.05L653.84,217.98L654.5,98.08L654.63,129.21L654.64,135.17L654.65,122.98L654.99,218.19L655.36,163.64L655.37,162.06L655.41,143.69L655.79,227.32L656.11,170.48L656.12,160.48L656.6,99.06L656.9,126.18L656.91,123.52L656.92,123.29L656.96,138.22L656.97,154.4L657.19,221.28L657.78,188.1L657.8,176.42L657.89,163.95L657.97,209.51L658.23,184.95L658.24,174.85L658.95,110.99L659,149.1L659.01,164.96L659.17,109.71L659.59,207.55L659.78,177.85L659.79,170.46L659.95,233.42L660.33,135.59L660.34,134.81L660.35,134.3L660.38,166.92L660.39,174.01L660.46,195.2L660.73,138.39L660.95,146.18L660.97,132.25L661.01,109.29L661.59,208.74L661.61,199.53L661.62,199.74L661.71,149.83L662.29,220.84L662.35,201.33L662.36,200.38L662.9,133.84L663.1,180.43L663.12,186.71L663.33,113L663.77,215.63L663.86,196.19L663.87,186.66L664.09,140.95L664.34,170.68L664.35,179.25L664.62,233.39L664.75,154.09L665.01,169.57L665.02,155.05L665.4,91.55L665.71,195.09L665.73,197.21L665.81,238.73L666.23,124.12L666.39,173.52L666.41,171.2L666.69,116.5L666.99,201.63L667.02,199.09L667.03,207.08L667.04,209.69L667.43,118.23L667.44,108.2L667.45,108.04L667.48,115.13L667.49,122L667.85,226.67L668.25,148.46L668.26,148.21L668.67,126.45L669.02,186.82L669.05,177.14L669.06,174L669.1,148.48L669.26,211.99L669.8,166.69L669.81,169.57L670.24,217.39L670.41,147.44L670.42,145.64L670.51,122.48L670.99,189.93L671.11,171.04L671.12,171.88L671.27,115.72L671.45,201.07L671.78,169.74L671.79,162.12L672.12,204.94L672.57,122.16L672.58,129.84L673.37,195.6L673.41,187.77L673.43,180.76L674,205.57L674.1,83.21L674.2,149.14L674.22,164.59L674.4,129.22L674.91,188.75L674.92,190.05L675.13,161.46L675.24,216.36L675.67,195.87L675.69,197.01L675.97,201.67L676.2,128.46L676.21,120.48L676.28,79.37L676.69,184.87L676.82,183.18L676.83,190.07L677.01,112.47L677.17,205.77L677.48,176.52L677.5,182.39L677.86,237.89L678.23,99.9L678.31,134.12L678.32,141.49L678.72,102.72L679.11,215.81L679.15,203.72L679.16,204.25L679.46,148.07L679.81,233.33L679.88,204.98L679.89,196.91L679.99,237.24L680.58,106L680.69,138.1L680.7,148.07L680.99,208.91L681.42,144.37L681.44,145.91L681.46,151.69L681.76,216.05L682.26,192.47L682.27,189.32L682.59,92.98L682.94,203.3L683.03,177.45L683.05,176.64L683.42,138.33L683.61,188.8L683.62,195.99L683.9,161.21L684.07,205.15L684.27,182.06L684.29,175.91L684.53,111.17L685.05,194.16L685.06,189.99L685.6,157.42L685.74,209.3L685.79,201.15L685.8,203.38L686.11,127.13L686.22,214.7L686.46,156.14L686.47,151.76L686.91,111.56L687.18,185.06L687.2,178.84L687.21,184.7L687.35,223.95L687.83,139.21L687.99,209.8L688,198.96L688.12,209.44L688.4,123L688.75,185.98L688.76,189.4L689.09,107.57L689.48,207.34L689.5,207.66L689.54,217.71L689.58,193L689.59,189.74L689.7,193.88L689.75,159.32L689.86,193.87L689.87,200.09L690.02,209.7L690.31,125.98L690.63,187.01L690.64,199.46L690.65,207.55L690.94,92.73L691.36,178.58L691.37,178.03L691.48,152.97L691.6,189.83L691.76,186.63L691.77,194.32L691.94,223.87L692.46,143.58L692.53,184.04L692.54,186.99L692.56,188.28L692.61,154.56L692.76,158.71L692.78,148.84L692.96,188.6L693.54,95.24L693.56,119.88L693.58,128.8L693.59,122.29L693.86,222.51L694.29,154.57L694.3,157.25L694.54,201.54L694.97,144.01L695,166.65L695.01,178.49L695.09,194.3L695.42,132.29L695.79,163.98L695.8,171.22L696.05,206.52L696.42,147.07L696.43,144.18L696.49,142.31L697.02,231.49L697.26,196.19L697.27,190.16L697.62,147.72L697.73,197.27L697.8,175.44L697.81,165.69L698.25,187.95L698.59,131.71L698.6,122.89L698.61,114.03L699.07,201.28L699.3,164.79L699.31,164.69L699.42,246.8L699.8,100.7L700.04,182.08L700.05,177.86L700.17,221.16L700.28,148.53L700.32,150.62L700.33,136.99L700.52,114.13L700.8,194.05L701.05,155.83L701.06,154.54L701.08,153.48L701.58,240.63L701.69,179.55L701.7,175.88L701.91,130.23L701.92,120.56L702,148.48" style="vector-effect: non-scaling-stroke; fill: none; stroke: rgb(127, 127, 127); stroke-opacity: 1; stroke-width: 2px; opacity: 1;"/></g><g class="points"/><g class="text"/></g></g></g><g class="overplot"/><path class="xlines-above crisp" d="" style="fill: none; stroke-width: 1px; stroke: rgb(0, 0, 0); stroke-opacity: 0;"/><path class="ylines-above crisp" d="" style="fill: none; stroke-width: 1px; stroke: rgb(0, 0, 0); stroke-opacity: 0;"/><g class="overlines-above"/><g class="xaxislayer-above"><path class="xtick ticks crisp" d="M0,421v5" transform="translate(80,0)" style="stroke: rgb(51, 51, 51); stroke-opacity: 1; stroke-width: 1px;"/><path class="xtick ticks crisp" d="M0,421v5" transform="translate(167.75,0)" style="stroke: rgb(51, 51, 51); stroke-opacity: 1; stroke-width: 1px;"/><path class="xtick ticks crisp" d="M0,421v5" transform="translate(255.5,0)" style="stroke: rgb(51, 51, 51); stroke-opacity: 1; stroke-width: 1px;"/><path class="xtick ticks crisp" d="M0,421v5" transform="translate(343.25,0)" style="stroke: rgb(51, 51, 51); stroke-opacity: 1; stroke-width: 1px;"/><path class="xtick ticks crisp" d="M0,421v5" transform="translate(431.01,0)" style="stroke: rgb(51, 51, 51); stroke-opacity: 1; stroke-width: 1px;"/><path class="xtick ticks crisp" d="M0,421v5" transform="translate(518.76,0)" style="stroke: rgb(51, 51, 51); stroke-opacity: 1; stroke-width: 1px;"/><path class="xtick ticks crisp" d="M0,421v5" transform="translate(606.51,0)" style="stroke: rgb(51, 51, 51); stroke-opacity: 1; stroke-width: 1px;"/><path class="xtick ticks crisp" d="M0,421v5" transform="translate(694.26,0)" style="stroke: rgb(51, 51, 51); stroke-opacity: 1; stroke-width: 1px;"/><path class="xtick ticks crisp" d="M0,421v5" transform="translate(782.01,0)" style="stroke: rgb(51, 51, 51); stroke-opacity: 1; stroke-width: 1px;"/><g class="xtick"><text text-anchor="middle" x="0" y="444" transform="translate(80,0)" style="font-family: 'Open Sans', verdana, arial, sans-serif; font-size: 15px; fill: rgb(51, 51, 51); fill-opacity: 1; white-space: pre;">0</text></g><g class="xtick"><text text-anchor="middle" x="0" y="444" transform="translate(167.75,0)" style="font-family: 'Open Sans', verdana, arial, sans-serif; font-size: 15px; fill: rgb(51, 51, 51); fill-opacity: 1; white-space: pre;">500</text></g><g class="xtick"><text text-anchor="middle" x="0" y="444" transform="translate(255.5,0)" style="font-family: 'Open Sans', verdana, arial, sans-serif; font-size: 15px; fill: rgb(51, 51, 51); fill-opacity: 1; white-space: pre;">1000</text></g><g class="xtick"><text text-anchor="middle" x="0" y="444" transform="translate(343.25,0)" style="font-family: 'Open Sans', verdana, arial, sans-serif; font-size: 15px; fill: rgb(51, 51, 51); fill-opacity: 1; white-space: pre;">1500</text></g><g class="xtick"><text text-anchor="middle" x="0" y="444" transform="translate(431.01,0)" style="font-family: 'Open Sans', verdana, arial, sans-serif; font-size: 15px; fill: rgb(51, 51, 51); fill-opacity: 1; white-space: pre;">2000</text></g><g class="xtick"><text text-anchor="middle" x="0" y="444" transform="translate(518.76,0)" style="font-family: 'Open Sans', verdana, arial, sans-serif; font-size: 15px; fill: rgb(51, 51, 51); fill-opacity: 1; white-space: pre;">2500</text></g><g class="xtick"><text text-anchor="middle" x="0" y="444" transform="translate(606.51,0)" style="font-family: 'Open Sans', verdana, arial, sans-serif; font-size: 15px; fill: rgb(51, 51, 51); fill-opacity: 1; white-space: pre;">3000</text></g><g class="xtick"><text text-anchor="middle" x="0" y="444" transform="translate(694.26,0)" style="font-family: 'Open Sans', verdana, arial, sans-serif; font-size: 15px; fill: rgb(51, 51, 51); fill-opacity: 1; white-space: pre;">3500</text></g><g class="xtick"><text text-anchor="middle" x="0" y="444" transform="translate(782.01,0)" style="font-family: 'Open Sans', verdana, arial, sans-serif; font-size: 15px; fill: rgb(51, 51, 51); fill-opacity: 1; white-space: pre;">4000</text></g></g><g class="yaxislayer-above"><path class="ytick ticks crisp" d="M79,0h-5" transform="translate(0,375.2)" style="stroke: rgb(51, 51, 51); stroke-opacity: 1; stroke-width: 1px;"/><path class="ytick ticks crisp" d="M79,0h-5" transform="translate(0,317.59000000000003)" style="stroke: rgb(51, 51, 51); stroke-opacity: 1; stroke-width: 1px;"/><path class="ytick ticks crisp" d="M79,0h-5" transform="translate(0,259.98)" style="stroke: rgb(51, 51, 51); stroke-opacity: 1; stroke-width: 1px;"/><path class="ytick ticks crisp" d="M79,0h-5" transform="translate(0,202.37)" style="stroke: rgb(51, 51, 51); stroke-opacity: 1; stroke-width: 1px;"/><path class="ytick ticks crisp" d="M79,0h-5" transform="translate(0,144.76)" style="stroke: rgb(51, 51, 51); stroke-opacity: 1; stroke-width: 1px;"/><g class="ytick"><text text-anchor="end" x="71" y="5.25" transform="translate(0,375.2)" style="font-family: 'Open Sans', verdana, arial, sans-serif; font-size: 15px; fill: rgb(51, 51, 51); fill-opacity: 1; white-space: pre;">0.4</text></g><g class="ytick"><text text-anchor="end" x="71" y="5.25" transform="translate(0,317.59000000000003)" style="font-family: 'Open Sans', verdana, arial, sans-serif; font-size: 15px; fill: rgb(51, 51, 51); fill-opacity: 1; white-space: pre;">0.2</text></g><g class="ytick"><text text-anchor="end" x="71" y="5.25" transform="translate(0,259.98)" style="font-family: 'Open Sans', verdana, arial, sans-serif; font-size: 15px; fill: rgb(51, 51, 51); fill-opacity: 1; white-space: pre;">0</text></g><g class="ytick"><text text-anchor="end" x="71" y="5.25" transform="translate(0,202.37)" style="font-family: 'Open Sans', verdana, arial, sans-serif; font-size: 15px; fill: rgb(51, 51, 51); fill-opacity: 1; white-space: pre;">0.2</text></g><g class="ytick"><text text-anchor="end" x="71" y="5.25" transform="translate(0,144.76)" style="font-family: 'Open Sans', verdana, arial, sans-serif; font-size: 15px; fill: rgb(51, 51, 51); fill-opacity: 1; white-space: pre;">0.4</text></g></g><g class="overaxes-above"/></g></g><g class="polarlayer"/><g class="ternarylayer"/><g class="geolayer"/><g class="pielayer"/><g class="sunburstlayer"/><g class="glimages"/><defs id="topdefs-258f55"><g class="clips"/><clipPath id="legend258f55"><rect width="172" height="33" x="0" y="0"/></clipPath></defs><g class="layer-above"><g class="imagelayer"/><g class="shapelayer"/></g><g class="infolayer"><g class="legend" pointer-events="all" transform="translate(796.04, 100)"><rect class="bg" shape-rendering="crispEdges" width="172" height="33" x="0" y="0" style="stroke: rgb(68, 68, 68); stroke-opacity: 1; fill: rgb(255, 255, 255); fill-opacity: 1; stroke-width: 0px;"/><g class="scrollbox" transform="translate(0, 0)" clip-path="url('#legend258f55')"><g class="groups" transform="translate(0, 0)"><g class="traces" transform="translate(0, 16.25)" style="opacity: 1;"><text class="legendtext user-select-none" text-anchor="start" x="40" y="5.85" style="font-family: 'Open Sans', verdana, arial, sans-serif; font-size: 15px; fill: rgb(51, 51, 51); fill-opacity: 1; white-space: pre;">class=jackhammer</text><g class="layers" style="opacity: 1;"><g class="legendfill"/><g class="legendlines"><path class="js-line" d="M5,0h30" style="fill: none; stroke: rgb(127, 127, 127); stroke-opacity: 1; stroke-width: 2px;"/></g><g class="legendsymbols"><g class="legendpoints"/></g></g><rect class="legendtoggle" pointer-events="all" x="0" y="-11.25" width="212" height="22.5" style="cursor: pointer; fill: rgb(0, 0, 0); fill-opacity: 0;"/></g></g></g><rect class="scrollbar" rx="20" ry="3" width="0" height="0" x="0" y="0" style="fill: rgb(128, 139, 164); fill-opacity: 1;"/></g><g class="g-gtitle"><text class="gtitle" x="490" y="50" text-anchor="middle" dy="0em" style="font-family: 'Open Sans', verdana, arial, sans-serif; font-size: 21px; fill: rgb(51, 51, 51); opacity: 1; font-weight: normal; white-space: pre;">time vs amplitude</text></g><g class="g-xtitle"><text class="xtitle" x="431" y="484" text-anchor="middle" style="font-family: 'Open Sans', verdana, arial, sans-serif; font-size: 18px; fill: rgb(51, 51, 51); opacity: 1; font-weight: normal; white-space: pre;">time(ms)</text></g><g class="g-ytitle"><text class="ytitle" transform="rotate(-90,34,260)" x="34" y="260" text-anchor="middle" style="font-family: 'Open Sans', verdana, arial, sans-serif; font-size: 18px; fill: rgb(51, 51, 51); opacity: 1; font-weight: normal; white-space: pre;">amplitude</text></g></g></svg>