<svg class="main-svg" xmlns="http://www.w3.org/2000/svg" xmlns:xlink="http://www.w3.org/1999/xlink" width="980" height="500" viewBox="0 0 980 500"><rect x="0" y="0" width="980" height="500" style="fill: rgb(255, 255, 255); fill-opacity: 1;"/><defs id="defs-337473"><g class="clips"><clipPath id="clip337473xyplot" class="plotclip"><rect width="750" height="320"/></clipPath><clipPath class="axesclip" id="clip337473x"><rect x="80" y="0" width="750" height="500"/></clipPath><clipPath class="axesclip" id="clip337473y"><rect x="0" y="100" width="980" height="320"/></clipPath><clipPath class="axesclip" id="clip337473xy"><rect x="80" y="100" width="750" height="320"/></clipPath></g><g class="gradients"/></defs><g class="bglayer"><rect class="bg" x="80" y="100" width="750" height="320" style="fill: rgb(237, 237, 237); fill-opacity: 1; stroke-width: 0;"/></g><g class="layer-below"><g class="imagelayer"/><g class="shapelayer"/></g><g class="cartesianlayer"><g class="subplot xy"><g class="layer-subplot"><g class="shapelayer"/><g class="imagelayer"/></g><g class="gridlayer"><g class="x"><path class="xgrid crisp" transform="translate(173.75,0)" d="M0,100v320" style="stroke: rgb(255, 255, 255); stroke-opacity: 1; stroke-width: 1px;"/><path class="xgrid crisp" transform="translate(267.5,0)" d="M0,100v320" style="stroke: rgb(255, 255, 255); stroke-opacity: 1; stroke-width: 1px;"/><path class="xgrid crisp" transform="translate(361.25,0)" d="M0,100v320" style="stroke: rgb(255, 255, 255); stroke-opacity: 1; stroke-width: 1px;"/><path class="xgrid crisp" transform="translate(455.01,0)" d="M0,100v320" style="stroke: rgb(255, 255, 255); stroke-opacity: 1; stroke-width: 1px;"/><path class="xgrid crisp" transform="translate(548.76,0)" d="M0,100v320" style="stroke: rgb(255, 255, 255); stroke-opacity: 1; stroke-width: 1px;"/><path class="xgrid crisp" transform="translate(642.51,0)" d="M0,100v320" style="stroke: rgb(255, 255, 255); stroke-opacity: 1; stroke-width: 1px;"/><path class="xgrid crisp" transform="translate(736.26,0)" d="M0,100v320" style="stroke: rgb(255, 255, 255); stroke-opacity: 1; stroke-width: 1px;"/></g><g class="y"><path class="ygrid crisp" transform="translate(0,375.2)" d="M80,0h750" style="stroke: rgb(255, 255, 255); stroke-opacity: 1; stroke-width: 1px;"/><path class="ygrid crisp" transform="translate(0,317.59000000000003)" d="M80,0h750" style="stroke: rgb(255, 255, 255); stroke-opacity: 1; stroke-width: 1px;"/><path class="ygrid crisp" transform="translate(0,202.38)" d="M80,0h750" style="stroke: rgb(255, 255, 255); stroke-opacity: 1; stroke-width: 1px;"/><path class="ygrid crisp" transform="translate(0,144.77)" d="M80,0h750" style="stroke: rgb(255, 255, 255); stroke-opacity: 1; stroke-width: 1px;"/></g></g><g class="zerolinelayer"><path class="xzl zl crisp" transform="translate(80,0)" d="M0,100v320" style="stroke: rgb(255, 255, 255); stroke-opacity: 1; stroke-width: 1px;"/><path class="yzl zl crisp" transform="translate(0,259.99)" d="M80,0h750" style="stroke: rgb(255, 255, 255); stroke-opacity: 1; stroke-width: 1px;"/></g><path class="xlines-below"/><path class="ylines-below"/><g class="overlines-below"/><g class="xaxislayer-below"/><g class="yaxislayer-below"/><g class="overaxes-below"/><g class="plot" transform="translate(80, 100)" clip-path="url('#clip337473xyplot')"><g class="scatterlayer mlayer"><g class="trace scatter trace2d6898be-d60d-47fb-9cbe-b9a3328b7b54" style="stroke-miterlimit: 2; opacity: 1;"><g class="fills"/><g class="errorbars"/><g class="lines"><path class="js-line" d="M0,159.99L0.49,195.34L0.63,108.06L0.64,93.07L1.51,236.61L1.52,218.97L1.54,193.05L1.85,94.09L2.29,174.46L2.3,192.37L2.38,119.31L2.92,215.51L3.02,192.05L3.04,180.51L3.19,201.91L3.63,113.18L3.8,149.04L3.81,149.8L3.87,101.12L3.98,140.82L4,149.25L4.18,159.75L4.49,70.02L4.7,128.17L4.71,124.2L4.97,111.17L5.1,223.14L5.48,163.24L5.5,170.4L6.09,243.87L6.15,114.5L6.16,102.35L6.2,158.52L6.21,179.94L6.38,93.4L6.82,201.29L6.94,171.75L6.95,166.5L7.03,212.8L7.31,98.34L7.7,169.85L7.71,179.36L7.77,238.05L7.93,122.93L8.39,157.97L8.4,157.56L8.46,121.98L8.53,197.01L8.91,142.51L8.92,133.96L8.98,194.01L9.56,125.97L9.57,107.88L9.67,187.91L9.88,104.87L10.15,142.05L10.16,120.04L10.18,88.63L10.61,187.64L10.9,119.33L10.91,122.2L10.98,116.03L11.12,201.81L11.72,169.45L11.73,156.43L12.32,224.73L12.49,110.21L12.5,125.03L12.55,124.5L12.96,230.85L13.29,171.51L13.3,147.25L13.43,75.18L14,204.73L14.02,201.9L14.03,198.29L14.25,215.05L14.52,122.09L14.79,159.46L14.8,162.85L14.92,193.38L15.2,97.33L15.5,150.07L15.52,137.74L15.93,192.05L16.13,116.24L16.16,155.89L16.17,169.01L16.24,115.87L16.45,200.5L16.9,153.43L16.91,135.23L16.96,234.86L17.22,96.74L17.53,123.45L17.54,113.47L17.63,159.39L17.66,157.21L17.67,169.87L17.71,228.35L18.11,85.2L18.4,124L18.41,119.91L18.5,213.96L18.82,106.76L19.05,165.44L19.07,156.3L19.18,209.54L19.76,112.78L19.8,152.26L19.82,157.66L19.9,114.87L20.31,245.31L20.54,178.49L20.56,175.32L20.94,205.76L21.14,124.55L21.29,191.99L21.31,181.47L21.42,189.53L21.93,89.26L22.07,132.93L22.08,147.69L22.35,101.21L22.42,234.41L22.76,177.5L22.77,155.86L22.82,56.13L23.29,210.77L23.52,145.28L23.53,157.1L23.73,219.08L24.08,78.67L24.23,128.27L24.25,116.83L24.6,207.2L24.94,100.04L24.96,133.57L24.97,161.07L25.08,117.35L25.51,208.85L25.71,150.19L25.72,157.6L26.18,211.01L26.32,124.78L26.33,97.1L26.48,217.17L26.66,80.77L26.89,181.52L26.91,200.4L26.92,204.85L27.31,128.47L27.5,142.39L27.52,127.67L27.61,92.43L28.09,216.01L28.22,152.68L28.23,181.11L28.45,110.11L28.78,211.95L28.95,177.21L28.96,159.81L29.02,101.68L29.65,206L29.68,200.53L29.7,201.88L29.98,222.25L30.12,112.35L30.47,161.89L30.48,173.62L30.55,189.5L30.72,99.74L30.82,154.87L30.83,174.46L31.24,84.44L31.48,186.35L31.58,179.44L31.59,177.23L31.68,117.59L32.16,223.09L32.17,225.96L32.36,76.16L32.94,154.45L32.95,148.16L33.09,194.53L33.19,57.56L33.33,144.82L33.34,168.47L33.46,78.07L33.73,236.58L34.09,183.09L34.1,173.96L34.56,208.58L34.71,108.34L34.85,166.55L34.86,178.32L35.17,180.18L35.59,97.87L35.63,130.37L35.64,145.75L35.72,207.06L35.75,175.02L35.77,132.67L35.94,191.86L36.11,89.55L36.5,186.61L36.52,204.65L36.62,148.36L36.94,221.18L37.18,152.44L37.2,144.99L37.31,196.28L37.61,119.35L37.68,190.66L37.69,204.32L37.7,210.22L38.05,94.32L38.34,146.74L38.36,141.35L38.75,106.42L38.98,238.67L38.99,238.77L39.75,125.75L39.77,170.94L39.79,180.42L40.02,193.41L40.61,42.26L40.63,78.07L40.64,98.18L41.34,210.85L41.4,167.5L41.41,153.11L41.46,167.34L41.5,126.51L41.52,164.99L41.53,198.99L41.54,214.93L41.99,109.45L42.25,157.31L42.26,153.79L42.76,238.81L43.02,101.54L43.03,107.12L43.04,138.17L43.44,232.85L43.66,100.32L43.79,162.03L43.81,150.31L44.22,217.26L44.49,43.59L44.53,164.3L44.54,190.4L44.56,193.53L44.59,93.17L44.6,79.58L44.77,218.85L45.24,54.34L45.41,142L45.42,138.54L45.77,214.44L45.88,118.89L46.17,138.65L46.18,127.9L46.32,108.71L46.78,224.07L46.95,175.95L46.96,167.14L47.13,247.64L47.6,61.07L47.7,161.66L47.71,168.39L47.78,116.69L47.98,195.52L48.09,118.67L48.11,109.61L48.12,104.97L48.63,211.59L48.68,177.61L48.69,200.16L49.01,217.24L49.06,136.37L49.07,109.32L49.08,102.59L49.47,206.64L49.76,147.13L49.77,147.86L49.9,107.26L50.3,212.38L50.52,158.76L50.53,145.32L50.75,92.01L50.97,218.68L51.24,184.61L51.25,188.99L51.8,91.7L51.96,198.45L52,158.8L52.01,158.85L52.07,97.3L52.28,262.32L52.79,202.8L52.81,176.42L53.17,200.32L53.54,85.22L53.57,122.48L53.58,153.72L53.87,222.3L54.16,89.08L54.18,77.49L54.59,217.48L54.96,135.33L54.97,129.43L55.1,110.01L55.74,194.82L55.76,187.93L55.77,181.89L55.81,130.3L56.11,291.8L56.53,159.17L56.54,151.6L56.71,206.61L57.24,69.93L57.36,121.84L57.38,146.94L57.43,213.71L57.94,79.86L58.14,175.38L58.15,186.92L58.28,250.06L58.93,106.46L58.95,106.56L58.96,100.14L58.99,111.55L59,124.97L59.6,222.33L59.66,115.42L59.8,189.21L59.81,184.28L60.09,92.19L60.45,200.85L60.5,180.75L60.52,189.15L60.65,246.77L61.06,68.43L61.25,163.98L61.27,164.43L61.43,229.45L61.86,114.98L61.95,136.69L61.96,110.62L62.51,218.55L62.6,92.8L62.68,125.5L62.7,122.94L62.74,65.79L63.35,205.86L63.36,227.48L63.39,269.48L64.03,107.04L64.04,122.68L64.06,142.65L64.23,112.74L64.61,242L64.82,165.56L64.83,161.3L64.97,217.5L65.33,121.94L65.4,182.23L65.42,193.03L65.45,206.13L65.71,109.78L66.13,169.08L66.14,134.82L66.15,134.12L66.2,169.87L66.21,185.68L66.25,216.74L66.38,111.79L66.88,141.8L66.89,115.87L66.92,55.49L67.36,254.63L67.63,127.79L67.64,148.22L67.92,79.44L68.17,186.52L68.38,141.53L68.39,133.66L68.58,81.3L68.91,231.56L69.07,193.1L69.08,229.14L69.5,268.7L69.59,136.5L69.79,143.28L69.8,118.31L69.93,114.55L70.02,178.03L70.31,159.19L70.33,168.44L70.35,188.75L70.72,79.02L71.08,177.28L71.09,170.77L71.4,95.79L71.76,230.2L71.81,208.22L71.83,225.12L71.85,249.82L72.01,97.62L72.55,203.02L72.56,186.43L73.13,71.16L73.2,191.34L73.26,183.28L73.27,194.96L73.43,247.69L73.88,101.05L73.92,126L73.93,103.05L73.95,102.69L73.96,106.51L73.97,126.23L74.31,68.95L74.71,228.38L74.78,207.68L74.79,196.09L75.05,86.51L75.55,143.71L75.56,150.69L75.62,227.57L76.2,142.5L76.27,171.44L76.28,156.02L76.76,94.06L76.81,198.21L77.05,132.58L77.06,148.72L77.58,112.41L77.68,219.35L77.81,177.7L77.83,161.5L77.95,125.15L78.22,234L78.54,184.77L78.55,186.65L78.73,74.35L79.09,199.22L79.33,102.65L79.34,125.39L79.48,203.78L79.55,100.29L80.13,176.16L80.15,179.47L80.32,129.88L80.47,228.58L80.49,248.64L80.51,265.37L80.95,108.16L81.17,138.77L81.18,143.95L81.22,104.62L81.29,178.68L81.31,185.05L81.59,63.63L81.95,185.58L82.06,148.27L82.07,172.75L82.44,90.15L82.79,282.58L82.85,233.36L82.86,201.45L82.99,71.3L83.58,228.12L83.59,237.2L83.91,100.77L84.36,176.68L84.38,192.65L84.43,232.5L85.14,89.03L85.18,145.16L85.2,156.87L85.4,89.69L85.67,173.23L85.91,166.59L85.92,183.82L86.15,99.13L86.61,268.88L86.66,203.54L86.67,183.12L86.8,237.46L87.33,97.98L87.43,146.41L87.45,144.55L87.49,185.56L87.55,89.39L87.56,81.91L88.37,202.46L88.41,159.15L88.42,147.01L88.61,224.65L88.84,119.97L89.16,159.22L89.17,159.15L89.2,152.01L89.23,182.66L89.24,200.17L89.25,219.95L89.71,96.74L89.94,137.32L89.95,116.49L89.97,98.28L90.01,185.5L90.68,134.54L90.69,136.67L91.33,220.71L91.38,127.02L91.45,154.29L91.47,149.1L92.08,87.21L92.16,190.05L92.23,125.27L92.24,136.91L92.53,97.24L92.79,195.55L93,164.53L93.01,163.75L93.38,112.66L93.58,203.91L93.75,168.91L93.76,154.4L93.96,106.09L94.41,224.08L94.49,167.67L94.5,170.89L94.56,219.84L94.86,110.89L95.03,143.39L95.04,125.44L95.22,215.96L95.52,119.76L95.76,126.67L95.77,88.36L95.78,79.33L96.31,244.93L96.4,170.42L96.41,201.36L96.44,226.67L97.04,48.01L97.13,136.81L97.14,97.47L97.15,83.09L97.61,225.23L97.86,113.54L97.88,135.81L98.44,47.9L98.6,203.99L98.64,163.76L98.65,179.6L98.72,66.59L98.91,213.32L99.36,154.08L99.38,135.46L99.39,127.86L99.67,262.09L100.03,195.48L100.04,212.38L100.61,86.8L100.81,167.9L100.82,168.95L101.18,105.51L101.29,226.09L101.51,192.26L101.52,208.28L101.53,209.19L101.56,144.38L101.57,129.81L101.72,215.46L101.79,101.32L102.2,167.45L102.21,192.44L102.27,222.86L102.76,59.91L102.92,152.47L102.93,140.91L103.27,107.89L103.47,219.51L103.65,160.37L103.67,161.96L103.86,227.77L104.2,117.4L104.4,147.57L104.42,122.54L104.77,95.91L105.08,211.28L105.15,144.96L105.17,152.39L105.56,90.81L105.95,253.32L105.96,249.03L105.97,216.46L106.61,229.26L106.68,96.44L106.72,164.94L106.74,185.57L106.96,73.86L107.01,197.63L107.11,182.44L107.12,191.21L107.47,212.74L107.72,79.79L107.88,142L107.9,146.88L108.1,270.36L108.59,80.37L108.65,132.9L108.66,158.44L108.75,67.16L108.8,169.11L108.81,178.9L109.21,95.08L109.33,195.16L109.55,157.3L109.56,168.86L110.05,263.75L110.24,120.97L110.32,196.22L110.33,186.17L110.58,197.84L110.65,103.27L111.05,192.25L111.06,204.88L111.07,205.39L111.08,181.69L111.1,151.32L111.55,81.24L111.66,179.85L111.83,153L111.85,169.29L112.23,219.06L112.58,126.45L112.6,145.07L113.06,197.94L113.13,102.96L113.35,151.43L113.36,143.59L113.84,199.6L114.11,97.62L114.12,116.87L114.13,130.09L114.35,91.62L114.44,216.27L114.88,140.61L114.89,131.2L115.28,228.68L115.49,113.07L115.58,184.74L115.6,208.99L115.97,237.12L116.13,119.55L116.31,169.39L116.32,192.69L116.63,276.49L117,119.74L117.01,123.79L117.03,116.14L117.26,63.74L117.53,209.95L117.75,129.2L117.76,131.62L118.01,86.88L118.09,205.58L118.31,192L118.33,192.38L118.41,126.11L118.78,264.62L119.04,150.93L119.05,109.41L119.44,66.08L119.53,194.51L119.77,150.21L119.78,154.79L120.07,60.42L120.25,225.05L120.47,221.82L120.48,234.16L120.52,304L120.92,105.35L121.17,111.06L121.19,100.02L121.5,157.48L121.68,72.97L121.94,90.47L121.95,90.11L121.96,83.1L122.46,249.16L122.47,272.16L122.5,292.38L122.59,130.11L123.13,195.53L123.14,200.25L123.19,231.6L123.75,108.38L123.86,174.57L123.87,159.09L124.04,85.02L124.09,197.57L124.58,177.46L124.6,207.17L124.92,112.05L125.12,222.57L125.28,154.41L125.29,134.7L125.72,76.05L125.9,193.5L126.04,125.51L126.05,144.24L126.27,117.96L126.42,195.45L126.44,211.13L126.46,233.47L127,103.42L127.17,182.38L127.19,198.93L127.29,183.04L127.36,219.04L127.4,185.44L127.41,171.36L127.44,200.37L127.78,83.48L127.89,87.67L127.9,55.54L127.91,43.67L128.52,200.65L128.53,199.47L128.62,133.3L129.06,264.39L129.27,211.8L129.28,209.39L129.41,246.73L129.46,207.11L129.47,189.38L129.55,219.61L130.15,48.01L130.26,127.29L130.27,136.23L130.74,80.27L130.96,188.28L131.01,127.96L131.02,152.31L131.53,240.15L131.67,140.58L131.69,116.89L131.7,106.94L131.83,234.59L132.41,143.16L132.42,142.94L132.71,91.26L132.97,196.56L133.02,191.47L133.03,196.63L133.23,260.75L133.34,122.59L133.65,171.85L133.67,150.74L133.83,191.3L134.32,45.97L134.42,138.4L134.43,141.61L134.52,100.22L135.18,222.7L135.2,188.82L135.21,178.53L135.28,139.75L135.51,214.07L135.68,183.69L135.69,194.94L135.82,207.95L136.12,100.65L136.21,124.86L136.22,112.13L136.26,54.12L136.58,203.35L136.94,139.66L136.95,145.74L137.05,112.83L137.74,244.35L137.76,233.2L137.77,194.09L137.93,238.39L138.31,63.34L138.56,99.3L138.58,91.37L139.38,223.16L139.43,175.23L139.44,159.65L139.84,155.41L140.11,232.04L140.18,166.18L140.19,146.26L140.28,163.23L140.84,54L140.99,94.41L141,113.25L141.28,102.8L141.68,270.78L141.83,223.02L141.85,218.84L142.07,226.75L142.48,101.84L142.49,80.48L142.64,69.44L142.72,150.43L143.01,122.19L143.02,139.59L143.25,52.83L143.73,220.37L143.89,196.93L143.9,196.33L143.96,214.15L144.67,108.57L144.69,155.85L144.71,193.29L144.87,102.84L145.3,261.24L145.44,146.73L145.46,141.42L145.57,230.73L146.01,135.13L146.19,145.51L146.21,132.51L146.37,115.62L146.62,179.39L146.74,121.32L146.76,107.43L146.98,16L147.34,153.62L147.42,151.58L147.44,175.46L147.51,126.34L148.14,226.92L148.17,168.77L148.19,153.52L148.28,222.22L148.87,101.5L148.92,178.22L148.94,142.19L149.17,26.36L149.46,245.54L149.69,119.76L149.7,111.36L149.91,273.72L150.06,98.66L150.48,184.95L150.49,176.3L150.61,203.45L150.95,115.19L151.1,155.36L151.12,131.43L151.33,63.5L151.65,206.94L151.85,160.22L151.87,167.17L152.24,128.38L152.59,255.51L152.62,215.9L152.63,173.17L152.72,189.42L153.24,80.29L153.39,119.51L153.4,123.49L153.51,65.33L153.87,222.53L154.1,166.63L154.12,206.49L154.53,230.16L154.81,105.45L154.82,101.95L155.21,182.88L155.52,91.69L155.58,127.44L155.59,126.29L156.07,236.54L156.3,147.39L156.31,127.61L156.58,205.76L156.99,67.31L157.03,136.5L157.05,148.32L157.16,93.22L157.74,233.57L157.81,173.62L157.82,156.75L157.96,113.37L158.21,248.87L158.55,182.72L158.56,200.05L158.66,223.75L159.33,48.16L159.35,104.83L159.37,144.04L159.39,171.41L159.55,61.93L160.1,111.54L160.12,89.36L160.13,79.91L160.57,217.61L160.8,150.41L160.81,174.19L160.83,230.5L161.51,112.65L161.53,134.27L161.55,134.81L161.87,195.35L162.18,93.46L162.21,129.42L162.23,146.71L162.28,129.89L162.73,235.05L162.98,155.61L162.99,151.54L163.07,208.12L163.29,115.96L163.3,95.64L163.67,76.88L163.77,178.14L163.78,186.38L163.97,235.29L164.26,84.48L164.4,196.76L164.42,214.34L164.52,267.03L165.08,68.41L165.19,147.71L165.2,140.05L165.3,166.74L165.74,73.27L165.93,150.44L165.94,160.64L165.99,133.85L166.32,223.87L166.34,215.29L166.35,224.16L166.37,227.9L166.43,200.12L166.44,190.75L166.81,241.22L167.51,59.63L167.64,114.17L167.65,136.23L167.74,53.09L168.23,249.19L168.42,174.37L168.44,182.62L168.65,136.81L168.69,253.59L168.87,157.82L168.88,133.49L168.93,202.91L169.17,84.33L169.19,74.96L169.64,187.99L169.88,104.69L169.89,70.22L169.9,55.42L170.24,263.52L170.57,163.19L170.58,201.33L170.66,110.8L170.86,231.21L171.3,135.54L171.31,132.76L171.49,94.68L171.69,209.05L172.06,119.85L172.07,124.79L172.13,83.92L172.82,209.35L172.88,175.16L172.89,170.72L173.01,194.74L173.46,78.69L173.6,133.35L173.62,134L174.13,68.32L174.35,230.68L174.38,188.24L174.39,179.75L174.54,268.26L174.8,107.21L175.17,234.26L175.19,237.2L175.2,245.07L175.67,79.32L175.76,111.56L175.77,101.31L175.99,75.93L176.36,183.27L176.45,180.33L176.46,183.84L176.59,130.81L176.7,246.98L177.13,205.79L177.14,208.86L177.18,225.85L177.44,106.92L177.59,128.1L177.6,112.89L177.73,206.2L178.17,95.28L178.24,122.4L178.26,162.87L178.4,85.86L178.62,272.09L178.99,136.02L179.01,144.95L179.3,209.77L179.64,94.21L179.76,166.28L179.77,135.82L180.23,36.74L180.47,219.39L180.52,133.08L180.53,150.96L181.05,85.74L181.28,240.13L181.3,205.27L181.32,191.34L181.49,251.83L181.8,69.23L182.04,213.72L182.05,229.16L182.07,229.5L182.08,209.8L182.41,100.12L182.67,221.07L182.84,154.72L182.85,146.02L183.13,117.67L183.34,228.73L183.58,170.03L183.59,182.94L183.61,207.65L184.08,77.63L184.3,109.85L184.32,106.93L184.34,84.44L184.57,241.33L185.03,151.61L185.04,166.79L185.12,105.52L185.5,286.25L185.8,129.55L185.82,153.2L185.98,41.45L186.58,173.37L186.59,173.44L186.65,152.2L186.78,257.04L186.89,174.23L186.91,158.52L186.98,197.3L186.99,220.64L187.17,160.9L187.48,254.44L187.5,179.83L187.51,125.14L187.68,198.27L187.94,67.9L188.22,146.81L188.23,162.46L188.43,118.18L188.5,208.15L188.89,180.05L188.9,198.95L189,248.01L189.41,87.96L189.61,171.49L189.62,154.29L190.03,245.07L190.4,87.18L190.41,107.66L190.49,49.01L190.87,245.91L191.21,224.45L191.22,223.05L191.3,81.01L191.87,237.32L192.01,129.75L192.03,125.57L192.58,195.97L192.66,99.16L192.67,122.3L192.68,164.47L193.16,110.24L193.21,180L193.27,124.77L193.28,109.27L193.63,207.65L193.73,105.78L194.02,137.84L194.03,114.6L194.3,85.25L194.53,208.24L194.73,163.37L194.75,153.64L194.78,124.49L194.85,245.32L195.5,124.74L195.51,141.55L195.54,191.84L196.19,79.73L196.23,89.55L196.25,97.73L196.59,52.48L197.07,239.17L197.08,215.65L197.09,199.67L197.3,249.58L197.8,100.98L197.87,118.02L197.89,125.83L198.23,32.61L198.53,213.91L198.68,205.34L198.69,188.08L199.02,92.46L199.08,208.14L199.4,207.41L199.41,212.79L199.43,231.99L199.81,110.79L200.12,184.17L200.14,183.58L200.15,185.27L200.25,114.29L200.53,127.01L200.55,117.68L200.56,109L201.19,207.98L201.2,233.79L201.21,233.45L201.23,203.66L201.5,250.7L201.58,63.79L201.98,189.95L201.99,192.87L202.02,245.22L202.43,79.66L202.67,176.29L202.68,138.19L203.26,222.66L203.44,70.82L203.45,85.79L203.46,120.98L203.57,106.94L204.03,210.63L204.21,141.94L204.23,145.83L204.39,74.55L204.99,244.81L205.01,220.35L205.02,187.75L205.42,200.13L205.77,95.84L205.78,101.85L205.8,136.6L206.1,251.48L206.53,88.89L206.55,93.09L207.34,223.48L207.37,207.29L207.38,193.3L207.71,232.63L208.14,87.02L208.16,115.95L208.18,134.59L208.39,202.33L208.7,78.67L208.91,132.45L208.93,103.08L208.94,98.33L209.18,228.62L209.49,191.92L209.5,214.92L209.75,251.64L210.12,85.39L210.31,163.89L210.32,176.59L210.92,215.09L211.06,67.53L211.09,98.13L211.1,119.88L211.28,107.69L211.82,222.99L211.85,163.28L211.87,149.91L211.93,93.67L212.45,209.22L212.65,103.3L212.66,111.61L212.83,58.87L213.32,239.72L213.46,163.21L213.47,146.83L213.59,100.97L213.78,197.3L214.18,190.28L214.19,185.52L214.5,120.94L214.76,231.03L214.96,141.47L214.97,139.91L215.19,108.53L215.32,237.36L215.75,161.9L215.76,146.34L215.8,190.24L216.3,92.66L216.52,116.71L216.53,124.95L216.61,86.19L216.95,191.54L217.3,181.76L217.32,197.67L217.67,258.73L217.74,130.24L218.08,169.01L218.09,173.46L218.11,184.84L218.48,92.68L218.75,94.11L218.76,89.39L218.97,56.6L219.41,226.88L219.54,179.23L219.55,162.15L220,220.39L220.25,97.65L220.33,122.94L220.34,136.13L220.66,94.53L221.09,242.9L221.11,196.2L221.12,148.34L221.19,217.86L221.35,63.12L221.85,146.38L221.86,172.38L221.9,190.44L222,92.51L222.17,106.73L222.18,67.17L222.19,41.11L222.61,236.21L222.88,180.87L222.89,174.51L223.28,126.25L223.4,242.65L223.57,190.32L223.59,212.54L223.64,224.51L223.75,148.89L223.82,182.26L223.83,211.89L223.84,224.55L224.28,54.69L224.53,160.23L224.55,151.97L224.65,210.09L224.97,105.57L225.28,138.56L225.3,145.1L225.36,241.34L225.99,95.58L226.05,168.72L226.06,164.16L226.12,71.19L226.28,184.58L226.8,122.84L226.81,153.46L227.24,212.98L227.43,130.97L227.57,187.96L227.58,190.32L227.72,106.31L227.79,221.28L228.26,209.31L228.27,206.49L228.88,72.39L229.05,151.59L229.06,153.77L229.12,115.15L229.69,236.92L229.84,176.16L229.86,164.87L229.93,214.75L230.08,97.49L230.63,125.67L230.64,130.21L230.84,90.32L231.37,247.2L231.39,193.93L231.4,143.92L231.43,99.96L231.7,211.6L232.13,203.34L232.14,197.86L232.64,74.93L232.88,189.55L232.89,208.81L233.09,235.16L233.56,64.58L233.59,117.21L233.61,110.75L233.91,221.32L234.27,73.49L234.32,156.87L234.33,169.21L234.41,70.63L235,211.88L235.03,186.61L235.05,188.79L235.13,225.7L235.59,130.53L235.8,181.68L235.81,189.6L235.98,260.1L236.42,74.95L236.59,135.42L236.61,134.66L236.72,77.28L237,184.39L237.21,181.72L237.23,188.89L237.3,252.93L237.94,130.15L238,139.42L238.01,147.78L238.15,232.13L238.35,113.66L238.61,137.08L238.62,134.79L238.73,199.73L238.94,60.32L239.27,172.66L239.28,191.93L239.38,107.2L239.86,228.97L240,209.68L240.02,219.19L240.33,124.34L240.55,210.37L240.57,222.53L241.02,94.52L241.37,127.6L241.39,151.33L241.64,256.46L241.9,86.75L242.12,122.74L242.14,135.92L242.2,242.28L242.54,82.47L242.87,98.92L242.89,88.29L242.91,69.27L243.36,245.67L243.57,199.64L243.58,207.5L243.6,209.93L243.72,116.55L243.81,134.57L243.82,98.62L244.19,204.89L244.45,88.61L244.53,121.41L244.54,109.6L244.74,54.6L245.16,190.8L245.25,174.81L245.27,175.96L245.85,254.41L245.89,139.39L246.07,216.58L246.09,202.3L246.39,271.8L246.98,79.73L246.99,82.39L247.06,69.73L247.59,214.47L247.84,201.77L247.86,198.64L248.39,205.69L248.58,117.84L248.64,166.68L248.65,179.85L249.14,189.84L249.2,64.22L249.38,142.45L249.39,159.94L249.44,123.03L249.55,194.57L250.06,164.29L250.07,143.94L250.13,197.75L250.57,101.86L250.61,172.69L250.62,179.1L250.73,90.54L251.29,179.75L251.38,151.6L251.39,162.62L251.65,120.99L251.92,301.47L252.13,175.34L252.14,138.68L252.48,235.12L252.82,45.73L252.89,137.28L252.91,137.59L252.94,65.89L253.61,211.72L253.64,182.81L253.66,177.77L253.98,252.41L254.27,152.71L254.28,136.47L254.39,209.77L254.82,50.15L255.03,126.59L255.04,132.49L255.16,90.66L255.68,198.58L255.7,212.72L255.71,218.78L256.3,124.91L256.32,129.46L256.48,202.73L256.74,123.45L256.83,139.35L256.84,131.12L257.03,42.79L257.48,220.25L257.59,138.13L257.61,131.46L257.92,110.9L258.37,242.74L258.39,223.32L258.4,208.98L258.7,223.29L259.04,114.75L259.18,154.66L259.19,164.3L259.46,108.95L259.74,210.97L259.96,194.19L259.97,182.09L260.31,124.05L260.5,209.91L260.72,176.1L260.73,173.36L260.88,179.22L261.17,79.37L261.53,154.48L261.54,160.6L261.89,213.28L262.01,100.75L262.16,186.08L262.18,200.86L262.27,216.34L263.04,72.17L263.05,76.58L263.07,90.16L263.37,56.09L263.86,212.1L263.92,211.49L263.93,207.47L264.16,260.24L264.73,82.39L264.77,139.23L264.78,153.63L265.01,197.85L265.43,74.67L265.45,81.23L265.91,245.21L266.23,183.78L266.24,192.45L266.29,219.66L266.52,122.68L266.88,155.15L266.89,147.57L266.91,160.44L267.25,89.48L267.59,140.49L267.6,128.26L267.63,98.08L268.08,195.72L268.25,190.33L268.26,193.76L268.64,212.65L269.09,66.79L269.13,111.35L269.14,132.27L269.18,171.16L269.32,112.06L269.34,67L269.35,57.29L269.88,177.88L270.03,112.86L270.04,127.66L270.36,227.28L270.67,117.59L270.8,148.84L270.81,143.34L271.31,234.81L271.55,88.37L271.57,120.7L271.59,144.91L271.64,109.62L271.91,228.98L272.02,211.29L272.03,228.75L272.16,96.32L272.49,194.2L272.5,210.51L272.51,220.93L272.66,61.98L273.18,161.3L273.19,143.48L273.64,43.17L273.81,184.38L273.92,178.64L273.93,187L274.39,267.48L274.48,158.74L274.61,240.79L274.62,246.03L274.72,249.95L274.97,93.23L275.42,110.66L275.43,122.58L275.76,87.4L275.98,167.94L276.11,136.2L276.12,160.27L276.27,89.81L276.68,234.72L276.86,179.16L276.87,166.44L276.92,185.98L276.95,156.9L276.98,183.77L276.99,202.99L277,207.21L277.47,101.77L277.56,129.89L277.57,128.09L277.67,161.75L277.7,97.3L277.9,160.16L277.91,194.61L278.02,125.47L278.2,223.2L278.56,161.76L278.57,158.04L278.68,229.59L279.06,90.12L279.39,119.95L279.4,127.75L279.51,134.8L279.53,116.1L279.54,102.4L279.56,94.09L279.78,202.49L280.12,163.92L280.13,176.56L280.79,86.14L280.86,239.03L280.88,202.42L280.89,177.15L281.48,64.44L281.56,194.77L281.66,143.2L281.68,145.36L281.81,84.71L282.05,229.39L282.31,226.81L282.32,236.16L283.13,86.06L283.16,101.33L283.18,118.45L283.23,83.16L283.42,189.45L283.87,123.07L283.88,124.6L284.02,115.54L284.5,237.37L284.69,199.24L284.7,174.6L284.97,219.7L285.23,46.91L285.47,133.69L285.48,129.87L285.59,104.47L285.79,169.37L286.12,138.81L286.13,186.84L286.42,294.97L286.7,101.09L286.86,171.48L286.87,145.1L287.23,213.73L287.54,83.91L287.62,133.43L287.63,150.48L287.64,150.92L287.66,137.28L287.68,116.13L287.77,80.72L287.85,190.02L288.19,188.03L288.2,210.45L288.24,225.21L288.25,201.98L288.39,238.89L289.05,115.36L289.07,128.36L289.08,127.94L289.18,170.38L289.2,143.72L289.21,112.17L289.26,81.96L289.36,185.36L289.95,124L289.96,144.57L290.23,119.7L290.41,242.76L290.72,169.88L290.74,169.03L290.85,198.19L291.37,85.94L291.47,166.73L291.49,172.7L291.81,226.8L292.07,84.23L292.25,148.08L292.26,159.53L292.41,249.81L292.8,156.21L293.03,180.84L293.04,158.48L293.23,181.44L293.63,80.12L293.66,161.2L293.68,190.79L293.69,196.65L293.81,101.61L294.34,163.65L294.36,149.32L294.56,259.55L294.97,95.62L295.12,164.91L295.13,151.7L295.57,99.93L295.65,217.81L295.81,121.82L295.82,109.67L295.97,98.52L296.56,237.4L296.59,153.74L296.61,109.23L296.62,97.72L296.81,208.25L297.32,137.63L297.33,146.82L297.75,51.25L297.82,192.07L298.07,133.54L298.08,148.35L298.22,67.08L298.63,253.9L298.86,199.08L298.87,190.52L298.96,213.63L299.03,160.17L299.06,162.93L299.07,145.38L299.23,117.59L299.44,223.63L299.74,136.02L299.75,127.09L299.84,99.19L300.25,222.42L300.26,228.21L300.85,109.29L301.04,146.35L301.05,165.41L301.2,89.34L301.49,190.56L301.74,173.33L301.75,190.45L302.07,216.08L302.28,97.35L302.45,139.36L302.47,118.5L302.51,194.59L302.52,220.99L302.68,281.6L303,122.28L303.19,192.98L303.2,169.98L303.26,185.53L304.04,53.41L304.05,65.12L304.66,228.59L304.84,215.61L304.86,222.35L304.91,257.43L305.23,104.22L305.33,112.9L305.34,96.91L305.89,187.73L306.02,88.41L306.09,113.33L306.1,128.86L306.17,98.97L306.64,247.82L306.86,165.36L306.87,140.77L306.92,217.17L306.97,126.21L306.98,105.55L307.15,168.06L307.35,96.22L307.65,146.07L307.66,166.35L307.68,210.34L308.2,38.25L308.38,128.07L308.4,133.85L308.44,130.41L309,283.07L309.18,190.13L309.19,193.94L309.3,205.74L309.47,83.31L309.97,159.89L309.98,167.72L310.09,100.56L310.48,243.92L310.73,142.26L310.74,139.9L310.88,207.36L311.03,82.65L311.5,148.76L311.51,130.62L311.69,192.64L311.98,115.03L312.24,147.95L312.25,167.73L312.34,99.58L312.93,200.32L313,178.04L313.01,154.51L313.12,206.73L313.87,68.28L313.9,83.23L313.92,112.56L314.13,98.08L314.48,213.9L314.71,212.84L314.72,196.94L315.05,275.44L315.51,149.79L315.52,171.93L315.53,186.62L315.81,93.32L316.25,150.09L316.26,152.99L316.45,60.5L316.94,202.18L316.97,177.43L316.99,175.53L317,174.84L317.03,205.25L317.1,174.92L317.11,147.91L317.34,222.77L317.48,100.26L317.84,150.64L317.85,159.75L318.03,216.43L318.58,125.52L318.59,139.28L318.6,147.04L318.84,88.87L318.99,258.95L319.36,168.5L319.38,161.05L319.83,180.38L320.04,75.78L320.14,122.5L320.15,122.43L320.38,69.24L320.61,204.84L320.62,224.73L320.77,268.76L321.31,147.02L321.32,131.8L321.42,180.02L321.53,115.36L321.54,100.01L321.66,89.99L322.01,200.56L322.02,222.41L322.05,256.37L322.25,85.46L322.73,183.33L322.74,156.49L322.79,91.65L323.2,239.12L323.49,138.68L323.5,144.65L323.57,121.66L323.74,191.65L324.24,152.37L324.25,141.28L324.56,74.88L324.68,226.16L325.02,97.61L325.04,91.89L325.42,233.47L325.81,145.64L325.82,119.1L325.97,190.77L326.3,64.32L326.54,125.77L326.55,128.46L326.76,99.41L327.03,272.36L327.37,229.93L327.38,214.17L327.52,218.92L328.11,112.94L328.15,142.79L328.17,156.7L328.34,249.08L328.82,108.53L328.94,194.19L328.95,183.03L329.14,69.38L329.47,217.72L329.55,191.28L329.56,218.5L329.58,242.9L330.19,78.37L330.26,157.85L330.27,148.16L330.37,91.13L330.43,191.53L330.57,169.57L330.58,195.25L330.67,94.5L331.08,260.97L331.31,178.88L331.32,158.98L331.43,236.33L332.07,80.08L332.09,91.56L332.1,103.44L332.21,99.44L332.68,218.46L332.89,164.93L332.9,155.27L333.17,104.97L333.49,201.03L333.63,176.26L333.64,185.36L333.73,105.83L333.95,192.08L334.39,160.75L334.4,173.9L334.47,189.51L334.94,93.34L335.08,154.6L335.09,193.61L335.58,94.04L335.84,241.46L335.85,230.91L335.86,217.97L336.57,81.94L336.72,114.75L336.73,127.61L336.78,84.81L336.86,172.15L336.95,167.6L336.97,180.48L337.41,232.01L337.66,133.38L337.7,147.68L337.72,161.9L337.74,202.96L338.43,94.11L338.44,98.66L338.45,102.58L338.57,132.99L338.58,145.61L338.62,141.04L338.63,145.85L338.64,155.17L338.7,125.08L339.13,211.44L339.33,178.08L339.35,189.91L339.53,98.46L339.85,223.35L340.12,207.39L340.13,191.11L340.66,203.46L340.76,119.78L340.9,139.76L340.92,141.06L341.14,91.39L341.52,228.66L341.65,156.57L341.67,149.25L341.78,158.59L342.05,74.61L342.43,126.64L342.44,115.68L342.58,80.29L342.79,224.31L342.97,190.49L342.98,207.41L343.36,262.05L343.61,128.99L343.73,209.96L343.74,194.41L343.82,83.81L344.51,153.99L344.52,157.3L344.63,89.74L345.01,186.81L345.2,132.3L345.22,127.01L345.77,256.56L345.88,107.28L346.04,219.22L346.05,211.78L346.74,88.56L347.03,96.65L347.04,105.12L347.09,102.15L347.6,230.65L347.92,190.66L347.94,189.3L348.13,196.58L348.42,93.85L348.64,160.82L348.65,158.16L348.66,158.51L348.67,152.71L348.69,123.76L348.74,88.31L349.27,181.71L349.41,162.39L349.42,163.52L349.52,112.67L350.14,201.51L350.17,195.43L350.19,168.14L350.3,247.54L350.61,131.36L350.94,166.72L350.95,167.93L351.13,97.64L351.58,178.05L351.64,159.06L351.65,147.23L351.79,121.38L352.31,227.29L352.38,163.65L352.39,163.93L352.46,215.17L352.63,118.17L353.11,130.65L353.13,122.87L353.61,94.41L353.69,197.87L353.86,125.05L353.88,116.1L353.91,75.22L354.53,189.31L354.54,199L354.95,85.74L355.01,185.52L355.03,187.57L355.29,112.99L355.58,209.49L355.78,170.48L355.79,177.29L356.02,226.17L356.4,114.75L356.51,139.72L356.53,142.58L356.83,185.24L357.19,112.98L357.26,124.01L357.28,133.71L357.39,116.36L358.06,201.52L358.1,185.82L358.11,178.99L358.29,236.11L358.46,177.63L358.61,181.73L358.62,166.2L358.97,209.81L359.41,47.34L359.44,77.16L359.45,91.35L359.56,51.94L360.16,209.97L360.31,159.35L360.32,135.59L360.39,117.74L360.54,203.4L360.76,199.27L360.77,216.03L360.97,115.49L361.56,172.04L361.58,176.49L361.83,81.02L362.12,199.31L362.35,146.82L362.36,175.22L362.42,231.48L362.64,125.11L363.11,193.83L363.12,183.86L363.47,84.78L363.91,104.71L363.92,116.31L363.94,108.62L364.4,241.24L364.51,216.09L364.52,225.7L364.55,250.72L364.94,145.32L365.22,179.79L365.23,172.26L365.29,236.23L365.5,82.97L365.92,141.24L365.94,154.68L366.35,201.44L366.46,108.75L366.7,176.68L366.71,173.09L367.03,255.17L367.42,50.93L367.59,126.45L367.6,139.3L367.62,135.65L367.97,215.13L367.99,214.25L368.13,109.26L368.14,99.37L368.34,93.83L368.82,228.31L369.03,214.37L369.04,198.62L369.1,225.22L369.42,131L369.43,126.79L369.49,202.32L369.81,87.54L370.05,107.75L370.06,88.71L370.07,88.38L370.08,106.76L370.1,133.62L370.29,89.68L370.51,200.99L370.87,172.72L370.88,175.91L371.03,147.96L371.29,208.53L371.37,149.76L371.38,135.15L371.84,200.04L372.08,108.57L372.12,136.45L372.13,153.36L372.62,183.13L372.7,108.97L372.71,103.04L373.21,214.19L373.49,189.87L373.51,174.33L373.54,191.16L373.55,173.83L373.56,159.05L373.87,199.93L374.19,129.29L374.31,155.39L374.33,163.9L374.63,90.59L375.02,190.23L375.08,158.03L375.09,160.09L375.58,219.11L375.76,131.45L375.81,144.38L375.83,127.69L375.91,174.34L376.53,52.9L376.59,93.75L376.6,112.52L377.38,208.92L377.4,204.44L377.41,192.21L377.63,160.83L377.72,219.62L377.74,236.47L377.76,258.36L378.21,130.45L378.42,182.55L378.43,182.94L378.62,69.27L379.08,195.38L379.2,129.03L379.21,142.34L379.38,109.92L379.83,222.39L379.9,188.38L379.92,204.2L380.06,233.2L380.46,151.14L380.47,144.94L380.58,91.59L381.08,196.59L381.23,174.9L381.24,158.22L381.55,73.91L381.86,194.26L381.94,190.17L381.96,190.7L382.62,100.28L382.74,152.44L382.75,168.69L382.9,219.35L382.97,101.06L383.19,125.1L383.2,101.26L383.22,84.7L383.74,188.93L383.89,174.85L383.9,173.87L384.28,115.58L384.46,194.09L384.47,207.36L384.73,231.7L385.07,146.55L385.08,139.14L385.4,194.54L385.63,108.38L385.81,128.19L385.82,129.84L385.89,82.9L385.96,175.64L386.3,165.74L386.31,173.77L386.49,130.45L386.71,204.58L386.88,188.99L386.89,202.95L387.72,95.08L387.73,104.47L387.74,122.84L387.76,122.13L387.78,140.6L387.79,149.03L388.05,204.21L388.49,100.91L388.52,120.49L388.53,123.15L388.54,120.57L388.93,210.44L388.94,214.06L389.28,236.92L389.6,104.4L389.72,139.26L389.74,144.51L389.8,91.13L390.19,196L390.5,111.03L390.51,120.39L390.67,100.64L391.12,220.45L391.38,192.13L391.39,182.87L391.95,207.58L392.1,103.63L392.19,163.87L392.2,164.4L392.34,187.46L392.43,136.52L392.44,128.41L392.82,85.84L392.89,186.59L392.96,162.61L392.97,181.97L393.14,139.9L393.24,220.23L393.71,179.99L393.72,168.89L393.98,73.63L394.28,179.31L394.3,190.16L394.39,70.64L394.92,181.35L394.93,194.49L394.96,237.47L395.41,111.27L395.67,172.74L395.68,164.16L395.81,207.1L395.97,121.43L396.17,157.93L396.18,136.79L396.3,80.65L396.62,229.07L396.63,234.46L396.98,120.61L397.39,198.28L397.4,182.12L397.96,229.65L398.24,97.55L398.26,111.49L398.37,41.56L398.54,146.8L399.03,142.34L399.04,153.81L399.17,122.71L399.4,228.58L399.73,188.16L399.74,189.13L399.99,215.91L400.35,102.13L400.55,134.18L400.56,139.1L400.64,195.8L400.87,114.76L401.31,170.65L401.33,161.2L401.64,116.95L401.97,209.66L401.98,221.85L401.99,222.67L402.05,181.19L402.22,193.2L402.23,180.57L402.6,209.52L402.99,100.66L403.05,117.9L403.06,126.42L403.23,114.26L403.67,203.62L403.83,166.26L403.85,167.87L403.98,107.69L404.22,180.85L404.39,145.72L404.4,134.34L404.75,199.67L404.97,105.01L404.98,74.17L404.99,58.93L405.24,186L405.67,147.81L405.69,137.59L405.7,134.27L405.93,238.49L406.19,211.1L406.2,224.15L406.24,250.95L406.69,123.61L406.85,168.19L406.86,156.99L406.94,209.88L407.74,78.02L407.77,109.64L407.78,121.77L407.9,95.77L408.35,217.97L408.58,177.98L408.59,148.6L409.01,239.14L409.28,107.6L409.35,120.54L409.37,127.32L409.47,91.35L409.82,210.44L410.15,153.75L410.16,141.4L410.32,193.98L410.81,110.78L410.87,174.67L410.88,173.85L410.91,194.53L411.59,82.75L411.67,155.06L411.69,165.11L411.99,106.75L412.05,211.85L412.23,211.19L412.24,221.61L412.25,229.01L412.76,115.83L412.92,170.71L412.93,154.16L413.16,106.84L413.34,179.37L413.69,126.88L413.7,129.81L413.94,98.78L414.46,212.45L414.57,182.9L414.58,175.6L414.8,251.32L415.11,167.37L415.14,173.96L415.15,150.98L415.21,112.73L415.66,213.82L415.87,162.9L415.88,166.46L415.89,169.15L416.08,65.47L416.22,68.33L416.23,32.25L416.24,16.92L416.68,171.8L416.9,127.6L416.91,146.82L417.31,229.7L417.42,141.57L417.71,183.83L417.72,173.45L417.91,200.78L418.07,95.73L418.28,128.51L418.3,124.62L418.74,73.46L418.98,200.97L419.09,169.87L419.1,149L419.19,244.05L419.33,163.2L419.34,157.07L419.54,112.21L419.89,211.37L420.1,171.8L420.11,171.16L420.15,173.4L420.66,67.24L420.94,135.67L420.96,151.34L421.08,111.86L421.62,243.79L421.72,177.49L421.73,170.19L421.76,122.77L421.86,269.57L422.48,151.38L422.49,159.1L422.76,65.98L422.91,164.16L423.07,144.39L423.08,149.61L423.49,110.59L423.67,206.06L423.69,206.16L423.93,254.87L424.39,100.73L424.45,155.91L424.46,176.47L424.48,238.55L425.05,77.33L425.19,145.72L425.2,140.18L425.4,125.03L425.51,205.28L425.84,176.71L425.85,186.49L425.89,218.06L426.18,151.27L426.36,180.43L426.37,154.87L426.87,205.09L427.06,90.46L427.14,115.06L427.16,106.8L427.33,61.7L427.81,239.99L428.08,207.76L428.09,204.72L428.17,218.18L428.58,112.18L428.94,147.59L428.95,159.17L428.99,196.99L429.44,90.87L429.67,145.09L429.69,142.49L429.85,195.21L430.32,113.58L430.4,151.94L430.41,161.97L430.48,213.57L430.98,120.57L431.16,169.97L431.17,169.13L431.3,128.45L431.42,173.44L431.46,144.03L431.47,125.27L431.82,108.08L432,183.61L432.18,157.27L432.19,170.98L432.39,150.81L432.56,249.31L432.94,181.94L432.96,177.44L433.16,181.35L433.76,66.4L433.82,82.64L433.83,81.44L433.89,79.59L434.63,239.9L434.78,180.51L434.8,175.15L435.16,219.83L435.48,111.91L435.49,104.31L435.53,182.22L435.7,93.18L436.24,133.27L436.25,126.73L436.39,91.01L436.86,224.62L437.03,197.9L437.05,192.32L437.23,220.64L437.82,113.14L437.84,141L437.85,139.83L437.95,104.12L438.02,164.66L438.07,124.1L438.08,107.01L438.09,106.32L438.31,140.23L438.32,146.4L438.37,110.4L438.8,195.34L439.01,147.51L439.03,158.65L439.31,224.44L439.58,128L439.76,149.53L439.78,150.12L439.85,72.53L440.32,175.09L440.41,146.22L440.42,154.49L440.73,208.56L441.01,107.14L441.14,151.94L441.15,131.28L441.21,214.63L441.9,193.13L441.91,175.89L442.32,102.88L442.44,223.78L442.67,166.04L442.68,161.15L443,63.77L443.28,183.86L443.41,169.09L443.42,183.18L443.7,128.79L443.83,205.71L443.9,198.63L443.91,208.66L444.22,225.42L444.57,90.12L444.6,111.09L444.62,119.57L444.69,108.97L445.13,188.97L445.37,119.87L445.38,124.88L445.65,76.76L446.19,242.39L446.23,189.8L446.25,175.94L446.36,232.66L446.48,149.8L446.49,148.53L446.67,91.23L447.14,193.56L447.19,175.99L447.21,196.17L447.24,202.73L447.37,103.37L448.03,145.7L448.04,146.92L448.38,216.67L448.65,132.44L448.81,161L448.82,142.08L448.88,116.92L449,196.92L449.44,148.2L449.46,156.13L449.94,97.01L450.05,204.95L450.22,147.1L450.23,162.98L450.35,103.22L451.01,248.56L451.03,252.99L451.38,68.77L451.82,140.83L451.84,137.98L452.39,202.58L452.51,93.35L452.55,154.91L452.56,153.71L452.57,147.88L453.03,225.17L453.23,185.64L453.24,196.85L453.3,206.66L453.58,131.37L453.62,165.66L453.63,189.98L453.94,212.77L454.14,82.88L454.32,132.91L454.33,133.23L454.46,71.17L454.51,114.35L454.52,127.2L454.57,99.97L455.41,243.19L455.44,196.16L455.46,173.77L455.62,238.15L456.12,107.03L456.24,130.73L456.25,138.35L456.38,203.06L456.82,83.54L457.01,164.54L457.03,164.79L457.16,104.51L457.38,216.8L457.76,159.48L457.78,169.25L458.06,214.5L458.25,109.66L458.37,133.61L458.39,110.76L458.41,97.92L458.59,178.49L459.1,142.02L459.11,145.45L459.3,139.65L459.63,210.27L459.87,185.98L459.89,183.57L459.99,213.99L460.48,102.66L460.72,126.28L460.73,137.26L460.85,190.55L461.18,101.35L461.5,171.93L461.52,161.86L461.76,215.22L462.11,98.96L462.27,151.07L462.28,155.66L462.35,94.82L462.69,255.46L462.96,105.04L462.97,104.19L463.13,62.78L463.48,242.03L463.77,151.84L463.78,148.83L464,128.29L464.13,231.94L464.55,177.25L464.56,175.02L464.59,186.65L464.89,95.28L465.25,151.58L465.27,141.55L465.45,195.89L465.52,106.37L466,127.49L466.02,145.54L466.09,126.78L466.52,188.06L466.75,142.2L466.77,136.19L466.81,119.65L467.1,209.87L467.5,135.66L467.52,120.71L467.64,84.49L468.08,192.11L468.25,139.2L468.27,157.14L468.69,113.3L468.89,196.86L469.03,170.12L469.04,165.22L469.17,228.5L469.51,138.14L469.81,182.9L469.82,182.75L469.86,206.91L470.11,103.65L470.32,120.71L470.33,119.57L470.61,111.84L471.03,202.77L471.14,166.7L471.15,155.35L471.44,145.8L471.71,201.65L471.93,187.57L471.94,181L472.14,205.05L472.44,115.43L472.6,147.26L472.61,156.06L473.07,119.46L473.18,197.11L473.37,173.78L473.39,168.51L473.63,238.96L474,83.01L474.22,113.43L474.23,135.9L474.58,220.41L474.9,102.44L474.97,159.74L474.98,134.86L475.03,94.95L475.4,203.24L475.71,185.82L475.72,183.84L476.09,209.09L476.19,125.94L476.48,167.26L476.49,171.14L476.67,115.87L477.05,210.55L477.25,150.38L477.27,163.04L477.41,111.33L477.84,214.76L477.86,209.58L477.87,221.67L477.89,223.68L478,170.13L478.02,152.65L478.09,104.57L478.75,203.3L478.77,205.06L478.81,216.99L478.85,194.42L478.86,175.56L479.05,210.02L479.14,100.21L479.61,148.13L479.62,163.25L479.74,101.27L480.31,187.68L480.37,167.63L480.38,146.04L480.39,127.75L480.5,225.76L481.12,137.17L481.13,147.62L481.36,110.69L481.75,201.75L481.89,185.57L481.91,174.54L481.93,175.43L482.16,81.3L482.37,126.25L482.39,140.59L482.6,225.03L483.24,205.28L483.25,200.35L483.28,208.95L483.66,142.61L483.68,132.69L484.04,175.74L484.23,120.89L484.43,159.73L484.44,139.82L484.89,97.54L485.01,184.95L485.18,156.59L485.19,157.75L485.46,93.09L485.57,185.14L485.91,154.86L485.93,168.21L485.97,226.22L486.3,123.1L486.7,209.73L486.71,210.34L486.98,83.49L487.48,138.67L487.5,133.98L487.57,102.26L488.06,221.41L488.07,235.47L488.08,244.14L488.59,136.99L488.71,143.94L488.73,148.6L488.78,187.19L489.25,110.83L489.45,128.61L489.46,115.83L489.57,104.77L489.86,206.81L489.96,193.46L489.97,193.16L490.04,220.64L490.4,107.96L490.74,168.98L490.75,182.14L490.89,198.3L491.01,142.41L491.16,156.6L491.18,139.63L491.81,147.69L491.93,98.12L491.94,109.47L491.95,124.24L492.14,106.26L492.59,209.87L492.73,177.71L492.75,166.58L493.12,229.52L493.38,140.15L493.5,154.47L493.51,159.66L493.68,85.34L494.04,201.03L494.25,139.34L494.26,141.97L494.4,96.55L494.75,240.9L494.95,197.06L494.96,198.3L495.01,227.22L495.03,209.35L495.04,179.37L495.1,130.01L495.61,226.57L495.78,202.8L495.79,190.92L495.84,198.1L496.43,62.84L496.64,110.99L496.65,110.18L496.87,101.93L496.98,202.53L497.34,152.36L497.35,154.14L497.55,147.51L497.61,234.82L498.09,174.78L498.1,170.93L498.27,112.25L498.32,192.21L498.65,145.29L498.66,138.29L498.8,173.26L499.12,87.38L499.44,125.62L499.45,129.74L499.51,105.68L500.32,232.03L500.41,188.58L500.42,176.94L500.68,204.11L500.87,117.61L501.18,157.66L501.2,169.79L501.31,181.64L501.52,134.63L501.59,169.53L501.61,175.11L501.78,113.14L501.96,193.6L502.1,177.41L502.11,200.97L502.13,236.07L502.82,94.4L502.84,105.08L503.01,195.48L503.64,141.85L503.66,138.25L503.86,110.03L504.13,171.75L504.14,187.97L504.27,100.92L504.56,204.51L504.84,169.45L504.85,162.55L505.16,206.35L505.57,110.94L505.6,151.4L505.61,167.15L505.65,189.56L505.78,114.9L506.23,124.81L506.25,117.73L506.7,77.28L506.77,145.74L506.79,143.8L506.8,154.42L506.88,138.84L507.29,240.64L507.56,184.95L507.57,168.59L507.72,194.84L508.12,128.37L508.23,170.66L508.24,173.65L508.25,174.52L508.3,124.81L508.31,111.33L508.45,177.31L508.81,78.82L509.02,130.78L509.04,137.08L509.39,190.9L509.68,111.71L509.8,177.4L509.81,174.82L509.98,217.07L510.41,134.16L510.52,169.85L510.54,156.12L510.59,124.92L511.04,182.88L511.29,152.76L511.3,158.94L511.46,101.69L511.57,165.92L511.77,156.69L511.78,164.33L511.8,168.28L512.08,126.73L512.09,112.88L512.12,98.57L512.47,219.5L512.68,194.46L512.69,220.53L512.72,247.77L513.08,126.1L513.42,208.75L513.43,199.64L514.23,100.88L514.24,90.67L514.26,86.62L514.32,127.11L514.33,144.37L514.41,94.45L514.58,232.49L515.06,134.76L515.07,135.76L515.08,133.95L515.34,208.35L515.46,188.49L515.47,203.88L515.49,223.31L515.84,110.64L516.15,132.87L516.16,130.95L516.23,138.68L516.28,97.17L516.36,137.05L516.37,148.3L516.49,105.5L516.89,231.81L517.13,179.32L517.14,165.35L517.44,134.62L517.57,240.75L517.92,138.86L517.93,138.23L518,187.64L518.36,84.65L518.64,159.15L518.66,171.92L518.83,102.29L519.41,236.74L519.43,201.57L519.44,191.78L519.69,253.36L520,134.37L520.2,139.94L520.22,151.32L520.3,128.69L520.48,190.3L520.94,136.63L520.95,124.71L521.04,192.6L521.49,98.86L521.64,155.88L521.66,161.61L522.29,196.71L522.37,105.05L522.38,109.92L522.48,224.66L523.14,155.07L523.16,159L523.54,202.28L523.93,99.57L523.95,106.13L523.97,110.05L524.2,170.32L524.75,160.15L524.76,145.34L524.79,115.36L525.32,203.44L525.51,139.34L525.52,142.91L525.76,101.54L525.86,169.09L525.96,153.07L525.97,160.8L526.43,99.17L526.72,188.33L526.74,177.77L526.75,164.72L526.78,156.09L527.23,215.68L527.47,171.45L527.48,184.04L527.49,184.21L527.53,174.16L527.54,156.57L527.98,80.56L528.14,185.15L528.29,153.36L528.3,164.9L528.39,197.4L528.72,119.66L529.04,161.71L529.05,145.98L529.33,108.62L529.63,196.25L529.64,208.83L529.73,124.93L530.18,229.53L530.33,155.42L530.34,159.38L530.38,201.68L531,105.25L531.08,155.04L531.09,155.77L531.32,171.58L531.45,103.56L531.84,141.31L531.85,141.71L532.24,242.3L532.64,191.57L532.65,189.45L532.99,100.56L533.41,161.08L533.42,167.98L533.45,214.82L534.06,102.47L534.15,151.66L534.16,139.8L534.62,213.15L534.76,121.51L534.83,149.67L534.84,159.26L535.19,107.2L535.58,237.5L535.61,194.32L535.63,178.11L535.78,196.19L536.09,88.9L536.4,138.4L536.41,148.12L536.94,203.42L537.07,85.17L537.08,88.8L537.09,92.87L537.66,227.42L537.86,178.46L537.88,183L537.92,217.87L538.04,129.37L538.23,162.67L538.24,148.74L538.4,182.99L538.51,83.6L539.02,111.73L539.04,123.31L539.46,108.7L539.82,204.84L539.83,191.15L540.03,234.92L540.36,127.8L540.58,184.49L540.59,191.33L540.92,207.71L541.13,119.93L541.15,107.46L541.37,89.05L541.56,159.54L541.88,109.88L541.9,97.17L542.32,213.16L542.66,149.51L542.67,148.79L542.75,208.03L542.88,116.24L543.43,172.09L543.44,167.21L543.63,97.18L544.06,199.55L544.18,178.28L544.19,201.69L544.22,203.38L544.51,165.98L544.53,166.21L544.54,153.48L544.92,101.77L545,205.64L545.22,148.93L545.24,157.74L545.43,190.35L545.76,122.65L545.97,140.36L545.99,149.25L546.62,212.87L546.74,95.25L546.76,132.14L546.77,165.32L547.02,126.82L547.1,216.98L547.5,158.13L547.51,152.33L547.6,214.18L547.68,171.04L547.7,162.68L547.81,182.63L548.18,100.69L548.42,166.01L548.43,176.87L548.62,191.48L548.75,92.21L549.14,181.15L549.15,186.35L549.23,101.16L549.83,233.92L549.88,183.55L549.89,176.2L550,101.24L550.66,142.51L550.67,142.99L550.74,189.33L551.14,122.22L551.46,179.78L551.47,173.54L551.55,193.61L552.13,139.96L552.22,174.13L552.23,160.18L552.41,102.37L552.72,204.59L552.96,181.28L552.97,186.7L553.02,204.69L553.29,130.41L553.51,147.96L553.52,140.29L553.8,115.4L554.19,190.93L554.27,139.39L554.28,131.02L554.59,102.55L554.9,201.54L554.91,218.62L555.24,134.9L555.63,196.07L555.64,201.63L556.4,104.32L556.49,127.29L556.5,130.41L556.71,94.11L556.94,174.3L557.24,135.25L557.25,125.77L557.4,118.53L558.25,236.58L558.28,221.3L558.29,221.74L558.55,237.6L558.89,114.65L558.93,145.19L558.95,141.99L559.03,108.47L559.41,172.11L559.67,134.45L559.68,147.2L559.73,163.22L559.77,110.17L559.78,99.22L559.8,89.59L560.42,179.78L560.43,180.07L560.45,180.26L560.46,171.56L560.59,220.98L561.09,105.63L561.24,135.52L561.25,144.63L561.36,112.64L561.49,190.33L562,159.09L562.02,149.73L562.4,82.02L562.58,178.56L562.75,153.73L562.77,150.89L563.34,118.95L563.47,213.73L563.53,174.92L563.54,162.7L563.75,213.05L564.16,121.74L564.3,131.04L564.31,142.92L564.42,197.96L564.71,166.66L564.72,162.15L565.18,196.08L565.37,142.21L565.44,179.52L565.45,175.96L565.49,177.73L565.58,101.72L566.15,148.2L566.17,166.26L566.32,197.33L566.84,120.45L566.86,118.06L566.97,114.89L567.22,177.03L567.38,166.74L567.4,179.17L567.82,108.24L567.97,152.23L567.98,170.19L568.36,206.21L568.49,117.67L568.68,133.26L568.7,131.28L568.81,116.88L569.11,201.48L569.45,146.8L569.46,124.97L569.54,100.36L569.65,189.19L569.99,116.62L570,101.16L570.03,91.07L570.85,226.07L570.92,202.04L570.93,195.38L571.16,205.52L571.3,107.46L571.64,174.43L571.65,173.3L571.68,182.36L571.79,137.88L571.86,172.95L571.87,196.72L572.04,118.55L572.15,231.65L572.27,124.23L572.28,108.72L572.31,91.08L572.92,208.75L573.01,130.58L573.02,138.2L573.26,111.02L573.64,230.44L573.74,144.42L573.75,125.49L573.81,112.5L573.86,197.8L574.4,175.4L574.42,174.77L574.52,112.23L575.04,198.46L575.18,166.24L575.19,164.2L575.59,77L575.9,176.32L575.93,160.94L575.94,163.8L576.38,210.04L576.5,117.9L576.67,163.78L576.68,142.52L576.74,115.54L577.12,199.22L577.43,135.95L577.44,133.78L577.54,109.87L577.57,120.09L577.58,135.37L578.08,206.02L578.35,158.72L578.36,150.97L578.53,206.31L578.86,126.77L578.93,129.82L578.94,121.88L578.95,116.34L579.21,209.02L579.61,163.69L579.62,165.61L579.75,206.59L579.92,130.55L579.99,183.46L580.01,191.39L580.8,98.07L580.83,101.8L580.84,111.74L581.15,174.28L581.6,128.97L581.61,130.84L581.8,130.44L582.42,199.17L582.47,180.59L582.48,178.41L582.57,192.59L582.74,131.29L582.75,112.84L582.99,93.97L583.32,168.72L583.33,175L583.76,100.27L583.91,200.13L583.99,136.71L584,137.54L584.14,203.83L584.77,158.52L584.79,160.4L585.07,190.82L585.33,116.85L585.52,163.98L585.54,173.14L585.81,129.78L586.23,196.55L586.29,152.65L586.3,155.3L586.6,110.89L586.72,191.61L587.06,133.58L587.07,151.92L587.28,104.98L587.41,210.13L587.77,121.82L587.79,115.92L588.03,98.31L588.38,192.84L588.61,152.31L588.62,139.56L588.83,88.93L589.43,202.16L589.44,201.43L589.45,199.34L589.64,146.78L590.04,213.47L590.2,183.96L590.21,200.69L590.31,228.16L590.62,142.55L590.9,155.82L590.92,155.32L590.97,167.53L591.6,103.62L591.67,144.43L591.68,150.56L591.82,111.1L591.96,190.42L592.43,149.7L592.44,157.47L592.64,100.73L593.06,239.28L593.18,167.28L593.19,176.39L593.21,197.49L593.83,129.93L593.93,174.65L593.94,171.79L594.29,86.49L594.67,154.09L594.68,161.95L594.86,122.49L595.03,219.46L595.4,180.92L595.42,172.3L595.52,247.64L595.87,116.93L596.19,143.08L596.2,147.04L596.39,70.07L596.83,201.81L596.97,159.21L596.99,142.17L597.08,227.07L597.71,117.12L597.74,138.03L597.75,159.36L597.79,194.73L598.38,129.78L598.5,186.44L598.51,179.2L598.57,201.98L598.63,104.63L599.28,149.72L599.29,159.23L599.31,168.91L599.52,96.1L599.93,107.96L599.94,106.89L600.04,203.73L600.44,165.85L600.45,148.78L600.74,194.92L600.98,105.83L601.17,172.88L601.18,187.24L601.8,96.8L601.94,168.77L601.95,170.09L602.03,136L602.25,222.62L602.7,162.64L602.72,159.45L602.85,121.76L603.27,192.16L603.45,172.35L603.47,163.53L603.61,202.54L603.96,139.47L604.18,151.16L604.19,141.68L604.4,187.31L604.85,97.4L604.98,119.11L604.99,123.5L605.14,84.36L605.73,174.53L605.75,158.24L605.76,151.92L606.07,214.5L606.42,106.93L606.43,97.79L607.23,198.45L607.29,159.6L607.3,150.37L607.64,136.23L607.85,203.28L607.98,171.23L607.99,179.09L608,179.93L608.12,138.14L608.13,126.47L608.31,111.97L608.73,204.42L608.96,177.9L608.97,169.91L609.5,208.54L609.79,110.48L609.81,122.22L609.84,177.85L610.05,91.16L610.54,125.03L610.56,115.49L610.97,178.18L611.32,141.96L611.33,132.57L611.8,206.43L611.86,126.2L611.95,184.75L611.96,195.07L612.17,134.85L612.3,208.64L612.62,174.31L612.63,166.24L612.85,181.7L612.91,92.1L613.4,144.4L613.42,155.53L613.58,112.67L614.04,183.15L614.15,164.34L614.17,163.29L614.21,140.37L614.62,219.38L614.88,195.89L614.89,196.61L615.14,202.86L615.23,120.64L615.65,177.43L615.67,174.6L615.98,107.67L616.15,192.66L616.45,128.56L616.46,127.24L616.83,89.81L616.92,168.68L617.18,144.11L617.19,153.6L617.37,114.3L618,220.57L618.04,191.41L618.06,189.24L618.4,106.91L618.79,178.27L618.81,179.73L619.19,155.74L619.36,202.47L619.47,170.68L619.49,166.11L619.6,190.14L619.76,110.15L620.19,165.19L620.2,168.11L620.49,222.45L620.83,109.33L620.85,91.07L620.86,89.45L620.99,181.78L621,190.51L621.04,151.3L621.27,212.11L621.31,164.19L621.33,150.37L621.4,174.19L621.98,107.5L622.05,149.15L622.06,157.23L622.21,78.45L622.66,190.36L622.74,164.19L622.76,135.86L622.79,108.86L623.18,254.86L623.49,164.07L623.51,169.92L624.04,178.92L624.17,116.5L624.19,103.12L624.2,96.58L624.62,209.13L624.83,174.2L624.84,175.04L624.88,192.89L624.89,194.83L625.02,129.91L625.15,217.03L625.56,142.47L625.57,144.8L625.67,204.36L626.07,128.53L626.22,155.32L626.24,156.23L626.33,189.88L626.75,137.31L626.76,128.7L627.23,90.16L627.29,166.85L627.46,139.67L627.47,154.81L627.85,205.1L628.09,125.83L628.24,168.91L628.25,149.36L628.26,146.65L628.64,232.6L628.85,172.1L628.86,188.81L628.88,203.83L629.37,87.53L629.54,100.58L629.55,90.4L629.6,79.57L629.76,179.68L630.36,143.68L630.37,138.4L630.88,124.32L630.96,176.98L631.13,149.99L631.15,153.13L631.39,143.98L631.74,226.88L631.93,193.37L631.94,182.84L632.06,230.89L632.65,113.69L632.74,165.99L632.75,172.14L632.94,181.07L633.41,95.6L633.53,142.34L633.54,144.77L633.68,130.89L634.08,193.41L634.16,146.95L634.17,135.84L634.19,131.11L634.26,157.39L634.28,168.25L634.46,121.76L634.64,205.17L634.74,190.65L634.76,192.93L634.96,218.81L635.2,121.39L635.37,124.91L635.38,114.53L635.81,207.97L635.9,87.73L636.12,116.82L636.13,134.18L636.23,80.21L636.87,197.52L636.94,190.82L636.95,189.64L637.38,122.46L637.51,230.37L637.7,184.67L637.71,186.94L638.07,206.41L638.17,121.96L638.42,175.7L638.44,159.04L638.82,102.12L639,185.53L639.19,143.25L639.2,153.28L639.26,196.46L639.48,110.49L639.77,153.91L639.78,149.28L639.91,209.71L640.19,135.15L640.37,155.25L640.38,170.88L640.49,111.14L640.96,235.48L641.1,156.12L641.11,151.14L641.17,173.59L641.59,114.09L641.89,122.9L641.9,136L642.41,174.04L642.61,122.46L642.62,123.02L642.63,116.91L643.17,218.65L643.49,175.45L643.5,152.37L643.69,219.96L644.1,114.81L644.28,136.64L644.3,144.63L644.33,135.52L644.52,174.39L644.53,182.04L644.67,194.83L645.01,103.54L645.27,188.85L645.28,193.67L645.61,213.66L645.9,111.71L646.06,155.33L646.08,158.76L646.59,127.64L646.67,186.76L646.74,168.77L646.76,183.83L646.77,188.46L647.13,55.38L647.37,121.29L647.38,116.69L647.45,98.37L647.87,208.77L648.01,159.76L648.02,167.75L648.26,147.02L648.71,223.92L648.8,195.77L648.81,188.18L649.17,92.31L649.4,202.72L649.55,187.45L649.56,191.5L649.66,212.98L650.33,87.91L650.37,122.56L650.38,122.93L650.46,185.31L650.66,87.45L651.05,151.75L651.06,171.38L651.27,125.12L651.68,206.94L651.76,154.66L651.77,150.17L651.91,197.8L652.24,113.67L652.48,175.91L652.49,176.96L652.5,177.39L652.53,151.83L652.56,154.57L652.57,145.3L652.69,198.93L652.85,116.76L653.3,143.1L653.31,140.79L653.37,115.57L653.73,174.86L654.05,144.24L654.06,157.07L654.17,139.28L654.6,222.4L654.78,158.76L654.8,148.49L655.06,100.34L655.19,214.78L655.52,180.3L655.53,179.32L655.8,202.65L656.1,127.01L656.11,116.71L656.48,72.65L656.66,171.54L656.82,128.34L656.83,135.12L657,104.92L657.54,189.63L657.6,163.21L657.61,157.95L657.71,123.81L657.85,212.16L657.87,222.66L658.26,116.35L658.63,153.6L658.64,169.49L658.7,206.57L659.12,110.31L659.35,161.13L659.37,152.81L659.44,125.82L659.53,212.6L660.05,188.9L660.06,189.31L660.24,128.83L660.71,202.42L660.76,170.22L660.77,159.9L660.85,178.48L661.15,116.8L661.46,155.75L661.48,166.97L661.82,178.42L661.99,125.83L662.21,156.08L662.23,151.52L662.6,134.14L662.67,204.66L662.92,174.37L662.93,185.64L663.27,123.93L663.44,229.31L663.46,234.03L664.26,97.7L664.28,95.95L664.29,94.55L664.49,159.7L664.6,145.65L664.62,154.61L664.7,178.13L665.21,83.2L665.35,150.34L665.37,150.36L665.46,130.33L665.86,218.64L666.13,177.3L666.14,168.03L666.19,169.62L666.4,117.81L666.88,169.6L666.89,169.13L667.11,125.37L667.31,200.28L667.65,183.72L667.66,182.78L667.7,186.23L668.49,127.59L668.53,142.69L668.54,150.75L668.58,186.44L669.02,90.6L669.28,136.4L669.29,144.72L669.53,132.3L669.61,166.76L669.73,136.55L669.74,130.18L670.09,116.63L670.17,180L670.5,147.74L670.51,142.81L670.69,126.15L671.33,194.74L671.34,191.4L671.35,180.01L671.44,190.08L672,141.1L672.12,169.21L672.13,174.56L672.15,193.71L672.73,129.92L672.84,149.32L672.85,139.65L672.9,135.48L672.91,126.82L673.22,99.57L673.26,164L673.53,160.72L673.55,168.9L673.58,194.72L673.87,127.91L674.26,135.54L674.27,122.71L674.28,114.18L674.67,202.81L675,139.17L675.01,135.27L675.03,118.75L675.46,205.9L675.71,182.61L675.73,183.68L676.15,126.02L676.28,192.99L676.55,135.15L676.56,148.95L677.05,175.87L677.16,109.63L677.3,146.08L677.31,146.33L677.49,117.04L677.95,187.72L678.13,162.8L678.14,153.39L678.19,121.6L678.36,205.72L678.7,180.41L678.71,196.81L678.74,215.46L679.18,104.76L679.19,96.92L679.57,201.42L679.99,147.7L680,142.87L680.1,112.1L680.6,198.74L680.8,161.03L680.81,154.74L681.03,89.22L681.48,216.94L681.58,190.75L681.6,170.34L681.63,162.56L681.68,177.68L681.71,166.38L681.73,156.65L681.78,167.37L682.15,97.86L682.46,166.22L682.48,181.68L682.49,193.57L682.9,110.1L683.21,180.08L683.23,174.54L683.79,108.33L683.93,218.92L683.94,218.82L683.95,223.73L684.71,132.06L684.74,156.54L684.75,158.25L685.28,184.38L685.42,116.58L685.51,177.1L685.52,171.19L685.78,104.57L686.17,172.63L686.27,163.92L686.28,171.24L686.35,159.04L686.86,242.58L687.03,180.37L687.05,175.09L687.14,203.98L687.54,106.12L687.76,149.78L687.77,142L688.12,68.89L688.3,194.91L688.48,166.94L688.49,173.06L688.65,105.22L689.06,187.84L689.24,170.37L689.25,180.72L689.6,117.13L689.72,194.9L689.89,118.43L689.91,116.68L690.23,199.73L690.46,134.49L690.47,131.97L690.64,105.16L691.1,169.76L691.21,137.47L691.22,134.69L691.24,127.92L691.79,182.77L691.93,144.89L691.94,151.53L691.99,144.19L692.17,181.83L692.18,195.42L692.42,220.25L692.53,148.89L692.58,156.01L692.59,153.87L692.85,129.7L693.01,202.57L693.35,168.17L693.36,164.23L693.57,194.6L694.09,120.12L694.12,155.76L694.14,169.77L694.16,190.69L694.26,114.55L694.87,166.93L694.89,163.65L694.9,164.63L695.1,114.98L695.3,135.2L695.31,130.14L695.72,170.1L695.87,91.27L696.05,143.93L696.06,131.01L696.64,199.27L696.75,127.97L696.89,186.97L696.9,181.23L696.95,201.76L697.01,125.83L697.6,150.64L697.62,150.25L697.78,115.01L697.84,197.95L698.31,149.22L698.32,136.64L698.5,212.7L698.85,97.91L699.06,154.78L699.07,148.45L699.5,118.58L699.66,204.64L699.8,151.22L699.81,163.27L700.04,141.66L700.18,206.93L700.56,164L700.57,158.5L700.6,164.04L700.83,99.52L701.21,152.05L701.23,161.04L701.27,178.4L701.69,108L701.95,156.68L701.96,152.58L702.36,210.87L702.48,141.99L702.62,156.9L702.63,139.96L702.81,116.89L703.11,216.65L703.32,173.91L703.34,174.54L703.77,198.05L703.86,137.66L704.07,176.33L704.09,165.35L704.31,189.68L704.71,114.96L704.86,144.71L704.87,163.26L704.96,196.99L705.4,111.4L705.6,163.16L705.61,155.2L705.74,109.64L706.09,181.67L706.35,153.99L706.36,164.46L706.86,107.1L707,185.2L707.12,148.49L707.13,155.56L707.33,188.82L707.76,111.59L707.89,172.03L707.91,152.22L708.14,186.64L708.62,109.42L708.68,123.09L708.69,137.4L708.84,117.01L709.37,217.52L709.44,162.02L709.45,149.28L709.69,139.07L709.92,200.36L710.17,165.61L710.18,172.19L710.26,205.28L710.87,147.94L710.92,161.1L710.93,163.28L710.95,168.78L711.03,130.71L711.07,163.23L711.08,169.64L711.35,114.35L711.78,193.34L711.83,170.51L711.84,161.05L711.93,163.56L712.24,82.9L712.6,142.37L712.62,150.89L712.85,211.38L713.19,133.5L713.33,163.47L713.34,171.71L713.59,225.96L714,76.77L714.08,158.98L714.09,161.16L714.64,101.37L714.78,183.27L714.84,158.88L714.85,157.11L714.93,118.21L715.48,198.59L715.49,209.93L715.52,184.85L715.53,171.55L715.79,155.88L715.86,200.42L715.87,215.2L715.89,215.42L715.9,200.93L716.03,135.81L716.71,147.57L716.72,151.76L716.95,114.11L717.34,204.66L717.47,147.42L717.48,146.47L717.78,105.8L717.94,164.91L718.22,143.86L718.23,153.65L718.53,175.97L718.83,109.13L718.97,146.89L718.98,137.88L719.45,189.36L719.55,106.77L719.73,146.75L719.74,137.92L719.79,109.51L720.33,216.27L720.43,160.28L720.44,175.08L720.52,207.42L720.96,123.53L720.97,123.51L721.28,173.59L721.73,160.35L721.75,155.43L721.78,126.29L721.9,185.71L722.48,148.43L722.5,155.65L722.58,204.31L722.93,137.06L723.23,147.54L723.25,144.92L723.77,199.02L723.94,140.76L723.95,136.7L724.08,118.38L724.18,178.97L724.71,144.95L724.72,143.91L724.92,183.36L725.07,113.41L725.36,134.43L725.37,126.33L725.48,90.83L725.55,172.7L726.08,142.68L726.09,150.82L726.23,172.22L726.28,133.8L726.34,165.12L726.35,182L726.93,136.04L727.01,219.46L727.07,179.34L727.08,166.71L727.52,131.74L727.66,218.85L727.8,187.94L727.82,187.13L727.99,208.84L728.4,129.6L728.59,163.56L728.6,165.8L728.82,148.06L728.87,187L728.99,151.06L729,141.77L729.03,119.06L729.4,180.22L729.75,135.56L729.76,134.71L729.95,102.96L730.05,172.37L730.31,144.1L730.32,167.18L730.69,230.36L730.89,139.49L731.04,160.59L731.05,158.15L731.14,124.49L731.59,178.04L731.81,138.21L731.82,143.25L731.95,123.18L732.39,216.08L732.53,136.31L732.54,133.31L732.63,173.77L732.86,113.35L733.28,137.52L733.29,141.78L733.51,121.16L733.97,209.87L734.07,182.63L734.09,168.05L734.23,220.39L734.54,128.03L734.84,165.36L734.85,163.35L734.86,163.12L734.88,171.41L734.91,164.83L734.92,152.83L734.96,118.28L735.61,176.76L735.66,156.27L735.67,160.83L735.87,175.93L736.16,109.63L736.42,141.69L736.43,157.04L736.84,188.47L737.06,109.38L737.16,133.18L737.17,133.66L737.33,99.55L737.77,238.35L737.92,142.87L737.93,147.44L737.99,213.58L738.12,134.95L738.64,139.54L738.66,135.04L738.82,170.78L739.07,104.76L739.32,137.39L739.34,154.8L739.55,107.75L739.72,215.03L740.09,169.57L740.1,167.54L740.25,99.58L740.78,190.93L740.81,164.08L740.82,161.9L740.88,210.54L741.37,141.51L741.41,173.26L741.42,190.14L741.96,114.32L742.22,119.21L742.23,124.33L742.68,119.82L742.76,189.22L743.07,171.87L743.09,166.6L743.74,180.96L743.86,107.89L743.87,111.92L743.88,124.58L743.94,204L744.48,100.67L744.63,135.49L744.64,137.61L744.66,136.89L744.69,158.07L744.7,167.49L744.75,177.58L744.81,151.72L744.82,135.05L744.83,134.82L744.84,141.18L744.86,151.95L744.93,196.13L745.32,145.82L745.46,156.27L745.48,154.5L745.77,132.16L745.83,176.26L746.21,153.47L746.23,151.97L746.29,160.51L746.32,142.64L746.33,140.41L746.53,174.45L746.62,118.14L747.08,141.28L747.09,128.02L747.16,115.38L747.54,176.64L747.6,144.19L747.61,139.38L747.94,197.57L748.02,121.15L748.42,184.52L748.43,174.91L748.49,195.03L748.87,113.39L749.19,162.32L749.2,163.95L749.41,170.83L749.52,126.28L749.68,131.18L749.7,116.33L749.8,184.77L749.96,105.98L750,154.42" style="vector-effect: non-scaling-stroke; fill: none; stroke: rgb(188, 189, 34); stroke-opacity: 1; stroke-width: 2px; opacity: 1;"/></g><g class="points"/><g class="text"/></g></g></g><g class="overplot"/><path class="xlines-above crisp" d="" style="fill: none; stroke-width: 1px; stroke: rgb(0, 0, 0); stroke-opacity: 0;"/><path class="ylines-above crisp" d="" style="fill: none; stroke-width: 1px; stroke: rgb(0, 0, 0); stroke-opacity: 0;"/><g class="overlines-above"/><g class="xaxislayer-above"><path class="xtick ticks crisp" d="M0,421v5" transform="translate(80,0)" style="stroke: rgb(51, 51, 51); stroke-opacity: 1; stroke-width: 1px;"/><path class="xtick ticks crisp" d="M0,421v5" transform="translate(173.75,0)" style="stroke: rgb(51, 51, 51); stroke-opacity: 1; stroke-width: 1px;"/><path class="xtick ticks crisp" d="M0,421v5" transform="translate(267.5,0)" style="stroke: rgb(51, 51, 51); stroke-opacity: 1; stroke-width: 1px;"/><path class="xtick ticks crisp" d="M0,421v5" transform="translate(361.25,0)" style="stroke: rgb(51, 51, 51); stroke-opacity: 1; stroke-width: 1px;"/><path class="xtick ticks crisp" d="M0,421v5" transform="translate(455.01,0)" style="stroke: rgb(51, 51, 51); stroke-opacity: 1; stroke-width: 1px;"/><path class="xtick ticks crisp" d="M0,421v5" transform="translate(548.76,0)" style="stroke: rgb(51, 51, 51); stroke-opacity: 1; stroke-width: 1px;"/><path class="xtick ticks crisp" d="M0,421v5" transform="translate(642.51,0)" style="stroke: rgb(51, 51, 51); stroke-opacity: 1; stroke-width: 1px;"/><path class="xtick ticks crisp" d="M0,421v5" transform="translate(736.26,0)" style="stroke: rgb(51, 51, 51); stroke-opacity: 1; stroke-width: 1px;"/><path class="xtick ticks crisp" d="M0,421v5" transform="translate(830.01,0)" style="stroke: rgb(51, 51, 51); stroke-opacity: 1; stroke-width: 1px;"/><g class="xtick"><text text-anchor="middle" x="0" y="444" transform="translate(80,0)" style="font-family: 'Open Sans', verdana, arial, sans-serif; font-size: 15px; fill: rgb(51, 51, 51); fill-opacity: 1; white-space: pre;">0</text></g><g class="xtick"><text text-anchor="middle" x="0" y="444" transform="translate(173.75,0)" style="font-family: 'Open Sans', verdana, arial, sans-serif; font-size: 15px; fill: rgb(51, 51, 51); fill-opacity: 1; white-space: pre;">500</text></g><g class="xtick"><text text-anchor="middle" x="0" y="444" transform="translate(267.5,0)" style="font-family: 'Open Sans', verdana, arial, sans-serif; font-size: 15px; fill: rgb(51, 51, 51); fill-opacity: 1; white-space: pre;">1000</text></g><g class="xtick"><text text-anchor="middle" x="0" y="444" transform="translate(361.25,0)" style="font-family: 'Open Sans', verdana, arial, sans-serif; font-size: 15px; fill: rgb(51, 51, 51); fill-opacity: 1; white-space: pre;">1500</text></g><g class="xtick"><text text-anchor="middle" x="0" y="444" transform="translate(455.01,0)" style="font-family: 'Open Sans', verdana, arial, sans-serif; font-size: 15px; fill: rgb(51, 51, 51); fill-opacity: 1; white-space: pre;">2000</text></g><g class="xtick"><text text-anchor="middle" x="0" y="444" transform="translate(548.76,0)" style="font-family: 'Open Sans', verdana, arial, sans-serif; font-size: 15px; fill: rgb(51, 51, 51); fill-opacity: 1; white-space: pre;">2500</text></g><g class="xtick"><text text-anchor="middle" x="0" y="444" transform="translate(642.51,0)" style="font-family: 'Open Sans', verdana, arial, sans-serif; font-size: 15px; fill: rgb(51, 51, 51); fill-opacity: 1; white-space: pre;">3000</text></g><g class="xtick"><text text-anchor="middle" x="0" y="444" transform="translate(736.26,0)" style="font-family: 'Open Sans', verdana, arial, sans-serif; font-size: 15px; fill: rgb(51, 51, 51); fill-opacity: 1; white-space: pre;">3500</text></g><g class="xtick"><text text-anchor="middle" x="0" y="444" transform="translate(830.01,0)" style="font-family: 'Open Sans', verdana, arial, sans-serif; font-size: 15px; fill: rgb(51, 51, 51); fill-opacity: 1; white-space: pre;">4000</text></g></g><g class="yaxislayer-above"><path class="ytick ticks crisp" d="M79,0h-5" transform="translate(0,375.2)" style="stroke: rgb(51, 51, 51); stroke-opacity: 1; stroke-width: 1px;"/><path class="ytick ticks crisp" d="M79,0h-5" transform="translate(0,317.59000000000003)" style="stroke: rgb(51, 51, 51); stroke-opacity: 1; stroke-width: 1px;"/><path class="ytick ticks crisp" d="M79,0h-5" transform="translate(0,259.99)" style="stroke: rgb(51, 51, 51); stroke-opacity: 1; stroke-width: 1px;"/><path class="ytick ticks crisp" d="M79,0h-5" transform="translate(0,202.38)" style="stroke: rgb(51, 51, 51); stroke-opacity: 1; stroke-width: 1px;"/><path class="ytick ticks crisp" d="M79,0h-5" transform="translate(0,144.77)" style="stroke: rgb(51, 51, 51); stroke-opacity: 1; stroke-width: 1px;"/><g class="ytick"><text text-anchor="end" x="71" y="5.25" transform="translate(0,375.2)" style="font-family: 'Open Sans', verdana, arial, sans-serif; font-size: 15px; fill: rgb(51, 51, 51); fill-opacity: 1; white-space: pre;">0.4</text></g><g class="ytick"><text text-anchor="end" x="71" y="5.25" transform="translate(0,317.59000000000003)" style="font-family: 'Open Sans', verdana, arial, sans-serif; font-size: 15px; fill: rgb(51, 51, 51); fill-opacity: 1; white-space: pre;">0.2</text></g><g class="ytick"><text text-anchor="end" x="71" y="5.25" transform="translate(0,259.99)" style="font-family: 'Open Sans', verdana, arial, sans-serif; font-size: 15px; fill: rgb(51, 51, 51); fill-opacity: 1; white-space: pre;">0</text></g><g class="ytick"><text text-anchor="end" x="71" y="5.25" transform="translate(0,202.38)" style="font-family: 'Open Sans', verdana, arial, sans-serif; font-size: 15px; fill: rgb(51, 51, 51); fill-opacity: 1; white-space: pre;">0.2</text></g><g class="ytick"><text text-anchor="end" x="71" y="5.25" transform="translate(0,144.77)" style="font-family: 'Open Sans', verdana, arial, sans-serif; font-size: 15px; fill: rgb(51, 51, 51); fill-opacity: 1; white-space: pre;">0.4</text></g></g><g class="overaxes-above"/></g></g><g class="polarlayer"/><g class="ternarylayer"/><g class="geolayer"/><g class="pielayer"/><g class="sunburstlayer"/><g class="glimages"/><defs id="topdefs-337473"><g class="clips"/><clipPath id="legend337473"><rect width="123" height="33" x="0" y="0"/></clipPath></defs><g class="layer-above"><g class="imagelayer"/><g class="shapelayer"/></g><g class="infolayer"><g class="legend" pointer-events="all" transform="translate(845, 100)"><rect class="bg" shape-rendering="crispEdges" width="123" height="33" x="0" y="0" style="stroke: rgb(68, 68, 68); stroke-opacity: 1; fill: rgb(255, 255, 255); fill-opacity: 1; stroke-width: 0px;"/><g class="scrollbox" transform="translate(0, 0)" clip-path="url('#legend337473')"><g class="groups" transform="translate(0, 0)"><g class="traces" transform="translate(0, 16.25)" style="opacity: 1;"><text class="legendtext user-select-none" text-anchor="start" x="40" y="5.85" style="font-family: 'Open Sans', verdana, arial, sans-serif; font-size: 15px; fill: rgb(51, 51, 51); fill-opacity: 1; white-space: pre;">class=siren</text><g class="layers" style="opacity: 1;"><g class="legendfill"/><g class="legendlines"><path class="js-line" d="M5,0h30" style="fill: none; stroke: rgb(188, 189, 34); stroke-opacity: 1; stroke-width: 2px;"/></g><g class="legendsymbols"><g class="legendpoints"/></g></g><rect class="legendtoggle" pointer-events="all" x="0" y="-11.25" width="163" height="22.5" style="cursor: pointer; fill: rgb(0, 0, 0); fill-opacity: 0;"/></g></g></g><rect class="scrollbar" rx="20" ry="3" width="0" height="0" x="0" y="0" style="fill: rgb(128, 139, 164); fill-opacity: 1;"/></g><g class="g-gtitle"><text class="gtitle" x="490" y="50" text-anchor="middle" dy="0em" style="font-family: 'Open Sans', verdana, arial, sans-serif; font-size: 21px; fill: rgb(51, 51, 51); opacity: 1; font-weight: normal; white-space: pre;">time vs amplitude</text></g><g class="g-xtitle"><text class="xtitle" x="455" y="484" text-anchor="middle" style="font-family: 'Open Sans', verdana, arial, sans-serif; font-size: 18px; fill: rgb(51, 51, 51); opacity: 1; font-weight: normal; white-space: pre;">time(ms)</text></g><g class="g-ytitle"><text class="ytitle" transform="rotate(-90,34,260)" x="34" y="260" text-anchor="middle" style="font-family: 'Open Sans', verdana, arial, sans-serif; font-size: 18px; fill: rgb(51, 51, 51); opacity: 1; font-weight: normal; white-space: pre;">amplitude</text></g></g></svg>