<svg class="main-svg" xmlns="http://www.w3.org/2000/svg" xmlns:xlink="http://www.w3.org/1999/xlink" width="980" height="500" viewBox="0 0 980 500"><rect x="0" y="0" width="980" height="500" style="fill: rgb(255, 255, 255); fill-opacity: 1;"/><defs id="defs-d662a7"><g class="clips"><clipPath id="clipd662a7xyplot" class="plotclip"><rect width="740" height="320"/></clipPath><clipPath class="axesclip" id="clipd662a7x"><rect x="80" y="0" width="740" height="500"/></clipPath><clipPath class="axesclip" id="clipd662a7y"><rect x="0" y="100" width="980" height="320"/></clipPath><clipPath class="axesclip" id="clipd662a7xy"><rect x="80" y="100" width="740" height="320"/></clipPath></g><g class="gradients"/></defs><g class="bglayer"><rect class="bg" x="80" y="100" width="740" height="320" style="fill: rgb(237, 237, 237); fill-opacity: 1; stroke-width: 0;"/></g><g class="layer-below"><g class="imagelayer"/><g class="shapelayer"/></g><g class="cartesianlayer"><g class="subplot xy"><g class="layer-subplot"><g class="shapelayer"/><g class="imagelayer"/></g><g class="gridlayer"><g class="x"><path class="xgrid crisp" transform="translate(172.5,0)" d="M0,100v320" style="stroke: rgb(255, 255, 255); stroke-opacity: 1; stroke-width: 1px;"/><path class="xgrid crisp" transform="translate(265,0)" d="M0,100v320" style="stroke: rgb(255, 255, 255); stroke-opacity: 1; stroke-width: 1px;"/><path class="xgrid crisp" transform="translate(357.5,0)" d="M0,100v320" style="stroke: rgb(255, 255, 255); stroke-opacity: 1; stroke-width: 1px;"/><path class="xgrid crisp" transform="translate(450.01,0)" d="M0,100v320" style="stroke: rgb(255, 255, 255); stroke-opacity: 1; stroke-width: 1px;"/><path class="xgrid crisp" transform="translate(542.51,0)" d="M0,100v320" style="stroke: rgb(255, 255, 255); stroke-opacity: 1; stroke-width: 1px;"/><path class="xgrid crisp" transform="translate(635.01,0)" d="M0,100v320" style="stroke: rgb(255, 255, 255); stroke-opacity: 1; stroke-width: 1px;"/><path class="xgrid crisp" transform="translate(727.51,0)" d="M0,100v320" style="stroke: rgb(255, 255, 255); stroke-opacity: 1; stroke-width: 1px;"/></g><g class="y"><path class="ygrid crisp" transform="translate(0,375.2)" d="M80,0h740" style="stroke: rgb(255, 255, 255); stroke-opacity: 1; stroke-width: 1px;"/><path class="ygrid crisp" transform="translate(0,317.59000000000003)" d="M80,0h740" style="stroke: rgb(255, 255, 255); stroke-opacity: 1; stroke-width: 1px;"/><path class="ygrid crisp" transform="translate(0,202.38)" d="M80,0h740" style="stroke: rgb(255, 255, 255); stroke-opacity: 1; stroke-width: 1px;"/><path class="ygrid crisp" transform="translate(0,144.77)" d="M80,0h740" style="stroke: rgb(255, 255, 255); stroke-opacity: 1; stroke-width: 1px;"/></g></g><g class="zerolinelayer"><path class="xzl zl crisp" transform="translate(80,0)" d="M0,100v320" style="stroke: rgb(255, 255, 255); stroke-opacity: 1; stroke-width: 1px;"/><path class="yzl zl crisp" transform="translate(0,259.99)" d="M80,0h740" style="stroke: rgb(255, 255, 255); stroke-opacity: 1; stroke-width: 1px;"/></g><path class="xlines-below"/><path class="ylines-below"/><g class="overlines-below"/><g class="xaxislayer-below"/><g class="yaxislayer-below"/><g class="overaxes-below"/><g class="plot" transform="translate(80, 100)" clip-path="url('#clipd662a7xyplot')"><g class="scatterlayer mlayer"><g class="trace scatter trace9979213f-c953-4106-abcd-fb4e73303e44" style="stroke-miterlimit: 2; opacity: 1;"><g class="fills"/><g class="errorbars"/><g class="lines"><path class="js-line" d="M0,159.99L0.49,195.34L0.62,108.06L0.64,93.07L1.49,236.61L1.5,218.97L1.51,193.05L1.83,94.09L2.25,174.46L2.27,192.37L2.35,119.31L2.88,215.51L2.98,192.05L2.99,180.51L3.15,201.91L3.82,101.12L3.83,118.98L4.13,159.75L4.43,70.02L4.58,140.48L4.59,131.21L4.9,111.17L5.03,223.14L5.37,179.88L5.38,155.15L6.01,243.87L6.08,102.35L6.12,158.52L6.13,179.94L6.29,93.4L6.73,201.29L6.85,171.75L6.86,166.5L6.94,212.8L7.22,98.34L7.62,186.05L7.63,192.03L7.67,238.05L7.83,122.93L8.33,146L8.34,131.62L8.35,121.98L8.42,197.01L9.05,163.62L9.07,165.48L9.17,193.88L9.45,107.88L9.67,121.7L9.68,122.51L9.69,122.66L9.7,116.05L9.74,116.37L9.75,104.87L9.98,186.95L10.05,88.63L10.35,118.21L10.36,91.48L10.37,90.51L10.42,155.19L10.43,170.08L10.71,114.71L10.97,201.81L11.15,138.99L11.16,126.68L11.19,121.14L11.25,180.93L11.75,179.09L11.76,206.89L12.15,224.73L12.33,110.21L12.46,144.32L12.48,141.11L12.79,230.85L13.02,129.7L13.08,176.11L13.09,195.83L13.1,196.31L13.11,171.51L13.12,147.25L13.25,75.18L13.82,204.73L13.83,201.9L14.06,215.05L14.33,122.09L14.46,183L14.48,195.18L14.49,205.49L15,97.33L15.18,155.47L15.19,141.68L15.71,192.05L15.91,116.24L15.93,140.88L15.94,155.89L16.03,115.87L16.23,200.5L16.67,153.43L16.68,135.23L16.73,234.86L16.99,96.74L17.15,129.77L17.16,124.72L17.47,228.35L17.86,85.2L17.88,87.25L17.89,85.82L18.26,213.96L18.7,139.78L18.71,138.03L18.93,209.54L19.1,115.64L19.38,131.79L19.39,125.88L19.49,112.78L20.04,245.31L20.14,142.37L20.15,133.78L20.19,131.5L20.33,190.82L20.34,195.89L20.66,205.76L21.09,98.57L21.11,133.47L21.13,171.93L21.14,189.53L21.63,89.26L21.85,127.61L21.87,125.58L22.12,234.41L22.51,56.13L22.61,122.95L22.62,144.33L22.78,107.32L23.41,219.08L23.43,218.09L23.44,202.39L23.76,78.67L24.18,195.48L24.19,202.68L24.27,207.2L24.33,167.34L24.34,156.36L24.61,100.04L24.84,190.79L25.07,160.27L25.08,142.82L25.17,208.85L25.35,123.8L25.77,162.67L25.78,176.59L25.83,211.01L25.9,143.36L25.96,146.86L25.97,124.78L26.13,217.17L26.31,80.77L26.7,164.49L26.71,165.64L26.87,195.69L27.24,92.43L27.51,120.3L27.52,128.34L27.72,216.01L28.07,110.11L28.26,128.21L28.27,127.69L28.4,211.95L28.63,101.68L29,171.04L29.01,162.57L29.58,222.25L29.72,112.35L29.74,147.38L29.75,177.79L30.14,189.5L30.31,99.74L30.46,142.37L30.47,119.4L30.49,110.68L30.53,155.19L30.54,175.63L30.83,84.44L31.06,186.35L31.28,159.78L31.29,183.6L31.3,184.5L31.5,143.79L31.51,122.56L31.74,225.96L31.92,76.16L31.97,185.08L31.98,200.81L32.38,208.88L32.75,57.56L32.8,106.8L32.81,117.2L33.01,78.07L33.28,236.58L33.54,172.95L33.55,162.27L34.1,208.58L34.25,108.34L34.29,145.4L34.31,166.67L34.33,187.46L34.99,99.44L35.05,169.19L35.06,152.44L35.24,207.06L35.62,89.55L35.81,112.41L35.82,133.45L35.97,122.4L36.45,221.18L36.6,197.85L36.61,199.23L37.1,119.35L37.17,190.66L37.19,204.32L37.2,210.22L37.54,94.32L37.83,146.74L37.84,141.35L38.24,106.42L38.38,207.34L38.39,216.16L38.47,238.77L39.22,125.75L39.23,142.44L39.24,170.94L39.37,94.62L39.49,193.41L39.91,140.99L39.93,127.14L40.06,42.26L40.55,199.05L40.64,179.64L40.65,181.78L40.99,214.93L41.43,109.45L41.44,129.68L41.45,157.95L41.9,142.67L42.19,238.81L42.22,200.29L42.23,174L42.45,101.54L42.86,232.85L42.99,154.21L43,178.31L43.08,100.32L43.63,217.26L43.68,159.31L43.7,143.36L43.89,43.59L44.16,214.44L44.17,218.85L44.63,54.34L44.94,173.93L44.96,168.25L45.16,214.44L45.27,118.89L45.67,150.13L45.68,140.97L45.71,108.71L46.16,224.07L46.38,185.26L46.39,200.35L46.51,247.64L46.91,88.57L46.92,88.59L46.93,81.32L46.97,61.07L47.08,170.04L47.16,144.85L47.18,156.16L47.48,104.97L47.87,207.5L47.9,149.1L47.92,126.3L48.36,217.24L48.39,157.82L48.4,136.37L48.42,102.59L48.81,206.64L49.14,162.86L49.15,154.77L49.23,107.26L49.63,212.38L49.9,145.39L49.92,152.14L50.08,92.01L50.29,218.68L50.6,154.17L50.61,130.11L51.11,91.7L51.27,198.45L51.37,97.3L51.38,115.98L51.58,262.32L52.11,135.36L52.12,117.55L52.37,99.46L52.46,200.32L52.53,124.82L52.54,109.27L52.69,179.19L52.83,85.22L53.08,179.05L53.1,194.22L53.15,222.3L53.45,77.49L53.86,217.48L53.87,210L54.09,101.95L54.63,134.19L54.65,148.5L54.83,129.19L55.36,291.8L55.4,175.12L55.41,157.73L55.55,264.39L56.08,103.24L56.11,176.16L56.13,197.7L56.15,202.12L56.47,69.93L56.56,87.86L56.58,84.1L56.67,213.71L57.17,79.86L57.37,186.92L57.39,175.13L57.5,250.06L58.17,100.14L58.18,100.43L58.81,222.33L59,189.21L59.02,184.28L59.29,92.19L59.72,215.21L59.73,233.68L59.84,246.77L60.24,68.43L60.54,147.6L60.55,170.71L60.61,229.45L61.14,100.58L61.29,171.98L61.31,167.11L61.68,218.55L61.91,65.79L62.01,117.25L62.02,106.27L62.08,102.35L62.54,269.48L62.85,194.79L62.87,174.33L63.02,205.47L63.18,107.04L63.63,144.49L63.64,136.72L63.75,242L63.87,117.66L64.08,182.07L64.09,203.97L64.1,217.5L64.46,121.94L64.79,166.39L64.8,146.15L64.83,109.78L65.36,216.74L65.53,151.75L65.54,181.2L65.63,205.81L66.02,55.49L66.24,159.92L66.25,154.54L66.46,254.63L67.02,79.44L67.03,105.07L67.04,135.19L67.66,81.3L67.83,187.22L67.85,179.2L67.86,175.52L68.09,152.04L68.58,268.7L68.62,200.31L68.64,177.69L68.82,236.79L68.99,114.55L69.39,168.44L69.4,181.16L69.41,188.75L69.78,79.02L70.13,177.28L70.14,170.77L70.45,95.79L70.8,230.2L70.86,208.22L70.87,225.12L70.89,249.82L71.05,97.62L71.58,203.02L71.6,186.43L72.15,71.16L72.31,204.13L72.35,181.28L72.36,185.42L72.45,247.69L73.32,68.95L73.35,117.48L73.37,136.67L73.71,228.38L74.05,86.51L74.12,140.28L74.13,148.87L74.22,108.77L74.61,227.57L74.93,190.42L74.94,188.04L74.97,210.09L75.39,130.21L75.61,142.39L75.62,136.9L75.74,94.06L75.78,198.21L76.26,183.09L76.27,182.82L76.54,112.41L76.65,219.35L76.88,163.41L76.89,143.2L77.18,234L77.68,74.35L77.69,85.07L77.7,109.61L78.26,101.17L78.42,203.78L78.45,138.39L78.46,115.31L78.49,100.29L78.94,180.76L79.11,170.62L79.12,178.98L79.44,265.37L79.54,127.12L79.82,173.05L79.83,153.38L80.22,185.05L80.5,63.63L80.58,141.87L80.59,139.68L81,207.87L81.07,120.6L81.32,131.77L81.33,111.35L81.69,282.58L81.89,71.3L82.08,103.04L82.1,111.54L82.48,237.2L82.79,100.77L82.8,100.94L83.31,232.5L83.58,182.81L83.59,170.24L83.81,171.52L84,89.03L84.36,136.51L84.37,155.28L84.38,155.67L84.4,133.65L84.41,121L84.62,119.93L84.8,201.35L84.96,138.96L84.97,116.73L85,99.13L85.46,268.88L85.61,180.35L85.62,197.72L85.64,237.46L86.17,97.98L86.35,153.59L86.36,125.06L86.4,81.91L86.86,199.96L87.09,159.3L87.1,163.69L87.43,224.65L87.66,119.97L87.69,175.31L87.7,211.19L87.71,220.84L88.3,127.45L88.37,151.43L88.39,145.46L88.43,195.16L88.51,96.74L89.03,169.61L89.04,175.97L89.31,121.79L89.65,217.36L89.69,153.17L89.7,133.43L90.11,220.71L90.27,126.67L90.3,138.59L90.32,117.4L90.85,87.21L90.93,190.05L91.01,136.91L91.02,158.49L91.3,97.24L91.55,195.55L91.78,181.6L91.8,181.34L92.13,112.66L92.33,203.91L92.61,129.58L92.62,154.04L92.71,106.09L93.15,224.08L93.38,179.76L93.39,189.01L93.6,110.89L93.95,215.96L94.12,178.9L94.13,162.09L94.5,79.33L94.64,207.97L94.95,128.68L94.96,140.86L95.02,244.93L95.08,90.04L95.53,163.96L95.54,152.17L95.75,48.01L96.2,219.48L96.26,188.9L96.27,203.09L96.31,225.23L96.55,89.98L96.95,130.61L96.96,127.52L96.98,130.2L97.11,68.45L97.13,47.9L97.59,213.32L97.91,155.86L97.92,153.52L98.06,127.86L98.34,262.09L98.64,135.34L98.65,136.05L98.71,212.38L98.87,159.42L98.88,147.55L99.27,86.8L99.53,171.75L99.59,163.66L99.6,165.79L99.83,105.51L99.94,226.09L100.36,215.46L100.38,191.79L100.43,101.32L100.91,222.86L101.14,139.29L101.15,138.77L101.39,59.91L101.51,185.63L101.86,158.09L101.87,140.83L101.89,107.89L102.48,227.77L102.6,171.52L102.61,174.11L102.82,117.4L102.84,174.68L102.85,199.56L102.93,222.97L103.37,95.91L103.54,128.7L103.56,122.86L103.64,112L103.81,212.43L104.12,157.66L104.13,142.57L104.16,90.81L104.54,253.32L104.86,154.07L104.87,145.57L105.19,229.26L105.53,73.86L105.57,174.07L105.58,197.63L106.04,212.74L106.28,79.79L106.34,107.07L106.35,146.07L106.42,106.3L106.65,270.36L107.07,114.35L107.08,103.45L107.14,80.37L107.2,132.9L107.21,158.44L107.3,67.16L107.35,169.11L107.36,178.9L107.75,95.08L107.87,195.16L108.09,157.3L108.1,168.86L108.59,263.75L108.77,120.97L108.86,186.17L108.87,173.56L109.11,197.84L109.17,103.27L109.5,175.31L109.51,186.11L109.59,205.39L110.07,81.24L110.27,160.76L110.28,163.7L110.67,126.69L110.74,219.06L110.9,165.56L110.91,190.07L110.93,218.5L111.5,103.84L111.61,110.48L111.63,102.96L112.32,199.6L112.45,182.9L112.46,166.08L112.83,91.62L112.91,216.27L113.2,164.18L113.21,161.17L113.45,211.19L113.53,115.99L113.72,187.84L113.73,214.44L113.95,113.07L114.42,237.12L114.47,201.51L114.48,206.15L114.59,119.55L115.07,276.49L115.23,155.46L115.25,169.2L115.28,228.71L115.7,63.74L115.99,180.31L116,149.07L116.44,86.88L116.52,205.58L116.73,191.06L116.74,192L116.76,211.28L116.77,233.59L116.83,126.11L117.2,264.62L117.44,190.08L117.45,150.93L117.85,66.08L117.94,194.51L118.22,98.7L118.23,94.02L118.47,60.42L118.91,304L119.08,199.51L119.1,175.7L119.16,265.65L119.58,87.86L119.86,144L119.87,156.3L119.88,157.48L119.99,84.63L120.02,87.58L120.03,84.32L120.06,72.97L120.47,165.49L120.56,162.91L120.58,178.72L120.86,292.38L120.96,130.11L121.32,198.08L121.33,181.26L121.55,231.6L122.1,108.38L122.14,133.76L122.15,145.32L122.39,85.02L122.95,217.89L122.96,220.27L123.26,112.05L123.45,222.57L123.74,152.25L123.76,134.09L124.04,76.05L124.09,190.68L124.21,175.08L124.22,193.5L124.28,104.3L124.74,195.45L124.75,211.13L124.77,233.47L125.3,103.42L125.49,198.93L125.5,199.54L125.66,219.04L126.07,88.25L126.08,83.48L126.21,43.67L126.81,200.65L126.89,154.17L126.9,133.3L127.34,264.39L127.73,207.11L127.74,189.38L127.83,219.61L128.42,48.01L128.61,109.08L128.62,116.37L128.99,80.27L129.33,213.62L129.41,168.98L129.42,155.97L129.69,146.53L129.76,220.34L129.77,233.65L129.78,240.15L129.94,106.94L130.4,188.69L130.42,154.92L130.94,91.26L131.09,195.28L131.16,151.38L131.17,164.06L131.46,260.75L131.56,122.59L131.88,150.74L131.9,122.21L132.05,191.3L132.53,45.97L132.62,138.4L132.64,141.61L132.73,100.22L133.38,222.7L133.41,178.53L133.42,177.08L133.48,139.75L133.7,214.07L133.84,163.34L133.85,155.89L134.01,207.95L134.3,100.65L134.4,112.13L134.42,92.71L134.44,54.12L134.76,203.35L135.13,158.7L135.14,172.07L135.23,112.83L135.91,244.35L135.93,194.09L135.94,172.65L136.09,238.39L136.46,63.34L136.75,100.82L136.76,113.2L137.18,92.03L137.53,223.16L137.56,197.28L137.57,175.23L138.24,232.04L138.34,133.91L138.35,141.63L138.41,163.23L138.96,54L139.08,124.35L139.09,109.15L139.1,89.71L139.75,269L139.76,261.73L139.77,255.68L139.79,270.78L140.3,139.02L140.31,131.31L140.46,218.63L140.74,69.44L140.96,107.78L140.97,96.28L141.34,52.83L141.62,175.55L141.63,190.12L141.72,201.45L141.75,177.55L141.76,169.21L141.82,220.37L142.43,123.67L142.53,141.91L142.54,155.05L142.94,102.84L143.37,261.24L143.4,210.07L143.41,186.21L143.52,141.42L143.63,230.73L144.04,158.07L144.05,137.56L144.11,191.41L144.42,115.62L144.65,163.35L144.66,179.39L145.02,16L145.45,143.51L145.46,151.58L145.54,126.34L146.16,226.92L146.21,153.52L146.22,167.07L146.3,222.22L146.87,103.48L146.88,101.5L147.18,26.36L147.47,245.54L147.64,174.47L147.66,154.17L147.91,273.72L148.06,98.66L148.37,219.51L148.38,225.83L148.94,115.19L149.05,165.56L149.07,192.07L149.31,63.5L149.63,206.94L149.77,181.36L149.78,184.79L150.21,128.38L150.28,243.81L150.51,180.26L150.52,187.59L150.56,255.51L151.19,80.29L151.24,130.84L151.25,101.97L151.46,65.33L151.82,222.53L151.95,179.41L151.96,179.27L152.01,119.94L152.47,230.16L152.64,177.95L152.65,192.62L152.66,198.33L152.97,95.02L153.25,117.49L153.26,103.96L153.36,180.94L153.44,111.13L153.45,91.69L153.99,236.54L154.22,127.61L154.23,109.8L154.25,107.65L154.33,174.26L154.34,181.19L154.49,205.76L154.87,107.39L154.88,85.15L154.89,67.31L155.52,213.77L155.56,194.67L155.58,198.01L155.85,113.37L156.1,248.87L156.35,152.19L156.36,159.12L156.55,223.75L157.03,100.09L157.04,73.15L157.14,128.2L157.15,147.62L157.21,48.16L157.26,171.41L157.81,113.68L157.82,126.09L157.99,79.91L158.43,217.61L158.59,170.72L158.61,155.56L158.69,230.5L159.36,112.65L159.38,134.27L159.39,134.81L159.72,195.35L160.02,93.46L160.05,129.42L160.06,146.71L160.12,129.89L160.56,235.05L160.81,151.54L160.83,153.58L160.89,208.12L161.32,88.55L161.46,105.85L161.47,77.95L161.48,76.88L161.55,134.81L161.57,148.43L162.07,84.48L162.33,267.03L162.35,235.03L162.36,200.36L162.43,237.23L162.88,68.41L163.13,125.61L163.14,123.09L163.53,73.27L163.67,164.39L163.8,160.94L163.81,165.46L163.98,218.08L164.04,164.75L164.05,153.92L164.16,227.9L164.44,175.22L164.46,167.35L164.58,241.22L165.03,84.95L165.16,118.83L165.17,107.07L165.51,53.09L165.76,194.21L165.86,140.29L165.87,151.62L166.1,121.92L166.44,253.59L166.61,189.02L166.62,157.82L166.68,202.91L166.93,74.96L167.36,174.85L167.37,177.5L167.64,55.42L167.97,263.52L168.14,210.14L168.16,183.75L168.19,109.7L168.58,231.21L168.88,211.56L168.9,224.08L169.21,94.68L169.68,145.17L169.69,150.94L169.83,83.92L169.89,208.34L170.4,128.83L170.41,104.55L170.51,209.35L171.14,100.66L171.15,78.69L171.81,68.32L172.03,230.68L172.04,210.95L172.21,268.26L172.47,107.21L172.79,200.99L172.8,209.93L172.82,210.23L172.83,224.99L172.86,245.07L173.32,79.32L173.43,101.31L173.44,89.33L173.65,75.93L174.11,183.84L174.21,155.45L174.23,133.2L174.24,130.81L174.34,246.98L174.71,191.66L174.72,199.48L174.82,225.85L174.84,169.64L174.85,129.67L175.07,106.92L175.36,206.2L175.58,143.25L175.59,152.22L176.02,85.86L176.24,272.09L176.35,175.94L176.37,155.86L176.47,264.2L176.83,107.87L177.14,121.94L177.15,129.17L177.45,178.19L177.81,47.37L177.82,36.74L178.18,220.9L178.6,112.78L178.61,107.65L179.07,251.83L179.37,69.23L179.38,76.21L179.64,229.5L180.14,149.85L180.15,125.81L180.16,123.6L180.24,221.07L180.64,178.93L180.66,190.71L180.9,228.73L181.34,78.93L181.4,168.18L181.41,182.89L181.63,77.63L182.11,241.33L182.16,169.51L182.17,179.86L182.66,105.52L182.86,232.07L182.93,202.6L182.94,184.46L183.03,286.25L183.5,41.45L183.86,90.24L183.87,111.48L184.29,257.04L184.67,163.69L184.68,160.9L184.98,254.44L185.34,84.4L185.35,84.98L185.36,75.41L185.43,67.9L186.39,212.43L186.43,191.66L186.44,182.11L186.48,248.01L186.89,87.96L187.11,135.29L187.12,114.75L187.14,98.2L187.5,245.07L187.84,125.59L187.85,89.56L187.95,49.01L188.14,168.76L188.15,185.03L188.32,245.91L188.75,81.01L188.86,193.06L188.88,187.29L189.32,237.32L189.66,106.43L189.69,125.7L189.7,140.52L189.71,140.95L189.73,122.88L189.74,138.91L189.76,160.64L190.01,195.97L190.09,99.16L190.44,130.32L190.45,123.94L190.7,109.27L191.05,207.65L191.06,203.11L191.07,198.08L191.71,85.25L191.74,146.48L191.76,168.76L192.01,121.1L192.25,245.32L192.53,209.48L192.54,207.03L192.78,239.01L192.89,124.74L193.33,148.22L193.34,141.98L193.37,164.13L193.57,79.73L193.94,80.39L193.95,56.17L193.96,52.48L194.35,182.39L194.36,191.33L194.67,249.58L195.06,131.18L195.11,181.45L195.12,193.36L195.58,32.61L195.85,160.05L195.86,176.82L195.88,213.91L196.37,92.46L196.59,124.29L196.6,123.62L196.77,231.99L197.14,110.79L197.35,160.6L197.36,140.61L197.88,109L197.92,187.06L198.11,129.69L198.13,148.99L198.23,119.94L198.81,250.7L198.85,132.55L198.87,92.41L198.89,63.79L199.33,245.22L199.61,103.48L199.62,103.59L199.73,79.66L200.28,221L200.4,154.78L200.42,147.48L200.55,222.66L200.73,70.82L201.08,134.89L201.09,125.83L201.57,226.89L201.66,74.55L201.79,139.43L201.8,128.3L201.87,101.41L202.25,244.81L202.53,138.76L202.54,134.55L203.03,95.84L203.09,204.58L203.23,104.83L203.24,96.24L203.31,164.34L203.32,187.83L203.35,251.48L203.78,88.89L204.04,148.66L204.05,142.32L204.17,100.45L204.58,223.48L204.76,160.95L204.78,171.51L204.94,232.63L205.36,87.02L205.5,173.26L205.52,160.08L205.61,202.33L205.92,78.67L206.17,141.8L206.19,175.73L206.51,139.24L206.95,251.64L206.96,236.12L206.97,192.5L207.4,196.84L207.56,84.54L207.72,120.27L207.74,130.73L208.11,215.09L208.24,67.53L208.38,137.33L208.39,122.9L208.46,107.69L208.75,219.48L208.93,204.63L208.94,215.18L209,222.99L209.1,93.67L209.76,110.93L209.77,129.55L209.87,153.26L209.99,58.87L210.04,135.08L210.05,157.34L210.39,75.78L210.48,239.72L210.79,157.91L210.8,147.02L210.88,125.47L210.93,197.3L211.09,141.07L211.1,115.87L211.11,110.63L211.54,216.44L211.71,183.98L211.72,203.69L211.9,231.03L212.33,108.53L212.44,217.8L212.45,237.36L213.22,93.22L213.3,115.1L213.31,136.06L213.72,86.19L214.06,191.54L214.08,175.18L214.09,157.72L214.33,126.85L214.75,246.18L214.77,258.73L214.8,225.68L214.81,185.84L215.09,243.44L215.56,92.68L215.57,95.69L215.59,93.45L216.05,56.6L216.38,191L216.4,190.31L216.49,226.88L216.67,113.45L217.15,185.6L217.16,190.79L217.71,94.53L217.76,137.99L217.77,183.42L218.14,242.9L218.4,63.12L218.5,154.59L218.51,128.57L218.65,216.16L219.23,41.11L219.27,88.06L219.29,121.21L219.42,62.37L219.64,236.21L220.05,165.16L220.06,157.75L220.3,126.25L220.42,242.65L220.65,216.13L220.66,224.51L220.86,224.55L221.29,54.69L221.46,163.05L221.47,183.58L221.66,210.09L221.97,105.57L222.21,178.91L222.22,164.84L222.35,241.34L222.87,134.69L222.91,138.41L222.92,114.78L223.1,71.19L223.26,184.58L223.68,98.83L223.69,106.48L224.21,212.98L224.45,150.98L224.47,154.92L224.69,106.31L224.76,221.28L225.24,191.43L225.25,184.85L225.37,196.6L225.83,72.39L226,153.77L226.02,158.34L226.06,115.15L226.63,236.92L226.74,197.72L226.76,191.12L226.86,214.75L227.01,97.49L227.55,125.67L227.57,130.21L227.76,90.32L228.28,247.2L228.32,143.92L228.33,102.76L228.34,99.96L228.61,211.6L228.79,183.32L228.8,202.13L229.02,208.74L229.54,74.93L229.61,124.18L229.62,118.29L229.98,235.16L230.33,113.71L230.39,182.21L230.4,137.69L230.44,64.58L230.79,221.32L231.16,73.74L231.17,96.55L231.29,70.63L231.87,211.88L231.94,174.49L231.95,186.28L231.99,225.7L232.44,130.53L232.66,189.6L232.68,174.52L232.71,147.84L232.84,260.1L232.96,182.2L232.98,171.73L233.2,178.3L233.27,74.95L233.73,134.36L233.74,148.47L233.89,124.04L234.13,252.93L234.44,149.9L234.46,173.75L234.77,130.15L234.98,232.13L235.13,148.06L235.14,132.37L235.54,199.73L235.75,60.32L235.89,106.85L235.9,119.42L235.97,105.79L236.66,228.97L236.71,187.83L236.72,169.35L237.13,124.34L237.36,222.53L237.47,139.03L237.49,143.44L237.81,94.52L238.26,215.54L238.28,188.11L238.3,182.27L238.42,256.46L238.68,86.75L238.88,142.05L238.9,122.74L238.97,242.28L239.3,82.47L239.6,106.35L239.61,102.76L239.67,69.27L240.11,245.67L240.45,148.29L240.46,131.47L240.93,204.89L241.19,88.61L241.21,124.09L241.22,134.09L241.48,54.6L242.09,223.9L242.15,182.47L242.16,177.35L242.61,139.39L242.99,268.41L243,254.45L243.01,235.98L243.11,271.8L243.76,69.73L243.79,85.57L243.8,106.34L244.22,71.32L244.28,214.47L244.65,171.67L244.67,169.44L245.08,205.69L245.27,117.84L245.37,166.52L245.38,142.15L245.82,189.84L245.88,64.22L246.12,127.67L246.13,154.7L246.45,128.18L246.79,197.75L246.86,137.69L246.87,134.81L247.13,184.49L247.38,90.54L247.6,150.15L247.61,126.24L247.73,104.97L248.05,182.61L248.22,158.91L248.23,164.06L248.56,301.47L248.81,99.75L249.01,199.13L249.03,184.04L249.12,235.12L249.45,45.73L249.85,126.83L249.86,137.79L249.97,82.01L250.45,224.78L250.57,183.73L250.59,226.33L250.6,252.41L251.19,89.04L251.29,109.18L251.3,83.37L251.42,50.15L251.9,182.1L251.97,123.67L251.99,139.53L252.18,130.73L252.3,218.78L252.77,184.06L252.78,189.11L253.06,202.73L253.32,123.45L253.41,139.35L253.42,131.12L253.6,42.79L254.04,220.25L254.19,171.09L254.21,175.2L254.27,229.92L254.48,110.9L254.9,198.84L254.91,226.12L254.92,242.74L255.58,114.75L255.59,118.67L255.6,118.88L256,108.95L256.28,210.97L256.38,163.72L256.39,155.36L256.48,208.05L256.84,124.05L257,178.09L257.02,199.26L257.03,209.91L257.65,91.63L257.66,81.97L257.69,79.37L258.4,213.28L258.48,153.51L258.5,135.78L258.77,216.34L258.92,97.42L259.22,169.54L259.24,171.14L259.32,185.32L259.86,56.09L260.01,133.05L260.02,139.31L260.03,139.96L260.07,98.23L260.08,88.44L260.11,116.52L260.13,131.95L260.21,121.22L260.63,260.24L260.89,161.39L260.9,156.51L260.95,235.62L261.2,82.39L261.5,137.1L261.51,100.87L261.89,74.67L262.37,245.21L262.4,185.8L262.42,178.42L262.74,219.66L262.97,122.68L263.19,209.99L263.2,199.63L263.69,89.48L263.96,146.05L263.98,148.95L264.06,98.08L264.51,195.72L264.62,165.19L264.64,168.81L265.06,212.65L265.29,125.36L265.4,196.55L265.41,181.18L265.76,57.29L266.05,154.34L266.06,166.07L266.28,177.88L266.42,109.52L266.51,172.22L266.52,194.45L266.75,227.28L267.06,117.59L267.23,139.7L267.24,147.14L267.69,234.81L267.93,88.37L268.02,109.62L268.03,129.47L268.29,228.98L268.53,96.32L268.83,178.79L268.84,178.97L268.88,220.93L269.03,61.98L269.54,161.3L269.55,143.48L269.99,43.17L270.16,184.38L270.27,178.64L270.28,187L270.73,267.48L270.82,158.74L270.95,240.79L270.96,246.03L271.05,249.95L271.31,93.23L271.76,122.58L271.77,116.37L272.08,87.4L272.49,219.36L272.56,141.02L272.57,121.49L272.59,89.81L272.99,234.72L273.28,183.77L273.3,202.99L273.31,207.21L273.77,101.77L273.87,128.09L273.89,125.75L274,97.3L274.49,223.2L274.59,182.74L274.6,199.4L274.96,229.59L275,136.48L275.27,152L275.28,124.26L275.34,90.12L275.52,172.69L275.87,120.74L275.89,134.12L276.24,122.88L276.63,222.55L276.69,205.27L276.71,204.77L277.04,86.14L277.11,239.03L277.34,122.8L277.35,98.44L277.72,64.44L277.8,194.77L278.07,111.81L278.08,135.42L278.22,107.01L278.56,236.16L278.86,227.33L278.87,218.88L279.01,223.73L279.46,83.16L279.64,189.45L279.65,189.02L279.79,103.85L280.36,150.17L280.37,166.09L280.71,237.37L281.1,130.11L281.11,127.09L281.17,219.7L281.42,46.91L281.86,113.38L281.88,110.32L281.92,124.63L281.93,122.6L281.94,134.65L282.15,106.15L282.6,294.97L282.73,184.43L282.74,165.82L282.79,207.35L282.88,101.09L282.97,189.13L282.99,204.08L283,220.68L283.07,98.48L283.67,119.87L283.68,101.6L283.93,80.72L284.01,190.02L284.35,188.03L284.36,210.45L284.4,225.21L284.42,193.06L284.43,182L284.55,238.89L285.19,115.36L285.21,121.42L285.22,128.36L285.23,127.94L285.3,149.24L285.31,160.01L285.4,81.96L285.51,185.36L286.01,121.12L286.03,119.7L286.06,109.38L286.08,124L286.1,144.57L286.36,119.7L286.53,242.76L286.86,169.03L286.87,159.84L286.97,198.19L287.48,85.94L287.62,155.91L287.63,160.48L287.64,161.11L287.7,120.41L287.71,113.79L288.18,84.23L288.51,249.81L288.56,187.87L288.57,178.64L288.73,213.3L288.89,156.21L289.12,180.84L289.14,158.48L289.71,80.12L289.77,196.65L289.93,133.6L289.95,148.8L290.03,107.99L290.63,259.55L290.73,218.61L290.74,186.61L290.91,202.66L291.03,95.62L291.46,195.47L291.47,205.47L291.63,99.93L291.7,217.81L292,132.66L292.02,108.13L292.61,237.4L292.66,97.72L292.69,153.42L292.7,189.61L292.85,208.25L293.31,121.42L293.4,123.81L293.41,118.53L293.78,51.25L293.85,192.07L294.18,134.14L294.19,118.72L294.25,67.08L294.65,253.9L294.88,190.52L294.89,191.46L294.98,213.63L295.24,117.59L295.41,153.27L295.43,199.82L295.45,223.63L295.84,99.19L296.15,166.53L296.17,147.72L296.26,228.21L296.84,109.29L296.89,169.51L296.91,186.53L296.93,210.82L297.18,89.34L297.61,126.36L297.62,108.6L298.04,216.08L298.25,97.35L298.32,140.93L298.33,159.39L298.43,118.5L298.64,281.6L299.02,193.24L299.03,192.33L299.11,234.94L299.92,76.26L299.94,84.54L299.98,53.41L300.34,182.61L300.55,149.03L300.56,174.47L300.85,257.43L301.27,96.91L301.3,168.17L301.31,154.51L301.81,187.73L301.94,88.41L302.09,98.97L302.1,117.32L302.55,247.82L302.86,153.76L302.87,126.21L303.25,96.22L303.57,193.14L303.58,210.34L304.09,38.25L304.36,162.89L304.38,178.19L304.43,140.78L304.88,283.07L305.1,168.1L305.12,162.14L305.17,205.74L305.35,83.31L305.8,124.08L305.81,128.06L305.96,100.56L306.34,243.92L306.57,160.27L306.58,142.26L306.64,124.93L306.69,199.06L306.72,194.35L306.73,207.36L306.89,82.65L307.49,180.33L307.5,179.95L307.53,192.64L307.82,115.03L308.09,167.73L308.1,187.19L308.18,99.58L308.76,200.32L308.83,178.04L308.84,154.51L308.94,206.73L309.68,68.28L309.72,83.23L309.73,112.56L309.94,98.08L310.28,213.9L310.52,212.84L310.53,196.94L310.85,275.44L311.3,149.79L311.31,171.93L311.33,186.62L311.6,93.32L311.98,122.72L312,115.97L312.23,60.5L312.81,205.25L312.82,194.86L313.11,222.77L313.24,100.26L313.59,134.17L313.6,150.64L313.79,216.43L314.2,128.56L314.31,132.34L314.32,129.45L314.59,88.87L314.74,258.95L314.91,182.72L314.92,191.33L315.15,110.03L315.71,137.71L315.72,148.52L316.11,69.24L316.3,188.8L316.31,194.02L316.42,169.81L316.49,268.76L317,195.6L317.01,170.1L317.37,89.99L317.72,200.56L317.73,222.41L317.75,256.37L317.95,85.46L318.45,133.97L318.46,116.07L318.48,91.65L318.89,239.12L319.19,144.65L319.2,161.78L319.25,143.82L319.26,121.66L319.42,191.65L319.92,152.37L319.93,141.28L320.23,74.88L320.36,226.16L320.7,91.89L320.71,106L321.08,233.47L321.41,103.52L321.47,145.64L321.48,119.1L321.63,190.77L321.95,64.32L322.19,128.46L322.21,142.59L322.4,99.41L322.67,272.36L323.03,199.06L323.04,187.03L323.15,218.92L323.73,112.94L323.8,170.62L323.81,184.02L323.96,249.08L324.44,108.53L324.55,194.19L324.56,183.03L324.75,69.38L324.88,202.97L325.04,166.52L325.05,186.66L325.19,242.9L325.57,89.66L325.73,107.72L325.74,110.41L325.79,78.37L326.18,225.02L326.43,159.08L326.44,185.38L326.67,260.97L326.93,89.78L327.15,152.65L327.17,165.32L327.54,187.54L327.64,80.08L327.85,143.51L327.86,126.62L328.24,218.46L328.38,113.42L328.52,166.07L328.53,192.29L328.73,104.97L329.04,201.03L329.24,170.58L329.25,150.46L329.28,105.83L329.5,192.08L329.99,152.15L330,175L330.47,93.34L330.63,209.94L330.75,183.13L330.76,183.66L331.11,94.04L331.36,241.46L331.53,191.56L331.54,188.75L331.62,201.27L332.08,81.94L332.31,123.06L332.32,157.19L332.4,119.96L332.91,232.01L333.09,204.04L333.1,195.12L333.24,202.96L333.92,94.11L333.93,98.66L333.94,102.58L334.25,197.37L334.32,140.67L334.33,130.98L334.61,211.44L335.01,98.46L335.12,166.68L335.13,163.43L335.18,138.3L335.32,223.35L335.86,157.84L335.87,158.4L336.12,203.46L336.59,91.39L336.62,127.73L336.64,154.58L336.97,228.66L337.34,111.25L337.35,114.75L337.49,74.61L337.94,167.84L338.06,132.66L338.07,132.63L338.08,126.21L338.43,224.59L338.73,177.48L338.74,192.9L338.79,262.05L339.24,83.81L339.46,178.81L339.47,163.04L339.77,171.82L340.04,89.74L340.23,141.55L340.24,154.04L340.36,98.49L340.97,233.48L341.04,169.75L341.05,164.35L341.16,256.56L341.27,107.28L341.8,149.97L341.82,147.48L341.95,178.01L342.12,88.56L342.58,111.7L342.59,114.87L342.63,113.63L342.96,230.65L343.38,172.39L343.39,151.47L343.49,196.58L344.09,88.31L344.2,107.27L344.21,112.45L344.23,97.17L344.8,182.19L344.89,178.87L344.9,184.6L345,135.46L345.61,222.69L345.62,238.16L345.63,247.54L345.93,131.36L346.29,173.65L346.3,168.23L346.34,174.68L346.42,130.87L346.43,128.56L346.45,97.64L346.89,178.05L347.16,130.32L347.17,146.56L347.33,144.29L347.61,227.29L347.91,145.01L347.92,132.89L348.46,174.23L348.61,107.11L348.67,122.13L348.68,132.31L348.97,197.87L349.19,75.22L349.37,118.32L349.38,109.9L349.53,83.5L349.77,181.18L349.78,179.61L349.79,183.52L349.82,199L350.21,97.43L350.22,85.74L350.83,209.49L351.01,161.16L351.02,164.31L351.27,226.17L351.64,114.75L351.71,136.37L351.73,123.78L351.88,115.84L352.07,185.24L352.31,156L352.33,173.16L352.43,112.98L353.07,184L353.08,182.44L353.14,139.86L353.52,236.11L353.83,181.73L353.84,166.2L354.19,209.81L354.62,47.34L354.65,77.16L354.66,91.35L354.77,51.94L355.36,209.97L355.49,182.37L355.51,159.35L355.96,216.03L356.15,115.49L356.25,178.27L356.26,179.2L356.51,192.17L357.01,81.02L357.1,97.52L357.11,106.45L357.16,81.08L357.59,231.48L357.73,186.81L357.74,201.46L357.88,221.44L358.49,113.61L358.52,136.15L358.54,143.86L358.63,84.78L359.18,180.13L359.26,153.73L359.28,161.25L359.31,143.83L359.38,163.41L359.39,161.39L359.4,168.16L359.69,250.72L359.92,150.86L359.96,165.73L359.97,151.01L360.03,193.12L360.07,145.32L360.39,177.25L360.4,208.62L360.42,236.23L360.63,82.97L361.11,162.29L361.13,152.2L361.46,201.44L361.58,108.75L361.88,158.02L361.89,162.09L362.13,255.17L362.52,50.93L362.62,133.9L362.63,120.61L363.07,215.13L363.23,99.37L363.33,147.7L363.35,152.36L363.43,93.83L363.9,228.31L364.19,215.11L364.2,211.51L364.88,87.54L365.08,116.04L365.09,134.46L365.14,88.38L365.57,200.99L365.7,157.23L365.72,162.14L366.09,147.96L366.34,208.53L366.42,149.76L366.43,135.15L366.88,200.04L367.12,108.57L367.16,136.45L367.17,153.36L367.65,183.13L367.74,103.04L367.9,161.15L367.91,139.38L367.97,106.7L368.24,214.19L368.62,168.29L368.63,175.28L368.64,175.7L368.66,146.84L368.68,138L368.88,199.93L369.38,118.71L369.42,128.56L369.43,120.38L369.64,90.59L370.31,200.63L370.34,189.62L370.35,180.5L370.57,219.11L371.01,87.04L371.17,110.64L371.19,121.18L371.51,52.9L371.71,197.99L371.84,153.68L371.86,169.41L371.9,135.86L372.33,189.25L372.34,202.1L372.72,258.36L372.97,136.24L373.07,196.17L373.08,182.55L373.38,182.94L373.57,69.27L373.84,151.91L373.86,156.6L374.03,195.38L374.13,108.96L374.6,164.82L374.61,156.52L374.62,141.29L374.99,233.2L375.34,161.82L375.35,177.18L375.36,178.25L375.49,138.04L375.5,111.94L375.51,91.59L376,196.59L376.24,125.92L376.25,122.18L376.46,73.91L376.75,189.78L376.76,189.74L376.77,194.26L377.52,100.28L377.63,131.79L377.64,152.44L377.8,219.35L378.11,84.7L378.39,161.53L378.4,165.09L378.41,164.91L378.42,174.47L378.43,181.19L378.62,188.93L379.15,115.58L379.19,143.7L379.2,156.62L379.24,148.96L379.6,231.7L379.93,165.28L379.94,146.55L380.26,194.54L380.75,82.9L380.76,86.4L380.77,110.62L380.93,103.6L381.55,200.87L381.56,204.58L381.98,96.1L382.37,143.86L382.38,156.01L382.55,95.08L382.88,204.21L383.11,147.66L383.12,130.73L383.31,100.91L383.75,214.06L383.83,161.61L383.85,170.7L384.09,236.92L384.4,104.4L384.56,117.44L384.57,95.82L384.6,91.13L384.73,149.02L384.74,154.39L384.78,103.04L384.99,196L385.27,138.03L385.28,116.99L385.47,100.64L385.74,207.54L385.88,198.21L385.89,212.78L385.9,220.45L386.36,143.23L386.53,146.77L386.54,126.49L386.73,207.58L386.88,103.63L387.3,151.98L387.32,149.29L387.58,85.84L388,220.23L388.08,174.27L388.09,166.44L388.3,218.5L388.73,73.63L388.92,106.23L388.93,117.61L389.04,190.16L389.11,82.91L389.12,70.83L389.13,70.64L389.14,75.71L389.15,85.57L389.21,82.54L389.7,237.47L390.09,178.75L390.1,162.72L390.14,111.27L390.34,211.24L390.84,174.06L390.85,179.74L391.02,80.65L391.3,201.65L391.32,220.96L391.34,234.46L391.69,120.61L392,185.86L392.01,167.91L392.07,211.52L392.24,154.92L392.56,208.77L392.58,221.87L392.66,229.65L392.93,97.55L392.97,118.21L392.98,94.61L393.06,41.56L393.22,146.8L393.57,109.65L393.58,119.91L393.61,110.91L393.96,192.61L394.06,182.9L394.07,207.75L394.08,228.58L394.59,133.85L394.8,186.64L394.81,172.3L395.02,102.13L395.09,203.41L395.57,131.15L395.58,116.52L396.07,188.09L396.26,138.16L396.28,118.16L396.29,116.95L396.4,184.58L396.53,172.63L396.54,183.41L396.63,222.67L397.14,114.03L397.26,185.8L397.27,166.78L397.62,100.66L397.96,169.52L398.03,133.95L398.05,152.07L398.29,203.62L398.59,107.69L398.79,148.77L398.8,148.1L399,134.34L399.18,185.83L399.19,189.38L399.2,189.91L399.24,166.68L399.25,152.15L399.35,199.67L399.59,58.93L400.07,108.04L400.08,123.56L400.17,118.16L400.82,250.95L400.88,213.28L400.89,191.72L401.27,123.61L401.51,209.88L401.64,174.54L401.65,188.72L402.3,78.02L402.49,118.7L402.5,130.33L402.62,118.33L402.9,217.97L403.24,127.19L403.25,128.08L403.56,239.14L404.01,91.35L404.03,109.31L404.05,128.09L404.19,107.54L404.36,210.44L404.81,157.79L404.82,173.91L405.33,110.78L405.43,194.53L405.54,138.42L405.55,132.62L405.86,184.81L406.1,82.75L406.22,165.89L406.23,172.42L406.5,106.75L406.75,229.01L406.99,200.98L407.01,184.8L407.36,213.51L407.65,106.84L407.78,152.03L407.79,154.26L407.83,179.37L408.42,98.78L408.51,121.03L408.52,119.86L408.53,116.07L408.94,212.45L409.06,177.63L409.08,191.93L409.27,251.32L409.62,150.98L409.63,138.59L409.68,112.73L409.99,193.82L410.08,184.28L410.09,203.78L410.12,213.82L410.53,65.47L410.65,124.96L410.66,105.97L410.69,16.92L411.12,171.8L411.39,171.2L411.4,178.43L411.75,229.7L411.85,141.57L412.14,183.83L412.15,173.45L412.34,200.78L412.5,95.73L412.71,128.51L412.72,124.62L413.16,73.46L413.39,200.97L413.5,169.87L413.52,149L413.6,244.05L413.92,140.12L413.93,125.92L413.94,112.21L414.29,211.37L414.66,152.22L414.67,153.68L414.68,156.54L415.05,67.24L415.3,119.37L415.31,119.3L415.47,111.86L415.59,222.85L415.82,202.45L415.83,206.98L416.14,122.77L416.22,249.3L416.23,269.57L417.12,65.98L417.18,96.57L417.19,106.63L417.39,100.22L417.71,197.85L417.96,150.77L417.97,150.38L417.98,149.76L418,182.85L418.01,194.97L418.28,254.87L418.49,117.71L418.7,163.55L418.71,125.09L418.82,238.55L419.38,77.33L419.44,150.97L419.45,157.43L419.59,174.07L419.71,135.27L419.73,125.03L420.21,218.06L420.49,167.03L420.5,151.27L420.58,188.16L420.59,195.68L421.18,205.09L421.37,90.46L421.4,127.81L421.41,143.4L421.63,61.7L422.06,174.08L422.07,196.72L422.11,239.99L422.22,150.99L422.79,151.37L422.8,147.65L422.87,112.18L423.28,196.99L423.52,168.26L423.53,138.43L423.71,90.87L424.12,195.21L424.22,140.4L424.23,124.63L424.58,113.58L424.74,213.57L424.96,160.5L424.97,154.83L425.23,120.57L425.31,195.39L425.58,162.82L425.59,169.53L426.06,108.08L426.24,183.61L426.26,149.12L426.27,149.13L426.41,146.88L426.79,249.31L427.06,185.78L427.07,177.83L427.16,183.72L427.52,75.29L427.84,150.5L427.85,140.41L427.98,66.4L428.46,171L428.55,160.14L428.56,172.77L428.84,239.9L429.07,144.66L429.3,175.56L429.31,170.39L429.36,219.83L429.89,93.18L430.03,145.41L430.04,131.15L430.28,177.64L430.57,91.01L430.77,129.36L430.78,117.81L430.81,108.93L431.03,224.62L431.52,166.58L431.53,145.01L431.6,213.36L431.8,159.45L431.81,132.31L431.85,168.31L432.11,104.12L432.54,125.55L432.55,144.89L432.95,195.34L433.03,114.31L433.16,147.51L433.17,158.65L433.45,224.44L433.72,128L433.91,150.12L433.92,145.64L433.98,72.53L434.44,175.09L434.65,124.07L434.66,138.59L434.85,208.56L435.1,145.5L435.12,125.73L435.13,107.14L435.32,214.63L435.82,203.02L435.83,200.27L436.42,102.88L436.53,209.77L436.54,223.78L437.09,63.77L437.31,165.46L437.32,176.33L437.79,128.79L438.01,225.18L438.08,200L438.09,182.88L438.29,225.42L438.64,90.12L438.85,166.76L438.86,172.26L438.88,172.77L438.92,156.99L438.93,143.47L439.2,188.97L439.71,76.76L439.73,103.3L439.74,133.19L439.83,126.76L440.24,242.39L440.5,170.41L440.52,159.56L440.71,91.23L441.17,193.56L441.23,175.99L441.24,196.17L441.28,202.73L441.41,103.37L442.03,113.05L442.04,137.64L442.4,216.67L442.67,132.44L442.8,147.34L442.82,153.94L442.9,116.92L443.01,196.92L443.58,162.14L443.59,152.47L443.94,97.01L444.05,204.95L444.24,191.14L444.25,204.56L444.34,103.22L444.78,217.46L444.94,205.71L444.96,204.45L445.01,252.99L445.36,68.77L445.68,183.03L445.7,169.65L446.35,202.58L446.48,93.35L446.49,99.74L446.5,125.52L446.99,225.17L447.28,181.68L447.29,175.74L447.73,130.19L447.89,212.77L447.98,196.67L448,194.9L448.4,71.17L448.77,157.04L448.78,162.52L448.81,157.83L448.84,200.43L448.85,217.53L449.21,143.57L449.3,207.47L449.31,209.69L449.34,243.19L449.83,121.07L449.94,127.14L449.95,121.71L450.3,203.06L450.57,102.69L450.64,135.97L450.66,146.07L450.67,146.58L450.69,129.61L450.7,108.25L450.72,83.54L451.28,216.8L451.4,174.58L451.41,182.34L451.72,141.08L451.95,214.5L452.09,172.65L452.1,151.88L452.3,97.92L452.47,178.49L452.84,145.91L452.85,157.87L452.9,121.34L453.5,210.27L453.55,159.29L453.56,149.55L453.86,213.99L454.19,135.23L454.26,138.31L454.27,131.49L454.7,190.55L455.03,101.35L455.05,108.93L455.06,138.85L455.13,113.05L455.6,215.22L455.81,157.97L455.82,134.51L456.18,94.82L456.36,210.93L456.4,192.44L456.41,204.79L456.52,255.46L456.96,62.78L457.19,144.8L457.2,169.66L457.3,242.03L457.81,128.29L457.97,201.8L457.99,191.57L458.21,210.46L458.69,95.28L458.77,130.25L458.78,136.94L459.25,195.89L459.32,106.37L459.56,185.09L459.57,178L459.64,118.89L460.3,188.06L460.33,148.61L460.35,163.24L460.59,119.65L460.88,209.87L461.09,157.95L461.1,157.71L461.41,84.49L461.84,192.11L461.86,177.48L461.87,161.22L462.16,194.35L462.44,113.3L462.6,187.55L462.61,192.92L462.63,196.86L462.66,171.35L462.67,160.79L462.91,228.5L463.25,138.14L463.43,153.5L463.44,162.91L463.59,206.91L463.71,137.01L463.72,133.7L463.79,147.46L463.83,110.31L463.84,103.65L464.63,178.61L464.65,175.29L464.75,202.77L465.16,145.8L465.37,177.11L465.39,181.64L465.85,205.05L466.14,115.43L466.28,141L466.29,145.55L466.76,119.46L466.87,197.11L466.94,151.13L466.95,146.49L467.18,106.88L467.32,238.96L467.54,198.56L467.55,203.54L467.68,83.01L468.25,220.41L468.28,194.19L468.29,188.31L468.43,190.71L468.69,94.95L469.01,170.42L469.02,184.66L469.06,203.24L469.24,135.76L469.73,200.27L469.75,209.09L470.31,115.87L470.54,144.85L470.55,155.02L470.69,210.55L471.04,111.33L471.25,158.31L471.26,163.41L471.51,223.68L471.71,104.57L472,155.1L472.01,162.33L472.25,132.93L472.43,216.99L472.73,136.32L472.74,106.71L472.75,100.21L473.24,178.49L473.41,155.46L473.42,160.13L473.5,106.11L473.72,171.71L473.76,135.88L473.77,117.98L473.78,114.86L474.09,225.76L474.36,149.76L474.37,167.07L474.61,199.17L474.94,110.69L475.11,183.38L475.12,171.15L475.33,201.75L475.73,81.3L475.78,108.16L475.79,94.55L475.84,87.89L476.16,225.03L476.39,155.74L476.41,167.47L476.6,140.9L476.72,223.45L477.16,181.22L477.17,168.51L477.58,175.74L477.77,120.89L477.91,169.97L477.92,173.87L477.93,174.87L478,111.87L478.01,102.25L478.43,97.54L478.54,184.95L478.75,142.09L478.76,122.02L478.98,93.09L479.1,185.14L479.42,143.53L479.43,154.86L479.49,226.22L479.82,123.1L480.18,197.84L480.19,186.35L480.22,210.34L480.49,83.49L480.92,180.04L480.93,169.7L481.07,102.26L481.55,221.41L481.56,235.47L481.57,244.14L482.07,136.99L482.2,143.94L482.21,148.6L482.27,187.19L482.73,110.83L482.93,128.61L482.94,115.83L483.04,104.77L483.51,220.64L483.64,146.55L483.66,149.8L483.86,107.96L484.35,198.3L484.38,182.64L484.4,174.26L484.51,181.89L484.9,102.38L485.22,124.3L485.23,137.91L485.37,98.12L486.03,209.87L486.06,199.36L486.07,197.12L486.55,229.52L486.8,140.15L486.85,145.03L486.86,148L487.1,85.34L487.45,201.03L487.56,140.14L487.58,129.92L487.81,96.55L488.15,240.9L488.19,210.89L488.2,213.37L488.41,227.22L488.5,130.01L488.96,186.41L488.97,199.22L489,226.57L489.59,96.87L489.6,90.6L489.81,62.84L490.35,202.53L490.4,144.14L490.41,134.7L490.66,102.26L490.84,231.63L490.96,220.13L490.97,234.82L491.62,112.25L491.84,158.27L491.85,178.68L491.92,189.21L492.26,93.48L492.45,111.38L492.47,87.38L493.01,174.09L493.24,150.3L493.25,140.1L493.28,127.9L493.65,232.03L493.97,166.6L493.98,180.94L494,204.11L494.19,117.61L494.72,172.85L494.73,168.49L495.09,113.14L495.44,236.07L495.48,175.2L495.5,154.65L495.62,178.53L496.12,94.4L496.25,151.74L496.26,148.49L496.3,195.48L496.42,116.36L497.01,159.35L497.02,161.63L497.14,110.03L497.39,153.65L497.4,171.75L497.54,100.92L497.83,204.51L498.13,156.09L498.14,147.09L498.42,206.35L498.83,110.94L498.92,186.62L498.93,167.55L499.45,170.45L499.53,113.81L499.7,118.05L499.72,122.97L499.95,77.28L500.53,240.64L500.61,180.44L500.62,173.12L500.76,229.12L501.35,128.37L501.38,159.82L501.39,171.22L501.67,177.31L502.03,78.82L502.2,130.74L502.21,135.73L502.6,190.9L502.88,111.71L502.92,140.9L502.93,144.27L503.18,217.07L503.6,134.16L503.62,157.54L503.64,165.47L503.79,124.92L504.23,182.88L504.31,131.3L504.32,133.95L504.64,101.69L504.98,168.28L505.06,137.86L505.07,140.71L505.29,98.57L505.88,247.77L505.9,212.19L505.91,198.53L506.05,232.64L506.24,126.1L506.54,175.43L506.55,197.3L506.57,208.75L507.14,109.68L507.2,141.62L507.21,134.12L507.41,86.62L507.72,232.49L507.99,196.03L508.01,187.2L508.18,132.43L508.62,223.31L508.79,133.62L508.8,134.51L508.87,181.6L509.39,97.17L509.54,148.98L509.56,141.64L509.6,105.5L510,231.81L510.16,174.82L510.17,199.86L510.54,134.62L510.67,240.75L510.89,174.7L510.9,171.89L511.09,187.64L511.45,84.65L511.69,121.22L511.71,131.78L511.91,102.29L512.48,236.74L512.5,201.57L512.52,191.78L512.76,253.36L513.07,134.37L513.28,151.32L513.29,162.24L513.54,190.3L514.02,113.4L514.04,142.64L514.05,159.44L514.09,192.6L514.54,98.86L514.77,150.47L514.78,144.21L515.04,123.71L515.33,196.71L515.39,124.09L515.41,105.05L515.51,224.66L516.08,154.24L516.09,140.64L516.56,202.28L516.7,119.32L516.79,142.6L516.81,151.69L516.94,99.57L517.21,170.32L517.55,143.38L517.56,141.52L517.79,115.36L518.24,195.42L518.27,178.65L518.29,173.65L518.32,203.44L518.75,101.54L519.01,164.45L519.03,167.3L519.41,99.17L519.7,188.33L519.75,156.09L519.77,169.21L520.04,156.88L520.21,215.68L520.49,174.16L520.51,156.57L520.95,80.56L521.1,185.15L521.25,153.36L521.26,164.9L521.35,197.4L521.67,119.66L521.99,161.71L522,145.98L522.27,108.62L522.56,196.25L522.58,208.83L522.67,124.93L523.11,229.53L523.32,200.31L523.33,194.24L523.92,105.25L524.21,133.77L524.22,157.39L524.37,103.56L524.91,185.85L524.98,171.28L524.99,162.18L525.04,150.7L525.08,170.16L525.1,178.3L525.14,242.3L525.78,136.26L525.82,165.21L525.84,158.17L525.88,100.56L526.33,214.82L526.55,142.22L526.56,158.25L526.93,102.47L527.33,208.81L527.35,182.11L527.36,164.81L527.49,213.15L528.06,107.2L528.11,136.86L528.13,145.72L528.44,237.5L528.78,112.83L528.88,142.85L528.89,152.12L528.95,88.9L529.35,164.7L529.36,176.05L529.78,203.42L529.91,85.17L530.06,156.14L530.07,144.88L530.17,137.4L530.5,227.42L530.81,173.49L530.82,155.05L531,199.07L531.33,83.6L531.56,163.53L531.57,155.78L531.62,106.83L532.18,183.54L532.32,138.2L532.33,165.6L532.44,122.13L532.83,234.92L533.12,185.38L533.13,166.57L533.16,127.8L533.71,207.71L533.88,147.41L533.9,126.99L534.15,89.05L534.33,159.54L534.54,132.09L534.55,135.15L534.59,138.68L534.66,109.88L534.67,97.17L535.09,213.16L535.44,166.53L535.46,170.16L535.51,208.03L535.64,116.24L536.12,139.6L536.13,133.25L536.38,97.18L536.81,199.55L536.9,172.92L536.91,161.23L536.96,203.38L537.36,109.68L537.62,111.07L537.63,108.32L537.65,101.77L537.73,205.64L538.31,149.44L538.32,154.62L538.49,122.65L538.88,196.74L538.9,152.95L538.91,134.42L539.33,212.87L539.43,104.2L539.45,95.25L539.8,216.98L540.21,152.33L540.22,153.12L540.3,214.18L540.65,123.4L540.66,120.24L540.87,100.69L541.31,191.48L541.38,152.03L541.39,146.68L541.43,92.21L542.04,196.99L542.14,134.33L542.15,131.15L542.5,233.92L542.67,101.24L542.88,109.58L542.89,101.26L543.4,189.33L543.7,155.82L543.71,136.94L543.79,122.22L544.2,193.61L544.44,147.5L544.45,157.31L544.5,184.51L545.03,109.07L545.04,102.37L545.64,204.69L545.85,188.32L545.86,171.59L546.02,183.86L546.42,115.4L546.61,127.59L546.63,137.79L546.8,190.93L547.19,102.55L547.33,121L547.34,116.3L547.37,107.63L547.48,177.62L547.49,194.95L547.52,218.62L547.84,134.9L548.23,201.63L548.24,194.92L548.48,198.66L548.98,104.32L549.08,130.41L549.09,135.34L549.29,94.11L549.52,174.3L549.84,137.7L549.85,142.19L549.97,118.53L550.81,236.58L550.87,228.04L550.88,224.96L551.1,237.6L551.57,108.47L551.71,159.71L551.72,165.34L551.96,172.11L552.34,89.59L552.45,140.82L552.46,149.78L552.59,108.17L553.11,220.98L553.29,198.8L553.3,203.61L553.61,105.63L553.98,173.85L553.99,184.74L554,190.33L554.56,126.36L554.63,130.59L554.64,120.1L554.8,147.83L554.87,111.35L554.88,99.87L554.9,82.02L555.33,194.47L555.59,127.38L555.6,144.09L555.83,118.95L555.96,213.73L556.34,134.26L556.35,140.4L556.64,121.74L556.89,197.96L557.12,177.99L557.14,179.13L557.64,196.08L557.83,142.21L557.89,180.07L557.9,179.52L558.04,101.72L558.6,148.2L558.62,166.26L558.77,197.33L559.29,120.45L559.3,118.06L559.41,114.89L559.66,177.03L559.82,166.74L559.83,179.17L560.25,108.24L560.4,152.23L560.41,170.19L560.78,206.21L560.91,117.67L561.11,131.28L561.13,134.98L561.23,116.88L561.52,201.48L561.85,146.8L561.87,124.97L561.95,100.36L562.05,189.19L562.39,116.62L562.4,101.16L562.43,91.07L563.24,226.07L563.31,202.04L563.32,195.38L563.54,205.52L563.68,107.46L564.07,181.36L564.09,181.75L564.52,231.65L564.68,91.08L564.83,174.2L564.84,186.32L565.16,100.86L565.28,208.75L565.62,115.6L565.63,122.05L565.99,230.44L566.16,112.5L566.39,134.18L566.4,134.08L566.57,188.14L566.86,112.23L567.11,120.14L567.13,125.92L567.37,198.46L567.58,121.27L567.74,136.2L567.75,125.76L567.91,77L568.44,183.5L568.46,200.12L568.7,210.04L568.79,132.32L568.8,120.48L568.93,178.81L569.05,115.54L569.35,161.67L569.36,178.11L569.43,199.22L569.84,109.87L570.07,167.61L570.09,161.3L570.11,160.6L570.13,170.03L570.14,174.82L570.77,137.73L570.81,206.31L570.9,180.06L570.91,180.62L571.23,116.34L571.49,209.02L571.68,166.7L571.69,187.01L571.92,153.74L572.02,206.59L572.14,158.16L572.16,148.2L572.27,191.39L572.9,112.33L572.92,128.28L572.93,119.64L573.06,98.07L573.4,174.28L573.62,124.15L573.64,133.67L573.77,126.17L573.97,180.6L574.03,137.34L574.04,130.44L574.65,199.17L574.83,172.97L574.84,167.59L575.22,93.97L575.54,168.72L575.56,175L575.97,100.27L576.12,200.13L576.32,190.04L576.33,192.06L576.35,203.83L577.01,148.09L577.02,134.75L577.27,190.82L577.52,116.85L577.72,163.98L577.73,173.14L578,129.78L578.41,196.55L578.5,139.39L578.52,133.37L578.78,110.89L578.9,191.61L579.06,159.52L579.07,166.88L579.45,104.98L579.58,210.13L579.83,144.63L579.85,142.74L580.19,98.31L580.54,192.84L580.56,163.61L580.57,147.81L580.89,177.1L580.98,88.93L581.16,143.07L581.18,157.42L581.24,93.74L581.88,206.12L582.04,191.19L582.05,169.2L582.44,228.16L582.75,142.55L582.79,169.27L582.81,165.44L582.97,184.74L583.33,112.31L583.45,137.39L583.46,135.18L583.71,103.62L584.07,190.42L584.2,138.83L584.22,137.65L584.31,175.85L584.74,100.73L584.82,175.24L584.83,177.44L585.15,239.28L585.46,138.04L585.48,135.87L585.99,184.15L586.2,120.22L586.22,103.87L586.37,86.49L586.84,178.56L586.93,122.49L586.94,133.25L586.96,133.57L586.97,124.26L586.98,127L586.99,140.25L587.58,247.64L587.68,134.08L587.75,155.55L587.77,140.85L587.85,206.61L588.4,108.24L588.41,88.14L588.44,70.07L588.88,201.81L589.08,149.38L589.1,184.51L589.12,227.07L589.74,117.12L589.85,191.39L589.86,184.89L589.93,153.71L590.17,188.4L590.18,171.78L590.19,159.84L590.59,201.98L590.64,104.63L590.91,177.15L590.92,159.16L591.08,189.55L591.52,96.1L591.71,115.73L591.72,129.47L591.94,106.89L592.04,203.73L592.56,163.55L592.58,151.77L592.73,194.92L592.97,105.83L593.14,157.49L593.15,172.88L593.17,187.24L593.78,96.8L593.79,98.8L593.8,98.2L593.81,97.83L593.85,120.7L593.86,130.36L593.88,128.35L594.22,222.62L594.65,161.33L594.66,159.22L594.81,121.76L595.22,192.16L595.45,173.99L595.47,178.18L595.49,173.37L595.52,184.35L595.54,195.88L595.56,202.54L595.91,139.47L596.14,141.68L596.15,136.5L596.35,187.31L596.78,97.4L596.91,119.11L596.92,123.5L597.07,84.36L597.65,174.53L597.69,151.92L597.7,151.96L597.99,214.5L598.35,97.79L598.44,149.48L598.45,144.96L598.53,123.46L598.78,196.76L599.12,193.91L599.13,198.45L599.54,136.23L599.74,203.28L599.89,179.93L599.91,176.81L600.2,111.97L600.44,201.98L600.6,196.96L600.61,204.42L600.97,129.61L601.36,188.02L601.38,208.54L601.92,91.16L602.3,130.87L602.31,145.43L602.42,115.49L602.82,178.18L603.06,165.17L603.07,152.24L603.19,127.67L603.27,180.95L603.31,176.05L603.32,181.37L603.64,206.43L603.7,126.2L604.03,142.21L604.05,144.08L604.14,208.64L604.73,106.89L604.74,92.1L605.13,165.82L605.26,131.75L605.27,126.96L605.4,112.67L606.12,206.81L606.21,179.3L606.22,177.76L606.43,219.38L606.87,133.14L606.93,193.66L606.94,202.86L607.03,120.64L607.64,155.58L607.65,169.71L607.7,136.42L607.71,121.49L607.75,132.78L607.76,119.93L607.77,107.67L607.93,192.66L608.29,96.77L608.52,132.24L608.53,121.01L608.6,89.81L608.69,168.68L608.99,152.82L609.01,154.71L609.13,114.3L609.76,220.57L609.83,185.15L609.84,181.41L610.02,186.85L610.15,106.91L610.58,186.71L610.59,189.16L611.1,202.47L611.28,118.2L611.33,183.07L611.34,190.14L611.37,182.08L611.38,166.05L611.4,168.18L611.49,110.15L611.69,120.11L611.7,117.91L612.22,222.45L612.49,163.04L612.5,152L612.58,89.45L612.98,212.11L613.24,144.87L613.25,158.24L613.39,168.02L613.69,107.5L613.86,126.52L613.87,122.97L613.91,78.45L614.36,190.36L614.57,149.32L614.58,156.26L614.87,254.86L615.05,129.14L615.32,146.09L615.33,152.15L615.87,96.58L615.98,180.99L616.07,163.16L616.08,138.05L616.11,103.89L616.29,209.13L616.8,197.85L616.81,217.03L616.9,130.27L617.59,178.83L617.6,186.08L617.72,128.53L617.77,179.08L617.78,188.48L617.98,189.88L618.57,113.99L618.68,122.06L618.7,127.38L618.87,90.16L619.3,198.3L619.4,164.71L619.41,171.14L619.71,125.83L620.08,228.07L620.2,197.68L620.21,195.81L620.26,232.6L620.7,100.69L620.85,139.93L620.86,133.43L621.21,79.57L621.37,179.68L621.56,108.8L621.58,104.76L622.29,172.01L622.34,136.81L622.35,137.83L622.47,124.32L622.81,212.25L623.17,173.81L623.18,168.61L623.63,230.89L623.85,117.39L623.95,156.07L623.96,157.82L624.45,100.28L624.5,181.07L624.67,148.72L624.69,142.44L624.96,95.6L625.36,190.2L625.4,172.82L625.41,171.87L625.43,171.72L625.44,161.56L625.62,193.41L626,121.76L626.13,168.27L626.14,186.04L626.49,218.81L626.72,128.27L626.73,121.39L626.92,107.98L627.33,207.97L627.4,127.33L627.41,100.01L627.75,80.21L627.87,179.59L628.08,148.49L628.1,144.7L628.3,132L628.73,208.43L628.85,159.61L628.86,149.32L628.88,122.46L629.01,230.37L629.59,174.87L629.6,173.33L629.66,121.96L629.87,152.58L629.88,167.64L630.3,102.12L630.48,185.53L630.58,118.36L630.59,114.77L630.62,104.86L630.73,196.46L631.18,180.46L631.2,181.12L631.38,209.71L631.95,111.14L631.99,146.87L632,151.6L632.41,235.48L632.77,121.93L632.83,128.49L632.84,132.79L633.03,114.09L633.11,160.71L633.52,151.25L633.53,150.86L633.84,174.04L634.06,116.91L634.24,162.08L634.25,173.96L634.59,218.65L634.68,128.91L634.96,157.87L634.98,164.09L635.1,219.96L635.51,114.81L635.68,134.72L635.69,136.64L636.07,194.83L636.4,111.83L636.41,103.54L637,213.66L637.07,148.95L637.08,139.66L637.16,191.44L637.27,151.11L637.28,126.92L637.29,111.71L637.39,178.35L638.01,142.3L638.02,149.64L638.14,188.46L638.5,55.38L638.72,130.8L638.73,121.29L638.81,98.37L638.92,189.94L639.17,182.08L639.18,195.48L639.35,130.93L639.44,221.07L639.88,190.14L639.89,187.16L640.06,223.92L640.51,92.31L640.67,158.68L640.68,169.65L641,212.98L641.34,132.33L641.35,108.7L641.52,188.76L641.98,87.45L642.05,150.75L642.06,149.12L642.11,163.77L642.26,109.84L642.36,151.75L642.38,171.38L642.58,125.12L642.99,206.94L643.07,154.66L643.08,150.17L643.22,197.8L643.54,113.67L643.79,176.96L643.8,177.39L643.98,198.93L644.15,116.76L644.58,143.1L644.6,140.79L644.65,115.57L645.01,174.86L645.32,144.24L645.34,157.07L645.45,139.28L645.87,222.4L646.06,148.49L646.08,134L646.33,100.34L646.46,214.78L646.71,206.77L646.72,211.81L647.48,99.28L647.59,161.01L647.6,163L647.73,72.65L648.13,187.7L648.37,125.82L648.38,132.09L648.77,189.63L648.94,123.81L649.01,164.19L649.02,174.01L649.05,173.99L649.09,222.66L649.13,191.17L649.14,169.8L649.28,196.68L649.49,116.35L649.88,182.97L649.89,199.47L649.92,206.57L649.96,169.39L650.05,173.2L650.07,158.63L650.33,110.31L650.5,187.66L650.69,177.77L650.7,189.28L650.74,212.6L651.13,137.8L651.41,151.22L651.42,144.02L651.9,202.42L652.17,119.89L652.18,126.96L652.19,134.46L652.33,116.8L652.64,155.75L652.66,166.97L652.99,178.42L653.16,125.83L653.38,156.08L653.4,151.52L653.77,134.14L653.83,204.66L654.08,174.37L654.09,185.64L654.42,123.93L654.6,229.31L654.61,234.03L655.43,94.55L655.44,96L655.84,178.13L656.21,118.77L656.22,115.97L656.34,83.2L656.98,218.64L657.06,182.87L657.07,182.99L657.1,191L657.51,117.81L657.69,158.74L657.7,145.95L658.22,125.37L658.41,200.28L658.53,165.34L658.54,155.96L658.73,192.24L659.21,141.96L659.27,162.4L659.28,165.15L659.66,186.44L659.78,115.85L660.01,160.07L660.02,165.72L660.1,90.6L660.3,180.07L660.75,140.63L660.76,149.59L661.15,116.63L661.24,180L661.52,165.43L661.54,156.64L661.74,126.15L662.23,190.25L662.25,178.66L662.26,181.95L662.38,194.74L662.76,141.45L662.97,173L662.98,165.27L663.19,193.71L663.76,129.92L663.77,133.43L663.78,144.84L663.83,186.11L664.24,99.57L664.53,145.93L664.54,154.16L664.6,194.72L664.89,127.91L665.25,137.8L665.26,137.34L665.29,114.18L665.65,179.85L665.66,195.72L665.68,202.81L666.03,118.75L666.29,164.75L666.3,152.3L666.45,205.9L666.58,123.5L666.96,191.43L666.97,192.26L667.26,192.99L667.79,114.98L667.8,115.78L667.81,120.11L667.93,113.97L668,157.52L668.01,172.43L668.13,109.63L668.72,183.59L668.77,182.2L668.79,171.62L668.91,187.72L669.04,151.72L669.09,162.8L669.1,153.39L669.14,121.6L669.32,205.72L669.65,180.41L669.66,196.81L669.69,215.46L670.13,104.76L670.14,96.92L670.51,201.42L670.92,147.7L670.94,142.87L671.03,112.1L671.53,198.74L671.72,161.03L671.73,154.74L671.95,89.22L672.39,216.94L672.5,190.75L672.51,170.34L672.54,162.56L672.59,177.68L672.62,166.38L672.64,156.65L672.69,167.37L673.05,97.86L673.36,166.22L673.38,181.68L673.39,193.57L673.79,110.1L674.12,174.54L674.13,161L674.57,211.72L674.67,108.33L674.75,197.53L674.76,210.31L674.83,223.73L674.96,139.95L675.43,183.18L675.45,183.01L675.47,197.11L676.06,118.81L676.17,163.67L676.19,161.88L676.21,149.55L676.22,135.25L676.37,177.1L676.64,104.57L676.94,155.5L676.95,158.15L676.98,136.68L677.53,216.95L677.65,203.33L677.67,207.45L677.7,242.58L678.36,119.26L678.37,106.12L678.54,175.73L678.67,92.16L678.91,116.97L678.93,101.91L678.95,68.89L679.12,194.91L679.64,149.36L679.65,159.19L680.23,135.36L680.29,192.02L680.36,138.73L680.37,128.06L680.71,116.68L680.78,197.24L681,169.12L681.01,179.98L681.03,199.73L681.44,105.16L681.74,155.36L681.75,160.7L681.94,117.58L682.33,171.23L682.48,153.64L682.49,145.7L682.51,129.68L683.18,208.71L683.19,220.25L683.61,129.7L684.01,161.84L684.03,170.83L684.33,194.6L684.48,121.02L684.75,149.61L684.77,144.65L684.9,190.69L685.01,114.55L685.53,151.79L685.54,147.97L685.57,169.82L685.83,114.98L686.22,134.1L686.23,134.25L686.59,91.27L687.04,178.06L687.14,167.78L687.15,164.34L687.66,201.76L687.71,125.83L687.86,174.83L687.88,177.54L687.9,198.67L688.45,120.66L688.47,115.25L688.48,115.01L688.49,131.13L688.5,160.23L689.01,136.64L689.18,212.7L689.24,163.35L689.25,147.69L689.33,182.25L689.53,97.91L689.95,162.31L689.96,173.34L690.18,118.58L690.33,204.64L690.67,147.8L690.69,147.37L690.85,206.93L691.48,99.52L691.53,101.14L691.54,107.68L691.92,178.4L692.3,136.42L692.32,128.97L692.34,108L693,210.87L693.01,206.49L693.44,116.89L693.74,216.65L693.75,214.51L694.48,137.66L694.54,151.09L694.55,155.44L694.92,189.68L695.03,144.46L695.09,149.33L695.1,147.64L695.31,114.96L695.56,196.99L695.82,168.89L695.83,175.31L696.07,181.79L696.33,109.64L696.39,145.12L696.4,154.28L696.57,127.72L696.67,181.67L697.11,134.34L697.13,125.16L697.31,183.71L697.44,107.1L697.51,164.95L697.52,170.1L697.9,188.82L698.04,127.16L698.18,162.37L698.19,146.25L698.33,111.59L698.7,186.64L698.94,134.13L698.95,146.74L699.17,109.42L699.57,207.28L699.72,167.24L699.73,168.71L699.91,217.52L700.22,139.07L700.5,190.57L700.51,184.22L700.79,205.28L701.2,150.38L701.3,167.63L701.31,166.28L701.61,178.38L701.68,127.9L701.84,131.06L701.85,117.05L701.87,114.35L702.19,164.05L702.24,159.8L702.25,166.43L702.29,193.34L702.75,82.9L702.92,101.5L702.93,84.34L702.94,83.86L702.98,116.4L702.99,133.37L703.08,125.76L703.33,202.63L703.35,211.38L703.68,133.5L703.95,198.87L703.96,207.36L704.07,225.96L704.48,76.77L704.63,143.98L704.64,141.92L705.12,101.37L705.25,183.27L705.4,120.44L705.42,132.75L705.68,119.86L705.95,209.93L706.19,173.82L706.2,168.28L706.21,168.49L706.25,155.88L706.28,167.84L706.29,186.98L706.34,215.42L706.48,135.81L706.97,167.74L706.98,162.91L707.02,193.26L707.39,114.11L707.61,131.62L707.62,130.01L707.66,129.58L707.77,204.66L708.16,146.95L708.17,139.49L708.21,105.8L708.82,165.85L708.88,137.11L708.9,148.32L709.24,109.13L709.66,181.96L709.69,178.31L709.71,177.47L709.86,189.36L709.96,106.77L710.45,162.08L710.46,178.86L710.72,216.27L710.79,139.41L711.17,160.72L711.19,151.72L711.27,183.51L711.36,123.51L711.94,149.75L711.95,156.27L712.16,126.29L712.27,185.71L712.7,169.91L712.71,162.22L712.94,204.31L713.29,137.06L713.46,155.14L713.48,156.85L713.54,139.53L714.12,199.02L714.26,178.15L714.27,157.26L714.42,118.38L714.53,178.97L715.02,153.25L715.04,151.16L715.26,183.36L715.81,90.83L715.83,116.18L715.85,131.23L715.88,172.7L716.23,113.01L716.6,133.8L716.61,138.21L717.23,136.04L717.31,219.46L717.38,166.71L717.39,158.49L717.45,186.45L717.82,131.74L717.93,181.97L717.94,200.54L717.96,218.85L718.54,135.8L718.6,157.09L718.61,153.18L719.15,187L719.31,119.06L719.36,148.52L719.37,157.19L719.67,180.22L719.93,119.46L720.11,150.41L720.12,137.8L720.16,132.71L720.17,124.39L720.22,102.96L720.68,194.95L720.86,168.64L720.88,183.47L720.94,230.36L721.4,124.49L721.6,172.5L721.62,172.24L721.63,172.41L721.64,161.32L721.65,158.33L721.84,178.04L722.19,123.18L722.34,158.19L722.36,166.9L722.62,216.08L723.08,113.35L723.15,123.49L723.16,132.29L723.2,136.57L723.21,144.31L723.73,121.16L723.92,198.64L723.97,163.83L723.99,169.49L724.09,131.53L724.44,220.39L724.71,162.24L724.73,147.62L724.83,179.14L725.17,118.28L725.47,159.95L725.48,161.31L725.8,176.76L726.12,120.97L726.23,150.62L726.24,155.87L726.34,109.63L726.8,183.59L726.92,181.86L726.93,183.12L727.5,99.55L727.59,201.05L727.72,148.37L727.73,162.28L727.86,131.88L727.93,238.35L728.47,169.62L728.48,156.08L728.97,170.78L729.21,104.76L729.24,133.51L729.25,155.43L729.69,107.75L729.86,215.03L729.98,145.47L729.99,135.46L730.01,157.15L730.02,182.89L730.07,209.31L730.38,99.58L730.75,170.09L730.76,163.67L731,210.54L731.27,150.02L731.46,163.58L731.47,152.09L731.54,190.14L732.07,114.32L732.21,157.06L732.22,155.26L732.32,119.21L732.85,189.22L733,120.31L733.02,128.94L733.14,186L733.58,119.86L733.78,137.95L733.79,137.49L733.94,107.89L734.02,204L734.5,126.42L734.51,106.13L734.55,100.67L734.65,196.89L735.04,179.72L735.05,180.04L735.32,193.26L735.83,132.16L735.84,137.34L735.88,176.26L736.2,133.17L736.53,134.57L736.54,128.27L736.58,174.45L737.2,115.38L737.29,158.49L737.31,148.79L737.84,129.66L737.96,197.57L738.01,151.09L738.02,136.16L738.05,121.15L738.16,196.63L738.5,191.36L738.51,195.03L738.89,113.39L739.23,165.71L739.24,168.3L739.42,170.83L739.53,126.28L739.69,131.18L739.7,116.33L739.8,184.77L739.97,105.98L740,154.42" style="vector-effect: non-scaling-stroke; fill: none; stroke: rgb(188, 189, 34); stroke-opacity: 1; stroke-width: 2px; opacity: 1;"/></g><g class="points"/><g class="text"/></g></g></g><g class="overplot"/><path class="xlines-above crisp" d="" style="fill: none; stroke-width: 1px; stroke: rgb(0, 0, 0); stroke-opacity: 0;"/><path class="ylines-above crisp" d="" style="fill: none; stroke-width: 1px; stroke: rgb(0, 0, 0); stroke-opacity: 0;"/><g class="overlines-above"/><g class="xaxislayer-above"><path class="xtick ticks crisp" d="M0,421v5" transform="translate(80,0)" style="stroke: rgb(51, 51, 51); stroke-opacity: 1; stroke-width: 1px;"/><path class="xtick ticks crisp" d="M0,421v5" transform="translate(172.5,0)" style="stroke: rgb(51, 51, 51); stroke-opacity: 1; stroke-width: 1px;"/><path class="xtick ticks crisp" d="M0,421v5" transform="translate(265,0)" style="stroke: rgb(51, 51, 51); stroke-opacity: 1; stroke-width: 1px;"/><path class="xtick ticks crisp" d="M0,421v5" transform="translate(357.5,0)" style="stroke: rgb(51, 51, 51); stroke-opacity: 1; stroke-width: 1px;"/><path class="xtick ticks crisp" d="M0,421v5" transform="translate(450.01,0)" style="stroke: rgb(51, 51, 51); stroke-opacity: 1; stroke-width: 1px;"/><path class="xtick ticks crisp" d="M0,421v5" transform="translate(542.51,0)" style="stroke: rgb(51, 51, 51); stroke-opacity: 1; stroke-width: 1px;"/><path class="xtick ticks crisp" d="M0,421v5" transform="translate(635.01,0)" style="stroke: rgb(51, 51, 51); stroke-opacity: 1; stroke-width: 1px;"/><path class="xtick ticks crisp" d="M0,421v5" transform="translate(727.51,0)" style="stroke: rgb(51, 51, 51); stroke-opacity: 1; stroke-width: 1px;"/><path class="xtick ticks crisp" d="M0,421v5" transform="translate(820.01,0)" style="stroke: rgb(51, 51, 51); stroke-opacity: 1; stroke-width: 1px;"/><g class="xtick"><text text-anchor="middle" x="0" y="446.4" transform="translate(80,0)" style="font-family: 'Open Sans', verdana, arial, sans-serif; font-size: 17px; fill: rgb(51, 51, 51); fill-opacity: 1; white-space: pre;">0</text></g><g class="xtick"><text text-anchor="middle" x="0" y="446.4" transform="translate(172.5,0)" style="font-family: 'Open Sans', verdana, arial, sans-serif; font-size: 17px; fill: rgb(51, 51, 51); fill-opacity: 1; white-space: pre;">500</text></g><g class="xtick"><text text-anchor="middle" x="0" y="446.4" transform="translate(265,0)" style="font-family: 'Open Sans', verdana, arial, sans-serif; font-size: 17px; fill: rgb(51, 51, 51); fill-opacity: 1; white-space: pre;">1000</text></g><g class="xtick"><text text-anchor="middle" x="0" y="446.4" transform="translate(357.5,0)" style="font-family: 'Open Sans', verdana, arial, sans-serif; font-size: 17px; fill: rgb(51, 51, 51); fill-opacity: 1; white-space: pre;">1500</text></g><g class="xtick"><text text-anchor="middle" x="0" y="446.4" transform="translate(450.01,0)" style="font-family: 'Open Sans', verdana, arial, sans-serif; font-size: 17px; fill: rgb(51, 51, 51); fill-opacity: 1; white-space: pre;">2000</text></g><g class="xtick"><text text-anchor="middle" x="0" y="446.4" transform="translate(542.51,0)" style="font-family: 'Open Sans', verdana, arial, sans-serif; font-size: 17px; fill: rgb(51, 51, 51); fill-opacity: 1; white-space: pre;">2500</text></g><g class="xtick"><text text-anchor="middle" x="0" y="446.4" transform="translate(635.01,0)" style="font-family: 'Open Sans', verdana, arial, sans-serif; font-size: 17px; fill: rgb(51, 51, 51); fill-opacity: 1; white-space: pre;">3000</text></g><g class="xtick"><text text-anchor="middle" x="0" y="446.4" transform="translate(727.51,0)" style="font-family: 'Open Sans', verdana, arial, sans-serif; font-size: 17px; fill: rgb(51, 51, 51); fill-opacity: 1; white-space: pre;">3500</text></g><g class="xtick"><text text-anchor="middle" x="0" y="446.4" transform="translate(820.01,0)" style="font-family: 'Open Sans', verdana, arial, sans-serif; font-size: 17px; fill: rgb(51, 51, 51); fill-opacity: 1; white-space: pre;">4000</text></g></g><g class="yaxislayer-above"><path class="ytick ticks crisp" d="M79,0h-5" transform="translate(0,375.2)" style="stroke: rgb(51, 51, 51); stroke-opacity: 1; stroke-width: 1px;"/><path class="ytick ticks crisp" d="M79,0h-5" transform="translate(0,317.59000000000003)" style="stroke: rgb(51, 51, 51); stroke-opacity: 1; stroke-width: 1px;"/><path class="ytick ticks crisp" d="M79,0h-5" transform="translate(0,259.99)" style="stroke: rgb(51, 51, 51); stroke-opacity: 1; stroke-width: 1px;"/><path class="ytick ticks crisp" d="M79,0h-5" transform="translate(0,202.38)" style="stroke: rgb(51, 51, 51); stroke-opacity: 1; stroke-width: 1px;"/><path class="ytick ticks crisp" d="M79,0h-5" transform="translate(0,144.77)" style="stroke: rgb(51, 51, 51); stroke-opacity: 1; stroke-width: 1px;"/><g class="ytick"><text text-anchor="end" x="70.6" y="5.949999999999999" transform="translate(0,375.2)" style="font-family: 'Open Sans', verdana, arial, sans-serif; font-size: 17px; fill: rgb(51, 51, 51); fill-opacity: 1; white-space: pre;">0.4</text></g><g class="ytick"><text text-anchor="end" x="70.6" y="5.949999999999999" transform="translate(0,317.59000000000003)" style="font-family: 'Open Sans', verdana, arial, sans-serif; font-size: 17px; fill: rgb(51, 51, 51); fill-opacity: 1; white-space: pre;">0.2</text></g><g class="ytick"><text text-anchor="end" x="70.6" y="5.949999999999999" transform="translate(0,259.99)" style="font-family: 'Open Sans', verdana, arial, sans-serif; font-size: 17px; fill: rgb(51, 51, 51); fill-opacity: 1; white-space: pre;">0</text></g><g class="ytick"><text text-anchor="end" x="70.6" y="5.949999999999999" transform="translate(0,202.38)" style="font-family: 'Open Sans', verdana, arial, sans-serif; font-size: 17px; fill: rgb(51, 51, 51); fill-opacity: 1; white-space: pre;">0.2</text></g><g class="ytick"><text text-anchor="end" x="70.6" y="5.949999999999999" transform="translate(0,144.77)" style="font-family: 'Open Sans', verdana, arial, sans-serif; font-size: 17px; fill: rgb(51, 51, 51); fill-opacity: 1; white-space: pre;">0.4</text></g></g><g class="overaxes-above"/></g></g><g class="polarlayer"/><g class="ternarylayer"/><g class="geolayer"/><g class="pielayer"/><g class="sunburstlayer"/><g class="glimages"/><defs id="topdefs-d662a7"><g class="clips"/><clipPath id="legendd662a7"><rect width="133" height="36" x="0" y="0"/></clipPath></defs><g class="layer-above"><g class="imagelayer"/><g class="shapelayer"/></g><g class="infolayer"><g class="legend" pointer-events="all" transform="translate(834.8000000000001, 100)"><rect class="bg" shape-rendering="crispEdges" style="stroke: rgb(68, 68, 68); stroke-opacity: 1; fill: rgb(255, 255, 255); fill-opacity: 1; stroke-width: 0px;" width="133" height="36" x="0" y="0"/><g class="scrollbox" transform="translate(0, 0)" clip-path="url('#legendd662a7')"><g class="groups" transform="translate(0, 0)"><g class="traces" transform="translate(0, 17.55)" style="opacity: 1;"><text class="legendtext user-select-none" text-anchor="start" x="40" y="6.63" style="font-family: 'Open Sans', verdana, arial, sans-serif; font-size: 17px; fill: rgb(51, 51, 51); fill-opacity: 1; white-space: pre;">class=siren</text><g class="layers" style="opacity: 1;"><g class="legendfill"/><g class="legendlines"><path class="js-line" d="M5,0h30" style="fill: none; stroke: rgb(188, 189, 34); stroke-opacity: 1; stroke-width: 2px;"/></g><g class="legendsymbols"><g class="legendpoints"/></g></g><rect class="legendtoggle" pointer-events="all" x="0" y="-12.55" width="173" height="25.1" style="cursor: pointer; fill: rgb(0, 0, 0); fill-opacity: 0;"/></g></g></g><rect class="scrollbar" rx="20" ry="3" width="0" height="0" style="fill: rgb(128, 139, 164); fill-opacity: 1;" x="0" y="0"/></g><g class="g-gtitle"><text class="gtitle" x="490" y="50" text-anchor="middle" dy="0em" style="font-family: 'Open Sans', verdana, arial, sans-serif; font-size: 24px; fill: rgb(51, 51, 51); opacity: 1; font-weight: normal; white-space: pre;">audio wave (time vs amplitude)</text></g><g class="g-xtitle"><text class="xtitle" x="450" y="490" text-anchor="middle" style="font-family: 'Open Sans', verdana, arial, sans-serif; font-size: 20px; fill: rgb(51, 51, 51); opacity: 1; font-weight: normal; white-space: pre;">time(ms)</text></g><g class="g-ytitle"><text class="ytitle" transform="rotate(-90,30,260)" x="30" y="260" text-anchor="middle" style="font-family: 'Open Sans', verdana, arial, sans-serif; font-size: 20px; fill: rgb(51, 51, 51); opacity: 1; font-weight: normal; white-space: pre;">amplitude</text></g></g></svg>