<svg class="main-svg" xmlns="http://www.w3.org/2000/svg" xmlns:xlink="http://www.w3.org/1999/xlink" width="980" height="500" viewBox="0 0 980 500"><rect x="0" y="0" width="980" height="500" style="fill: rgb(255, 255, 255); fill-opacity: 1;"/><defs id="defs-0ba296"><g class="clips"><clipPath id="clip0ba296xyplot" class="plotclip"><rect width="698" height="320"/></clipPath><clipPath class="axesclip" id="clip0ba296x"><rect x="80" y="0" width="698" height="500"/></clipPath><clipPath class="axesclip" id="clip0ba296y"><rect x="0" y="100" width="980" height="320"/></clipPath><clipPath class="axesclip" id="clip0ba296xy"><rect x="80" y="100" width="698" height="320"/></clipPath></g><g class="gradients"/></defs><g class="bglayer"><rect class="bg" x="80" y="100" width="698" height="320" style="fill: rgb(237, 237, 237); fill-opacity: 1; stroke-width: 0;"/></g><g class="layer-below"><g class="imagelayer"/><g class="shapelayer"/></g><g class="cartesianlayer"><g class="subplot xy"><g class="layer-subplot"><g class="shapelayer"/><g class="imagelayer"/></g><g class="gridlayer"><g class="x"><path class="xgrid crisp" transform="translate(167.25,0)" d="M0,100v320" style="stroke: rgb(255, 255, 255); stroke-opacity: 1; stroke-width: 1px;"/><path class="xgrid crisp" transform="translate(254.5,0)" d="M0,100v320" style="stroke: rgb(255, 255, 255); stroke-opacity: 1; stroke-width: 1px;"/><path class="xgrid crisp" transform="translate(341.75,0)" d="M0,100v320" style="stroke: rgb(255, 255, 255); stroke-opacity: 1; stroke-width: 1px;"/><path class="xgrid crisp" transform="translate(429.01,0)" d="M0,100v320" style="stroke: rgb(255, 255, 255); stroke-opacity: 1; stroke-width: 1px;"/><path class="xgrid crisp" transform="translate(516.26,0)" d="M0,100v320" style="stroke: rgb(255, 255, 255); stroke-opacity: 1; stroke-width: 1px;"/><path class="xgrid crisp" transform="translate(603.51,0)" d="M0,100v320" style="stroke: rgb(255, 255, 255); stroke-opacity: 1; stroke-width: 1px;"/><path class="xgrid crisp" transform="translate(690.76,0)" d="M0,100v320" style="stroke: rgb(255, 255, 255); stroke-opacity: 1; stroke-width: 1px;"/></g><g class="y"><path class="ygrid crisp" transform="translate(0,375.2)" d="M80,0h698" style="stroke: rgb(255, 255, 255); stroke-opacity: 1; stroke-width: 1px;"/><path class="ygrid crisp" transform="translate(0,317.59000000000003)" d="M80,0h698" style="stroke: rgb(255, 255, 255); stroke-opacity: 1; stroke-width: 1px;"/><path class="ygrid crisp" transform="translate(0,202.38)" d="M80,0h698" style="stroke: rgb(255, 255, 255); stroke-opacity: 1; stroke-width: 1px;"/><path class="ygrid crisp" transform="translate(0,144.77)" d="M80,0h698" style="stroke: rgb(255, 255, 255); stroke-opacity: 1; stroke-width: 1px;"/></g></g><g class="zerolinelayer"><path class="xzl zl crisp" transform="translate(80,0)" d="M0,100v320" style="stroke: rgb(255, 255, 255); stroke-opacity: 1; stroke-width: 1px;"/><path class="yzl zl crisp" transform="translate(0,259.98)" d="M80,0h698" style="stroke: rgb(255, 255, 255); stroke-opacity: 1; stroke-width: 1px;"/></g><path class="xlines-below"/><path class="ylines-below"/><g class="overlines-below"/><g class="xaxislayer-below"/><g class="yaxislayer-below"/><g class="overaxes-below"/><g class="plot" transform="translate(80, 100)" clip-path="url('#clip0ba296xyplot')"><g class="scatterlayer mlayer"><g class="trace scatter trace2df95789-4144-4481-bcee-7a7b0cd74e19" style="stroke-miterlimit: 2; opacity: 1;"><g class="fills"/><g class="errorbars"/><g class="lines"><path class="js-line" d="M0,194.76L0.16,284.41L0.39,26.07L0.55,248.46L0.56,277.05L0.82,286.01L1.07,29.42L1.28,155.41L1.29,234.85L1.3,280.55L1.46,31.58L1.98,37.8L2,39.84L2.06,31.33L2.17,216.29L2.18,274.96L2.19,286.23L2.67,32.99L2.72,45.78L2.73,31.12L2.91,288.3L3.35,137.08L3.36,84.86L3.42,30.75L3.87,271.54L4.07,164.67L4.08,193.4L4.22,84.44L4.68,280.77L4.81,128.63L4.82,113.11L5.3,279.96L5.54,31.71L5.61,39.64L5.62,71.13L6.28,256.07L6.34,52.3L6.35,39.13L6.39,34.67L6.47,139.7L6.48,170L6.64,29.46L7.09,285.86L7.17,106.35L7.18,99.93L7.5,32.56L7.77,277.58L7.78,279.03L7.83,283.72L7.98,227.15L8.08,228.23L8.09,194.82L8.41,34.76L8.66,260.47L8.83,169.88L8.85,206.06L9.07,282.83L9.53,32.18L9.55,33.66L9.56,35.65L9.61,33.58L9.62,42.9L9.63,63.12L9.87,277.68L10.15,43.97L10.31,107.71L10.32,91.56L10.35,33.51L10.8,280.67L11,240.15L11.02,265.89L11.07,282.1L11.34,32.24L11.72,209.84L11.74,193.59L11.89,283.39L12.17,37.45L12.49,161.94L12.5,185.38L12.63,268.67L13.01,77.29L13.24,184.51L13.25,175.77L13.52,33.09L13.94,277.1L14,222.1L14.01,187.15L14.12,276.68L14.61,33.68L14.68,199.01L14.69,232.47L14.8,285.32L15.37,32.89L15.38,35.48L15.39,33.62L15.55,138.19L15.56,164.57L15.96,283.91L16.16,40.45L16.17,35.48L16.27,34.44L16.31,58.29L16.32,106.03L16.78,283.56L16.98,34.02L17.04,34.38L17.05,34.91L17.11,285.65L17.43,33.75L17.57,35.51L17.58,34.81L17.62,33.77L17.68,98.98L17.69,165.3L17.91,283.77L18.26,36.91L18.41,82.24L18.42,67.83L18.57,31.98L18.73,284.42L19.12,167.53L19.13,180.65L19.48,32.44L19.83,284.82L19.97,278.55L19.98,262.92L20.02,276.18L20.07,131.37L20.08,112.82L20.14,33.22L20.77,210.41L20.79,196.72L20.8,198.67L20.84,281.44L21.41,34.76L21.46,36.67L21.47,35.92L21.56,34.24L21.62,41.23L21.63,58.82L21.93,282.61L22.19,52.75L22.41,131.74L22.42,115.54L22.82,282.99L23.11,79.65L23.18,93.72L23.19,122.7L23.59,33.57L23.83,281.19L23.93,122.77L23.94,104.75L23.95,103.27L24.02,183.85L24.03,215.21L24.24,280.64L24.44,31.05L24.77,194.5L24.78,219.29L25.05,283.33L25.42,29.72L25.6,48.9L25.61,121.29L25.87,261.74L26.13,35.85L26.36,168.75L26.37,161.49L26.62,293.66L26.72,21.99L27.11,103.55L27.12,177.05L27.66,25.21L27.9,290.16L27.91,285.54L27.92,263.73L28.17,30.93L28.66,291.27L28.67,241.16L28.68,225.11L28.72,289.31L28.96,92.67L28.97,47.15L29.02,28.98L29.41,286.21L29.58,164.73L29.59,253.48L29.73,30.87L30.19,285.6L30.27,153.23L30.28,135.05L30.47,282.14L30.82,25.78L30.99,280.34L31,287.65L31.5,32.62L31.64,208.29L31.65,261.86L31.89,29.59L32.24,289.32L32.48,36.12L32.49,40.08L32.68,27.31L32.72,175.22L32.8,148.1L32.81,248.6L32.87,290.71L33.22,114.16L33.23,89.37L33.37,28.09L33.82,287.17L33.84,281.39L33.85,283.28L33.97,285.82L34.14,27.97L34.22,232.33L34.24,256.61L34.73,34.25L34.77,282.22L34.99,250.57L35,216.22L35.02,177.8L35.04,243.54L35.06,196.71L35.08,78.1L35.58,292.56L35.71,29.46L35.79,155.36L35.81,235.29L36.08,296.54L36.46,28.89L36.49,29.37L36.5,34.62L36.54,24.97L36.62,214.68L36.77,161.84L36.78,189.79L37.17,291.65L37.26,16.92L37.5,116.75L37.51,78.72L37.71,288.02L38.07,24.6L38.22,187.97L38.23,203.75L38.63,54.15L38.83,284.65L38.88,223.96L38.89,68.73L39.11,24.35L39.34,290.55L39.62,109.93L39.63,143.76L39.71,26.83L40.15,285.48L40.36,179.99L40.38,121.09L40.6,27.23L40.95,291.72L41.11,118.27L41.12,203.99L41.6,30.46L41.84,285.98L41.88,254.25L41.89,263.52L42.01,290.2L42.31,29.51L42.49,181.06L42.5,215.35L42.7,33.58L42.82,288.69L43.07,99.56L43.08,43.56L43.22,29.96L43.29,142.35L43.3,226.4L43.64,284.54L43.77,32.55L44.01,81.59L44.02,56.19L44.47,285.43L44.57,28.6L44.76,76.99L44.77,78.34L45.03,288.9L45.38,28.28L45.51,45.65L45.52,37.36L45.64,33.16L45.72,157.11L45.73,188.72L46,285.65L46.27,28.73L46.42,160.13L46.43,122.64L46.81,286.11L47.16,30.21L47.17,75.15L47.18,133.09L47.48,33.49L47.67,281.37L47.93,155.72L47.94,79.95L48.44,282.55L48.63,32.61L48.66,110.58L48.68,110.13L48.98,279.93L49.16,55.12L49.34,159.43L49.35,128.9L49.42,38.14L49.52,146.59L49.53,185.22L49.79,283.89L49.92,55.59L50.23,83.75L50.25,109.14L50.33,281.97L50.47,62.72L51,131.76L51.01,124.1L51.03,43.29L51.65,284L51.73,255.65L51.74,219.35L52.35,50.37L52.51,167.26L52.53,142.61L52.59,64.74L52.66,146.58L52.67,166.81L52.8,283.25L53.15,29.6L53.4,133.51L53.41,100.98L53.74,45.8L53.87,282.93L54.1,238.16L54.11,255.11L54.36,281.46L54.55,34.51L54.64,133.87L54.65,186.85L54.94,283.34L55.28,63.59L55.3,40.27L55.33,34.48L55.68,205.49L55.69,238.7L55.72,283.77L55.85,96.37L56.42,181.48L56.43,199.7L56.64,33.1L57.14,274.9L57.17,212.15L57.18,196.92L57.43,74.6L57.73,241.39L57.93,185.5L57.95,180.78L58.03,32.32L58.49,240.11L58.71,133.41L58.72,148.07L59.06,38.51L59.34,264.9L59.44,49.74L59.45,38L60.18,282.2L60.25,170L60.26,148.65L60.72,30.78L60.92,269.39L60.93,282.67L60.98,284.86L61.25,69.24L61.29,188.52L61.3,231.32L61.34,283.1L61.49,35.2L61.87,149.71L61.88,119.56L62.21,286.32L62.3,36.79L62.57,173.28L62.58,169.14L62.77,50.27L62.98,283.93L63.24,50.41L63.25,32.56L63.82,283.43L63.87,147.78L63.88,102.99L64.11,32.84L64.23,241.16L64.57,214.04L64.58,231.34L64.6,217.8L64.63,263.15L64.65,227.52L64.66,162.3L65.06,260.52L65.18,33.54L65.35,224.01L65.36,255.78L65.39,282.2L65.46,105.63L65.47,37.92L65.67,28.76L65.84,242.9L65.85,284.45L66.15,63.83L66.23,285.72L66.41,254.15L66.42,273.57L66.43,277.63L66.71,118.45L66.83,165.05L66.85,109.57L66.95,30.6L67.12,280.02L67.59,144.34L67.6,165.87L67.74,47.15L68.25,285.18L68.26,281.25L68.27,284.89L68.32,188.18L68.39,286.26L68.43,279.07L68.44,284.61L68.95,31.12L69.18,280.34L69.19,275.53L69.23,286.74L69.4,109.13L69.65,166.24L69.66,151.77L69.83,30.67L70.36,282.77L70.42,167.21L70.43,151.41L70.64,30.33L71.14,285.24L71.22,280.03L71.23,275.46L71.42,28.71L71.66,283.37L71.94,283.22L71.95,282.47L71.96,283.31L71.99,243.2L72,169.01L72.07,34.24L72.46,282.9L72.64,210.09L72.65,264.71L72.78,287.69L72.9,26.07L73.42,170.75L73.43,210.7L73.62,285.6L73.89,27.43L74.03,191.43L74.04,264.56L74.24,285.73L74.48,31.31L74.65,85.7L74.67,53.92L74.76,26.77L75.13,286.48L75.37,153.8L75.39,210.71L75.41,252.65L75.51,31.92L76.08,35.46L76.09,34.75L76.12,37.09L76.14,29.86L76.15,63.88L76.24,284.24L76.55,26.49L76.89,52.42L76.9,37.3L76.99,283.21L77.62,125.43L77.63,35.18L77.75,29.63L77.81,286.62L78.42,222.07L78.43,183.85L78.45,25L78.62,290.73L79.16,244.75L79.17,270.45L79.45,286.5L79.68,29.85L79.74,42.11L79.75,26.14L79.91,287.59L80.07,24.54L80.49,94.62L80.5,31.53L80.51,29.04L80.62,140.93L80.63,217.41L80.84,26.8L81.08,290.48L81.36,104.1L81.37,77.11L81.48,292.96L81.79,28.87L82.13,32.52L82.14,36.85L82.2,29.2L82.3,256.22L82.32,229.3L82.33,275.77L82.38,283.54L82.47,34.63L82.49,36.85L82.5,35.12L82.61,137.46L82.62,183.91L82.66,252.79L82.71,149.39L82.73,105.45L82.9,25.03L83.14,287.96L83.51,250.99L83.52,213.12L83.71,26.86L83.98,286.49L84.26,252L84.27,281.68L84.31,286.68L84.35,179.32L84.36,158.54L84.49,30.29L84.71,283.82L85.11,208.51L85.12,204.13L85.38,28.12L85.51,288.67L85.8,186.91L85.81,216.97L85.91,287.52L86.64,29.3L86.66,34.52L86.67,66.46L86.77,31.98L87.09,284.98L87.45,222.07L87.46,170.53L87.52,198.64L87.73,40.11L87.74,35.79L88.08,285.8L88.18,86.47L88.19,55.73L88.58,32.48L88.75,282.36L88.85,219.77L88.87,217.44L88.92,286.08L89.2,32.93L89.6,144.99L89.61,147.01L89.64,238.93L89.77,58.56L90.36,150.58L90.37,124.04L90.51,281.22L90.82,32.62L90.95,127.78L90.96,99.91L91.32,283.63L91.56,34.16L91.57,37.83L91.58,33.56L91.7,29.28L91.9,223.17L91.91,244.91L91.94,279.37L91.97,230.06L91.98,244.03L92,212.73L92.05,283.19L92.57,32.32L92.63,135.95L92.64,202.91L92.79,37.3L92.97,250.67L93.3,57.01L93.32,36.39L93.34,35.11L93.52,285.48L93.77,175.58L93.78,148.85L94.13,30.6L94.5,283.06L94.61,195.98L94.62,156.87L94.86,32.23L95.09,281.25L95.28,200.96L95.29,253.39L95.3,265.26L95.8,32.18L95.92,126.34L95.93,121.06L96.18,284.6L96.52,35.2L96.62,50.08L96.63,48.67L97.23,285.78L97.3,185.42L97.31,129.63L97.59,246.33L97.67,33.96L98.04,199.79L98.05,195.67L98.13,60.89L98.39,286.68L98.8,160.37L98.81,170.88L98.92,42.83L99.15,283.87L99.53,206.49L99.54,217.87L99.56,161.93L99.58,120.64L99.76,65.14L100.21,260L100.24,159.33L100.25,125.55L100.38,30.5L100.6,285.21L100.98,134.43L100.99,201.6L101.2,39.53L101.59,283.68L101.7,184.95L101.71,141.86L102.06,33.79L102.39,257.87L102.45,158.65L102.47,165.95L102.68,287.12L102.85,33.34L103.17,177.02L103.19,165.09L103.44,31.14L103.57,267.42L103.74,56.7L103.75,51.05L104.35,30.73L104.55,285.37L104.6,275.64L104.61,278.05L104.8,283.23L104.81,231.6L104.82,159.54L105.37,277.98L105.49,28.2L105.54,79.27L105.55,92.17L105.88,35.8L106.16,277.98L106.33,271.65L106.34,198.16L106.47,27.45L107.1,293.91L107.11,190.44L107.17,17.74L107.56,301.31L107.86,158.87L107.88,184.59L107.98,29.98L108.33,289.29L108.6,275.59L108.61,281.14L108.65,282.23L108.66,267.15L108.67,225.75L108.91,28.98L109.13,293.32L109.4,224.15L109.41,250.58L109.65,20.16L109.96,287.17L110.15,130.07L110.17,202.26L110.18,201.79L110.19,215.28L110.2,280.49L110.33,283.4L110.55,29.74L110.96,209.84L110.97,233.86L111.09,30.96L111.4,291.99L111.68,42.6L111.69,33.53L111.99,279.1L112.45,119.2L112.46,77.71L112.81,293.55L112.93,30.35L113.21,149.29L113.22,137.96L113.58,290.29L113.92,28.12L113.94,34.63L113.95,37.1L114.18,264.09L114.7,60.01L114.71,76.59L114.93,33.31L115.04,269.24L115.4,231.49L115.41,257.53L115.54,36.22L115.83,275.63L116.16,174.76L116.18,170.55L116.46,249.71L116.58,59.4L116.87,125.2L116.88,71.02L117.09,43.34L117.31,258.49L117.39,200.63L117.4,229.96L117.41,267.04L117.69,51.67L118.13,170.49L118.14,169.63L118.38,57.5L118.53,282.22L118.91,103.57L118.92,113.06L119.05,256.89L119.22,33L119.7,179.21L119.71,149.82L120.01,56.86L120.39,255.47L120.43,193L120.44,210.85L120.9,246.26L121.15,59.81L121.22,60.28L121.24,118.15L121.31,87.68L121.79,282.35L121.96,107.23L121.97,107.14L122.03,33.54L122.36,287.84L122.71,140.23L122.72,112.68L123.01,33.74L123.16,283.08L123.35,198.67L123.36,225.81L123.6,37.71L123.95,283.62L124.13,139.5L124.14,139.13L124.19,132.46L124.21,210.55L124.22,252.75L124.52,277.74L124.69,38.73L124.93,208.47L124.94,232.27L124.95,249.31L125.21,42.47L125.62,158.27L125.63,111.35L125.69,70.66L125.84,255.3L125.98,89.39L125.99,57.6L126.02,42.59L126.13,280.82L126.65,181.07L126.66,211.67L126.79,54.31L126.95,265.08L127.41,231.11L127.42,228.35L127.54,253.09L127.79,79.05L128.04,98.99L128.05,76.75L128.14,195.43L128.15,234.16L128.55,255.07L128.77,82.31L128.82,112.09L128.83,110.93L129.25,57.58L129.44,234.9L129.45,257.8L129.48,286.09L129.63,37.02L130.15,189.16L130.16,146.09L130.77,49.06L130.95,284.96L131,280.04L131.01,276.1L131.27,33.12L131.77,184.06L131.78,198.91L131.92,284.89L132.02,177.16L132.03,164.11L132.24,32.63L132.53,284.46L132.8,102.77L132.81,107.5L133.03,223.17L133.2,51.02L133.6,172.91L133.61,170.79L133.81,95.78L133.92,258.53L134.01,97.09L134.02,72.61L134.42,43.24L134.72,284.42L134.78,150.33L134.79,139.1L134.91,267.93L135.22,36.42L135.43,232.73L135.44,232.43L135.62,47.05L135.73,241.72L136.19,156.88L136.2,156.95L136.45,29.9L136.62,283.47L136.97,112.8L136.98,164.94L137.19,32.75L137.45,280.8L137.66,105.49L137.67,91.65L138.05,31.65L138.29,284.96L138.42,145.84L138.44,119.92L138.52,32.27L139.07,285.2L139.17,137.69L139.18,170.93L139.26,47.31L139.48,227.29L139.74,207.68L139.75,229.11L139.82,284.71L140.03,119.37L140.04,99.71L140.1,75.75L140.66,267.12L140.67,281.76L140.69,285.15L140.71,204.32L140.73,165.69L140.86,57.29L141.5,246.61L141.51,224.74L141.52,179.9L141.57,84.5L141.79,233.82L142.27,177.54L142.29,200.94L142.54,91.34L142.7,278.11L142.89,145.25L142.9,142.35L142.93,89.2L142.98,174.05L143.06,146.82L143.07,171.53L143.17,64.49L143.5,280.86L143.74,99.75L143.75,72.93L144.16,62.75L144.46,252.85L144.53,151.46L144.54,115.15L144.65,230.09L144.92,103.8L144.94,73.52L144.95,67.91L145.26,236.94L145.44,196.37L145.45,234.43L145.85,255.83L145.91,90.02L145.92,90.45L146.26,255.1L146.57,33.35L146.65,63.87L146.66,105.66L146.84,285.83L147.36,40.48L147.44,163.89L147.45,95.58L147.57,284.26L148.1,27.82L148.16,153.42L148.17,166.56L148.24,248.51L148.28,59.17L148.85,78.8L148.86,73.53L149.27,282.47L149.61,203.81L149.63,201.87L149.64,204.79L149.78,31.18L149.89,80.93L149.9,47.11L150.16,26.76L150.39,284.65L150.4,276.12L150.41,283.22L150.67,284.74L151.11,45.58L151.21,241L151.22,259L151.49,265.26L151.75,31.64L151.96,111.69L151.97,158.83L152.49,31.28L152.77,284.81L152.81,280.47L152.82,278.41L152.9,25.1L153.22,281.6L153.6,60.25L153.61,114.12L153.65,28.26L154.29,287.9L154.37,158.08L154.38,105.28L154.85,290.99L154.94,31.46L155.06,207.21L155.07,242.46L155.27,31.17L155.66,285.76L155.73,137.48L155.74,40.87L155.75,35.76L155.9,283.28L156.05,247.73L156.06,273.9L156.13,286.56L156.55,26.4L156.82,141.46L156.83,144.51L156.95,29.63L157.01,251.31L157.13,178.1L157.14,50.39L157.52,285.42L157.7,29.09L157.79,151.75L157.8,171.93L158.32,283.86L158.35,27.18L158.45,196.97L158.46,276.89L158.56,99.28L158.66,285.2L158.73,152.98L158.74,39.99L158.82,284.48L158.94,127.37L158.95,44.03L159.14,28.5L159.36,276.21L159.39,263.48L159.4,279.88L159.43,234.11L159.44,188.46L159.52,286.6L159.76,35.98L159.77,33.17L159.82,30.89L159.89,113.34L159.9,215.94L160.07,288.25L160.34,29.75L160.62,36.28L160.63,33.09L160.68,247.35L160.7,286.19L161.39,289.57L161.52,32.56L161.55,70.89L161.56,137.29L161.79,288.65L161.82,25.88L162.31,220.06L162.32,125.04L162.33,125.92L162.34,212.29L162.49,286.34L162.73,28.91L163.05,34.46L163.06,37.07L163.25,290.96L163.52,28.8L163.79,143.4L163.8,71.88L163.84,28.14L164.04,293.19L164.35,202.69L164.36,246.65L164.91,288.75L165.13,24.94L165.15,61.19L165.61,290.56L165.86,34.02L165.89,53.67L165.9,31.34L166.28,290.17L166.44,30.81L166.61,55.16L166.62,36.42L166.69,28.56L167.01,280.52L167.09,150.7L167.1,52.59L167.16,28.23L167.62,299.33L167.68,183.32L167.69,269.52L167.94,286.06L168.44,22L168.45,75.08L168.46,140.25L168.81,297.9L169.1,30.4L169.21,278.48L169.22,132.84L169.3,26.92L169.61,300.66L169.95,228.42L169.97,274.03L170.1,25.32L170.33,291.33L170.65,254.73L170.66,185.9L171.05,283.74L171.29,24.34L171.41,176.79L171.42,246.63L171.73,286.48L171.89,23.92L172.14,193.56L172.15,150.85L172.45,294.37L172.72,29.46L172.91,82.32L172.92,102L173.03,293.49L173.27,24.64L173.67,34.81L173.68,89.93L174.11,287.23L174.24,27.24L174.44,174.18L174.45,64.47L174.46,63.69L174.47,173.83L174.85,27.22L175.16,287.41L175.21,208.4L175.22,149.24L175.24,27.92L175.94,291.77L175.96,105.05L175.98,103.29L176.04,31.05L176.64,287.1L176.72,109.79L176.73,171.72L176.91,28.41L177.19,285.66L177.29,218.82L177.31,266.88L177.39,32.28L177.88,285.6L177.98,162.75L177.99,78.42L178.1,285.95L178.36,32.25L178.73,68.45L178.75,126.94L178.92,284.48L179.06,36.94L179.5,194.96L179.51,148.43L179.83,283.18L180.18,31.62L180.37,46.12L180.38,82.62L180.53,285.34L180.7,34.16L181.14,241.84L181.16,179.53L181.58,35.6L181.83,285.6L181.86,281.29L181.88,278.98L181.92,285.66L182.46,32L182.53,268.6L182.54,280.82L182.6,285.48L182.65,217.46L182.66,192.14L183.28,283.17L183.39,32.76L183.41,115.86L183.42,210.46L183.47,286.65L183.57,38.36L184.15,230.47L184.17,157.23L184.24,32.87L184.53,289.37L184.89,246.98L184.9,251.74L184.92,265.19L185.02,50L185.38,78.06L185.39,42.66L185.53,34.53L185.85,287.09L186.18,256.3L186.19,172.46L186.54,289.95L186.95,29.47L186.96,35.25L186.97,30.93L187.41,286.96L187.57,129.75L187.58,92.99L188.05,295.51L188.17,24.67L188.19,49.23L188.2,35.06L188.28,75.45L188.29,116.45L188.36,30.63L188.99,287.72L189.03,155.07L189.04,189.21L189.28,31.9L189.65,292.19L189.7,114.24L189.71,118.6L189.77,24.08L190.09,301.76L190.44,125.38L190.45,204.69L190.87,22.89L191.12,295.56L191.19,271.05L191.2,227.91L191.56,19.68L191.79,286.74L191.94,274L191.95,260.74L192,283.94L192.09,26.26L192.48,118.03L192.49,57.64L192.62,287.54L193.16,22.12L193.23,42.98L193.24,25.18L193.56,287.88L193.7,22.89L194.01,276.72L194.03,282.84L194.16,24.03L194.53,291L194.68,138.68L194.69,258.35L194.82,25.89L195.27,295.06L195.33,168.97L195.34,83.9L195.48,293.04L195.75,21.66L196.1,199.85L196.11,197.53L196.48,296.05L196.61,33.69L196.86,248.31L196.87,234.78L197.28,285.97L197.45,32.1L197.62,275.05L197.64,281.25L197.7,300.95L197.72,33.59L197.79,269.31L197.8,289.9L198.3,22.64L198.45,161.22L198.46,232.25L198.67,285.92L199.11,23.57L199.14,75.53L199.15,49.82L199.67,295.4L199.88,21.62L199.89,36.81L199.9,34.25L200.22,18.08L200.67,295.51L200.69,291.36L200.7,223.38L200.75,289.72L201.2,34.39L201.47,49.59L201.49,65.66L202.07,25.75L202.25,292.95L202.26,177.52L202.49,29.14L202.94,287.31L203.01,62.99L203.02,42.28L203.18,28.36L203.49,277.67L203.56,199.09L203.57,257.49L203.72,31.51L204.18,289.29L204.28,261.23L204.29,178.22L204.58,286.2L204.82,31.86L205.04,129.73L205.05,196.9L205.23,42.49L205.64,281.64L205.68,164.53L205.7,85.04L205.88,289.61L206.11,39.33L206.27,124.85L206.28,110.93L206.46,30.7L206.75,283.43L207.04,34.19L207.05,34.84L207.6,289.22L207.78,134.68L207.79,63.02L208.11,29.99L208.35,287.23L208.52,86.43L208.53,119.99L208.67,30.04L209.01,285.24L209.28,123.61L209.29,94.09L209.51,34.17L209.69,286.59L209.97,73.41L209.98,53.32L209.99,38.79L210.42,288.3L210.58,242.92L210.59,273.13L210.85,35.12L210.92,156.69L210.93,236.44L211.37,282.59L211.48,32.62L211.58,106.82L211.6,99.09L212.09,285.25L212.29,32.4L212.36,60.56L212.37,88.96L212.7,38.09L212.99,291.11L213.11,94.04L213.12,82.77L213.2,30.53L213.69,283.09L213.83,165.58L213.84,174.11L214.22,29.55L214.47,284.38L214.64,253.02L214.65,211.11L215,290.35L215.23,28.97L215.36,224.18L215.37,212.69L215.6,33.67L215.7,268.58L216.07,123.53L216.08,130.81L216.24,44.66L216.56,280.82L216.71,68.77L216.72,27.71L217.36,270.36L217.52,216.11L217.53,194.63L218.03,274.28L218.23,32.01L218.32,93.57L218.34,142.93L218.87,277.7L219.03,37.68L219.06,115.62L219.07,89.73L219.4,30.8L219.67,282.75L219.8,92.64L219.81,70.66L220.28,53.26L220.44,242.09L220.6,138.6L220.62,129.72L220.7,32.79L221.15,285.24L221.33,152.57L221.35,149.53L221.77,281.7L221.91,33.25L222.08,176.56L222.09,196.35L222.11,200.24L222.12,239.32L222.13,256.79L222.28,35.01L222.81,139.64L222.82,126.03L223.34,250L223.44,62.28L223.53,139.37L223.54,194.53L223.64,37.87L223.73,280.35L224.26,151.99L224.27,105.09L224.74,283.41L224.98,38.41L225,57.67L225.01,114L225.46,286.19L225.64,37.75L225.77,219.89L225.78,174.7L225.92,281.5L226.35,36.05L226.55,99.49L226.56,99.59L226.77,279.64L226.85,45.29L227.3,70.22L227.31,68.59L227.34,65.6L227.48,277.96L227.68,122.92L227.69,85.51L227.81,286L227.88,46.85L228.25,135.22L228.26,176.2L228.48,288.96L228.58,62.51L228.81,238.48L228.82,262.36L228.9,32.71L229.18,283.32L229.55,279.8L229.56,272.2L229.83,284.52L230.09,28.55L230.34,32.74L230.35,42.69L230.39,27.76L230.69,289.51L231.14,162.36L231.15,167.15L231.52,288.94L231.91,30.32L232,60.76L232.01,72.02L232.27,28.59L232.83,284.92L232.84,284.21L232.85,280.65L232.9,281.74L233.45,26.11L233.58,143.5L233.59,200.42L233.7,289.26L234.07,31.55L234.35,282.21L234.36,285.11L234.37,285.99L234.47,249.22L234.48,212.84L234.62,282.86L234.98,40.79L235.21,183.72L235.22,215.18L235.49,31.48L235.92,285.63L236.04,44.83L236.05,46.04L236.22,28.21L236.64,281.49L236.92,278.38L236.93,232.95L237.03,35.25L237.33,280.02L237.67,232.56L237.68,267.57L237.86,281.57L238.04,27.21L238.26,183.36L238.27,212.34L238.48,66.93L238.86,286.11L239.01,209.69L239.03,166.79L239.32,34.04L239.71,250.24L239.77,215.09L239.78,236.86L240.05,30.86L240.44,287.28L240.61,102.58L240.62,156.39L240.63,156.75L240.64,139.85L240.65,122.77L240.96,286.41L241.26,29.33L241.4,180.23L241.41,143.52L241.48,289.29L241.86,135.59L241.99,181.83L242,118.6L242.32,30.26L242.49,284.19L242.52,274.7L242.53,280.49L242.69,285.88L242.85,140.14L242.86,99.2L242.88,98.94L242.89,110.86L242.9,111.62L242.91,70.07L242.92,28.25L243.2,218.67L243.56,166.31L243.57,103.61L244.1,28.95L244.25,273.57L244.3,164.47L244.31,149.93L244.4,282.7L244.84,70.85L244.9,167.99L244.91,199.69L244.96,70.67L245.15,244.46L245.21,121.84L245.22,105.24L245.34,31.07L245.57,283.4L245.87,229.33L245.89,248.71L246.04,31.73L246.28,282.93L246.54,137.99L246.55,97.51L246.85,45.22L246.98,217.33L247.26,168.86L247.27,208.13L247.42,30.9L247.97,282.7L248.02,244.71L248.03,242.3L248.24,34.46L248.76,282.44L248.78,283.93L248.81,289.29L248.93,38.37L249.6,58.73L249.62,119.36L249.71,33.23L250.34,280.41L250.37,210.71L250.38,183.93L250.44,56.25L250.63,265.17L251.13,147.49L251.14,186.66L251.46,46.02L251.67,265.89L251.88,201.3L251.89,230.44L251.95,159.53L252.01,218.79L252.03,243.49L252.08,281.83L252.22,34.54L252.73,178.39L252.75,146.26L253.04,35.72L253.43,280.63L253.48,202.44L253.49,185.93L253.67,265.89L253.8,42.77L254.08,152.13L254.09,189.51L254.28,281.04L254.54,31.95L254.81,74.19L254.82,64.66L255,49.64L255.45,282.99L255.65,196.83L255.66,203.14L255.77,279.31L256.19,33.54L256.43,128.58L256.44,177.67L256.77,284.62L256.87,37.71L257.17,107.32L257.18,77.27L257.27,146L257.33,79.48L257.34,40.18L257.41,32.95L257.46,199.7L257.47,230.14L257.57,98.35L257.81,262.57L258.18,137.36L258.19,123.1L258.37,36.9L258.63,281.44L258.94,108.64L258.95,101.83L259.11,283.63L259.42,41.14L259.73,176.92L259.74,159.11L259.83,279.24L260.37,33.69L260.54,113.5L260.55,147.1L260.87,284.55L261.27,100.15L261.29,81.23L261.32,42.23L261.9,268.26L261.99,136.26L262,146.95L262.39,44.16L262.86,282.07L262.9,218.37L262.91,195.8L262.98,33.4L263.62,283.26L263.63,282.31L263.64,271.41L263.71,279.65L263.99,40.85L264.5,64.11L264.51,81.48L264.55,40.12L264.76,239L264.78,269.77L264.87,281.92L264.97,81.62L264.98,37.49L264.99,34.91L265.15,179.77L265.17,177.73L265.18,205.09L265.46,271.04L265.82,33.73L265.83,32.58L265.91,125.63L265.92,163.52L266.3,278.98L266.56,42.77L266.67,185.32L266.68,174.11L267.09,31.21L267.32,276.72L267.39,240.39L267.4,279.7L267.45,284.89L267.49,228.93L267.5,265.77L267.51,283.57L267.56,286.4L267.93,23.7L267.96,158.44L267.97,283.86L268.07,289.93L268.11,195.12L268.12,166.06L268.67,23.27L268.85,289.45L268.91,280.92L268.92,284.71L268.96,286.83L269.34,33.22L269.58,165.32L269.6,190.84L269.79,285.78L270.12,25.22L270.34,251.98L270.35,279.97L270.38,285.77L270.45,187.5L270.46,159.49L270.65,295.93L270.94,27.18L271.19,233.67L271.2,220.71L271.3,296.08L271.5,29.82L271.96,117.8L271.97,173.17L272.36,29.91L272.73,301.13L272.74,198.6L272.99,294.44L273.23,27.35L273.48,202.04L273.49,286.28L273.63,291.35L274.1,23.62L274.25,106.09L274.26,217.79L274.42,27.72L274.72,291.16L274.99,124.9L275.01,30.03L275.09,27.03L275.63,287.91L275.76,52.73L275.77,36.54L276.03,29.94L276.34,293.23L276.45,230.09L276.46,140.55L276.76,280.76L277.19,27.45L277.2,57.8L277.21,163.42L277.75,25.95L277.93,286.76L277.96,229.07L277.97,154.6L278.1,293.2L278.39,23.49L278.7,208.03L278.71,190.92L278.84,35.05L278.94,289.16L279.39,242.44L279.4,236.65L279.54,48.86L279.68,288.79L280.13,273.29L280.14,275.15L280.15,281.92L280.51,32.55L280.53,33.51L280.55,36.21L280.59,29.11L280.64,61.86L280.65,187.67L280.77,287.64L281.09,38.7L281.36,77.39L281.37,74.01L281.6,29.89L281.78,286.95L282.07,71.91L282.08,152.55L282.49,31.26L282.74,279.92L282.85,229.34L282.86,145.86L283.28,286.62L283.4,30.37L283.61,102.85L283.62,115.7L284.22,27.82L284.33,290.37L284.34,279.18L284.35,285.35L284.91,32.59L285.15,112.77L285.16,213.7L285.63,32.24L285.89,286.79L285.91,284.66L285.92,249.07L286.08,288.61L286.53,27.67L286.71,139.57L286.72,171.47L287.28,283.51L287.44,37.35L287.45,35.25L287.46,35.03L287.47,40.99L287.48,77.67L287.91,28.93L288.23,287.02L288.28,168.51L288.29,140.27L288.78,33.5L288.9,243.18L289.01,204.7L289.02,223.7L289.27,285.36L289.64,32.83L289.69,36.59L289.7,34.01L289.96,283.65L290.06,99.5L290.07,75.18L290.22,62.22L290.33,232.69L290.34,264.05L290.37,285.8L290.55,34.34L291.13,177.22L291.14,223.36L291.31,270.91L291.71,37.7L291.86,142.16L291.87,104.43L291.96,274.48L292.37,32.09L292.66,246.08L292.67,254.05L292.77,135.17L293.03,257.65L293.08,188.67L293.09,149.82L293.4,33.53L293.84,283.79L293.86,245.93L293.87,192.36L294.12,30.71L294.51,287.42L294.6,210.45L294.62,220.79L294.64,249.6L295.08,43.7L295.31,175.82L295.32,158.57L295.67,48.57L295.86,259.68L296.05,166.65L296.07,150.66L296.34,260.48L296.69,82.06L296.81,107.39L296.82,112.95L296.95,231.48L297.27,59.71L297.41,198.99L297.42,216.22L297.44,270.97L297.83,53.38L298.16,180.87L298.17,153.71L298.55,224.13L298.74,87.51L298.91,138.25L298.92,162.02L298.96,235.86L299.18,86.36L299.66,167.9L299.68,182.34L299.84,48.94L299.96,225.03L300.26,122.53L300.28,103.18L300.59,264.7L300.72,49.12L301.14,211.1L301.15,198.87L301.57,32.55L301.72,281.64L301.77,266.36L301.78,275.89L302.16,279.2L302.37,84.14L302.56,193.68L302.57,210.73L302.62,282.7L302.87,63.91L303.3,206.37L303.31,178.09L303.78,35.58L303.97,282.82L304.03,265.35L304.04,254.89L304.56,34.4L304.71,258.76L304.83,167.4L304.85,163.86L304.94,274.7L305.07,113.97L305.09,94.63L305.26,47.83L305.74,242.49L305.75,273.91L305.81,283.36L306.2,30.76L306.25,60.7L306.26,57.12L306.72,275.92L306.99,43.91L307,34.66L307.07,31.73L307.08,45.48L307.09,73.05L307.35,286.56L307.8,32.8L307.82,58.54L307.83,47.33L307.84,30.81L308.2,268.17L308.54,63.54L308.55,169.42L308.68,30.91L309.07,284.88L309.3,212.88L309.31,178.76L309.44,30.29L309.91,282.96L310.06,169.66L310.07,235.47L310.29,32.22L310.71,287.52L310.8,185.1L310.81,188.7L311,284.65L311.08,35.36L311.38,175.15L311.39,148.16L311.73,30.5L312.11,286.5L312.24,240.71L312.25,199.68L312.34,285.7L312.48,31.95L312.76,197.38L312.77,237.2L312.99,284.46L313.27,32.21L313.41,86.79L313.42,72.22L313.89,27.81L314.18,285.65L314.2,279.26L314.21,234.29L314.56,30.38L314.81,285.27L314.86,148.64L314.87,98.66L315.1,30.77L315.26,253.82L315.6,174.42L315.61,178.52L315.75,27.89L315.93,290.46L316.35,192.71L316.36,247.58L316.76,28.98L317,278.19L317.06,155.33L317.07,123.61L317.17,283.45L317.68,26.62L317.82,61.87L317.83,133.29L318.05,286.87L318.29,30.37L318.59,194.96L318.6,185.6L318.62,29.54L318.86,292.51L319.34,197.13L319.35,196.16L319.66,292.73L319.84,32.12L320.04,281.71L320.05,280.46L320.2,287.24L320.3,67.3L320.53,219.72L320.54,137.1L320.88,29.51L321.01,296.16L321.26,285.23L321.27,267.53L321.68,30.24L322.02,191.66L322.03,256.22L322.04,288.58L322.18,16L322.7,84.19L322.71,28.76L323.04,24.72L323.48,286.79L323.54,207.74L323.55,182.32L323.89,28.62L323.99,286.55L324.28,238.55L324.29,247.24L324.59,289.18L324.96,30.05L325.02,168.64L325.03,280.9L325.69,287.95L325.76,35.74L325.81,57.48L325.82,126.71L325.93,30.29L326.1,287.71L326.54,34.01L326.55,36.1L326.56,33.17L326.61,179.39L326.63,246.45L326.75,41.14L327.24,285.95L327.31,269.74L327.32,112.17L327.53,29.74L327.86,286.83L328.05,88.24L328.07,129.73L328.11,219.18L328.13,30.24L328.23,215.17L328.24,276.26L328.26,285.02L328.55,30.88L328.72,137.77L328.73,105.26L328.94,29.3L329.42,287.95L329.45,280.68L329.46,285.98L329.55,33.06L330.2,282.15L330.21,282.13L330.36,53.53L330.45,291.64L330.53,193L330.54,63.25L331.05,289.83L331.17,29.9L331.26,144.93L331.27,138.86L331.74,27.28L331.85,286.16L331.95,36.96L331.96,39.39L331.97,34.42L332.23,269.62L332.24,284.05L332.66,285.32L332.79,29.21L333.01,110.26L333.02,101.12L333.22,285.58L333.53,31.45L333.79,283.58L333.8,249.88L334.24,290.52L334.34,27.23L334.55,92.65L334.57,218.93L334.79,287.95L335.14,29.45L335.31,214.54L335.32,117.6L335.7,288.39L335.94,25.84L336.05,238.71L336.06,233.88L336.23,281.64L336.34,31.87L336.83,100.44L336.84,164.62L337.08,292.72L337.53,30.86L337.59,196.18L337.6,159.49L337.71,26.73L337.78,289.79L338.25,41.87L338.26,34.51L338.54,27.69L338.61,288.69L339.03,242.09L339.04,124.39L339.05,25.97L339.43,291.47L339.78,123.55L339.79,161.58L340.11,34.16L340.23,289.6L340.54,272.86L340.55,235.95L341.02,289.73L341.32,27.63L341.33,78.13L341.41,289.58L341.44,31.1L342.08,101.85L342.09,86.06L342.6,289.71L342.81,25.38L342.85,43.1L342.87,31.15L342.89,28.86L342.99,200.44L343,270.78L343.4,291.38L343.68,29.67L343.76,107.58L343.77,225.25L343.79,288.45L344.48,36.17L344.49,37.56L344.54,32.21L344.58,208.44L344.59,260.87L344.98,289.89L345.28,31.78L345.34,190.52L345.35,220.72L345.37,285.62L345.89,26.58L346.03,97.23L346.04,29.24L346.17,282.56L346.57,134.64L346.58,38.82L346.62,33.96L346.72,108.61L346.73,202.06L346.91,28.97L347.34,292.16L347.43,53.77L347.45,30.2L347.99,287.15L348.03,96.83L348.05,80.19L348.39,285.68L348.49,29.47L348.8,218.41L348.81,75.08L349.16,278.34L349.29,33.37L349.5,169.88L349.51,206.35L349.58,293.43L349.75,21.88L350.25,178.4L350.26,203.11L350.5,30.3L350.91,288.33L350.99,246.73L351,100.2L351.46,282.7L351.69,27.07L351.75,31.39L351.76,61.17L351.94,283.4L352.19,25.01L352.51,110.8L352.52,33.76L352.91,31.46L353.18,283.89L353.28,130.52L353.29,92.27L353.3,29.94L353.55,292.96L354,277.56L354.01,286.32L354.11,23.39L354.34,291.98L354.67,223.26L354.68,289.83L354.94,32.52L355.47,236.81L355.48,280.32L355.81,26.64L355.88,280.61L355.9,274.79L355.91,275.6L356.24,41.61L356.32,288.81L356.5,207.09L356.51,151.17L356.54,26.79L356.92,288.09L357.2,62.8L357.21,32.42L357.58,285L357.84,28.52L357.99,224.57L358,219.3L358.3,287.88L358.66,27.07L358.7,40.95L358.71,28.07L359.29,289.96L359.49,222.96L359.5,186.9L359.55,284.5L359.99,27.45L360.25,68.16L360.26,215.93L360.47,292.37L360.98,32.53L360.99,31.68L361.04,31.63L361.34,289.15L361.56,186.74L361.57,114.01L361.64,30.85L362.32,291.95L362.4,275.83L362.41,271.82L362.64,25.31L363.09,284.9L363.19,104.16L363.21,65.85L363.59,286.8L363.75,25.31L363.91,67.02L363.93,170.87L364.07,290.51L364.35,30.34L364.69,270.54L364.7,260.34L364.84,30.04L365.14,289.47L365.35,162.13L365.37,76.87L365.46,28.84L365.53,291.91L366.1,121.09L366.11,197.35L366.17,288.28L366.7,32.19L366.82,34.63L366.83,38.19L366.92,257.07L367.04,26.99L367.11,162.09L367.12,225.45L367.39,286.7L367.64,28.03L367.91,54.86L367.92,177.43L368.57,286.9L368.63,29.21L368.64,45.36L368.93,34.77L369.07,282.23L369.15,130.74L369.16,226.94L369.55,291.09L369.83,28.89L369.87,74.2L369.88,26.73L369.92,26.68L370.09,289.25L370.71,195.33L370.72,178.52L370.92,21.91L371.18,284.47L371.47,118.07L371.48,119.68L371.53,32.76L371.79,287.18L371.85,144.07L371.87,37.43L372.08,28.68L372.28,289.39L372.63,95.54L372.64,83.65L372.92,288.87L373.11,24.23L373.25,190.11L373.26,198.24L373.94,288.77L374.07,31.29L374.08,35.58L374.09,40.81L374.12,29.39L374.2,96.73L374.21,135.59L374.29,34.74L374.49,287.49L374.76,225.42L374.77,95.1L374.81,30.43L375.49,262.91L375.5,257.7L375.52,291.02L375.87,31.34L376.18,127.04L376.2,127.32L376.35,285.5L376.46,28.22L376.97,177.91L376.98,181.78L377.58,33.18L377.71,285.33L377.75,257.68L377.77,219.27L377.93,286.48L378.17,32.55L378.23,38.47L378.25,33.07L378.37,26.92L378.63,288.12L379.06,204.72L379.07,188.9L379.52,281.15L379.76,30.44L379.84,93.25L379.85,153.32L380.06,285.57L380.46,28.96L380.5,36.01L380.51,36.14L380.54,29.69L380.58,101.08L380.59,133.22L380.81,53.95L381,265.62L381.02,281.52L381.14,285.66L381.4,29.06L381.65,206.89L381.66,267.26L381.67,270.76L381.76,62.14L381.91,149.53L381.92,71.06L381.93,70.54L381.94,83.32L381.95,120.07L382.14,31.26L382.56,288.27L382.72,283.63L382.73,275.45L383.19,27.14L383.44,283.42L383.47,280.09L383.48,280.82L383.5,282.98L383.51,261.95L383.95,24.93L384.16,286.04L384.27,175.15L384.28,233.74L384.46,287.39L384.97,31.04L385,107.11L385.01,108.22L385.13,27.56L385.21,291.5L385.78,224.98L385.79,250.98L385.88,277.8L386.2,29.3L386.57,126.5L386.58,133.29L386.83,293.04L387.11,34.49L387.31,103.4L387.32,80.72L387.59,40.07L387.69,286.38L387.88,276.59L387.89,283.43L388.24,285.28L388.4,33.92L388.57,219.06L388.58,219.98L388.75,287.31L389.22,32.12L389.33,143.19L389.34,182.24L389.73,30.06L389.86,285.42L390.08,196.66L390.09,109L390.4,28.62L390.71,288.05L390.81,283.53L390.82,234.3L391.02,32.06L391.46,287.4L391.54,260.4L391.55,285.87L391.6,286.23L392.09,24.52L392.25,196.41L392.26,257.35L392.33,282.26L392.41,31.26L392.93,140.57L392.94,117.03L393.05,286.86L393.48,33.48L393.66,34.52L393.67,31.89L393.93,288.77L394.09,160.79L394.1,118.7L394.53,65.82L394.75,287.68L394.81,215.48L394.82,213.66L395.11,34.37L395.23,283.52L395.54,215.4L395.55,187.79L395.63,34.33L395.92,280.75L396.3,175.38L396.31,168L396.44,285.38L396.71,30.27L397.06,180.95L397.07,137.71L397.45,250.07L397.79,45.16L397.8,48.23L398.06,40.29L398.25,282.91L398.58,198.68L398.59,168.26L398.8,284.61L399.19,34.62L399.39,37.61L399.4,53.26L399.62,285.07L400.13,83.05L400.15,36.76L400.19,28.66L400.23,111.25L400.24,179.17L400.37,285.43L400.49,36.53L400.96,206.24L400.97,148.56L401.29,37.37L401.43,282.69L401.71,109.57L401.72,149.44L401.8,31.14L402.03,277.83L402.4,37.58L402.41,35.03L402.47,34.56L402.48,38.98L402.49,73.99L402.73,286.87L403.11,31.65L403.26,158.01L403.28,178.05L403.38,283.6L403.72,34.35L404.03,217.5L404.04,181.18L404.25,34.83L404.45,281.85L404.79,169.11L404.8,174.39L404.91,35.9L405.15,207.72L405.54,154.75L405.56,182.13L405.75,284.5L405.96,33.91L406.3,216.09L406.31,138.55L406.59,282.87L406.72,34.26L407.06,129.7L407.07,160.79L407.32,63.03L407.46,261.26L407.81,189.2L407.82,145.06L408.19,282.8L408.3,39.22L408.61,39.92L408.62,34.59L408.63,32.01L408.73,188.62L408.74,215.09L409,282.01L409.18,36.71L409.39,196.06L409.41,207.38L409.55,287.1L409.71,128.33L409.72,89.02L409.91,45.05L410.17,248.35L410.46,113.52L410.47,102.5L410.71,286.36L411.1,38.17L411.18,144.15L411.19,172.8L411.48,30.44L411.8,274.26L411.97,240.83L411.98,225.54L412.01,184.25L412.03,227.49L412.07,192.94L412.08,170.94L412.11,258.96L412.39,56.88L412.82,202.87L412.83,190.48L413.02,34.33L413.4,283.47L413.41,282.17L413.42,282.35L414.11,31.97L414.16,116.68L414.17,158.8L414.36,283.04L414.81,51.55L414.87,78.64L414.88,71.41L415.02,270.68L415.33,33.88L415.41,130.44L415.43,144.75L415.6,283.57L416.08,60.44L416.13,135.74L416.15,175.58L416.33,64.4L416.78,282.39L416.91,183.76L416.92,181.44L416.95,221.13L417.25,34.53L417.32,34.63L417.33,32.4L417.6,244.56L418.18,153.95L418.2,142.11L418.42,262.39L418.62,99.54L418.93,138.18L418.94,185.01L419.55,280.98L419.66,122.85L419.67,94.64L419.88,32.22L420.08,241.68L420.25,103.43L420.26,71.52L420.4,31.66L420.54,285.03L420.99,80.58L421,111.75L421.11,38.02L421.73,281.23L421.78,242.73L421.79,252.54L421.82,281.32L422.22,93.02L422.24,96.8L422.25,81.31L422.38,32.03L422.7,270.12L422.93,196.23L422.94,206.25L423.11,104.34L423.29,210.75L423.69,188.93L423.7,188.22L424.25,257.69L424.37,64.81L424.46,163.02L424.47,183.52L424.84,43.21L425.06,267.56L425.15,127.2L425.16,117.24L425.44,277.54L425.8,31.84L425.86,159.17L425.87,227.15L426.09,286.98L426.39,31.31L426.48,36.47L426.5,33.18L426.56,22.55L426.57,57.73L426.58,121.43L426.99,27.57L427.23,289.41L427.34,81.97L427.35,80.12L427.4,36.11L427.59,278.69L428.12,189.86L428.13,53.11L428.36,294.6L428.6,29.03L428.72,41.07L428.73,26.62L429.03,290.01L429.48,40.63L429.49,35.75L429.59,26.6L429.69,169.67L429.7,190.18L429.71,190.49L429.72,259.49L429.85,288.09L430.26,27.79L430.48,209.89L430.49,232.26L430.79,290.6L431.05,28.59L431.26,84.69L431.27,175.42L431.35,285.28L431.96,28.97L432.03,142.59L432.04,202.28L432.27,290.66L432.61,27.96L432.79,140.24L432.8,140.54L432.92,286.79L433.15,23.27L433.32,178.45L433.33,234.16L433.44,287.65L433.8,31.08L434.08,204.18L434.09,220.94L434.13,282.07L434.47,34.29L434.73,169.33L434.74,163.48L435.06,286.2L435.37,27.54L435.5,270.36L435.52,288.1L436.06,36.63L436.25,147.36L436.26,211.09L436.52,269.01L436.86,35.77L437.01,165.63L437.02,172.03L437.28,284.02L437.52,28.61L437.69,183.85L437.7,204.11L437.88,287.13L438.18,34.7L438.45,181.28L438.46,191.14L438.96,48.2L439.1,256.95L439.2,200.3L439.21,171.79L439.27,275.9L439.34,140.72L439.35,101.05L439.43,52.71L439.67,236.33L440.12,138.87L440.13,83.54L440.16,37.86L440.5,282.5L440.86,106.3L440.87,146.09L440.96,31.96L441.11,281.03L441.58,61.12L441.59,56.16L441.6,52.26L441.7,254.62L441.97,167.02L441.98,203.6L442.04,283.91L442.56,36.47L442.69,166.47L442.7,120.96L442.76,51.64L443.23,289.04L443.41,205.96L443.42,188.56L443.51,30.64L443.87,250.8L444.19,117.17L444.2,122.08L444.55,285.64L444.93,32.74L444.99,34.84L445,34.15L445.07,30.99L445.12,42.89L445.13,85.37L445.42,272.06L445.73,111.25L445.75,81.27L446.27,273.98L446.49,33.81L446.5,32.36L446.86,279.97L447.26,146.25L447.27,108.67L447.49,33.08L447.85,279.57L447.94,214.27L447.95,227.02L448.31,30.91L448.62,285.65L448.69,206.35L448.7,228.36L448.91,32.05L449.32,282.02L449.38,276.96L449.39,279.7L449.43,283.26L449.48,226.17L449.49,181.02L449.73,31.96L449.91,191.91L449.92,198.98L450.06,283.41L450.47,31.7L450.66,186.2L450.68,196.22L450.84,282.87L451.06,31.49L451.42,216.81L451.43,226.51L451.96,52.54L452.18,284.77L452.19,282.92L452.2,263.92L452.43,50.03L452.81,281.71L452.97,151.74L452.98,134.63L453.38,263.54L453.72,47.29L453.75,58.46L453.76,72.38L453.82,49.36L454.17,284.65L454.59,141.63L454.6,114.16L454.79,257.88L455,57.58L455.32,178.08L455.33,186.18L455.63,284.3L455.8,29.3L456.08,162.1L456.1,181.53L456.37,280.36L456.71,40.4L456.82,198.68L456.83,227.49L456.85,245.25L457.39,42.85L457.5,95.46L457.51,96.63L457.52,93.36L457.71,271.74L457.72,269.52L457.73,275.74L457.87,77.84L458.31,213.43L458.32,225.03L458.43,284.81L458.53,150.55L458.54,132.47L458.65,36.83L458.92,282.36L459.3,95.9L459.31,113.38L459.64,286.43L459.91,33.36L460.05,130.51L460.07,131.46L460.33,284.06L460.65,34.13L460.81,151.74L460.82,154.13L461.06,87.38L461.41,280.62L461.49,151.03L461.51,132.37L461.84,51.4L462.09,262.67L462.26,149.14L462.27,131.69L462.43,84.11L462.78,251.25L463.05,168.8L463.06,153.71L463.35,42.82L463.57,278.56L463.87,93.05L463.88,106.04L464.14,259.05L464.64,168.2L464.65,170.53L464.82,35.25L465.1,279.13L465.42,142.46L465.43,134.11L465.62,55.22L465.76,283.97L465.99,101.27L466,71.07L466.06,35.3L466.59,271.14L466.67,193.9L466.69,185.27L466.94,249.1L467.5,34.78L467.51,35.91L467.53,35.97L467.55,32.69L467.57,77L467.58,88.38L468.11,229.27L468.28,55.73L468.33,106.74L468.34,118.15L468.51,285.6L468.8,34.71L469.04,129.45L469.05,149.7L469.33,258.7L469.57,93L469.72,164.93L469.73,140.19L469.88,50.57L470.01,250.82L470.34,127.44L470.35,167.18L470.71,257.77L470.92,28.8L471.06,30.21L471.07,33.26L471.08,28.85L471.3,256.59L471.31,283.23L471.41,286.03L471.55,239.23L471.58,248.19L471.59,209.83L471.72,288.57L471.94,83.02L471.99,121.91L472,68.98L472.29,285.12L472.55,24.02L472.74,106.23L472.75,91.41L473.28,29.25L473.43,280.07L473.46,278.52L473.47,280L473.81,289.76L473.92,31.97L474.15,196.04L474.16,217.28L474.19,284.21L474.29,31.53L474.88,190.6L474.89,210.47L475.23,35.17L475.48,291.54L475.57,250.96L475.59,123.85L475.73,282.89L476.16,28.59L476.34,109.68L476.35,55.84L476.65,294.41L476.92,30.11L477.01,235.64L477.03,254.83L477.04,289.41L477.5,29.14L477.73,134.57L477.74,90.01L477.96,282.55L478.28,28.82L478.44,33.33L478.45,34.17L478.79,283.41L478.96,107.73L478.97,52.94L479.57,288.85L479.65,26.84L479.72,85.04L479.73,30.54L480.04,29.7L480.25,286.05L480.43,55.62L480.44,56.25L480.49,34.15L480.66,285.13L481.17,60.37L481.18,32.47L481.49,25.85L481.63,287.68L481.94,151.26L481.95,88.49L482.02,31.36L482.51,283.08L482.72,36.08L482.73,35.89L483.02,32.98L483.3,285.1L483.45,88.7L483.46,44.19L483.55,30.33L483.7,183.13L483.87,121.94L483.89,185.89L484.1,285.63L484.22,34.54L484.6,36.11L484.62,33.9L484.88,286.56L485,31.88L485.36,162.2L485.37,93.06L485.66,285.23L485.79,31.02L485.98,207.51L485.99,252.58L486.43,284.76L486.52,33.62L486.68,100.64L486.69,71.62L486.81,285.63L487.06,63.71L487.24,73.85L487.26,43.32L487.31,28.72L487.6,225.68L487.9,139.23L487.91,168.27L487.94,286.6L488.19,35.16L488.65,233.72L488.66,196.88L488.69,284.67L489.03,33.31L489.39,205.08L489.4,139.41L489.7,64.53L489.96,283.44L490.13,225.36L490.15,237.44L490.44,37.19L490.57,242.36L490.89,191.94L490.9,229.73L490.95,276.08L491.21,45.49L491.53,172.3L491.54,160.44L491.73,248.25L492.28,33.45L492.37,83.04L492.38,112.26L492.69,34.59L492.85,284.98L493.14,177.71L493.16,187.93L493.2,250.87L493.52,66.97L493.79,68.64L493.8,36.72L493.9,32.28L493.93,106.02L493.94,143.21L494.14,282.34L494.6,47.17L494.61,37.93L494.63,34.09L494.89,207.43L494.9,217.67L494.99,283.87L495.4,34.09L495.6,125.23L495.61,112.85L495.99,280.02L496.13,31.64L496.29,187.68L496.3,184.41L496.56,285.41L496.94,33.41L497.06,120.22L497.07,127.4L497.15,81.5L497.39,283.98L497.69,99.4L497.7,64.26L497.91,33.53L498.26,281.16L498.41,119.04L498.42,146.25L498.48,54.29L498.99,284.22L499.05,279.26L499.06,279.89L499.09,281.19L499.12,266.49L499.13,235.4L499.48,30.15L499.83,283.76L499.87,261.35L499.88,242.51L500.05,34.6L500.44,272.85L500.6,162.32L500.62,163.94L500.83,259.19L500.95,94.05L500.96,57.49L501.02,33.6L501.42,221.92L501.61,164.79L501.62,162.23L501.78,36.26L502.01,281.31L502.35,166.67L502.36,194.4L502.74,282.62L502.97,33.04L503.05,34.1L503.06,35.12L503.1,46.76L503.11,75.08L503.16,58.67L503.52,283.9L503.92,227.62L503.93,225.65L503.96,256.16L504.4,76.58L504.45,85.42L504.47,72.63L504.89,32.21L505.1,286.16L505.21,99.38L505.22,76.56L505.39,32.64L505.67,278L505.68,282.14L505.85,286.53L505.86,249.31L505.87,192.1L506.11,31.13L506.28,292.08L506.64,286.21L506.65,273.18L507.04,290.92L507.39,32.37L507.49,46.43L507.5,44.53L507.69,34.52L507.93,231.08L507.94,294.01L508.25,29.22L508.53,263.39L508.54,287.91L508.8,289.8L509.17,28.36L509.36,200.87L509.37,262.77L509.5,290.03L509.93,25.2L510.12,194.79L510.13,199.06L510.3,284.57L510.75,29.27L510.86,202.37L510.87,240.33L511.26,287.81L511.5,32.47L511.64,103.06L511.65,112.62L511.73,52.8L511.76,191.93L511.77,268.92L511.83,282.1L512.27,39.46L512.29,38.68L512.32,34.52L512.42,247.67L512.48,135.5L512.49,250.57L512.57,283.74L512.97,25.32L513.26,88.53L513.27,177.39L513.32,289.14L513.61,26.07L514,68.94L514.01,120.13L514.49,288.04L514.58,19.06L514.75,76.26L514.76,94.92L514.87,295.76L515.49,28.32L515.5,44.92L515.51,42.25L515.52,39.46L515.56,214.36L515.57,238.9L515.88,23.89L516.18,297.79L516.32,181.95L516.33,171.49L516.4,291.02L516.58,27.25L517.02,152.15L517.03,41.54L517.16,288.18L517.43,29.12L517.54,201.26L517.55,266.25L517.71,290.35L518.05,18.99L518.31,125.37L518.32,141.65L518.37,37.97L518.57,292.31L519.07,78.1L519.08,62L519.36,28.19L519.52,281L519.7,269.02L519.71,284.93L520.03,292.01L520.39,27.29L520.45,120.78L520.47,209.5L520.67,287.71L521.09,23.06L521.15,37.62L521.16,32.34L521.47,21.98L521.83,288.42L521.84,252.99L521.85,87.08L521.97,285.87L522.25,28.48L522.57,218.79L522.58,249.4L522.6,283.9L523.16,30.05L523.3,219.5L523.31,157.85L523.5,269.39L523.72,33.23L524.04,158.66L524.05,214.63L524.22,287.77L524.72,31.76L524.81,113.2L524.82,152.19L525,285.86L525.17,30.05L525.53,154.28L525.54,102.65L525.78,283.31L525.94,32.65L526.26,148.3L526.27,189.73L526.4,68.59L526.88,268.35L527.01,180.79L527.02,164.17L527.47,36.56L527.62,268.71L527.72,119.41L527.73,112.66L527.9,44.78L528.08,282.89L528.48,143.68L528.49,133.48L528.97,34.58L529.08,247.57L529.17,45.63L529.18,36.77L529.21,38.63L529.23,32.76L529.24,60.72L529.39,282.79L529.74,34.84L529.96,63.02L529.98,50.97L530.67,252.18L530.72,38.71L530.73,34.88L530.83,223.19L530.94,93.21L530.95,48.73L531.42,286.74L531.62,30.36L531.68,44.9L531.69,73.71L531.72,35.74L531.82,284.85L532.43,89.81L532.44,105.23L532.48,36.97L532.96,282.71L533.16,54.91L533.17,32.03L533.31,29.94L533.73,284.32L533.93,100.94L533.95,58.39L533.96,49.36L534.39,272.9L534.48,234.97L534.49,268.74L534.86,35.08L535.01,284.92L535.12,188.01L535.13,252.48L535.16,284.75L535.35,32.52L535.8,222.14L535.81,160.91L535.93,280.36L536.26,32.26L536.51,242.6L536.52,253.45L536.61,44.88L537.08,285.52L537.27,190.32L537.28,200.68L537.76,28.59L537.98,226.91L538.05,144.45L538.06,163.04L538.13,56.95L538.18,237.22L538.19,252.45L538.21,268.4L538.53,44.81L538.84,161.91L538.85,127.06L538.91,31.99L539.02,253L539.58,121.42L539.6,132.83L539.67,36.28L539.81,267.34L540.33,168.82L540.34,179.29L540.57,270.9L540.84,36.15L541.06,221.15L541.07,225.18L541.23,64.95L541.71,236.56L541.72,249.14L541.75,280.58L541.91,138.32L541.97,140.44L541.98,107.63L542.38,53.81L542.7,200.85L542.73,148.36L542.74,118.22L542.89,285.66L543.12,57.13L543.4,128.46L543.41,101.36L543.65,283.17L544.07,45.99L544.15,108.6L544.16,131.04L544.36,282.47L544.7,32.93L544.94,210.28L544.95,181.9L545.15,251.16L545.75,32.44L545.76,40L545.77,36.78L545.84,249.54L545.86,253.09L545.89,284.38L546.14,35.95L546.51,158.67L546.52,100.56L546.89,33.16L547.18,285.31L547.28,185.97L547.3,159.49L547.36,287.24L547.82,31.43L547.89,283.25L547.91,277L548.1,288.57L548.3,167.8L548.31,102.61L548.59,29.09L548.71,286.89L549.01,250.07L549.02,256.14L549.38,29.44L549.48,285.33L549.77,202.9L549.78,236.3L549.89,27.76L550.36,286.55L550.5,192.48L550.51,232.22L550.83,29.64L550.96,284.31L551.25,186.75L551.27,209.88L551.41,29.4L551.77,285.75L552.02,243.11L552.03,278.46L552.05,286.51L552.12,204.61L552.13,178.65L552.36,32.47L552.78,278.34L552.79,275.6L552.8,280.71L552.84,176.74L552.85,133.22L553.18,30.84L553.54,284.43L553.56,282.42L553.68,60.31L554.26,147.62L554.28,178.11L554.43,31.99L554.55,285.1L554.8,147.98L554.81,81.78L555.04,25.56L555.39,295.62L555.52,245.05L555.53,269.22L555.54,287.35L555.95,27.87L556.24,248.2L556.25,193.71L556.47,27.14L556.83,298.47L557,230.78L557.01,186.36L557.05,286.63L557.22,21.31L557.75,268.1L557.77,211.94L557.81,291.05L557.83,22.29L558.41,248.02L558.42,100.54L558.66,27.07L559.1,290.8L559.17,176.8L559.18,98.73L559.32,289.11L559.8,28.83L559.94,189.83L559.95,245.86L559.96,288.65L560.32,23.59L560.68,217.42L560.69,134.89L560.83,286.89L561.23,25.4L561.36,281.02L561.38,279.07L561.55,286.64L561.83,30.26L562.08,249.31L562.1,288.2L562.12,294.21L562.2,28.32L562.69,239.41L562.71,280.22L562.73,277.28L562.74,153.49L562.93,287.98L562.97,24.27L563.5,32.98L563.51,38.61L563.57,29.51L563.63,293.9L563.98,204.56L563.99,249.2L564.1,28.91L564.4,286.66L564.68,201.53L564.69,124.64L564.79,27.36L565.15,284.24L565.42,250.46L565.43,217.17L565.47,28.8L565.9,285.95L566.17,190.77L566.19,229.27L566.37,30.99L566.73,287.36L567,76.87L567.01,124.96L567.16,33.51L567.46,285.45L567.61,243.51L567.62,241.11L567.8,288.15L567.95,35.75L568.43,107.09L568.44,145.23L568.84,29.25L569.01,288L569.25,254.55L569.26,215.61L569.32,290.51L569.44,26.8L569.99,165.59L570,163.48L570.41,27.92L570.46,290.34L570.74,122.88L570.75,193.5L570.83,289.43L571.11,34.2L571.49,209.61L571.5,168.12L571.59,274.19L571.68,25.79L572.27,255.22L572.28,248.15L572.35,286.84L572.57,22.97L573.02,254.86L573.03,265.68L573.11,289.66L573.58,28.69L573.81,210.3L573.82,224.26L574.29,288.54L574.34,29.43L574.53,40.89L574.54,51.57L575.04,284.28L575.28,33.71L575.29,44.39L575.52,286.67L575.71,32.15L576.07,279.71L576.08,282.33L576.27,288.8L576.45,27.69L576.66,261.99L576.67,276.11L577.04,288.01L577.23,31.21L577.41,283.06L577.42,284.23L577.55,178.72L577.66,292.13L577.67,229.24L577.68,83.85L578,33.13L578.16,283.33L578.39,220.38L578.4,248.51L578.51,30.57L579.14,286.54L579.16,284.13L579.17,286.3L579.57,26.83L579.83,156.78L579.84,207.6L579.86,190.13L579.88,248.31L579.89,274.96L580.01,63.27L580.09,286.67L580.16,88.15L580.17,31.06L580.47,287.3L580.91,115.59L580.92,64.37L581.2,289.32L581.37,29.3L581.4,207.4L581.41,259.95L581.85,29.95L581.99,284.51L582.11,223.31L582.12,115.66L582.59,32.55L582.66,283.73L582.78,239.07L582.8,253.83L583.32,28.45L583.47,286.54L583.58,148.89L583.59,225.58L583.6,284.86L584.07,31.96L584.3,37.95L584.31,33.8L584.32,34L584.33,61.2L584.44,27.31L584.75,285.53L585.11,282.73L585.12,282.78L585.16,283.89L585.65,29.13L585.74,155.97L585.75,218.86L586.27,287.38L586.37,28.42L586.5,265.06L586.51,254.56L586.65,287.61L587.13,23.9L587.22,249.87L587.23,277.71L587.39,288.37L587.81,17.73L587.93,123.78L587.94,153.91L588.05,295.77L588.4,25.74L588.71,28.26L588.72,96.54L588.87,286.33L589.36,33.64L589.44,41.11L589.45,35.9L589.49,27.23L589.57,86.05L589.58,34.78L589.59,98.42L589.78,288.04L590.32,25.38L590.35,238.76L590.36,272.63L590.56,281.65L590.6,157.09L590.62,117.77L590.71,25.32L591.24,288.39L591.34,277.48L591.35,271.82L591.67,24.1L592.03,285.93L592.11,205.59L592.12,169.74L592.26,25.5L592.59,294.24L592.85,43L592.86,36.4L592.99,30.7L593.45,291.22L593.65,179.62L593.66,82L593.95,25.96L594.25,285.71L594.41,43.53L594.42,38.31L594.53,29.58L594.57,141.3L594.62,119.09L594.63,217.46L595.09,291.62L595.25,26.09L595.35,29.12L595.36,39.2L595.37,22.87L595.57,285.32L596.08,77.7L596.09,81.16L596.48,290.42L596.79,28.29L596.84,38.12L596.85,38.71L596.89,36.9L596.9,73.45L596.91,172.61L597.34,286.53L597.62,28.34L597.64,34.08L597.65,37.21L598.13,286.39L598.29,30.06L598.33,41.09L598.34,40.04L598.4,28.63L598.5,178.58L598.51,251.65L598.62,287.56L598.76,119.71L598.94,184.47L598.95,88.86L599.14,31.04L599.58,284.05L599.63,279.39L599.65,284.35L600.06,27.44L600.14,232.1L600.15,255.62L600.43,288.35L600.85,29.2L600.89,238.6L600.9,264.43L600.95,284.64L601.42,33.23L601.64,283.3L601.65,285.22L601.74,287L601.78,27.96L602.26,145.76L602.27,200.4L602.39,288.02L602.55,34.3L602.7,71.76L602.71,32.63L603.43,288.33L603.46,86.26L603.47,79.76L603.81,33.11L604.18,286.42L604.24,282.91L604.25,276.93L604.28,281.73L604.38,120.57L604.39,44.2L604.59,30.19L604.64,224.25L604.83,186.74L604.84,269.68L604.88,287.22L605.25,26.9L605.28,37.73L605.3,35.51L605.32,32.65L605.38,239.42L605.39,285.96L605.67,286.01L605.99,30.66L606.12,114.09L606.14,252.71L606.23,287.06L606.77,32.25L606.82,36.07L606.83,34.25L606.86,34.02L606.89,142.69L606.9,240.91L607.16,286.63L607.35,32.6L607.6,38.25L607.61,34.12L608.11,27.62L608.24,287.07L608.34,96.38L608.35,53.64L608.67,35.65L608.99,287.86L609.06,148.18L609.07,112.98L609.39,31.84L609.59,286.22L609.83,37.44L609.84,38.07L609.9,28.68L610,167.76L610.01,225.08L610.08,284.29L610.57,31.64L610.76,251.2L610.77,250.59L610.85,284.34L611.36,31.77L611.51,220.16L611.52,255.01L611.57,284.95L612.06,51.52L612.07,36.56L612.11,34.33L612.19,69.02L612.2,111.74L612.58,283.17L612.84,29.08L612.95,128.03L612.96,138.08L613.32,284.6L613.57,32.31L613.65,148.83L613.66,178.72L613.88,285.04L613.93,90.59L614.11,141.45L614.12,87.09L614.14,65.57L614.15,48.02L614.2,31.26L614.6,280.98L615,151L615.01,96.4L615.07,34.01L615.22,284.97L615.72,284.17L615.73,279.4L615.74,281.87L615.78,111.21L615.79,79.02L615.85,32.85L616.47,283.79L616.49,279.26L616.5,281.29L616.52,169.87L616.53,118.65L616.64,31.09L616.85,284.9L617.26,187.54L617.27,183.26L617.34,32.81L617.89,287.82L618,234.82L618.01,239.65L618.03,227.01L618.05,217.87L618.22,31.8L618.69,276.93L618.72,269.66L618.73,262.69L618.94,30.69L619.3,279.54L619.51,86.34L619.52,84.03L619.87,284.95L620.02,49.43L620.15,78.64L620.16,70.4L620.6,285.94L620.78,30.17L620.91,84.71L620.92,89.03L620.94,89.31L620.95,110.54L621.09,239.17L621.1,255.06L621.35,287.4L621.47,115.23L621.48,75.13L621.57,31.09L622.13,284.57L622.21,138.92L622.22,133.19L622.29,33.54L622.49,280.61L622.85,137.77L622.87,193.42L623.03,33.91L623.26,286.14L623.55,68.49L623.56,56.26L624.1,287.14L624.25,29.62L624.31,47.62L624.32,62.33L624.44,285.82L624.6,33.05L625.05,67.88L625.06,61.05L625.07,59.39L625.17,164.18L625.18,255.62L625.41,283.55L625.72,28.58L625.85,50.8L625.86,49.1L625.95,285.47L626.26,30.66L626.62,152.22L626.63,141.99L626.88,28.77L626.94,289.19L627.4,41.45L627.41,37.09L627.46,34.96L627.49,239.23L627.5,263.99L627.58,33.29L627.66,290.89L628.24,217.13L628.25,274.42L628.34,28.96L628.53,282.23L628.71,97.83L628.72,26.5L629.03,286.98L629.14,24.81L629.47,36.62L629.49,36.45L629.66,27.7L629.76,285.88L630.22,214.63L630.23,169.43L630.3,232.79L630.65,27.26L630.81,201.19L630.82,244.1L630.88,282.76L630.97,152.7L630.98,87.72L630.99,87.3L631,141.12L631.22,29.84L631.51,282.43L631.71,142.7L631.72,83.07L632.07,284.13L632.16,43.48L632.46,109.46L632.47,102.61L632.74,31.62L632.83,262.66L633.2,77.42L633.22,127.73L633.38,290.38L633.67,90.54L633.71,157L633.72,85.05L633.94,27.81L634.12,291.59L634.23,93.99L634.24,28.6L634.6,284.4L634.99,80.13L635,29.95L635.45,26.81L635.59,288.05L635.75,147.94L635.76,34.9L635.92,283.25L636.06,26.22L636.5,71.84L636.51,43.91L636.56,287.08L637.2,27.42L637.22,52.59L637.23,103.14L637.39,288.82L637.79,26.69L637.98,70.49L637.99,119.43L638.11,286.19L638.53,30.3L638.76,270.48L638.77,284.74L639.02,19L639.51,257.84L639.52,299.01L639.77,30.7L640.26,272L640.27,288.74L640.4,290.67L640.63,28.04L641.01,233.46L641.02,296.33L641.35,36.29L641.77,226.28L641.78,285.05L641.98,24.22L642.54,96.66L642.55,130.06L642.9,291.26L643.14,29.09L643.3,237.82L643.32,245.45L643.59,28.47L643.71,286.68L644.05,58.9L644.06,149.91L644.21,284.86L644.48,31.23L644.77,102.44L644.78,70.52L644.99,288L645.4,31.69L645.5,180.03L645.51,171.65L645.52,172.26L645.53,59.75L645.54,33.66L646.12,282.19L646.22,159.06L646.23,253.72L646.26,304L646.65,27.9L646.91,30.09L646.93,49.4L647,282.48L647.1,25.63L647.35,275.65L647.36,289.48L647.67,32.67L647.75,290.49L648.09,142.32L648.1,217.75L648.12,289.34L648.52,31.72L648.84,198.67L648.86,248.74L649.1,293.59L649.39,54.68L649.58,137.2L649.59,163.05L649.62,234.58L649.63,136.17L649.84,288.59L650.01,26.35L650.34,228.42L650.35,257L650.66,288.22L650.83,41.54L651.06,168.81L651.07,162.95L651.18,291.57L651.51,22.15L651.82,190.79L651.83,230.02L652.21,27.92L652.54,285.73L652.57,263.54L652.59,275.27L652.67,290.02L652.73,70.65L652.74,34.21L652.8,30.62L652.88,111.8L652.89,168.95L653.05,282.56L653.46,31.52L653.61,32.16L653.62,41.01L653.77,290.74L654.29,32.63L654.36,37.54L654.37,36.75L654.51,24.23L654.55,280.95L654.73,56.48L654.75,47.7L655.04,29.34L655.34,289.31L655.49,94.55L655.5,63.42L655.79,29.73L655.99,292.97L656.27,171L656.28,190.02L656.44,281.69L656.95,29.78L657.01,162.22L657.02,229.32L657.16,288.04L657.61,30.16L657.67,32.4L657.68,35.95L657.69,32.11L657.79,278.29L657.84,258.63L657.85,265.61L657.9,286.13L658.06,33.83L658.42,60.45L658.43,32.81L658.5,31.09L658.53,190.4L658.54,275.22L658.82,29.53L659.04,286.9L659.28,225.53L659.29,284.14L659.63,31.67L660.03,194.51L660.05,218.17L660.12,284.71L660.46,29.38L660.84,84.97L660.85,134.94L660.94,287.44L661.21,31.05L661.59,144.09L661.61,164.58L661.88,31.73L662.38,289.04L662.39,245.83L662.72,32.06L662.88,282.68L663.15,145.45L663.16,137.74L663.34,282.11L663.7,32.67L663.9,176.37L663.91,110.73L664.14,286.39L664.36,29.26L664.71,283.03L664.72,265.65L664.88,285.33L665.19,29.18L665.46,220.19L665.47,274.28L665.48,284.01L665.55,27.88L666.02,172.66L666.03,84.76L666.04,25.64L666.23,281.92L666.77,86.79L666.79,36.14L666.81,81.43L666.82,133.77L667.2,30.31L667.43,281.55L667.54,118.45L667.55,48.65L667.58,35.43L667.9,289.9L668.15,191.04L668.16,245.54L668.21,290.55L668.33,34.38L668.87,144.91L668.88,130.82L669.03,288.4L669.19,35.4L669.6,70.89L669.61,86.26L669.77,285.97L670.01,29L670.37,193.35L670.38,119.55L670.45,286.09L671.05,29.32L671.1,147.83L671.12,205.77L671.25,284.83L671.36,32.8L671.84,131.44L671.85,173.57L672.02,288.01L672.2,33.6L672.52,197.43L672.53,89.26L672.68,30.88L672.8,285.34L673.26,175.99L673.28,170.54L673.37,30.15L673.52,288.47L674.04,101.77L674.05,110.04L674.28,286.46L674.77,30.05L674.78,35.42L674.81,31.43L674.85,239.3L675.03,131.04L675.04,236.46L675.09,291.04L675.58,29.98L675.74,34.05L675.75,35.11L675.78,38.33L675.81,34.85L675.82,117.83L676.09,288.09L676.45,33.36L676.57,257.6L676.58,233.47L677.1,287.75L677.23,33.26L677.32,283.25L677.33,285.61L677.35,265.89L677.37,126.51L677.44,33.22L677.89,286.47L678.1,244.89L678.11,255.94L678.3,283.45L678.54,33.08L678.68,229.34L678.7,259.28L678.8,31.76L679.22,285.69L679.46,94.56L679.47,103.53L679.84,38.76L680.03,283.58L680.17,168.59L680.18,117.7L680.26,32.32L680.35,285.33L680.84,191.21L680.86,253.53L680.89,282.6L681.07,32.64L681.61,281.56L681.62,255.67L681.64,285.06L681.75,100.56L681.76,45.84L681.9,287.55L682.02,31.61L682.38,226.37L682.39,283.86L682.91,33.3L683.15,164.64L683.16,219.68L683.22,287.2L683.33,183.61L683.34,168.65L683.49,281.79L683.69,30.92L684,182.88L684.01,259.78L684.09,285.29L684.48,30.97L684.69,122.5L684.71,91.76L685.01,287.27L685.34,31.17L685.42,174.77L685.44,214.05L685.76,284.82L685.88,29.29L686.14,67.94L686.16,82.08L686.58,285.67L686.83,28.72L686.89,34.18L686.9,31.86L687.01,284.17L687.09,65.02L687.1,40.59L687.16,35.07L687.24,175.69L687.25,259.6L687.26,284.67L687.67,33.42L687.91,35.66L687.92,40.62L687.93,37.34L688.04,213.35L688.05,252.48L688.08,286.39L688.26,33.27L688.75,98.29L688.76,125.21L689.29,34.8L689.41,273.2L689.51,209.74L689.53,162.04L689.97,283.31L690.13,50.71L690.28,153.16L690.29,159.34L690.57,282.38L690.88,34.53L691.04,187.43L691.05,154.73L691.22,31.82L691.37,284.78L691.57,260.17L691.58,287.91L692,33.18L692.33,183.08L692.34,223.34L692.79,31.25L692.95,265.53L693,165.5L693.02,135.7L693.05,181.88L693.11,95.77L693.16,169.24L693.17,213.43L693.52,32.58L693.75,284.65L693.86,159.8L693.87,125.48L693.9,31.81L694.5,267.29L694.6,144.26L694.61,166.24L694.87,281.1L694.99,31.71L695.36,200.01L695.37,153.75L695.61,285.01L695.76,38.02L695.93,88.14L695.94,48.16L696.32,32.74L696.67,281.92L696.7,163.83L696.71,116.25L696.73,32.73L697.42,259.04L697.43,281.81L697.45,284L697.47,266.57L697.64,33.06L697.85,283.7L698,137.55" style="vector-effect: non-scaling-stroke; fill: none; stroke: rgb(23, 190, 207); stroke-opacity: 1; stroke-width: 2px; opacity: 1;"/></g><g class="points"/><g class="text"/></g></g></g><g class="overplot"/><path class="xlines-above crisp" d="" style="fill: none; stroke-width: 1px; stroke: rgb(0, 0, 0); stroke-opacity: 0;"/><path class="ylines-above crisp" d="" style="fill: none; stroke-width: 1px; stroke: rgb(0, 0, 0); stroke-opacity: 0;"/><g class="overlines-above"/><g class="xaxislayer-above"><path class="xtick ticks crisp" d="M0,421v5" transform="translate(80,0)" style="stroke: rgb(51, 51, 51); stroke-opacity: 1; stroke-width: 1px;"/><path class="xtick ticks crisp" d="M0,421v5" transform="translate(167.25,0)" style="stroke: rgb(51, 51, 51); stroke-opacity: 1; stroke-width: 1px;"/><path class="xtick ticks crisp" d="M0,421v5" transform="translate(254.5,0)" style="stroke: rgb(51, 51, 51); stroke-opacity: 1; stroke-width: 1px;"/><path class="xtick ticks crisp" d="M0,421v5" transform="translate(341.75,0)" style="stroke: rgb(51, 51, 51); stroke-opacity: 1; stroke-width: 1px;"/><path class="xtick ticks crisp" d="M0,421v5" transform="translate(429.01,0)" style="stroke: rgb(51, 51, 51); stroke-opacity: 1; stroke-width: 1px;"/><path class="xtick ticks crisp" d="M0,421v5" transform="translate(516.26,0)" style="stroke: rgb(51, 51, 51); stroke-opacity: 1; stroke-width: 1px;"/><path class="xtick ticks crisp" d="M0,421v5" transform="translate(603.51,0)" style="stroke: rgb(51, 51, 51); stroke-opacity: 1; stroke-width: 1px;"/><path class="xtick ticks crisp" d="M0,421v5" transform="translate(690.76,0)" style="stroke: rgb(51, 51, 51); stroke-opacity: 1; stroke-width: 1px;"/><path class="xtick ticks crisp" d="M0,421v5" transform="translate(778.01,0)" style="stroke: rgb(51, 51, 51); stroke-opacity: 1; stroke-width: 1px;"/><g class="xtick"><text text-anchor="middle" x="0" y="444" transform="translate(80,0)" style="font-family: 'Open Sans', verdana, arial, sans-serif; font-size: 15px; fill: rgb(51, 51, 51); fill-opacity: 1; white-space: pre;">0</text></g><g class="xtick"><text text-anchor="middle" x="0" y="444" transform="translate(167.25,0)" style="font-family: 'Open Sans', verdana, arial, sans-serif; font-size: 15px; fill: rgb(51, 51, 51); fill-opacity: 1; white-space: pre;">500</text></g><g class="xtick"><text text-anchor="middle" x="0" y="444" transform="translate(254.5,0)" style="font-family: 'Open Sans', verdana, arial, sans-serif; font-size: 15px; fill: rgb(51, 51, 51); fill-opacity: 1; white-space: pre;">1000</text></g><g class="xtick"><text text-anchor="middle" x="0" y="444" transform="translate(341.75,0)" style="font-family: 'Open Sans', verdana, arial, sans-serif; font-size: 15px; fill: rgb(51, 51, 51); fill-opacity: 1; white-space: pre;">1500</text></g><g class="xtick"><text text-anchor="middle" x="0" y="444" transform="translate(429.01,0)" style="font-family: 'Open Sans', verdana, arial, sans-serif; font-size: 15px; fill: rgb(51, 51, 51); fill-opacity: 1; white-space: pre;">2000</text></g><g class="xtick"><text text-anchor="middle" x="0" y="444" transform="translate(516.26,0)" style="font-family: 'Open Sans', verdana, arial, sans-serif; font-size: 15px; fill: rgb(51, 51, 51); fill-opacity: 1; white-space: pre;">2500</text></g><g class="xtick"><text text-anchor="middle" x="0" y="444" transform="translate(603.51,0)" style="font-family: 'Open Sans', verdana, arial, sans-serif; font-size: 15px; fill: rgb(51, 51, 51); fill-opacity: 1; white-space: pre;">3000</text></g><g class="xtick"><text text-anchor="middle" x="0" y="444" transform="translate(690.76,0)" style="font-family: 'Open Sans', verdana, arial, sans-serif; font-size: 15px; fill: rgb(51, 51, 51); fill-opacity: 1; white-space: pre;">3500</text></g><g class="xtick"><text text-anchor="middle" x="0" y="444" transform="translate(778.01,0)" style="font-family: 'Open Sans', verdana, arial, sans-serif; font-size: 15px; fill: rgb(51, 51, 51); fill-opacity: 1; white-space: pre;">4000</text></g></g><g class="yaxislayer-above"><path class="ytick ticks crisp" d="M79,0h-5" transform="translate(0,375.2)" style="stroke: rgb(51, 51, 51); stroke-opacity: 1; stroke-width: 1px;"/><path class="ytick ticks crisp" d="M79,0h-5" transform="translate(0,317.59000000000003)" style="stroke: rgb(51, 51, 51); stroke-opacity: 1; stroke-width: 1px;"/><path class="ytick ticks crisp" d="M79,0h-5" transform="translate(0,259.98)" style="stroke: rgb(51, 51, 51); stroke-opacity: 1; stroke-width: 1px;"/><path class="ytick ticks crisp" d="M79,0h-5" transform="translate(0,202.38)" style="stroke: rgb(51, 51, 51); stroke-opacity: 1; stroke-width: 1px;"/><path class="ytick ticks crisp" d="M79,0h-5" transform="translate(0,144.77)" style="stroke: rgb(51, 51, 51); stroke-opacity: 1; stroke-width: 1px;"/><g class="ytick"><text text-anchor="end" x="71" y="5.25" transform="translate(0,375.2)" style="font-family: 'Open Sans', verdana, arial, sans-serif; font-size: 15px; fill: rgb(51, 51, 51); fill-opacity: 1; white-space: pre;">0.4</text></g><g class="ytick"><text text-anchor="end" x="71" y="5.25" transform="translate(0,317.59000000000003)" style="font-family: 'Open Sans', verdana, arial, sans-serif; font-size: 15px; fill: rgb(51, 51, 51); fill-opacity: 1; white-space: pre;">0.2</text></g><g class="ytick"><text text-anchor="end" x="71" y="5.25" transform="translate(0,259.98)" style="font-family: 'Open Sans', verdana, arial, sans-serif; font-size: 15px; fill: rgb(51, 51, 51); fill-opacity: 1; white-space: pre;">0</text></g><g class="ytick"><text text-anchor="end" x="71" y="5.25" transform="translate(0,202.38)" style="font-family: 'Open Sans', verdana, arial, sans-serif; font-size: 15px; fill: rgb(51, 51, 51); fill-opacity: 1; white-space: pre;">0.2</text></g><g class="ytick"><text text-anchor="end" x="71" y="5.25" transform="translate(0,144.77)" style="font-family: 'Open Sans', verdana, arial, sans-serif; font-size: 15px; fill: rgb(51, 51, 51); fill-opacity: 1; white-space: pre;">0.4</text></g></g><g class="overaxes-above"/></g></g><g class="polarlayer"/><g class="ternarylayer"/><g class="geolayer"/><g class="pielayer"/><g class="sunburstlayer"/><g class="glimages"/><defs id="topdefs-0ba296"><g class="clips"/><clipPath id="legend0ba296"><rect width="176" height="33" x="0" y="0"/></clipPath></defs><g class="layer-above"><g class="imagelayer"/><g class="shapelayer"/></g><g class="infolayer"><g class="legend" pointer-events="all" transform="translate(791.96, 100)"><rect class="bg" shape-rendering="crispEdges" width="176" height="33" x="0" y="0" style="stroke: rgb(68, 68, 68); stroke-opacity: 1; fill: rgb(255, 255, 255); fill-opacity: 1; stroke-width: 0px;"/><g class="scrollbox" transform="translate(0, 0)" clip-path="url('#legend0ba296')"><g class="groups" transform="translate(0, 0)"><g class="traces" transform="translate(0, 16.25)" style="opacity: 1;"><text class="legendtext user-select-none" text-anchor="start" x="40" y="5.85" style="font-family: 'Open Sans', verdana, arial, sans-serif; font-size: 15px; fill: rgb(51, 51, 51); fill-opacity: 1; white-space: pre;">class=street_music</text><g class="layers" style="opacity: 1;"><g class="legendfill"/><g class="legendlines"><path class="js-line" d="M5,0h30" style="fill: none; stroke: rgb(23, 190, 207); stroke-opacity: 1; stroke-width: 2px;"/></g><g class="legendsymbols"><g class="legendpoints"/></g></g><rect class="legendtoggle" pointer-events="all" x="0" y="-11.25" width="216" height="22.5" style="cursor: pointer; fill: rgb(0, 0, 0); fill-opacity: 0;"/></g></g></g><rect class="scrollbar" rx="20" ry="3" width="0" height="0" x="0" y="0" style="fill: rgb(128, 139, 164); fill-opacity: 1;"/></g><g class="g-gtitle"><text class="gtitle" x="490" y="50" text-anchor="middle" dy="0em" style="font-family: 'Open Sans', verdana, arial, sans-serif; font-size: 21px; fill: rgb(51, 51, 51); opacity: 1; font-weight: normal; white-space: pre;">time vs amplitude</text></g><g class="g-xtitle"><text class="xtitle" x="429" y="484" text-anchor="middle" style="font-family: 'Open Sans', verdana, arial, sans-serif; font-size: 18px; fill: rgb(51, 51, 51); opacity: 1; font-weight: normal; white-space: pre;">time(ms)</text></g><g class="g-ytitle"><text class="ytitle" transform="rotate(-90,34,260)" x="34" y="260" text-anchor="middle" style="font-family: 'Open Sans', verdana, arial, sans-serif; font-size: 18px; fill: rgb(51, 51, 51); opacity: 1; font-weight: normal; white-space: pre;">amplitude</text></g></g></svg>