<svg class="main-svg" xmlns="http://www.w3.org/2000/svg" xmlns:xlink="http://www.w3.org/1999/xlink" width="980" height="500" viewBox="0 0 980 500"><rect x="0" y="0" width="980" height="500" style="fill: rgb(255, 255, 255); fill-opacity: 1;"/><defs id="defs-7a587d"><g class="clips"><clipPath id="clip7a587dxyplot" class="plotclip"><rect width="681" height="320"/></clipPath><clipPath class="axesclip" id="clip7a587dx"><rect x="80" y="0" width="681" height="500"/></clipPath><clipPath class="axesclip" id="clip7a587dy"><rect x="0" y="100" width="980" height="320"/></clipPath><clipPath class="axesclip" id="clip7a587dxy"><rect x="80" y="100" width="681" height="320"/></clipPath></g><g class="gradients"/></defs><g class="bglayer"><rect class="bg" x="80" y="100" width="681" height="320" style="fill: rgb(237, 237, 237); fill-opacity: 1; stroke-width: 0;"/></g><g class="layer-below"><g class="imagelayer"/><g class="shapelayer"/></g><g class="cartesianlayer"><g class="subplot xy"><g class="layer-subplot"><g class="shapelayer"/><g class="imagelayer"/></g><g class="gridlayer"><g class="x"><path class="xgrid crisp" transform="translate(165.13,0)" d="M0,100v320" style="stroke: rgb(255, 255, 255); stroke-opacity: 1; stroke-width: 1px;"/><path class="xgrid crisp" transform="translate(250.25,0)" d="M0,100v320" style="stroke: rgb(255, 255, 255); stroke-opacity: 1; stroke-width: 1px;"/><path class="xgrid crisp" transform="translate(335.38,0)" d="M0,100v320" style="stroke: rgb(255, 255, 255); stroke-opacity: 1; stroke-width: 1px;"/><path class="xgrid crisp" transform="translate(420.51,0)" d="M0,100v320" style="stroke: rgb(255, 255, 255); stroke-opacity: 1; stroke-width: 1px;"/><path class="xgrid crisp" transform="translate(505.63,0)" d="M0,100v320" style="stroke: rgb(255, 255, 255); stroke-opacity: 1; stroke-width: 1px;"/><path class="xgrid crisp" transform="translate(590.76,0)" d="M0,100v320" style="stroke: rgb(255, 255, 255); stroke-opacity: 1; stroke-width: 1px;"/><path class="xgrid crisp" transform="translate(675.88,0)" d="M0,100v320" style="stroke: rgb(255, 255, 255); stroke-opacity: 1; stroke-width: 1px;"/></g><g class="y"><path class="ygrid crisp" transform="translate(0,375.2)" d="M80,0h681" style="stroke: rgb(255, 255, 255); stroke-opacity: 1; stroke-width: 1px;"/><path class="ygrid crisp" transform="translate(0,317.59000000000003)" d="M80,0h681" style="stroke: rgb(255, 255, 255); stroke-opacity: 1; stroke-width: 1px;"/><path class="ygrid crisp" transform="translate(0,202.38)" d="M80,0h681" style="stroke: rgb(255, 255, 255); stroke-opacity: 1; stroke-width: 1px;"/><path class="ygrid crisp" transform="translate(0,144.77)" d="M80,0h681" style="stroke: rgb(255, 255, 255); stroke-opacity: 1; stroke-width: 1px;"/></g></g><g class="zerolinelayer"><path class="xzl zl crisp" transform="translate(80,0)" d="M0,100v320" style="stroke: rgb(255, 255, 255); stroke-opacity: 1; stroke-width: 1px;"/><path class="yzl zl crisp" transform="translate(0,259.98)" d="M80,0h681" style="stroke: rgb(255, 255, 255); stroke-opacity: 1; stroke-width: 1px;"/></g><path class="xlines-below"/><path class="ylines-below"/><g class="overlines-below"/><g class="xaxislayer-below"/><g class="yaxislayer-below"/><g class="overaxes-below"/><g class="plot" transform="translate(80, 100)" clip-path="url('#clip7a587dxyplot')"><g class="scatterlayer mlayer"><g class="trace scatter trace3e7883ba-e4ed-4063-95da-7117d294b8d2" style="stroke-miterlimit: 2; opacity: 1;"><g class="fills"/><g class="errorbars"/><g class="lines"><path class="js-line" d="M0,194.76L0.16,284.41L0.38,26.07L0.66,95.23L0.67,214.49L0.8,286.01L1.04,29.42L1.4,77.65L1.42,36.43L1.43,31.58L1.66,254.22L1.75,212.45L1.76,238.8L2.01,31.33L2.14,286.23L2.51,102.84L2.52,134.64L2.66,31.12L2.84,288.3L3.27,137.08L3.28,84.86L3.34,30.75L3.78,271.54L3.98,193.4L3.99,237.23L4.12,84.44L4.56,280.77L4.7,113.11L4.71,103.76L5.17,279.96L5.41,31.71L5.48,71.13L5.49,95.9L6.13,256.07L6.21,34.95L6.22,37.4L6.24,34.67L6.3,98.96L6.31,139.7L6.48,29.46L6.92,285.86L7.09,232.9L7.1,247.33L7.32,32.56L7.63,282.05L7.64,283.72L7.79,227.15L7.81,261.13L7.82,280.35L7.85,282.87L8.2,34.76L8.42,170.82L8.43,198.42L8.54,88.57L8.85,282.83L9.15,140.6L9.16,127.55L9.3,32.18L9.63,277.68L9.83,240.24L9.84,229.32L10.1,33.51L10.53,280.67L10.57,241.15L10.58,254.43L10.8,282.1L11.07,32.24L11.38,94.91L11.39,127.13L11.6,283.39L11.88,37.45L12.13,139.73L12.14,106.53L12.32,268.67L12.69,77.29L12.84,218.19L12.85,247.94L13.01,255.24L13.19,33.09L13.58,250.36L13.59,267.3L13.6,277.1L13.93,80.46L14.18,134.74L14.19,100.88L14.26,33.68L14.44,285.32L14.93,119.7L14.94,111.46L14.99,32.89L15.57,283.91L15.68,118.06L15.7,155.06L15.88,34.44L16.38,283.56L16.44,142.65L16.45,135.05L16.7,285.65L17,33.75L17.24,68.53L17.25,98.98L17.47,283.77L17.99,35.99L18,38.43L18.09,102.4L18.12,31.98L18.21,83.62L18.22,106.14L18.27,284.42L18.93,33.55L18.94,33.35L19,32.44L19.13,156.83L19.14,187.42L19.34,284.82L19.65,33.22L19.67,34.96L19.69,35.85L19.72,34.6L19.75,70.87L19.76,93.81L20.09,68.18L20.33,281.44L20.53,180.11L20.54,193.94L21.04,34.24L21.35,282.6L21.36,281.7L21.37,282.05L21.4,282.61L21.49,241.95L21.54,242.37L21.55,216.81L21.65,52.75L22.23,231.87L22.24,248.6L22.26,282.99L22.92,68.8L22.93,62.14L23.02,33.57L23.25,281.19L23.57,252.23L23.58,255.67L23.65,280.64L23.85,31.05L24.15,149.06L24.17,194.5L24.44,283.33L24.8,29.72L24.88,125.26L24.89,37.52L24.92,35.24L25.24,261.74L25.65,152.06L25.67,123.2L25.97,293.66L26.07,21.99L26.39,57.11L26.4,50.14L26.53,287.31L26.73,29.61L26.81,40.71L26.83,37.55L26.99,25.21L27,72.62L27.01,149.72L27.36,290.52L27.49,30.93L27.71,87.91L27.72,61.3L27.96,291.27L28.32,28.98L28.46,35.54L28.47,36.83L28.51,29.18L28.53,112.73L28.56,62.35L28.57,137.23L28.7,286.21L29.01,30.87L29.32,153.52L29.33,166.32L29.45,285.6L29.65,47.5L29.87,185.28L29.88,69.44L30.07,25.78L30.24,287.65L30.61,38.71L30.62,39.2L30.73,32.62L30.83,131.48L30.84,226.19L30.86,200.09L30.98,287.03L31.07,246.4L31.08,107.73L31.11,29.59L31.45,289.32L31.81,148.12L31.82,173.02L31.88,27.31L32.07,290.71L32.58,80.18L32.59,75.96L33,287.17L33.31,27.97L33.35,157.93L33.36,123.79L33.88,34.25L33.92,282.22L34.14,250.57L34.15,216.22L34.17,177.8L34.19,243.54L34.21,196.71L34.22,78.1L34.71,292.56L34.84,29.46L34.93,235.29L34.94,265.94L35.2,296.54L35.65,24.97L35.7,95.66L35.71,119.66L36.26,291.65L36.35,16.92L36.39,38.6L36.4,34.76L36.49,32.27L36.8,288.02L37.13,146.94L37.14,97.62L37.15,24.6L37.84,276.96L37.86,263.71L37.87,266.68L38.16,24.35L38.38,290.55L38.5,52.08L38.51,47.65L38.54,26.36L39.17,285.48L39.29,155.8L39.3,135.13L39.45,277.26L39.53,30.9L39.57,48.46L39.58,35.35L39.62,27.23L39.75,150.47L39.76,197.98L39.96,291.72L40.58,30.46L40.61,34.65L40.62,37.12L40.63,33.44L40.73,261.07L40.74,275.76L40.99,290.2L41.12,96.07L41.13,79.32L41.28,29.51L41.54,279.12L41.77,267.49L41.78,288.69L42.17,29.96L42.55,208.69L42.56,261.43L42.7,32.55L43.05,285.39L43.27,174.84L43.28,146.42L43.49,28.6L43.94,288.9L44.02,159.06L44.03,199.33L44.15,286.57L44.28,28.28L44.76,151.72L44.77,159.85L44.88,285.65L45.14,28.73L45.52,180.88L45.53,160.51L45.67,286.11L45.85,41.51L45.9,78.12L45.92,34.67L45.97,78.18L46.01,30.21L46.02,75.15L46.03,133.09L46.32,33.49L46.51,281.37L46.77,155.72L46.78,79.95L47.26,282.55L47.45,32.61L47.5,115.79L47.51,166.12L47.79,279.93L47.96,55.12L48.2,75.16L48.21,38.14L48.23,39.59L48.25,61.28L48.58,283.89L48.7,55.59L49,99.02L49.01,83.75L49.11,281.97L49.25,62.72L49.76,131.76L49.77,124.1L49.79,43.29L50.39,284L50.5,178.43L50.51,189.03L50.72,208.02L51.08,50.37L51.24,167.26L51.25,142.61L51.31,64.74L51.37,146.58L51.38,166.81L51.51,283.25L51.85,29.6L52.1,133.51L52.11,100.98L52.43,45.8L52.55,282.93L52.8,251.12L52.81,236.99L53.03,281.46L53.23,34.51L53.54,263.28L53.56,247.61L53.6,283.34L53.96,35.16L53.97,35.53L53.98,34.48L54.12,95.1L54.13,81.17L54.14,100.34L54.25,88.57L54.36,283.77L54.9,179.7L54.91,181.56L55.14,236.49L55.26,33.1L55.64,147.53L55.65,149.62L55.75,274.9L56.03,74.6L56.26,208.91L56.27,226.07L56.32,241.39L56.62,32.32L57.03,156.75L57.05,209.63L57.51,264.32L57.62,38.51L57.77,194.42L57.78,168.08L57.9,264.9L58,38L58.48,185.79L58.49,215.5L58.72,282.2L58.97,36.17L59.16,109.89L59.17,49.3L59.24,30.78L59.49,284.86L59.8,188.52L59.81,231.32L59.84,283.1L59.99,35.2L60.49,165.73L60.5,137.15L60.7,286.32L60.78,36.79L61.26,100.69L61.27,118.92L61.45,283.93L61.71,32.56L62.01,130.5L62.03,132.56L62.12,113.29L62.18,259.23L62.2,281.25L62.27,283.43L62.29,225.92L62.3,189.5L62.55,32.84L62.66,241.16L63.04,218.34L63.05,249.46L63.06,263.15L63.59,33.54L63.67,75.88L63.69,76.11L63.8,282.2L64.07,28.76L64.24,242.9L64.25,284.45L64.54,63.83L64.62,285.72L64.79,254.15L64.8,273.57L64.81,277.63L65.09,118.45L65.21,165.05L65.22,109.57L65.32,30.6L65.48,280.02L65.96,151.05L65.97,197.29L66.09,47.15L66.73,286.26L66.74,278.14L66.77,284.61L66.9,68.36L67.1,108.83L67.11,97.25L67.27,31.12L67.55,286.74L67.73,142.57L67.74,202.66L67.81,285.82L68.13,30.67L68.44,147.18L68.45,94.26L68.64,282.77L68.92,30.33L69.18,150.38L69.19,124.57L69.41,285.24L69.68,28.71L69.95,205.78L69.96,170.37L70.21,283.31L70.31,34.24L70.65,221.95L70.67,268.22L71.01,287.69L71.12,26.07L71.23,36.29L71.24,35.89L71.3,33.28L71.83,285.6L72.05,162.97L72.06,95.47L72.09,27.43L72.43,285.73L72.81,65.6L72.83,82.08L72.94,26.77L73.3,286.48L73.44,99.88L73.45,47.93L73.57,252.65L73.67,31.92L74.1,166.81L74.11,181.32L74.13,166.67L74.16,238.44L74.17,213.94L74.18,159.48L74.38,284.24L74.69,26.49L74.91,204.22L74.92,229.7L74.98,234.05L75.02,52.42L75.03,37.3L75.11,283.21L75.73,125.43L75.74,35.18L75.86,29.63L75.91,286.62L76.52,183.85L76.53,97.92L76.54,25L76.71,290.73L77.27,156.89L77.28,155.59L77.81,26.14L77.97,287.59L78,273.67L78.01,284.41L78.05,286.79L78.12,24.54L78.66,140.93L78.67,217.41L78.87,26.8L79.1,290.48L79.39,77.11L79.4,42.31L79.5,292.96L79.8,28.87L80.13,32.52L80.14,36.85L80.2,29.2L80.3,256.22L80.32,229.3L80.33,275.77L80.37,283.54L80.47,34.63L80.48,36.85L80.49,35.12L80.88,25.03L81.11,287.96L81.23,216.57L81.24,91.63L81.67,26.86L81.93,286.49L81.98,118.92L81.99,196.95L82.25,286.68L82.43,30.29L82.74,237.94L82.75,158.88L83.3,28.12L83.42,288.67L83.49,178.7L83.5,198.38L83.68,34.86L83.82,287.52L83.95,224.36L83.96,270.77L84.07,30.51L84.19,284.08L84.51,77.54L84.52,48.19L84.53,29.3L84.97,284.98L85.21,150.89L85.22,170.63L85.61,35.79L85.74,282.59L85.86,174.11L85.87,232.48L85.94,285.8L86.22,34.42L86.38,92.25L86.39,49.46L86.42,32.48L86.75,286.08L87.09,71.95L87.11,118.54L87.18,55.5L87.28,283.16L87.87,159.68L87.88,146L87.92,177.09L87.95,100.42L87.96,67.62L88.31,281.22L88.61,32.62L88.73,127.78L88.74,99.91L89.1,283.63L89.33,34.16L89.34,37.83L89.35,33.56L89.47,29.28L89.66,223.17L89.67,244.91L89.7,279.37L89.73,230.06L89.74,244.03L89.76,212.73L89.81,283.19L90.32,32.32L90.37,135.95L90.38,202.91L90.7,250.67L91.04,36.39L91.05,39.19L91.06,35.11L91.24,285.48L91.81,98.4L91.82,48.27L91.84,30.6L92.2,283.06L92.56,56.25L92.57,141.3L92.63,41.69L92.78,281.25L93.28,117.95L93.29,54.54L93.47,32.18L93.84,284.6L93.93,250.14L93.94,279.36L93.96,283.53L93.97,245.01L93.98,171.8L94.17,35.2L94.35,256.74L94.62,151.69L94.63,188.45L94.86,285.78L94.95,85.97L95.27,122.32L95.28,72.76L95.29,33.96L95.85,272.74L95.98,249.71L95.99,286.68L96.51,42.83L96.72,274.22L96.74,283.87L97.33,65.14L97.5,226.42L97.51,230.32L97.94,30.5L98.15,285.21L98.28,160.19L98.29,151.94L98.42,33.99L99.1,281.64L99.11,280.7L99.12,283.68L99.58,33.79L99.87,198.21L99.89,237.66L100.18,287.12L100.34,33.34L100.62,210.41L100.63,191.73L100.92,31.14L101.04,267.42L101.09,111.13L101.1,40.76L101.12,32.21L101.43,285.22L101.51,247.52L101.52,254.15L101.81,30.73L102,285.37L102.23,281.47L102.24,277.14L102.25,283.23L102.56,29.53L102.81,196.62L102.82,157.57L102.92,28.2L103.58,277.98L103.59,254.41L103.67,275.91L103.88,27.45L104.27,180.06L104.28,89.62L104.56,17.74L104.94,301.31L105.04,274.35L105.05,247.03L105.17,25.58L105.69,289.29L105.79,252.48L105.8,278.67L106.26,28.98L106.47,293.32L106.54,281.13L106.55,273.39L106.72,289.42L106.83,36.21L106.9,38.58L106.91,34.08L106.98,20.16L107.28,287.17L107.72,183.15L107.73,173.55L107.86,29.74L108.28,286.76L108.46,79.59L108.47,84.03L108.59,31.73L108.69,291.99L109.17,90.28L109.19,169.25L109.26,279.1L109.79,33.34L109.91,91.82L109.92,100.12L110.06,293.55L110.17,30.35L110.57,139.16L110.58,221.91L110.81,290.29L111.14,28.12L111.37,108.28L111.38,177.77L111.4,264.09L112.11,35.62L112.12,36.56L112.13,33.31L112.19,237.34L112.2,268.34L112.24,269.24L112.73,36.22L112.96,108.05L112.97,196.21L113.01,275.63L113.11,68.56L113.7,151.09L113.71,158.97L114.24,43.34L114.36,216.73L114.39,213.32L114.4,254.38L114.55,267.04L114.82,51.67L115.24,148.39L115.25,170.49L115.29,102.7L115.3,78.86L115.5,57.5L115.64,282.22L116.05,150.39L116.06,103.43L116.07,101.85L116.11,199.33L116.12,240.09L116.15,256.89L116.31,33L116.93,141.12L116.94,140.2L117.09,56.86L117.45,255.47L117.68,119.73L117.69,94.1L117.95,246.26L118.2,59.81L118.23,154.66L118.24,173.59L118.27,60.28L118.83,282.35L118.99,107.23L119,107.14L119.06,33.54L119.38,287.84L119.72,140.23L119.73,112.68L120.02,33.74L120.16,283.08L120.38,208.35L120.39,208.83L120.59,37.71L120.93,283.62L121.17,132.46L121.18,144.56L121.49,277.74L121.66,38.73L121.93,197.17L121.94,193.84L122.16,42.47L122.51,219.61L122.52,222.06L122.95,42.59L123.06,280.82L123.27,197.3L123.28,207.09L123.7,54.31L123.86,265.08L124.03,139.76L124.04,188.79L124.15,58.55L124.43,253.09L124.78,154.5L124.8,148L124.84,240.05L124.92,98.99L124.93,76.75L125.02,195.43L125.03,234.16L125.42,255.07L125.64,82.31L125.72,134.3L125.73,117.01L126.1,57.58L126.33,286.09L126.44,147.66L126.46,121.15L126.48,37.02L126.72,228.98L127.19,154.43L127.2,180.38L127.58,49.06L127.76,284.96L127.94,205.8L127.96,184.87L128.07,33.12L128.67,281.17L128.68,277.42L128.69,258.32L128.71,284.89L129.02,32.63L129.36,241.17L129.37,199.23L129.43,235.61L129.96,51.02L130.08,184.48L130.09,214.27L130.55,95.78L130.66,258.53L130.73,118.87L130.74,97.09L131.15,43.24L131.41,251.64L131.42,279.96L131.44,284.42L131.51,139.1L131.52,129.54L131.63,267.93L131.92,36.42L132.3,63.21L132.31,71.13L132.32,47.05L132.97,256.63L132.98,277.16L133.13,29.9L133.3,283.47L133.74,200.86L133.75,214.48L133.85,32.75L134.11,280.8L134.49,157.4L134.5,174.62L134.69,31.65L134.93,284.96L135.24,215.19L135.26,189.36L135.47,34.42L135.68,285.2L136.02,145.69L136.03,165.04L136.22,63.48L136.41,284.71L136.8,122.77L136.81,126.08L137.27,285.15L137.43,57.29L137.54,144.93L137.55,147.57L137.87,58.62L138.05,246.61L138.1,112.61L138.11,85.12L138.12,84.5L138.14,102.94L138.15,133.94L138.19,95.06L138.34,233.82L138.88,105.92L138.89,97.44L139.22,278.11L139.45,89.2L139.65,123.55L139.66,93.5L139.68,64.49L140,280.86L140.36,207.73L140.37,224.29L140.65,62.75L140.93,234.21L140.94,252.85L141.42,67.91L141.69,170.89L141.7,187.23L142.3,255.83L142.4,55.99L142.41,57.96L142.42,56.26L142.47,165.51L142.48,209.74L142.69,255.1L143,33.35L143.15,134.68L143.16,201.49L143.27,285.83L143.36,121.77L143.51,129.64L143.52,115.81L143.64,189.89L143.71,54.31L143.73,50.75L143.77,40.48L143.96,239.9L143.97,270.96L143.98,284.26L144.49,27.82L144.65,182.26L144.66,95.18L144.67,59.17L144.81,238.86L145.37,179.59L145.39,211.38L145.63,282.47L145.9,78.17L146.1,109.05L146.11,96.68L146.5,26.76L146.73,284.65L146.82,244.74L146.83,254.75L147,284.74L147.43,45.58L147.6,155.19L147.61,227.05L147.8,265.26L148.06,31.64L148.29,122.76L148.3,78.39L148.78,31.28L149.05,284.81L149.08,281.05L149.09,280.47L149.16,113.1L149.17,25.1L149.49,281.6L149.92,40.92L149.93,34.27L149.97,30.36L150.54,287.9L150.69,168.05L150.71,120.97L151.08,290.99L151.16,31.46L151.47,232.54L151.48,116.88L151.49,31.17L151.87,285.76L152.22,114.32L152.23,151.23L152.32,286.56L152.74,26.4L152.98,166.68L152.99,145.38L153.13,29.63L153.18,251.31L153.34,146.22L153.36,221.91L153.68,285.42L153.86,29.09L154.08,282.9L154.09,165.41L154.49,27.18L154.79,285.2L154.83,201.99L154.84,225.82L154.95,284.48L155.26,28.5L155.34,32.02L155.36,40.33L155.37,29.37L155.63,286.6L155.99,113.34L156,215.94L156.17,288.25L156.43,29.75L156.69,42.77L156.7,38.91L156.72,33.09L156.76,197.62L156.77,247.35L157.22,34.71L157.46,289.57L157.48,113.93L157.49,93.18L157.85,288.65L157.88,25.88L158.2,114.9L158.21,172.04L158.54,286.34L158.77,28.91L158.94,167.11L158.95,103.08L159.27,290.96L159.54,28.8L159.7,99.65L159.71,124.98L159.85,28.14L160.05,293.19L160.48,277.15L160.5,284L160.89,288.75L161.11,24.94L161.19,162.33L161.2,224.36L161.58,290.56L161.86,31.34L161.92,64.5L161.93,33.41L162.01,31.88L162.23,290.17L162.3,161.1L162.31,54.32L162.63,28.56L162.94,280.52L163.02,150.7L163.03,52.59L163.09,28.23L163.54,299.33L163.59,183.32L163.6,269.52L163.85,286.06L164.34,22L164.36,140.25L164.37,229.42L164.7,297.9L164.99,30.4L165.1,132.84L165.11,59.58L165.18,26.92L165.47,300.66L165.87,258.3L165.88,81.36L165.95,25.32L166.18,291.33L166.62,120.23L166.63,185.63L166.73,28.04L166.88,283.74L167.09,130.01L167.1,67.62L167.55,286.48L167.7,23.92L167.85,34.98L167.86,54.04L167.89,25.03L168.25,294.37L168.6,33.74L168.61,35.61L168.62,32.93L168.78,111.5L168.79,211.76L168.82,293.49L169.05,24.64L169.53,238.78L169.54,165.32L169.87,287.23L170,27.24L170.28,70.65L170.3,115.18L170.59,27.22L170.89,287.41L171.04,95.2L171.05,105.13L171.66,291.77L171.75,31.05L171.8,130.02L171.81,69.53L171.9,31.56L172.34,287.1L172.47,188.46L172.48,200.41L172.6,28.41L172.87,285.66L173.17,137.28L173.18,208.16L173.76,285.95L173.84,32.78L173.91,105.46L173.92,39.16L174.02,32.25L174.09,281.08L174.4,163.08L174.41,201.02L174.56,284.48L174.7,36.94L175.14,148.43L175.15,141.78L175.45,283.18L175.8,31.62L175.98,46.12L175.99,82.62L176.14,285.34L176.3,34.16L176.75,151.31L176.76,138.12L176.89,282.28L177.16,35.6L177.22,234.01L177.23,238.25L177.49,285.66L178.02,32L178.05,50.34L178.06,120.63L178.15,285.48L178.56,33.86L178.82,283.17L178.83,279.81L178.84,281.18L178.86,218.55L178.87,145.3L178.92,32.76L179,286.65L179.51,279.68L179.52,279.88L179.55,286.11L179.57,183.74L179.58,159.23L179.75,32.87L180.03,289.37L180.32,89.57L180.33,159.81L180.41,265.19L180.87,42.66L180.99,164.42L181,93.61L181.32,287.09L181.68,32.22L181.74,35.34L181.76,37.16L182,289.95L182.39,29.47L182.51,34.13L182.52,34.62L182.56,34.34L182.59,136.88L182.6,199.97L182.84,286.96L183.18,31.95L183.36,286.71L183.37,283.94L183.47,295.51L183.59,24.67L184.12,108.72L184.13,225.6L184.38,287.72L184.67,31.9L184.86,216.55L184.87,291.46L185.15,24.08L185.46,301.76L185.66,34.15L185.67,31.77L185.95,287.72L186.22,22.89L186.42,105.34L186.43,101.92L186.47,295.56L186.89,19.68L187.19,271.85L187.2,231.54L187.42,26.26L187.93,287.54L187.94,227.94L187.95,249.26L188.46,22.12L188.69,286.5L188.7,267.74L188.84,287.88L188.98,22.89L189.38,192.9L189.4,190.71L189.43,24.03L189.79,291L190.07,144.35L190.08,25.89L190.51,295.06L190.89,259.14L190.9,159.76L190.98,21.66L191.18,285L191.63,200.25L191.64,186.26L191.69,296.05L191.82,33.69L192.4,119.91L192.41,173.22L192.64,32.1L192.89,300.95L193.17,279.16L193.18,263.27L193.2,274.28L193.23,197.94L193.24,59.06L193.47,22.64L193.83,285.92L194,260.69L194.01,112.72L194.26,23.57L194.61,285.34L194.74,188.86L194.75,203.11L194.81,295.4L195.34,18.08L195.47,84.29L195.48,36.68L195.49,26.57L195.78,295.51L196.13,121.47L196.14,159.52L196.3,34.39L196.73,286.28L196.89,143.99L196.9,194.89L197.15,25.75L197.32,292.95L197.54,64.36L197.55,46.32L197.99,287.31L198.23,28.36L198.26,79.24L198.27,106.45L198.64,286.99L198.76,31.51L198.99,133.42L199,98.81L199.21,289.29L199.51,37.83L199.72,238.41L199.73,280.47L199.83,31.86L200.5,98.73L200.52,144.33L200.57,58.67L200.87,289.61L201.08,114.15L201.09,39.33L201.19,270.38L201.27,62.91L201.28,47.75L201.43,30.7L201.72,283.43L202.02,38.59L202.03,39.13L202.55,289.22L202.72,134.68L202.73,63.02L203.04,29.99L203.27,287.23L203.45,119.99L203.46,145.33L203.59,30.04L203.92,285.24L204.07,84.24L204.08,89.39L204.41,34.17L204.58,286.59L204.82,117.41L204.84,90.28L204.88,38.79L205.29,288.3L205.37,124.16L205.38,107.21L205.72,35.12L205.86,281.19L206.04,210.92L206.05,223.92L206.22,282.59L206.32,32.62L206.78,200L206.79,162.24L206.92,285.25L207.12,32.4L207.48,185.96L207.5,125.97L207.8,291.11L208.01,30.53L208.22,255.66L208.23,255.25L208.49,283.09L209.01,29.55L209.09,72.64L209.1,113L209.5,29.48L209.76,290.35L209.88,200.88L209.89,210.2L209.99,28.97L210.44,268.58L210.68,67.74L210.69,77.45L210.97,44.66L211.28,280.82L211.43,68.77L211.44,27.71L212.07,270.36L212.24,171.24L212.25,166.42L212.36,256.12L212.49,33.46L212.63,209.37L212.65,245.22L212.72,274.28L212.74,214.9L212.75,192.46L212.86,251.48L212.89,140.34L212.9,56.65L212.91,32.01L213.54,277.7L213.59,194.07L213.6,182.91L214.06,30.8L214.21,268.51L214.31,265.9L214.32,282.75L214.91,53.26L215.08,204.14L215.09,160.85L215.33,32.79L215.76,285.24L215.84,158.53L215.85,166.22L215.89,187.6L215.99,81.66L216,68.81L216.37,281.7L216.51,33.25L216.66,169.71L216.67,176.56L216.72,256.79L216.87,35.01L217.39,126.03L217.4,114.97L217.9,250L218,62.28L218.08,139.37L218.09,194.53L218.19,37.87L218.29,280.35L218.8,151.99L218.81,105.09L219.26,283.41L219.5,38.41L219.53,114L219.54,152.89L219.97,286.19L220.15,37.75L220.23,190.19L220.24,271.31L220.41,281.5L220.52,62.9L220.8,117.63L220.81,91.58L220.84,36.05L221.24,279.64L221.46,162.38L221.47,201.18L221.53,53.76L221.59,209.01L221.86,205.8L221.87,245.53L222.26,286L222.33,46.85L222.5,139.38L222.51,79.96L222.91,288.96L223.01,62.51L223.28,139.81L223.29,103.39L223.33,32.71L223.59,283.32L223.92,272.79L223.94,278.82L223.96,279.8L223.98,222.04L223.99,134.76L224.23,284.52L224.49,28.55L224.74,42.69L224.75,101.49L224.78,27.76L225.07,289.51L225.47,96.34L225.48,114.52L225.78,73.88L225.88,288.94L226.23,114.92L226.24,135.85L226.62,28.59L226.93,225.46L226.94,234.41L227.16,284.92L227.5,32.31L227.73,148.26L227.74,176.27L227.77,26.11L228.01,289.26L228.48,145.26L228.49,160.61L228.66,285.99L229.19,80.71L229.22,108.48L229.23,51.04L229.26,40.79L229.49,215.18L229.55,172.62L229.56,236.42L229.76,31.48L230.17,285.63L230.21,189.58L230.22,128.39L230.47,28.21L230.87,281.49L230.97,78.99L230.98,100.62L231.08,280.25L231.26,35.25L231.72,149.63L231.74,76.64L232.07,281.57L232.25,27.21L232.5,170.49L232.51,119.17L232.67,66.93L233.04,286.11L233.25,134.07L233.26,173.55L233.27,176L233.43,35.27L233.48,70.58L233.49,34.04L234.09,285.06L234.12,225.2L234.13,137.8L234.2,30.86L234.59,287.28L234.87,159.21L234.88,182.24L235.38,29.33L235.6,289.29L235.66,285.83L235.67,272.06L235.73,285.8L236.42,30.26L236.46,58.47L236.47,93.22L236.78,285.88L237,28.25L237.22,113.61L237.23,152.03L237.76,35.23L237.95,256.72L237.99,210.53L238,174.13L238.15,28.95L238.45,282.7L238.8,111.77L238.81,119.15L239.36,31.07L239.46,281.9L239.5,219.15L239.51,254.23L239.59,283.4L240.05,31.73L240.25,244.09L240.26,252.64L240.28,282.93L240.41,33.14L240.97,205.59L240.98,182.49L241.26,247.82L241.4,30.9L241.66,148.21L241.67,127.28L241.93,282.7L242.2,34.46L242.47,183.15L242.48,168.06L242.75,289.29L242.87,38.37L243.18,107.48L243.2,131.15L243.26,265.44L243.63,33.23L243.96,227.07L243.97,198.11L244.24,280.41L244.34,56.25L244.75,100.43L244.76,112.02L245.33,46.02L245.54,265.89L245.57,233.31L245.58,230.48L245.6,194.88L245.61,161.28L245.94,281.83L246.08,34.54L246.4,74.35L246.41,98.2L246.52,267.52L246.88,35.72L247.19,247.82L247.2,245.31L247.26,280.63L247.38,116.15L247.58,152.88L247.59,135.95L248.09,281.04L248.35,31.95L248.36,38.9L248.72,220.92L249.15,112.61L249.16,109.1L249.23,282.99L249.78,86.02L249.79,54.43L249.95,33.54L250.52,284.62L250.57,125.91L250.58,76.96L251.14,32.95L251.21,254.54L251.3,113.57L251.31,131.74L251.53,262.57L251.92,85.99L252.04,106.24L252.05,94.31L252.08,36.9L252.34,281.44L252.71,178.51L252.72,213.43L252.8,283.63L253.1,41.14L253.46,186.4L253.47,191.46L253.51,279.24L254.03,33.69L254.19,114.4L254.2,113.5L254.52,284.55L254.93,65.24L254.94,45.35L254.95,42.23L255.07,191.93L255.23,179.5L255.24,187.95L255.52,268.26L256,44.16L256.09,88.13L256.1,98.22L256.12,88.83L256.45,282.07L256.54,117.82L256.55,98.95L256.57,33.4L257.2,283.26L257.25,263.91L257.26,277.17L257.28,279.65L257.34,137.04L257.35,110.98L257.69,245.82L258.1,40.12L258.11,70.51L258.12,106.99L258.42,281.92L258.54,34.91L258.9,230.6L258.91,227.97L259,271.04L259.04,191.58L259.05,171.24L259.36,32.58L259.48,235.08L259.66,219.43L259.67,237.23L259.82,278.98L260.58,31.21L260.62,31.55L260.64,63.32L260.66,49.1L261.04,286.4L261.2,223.04L261.21,149.09L261.4,23.7L261.54,289.93L261.95,103.15L261.97,105.3L262.13,23.27L262.31,289.45L262.56,45.25L262.57,39.23L262.78,33.22L263.22,285.78L263.31,105.52L263.32,29.52L263.54,25.22L264.06,295.93L264.15,194.33L264.16,168.95L264.34,27.18L264.69,296.08L264.88,34.44L264.89,29.82L265.4,285.84L265.63,40.41L265.64,34.46L265.72,29.91L265.79,143.9L265.8,139.61L265.81,198.19L266.08,301.13L266.48,36.44L266.51,145.74L266.52,36.57L266.57,27.35L266.61,97.72L266.62,187.46L266.97,291.35L267.29,29.78L267.37,79.22L267.38,92.22L267.42,23.62L268.03,291.16L268.15,282.5L268.16,200.79L268.39,27.03L268.64,286.7L268.9,250.05L268.91,287.91L269.31,29.94L269.58,254.39L269.6,273.7L269.61,293.23L269.91,29.8L270.25,97.81L270.27,109.53L270.44,27.45L270.66,277.86L270.93,33.29L270.94,35.86L270.99,25.95L271.33,293.2L271.47,193.22L271.48,227.25L271.61,23.49L272.14,246.94L272.15,289.16L272.48,36.62L272.95,148.89L272.96,166.04L273.17,285.56L273.68,32.55L273.74,34.27L273.76,29.11L273.94,287.64L274.36,120.43L274.37,78.62L274.75,29.89L274.92,286.95L275.1,150.9L275.11,88.83L275.51,241.58L275.61,31.26L275.77,104.52L275.78,187.78L276.25,30.73L276.38,286.62L276.48,124.97L276.49,61.13L276.5,30.37L276.89,278.85L277.21,105.53L277.22,139.44L277.3,27.82L277.41,290.37L277.92,156.15L277.93,98.74L278.28,285.37L278.67,32.24L278.69,33.79L278.7,36.96L278.72,32.89L278.8,121.98L278.86,110.95L278.87,155.31L279.11,288.61L279.51,40.56L279.53,41.12L279.54,34.84L279.55,27.67L279.88,282.52L280.19,99.37L280.2,164.45L280.75,286.15L280.9,28.93L280.91,43.15L280.92,49.75L280.96,29.54L281.21,287.02L281.56,155.75L281.57,193.97L281.75,33.5L282.07,282.68L282.22,272.84L282.23,285.36L282.59,32.83L282.87,259.59L282.89,282.59L282.9,283.65L282.93,216.65L282.94,185.97L283.3,285.8L283.47,34.34L283.7,132.37L283.72,146.79L283.88,99.84L284.22,270.91L284.43,113.43L284.44,110.36L284.61,37.7L284.84,250.22L284.85,274.48L285.25,32.09L285.64,135.17L285.65,138.11L286.26,33.53L286.47,282.24L286.48,272.25L286.49,246.89L286.68,283.79L286.96,30.71L287.25,192.74L287.26,203.28L287.33,287.42L287.9,43.7L287.99,201.51L288,223.05L288.47,48.57L288.65,259.68L288.76,162.15L288.77,194.59L289.12,260.48L289.46,82.06L289.53,158.68L289.54,161.16L290.03,59.71L290.2,270.97L290.28,163.92L290.29,159.28L290.43,239.74L290.58,53.38L291.05,195.78L291.06,184.13L291.46,87.51L291.67,235.86L291.81,147.7L291.82,157.96L292.3,225.54L292.54,48.94L292.57,139.87L292.58,174.14L293.15,77.22L293.27,264.7L293.32,172.86L293.33,153.88L293.4,49.12L293.92,278.97L294.04,123.32L294.05,165.64L294.23,32.55L294.37,281.64L294.81,274.37L294.82,222.09L295.25,282.7L295.49,63.91L295.6,118.09L295.61,155.15L296.12,265.42L296.38,35.58L296.43,120.34L296.44,131.38L296.57,282.82L297.14,34.4L297.19,94.36L297.2,143.02L297.52,274.7L297.83,47.83L297.95,147.27L297.96,145.43L297.98,128.17L298.14,206.28L298.27,196.18L298.28,227.1L298.36,283.36L298.74,30.76L298.98,181.92L299,191.94L299.25,275.92L299.59,31.73L299.7,156.75L299.71,119.93L299.87,286.56L300.35,30.81L300.41,166.76L300.42,168.71L300.7,268.17L300.97,32.39L301.01,57.78L301.02,52.36L301.17,30.91L301.54,284.88L301.77,178.76L301.78,155.49L301.8,140.94L301.82,162.21L301.83,207.99L301.9,30.29L302.36,282.96L302.55,280.91L302.56,278.9L302.63,283.8L302.67,132.61L302.68,58.03L302.73,32.22L303.15,287.52L303.36,175.75L303.37,220.83L303.42,284.65L303.88,31.1L304.08,37.07L304.09,31.25L304.14,30.5L304.51,286.5L304.77,214.62L304.78,116.77L304.87,31.95L305.37,284.46L305.5,278.87L305.51,281.4L305.54,282.9L305.56,206L305.57,133.4L306.24,27.81L306.28,284.38L306.3,281.69L306.31,283.88L306.35,285L306.37,210.32L306.38,193.04L306.42,87.15L306.53,285.65L306.7,142.55L306.71,137.26L306.9,30.38L307.15,285.27L307.46,158.6L307.47,154.65L308.06,27.89L308.16,282.26L308.17,276.94L308.18,283.84L308.23,290.46L309.04,28.98L309.11,78.9L309.13,160.76L309.37,28.92L309.44,283.45L309.86,37.6L309.87,36.38L309.94,26.62L310.06,205.66L310.12,189.81L310.13,234.16L310.31,286.87L310.86,29.54L310.95,56.06L310.96,96.04L311.09,292.51L311.51,30.68L311.72,168L311.73,200.39L311.87,292.73L312.05,32.12L312.48,261.62L312.49,114.12L313.06,29.51L313.19,296.16L313.21,227.97L313.22,288.08L313.85,30.24L314.03,155.7L314.04,177.2L314.2,288.58L314.33,16L314.79,165.69L314.8,217.39L315.17,24.72L315.31,285.98L315.51,112.09L315.52,233.5L315.61,286.79L316,28.62L316.25,156.4L316.27,90.2L316.68,289.18L317.03,32.33L317.04,30.05L317.1,90.31L317.11,168.64L317.76,287.95L317.83,35.74L317.84,37.19L317.85,35.8L317.99,30.29L318.16,287.71L318.55,110.45L318.56,36L318.61,33.17L318.95,275.45L318.96,135.49L318.97,60.29L319.27,285.95L319.55,29.74L319.72,251.41L319.73,168.27L319.87,286.83L320.14,30.24L320.47,231.29L320.48,212.33L320.93,29.3L321.2,286.91L321.25,281.67L321.26,280.05L321.29,282.8L321.3,253.59L321.31,155.74L321.39,287.95L321.52,33.06L322.04,209.01L322.05,238.46L322.41,291.64L322.5,33.01L322.79,214.41L322.8,203.75L322.99,289.83L323.11,29.9L323.57,140.17L323.58,148.71L323.66,27.28L323.77,286.16L324.25,73.73L324.26,32.27L324.55,285.32L324.68,29.21L325.01,126.62L325.02,75.27L325.11,285.58L325.41,31.45L325.76,86.44L325.77,81.6L326.1,290.52L326.19,27.23L326.43,284.69L326.44,282.04L326.64,287.95L326.98,29.45L327.12,137.22L327.13,204.41L327.37,28.88L327.52,288.39L327.74,170.26L327.75,70.32L327.76,25.84L328.04,281.64L328.48,148.77L328.49,221.93L328.87,292.72L328.95,32.1L329.02,237.92L329.03,270.08L329.08,288.43L329.31,30.86L329.44,40.68L329.45,27.24L329.48,26.73L329.56,289.79L330.19,41.47L330.21,36.4L330.22,36.74L330.23,74.95L330.36,288.69L330.79,25.97L330.97,84.39L330.98,55.22L331.16,291.47L331.43,32.72L331.51,161.58L331.52,256.5L331.82,34.16L331.94,289.6L332.12,53.13L332.13,35.14L332.41,29.91L332.72,289.73L332.9,211.05L332.91,195.94L333,27.63L333.1,289.58L333.64,48.4L333.65,104.17L334.14,25.65L334.26,289.71L334.37,78.65L334.38,150.36L334.46,25.38L335.04,291.38L335.11,82.2L335.12,32.34L335.14,32.01L335.17,195.95L335.18,213.69L335.23,134.34L335.24,67.99L335.31,29.67L335.42,288.45L335.91,277.48L335.92,281.22L335.95,281.85L336,177.81L336.01,109.84L336.15,32.21L336.58,289.89L336.72,205.3L336.73,262.11L336.74,287.75L336.87,31.78L337.42,115.46L337.43,60.35L337.46,26.58L337.55,283.9L338.17,33.96L338.19,54.69L338.46,28.97L338.88,292.16L338.94,100.48L338.95,43.15L338.98,30.2L339.52,287.15L339.72,130.16L339.73,119.39L339.74,118.92L339.75,41.59L339.91,285.68L340.01,29.47L340.26,277.86L340.27,281.91L340.29,283.07L340.32,49.78L340.64,234.58L340.65,278.34L340.72,198.14L340.73,165.64L341.07,293.43L341.23,21.88L341.47,205.5L341.48,172.54L341.53,228.03L341.56,70.57L341.58,154.48L341.59,243.01L341.78,286.78L341.96,30.3L342.34,203.93L342.35,217.75L342.37,288.33L342.77,27.74L343.06,117.89L343.07,67.52L343.37,283.4L343.61,25.01L343.85,197.28L343.86,173.12L344.31,31.46L344.56,282.94L344.57,281.28L344.58,283.89L344.7,29.94L344.91,242.79L344.92,292.65L344.94,292.96L345.49,23.39L345.7,176.9L345.71,291.98L346.29,32.52L346.47,240.64L346.49,288.19L346.62,288.95L347.15,26.64L347.24,275.6L347.25,283.7L347.33,276.74L347.34,288.2L347.35,247.31L347.65,288.81L347.86,26.79L348.11,171.94L348.12,195.12L348.23,288.09L348.34,177.69L348.35,93.37L348.51,32.42L348.87,285L349.08,40.21L349.09,33.63L349.12,28.52L349.57,287.88L349.79,210.26L349.81,129.65L349.92,27.07L350.54,289.96L350.62,170.31L350.64,147.37L350.79,284.5L351.22,27.45L351.36,183.41L351.37,215.36L351.44,38.4L351.69,292.37L352.13,144.58L352.14,120.62L352.54,289.15L352.83,30.85L352.87,106.51L352.88,91.55L353.34,32.6L353.5,291.95L353.71,276.97L353.72,279.28L353.74,266.47L353.75,192.23L353.81,25.31L354.24,284.9L354.5,165.4L354.51,165.71L354.89,25.31L355.2,290.51L355.27,280.18L355.29,282.35L355.34,150.61L355.35,54.57L355.8,285.55L355.96,30.04L356.05,145.98L356.06,169.36L356.56,28.84L356.63,291.91L356.86,288.45L356.87,281.96L357.1,32.88L357.19,197.35L357.2,247.51L357.25,288.28L357.76,32.19L357.89,38.19L357.9,34.37L358.11,26.99L358.45,286.7L358.53,110.22L358.54,63.83L358.69,28.03L359.03,283.87L359.17,224.72L359.18,271.1L359.59,286.9L359.65,29.21L359.73,123.92L359.74,79.12L359.95,34.77L360.36,282.84L360.37,280.98L360.38,285.57L360.55,291.09L360.91,26.68L361.13,284.01L361.14,281.8L361.18,285.65L361.3,67.68L361.31,28.83L361.54,287.14L361.88,21.91L362.06,45.85L362.07,38.9L362.14,284.47L362.46,57.15L362.47,40.04L362.73,287.18L363.02,28.68L363.05,74.22L363.06,170.74L363.21,289.39L363.43,29.28L363.79,202.58L363.8,105.42L363.84,288.87L364.02,24.23L364.54,219.59L364.55,125.58L364.83,288.77L365.01,29.39L365.26,239.16L365.27,280.84L365.37,287.49L365.68,30.43L366.14,171.25L366.15,203.91L366.37,291.02L366.71,31.34L366.94,103.22L366.95,163.22L366.99,177L367.02,127.04L367.06,147.46L367.08,90.93L367.18,285.5L367.29,28.22L367.8,181.78L367.81,214.29L368.38,33.18L368.51,285.33L368.55,257.68L368.57,219.27L368.72,286.48L368.96,32.55L369.07,56.76L369.08,56.12L369.15,26.92L369.41,288.12L369.75,176.35L369.76,256.01L370.28,281.15L370.38,30.48L370.4,32.96L370.42,49.7L370.43,83.32L370.8,285.57L371.19,28.96L371.2,32.83L371.21,32.32L371.27,29.69L371.6,179.61L371.61,198.39L371.85,285.66L372.11,29.06L372.29,38.5L372.3,33.22L372.37,270.76L372.83,31.26L373,85.26L373.01,78.97L373.08,38.55L373.25,288.27L373.52,161L373.53,241.55L373.85,27.14L373.92,204.38L373.93,242.59L374.3,283.46L374.6,24.93L374.73,145.42L374.74,187.88L375.1,287.39L375.39,34.37L375.5,258.45L375.51,241.89L375.75,27.56L375.83,291.5L376.22,145.18L376.23,207.13L376.48,277.8L376.79,29.3L376.96,238.56L376.97,181.9L377.41,293.04L377.68,34.49L377.71,184.1L377.72,200.56L377.75,288.77L378.15,40.07L378.47,236.35L378.48,167.44L378.78,285.28L378.94,33.92L379.08,175.05L379.09,197.09L379.28,287.31L379.74,32.12L379.78,110.76L379.79,176.25L380.24,30.06L380.37,285.42L380.55,255.19L380.56,222.23L380.89,28.62L381.09,285.94L381.1,285.14L381.2,288.05L381.49,32.06L381.9,161.2L381.91,211.41L381.93,287.4L382.54,24.52L382.64,169.58L382.65,151.69L382.77,282.26L382.86,31.26L383.4,120.83L383.41,144.36L383.47,286.86L384.08,31.89L384.16,199.52L384.18,226.82L384.33,288.77L384.52,91.91L384.88,146.89L384.89,107.96L385.13,287.68L385.48,34.37L385.58,257.4L385.59,283.03L385.6,283.52L385.64,258.11L385.65,219.18L385.99,34.33L386.28,280.75L386.41,155.46L386.42,150.74L386.78,285.38L387.05,30.27L387.15,112.87L387.17,112.54L387.23,66.52L387.77,250.07L387.94,210L387.95,203.71L388.37,40.29L388.55,282.91L388.65,122.25L388.67,107.43L389.09,284.61L389.45,35.3L389.46,34.62L389.72,172.48L389.73,190.13L389.89,285.07L390.24,69.3L390.33,107.07L390.34,85.41L390.44,28.66L390.62,285.43L391.05,106.5L391.06,155.02L391.16,283L391.52,37.37L391.63,179.22L391.64,254.41L391.66,282.69L392.02,31.14L392.35,214L392.36,207.77L392.45,248.32L392.53,190.67L392.54,167.81L392.92,286.87L393.29,31.65L393.33,35.86L393.34,42.18L393.56,283.6L393.82,123.74L393.83,96.49L393.89,34.35L394.29,255.46L394.52,178.19L394.53,212.72L394.6,281.85L395.05,35.9L395.27,196.26L395.28,207.72L395.87,284.5L396.07,33.91L396.1,57.2L396.11,55.72L396.23,34.16L396.69,282.87L396.82,34.26L396.83,40.81L397.54,261.26L397.61,150.59L397.63,161.46L398.25,282.8L398.36,39.22L398.42,78.72L398.43,103.56L398.68,32.01L399.04,282.01L399.16,38.08L399.17,54.95L399.21,36.71L399.57,287.1L399.81,125.46L399.82,126.22L399.92,45.05L400.18,248.35L400.56,122.43L400.57,172.42L400.71,286.36L401.08,38.17L401.33,216.79L401.34,192.55L401.46,30.44L401.71,236.41L401.72,265.96L401.77,274.26L402.04,170.94L402.06,233.92L402.07,258.96L402.35,56.88L402.86,90.36L402.87,76.6L402.96,34.33L403.06,156.56L403.07,152.8L403.08,204.53L403.33,283.47L403.59,103.98L403.82,190.38L403.83,173.49L404.02,31.97L404.26,283.04L404.59,118L404.61,131.6L404.91,270.68L405.21,33.88L405.34,146.77L405.35,176.04L405.48,283.57L405.95,60.44L406.07,157.28L406.08,133.22L406.19,64.4L406.63,282.39L406.67,279.87L406.68,282.28L406.91,91.7L406.93,58.76L407.17,32.4L407.4,220.38L407.41,235.5L407.43,244.56L407.85,106.25L407.9,122.8L407.91,117.9L408.23,262.39L408.38,110.08L408.41,112.32L408.43,99.54L409.15,230.37L409.17,173.88L409.18,133.26L409.33,280.98L409.65,32.22L409.94,186.7L409.95,171.3L410.16,31.66L410.3,285.03L410.61,145.4L410.62,171.82L410.85,38.02L411.04,239.55L411.3,87.75L411.31,96.01L411.54,281.32L412.02,32.87L412.03,33.2L412.04,33.8L412.1,32.03L412.12,76.49L412.16,68.82L412.17,114.6L412.41,270.12L412.81,104.34L412.94,157.61L412.95,144.95L413.49,253.77L413.65,96.62L413.68,110.16L413.69,109.42L413.92,257.69L414.03,64.81L414.42,97.92L414.43,86.87L414.49,43.21L414.7,267.56L415.05,226.03L415.07,250.73L415.43,31.84L415.71,286.98L415.83,278.76L415.84,280.4L415.9,281.32L416.17,22.55L416.23,168.44L416.24,198.67L416.59,27.57L416.82,289.41L416.97,72.89L416.98,47.14L416.99,36.11L417.17,278.69L417.58,145.69L417.59,220.36L417.93,294.6L418.16,29.03L418.23,32.9L418.24,41.3L418.29,26.62L418.58,290.01L418.78,262.5L418.79,280.8L418.81,282.59L419.13,26.6L419.23,169.67L419.24,190.18L419.25,190.49L419.26,259.49L419.39,288.09L419.78,27.79L420.01,185.28L420.02,259.66L420.3,290.6L420.56,28.59L420.64,65.96L420.65,41.77L420.84,285.28L421.34,36.24L421.38,119.22L421.39,62.46L421.74,290.66L422.08,27.96L422.13,42.81L422.14,40.26L422.22,28.75L422.32,260.67L422.34,214.78L422.35,283.64L422.38,286.79L422.6,23.27L422.87,246.22L422.88,267.44L422.89,287.65L423.24,31.08L423.6,267.33L423.61,224.67L423.72,268.03L424.3,32.91L424.35,203.01L424.37,236.67L424.46,286.2L424.77,27.54L424.89,259.69L424.9,270.36L424.91,288.1L425.44,36.63L425.57,130.85L425.58,120.24L425.89,269.01L426.22,35.77L426.33,119.44L426.34,150.72L426.38,172.03L426.39,165.01L426.4,131.1L426.63,284.02L426.87,28.61L427.06,181.99L427.07,277.66L427.22,287.13L427.5,34.7L427.83,189.38L427.84,225.05L428.27,48.2L428.41,256.95L428.55,247.35L428.56,268.77L428.57,275.9L428.73,52.71L429.15,184.28L429.16,135.35L429.44,37.86L429.77,282.5L429.91,171.28L429.92,118.33L430.22,31.96L430.37,281.03L430.68,150.96L430.69,96.81L430.78,35.56L431.27,283.91L431.35,222.69L431.36,265.74L431.78,36.47L432.14,106.65L432.15,141.5L432.25,132.14L432.4,236.72L432.41,282.43L432.43,289.04L432.68,66.29L432.69,37.61L432.71,30.64L432.81,58.44L432.82,79.8L432.91,34.81L433.72,285.64L433.76,284.29L433.77,277.59L433.8,283.34L433.9,178.76L433.91,149.67L434.23,30.99L434.57,272.06L434.66,145.13L434.67,104.15L434.89,81.27L435.19,221.15L435.31,162.35L435.33,187.64L435.62,32.36L435.97,279.97L436.07,161.93L436.08,172.02L436.28,250.54L436.59,33.08L436.74,229.57L436.75,241.62L436.94,279.57L437.1,115.76L437.16,125.5L437.17,117.09L437.39,30.91L437.7,285.65L437.9,156.49L437.91,135.37L437.93,107.18L437.94,69.34L437.97,32.05L438.49,283.26L438.7,33.03L438.71,32.53L438.77,31.96L438.82,44.17L438.83,59.6L439.1,283.41L439.5,31.7L439.62,197.89L439.63,167.04L439.65,166.3L439.68,188.96L439.69,186.2L439.7,196.22L439.86,282.87L440.07,31.49L440.43,226.51L440.44,259.63L440.95,52.54L441.17,284.77L441.19,263.92L441.2,217.12L441.22,228.42L441.24,181.87L441.25,161.93L441.41,50.03L441.78,281.71L441.91,133.29L441.92,129.99L441.98,54.5L442.34,263.54L442.62,83.99L442.64,59.15L442.67,47.29L443.1,284.65L443.52,141.63L443.53,114.16L443.71,257.88L443.92,57.58L444.25,172.6L444.26,173.47L444.53,284.3L444.7,29.3L445.02,200.68L445.03,210.7L445.25,280.36L445.58,40.4L445.73,230.9L445.74,227.11L446.1,230.2L446.25,42.85L446.51,178.18L446.52,182.75L446.72,77.84L447.26,284.81L447.28,268.43L447.29,239.58L447.48,36.83L447.74,282.36L448.09,69.27L448.11,93.8L448.45,286.43L448.57,168.63L448.58,154.1L448.71,33.36L449.12,284.06L449.29,196.09L449.3,218.6L449.44,34.13L449.66,247.76L450.03,201.88L450.04,211.74L450.17,280.62L450.51,95.7L450.52,67.88L450.59,51.4L450.84,262.67L450.94,225L450.95,232.29L451.17,84.11L451.51,251.25L451.72,170.76L451.73,169.61L452.06,42.82L452.25,270.33L452.27,260.3L452.28,278.56L452.55,65.48L453.06,165.23L453.07,175.08L453.15,204.91L453.23,132.48L453.4,138.52L453.41,115.98L453.5,35.25L453.78,279.13L453.79,278.34L454.28,55.22L454.41,283.97L454.51,281.95L454.52,281.33L454.55,283.94L454.62,165.23L454.63,133.5L454.71,35.3L455.22,271.14L455.38,120.85L455.39,142.48L455.56,249.1L455.97,101.32L455.98,91.64L456.16,32.69L456.31,222.86L456.4,194.21L456.42,189.46L456.71,229.27L456.81,119.92L456.82,70.92L456.87,55.73L457.09,256.77L457.1,285.6L457.38,34.71L457.86,230.82L457.87,220.29L457.89,258.7L458.44,50.57L458.59,171.15L458.6,151.56L459.03,38.03L459.25,257.77L459.3,122.12L459.31,69.52L459.45,28.8L459.93,286.03L459.99,279.57L460,280.45L460.02,285.18L460.07,239.23L460.1,248.19L460.11,209.83L460.24,288.57L460.45,83.02L460.49,121.91L460.5,68.98L460.79,285.12L461.04,24.02L461.25,42.54L461.26,35.74L461.76,29.25L461.9,280.07L462.08,235.98L462.09,221.97L462.27,289.76L462.74,31.53L462.89,49.29L462.9,40.5L462.91,36.9L462.97,281.05L462.99,277.16L463,280.08L463.08,73.93L463.39,280.74L463.4,277.58L463.41,285.4L463.65,35.17L463.9,291.54L464.12,172.8L464.13,234.5L464.57,28.59L464.89,283.32L464.9,283.56L464.91,284.12L464.92,228.7L465.05,294.41L465.3,30.11L465.69,53.15L465.7,111.67L465.88,29.14L466.32,282.55L466.46,148.11L466.47,121.19L466.63,28.82L467.13,283.41L467.23,36.16L467.24,40.44L467.25,36.05L467.44,281.32L467.45,280.54L467.48,284.73L467.55,151.36L467.59,192.33L467.6,105.01L467.89,288.85L467.97,26.84L468.26,71.43L468.27,33.13L468.34,29.7L468.56,286.05L469,240.41L469.01,106.06L469.31,280.15L469.76,25.85L469.78,37.2L469.79,31.35L469.9,287.68L470.51,42.67L470.53,48.86L470.76,283.08L471.26,32.98L471.28,66.86L471.29,95.09L471.53,285.1L471.77,30.33L472,40.53L472.01,40.39L472.05,91.32L472.07,35.2L472.08,48.79L472.09,121.94L472.31,285.63L472.81,33.9L472.84,149.46L472.86,216.44L473.07,286.56L473.19,31.88L473.61,241.88L473.62,191.23L473.83,285.23L473.96,31.02L474.38,159.04L474.39,184.37L474.68,33.62L474.95,285.63L475.1,219.66L475.11,133.49L475.44,28.72L475.73,225.68L475.85,153.13L475.86,139.16L475.93,34.31L476.06,286.6L476.63,249.79L476.64,223.5L476.79,284.67L477.12,33.31L477.38,178.37L477.39,207.21L477.77,64.53L478.03,283.44L478.15,163.92L478.17,170.73L478.5,37.19L478.62,242.36L478.91,166.29L478.92,159.59L479,276.08L479.25,45.49L479.65,191.63L479.67,161.73L479.75,248.25L480.29,33.45L480.42,153.91L480.43,153.34L480.69,34.59L480.85,284.98L481.2,227.16L481.21,194.04L481.87,32.28L481.94,207.28L481.95,198.3L481.96,206.48L482.1,282.34L482.25,101.76L482.51,140.41L482.52,103.97L482.58,34.09L482.93,283.87L483.28,65.36L483.29,44.88L483.34,34.09L483.72,249.2L483.84,192.57L483.85,194.14L484.05,31.64L484.46,285.41L484.59,220.2L484.6,207.16L484.84,33.41L485.27,283.98L485.42,269.75L485.43,252.63L485.45,281.7L485.78,33.53L486.15,243.49L486.16,202.3L486.34,54.29L486.84,284.22L486.87,282.47L486.88,280.71L486.93,281.19L487.01,166.13L487.02,148.62L487.32,30.15L487.66,283.76L487.75,176.17L487.76,161.86L487.87,34.6L488.25,272.85L488.49,203.3L488.5,204.12L488.64,259.19L488.82,33.6L489.28,151.66L489.3,168.34L489.31,168.97L489.33,132.58L489.34,103.22L489.56,36.26L489.78,281.31L490.07,109.53L490.08,117.03L490.5,282.62L490.7,62.5L490.71,36.82L490.72,33.04L491.14,151.79L491.15,178.39L491.25,283.9L491.77,93.11L491.88,124.51L491.89,138.42L492.41,237.68L492.53,33.66L492.56,36.79L492.57,34.21L492.59,32.21L492.64,184.51L492.65,227.41L493.08,32.64L493.38,286.41L493.41,279.54L493.42,281.21L493.53,286.53L493.63,168.56L493.64,202.9L493.65,156.99L493.79,31.13L493.95,292.08L494.39,220.32L494.4,163.61L494.69,290.92L495.03,32.37L495.18,49.93L495.19,130.5L495.33,34.52L495.57,294.01L495.77,112.6L495.78,85.49L495.87,29.22L496.4,289.8L496.5,171.01L496.51,201.29L496.77,28.36L497.1,290.03L497.24,284.46L497.25,279.45L497.27,285.62L497.33,147.64L497.34,61.54L497.51,25.2L497.87,284.57L498.03,179.67L498.04,70.65L498.31,29.27L498.81,287.81L498.87,276.21L498.88,278.93L498.95,281L499.04,32.47L499.29,168.54L499.3,191.93L499.36,282.1L499.84,34.52L500.06,280.18L500.07,280.97L500.09,283.74L500.11,214.36L500.12,167.87L500.48,25.32L500.82,289.14L500.87,135.38L500.88,148.9L501.1,26.07L501.33,285.31L501.57,238.86L501.59,282.4L502.04,19.06L502.33,295.76L502.35,88.73L502.36,75.06L502.85,291.62L502.94,28.32L502.98,142.5L502.99,202.67L503.32,23.89L503.61,297.79L503.64,149.05L503.65,90.96L503.69,25.6L503.82,291.02L504.27,163.33L504.28,257.42L504.57,288.18L504.83,29.12L504.96,200.92L504.97,109.37L505.1,290.35L505.44,18.99L505.72,41.68L505.74,48.52L505.75,37.97L505.94,292.31L506.28,227.82L506.29,284.31L506.38,286.19L506.42,122.33L506.43,78.1L506.71,28.19L507.05,284.93L507.07,270.23L507.36,292.01L507.71,27.29L507.81,270.67L507.82,283.29L507.99,287.71L508.02,61.8L508.16,255.11L508.17,274.23L508.77,21.98L508.9,283.89L508.95,113.58L508.96,101.47L509.12,288.42L509.53,28.48L509.73,29.44L509.74,29.78L509.87,283.9L510.34,178.93L510.35,106.43L510.42,30.05L510.75,269.39L511.12,166.03L511.13,169.78L511.45,287.77L511.64,33.63L511.86,174.24L511.88,138.55L512.22,285.86L512.38,30.05L512.65,196.32L512.66,192.81L512.67,193.61L512.72,147.55L512.73,154.28L512.74,102.65L512.97,283.31L513.13,32.65L513.45,189.73L513.46,225.39L513.58,68.59L514.05,268.35L514.21,200.98L514.22,197.45L514.62,36.56L514.77,268.71L514.91,188L514.92,237.67L515.05,44.78L515.22,282.89L515.56,109.46L515.57,116.13L516.09,34.58L516.2,247.57L516.28,45.63L516.29,36.77L516.32,38.63L516.34,32.76L516.36,60.72L516.49,282.79L516.83,34.84L517.11,124.67L517.12,112.49L517.21,101.23L517.41,220.88L517.6,190.84L517.61,201.33L518.03,31.92L518.2,283.08L518.27,169.17L518.28,102.41L518.47,286.74L518.67,30.36L519,269.42L519.02,193.53L519.23,283.4L519.52,36.97L519.78,128.34L519.79,118.9L519.81,117.56L519.83,148.26L519.85,181.57L519.98,282.71L520.32,29.94L520.58,101.76L520.59,121.16L520.73,284.32L520.95,49.36L521.36,252.96L521.37,263.51L521.84,35.08L521.98,284.92L522.02,178.97L522.03,124.01L522.12,284.75L522.31,32.52L522.7,248.16L522.71,270.5L522.72,281.22L523.2,32.26L523.39,201.29L523.4,194L523.41,194.34L523.42,174.23L523.43,182.26L523.44,242.6L523.54,44.88L524,285.52L524.13,195.4L524.14,170.03L524.67,28.59L524.88,226.91L524.91,201.05L524.92,156.77L525.1,268.4L525.41,44.81L525.64,229.52L525.66,208.58L525.78,31.99L525.89,253L526.44,121.42L526.45,132.83L526.53,36.28L526.67,267.34L527.19,158.74L527.2,147.7L527.4,270.9L527.67,36.15L527.95,155.64L527.96,153.63L528.05,64.95L528.56,280.58L528.71,138.32L528.72,163.16L529.11,192.65L529.17,53.81L529.43,138.21L529.44,110.69L529.67,285.66L529.89,57.13L530.07,106.48L530.08,96.3L530.41,283.17L530.66,52.63L530.76,126.89L530.77,137.72L530.82,45.99L531.1,282.47L531.42,53.8L531.43,32.93L531.87,251.16L532.05,117.47L532.06,79.11L532.45,32.44L532.59,284.38L532.81,78.15L532.82,66.97L533.27,284.98L533.57,33.16L533.58,40.01L533.59,33.82L533.61,33.26L534.03,287.24L534.1,175.76L534.11,121.16L534.18,286.46L534.48,31.43L534.58,278.92L534.59,279.74L534.67,277.99L534.75,288.57L534.83,279.18L534.84,276.21L534.88,281.74L534.94,167.8L534.96,102.61L535.23,29.09L535.35,286.89L535.68,197.97L535.69,190.96L536,29.44L536.09,285.33L536.4,205.73L536.41,147L536.5,27.76L536.96,286.55L537.15,190.05L537.16,175.24L537.41,29.64L537.54,284.31L537.88,283.55L537.89,271.91L537.98,29.4L538.6,286.51L538.62,283.28L538.63,285.3L538.9,32.47L539.23,160.95L539.24,216.65L539.71,30.84L539.89,283.75L539.98,192.96L539.99,177.13L540.06,284.43L540.19,60.31L540.53,117.49L540.54,82.48L540.81,248.81L540.89,86.85L540.9,41.92L541.04,285.1L541.31,27.21L541.41,169.15L541.42,198.15L541.52,25.56L541.86,295.62L542.08,232.41L542.1,92.03L542.41,27.87L542.74,287.65L542.85,37.37L542.86,42.23L542.91,27.14L543.27,298.47L543.64,174.15L543.65,21.31L544.22,291.05L544.4,103.46L544.41,119L544.76,289.69L545.05,27.07L545.12,101.41L545.13,67.81L545.36,30.69L545.48,290.8L545.89,160.06L545.9,147.23L546.32,288.65L546.53,28.2L546.6,57.3L546.61,28.55L546.67,23.59L546.96,287.45L547.33,84L547.34,31.14L547.56,25.4L547.87,286.64L547.99,115.11L548,60.06L548.43,294.21L548.51,28.32L548.72,177.13L548.73,91.77L548.88,35.37L549,280.22L549.03,153.49L549.04,37.58L549.11,28.73L549.22,287.98L549.25,98.13L549.26,24.27L549.91,293.9L549.98,140.81L549.99,42.58L550.27,268.7L550.36,28.91L550.61,47.91L550.62,186.18L550.65,286.66L551.03,27.36L551.38,284.24L551.4,276.02L551.69,28.8L552.12,285.95L552.15,227.36L552.16,284.74L552.58,30.99L552.82,182.3L552.83,238.72L552.93,287.36L553.34,33.51L553.53,117.62L553.54,62.64L553.97,288.15L554.12,35.75L554.15,195.68L554.16,242.48L554.19,285.33L554.45,52.66L554.79,84.04L554.8,34.06L554.98,29.25L555.45,290.51L555.55,34.11L555.56,32.75L555.57,26.8L555.86,285.95L555.87,281.92L555.89,287.26L556.51,27.92L556.57,290.34L556.6,282.9L556.61,280.73L556.93,289.43L556.96,65.93L557,146.44L557.01,44.71L557.21,34.2L557.3,285.31L557.51,209.98L557.52,285.19L557.53,286.02L557.56,278.21L557.57,209.61L557.67,274.19L557.76,25.79L558.31,209.06L558.32,242.99L558.41,286.84L558.62,22.97L558.95,135.06L558.96,60.06L559.15,289.66L559.22,185.98L559.23,107.72L559.61,28.69L559.75,289.19L559.98,31.1L559.99,52.59L560.3,288.54L560.35,29.43L560.77,247.01L560.78,210.43L561.04,284.28L561.27,33.71L561.49,279.37L561.5,286.67L561.68,32.15L562.23,260.72L562.24,288.8L562.41,27.69L562.96,201.38L562.97,254.44L563.17,31.21L563.59,292.13L563.65,44.42L563.66,41.33L563.72,144.32L563.92,33.13L564.02,132.46L564.03,216.71L564.08,283.33L564.42,30.57L564.79,159.99L564.8,243.01L565.04,286.54L565.45,26.83L565.5,107.13L565.52,86.27L565.68,28.15L565.96,286.67L566.29,254.65L566.3,243.09L566.33,287.3L566.41,45.65L566.69,224.06L566.7,269.77L567.05,289.32L567.21,29.3L567.44,282.01L567.45,260.51L567.68,29.95L567.81,284.51L568.22,56.39L568.23,79.65L568.47,283.73L568.76,31.8L568.92,131.33L568.93,89.25L569.11,28.45L569.26,286.54L569.65,132.94L569.67,110.97L569.71,141.58L569.72,196.93L570.21,27.31L570.33,285.04L570.48,283.5L570.5,281.3L570.51,285.53L570.57,31.99L570.78,154.91L570.79,52.37L570.91,283.89L571.39,29.13L571.46,48.64L571.47,155.97L572,287.38L572.09,28.42L572.23,254.56L572.24,201.5L572.36,287.61L572.83,23.9L573.01,43.08L573.02,26.07L573.5,17.73L573.73,295.77L573.82,286.98L573.83,283.08L573.93,287L574,137.27L574.01,75.57L574.07,25.74L574.53,286.33L574.66,278.68L574.67,283.02L575.13,27.23L575.41,288.04L575.44,243.27L575.45,279.59L575.65,286.75L575.94,25.38L576.16,276.59L576.17,279.91L576.18,281.65L576.21,178.81L576.22,157.09L576.33,25.32L576.84,288.39L576.93,277.48L576.94,271.82L577.26,24.1L577.61,285.93L577.7,169.74L577.71,258.33L577.84,25.5L578.16,294.24L578.49,33.9L578.5,35L578.55,30.7L578.6,39.28L578.61,117.75L579,291.22L579.21,26.58L579.35,102.08L579.36,136.9L579.39,90.71L579.41,201.36L579.42,259.13L579.49,25.96L579.73,285L579.76,246.91L579.77,285.71L580.22,28.03L580.44,199.22L580.46,270.7L580.59,291.62L580.87,22.87L581.19,194.54L581.2,229.53L581.34,283.1L581.53,26.12L581.89,233.03L581.9,280.43L581.96,290.42L582.15,84.16L582.16,70.53L582.25,28.29L582.8,286.53L582.91,102.25L582.92,34.39L583.06,28.34L583.56,286.39L583.68,116.38L583.69,60.22L583.83,28.63L584.04,287.56L584.43,31.36L584.45,40.3L584.55,31.04L584.69,192.39L584.75,140.87L584.76,217.5L585.04,284.35L585.28,28.81L585.37,37.71L585.38,33.82L585.45,27.44L585.81,288.35L586.09,34.09L586.11,40L586.12,40.28L586.21,29.2L586.22,67.34L586.78,33.23L587,285.22L587.01,279.6L587.13,27.96L587.72,288.02L587.77,189.93L587.78,209.99L587.79,208.67L587.82,268.11L587.83,219.92L587.84,114.21L588.03,32.63L588.47,286.9L588.6,36.12L588.61,58.65L588.73,288.33L589.11,33.11L589.39,285.15L589.4,281.25L589.47,286.42L589.66,120.57L589.67,44.2L589.86,30.19L589.91,224.25L590.1,186.74L590.11,269.68L590.15,287.22L590.51,26.9L590.56,38.28L590.57,32.65L590.63,105.43L590.64,239.42L590.92,286.01L591.23,30.66L591.34,35.06L591.35,31.46L591.47,287.06L592.09,34.81L592.1,60.36L592.37,286.63L592.55,32.6L592.87,279.44L592.88,279.47L592.95,283.36L592.97,223.02L592.98,194.86L593.3,27.62L593.43,287.07L593.73,194.24L593.75,188.88L593.77,217.81L593.84,35.65L594,58.6L594.01,40.34L594.02,38.07L594.12,183.47L594.13,249.43L594.16,287.86L594.54,31.84L594.87,229.63L594.88,181.43L595.04,28.68L595.22,284.29L595.66,35.54L595.67,35.94L595.7,31.64L595.81,148.69L595.82,159.06L595.97,284.34L596.47,31.77L596.52,37.05L596.53,48.88L596.67,284.95L597.2,34.33L597.32,185.88L597.33,159.12L597.66,283.17L597.92,29.08L598.09,131.47L598.1,155.16L598.38,284.6L598.63,32.31L598.87,276.38L598.89,280.92L598.93,285.04L598.95,225.01L598.96,147.34L599.24,31.26L599.63,280.98L599.73,39.42L599.74,76.18L600.09,34.01L600.24,284.97L600.48,49.82L600.49,62.62L600.73,284.17L600.85,32.85L601.25,147.41L601.26,169.61L601.62,31.09L601.82,284.9L601.96,36.74L601.97,58.05L602.3,32.81L602.56,283.57L602.75,203.8L602.76,157.17L602.84,287.82L603.16,31.8L603.46,234.02L603.47,247.75L603.62,276.93L603.8,108.47L603.84,161.35L603.85,84.22L603.86,30.69L604.22,279.54L604.6,78.12L604.61,82.6L604.77,284.95L605.2,34.09L605.3,108.16L605.31,103.15L605.48,285.94L605.66,30.17L606,200.44L606.01,154.55L606.22,287.4L606.43,31.09L606.58,187.23L606.59,230.94L606.98,284.57L607.09,91.59L607.1,59.79L607.13,33.54L607.33,280.61L607.86,33.91L607.87,33.95L607.93,73.07L607.94,126.72L608.08,286.14L608.3,35.23L608.7,213.05L608.71,252.02L608.9,287.14L609.05,29.62L609.37,34.51L609.38,37.01L609.39,33.05L609.45,284.35L609.93,102.48L609.94,164.18L610.17,283.55L610.48,28.58L610.7,256.31L610.71,285.47L611,30.66L611.13,195.07L611.14,229.74L611.61,28.77L611.68,289.19L611.81,54.86L611.82,45.33L612.09,30.27L612.38,290.89L612.61,271.1L612.62,271.78L612.75,284.24L613.41,26.5L613.46,67.09L613.47,138.02L613.71,286.98L613.81,24.81L614.05,84.36L614.06,58.23L614.15,36.45L614.21,144.15L614.22,179.29L614.32,27.7L614.42,285.88L614.96,194.27L614.97,178.42L615.29,27.26L615.5,282.66L615.51,277.66L615.52,282.76L615.6,152.7L615.61,87.72L615.62,87.3L615.63,141.12L615.85,29.84L616.13,282.43L616.34,83.07L616.35,43.76L616.68,284.13L616.76,43.48L617.07,102.61L617.08,39.77L617.33,31.62L617.42,262.66L617.58,120.91L617.59,78.51L617.76,35.14L617.95,290.38L618.25,173.83L618.26,242.1L618.5,27.81L618.68,291.59L619,179.8L619.01,245.78L619.3,29.94L619.59,285.6L619.78,37.07L619.79,68.48L619.98,26.81L620.11,288.05L620.28,122.67L620.29,250.96L620.43,283.25L620.57,26.22L620.98,83.73L620.99,58.65L621.02,31.13L621.06,287.08L621.66,96.48L621.67,41.22L621.87,288.82L622.25,26.69L622.32,165.23L622.33,216.5L622.57,286.19L622.98,30.3L623.08,160.49L623.09,132.33L623.21,284.74L623.45,19L623.83,37.49L623.84,39.24L623.94,299.01L624.19,30.7L624.6,152.62L624.61,60.12L624.81,290.67L625.03,28.04L625.25,89.54L625.26,194.8L625.36,29.34L625.4,233.46L625.41,296.33L625.73,36.29L626.17,172.06L626.18,219.27L626.35,24.22L626.57,282.86L626.9,130.06L626.91,201.22L627.24,291.26L627.48,29.09L627.65,245.45L627.66,236.63L627.91,28.47L628.03,286.68L628.19,79.79L628.2,41.22L628.27,34.01L628.52,284.86L628.72,138.93L628.73,249L628.79,31.23L629.29,288L629.41,125.11L629.42,101.27L629.5,287.23L629.68,31.69L630.08,128.4L630.09,58.93L630.12,35.14L630.52,304L630.72,176.11L630.73,264.78L631.05,290.48L631.34,25.63L631.39,119.01L631.4,36.19L631.89,32.67L631.98,290.49L632.17,194.18L632.18,187.87L632.34,289.34L632.72,31.72L632.89,100.7L632.9,88.99L633.29,293.59L633.57,54.68L633.65,236.14L633.66,168.24L634.01,288.59L634.18,26.35L634.41,88.54L634.43,149.36L634.81,288.22L634.98,41.54L635.19,227.12L635.2,168.81L635.32,291.57L635.64,22.15L635.85,224.05L635.86,225.56L636.33,27.92L636.63,284.06L636.64,282.37L636.78,290.02L636.8,91.05L636.81,72.06L636.9,30.62L637.15,282.56L637.55,45.78L637.56,32.23L637.69,32.16L637.85,290.74L638.18,270.04L638.19,151.17L638.23,284.51L638.56,24.23L638.86,271.91L638.87,280.27L638.93,260.09L638.99,286.13L639,240.78L639.09,29.34L639.38,289.31L639.62,190.76L639.63,230.09L639.82,29.73L640.01,292.97L640.32,60.35L640.33,50.16L640.95,29.78L641.11,285.44L641.13,264.14L641.14,280.5L641.15,288.04L641.55,37.6L641.57,37.97L641.6,30.16L641.76,219.65L641.77,278.29L641.87,286.13L642.46,31.09L642.53,110.92L642.54,188.27L642.78,29.53L642.99,286.9L643.29,219.2L643.3,218.56L643.57,31.67L643.74,283.31L643.95,132.4L643.96,194.51L644.04,284.71L644.37,29.38L644.65,58.2L644.66,45.11L644.84,287.44L645.11,31.05L645.39,85.44L645.4,45.28L645.58,286.31L645.76,31.73L646.15,125.83L646.16,116.12L646.25,289.04L646.33,47.05L646.5,63.95L646.51,50.69L646.58,32.06L646.74,282.68L647.06,144.45L647.07,81.13L647.18,282.11L647.53,32.67L647.7,207.57L647.72,225.94L647.96,286.39L648.18,29.26L648.45,280.04L648.46,264.78L648.68,285.33L648.79,29.58L648.98,103.17L648.99,29.18L649.27,284.01L649.34,27.88L649.74,106.36L649.75,76.81L649.82,25.64L650,281.92L650.41,185.35L650.42,235.33L650.54,86.79L650.55,36.14L650.57,81.43L650.58,133.77L650.95,30.31L651.17,281.55L651.29,48.65L651.3,35.67L651.32,35.43L651.48,158.58L651.49,194.28L651.94,290.55L652.06,34.38L652.2,170.06L652.21,111.87L652.51,34.54L652.74,288.4L652.93,153.41L652.94,160.81L652.97,194.88L653.03,127.33L653.05,131.2L653.06,89.85L653.2,287.71L653.7,29L653.73,153.05L653.74,230.31L654.12,286.09L654.37,32.65L654.47,193.65L654.48,274.59L654.71,29.32L654.9,284.83L654.96,218.27L654.97,102.15L655,32.8L655.65,288.01L655.71,109.71L655.72,127.46L655.95,287.61L656.29,30.88L656.46,95.97L656.47,112.28L656.97,30.15L657.11,288.47L657.21,179.86L657.22,124.57L657.6,31.71L657.86,286.46L657.96,140.94L657.97,45.8L658.24,285.44L658.34,30.05L658.59,131.04L658.6,236.46L658.64,291.04L659.12,29.98L659.3,35.67L659.31,36.1L659.35,34.85L659.36,117.83L659.37,234.35L659.62,288.09L659.97,33.36L660.1,233.47L660.11,163.15L660.61,287.75L660.74,33.26L660.84,285.61L660.85,284.83L660.94,33.22L661.38,286.47L661.54,161.78L661.55,230.55L661.78,283.45L662.02,33.08L662.18,196.97L662.19,74.75L662.27,31.76L662.68,285.69L662.93,111.39L662.94,110.17L663.28,38.76L663.46,283.58L663.55,146.37L663.56,120.63L663.69,32.32L663.78,285.33L664.33,250.31L664.34,251.23L664.49,32.64L665.04,285.06L665.1,274.3L665.11,228.79L665.29,287.55L665.41,31.61L665.85,281.47L665.86,282.08L665.87,282.69L665.9,246.05L665.91,207.64L666.27,33.3L666.58,287.2L666.63,257.38L666.65,259.04L667.04,30.92L667.37,283.64L667.41,219.77L667.42,264.25L667.43,285.29L667.81,30.97L668.09,109.06L668.1,85.99L668.33,287.27L668.65,31.17L668.85,163.39L668.86,126.09L669.06,284.82L669.18,29.29L669.64,38.46L669.65,39.28L669.86,285.67L669.97,73.32L669.98,57.65L670.1,28.72L670.52,284.67L670.61,253.77L670.63,280.3L670.64,280.92L670.65,279.24L670.66,225.76L670.92,33.42L671.32,286.39L671.38,232.53L671.39,253.8L671.5,33.27L671.85,285.18L672.09,148.96L672.1,142.83L672.5,34.8L672.62,273.2L672.84,118.64L672.85,164.95L673.17,283.31L673.32,50.71L673.57,111.22L673.58,98.54L673.75,282.38L674.05,34.53L674.13,172.51L674.14,243.31L674.38,31.82L674.73,287.91L674.89,282.55L674.9,272.13L675.15,33.18L675.23,284.37L675.7,156.51L675.71,164.44L675.91,31.25L676.48,269.83L676.49,263.49L676.85,284.65L677,31.81L677.28,88.35L677.29,125.45L677.52,93.08L677.95,281.1L678.03,152.18L678.04,102.33L678.06,31.71L678.67,285.01L678.78,156.25L678.79,122.04L679.36,32.74L679.46,272.01L679.49,254.43L679.5,253.3L679.7,281.92L679.77,32.73L680.24,215.64L680.26,175.6L680.47,284L680.65,33.06L681,137.55" style="vector-effect: non-scaling-stroke; fill: none; stroke: rgb(23, 190, 207); stroke-opacity: 1; stroke-width: 2px; opacity: 1;"/></g><g class="points"/><g class="text"/></g></g></g><g class="overplot"/><path class="xlines-above crisp" d="" style="fill: none; stroke-width: 1px; stroke: rgb(0, 0, 0); stroke-opacity: 0;"/><path class="ylines-above crisp" d="" style="fill: none; stroke-width: 1px; stroke: rgb(0, 0, 0); stroke-opacity: 0;"/><g class="overlines-above"/><g class="xaxislayer-above"><path class="xtick ticks crisp" d="M0,421v5" transform="translate(80,0)" style="stroke: rgb(51, 51, 51); stroke-opacity: 1; stroke-width: 1px;"/><path class="xtick ticks crisp" d="M0,421v5" transform="translate(165.13,0)" style="stroke: rgb(51, 51, 51); stroke-opacity: 1; stroke-width: 1px;"/><path class="xtick ticks crisp" d="M0,421v5" transform="translate(250.25,0)" style="stroke: rgb(51, 51, 51); stroke-opacity: 1; stroke-width: 1px;"/><path class="xtick ticks crisp" d="M0,421v5" transform="translate(335.38,0)" style="stroke: rgb(51, 51, 51); stroke-opacity: 1; stroke-width: 1px;"/><path class="xtick ticks crisp" d="M0,421v5" transform="translate(420.51,0)" style="stroke: rgb(51, 51, 51); stroke-opacity: 1; stroke-width: 1px;"/><path class="xtick ticks crisp" d="M0,421v5" transform="translate(505.63,0)" style="stroke: rgb(51, 51, 51); stroke-opacity: 1; stroke-width: 1px;"/><path class="xtick ticks crisp" d="M0,421v5" transform="translate(590.76,0)" style="stroke: rgb(51, 51, 51); stroke-opacity: 1; stroke-width: 1px;"/><path class="xtick ticks crisp" d="M0,421v5" transform="translate(675.88,0)" style="stroke: rgb(51, 51, 51); stroke-opacity: 1; stroke-width: 1px;"/><path class="xtick ticks crisp" d="M0,421v5" transform="translate(761.01,0)" style="stroke: rgb(51, 51, 51); stroke-opacity: 1; stroke-width: 1px;"/><g class="xtick"><text text-anchor="middle" x="0" y="446.4" transform="translate(80,0)" style="font-family: 'Open Sans', verdana, arial, sans-serif; font-size: 17px; fill: rgb(51, 51, 51); fill-opacity: 1; white-space: pre;">0</text></g><g class="xtick"><text text-anchor="middle" x="0" y="446.4" transform="translate(165.13,0)" style="font-family: 'Open Sans', verdana, arial, sans-serif; font-size: 17px; fill: rgb(51, 51, 51); fill-opacity: 1; white-space: pre;">500</text></g><g class="xtick"><text text-anchor="middle" x="0" y="446.4" transform="translate(250.25,0)" style="font-family: 'Open Sans', verdana, arial, sans-serif; font-size: 17px; fill: rgb(51, 51, 51); fill-opacity: 1; white-space: pre;">1000</text></g><g class="xtick"><text text-anchor="middle" x="0" y="446.4" transform="translate(335.38,0)" style="font-family: 'Open Sans', verdana, arial, sans-serif; font-size: 17px; fill: rgb(51, 51, 51); fill-opacity: 1; white-space: pre;">1500</text></g><g class="xtick"><text text-anchor="middle" x="0" y="446.4" transform="translate(420.51,0)" style="font-family: 'Open Sans', verdana, arial, sans-serif; font-size: 17px; fill: rgb(51, 51, 51); fill-opacity: 1; white-space: pre;">2000</text></g><g class="xtick"><text text-anchor="middle" x="0" y="446.4" transform="translate(505.63,0)" style="font-family: 'Open Sans', verdana, arial, sans-serif; font-size: 17px; fill: rgb(51, 51, 51); fill-opacity: 1; white-space: pre;">2500</text></g><g class="xtick"><text text-anchor="middle" x="0" y="446.4" transform="translate(590.76,0)" style="font-family: 'Open Sans', verdana, arial, sans-serif; font-size: 17px; fill: rgb(51, 51, 51); fill-opacity: 1; white-space: pre;">3000</text></g><g class="xtick"><text text-anchor="middle" x="0" y="446.4" transform="translate(675.88,0)" style="font-family: 'Open Sans', verdana, arial, sans-serif; font-size: 17px; fill: rgb(51, 51, 51); fill-opacity: 1; white-space: pre;">3500</text></g><g class="xtick"><text text-anchor="middle" x="0" y="446.4" transform="translate(761.01,0)" style="font-family: 'Open Sans', verdana, arial, sans-serif; font-size: 17px; fill: rgb(51, 51, 51); fill-opacity: 1; white-space: pre;">4000</text></g></g><g class="yaxislayer-above"><path class="ytick ticks crisp" d="M79,0h-5" transform="translate(0,375.2)" style="stroke: rgb(51, 51, 51); stroke-opacity: 1; stroke-width: 1px;"/><path class="ytick ticks crisp" d="M79,0h-5" transform="translate(0,317.59000000000003)" style="stroke: rgb(51, 51, 51); stroke-opacity: 1; stroke-width: 1px;"/><path class="ytick ticks crisp" d="M79,0h-5" transform="translate(0,259.98)" style="stroke: rgb(51, 51, 51); stroke-opacity: 1; stroke-width: 1px;"/><path class="ytick ticks crisp" d="M79,0h-5" transform="translate(0,202.38)" style="stroke: rgb(51, 51, 51); stroke-opacity: 1; stroke-width: 1px;"/><path class="ytick ticks crisp" d="M79,0h-5" transform="translate(0,144.77)" style="stroke: rgb(51, 51, 51); stroke-opacity: 1; stroke-width: 1px;"/><g class="ytick"><text text-anchor="end" x="70.6" y="5.949999999999999" transform="translate(0,375.2)" style="font-family: 'Open Sans', verdana, arial, sans-serif; font-size: 17px; fill: rgb(51, 51, 51); fill-opacity: 1; white-space: pre;">0.4</text></g><g class="ytick"><text text-anchor="end" x="70.6" y="5.949999999999999" transform="translate(0,317.59000000000003)" style="font-family: 'Open Sans', verdana, arial, sans-serif; font-size: 17px; fill: rgb(51, 51, 51); fill-opacity: 1; white-space: pre;">0.2</text></g><g class="ytick"><text text-anchor="end" x="70.6" y="5.949999999999999" transform="translate(0,259.98)" style="font-family: 'Open Sans', verdana, arial, sans-serif; font-size: 17px; fill: rgb(51, 51, 51); fill-opacity: 1; white-space: pre;">0</text></g><g class="ytick"><text text-anchor="end" x="70.6" y="5.949999999999999" transform="translate(0,202.38)" style="font-family: 'Open Sans', verdana, arial, sans-serif; font-size: 17px; fill: rgb(51, 51, 51); fill-opacity: 1; white-space: pre;">0.2</text></g><g class="ytick"><text text-anchor="end" x="70.6" y="5.949999999999999" transform="translate(0,144.77)" style="font-family: 'Open Sans', verdana, arial, sans-serif; font-size: 17px; fill: rgb(51, 51, 51); fill-opacity: 1; white-space: pre;">0.4</text></g></g><g class="overaxes-above"/></g></g><g class="polarlayer"/><g class="ternarylayer"/><g class="geolayer"/><g class="pielayer"/><g class="sunburstlayer"/><g class="glimages"/><defs id="topdefs-7a587d"><g class="clips"/><clipPath id="legend7a587d"><rect width="193" height="36" x="0" y="0"/></clipPath></defs><g class="layer-above"><g class="imagelayer"/><g class="shapelayer"/></g><g class="infolayer"><g class="legend" pointer-events="all" transform="translate(774.62, 100)"><rect class="bg" shape-rendering="crispEdges" style="stroke: rgb(68, 68, 68); stroke-opacity: 1; fill: rgb(255, 255, 255); fill-opacity: 1; stroke-width: 0px;" width="193" height="36" x="0" y="0"/><g class="scrollbox" transform="translate(0, 0)" clip-path="url('#legend7a587d')"><g class="groups" transform="translate(0, 0)"><g class="traces" transform="translate(0, 17.55)" style="opacity: 1;"><text class="legendtext user-select-none" text-anchor="start" x="40" y="6.63" style="font-family: 'Open Sans', verdana, arial, sans-serif; font-size: 17px; fill: rgb(51, 51, 51); fill-opacity: 1; white-space: pre;">class=street_music</text><g class="layers" style="opacity: 1;"><g class="legendfill"/><g class="legendlines"><path class="js-line" d="M5,0h30" style="fill: none; stroke: rgb(23, 190, 207); stroke-opacity: 1; stroke-width: 2px;"/></g><g class="legendsymbols"><g class="legendpoints"/></g></g><rect class="legendtoggle" pointer-events="all" x="0" y="-12.55" width="233" height="25.1" style="cursor: pointer; fill: rgb(0, 0, 0); fill-opacity: 0;"/></g></g></g><rect class="scrollbar" rx="20" ry="3" width="0" height="0" style="fill: rgb(128, 139, 164); fill-opacity: 1;" x="0" y="0"/></g><g class="g-gtitle"><text class="gtitle" x="490" y="50" text-anchor="middle" dy="0em" style="font-family: 'Open Sans', verdana, arial, sans-serif; font-size: 24px; fill: rgb(51, 51, 51); opacity: 1; font-weight: normal; white-space: pre;">audio wave (time vs amplitude)</text></g><g class="g-xtitle"><text class="xtitle" x="420.5" y="490" text-anchor="middle" style="font-family: 'Open Sans', verdana, arial, sans-serif; font-size: 20px; fill: rgb(51, 51, 51); opacity: 1; font-weight: normal; white-space: pre;">time(ms)</text></g><g class="g-ytitle"><text class="ytitle" transform="rotate(-90,30,260)" x="30" y="260" text-anchor="middle" style="font-family: 'Open Sans', verdana, arial, sans-serif; font-size: 20px; fill: rgb(51, 51, 51); opacity: 1; font-weight: normal; white-space: pre;">amplitude</text></g></g></svg>